<?xml version="1.0" encoding="UTF-8" standalone="no"?><svg xmlns="http://www.w3.org/2000/svg" xmlns:xlink="http://www.w3.org/1999/xlink" contentStyleType="text/css" height="731px" preserveAspectRatio="none" style="width:1716px;height:731px;background:#FFFFFF;" version="1.1" viewBox="0 0 1716 731" width="1716px" zoomAndPan="magnify"><defs/><g><rect fill="#FFFFFF" height="616.0313" style="stroke:#181818;stroke-width:1.0;" width="10" x="63" y="69.9609"/><rect fill="#FFFFFF" height="546.3281" style="stroke:#181818;stroke-width:1.0;" width="10" x="255" y="100.3125"/><rect fill="#FFFFFF" height="424.9219" style="stroke:#181818;stroke-width:1.0;" width="10" x="434" y="191.3672"/><rect fill="#FFFFFF" height="30.3516" style="stroke:#181818;stroke-width:1.0;" width="10" x="693" y="343.125"/><rect fill="#FFFFFF" height="30.3516" style="stroke:#181818;stroke-width:1.0;" width="10" x="1088.5" y="130.6641"/><rect fill="#FFFFFF" height="30.3516" style="stroke:#181818;stroke-width:1.0;" width="10" x="1088.5" y="555.5859"/><rect fill="#FFFFFF" height="30.3516" style="stroke:#181818;stroke-width:1.0;" width="10" x="1386" y="221.7188"/><rect fill="#FFFFFF" height="30.3516" style="stroke:#181818;stroke-width:1.0;" width="10" x="1489.5" y="403.8281"/><rect fill="#FFFFFF" height="30.3516" style="stroke:#181818;stroke-width:1.0;" width="10" x="1489.5" y="494.8828"/><line style="stroke:#181818;stroke-width:0.5;stroke-dasharray:5.0,5.0;" x1="68" x2="68" y1="37.6094" y2="694.9922"/><line style="stroke:#181818;stroke-width:0.5;stroke-dasharray:5.0,5.0;" x1="260" x2="260" y1="37.6094" y2="694.9922"/><line style="stroke:#181818;stroke-width:0.5;stroke-dasharray:5.0,5.0;" x1="438.5" x2="438.5" y1="37.6094" y2="694.9922"/><line style="stroke:#181818;stroke-width:0.5;stroke-dasharray:5.0,5.0;" x1="601" x2="601" y1="37.6094" y2="694.9922"/><line style="stroke:#181818;stroke-width:0.5;stroke-dasharray:5.0,5.0;" x1="698" x2="698" y1="37.6094" y2="694.9922"/><line style="stroke:#181818;stroke-width:0.5;stroke-dasharray:5.0,5.0;" x1="820" x2="820" y1="37.6094" y2="694.9922"/><line style="stroke:#181818;stroke-width:0.5;stroke-dasharray:5.0,5.0;" x1="963" x2="963" y1="37.6094" y2="694.9922"/><line style="stroke:#181818;stroke-width:0.5;stroke-dasharray:5.0,5.0;" x1="1093" x2="1093" y1="37.6094" y2="694.9922"/><line style="stroke:#181818;stroke-width:0.5;stroke-dasharray:5.0,5.0;" x1="1202" x2="1202" y1="37.6094" y2="694.9922"/><line style="stroke:#181818;stroke-width:0.5;stroke-dasharray:5.0,5.0;" x1="1296" x2="1296" y1="37.6094" y2="694.9922"/><line style="stroke:#181818;stroke-width:0.5;stroke-dasharray:5.0,5.0;" x1="1391" x2="1391" y1="37.6094" y2="694.9922"/><line style="stroke:#181818;stroke-width:0.5;stroke-dasharray:5.0,5.0;" x1="1494" x2="1494" y1="37.6094" y2="694.9922"/><line style="stroke:#181818;stroke-width:0.5;stroke-dasharray:5.0,5.0;" x1="1598" x2="1598" y1="37.6094" y2="694.9922"/><line style="stroke:#181818;stroke-width:0.5;stroke-dasharray:5.0,5.0;" x1="1684" x2="1684" y1="37.6094" y2="694.9922"/><rect fill="#E2E2F0" height="31.6094" rx="2.5" ry="2.5" style="stroke:#181818;stroke-width:0.5;" width="108" x="14" y="5"/><text fill="#000000" font-family="sans-serif" font-size="14" lengthAdjust="spacing" textLength="94" x="21" y="26.5332">:ElevatorRoute</text><rect fill="#E2E2F0" height="31.6094" rx="2.5" ry="2.5" style="stroke:#181818;stroke-width:0.5;" width="108" x="14" y="693.9922"/><text fill="#000000" font-family="sans-serif" font-size="14" lengthAdjust="spacing" textLength="94" x="21" y="715.5254">:ElevatorRoute</text><rect fill="#E2E2F0" height="31.6094" rx="2.5" ry="2.5" style="stroke:#181818;stroke-width:0.5;" width="156" x="182" y="5"/><text fill="#000000" font-family="sans-serif" font-size="14" lengthAdjust="spacing" textLength="142" x="189" y="26.5332">:EditElevatorController</text><rect fill="#E2E2F0" height="31.6094" rx="2.5" ry="2.5" style="stroke:#181818;stroke-width:0.5;" width="156" x="182" y="693.9922"/><text fill="#000000" font-family="sans-serif" font-size="14" lengthAdjust="spacing" textLength="142" x="189" y="715.5254">:EditElevatorController</text><rect fill="#E2E2F0" height="31.6094" rx="2.5" ry="2.5" style="stroke:#181818;stroke-width:0.5;" width="141" x="368.5" y="5"/><text fill="#000000" font-family="sans-serif" font-size="14" lengthAdjust="spacing" textLength="127" x="375.5" y="26.5332">:EditElevatorService</text><rect fill="#E2E2F0" height="31.6094" rx="2.5" ry="2.5" style="stroke:#181818;stroke-width:0.5;" width="141" x="368.5" y="693.9922"/><text fill="#000000" font-family="sans-serif" font-size="14" lengthAdjust="spacing" textLength="127" x="375.5" y="715.5254">:EditElevatorService</text><rect fill="#E2E2F0" height="31.6094" rx="2.5" ry="2.5" style="stroke:#181818;stroke-width:0.5;" width="70" x="566" y="5"/><text fill="#000000" font-family="sans-serif" font-size="14" lengthAdjust="spacing" textLength="56" x="573" y="26.5332">:Elevator</text><rect fill="#E2E2F0" height="31.6094" rx="2.5" ry="2.5" style="stroke:#181818;stroke-width:0.5;" width="70" x="566" y="693.9922"/><text fill="#000000" font-family="sans-serif" font-size="14" lengthAdjust="spacing" textLength="56" x="573" y="715.5254">:Elevator</text><rect fill="#E2E2F0" height="31.6094" rx="2.5" ry="2.5" style="stroke:#181818;stroke-width:0.5;" width="104" x="646" y="5"/><text fill="#000000" font-family="sans-serif" font-size="14" lengthAdjust="spacing" textLength="90" x="653" y="26.5332">:ElevatorRepo</text><rect fill="#E2E2F0" height="31.6094" rx="2.5" ry="2.5" style="stroke:#181818;stroke-width:0.5;" width="104" x="646" y="693.9922"/><text fill="#000000" font-family="sans-serif" font-size="14" lengthAdjust="spacing" textLength="90" x="653" y="715.5254">:ElevatorRepo</text><rect fill="#E2E2F0" height="31.6094" rx="2.5" ry="2.5" style="stroke:#181818;stroke-width:0.5;" width="121" x="760" y="5"/><text fill="#000000" font-family="sans-serif" font-size="14" lengthAdjust="spacing" textLength="107" x="767" y="26.5332">:ElevatorSchema</text><rect fill="#E2E2F0" height="31.6094" rx="2.5" ry="2.5" style="stroke:#181818;stroke-width:0.5;" width="121" x="760" y="693.9922"/><text fill="#000000" font-family="sans-serif" font-size="14" lengthAdjust="spacing" textLength="107" x="767" y="715.5254">:ElevatorSchema</text><rect fill="#E2E2F0" height="31.6094" rx="2.5" ry="2.5" style="stroke:#181818;stroke-width:0.5;" width="144" x="891" y="5"/><text fill="#000000" font-family="sans-serif" font-size="14" lengthAdjust="spacing" textLength="130" x="898" y="26.5332">:ElevatorPersistence</text><rect fill="#E2E2F0" height="31.6094" rx="2.5" ry="2.5" style="stroke:#181818;stroke-width:0.5;" width="144" x="891" y="693.9922"/><text fill="#000000" font-family="sans-serif" font-size="14" lengthAdjust="spacing" textLength="130" x="898" y="715.5254">:ElevatorPersistence</text><rect fill="#E2E2F0" height="31.6094" rx="2.5" ry="2.5" style="stroke:#181818;stroke-width:0.5;" width="97" x="1045" y="5"/><text fill="#000000" font-family="sans-serif" font-size="14" lengthAdjust="spacing" textLength="83" x="1052" y="26.5332">:ElevatorMap</text><rect fill="#E2E2F0" height="31.6094" rx="2.5" ry="2.5" style="stroke:#181818;stroke-width:0.5;" width="97" x="1045" y="693.9922"/><text fill="#000000" font-family="sans-serif" font-size="14" lengthAdjust="spacing" textLength="83" x="1052" y="715.5254">:ElevatorMap</text><rect fill="#E2E2F0" height="31.6094" rx="2.5" ry="2.5" style="stroke:#181818;stroke-width:0.5;" width="100" x="1152" y="5"/><text fill="#000000" font-family="sans-serif" font-size="14" lengthAdjust="spacing" textLength="86" x="1159" y="26.5332">:ElevatorDTO</text><rect fill="#E2E2F0" height="31.6094" rx="2.5" ry="2.5" style="stroke:#181818;stroke-width:0.5;" width="100" x="1152" y="693.9922"/><text fill="#000000" font-family="sans-serif" font-size="14" lengthAdjust="spacing" textLength="86" x="1159" y="715.5254">:ElevatorDTO</text><rect fill="#E2E2F0" height="31.6094" rx="2.5" ry="2.5" style="stroke:#181818;stroke-width:0.5;" width="68" x="1262" y="5"/><text fill="#000000" font-family="sans-serif" font-size="14" lengthAdjust="spacing" textLength="54" x="1269" y="26.5332">:Building</text><rect fill="#E2E2F0" height="31.6094" rx="2.5" ry="2.5" style="stroke:#181818;stroke-width:0.5;" width="68" x="1262" y="693.9922"/><text fill="#000000" font-family="sans-serif" font-size="14" lengthAdjust="spacing" textLength="54" x="1269" y="715.5254">:Building</text><rect fill="#E2E2F0" height="31.6094" rx="2.5" ry="2.5" style="stroke:#181818;stroke-width:0.5;" width="102" x="1340" y="5"/><text fill="#000000" font-family="sans-serif" font-size="14" lengthAdjust="spacing" textLength="88" x="1347" y="26.5332">:BuildingRepo</text><rect fill="#E2E2F0" height="31.6094" rx="2.5" ry="2.5" style="stroke:#181818;stroke-width:0.5;" width="102" x="1340" y="693.9922"/><text fill="#000000" font-family="sans-serif" font-size="14" lengthAdjust="spacing" textLength="88" x="1347" y="715.5254">:BuildingRepo</text><rect fill="#E2E2F0" height="31.6094" rx="2.5" ry="2.5" style="stroke:#181818;stroke-width:0.5;" width="85" x="1452" y="5"/><text fill="#000000" font-family="sans-serif" font-size="14" lengthAdjust="spacing" textLength="71" x="1459" y="26.5332">:FloorRepo</text><rect fill="#E2E2F0" height="31.6094" rx="2.5" ry="2.5" style="stroke:#181818;stroke-width:0.5;" width="85" x="1452" y="693.9922"/><text fill="#000000" font-family="sans-serif" font-size="14" lengthAdjust="spacing" textLength="71" x="1459" y="715.5254">:FloorRepo</text><rect fill="#E2E2F0" height="31.6094" rx="2.5" ry="2.5" style="stroke:#181818;stroke-width:0.5;" width="102" x="1547" y="5"/><text fill="#000000" font-family="sans-serif" font-size="14" lengthAdjust="spacing" textLength="88" x="1554" y="26.5332">:FloorSchema</text><rect fill="#E2E2F0" height="31.6094" rx="2.5" ry="2.5" style="stroke:#181818;stroke-width:0.5;" width="102" x="1547" y="693.9922"/><text fill="#000000" font-family="sans-serif" font-size="14" lengthAdjust="spacing" textLength="88" x="1554" y="715.5254">:FloorSchema</text><rect fill="#E2E2F0" height="31.6094" rx="2.5" ry="2.5" style="stroke:#181818;stroke-width:0.5;" width="51" x="1659" y="5"/><text fill="#000000" font-family="sans-serif" font-size="14" lengthAdjust="spacing" textLength="37" x="1666" y="26.5332">:Floor</text><rect fill="#E2E2F0" height="31.6094" rx="2.5" ry="2.5" style="stroke:#181818;stroke-width:0.5;" width="51" x="1659" y="693.9922"/><text fill="#000000" font-family="sans-serif" font-size="14" lengthAdjust="spacing" textLength="37" x="1666" y="715.5254">:Floor</text><rect fill="#FFFFFF" height="616.0313" style="stroke:#181818;stroke-width:1.0;" width="10" x="63" y="69.9609"/><rect fill="#FFFFFF" height="546.3281" style="stroke:#181818;stroke-width:1.0;" width="10" x="255" y="100.3125"/><rect fill="#FFFFFF" height="424.9219" style="stroke:#181818;stroke-width:1.0;" width="10" x="434" y="191.3672"/><rect fill="#FFFFFF" height="30.3516" style="stroke:#181818;stroke-width:1.0;" width="10" x="693" y="343.125"/><rect fill="#FFFFFF" height="30.3516" style="stroke:#181818;stroke-width:1.0;" width="10" x="1088.5" y="130.6641"/><rect fill="#FFFFFF" height="30.3516" style="stroke:#181818;stroke-width:1.0;" width="10" x="1088.5" y="555.5859"/><rect fill="#FFFFFF" height="30.3516" style="stroke:#181818;stroke-width:1.0;" width="10" x="1386" y="221.7188"/><rect fill="#FFFFFF" height="30.3516" style="stroke:#181818;stroke-width:1.0;" width="10" x="1489.5" y="403.8281"/><rect fill="#FFFFFF" height="30.3516" style="stroke:#181818;stroke-width:1.0;" width="10" x="1489.5" y="494.8828"/><ellipse cx="4.5" cy="69.2109" fill="none" rx="4" ry="4" style="stroke:#181818;stroke-width:1.5;"/><polygon fill="#181818" points="51,65.9609,61,69.9609,51,73.9609,55,69.9609" style="stroke:#181818;stroke-width:1.0;"/><line style="stroke:#181818;stroke-width:1.0;" x1="9" x2="57" y1="69.9609" y2="69.9609"/><text fill="#000000" font-family="sans-serif" font-size="13" font-weight="bold" lengthAdjust="spacing" textLength="7" x="12" y="65.1045">1</text><text fill="#000000" font-family="sans-serif" font-size="13" lengthAdjust="spacing" textLength="25" x="23" y="65.1045">PUT</text><polygon fill="#181818" points="243,96.3125,253,100.3125,243,104.3125,247,100.3125" style="stroke:#181818;stroke-width:1.0;"/><line style="stroke:#181818;stroke-width:1.0;" x1="73" x2="249" y1="100.3125" y2="100.3125"/><text fill="#000000" font-family="sans-serif" font-size="13" font-weight="bold" lengthAdjust="spacing" textLength="7" x="80" y="95.4561">2</text><text fill="#000000" font-family="sans-serif" font-size="13" lengthAdjust="spacing" textLength="152" x="91" y="95.4561">editElevator(req, res, next)</text><polygon fill="#181818" points="1076.5,126.6641,1086.5,130.6641,1076.5,134.6641,1080.5,130.6641" style="stroke:#181818;stroke-width:1.0;"/><line style="stroke:#181818;stroke-width:1.0;" x1="265" x2="1082.5" y1="130.6641" y2="130.6641"/><text fill="#000000" font-family="sans-serif" font-size="13" font-weight="bold" lengthAdjust="spacing" textLength="7" x="272" y="125.8076">3</text><text fill="#000000" font-family="sans-serif" font-size="13" lengthAdjust="spacing" textLength="89" x="283" y="125.8076">toDto(req.body)</text><polygon fill="#181818" points="276,157.0156,266,161.0156,276,165.0156,272,161.0156" style="stroke:#181818;stroke-width:1.0;"/><line style="stroke:#181818;stroke-width:1.0;stroke-dasharray:2.0,2.0;" x1="270" x2="1092.5" y1="161.0156" y2="161.0156"/><text fill="#000000" font-family="sans-serif" font-size="13" font-weight="bold" lengthAdjust="spacing" textLength="7" x="282" y="156.1592">4</text><text fill="#000000" font-family="sans-serif" font-size="13" lengthAdjust="spacing" textLength="4" x="293" y="156.1592"> </text><polygon fill="#181818" points="422,187.3672,432,191.3672,422,195.3672,426,191.3672" style="stroke:#181818;stroke-width:1.0;"/><line style="stroke:#181818;stroke-width:1.0;" x1="265" x2="428" y1="191.3672" y2="191.3672"/><text fill="#000000" font-family="sans-serif" font-size="13" font-weight="bold" lengthAdjust="spacing" textLength="7" x="272" y="186.5107">5</text><text fill="#000000" font-family="sans-serif" font-size="13" lengthAdjust="spacing" textLength="139" x="283" y="186.5107">editElevator(elevatorDto)</text><polygon fill="#181818" points="1374,217.7188,1384,221.7188,1374,225.7188,1378,221.7188" style="stroke:#181818;stroke-width:1.0;"/><line style="stroke:#181818;stroke-width:1.0;" x1="444" x2="1380" y1="221.7188" y2="221.7188"/><text fill="#000000" font-family="sans-serif" font-size="13" font-weight="bold" lengthAdjust="spacing" textLength="7" x="451" y="216.8623">6</text><text fill="#000000" font-family="sans-serif" font-size="13" lengthAdjust="spacing" textLength="194" x="462" y="216.8623">findByBuildingCode(buildingCode)</text><polygon fill="#181818" points="455,248.0703,445,252.0703,455,256.0703,451,252.0703" style="stroke:#181818;stroke-width:1.0;"/><line style="stroke:#181818;stroke-width:1.0;stroke-dasharray:2.0,2.0;" x1="449" x2="1390" y1="252.0703" y2="252.0703"/><text fill="#000000" font-family="sans-serif" font-size="13" font-weight="bold" lengthAdjust="spacing" textLength="7" x="461" y="247.2139">7</text><text fill="#000000" font-family="sans-serif" font-size="13" lengthAdjust="spacing" textLength="4" x="472" y="247.2139"> </text><polygon fill="#181818" points="1284,278.4219,1294,282.4219,1284,286.4219,1288,282.4219" style="stroke:#181818;stroke-width:1.0;"/><line style="stroke:#181818;stroke-width:1.0;" x1="444" x2="1290" y1="282.4219" y2="282.4219"/><text fill="#000000" font-family="sans-serif" font-size="13" font-weight="bold" lengthAdjust="spacing" textLength="7" x="451" y="277.5654">8</text><text fill="#000000" font-family="sans-serif" font-size="13" lengthAdjust="spacing" textLength="329" x="462" y="277.5654">elevator = get elevator with selected identification number</text><polygon fill="#181818" points="589,308.7734,599,312.7734,589,316.7734,593,312.7734" style="stroke:#181818;stroke-width:1.0;"/><line style="stroke:#181818;stroke-width:1.0;" x1="444" x2="595" y1="312.7734" y2="312.7734"/><text fill="#000000" font-family="sans-serif" font-size="13" font-weight="bold" lengthAdjust="spacing" textLength="7" x="451" y="307.917">9</text><text fill="#000000" font-family="sans-serif" font-size="13" lengthAdjust="spacing" textLength="122" x="462" y="307.917">set property changes</text><polygon fill="#181818" points="681,339.125,691,343.125,681,347.125,685,343.125" style="stroke:#181818;stroke-width:1.0;"/><line style="stroke:#181818;stroke-width:1.0;" x1="444" x2="687" y1="343.125" y2="343.125"/><text fill="#000000" font-family="sans-serif" font-size="13" font-weight="bold" lengthAdjust="spacing" textLength="14" x="451" y="338.2686">10</text><text fill="#000000" font-family="sans-serif" font-size="13" lengthAdjust="spacing" textLength="78" x="469" y="338.2686">save(elevator)</text><polygon fill="#181818" points="808.5,369.4766,818.5,373.4766,808.5,377.4766,812.5,373.4766" style="stroke:#181818;stroke-width:1.0;"/><line style="stroke:#181818;stroke-width:1.0;" x1="698" x2="814.5" y1="373.4766" y2="373.4766"/><text fill="#000000" font-family="sans-serif" font-size="13" font-weight="bold" lengthAdjust="spacing" textLength="14" x="705" y="368.6201">11</text><text fill="#000000" font-family="sans-serif" font-size="13" lengthAdjust="spacing" textLength="26" x="723" y="368.6201">save</text><polygon fill="#181818" points="1477.5,399.8281,1487.5,403.8281,1477.5,407.8281,1481.5,403.8281" style="stroke:#181818;stroke-width:1.0;"/><line style="stroke:#181818;stroke-width:1.0;" x1="444" x2="1483.5" y1="403.8281" y2="403.8281"/><text fill="#000000" font-family="sans-serif" font-size="13" font-weight="bold" lengthAdjust="spacing" textLength="14" x="451" y="398.9717">12</text><text fill="#000000" font-family="sans-serif" font-size="13" lengthAdjust="spacing" textLength="203" x="469" y="398.9717">get all floors to remove/add elevator</text><polygon fill="#181818" points="455,430.1797,445,434.1797,455,438.1797,451,434.1797" style="stroke:#181818;stroke-width:1.0;"/><line style="stroke:#181818;stroke-width:1.0;stroke-dasharray:2.0,2.0;" x1="449" x2="1493.5" y1="434.1797" y2="434.1797"/><text fill="#000000" font-family="sans-serif" font-size="13" font-weight="bold" lengthAdjust="spacing" textLength="14" x="461" y="429.3232">13</text><text fill="#000000" font-family="sans-serif" font-size="13" lengthAdjust="spacing" textLength="4" x="479" y="429.3232"> </text><polygon fill="#181818" points="1672.5,460.5313,1682.5,464.5313,1672.5,468.5313,1676.5,464.5313" style="stroke:#181818;stroke-width:1.0;"/><line style="stroke:#181818;stroke-width:1.0;" x1="444" x2="1678.5" y1="464.5313" y2="464.5313"/><text fill="#000000" font-family="sans-serif" font-size="13" font-weight="bold" lengthAdjust="spacing" textLength="14" x="451" y="459.6748">14</text><text fill="#000000" font-family="sans-serif" font-size="13" lengthAdjust="spacing" textLength="178" x="469" y="459.6748">remove/add elevator from floors</text><polygon fill="#181818" points="1477.5,490.8828,1487.5,494.8828,1477.5,498.8828,1481.5,494.8828" style="stroke:#181818;stroke-width:1.0;"/><line style="stroke:#181818;stroke-width:1.0;" x1="444" x2="1483.5" y1="494.8828" y2="494.8828"/><text fill="#000000" font-family="sans-serif" font-size="13" font-weight="bold" lengthAdjust="spacing" textLength="14" x="451" y="490.0264">15</text><text fill="#000000" font-family="sans-serif" font-size="13" lengthAdjust="spacing" textLength="82" x="469" y="490.0264">save(all floors)</text><polygon fill="#181818" points="1586,521.2344,1596,525.2344,1586,529.2344,1590,525.2344" style="stroke:#181818;stroke-width:1.0;"/><line style="stroke:#181818;stroke-width:1.0;" x1="1494.5" x2="1592" y1="525.2344" y2="525.2344"/><text fill="#000000" font-family="sans-serif" font-size="13" font-weight="bold" lengthAdjust="spacing" textLength="14" x="1501.5" y="520.3779">16</text><text fill="#000000" font-family="sans-serif" font-size="13" lengthAdjust="spacing" textLength="26" x="1519.5" y="520.3779">save</text><polygon fill="#181818" points="1076.5,551.5859,1086.5,555.5859,1076.5,559.5859,1080.5,555.5859" style="stroke:#181818;stroke-width:1.0;"/><line style="stroke:#181818;stroke-width:1.0;" x1="444" x2="1082.5" y1="555.5859" y2="555.5859"/><text fill="#000000" font-family="sans-serif" font-size="13" font-weight="bold" lengthAdjust="spacing" textLength="14" x="451" y="550.7295">17</text><text fill="#000000" font-family="sans-serif" font-size="13" lengthAdjust="spacing" textLength="68" x="469" y="550.7295">toDto(room)</text><polygon fill="#181818" points="1190,581.9375,1200,585.9375,1190,589.9375,1194,585.9375" style="stroke:#181818;stroke-width:1.0;"/><line style="stroke:#181818;stroke-width:1.0;" x1="1093.5" x2="1196" y1="585.9375" y2="585.9375"/><text fill="#000000" font-family="sans-serif" font-size="13" font-weight="bold" lengthAdjust="spacing" textLength="14" x="1100.5" y="581.0811">18</text><text fill="#000000" font-family="sans-serif" font-size="13" lengthAdjust="spacing" textLength="36" x="1118.5" y="581.0811">create</text><polygon fill="#181818" points="276,612.2891,266,616.2891,276,620.2891,272,616.2891" style="stroke:#181818;stroke-width:1.0;"/><line style="stroke:#181818;stroke-width:1.0;stroke-dasharray:2.0,2.0;" x1="270" x2="438" y1="616.2891" y2="616.2891"/><text fill="#000000" font-family="sans-serif" font-size="13" font-weight="bold" lengthAdjust="spacing" textLength="14" x="282" y="611.4326">19</text><text fill="#000000" font-family="sans-serif" font-size="13" lengthAdjust="spacing" textLength="4" x="300" y="611.4326"> </text><polygon fill="#181818" points="84,642.6406,74,646.6406,84,650.6406,80,646.6406" style="stroke:#181818;stroke-width:1.0;"/><line style="stroke:#181818;stroke-width:1.0;stroke-dasharray:2.0,2.0;" x1="78" x2="259" y1="646.6406" y2="646.6406"/><text fill="#000000" font-family="sans-serif" font-size="13" font-weight="bold" lengthAdjust="spacing" textLength="14" x="90" y="641.7842">20</text><text fill="#000000" font-family="sans-serif" font-size="13" lengthAdjust="spacing" textLength="88" x="108" y="641.7842">inform success</text><polygon fill="#181818" points="11,672.9922,1,676.9922,11,680.9922,7,676.9922" style="stroke:#181818;stroke-width:1.0;"/><line style="stroke:#181818;stroke-width:1.0;stroke-dasharray:2.0,2.0;" x1="5" x2="62" y1="676.9922" y2="676.9922"/><text fill="#000000" font-family="sans-serif" font-size="13" font-weight="bold" lengthAdjust="spacing" textLength="14" x="17" y="672.1357">21</text><text fill="#000000" font-family="sans-serif" font-size="13" lengthAdjust="spacing" textLength="4" x="35" y="672.1357"> </text><!--MD5=[ab7e6c321be3b242674c45fd3fb803f5]
@startuml

autonumber

participant ":ElevatorRoute" as Route
participant ":EditElevatorController" as Controller
participant ":EditElevatorService" as Service
participant ":Elevator" as Elevator
participant ":ElevatorRepo" as Repo
participant ":ElevatorSchema" as Schema
participant ":ElevatorPersistence" as Persistence
participant ":ElevatorMap" as Map
participant ":ElevatorDTO" as DTO
participant ":Building" as Building
participant ":BuildingRepo" as BuildingRepo
participant ":FloorRepo" as FloorRepo
participant ":FloorSchema" as FloorSchema
participant ":Floor" as Floor


?o->Route: PUT
activate Route

Route -> Controller: editElevator(req, res, next)
activate Controller

Controller -> Map: toDto(req.body)
activate Map

Controller <- - Map
deactivate Map


Controller -> Service: editElevator(elevatorDto)
activate Service

Service -> BuildingRepo: findByBuildingCode(buildingCode)
activate BuildingRepo
Service <- - BuildingRepo
deactivate BuildingRepo

Service -> Building: elevator = get elevator with selected identification number

Service -> Elevator: set property changes

Service -> Repo: save(elevator)
activate Repo

Repo -> Schema: save
deactivate Repo

Service -> FloorRepo: get all floors to remove/add elevator
activate FloorRepo
Service <- - FloorRepo
deactivate FloorRepo

Service -> Floor: remove/add elevator from floors
Service -> FloorRepo: save(all floors)
activate FloorRepo

FloorRepo -> FloorSchema: save
deactivate FloorRepo

Service -> Map:toDto(room)
activate Map

Map -> DTO: create
deactivate Map

Service - -> Controller:
deactivate Service

Controller - -> Route: inform success
deactivate Controller
<- -Route:



@enduml

PlantUML version 1.2022.7(Mon Aug 22 18:01:30 WEST 2022)
(GPL source distribution)
Java Runtime: Java(TM) SE Runtime Environment
JVM: Java HotSpot(TM) 64-Bit Server VM
Default Encoding: UTF-8
Language: pt
Country: PT
--></g></svg>