<?xml version="1.0" encoding="us-ascii" standalone="no"?><svg xmlns="http://www.w3.org/2000/svg" xmlns:xlink="http://www.w3.org/1999/xlink" contentStyleType="text/css" height="353.7px" preserveAspectRatio="none" style="width:539px;height:353px;background:#FFFFFF;" version="1.1" viewBox="0 0 539 353" width="539.1px" zoomAndPan="magnify"><defs/><g><rect fill="#FFFFFF" height="25.6711" style="stroke:#181818;stroke-width:0.9;" width="9" x="308.7" y="100.0477"/><rect fill="#FFFFFF" height="114.3844" style="stroke:#181818;stroke-width:0.9;" width="9" x="308.7" y="151.3898"/><rect fill="#FFFFFF" height="63.0422" style="stroke:#181818;stroke-width:0.9;" width="9" x="420.75" y="177.0609"/><line style="stroke:#181818;stroke-width:0.45;stroke-dasharray:5.0,5.0;" x1="57.6" x2="57.6" y1="72.5766" y2="281.9742"/><line style="stroke:#181818;stroke-width:0.45;stroke-dasharray:5.0,5.0;" x1="313.2" x2="313.2" y1="72.5766" y2="281.9742"/><line style="stroke:#181818;stroke-width:0.45;stroke-dasharray:5.0,5.0;" x1="424.8" x2="424.8" y1="72.5766" y2="281.9742"/><text fill="#000000" font-family="sans-serif" font-size="12.6" lengthAdjust="spacing" textLength="100.8" x="4.5" y="69.9064">Campus Manager</text><ellipse cx="57.6" cy="12.15" fill="#E2E2F0" rx="7.2" ry="7.2" style="stroke:#181818;stroke-width:0.45;"/><path d="M57.6,19.35 L57.6,43.65 M45.9,26.55 L69.3,26.55 M57.6,43.65 L45.9,57.15 M57.6,43.65 L69.3,57.15 " fill="none" style="stroke:#181818;stroke-width:0.45;"/><text fill="#000000" font-family="sans-serif" font-size="12.6" lengthAdjust="spacing" textLength="100.8" x="4.5" y="292.4807">Campus Manager</text><ellipse cx="57.6" cy="302.8008" fill="#E2E2F0" rx="7.2" ry="7.2" style="stroke:#181818;stroke-width:0.45;"/><path d="M57.6,310.0008 L57.6,334.3008 M45.9,317.2008 L69.3,317.2008 M57.6,334.3008 L45.9,347.8008 M57.6,334.3008 L69.3,347.8008 " fill="none" style="stroke:#181818;stroke-width:0.45;"/><rect fill="#E2E2F0" height="26.6766" rx="2.25" ry="2.25" style="stroke:#181818;stroke-width:0.45;" width="82.8" x="271.8" y="45"/><text fill="#000000" font-family="sans-serif" font-size="12.6" lengthAdjust="spacing" textLength="70.2" x="278.1" y="62.7064">Visualiza&#231;&#227;o</text><rect fill="#E2E2F0" height="26.6766" rx="2.25" ry="2.25" style="stroke:#181818;stroke-width:0.45;" width="82.8" x="271.8" y="281.0742"/><text fill="#000000" font-family="sans-serif" font-size="12.6" lengthAdjust="spacing" textLength="70.2" x="278.1" y="298.7807">Visualiza&#231;&#227;o</text><rect fill="#E2E2F0" height="26.6766" rx="2.25" ry="2.25" style="stroke:#181818;stroke-width:0.45;" width="123.3" x="363.6" y="45"/><text fill="#000000" font-family="sans-serif" font-size="12.6" lengthAdjust="spacing" textLength="110.7" x="369.9" y="62.7064">MasterDataBuilding</text><rect fill="#E2E2F0" height="26.6766" rx="2.25" ry="2.25" style="stroke:#181818;stroke-width:0.45;" width="123.3" x="363.6" y="281.0742"/><text fill="#000000" font-family="sans-serif" font-size="12.6" lengthAdjust="spacing" textLength="110.7" x="369.9" y="298.7807">MasterDataBuilding</text><rect fill="#FFFFFF" height="25.6711" style="stroke:#181818;stroke-width:0.9;" width="9" x="308.7" y="100.0477"/><rect fill="#FFFFFF" height="114.3844" style="stroke:#181818;stroke-width:0.9;" width="9" x="308.7" y="151.3898"/><rect fill="#FFFFFF" height="63.0422" style="stroke:#181818;stroke-width:0.9;" width="9" x="420.75" y="177.0609"/><polygon fill="#181818" points="297.9,96.4477,306.9,100.0477,297.9,103.6477,301.5,100.0477" style="stroke:#181818;stroke-width:0.9;"/><line style="stroke:#181818;stroke-width:0.9;" x1="57.6" x2="303.3" y1="100.0477" y2="100.0477"/><text fill="#000000" font-family="sans-serif" font-size="11.7" font-weight="bold" lengthAdjust="spacing" textLength="6.3" x="63.9" y="95.7683">1</text><text fill="#000000" font-family="sans-serif" font-size="11.7" lengthAdjust="spacing" textLength="224.1" x="73.8" y="95.7683">Starts the process to create a building floor</text><polygon fill="#181818" points="67.5,122.1188,58.5,125.7188,67.5,129.3188,63.9,125.7188" style="stroke:#181818;stroke-width:0.9;"/><line style="stroke:#181818;stroke-width:0.9;stroke-dasharray:2.0,2.0;" x1="62.1" x2="312.3" y1="125.7188" y2="125.7188"/><text fill="#000000" font-family="sans-serif" font-size="11.7" font-weight="bold" lengthAdjust="spacing" textLength="6.3" x="72.9" y="121.4394">2</text><text fill="#000000" font-family="sans-serif" font-size="11.7" lengthAdjust="spacing" textLength="69.3" x="82.8" y="121.4394">Request data</text><polygon fill="#181818" points="297.9,147.7898,306.9,151.3898,297.9,154.9898,301.5,151.3898" style="stroke:#181818;stroke-width:0.9;"/><line style="stroke:#181818;stroke-width:0.9;" x1="57.6" x2="303.3" y1="151.3898" y2="151.3898"/><text fill="#000000" font-family="sans-serif" font-size="11.7" font-weight="bold" lengthAdjust="spacing" textLength="6.3" x="63.9" y="147.1104">3</text><text fill="#000000" font-family="sans-serif" font-size="11.7" lengthAdjust="spacing" textLength="77.4" x="73.8" y="147.1104">Types the data</text><polygon fill="#181818" points="409.95,173.4609,418.95,177.0609,409.95,180.6609,413.55,177.0609" style="stroke:#181818;stroke-width:0.9;"/><line style="stroke:#181818;stroke-width:0.9;" x1="317.7" x2="415.35" y1="177.0609" y2="177.0609"/><text fill="#000000" font-family="sans-serif" font-size="11.7" font-weight="bold" lengthAdjust="spacing" textLength="6.3" x="324" y="172.7815">4</text><text fill="#000000" font-family="sans-serif" font-size="11.7" lengthAdjust="spacing" textLength="56.7" x="333.9" y="172.7815">POST floor</text><line style="stroke:#181818;stroke-width:0.9;" x1="429.75" x2="467.55" y1="202.732" y2="202.732"/><line style="stroke:#181818;stroke-width:0.9;" x1="467.55" x2="467.55" y1="202.732" y2="214.432"/><line style="stroke:#181818;stroke-width:0.9;" x1="430.65" x2="467.55" y1="214.432" y2="214.432"/><polygon fill="#181818" points="439.65,210.832,430.65,214.432,439.65,218.032,436.05,214.432" style="stroke:#181818;stroke-width:0.9;"/><text fill="#000000" font-family="sans-serif" font-size="11.7" font-weight="bold" lengthAdjust="spacing" textLength="6.3" x="436.05" y="198.4526">5</text><text fill="#000000" font-family="sans-serif" font-size="11.7" lengthAdjust="spacing" textLength="87.3" x="445.95" y="198.4526">createFloor(floor)</text><polygon fill="#181818" points="327.6,236.5031,318.6,240.1031,327.6,243.7031,324,240.1031" style="stroke:#181818;stroke-width:0.9;"/><line style="stroke:#181818;stroke-width:0.9;stroke-dasharray:2.0,2.0;" x1="322.2" x2="424.35" y1="240.1031" y2="240.1031"/><text fill="#000000" font-family="sans-serif" font-size="11.7" font-weight="bold" lengthAdjust="spacing" textLength="6.3" x="333" y="235.8237">6</text><text fill="#000000" font-family="sans-serif" font-size="11.7" lengthAdjust="spacing" textLength="21.6" x="342.9" y="235.8237">floor</text><polygon fill="#181818" points="67.5,262.1742,58.5,265.7742,67.5,269.3742,63.9,265.7742" style="stroke:#181818;stroke-width:0.9;"/><line style="stroke:#181818;stroke-width:0.9;stroke-dasharray:2.0,2.0;" x1="62.1" x2="312.3" y1="265.7742" y2="265.7742"/><text fill="#000000" font-family="sans-serif" font-size="11.7" font-weight="bold" lengthAdjust="spacing" textLength="6.3" x="72.9" y="261.4948">7</text><text fill="#000000" font-family="sans-serif" font-size="11.7" lengthAdjust="spacing" textLength="136.8" x="82.8" y="261.4948">Informs operation success</text><!--SRC=[VP11JiCm44NtESLNLh381IBK1K5KMLWWMh6V9jDYAR6DFKQ2wx3W8BqOILm43OIThVb_vlrFKQo9_OvzHerOZxoYtiK0HOOEx7DGGAKoHrvqenqPmQCEaJhzHiUFuxiz6-MAWh2_8Q7hgBjMcyEqOLrdMQLGh6Rc4XiPx07on73UDXo6jqNZcOH1s9ssODzPEp7gbt4oOpZ_eXWELQh40pz73e9suCbQNd8le6rV7IUooR_edXzV3N5BtDzjjeaQ-FQEHQphBqsAUJkABYRfPPh-0PFo_yXmglIgA7vfQxEtlW-mZZs9jWOXDcEr_tNm2G00]--></g></svg>