<?xml version="1.0" encoding="us-ascii" standalone="no"?><svg xmlns="http://www.w3.org/2000/svg" xmlns:xlink="http://www.w3.org/1999/xlink" contentStyleType="text/css" height="575.1px" preserveAspectRatio="none" style="width:886px;height:575px;background:#FFFFFF;" version="1.1" viewBox="0 0 886 575" width="886.5px" zoomAndPan="magnify"><defs/><g><rect fill="#FFFFFF" height="468.7242" style="stroke:#181818;stroke-width:0.9;" width="9" x="56.7" y="59.5477"/><rect fill="#FFFFFF" height="417.382" style="stroke:#181818;stroke-width:0.9;" width="9" x="202.5" y="85.2188"/><rect fill="#FFFFFF" height="366.0398" style="stroke:#181818;stroke-width:0.9;" width="9" x="377.1" y="110.8898"/><rect fill="#FFFFFF" height="27" style="stroke:#181818;stroke-width:0.9;" width="9" x="468.45" y="136.5609"/><rect fill="#FFFFFF" height="131.0133" style="stroke:#181818;stroke-width:0.9;" width="9" x="468.45" y="241.9031"/><rect fill="#FFFFFF" height="27" style="stroke:#181818;stroke-width:0.9;" width="9" x="583.65" y="267.5742"/><rect fill="#FFFFFF" height="52.6711" style="stroke:#181818;stroke-width:0.9;" width="9" x="583.65" y="398.5875"/><rect fill="#FFFFFF" height="27" style="stroke:#181818;stroke-width:0.9;" width="9" x="650.7" y="189.232"/><rect fill="#FFFFFF" height="27" style="stroke:#181818;stroke-width:0.9;" width="9" x="738.9" y="320.2453"/><rect fill="#FFFFFF" height="27" style="stroke:#181818;stroke-width:0.9;" width="9" x="840.6" y="424.2586"/><line style="stroke:#181818;stroke-width:0.45;stroke-dasharray:5.0,5.0;" x1="60.75" x2="60.75" y1="32.0766" y2="544.4719"/><line style="stroke:#181818;stroke-width:0.45;stroke-dasharray:5.0,5.0;" x1="206.55" x2="206.55" y1="32.0766" y2="544.4719"/><line style="stroke:#181818;stroke-width:0.45;stroke-dasharray:5.0,5.0;" x1="381.6" x2="381.6" y1="32.0766" y2="544.4719"/><line style="stroke:#181818;stroke-width:0.45;stroke-dasharray:5.0,5.0;" x1="472.5" x2="472.5" y1="32.0766" y2="544.4719"/><line style="stroke:#181818;stroke-width:0.45;stroke-dasharray:5.0,5.0;" x1="588.15" x2="588.15" y1="32.0766" y2="544.4719"/><line style="stroke:#181818;stroke-width:0.45;stroke-dasharray:5.0,5.0;" x1="654.75" x2="654.75" y1="32.0766" y2="544.4719"/><line style="stroke:#181818;stroke-width:0.45;stroke-dasharray:5.0,5.0;" x1="742.95" x2="742.95" y1="32.0766" y2="544.4719"/><line style="stroke:#181818;stroke-width:0.45;stroke-dasharray:5.0,5.0;" x1="844.65" x2="844.65" y1="32.0766" y2="544.4719"/><rect fill="#E2E2F0" height="26.6766" rx="2.25" ry="2.25" style="stroke:#181818;stroke-width:0.45;" width="80.1" x="21.15" y="4.5"/><text fill="#000000" font-family="sans-serif" font-size="12.6" lengthAdjust="spacing" textLength="67.5" x="27.45" y="22.2064">:FloorRoute</text><rect fill="#E2E2F0" height="26.6766" rx="2.25" ry="2.25" style="stroke:#181818;stroke-width:0.45;" width="80.1" x="21.15" y="543.5719"/><text fill="#000000" font-family="sans-serif" font-size="12.6" lengthAdjust="spacing" textLength="67.5" x="27.45" y="561.2783">:FloorRoute</text><rect fill="#E2E2F0" height="26.6766" rx="2.25" ry="2.25" style="stroke:#181818;stroke-width:0.45;" width="101.7" x="156.15" y="4.5"/><text fill="#000000" font-family="sans-serif" font-size="12.6" lengthAdjust="spacing" textLength="89.1" x="162.45" y="22.2064">:FloorController</text><rect fill="#E2E2F0" height="26.6766" rx="2.25" ry="2.25" style="stroke:#181818;stroke-width:0.45;" width="101.7" x="156.15" y="543.5719"/><text fill="#000000" font-family="sans-serif" font-size="12.6" lengthAdjust="spacing" textLength="89.1" x="162.45" y="561.2783">:FloorController</text><rect fill="#E2E2F0" height="26.6766" rx="2.25" ry="2.25" style="stroke:#181818;stroke-width:0.45;" width="88.2" x="337.5" y="4.5"/><text fill="#000000" font-family="sans-serif" font-size="12.6" lengthAdjust="spacing" textLength="75.6" x="343.8" y="22.2064">:FloorService</text><rect fill="#E2E2F0" height="26.6766" rx="2.25" ry="2.25" style="stroke:#181818;stroke-width:0.45;" width="88.2" x="337.5" y="543.5719"/><text fill="#000000" font-family="sans-serif" font-size="12.6" lengthAdjust="spacing" textLength="75.6" x="343.8" y="561.2783">:FloorService</text><rect fill="#E2E2F0" height="26.6766" rx="2.25" ry="2.25" style="stroke:#181818;stroke-width:0.45;" width="76.5" x="434.7" y="4.5"/><text fill="#000000" font-family="sans-serif" font-size="12.6" lengthAdjust="spacing" textLength="63.9" x="441" y="22.2064">:FloorRepo</text><rect fill="#E2E2F0" height="26.6766" rx="2.25" ry="2.25" style="stroke:#181818;stroke-width:0.45;" width="76.5" x="434.7" y="543.5719"/><text fill="#000000" font-family="sans-serif" font-size="12.6" lengthAdjust="spacing" textLength="63.9" x="441" y="561.2783">:FloorRepo</text><rect fill="#E2E2F0" height="26.6766" rx="2.25" ry="2.25" style="stroke:#181818;stroke-width:0.45;" width="70.2" x="553.05" y="4.5"/><text fill="#000000" font-family="sans-serif" font-size="12.6" lengthAdjust="spacing" textLength="57.6" x="559.35" y="22.2064">:FloorMap</text><rect fill="#E2E2F0" height="26.6766" rx="2.25" ry="2.25" style="stroke:#181818;stroke-width:0.45;" width="70.2" x="553.05" y="543.5719"/><text fill="#000000" font-family="sans-serif" font-size="12.6" lengthAdjust="spacing" textLength="57.6" x="559.35" y="561.2783">:FloorMap</text><rect fill="#E2E2F0" height="26.6766" rx="2.25" ry="2.25" style="stroke:#181818;stroke-width:0.45;" width="45.9" x="632.25" y="4.5"/><text fill="#000000" font-family="sans-serif" font-size="12.6" lengthAdjust="spacing" textLength="33.3" x="638.55" y="22.2064">:Floor</text><rect fill="#E2E2F0" height="26.6766" rx="2.25" ry="2.25" style="stroke:#181818;stroke-width:0.45;" width="45.9" x="632.25" y="543.5719"/><text fill="#000000" font-family="sans-serif" font-size="12.6" lengthAdjust="spacing" textLength="33.3" x="638.55" y="561.2783">:Floor</text><rect fill="#E2E2F0" height="26.6766" rx="2.25" ry="2.25" style="stroke:#181818;stroke-width:0.45;" width="112.5" x="687.15" y="4.5"/><text fill="#000000" font-family="sans-serif" font-size="12.6" lengthAdjust="spacing" textLength="99.9" x="693.45" y="22.2064">:FloorPersistence</text><rect fill="#E2E2F0" height="26.6766" rx="2.25" ry="2.25" style="stroke:#181818;stroke-width:0.45;" width="112.5" x="687.15" y="543.5719"/><text fill="#000000" font-family="sans-serif" font-size="12.6" lengthAdjust="spacing" textLength="99.9" x="693.45" y="561.2783">:FloorPersistence</text><rect fill="#E2E2F0" height="26.6766" rx="2.25" ry="2.25" style="stroke:#181818;stroke-width:0.45;" width="72.9" x="808.65" y="4.5"/><text fill="#000000" font-family="sans-serif" font-size="12.6" lengthAdjust="spacing" textLength="60.3" x="814.95" y="22.2064">:FloorDTO</text><rect fill="#E2E2F0" height="26.6766" rx="2.25" ry="2.25" style="stroke:#181818;stroke-width:0.45;" width="72.9" x="808.65" y="543.5719"/><text fill="#000000" font-family="sans-serif" font-size="12.6" lengthAdjust="spacing" textLength="60.3" x="814.95" y="561.2783">:FloorDTO</text><rect fill="#FFFFFF" height="468.7242" style="stroke:#181818;stroke-width:0.9;" width="9" x="56.7" y="59.5477"/><rect fill="#FFFFFF" height="417.382" style="stroke:#181818;stroke-width:0.9;" width="9" x="202.5" y="85.2188"/><rect fill="#FFFFFF" height="366.0398" style="stroke:#181818;stroke-width:0.9;" width="9" x="377.1" y="110.8898"/><rect fill="#FFFFFF" height="27" style="stroke:#181818;stroke-width:0.9;" width="9" x="468.45" y="136.5609"/><rect fill="#FFFFFF" height="131.0133" style="stroke:#181818;stroke-width:0.9;" width="9" x="468.45" y="241.9031"/><rect fill="#FFFFFF" height="27" style="stroke:#181818;stroke-width:0.9;" width="9" x="583.65" y="267.5742"/><rect fill="#FFFFFF" height="52.6711" style="stroke:#181818;stroke-width:0.9;" width="9" x="583.65" y="398.5875"/><rect fill="#FFFFFF" height="27" style="stroke:#181818;stroke-width:0.9;" width="9" x="650.7" y="189.232"/><rect fill="#FFFFFF" height="27" style="stroke:#181818;stroke-width:0.9;" width="9" x="738.9" y="320.2453"/><rect fill="#FFFFFF" height="27" style="stroke:#181818;stroke-width:0.9;" width="9" x="840.6" y="424.2586"/><ellipse cx="4.05" cy="58.8727" fill="none" rx="3.6" ry="3.6" style="stroke:#181818;stroke-width:1.35;"/><polygon fill="#181818" points="45.9,55.9477,54.9,59.5477,45.9,63.1477,49.5,59.5477" style="stroke:#181818;stroke-width:0.9;"/><line style="stroke:#181818;stroke-width:0.9;" x1="8.1" x2="51.3" y1="59.5477" y2="59.5477"/><text fill="#000000" font-family="sans-serif" font-size="11.7" font-weight="bold" lengthAdjust="spacing" textLength="6.3" x="10.8" y="55.2683">1</text><text fill="#000000" font-family="sans-serif" font-size="11.7" lengthAdjust="spacing" textLength="22.5" x="20.7" y="55.2683">PUT</text><polygon fill="#181818" points="191.7,81.6188,200.7,85.2188,191.7,88.8188,195.3,85.2188" style="stroke:#181818;stroke-width:0.9;"/><line style="stroke:#181818;stroke-width:0.9;" x1="65.7" x2="197.1" y1="85.2188" y2="85.2188"/><text fill="#000000" font-family="sans-serif" font-size="11.7" font-weight="bold" lengthAdjust="spacing" textLength="6.3" x="72" y="80.9394">2</text><text fill="#000000" font-family="sans-serif" font-size="11.7" lengthAdjust="spacing" textLength="109.8" x="81.9" y="80.9394">update(json,res,next)</text><polygon fill="#181818" points="366.3,107.2898,375.3,110.8898,366.3,114.4898,369.9,110.8898" style="stroke:#181818;stroke-width:0.9;"/><line style="stroke:#181818;stroke-width:0.9;" x1="211.5" x2="371.7" y1="110.8898" y2="110.8898"/><text fill="#000000" font-family="sans-serif" font-size="11.7" font-weight="bold" lengthAdjust="spacing" textLength="6.3" x="217.8" y="106.6104">3</text><text fill="#000000" font-family="sans-serif" font-size="11.7" lengthAdjust="spacing" textLength="138.6" x="227.7" y="106.6104">updateFloor(EditFloorDTO)</text><polygon fill="#181818" points="457.65,132.9609,466.65,136.5609,457.65,140.1609,461.25,136.5609" style="stroke:#181818;stroke-width:0.9;"/><line style="stroke:#181818;stroke-width:0.9;" x1="386.1" x2="463.05" y1="136.5609" y2="136.5609"/><text fill="#000000" font-family="sans-serif" font-size="11.7" font-weight="bold" lengthAdjust="spacing" textLength="6.3" x="392.4" y="132.2815">4</text><text fill="#000000" font-family="sans-serif" font-size="11.7" lengthAdjust="spacing" textLength="48.6" x="402.3" y="132.2815">findById()</text><polygon fill="#181818" points="639.9,185.632,648.9,189.232,639.9,192.832,643.5,189.232" style="stroke:#181818;stroke-width:0.9;"/><line style="stroke:#181818;stroke-width:0.9;" x1="386.1" x2="645.3" y1="189.232" y2="189.232"/><text fill="#000000" font-family="sans-serif" font-size="11.7" font-weight="bold" lengthAdjust="spacing" textLength="6.3" x="392.4" y="184.9526">5</text><text fill="#000000" font-family="sans-serif" font-size="11.7" lengthAdjust="spacing" textLength="42.3" x="402.3" y="184.9526">setAttr()</text><polygon fill="#181818" points="457.65,238.3031,466.65,241.9031,457.65,245.5031,461.25,241.9031" style="stroke:#181818;stroke-width:0.9;"/><line style="stroke:#181818;stroke-width:0.9;" x1="386.1" x2="463.05" y1="241.9031" y2="241.9031"/><text fill="#000000" font-family="sans-serif" font-size="11.7" font-weight="bold" lengthAdjust="spacing" textLength="6.3" x="392.4" y="237.6237">6</text><text fill="#000000" font-family="sans-serif" font-size="11.7" lengthAdjust="spacing" textLength="30.6" x="402.3" y="237.6237">save()</text><polygon fill="#181818" points="572.85,263.9742,581.85,267.5742,572.85,271.1742,576.45,267.5742" style="stroke:#181818;stroke-width:0.9;"/><line style="stroke:#181818;stroke-width:0.9;" x1="477.45" x2="578.25" y1="267.5742" y2="267.5742"/><text fill="#000000" font-family="sans-serif" font-size="11.7" font-weight="bold" lengthAdjust="spacing" textLength="6.3" x="483.75" y="263.2948">7</text><text fill="#000000" font-family="sans-serif" font-size="11.7" lengthAdjust="spacing" textLength="79.2" x="493.65" y="263.2948">toPersistence()</text><polygon fill="#181818" points="728.1,316.6453,737.1,320.2453,728.1,323.8453,731.7,320.2453" style="stroke:#181818;stroke-width:0.9;"/><line style="stroke:#181818;stroke-width:0.9;" x1="477.45" x2="733.5" y1="320.2453" y2="320.2453"/><text fill="#000000" font-family="sans-serif" font-size="11.7" font-weight="bold" lengthAdjust="spacing" textLength="6.3" x="483.75" y="315.9659">8</text><text fill="#000000" font-family="sans-serif" font-size="11.7" lengthAdjust="spacing" textLength="30.6" x="493.65" y="315.9659">save()</text><polygon fill="#181818" points="396,369.3164,387,372.9164,396,376.5164,392.4,372.9164" style="stroke:#181818;stroke-width:0.9;"/><line style="stroke:#181818;stroke-width:0.9;stroke-dasharray:2.0,2.0;" x1="390.6" x2="472.05" y1="372.9164" y2="372.9164"/><text fill="#000000" font-family="sans-serif" font-size="11.7" font-weight="bold" lengthAdjust="spacing" textLength="6.3" x="401.4" y="368.637">9</text><text fill="#000000" font-family="sans-serif" font-size="11.7" lengthAdjust="spacing" textLength="3.6" x="411.3" y="368.637">&#160;</text><polygon fill="#181818" points="572.85,394.9875,581.85,398.5875,572.85,402.1875,576.45,398.5875" style="stroke:#181818;stroke-width:0.9;"/><line style="stroke:#181818;stroke-width:0.9;" x1="386.1" x2="578.25" y1="398.5875" y2="398.5875"/><text fill="#000000" font-family="sans-serif" font-size="11.7" font-weight="bold" lengthAdjust="spacing" textLength="12.6" x="392.4" y="394.3081">10</text><text fill="#000000" font-family="sans-serif" font-size="11.7" lengthAdjust="spacing" textLength="40.5" x="408.6" y="394.3081">toDTO()</text><polygon fill="#181818" points="829.8,420.6586,838.8,424.2586,829.8,427.8586,833.4,424.2586" style="stroke:#181818;stroke-width:0.9;"/><line style="stroke:#181818;stroke-width:0.9;" x1="592.65" x2="835.2" y1="424.2586" y2="424.2586"/><text fill="#000000" font-family="sans-serif" font-size="11.7" font-weight="bold" lengthAdjust="spacing" textLength="12.6" x="598.95" y="419.9792">11</text><text fill="#000000" font-family="sans-serif" font-size="11.7" lengthAdjust="spacing" textLength="39.6" x="615.15" y="419.9792">create()</text><polygon fill="#181818" points="221.4,473.3297,212.4,476.9297,221.4,480.5297,217.8,476.9297" style="stroke:#181818;stroke-width:0.9;"/><line style="stroke:#181818;stroke-width:0.9;stroke-dasharray:2.0,2.0;" x1="216" x2="380.7" y1="476.9297" y2="476.9297"/><text fill="#000000" font-family="sans-serif" font-size="11.7" font-weight="bold" lengthAdjust="spacing" textLength="12.6" x="226.8" y="472.6503">12</text><text fill="#000000" font-family="sans-serif" font-size="11.7" lengthAdjust="spacing" textLength="3.6" x="243" y="472.6503">&#160;</text><polygon fill="#181818" points="75.6,499.0008,66.6,502.6008,75.6,506.2008,72,502.6008" style="stroke:#181818;stroke-width:0.9;"/><line style="stroke:#181818;stroke-width:0.9;stroke-dasharray:2.0,2.0;" x1="70.2" x2="206.1" y1="502.6008" y2="502.6008"/><text fill="#000000" font-family="sans-serif" font-size="11.7" font-weight="bold" lengthAdjust="spacing" textLength="12.6" x="81" y="498.3214">13</text><text fill="#000000" font-family="sans-serif" font-size="11.7" lengthAdjust="spacing" textLength="3.6" x="97.2" y="498.3214">&#160;</text><polygon fill="#181818" points="9.9,524.6719,0.9,528.2719,9.9,531.8719,6.3,528.2719" style="stroke:#181818;stroke-width:0.9;"/><line style="stroke:#181818;stroke-width:0.9;stroke-dasharray:2.0,2.0;" x1="4.5" x2="60.3" y1="528.2719" y2="528.2719"/><text fill="#000000" font-family="sans-serif" font-size="11.7" font-weight="bold" lengthAdjust="spacing" textLength="12.6" x="15.3" y="523.9925">14</text><text fill="#000000" font-family="sans-serif" font-size="11.7" lengthAdjust="spacing" textLength="3.6" x="31.5" y="523.9925">&#160;</text><!--SRC=[VLBRJiCm37tFLqHxAjBw0n4QuYhnW9XWV41eZPIf95NYLl3t96wwUcl4GskxFlPnZwq7T7Ru_WGlHAyzciRqsgBSgAVEEV_c1eIDr46ILuBSEulUTHrumYrX2VmEVZJDr37xHLhetSGQdHBWHVUKZxQKfXnvnR_QWmyc8DWy2OjBy8V3Ay6Y5UB6rJlIGidznq7e1ise4R8-WeoiTqm79OU-ZP3g69pTUWXR2pzujPGooSJYfoPPeha3JLCzjWRdkLYNMSviKtbIJyalOzkxt-UsOc3IjONpc9SIWP81y1RHyz99LbQRTLxn1Zt2YbEaTyB4pIc9ZadFiMclZ2A5fqfMiYRXgsGD-6Snjs82_wj57ZNAVJbYV18WPfHiFAGbCqIw5zRt8gH_Eh6SNmp7pNizEuqaCXqXH_8xkgxhDI3Vw1y0]--></g></svg>