<?xml version="1.0" encoding="us-ascii" standalone="no"?><svg xmlns="http://www.w3.org/2000/svg" xmlns:xlink="http://www.w3.org/1999/xlink" contentStyleType="text/css" height="578px" preserveAspectRatio="none" style="width:380px;height:578px;background:#FFFFFF;" version="1.1" viewBox="0 0 380 578" width="380px" zoomAndPan="magnify"><defs/><g><g id="cluster_##2"><rect fill="#EDB182" height="246" rx="2.5" ry="2.5" style="stroke:#181818;stroke-width:1.0;" width="367" x="7" y="326"/></g><g id="cluster_##7"><rect fill="#D499B9" height="230" rx="2.5" ry="2.5" style="stroke:#181818;stroke-width:1.0;" width="124" x="17" y="7"/></g><!--class Passageway--><g id="elem_Passageway"><rect codeLine="5" fill="#F1F1F1" height="76.543" id="Passageway" rx="2.5" ry="2.5" style="stroke:#181818;stroke-width:0.5;" width="111" x="23.5" y="342"/><ellipse cx="38.5" cy="372.2715" fill="#ADD1B2" rx="11" ry="11" style="stroke:#181818;stroke-width:1.0;"/><path d="M41.2656,368.1465 Q41.4219,367.9277 41.6094,367.8184 Q41.7969,367.709 42.0156,367.709 Q42.3906,367.709 42.625,367.9746 Q42.8594,368.2246 42.8594,368.834 L42.8594,370.2871 Q42.8594,370.8965 42.625,371.1621 Q42.3906,371.4277 42.0156,371.4277 Q41.6719,371.4277 41.4688,371.2246 Q41.2656,371.0371 41.1563,370.5215 Q41.1094,370.1621 40.9219,369.9746 Q40.5938,369.5996 39.9844,369.3809 Q39.375,369.1621 38.75,369.1621 Q37.9844,369.1621 37.3438,369.4902 Q36.7188,369.8184 36.2188,370.5684 Q35.7344,371.3184 35.7344,372.3496 L35.7344,373.4434 Q35.7344,374.6777 36.625,375.5059 Q37.5156,376.3184 39.1094,376.3184 Q40.0469,376.3184 40.7031,376.0684 Q41.0938,375.9121 41.5156,375.4746 Q41.7813,375.209 41.9219,375.1309 Q42.0781,375.0527 42.2813,375.0527 Q42.6094,375.0527 42.8594,375.3184 Q43.125,375.5684 43.125,375.9121 Q43.125,376.2559 42.7813,376.6621 Q42.2813,377.2402 41.4844,377.5684 Q40.4063,378.0215 39.1094,378.0215 Q37.5938,378.0215 36.3906,377.3965 Q35.4063,376.8965 34.7188,375.834 Q34.0313,374.7559 34.0313,373.4746 L34.0313,372.3184 Q34.0313,370.9902 34.6406,369.8496 Q35.2656,368.6934 36.3594,368.084 Q37.4531,367.459 38.6875,367.459 Q39.4219,367.459 40.0625,367.6309 Q40.7188,367.7871 41.2656,368.1465 Z " fill="#000000"/><text fill="#000000" font-family="sans-serif" font-size="12" font-style="italic" lengthAdjust="spacing" textLength="40" x="72" y="359.9492">&#171;Root&#187;</text><text fill="#000000" font-family="sans-serif" font-size="12" font-style="italic" lengthAdjust="spacing" textLength="44" x="70" y="375.9102">&#171;Entity&#187;</text><text fill="#000000" font-family="sans-serif" font-size="14" lengthAdjust="spacing" textLength="79" x="52.5" y="394.0293">Passageway</text><line style="stroke:#181818;stroke-width:0.5;" x1="24.5" x2="133.5" y1="402.543" y2="402.543"/><line style="stroke:#181818;stroke-width:0.5;" x1="24.5" x2="133.5" y1="410.543" y2="410.543"/></g><!--class PassagewayId--><g id="elem_PassagewayId"><rect codeLine="6" fill="#F1F1F1" height="76.543" id="PassagewayId" rx="2.5" ry="2.5" style="stroke:#181818;stroke-width:0.5;" width="122" x="23" y="479"/><ellipse cx="38" cy="509.2715" fill="#FFA500" rx="11" ry="11" style="stroke:#181818;stroke-width:1.0;"/><path d="M38.6094,512.209 L40.4531,508.4434 Q39.7656,508.4434 39.5781,508.3184 Q39.1563,508.0684 39.1563,507.584 Q39.1563,507.209 39.4219,506.9746 Q39.6875,506.7402 40.2969,506.7402 L42.625,506.7402 Q43.25,506.7402 43.5,506.9746 Q43.7656,507.209 43.7656,507.584 Q43.7656,507.959 43.5,508.209 Q43.25,508.4434 42.625,508.4434 L42.3438,508.4434 L39.5,514.2715 L37.7188,514.2715 L34.875,508.4434 L34.6406,508.4434 Q34.0156,508.4434 33.75,508.209 Q33.5,507.959 33.5,507.584 Q33.5,507.209 33.75,506.9746 Q34.0156,506.7402 34.6406,506.7402 L36.9219,506.7402 Q37.5313,506.7402 37.7813,506.9746 Q38.0469,507.209 38.0469,507.584 Q38.0469,508.0684 37.6563,508.3184 Q37.4531,508.4434 36.7656,508.4434 L38.6094,512.209 Z " fill="#000000"/><text fill="#000000" font-family="sans-serif" font-size="12" font-style="italic" lengthAdjust="spacing" textLength="82" x="56" y="496.9492">&#171;ValueObject&#187;</text><text fill="#000000" font-family="sans-serif" font-size="12" font-style="italic" lengthAdjust="spacing" textLength="52" x="71" y="512.9102">&#171;unique&#187;</text><text fill="#000000" font-family="sans-serif" font-size="14" lengthAdjust="spacing" textLength="90" x="52" y="531.0293">PassagewayId</text><line style="stroke:#181818;stroke-width:0.5;" x1="24" x2="144" y1="539.543" y2="539.543"/><line style="stroke:#181818;stroke-width:0.5;" x1="24" x2="144" y1="547.543" y2="547.543"/></g><!--class PassagewayCoordinates--><g id="elem_PassagewayCoordinates"><rect codeLine="7" fill="#F1F1F1" height="60.582" id="PassagewayCoordinates" rx="2.5" ry="2.5" style="stroke:#181818;stroke-width:0.5;" width="188" x="170" y="350"/><ellipse cx="185" cy="372.291" fill="#A4C2E5" rx="11" ry="11" style="stroke:#181818;stroke-width:1.0;"/><path d="M185.6094,375.2285 L187.4531,371.4629 Q186.7656,371.4629 186.5781,371.3379 Q186.1563,371.0879 186.1563,370.6035 Q186.1563,370.2285 186.4219,369.9941 Q186.6875,369.7598 187.2969,369.7598 L189.625,369.7598 Q190.25,369.7598 190.5,369.9941 Q190.7656,370.2285 190.7656,370.6035 Q190.7656,370.9785 190.5,371.2285 Q190.25,371.4629 189.625,371.4629 L189.3438,371.4629 L186.5,377.291 L184.7188,377.291 L181.875,371.4629 L181.6406,371.4629 Q181.0156,371.4629 180.75,371.2285 Q180.5,370.9785 180.5,370.6035 Q180.5,370.2285 180.75,369.9941 Q181.0156,369.7598 181.6406,369.7598 L183.9219,369.7598 Q184.5313,369.7598 184.7813,369.9941 Q185.0469,370.2285 185.0469,370.6035 Q185.0469,371.0879 184.6563,371.3379 Q184.4531,371.4629 183.7656,371.4629 L185.6094,375.2285 Z " fill="#000000"/><text fill="#000000" font-family="sans-serif" font-size="12" font-style="italic" lengthAdjust="spacing" textLength="82" x="236" y="367.9492">&#171;ValueObject&#187;</text><text fill="#000000" font-family="sans-serif" font-size="14" lengthAdjust="spacing" textLength="156" x="199" y="386.0684">PassagewayCoordinates</text><line style="stroke:#181818;stroke-width:0.5;" x1="171" x2="357" y1="394.582" y2="394.582"/><line style="stroke:#181818;stroke-width:0.5;" x1="171" x2="357" y1="402.582" y2="402.582"/></g><!--class Floor--><g id="elem_Floor"><rect codeLine="11" fill="#F1F1F1" height="76.543" id="Floor" rx="2.5" ry="2.5" style="stroke:#181818;stroke-width:0.5;" width="72" x="43" y="23"/><ellipse cx="58" cy="53.2715" fill="#ADD1B2" rx="11" ry="11" style="stroke:#181818;stroke-width:1.0;"/><path d="M60.7656,49.1465 Q60.9219,48.9277 61.1094,48.8184 Q61.2969,48.709 61.5156,48.709 Q61.8906,48.709 62.125,48.9746 Q62.3594,49.2246 62.3594,49.834 L62.3594,51.2871 Q62.3594,51.8965 62.125,52.1621 Q61.8906,52.4277 61.5156,52.4277 Q61.1719,52.4277 60.9688,52.2246 Q60.7656,52.0371 60.6563,51.5215 Q60.6094,51.1621 60.4219,50.9746 Q60.0938,50.5996 59.4844,50.3809 Q58.875,50.1621 58.25,50.1621 Q57.4844,50.1621 56.8438,50.4902 Q56.2188,50.8184 55.7188,51.5684 Q55.2344,52.3184 55.2344,53.3496 L55.2344,54.4434 Q55.2344,55.6777 56.125,56.5059 Q57.0156,57.3184 58.6094,57.3184 Q59.5469,57.3184 60.2031,57.0684 Q60.5938,56.9121 61.0156,56.4746 Q61.2813,56.209 61.4219,56.1309 Q61.5781,56.0527 61.7813,56.0527 Q62.1094,56.0527 62.3594,56.3184 Q62.625,56.5684 62.625,56.9121 Q62.625,57.2559 62.2813,57.6621 Q61.7813,58.2402 60.9844,58.5684 Q59.9063,59.0215 58.6094,59.0215 Q57.0938,59.0215 55.8906,58.3965 Q54.9063,57.8965 54.2188,56.834 Q53.5313,55.7559 53.5313,54.4746 L53.5313,53.3184 Q53.5313,51.9902 54.1406,50.8496 Q54.7656,49.6934 55.8594,49.084 Q56.9531,48.459 58.1875,48.459 Q58.9219,48.459 59.5625,48.6309 Q60.2188,48.7871 60.7656,49.1465 Z " fill="#000000"/><text fill="#000000" font-family="sans-serif" font-size="12" font-style="italic" lengthAdjust="spacing" textLength="40" x="72" y="40.9492">&#171;Root&#187;</text><text fill="#000000" font-family="sans-serif" font-size="12" font-style="italic" lengthAdjust="spacing" textLength="44" x="70" y="56.9102">&#171;Entity&#187;</text><text fill="#000000" font-family="sans-serif" font-size="14" lengthAdjust="spacing" textLength="33" x="75.5" y="75.0293">Floor</text><line style="stroke:#181818;stroke-width:0.5;" x1="44" x2="114" y1="83.543" y2="83.543"/><line style="stroke:#181818;stroke-width:0.5;" x1="44" x2="114" y1="91.543" y2="91.543"/></g><!--class FloorMap--><g id="elem_FloorMap"><rect codeLine="12" fill="#F1F1F1" height="60.582" id="FloorMap" rx="2.5" ry="2.5" style="stroke:#181818;stroke-width:0.5;" width="92" x="33" y="160"/><ellipse cx="48" cy="182.291" fill="#ADD1B2" rx="11" ry="11" style="stroke:#181818;stroke-width:1.0;"/><path d="M50.7656,178.166 Q50.9219,177.9473 51.1094,177.8379 Q51.2969,177.7285 51.5156,177.7285 Q51.8906,177.7285 52.125,177.9941 Q52.3594,178.2441 52.3594,178.8535 L52.3594,180.3066 Q52.3594,180.916 52.125,181.1816 Q51.8906,181.4473 51.5156,181.4473 Q51.1719,181.4473 50.9688,181.2441 Q50.7656,181.0566 50.6563,180.541 Q50.6094,180.1816 50.4219,179.9941 Q50.0938,179.6191 49.4844,179.4004 Q48.875,179.1816 48.25,179.1816 Q47.4844,179.1816 46.8438,179.5098 Q46.2188,179.8379 45.7188,180.5879 Q45.2344,181.3379 45.2344,182.3691 L45.2344,183.4629 Q45.2344,184.6973 46.125,185.5254 Q47.0156,186.3379 48.6094,186.3379 Q49.5469,186.3379 50.2031,186.0879 Q50.5938,185.9316 51.0156,185.4941 Q51.2813,185.2285 51.4219,185.1504 Q51.5781,185.0723 51.7813,185.0723 Q52.1094,185.0723 52.3594,185.3379 Q52.625,185.5879 52.625,185.9316 Q52.625,186.2754 52.2813,186.6816 Q51.7813,187.2598 50.9844,187.5879 Q49.9063,188.041 48.6094,188.041 Q47.0938,188.041 45.8906,187.416 Q44.9063,186.916 44.2188,185.8535 Q43.5313,184.7754 43.5313,183.4941 L43.5313,182.3379 Q43.5313,181.0098 44.1406,179.8691 Q44.7656,178.7129 45.8594,178.1035 Q46.9531,177.4785 48.1875,177.4785 Q48.9219,177.4785 49.5625,177.6504 Q50.2188,177.8066 50.7656,178.166 Z " fill="#000000"/><text fill="#000000" font-family="sans-serif" font-size="12" font-style="italic" lengthAdjust="spacing" textLength="44" x="70" y="177.9492">&#171;Entity&#187;</text><text fill="#000000" font-family="sans-serif" font-size="14" lengthAdjust="spacing" textLength="60" x="62" y="196.0684">FloorMap</text><line style="stroke:#181818;stroke-width:0.5;" x1="34" x2="124" y1="204.582" y2="204.582"/><line style="stroke:#181818;stroke-width:0.5;" x1="34" x2="124" y1="212.582" y2="212.582"/></g><!--link Passageway to PassagewayId--><g id="link_Passageway_PassagewayId"><path codeLine="17" d="M80.39,419.11 C81.08,437.67 81.6877,454.0241 82.3777,472.6341 " fill="none" id="Passageway-to-PassagewayId" style="stroke:#181818;stroke-width:1.0;"/><polygon fill="#181818" points="82.6,478.63,86.2638,469.488,82.4147,473.6334,78.2693,469.7844,82.6,478.63" style="stroke:#181818;stroke-width:1.0;"/><text fill="#000000" font-family="sans-serif" font-size="13" lengthAdjust="spacing" textLength="7" x="73.0537" y="440.7061">1</text><text fill="#000000" font-family="sans-serif" font-size="13" lengthAdjust="spacing" textLength="7" x="74.7884" y="467.8746">1</text></g><!--link Passageway to PassagewayCoordinates--><g id="link_Passageway_PassagewayCoordinates"><path codeLine="18" d="M134.64,380.5 C146.35,380.5 152.06,380.5 163.76,380.5 " fill="none" id="Passageway-to-PassagewayCoordinates" style="stroke:#181818;stroke-width:1.0;"/><polygon fill="#181818" points="169.76,380.5,160.76,376.5,164.76,380.5,160.76,384.5,169.76,380.5" style="stroke:#181818;stroke-width:1.0;"/><text fill="#000000" font-family="sans-serif" font-size="13" lengthAdjust="spacing" textLength="7" x="142.5869" y="376.4364">1</text><text fill="#000000" font-family="sans-serif" font-size="13" lengthAdjust="spacing" textLength="7" x="154.9713" y="376.8792">1</text></g><!--link Floor to FloorMap--><g id="link_Floor_FloorMap"><path codeLine="20" d="M79,100.26 C79,119.27 79,135.99 79,153.74 " fill="none" id="Floor-to-FloorMap" style="stroke:#181818;stroke-width:1.0;"/><polygon fill="#181818" points="79,159.74,83,150.74,79,154.74,75,150.74,79,159.74" style="stroke:#181818;stroke-width:1.0;"/><text fill="#000000" font-family="sans-serif" font-size="13" lengthAdjust="spacing" textLength="7" x="71.4641" y="121.5823">1</text><text fill="#000000" font-family="sans-serif" font-size="13" lengthAdjust="spacing" textLength="7" x="71.2781" y="148.7441">1</text></g><!--link FloorMap to Passageway--><g id="link_FloorMap_Passageway"><path codeLine="22" d="M79,221.29 C79,253.9 79,300.27 79,335.74 " fill="none" id="FloorMap-to-Passageway" style="stroke:#181818;stroke-width:1.0;"/><polygon fill="#181818" points="79,341.74,83,332.74,79,336.74,75,332.74,79,341.74" style="stroke:#181818;stroke-width:1.0;"/><text fill="#000000" font-family="sans-serif" font-size="13" lengthAdjust="spacing" textLength="7" x="71.3547" y="242.6278">2</text><text fill="#000000" font-family="sans-serif" font-size="13" lengthAdjust="spacing" textLength="20" x="57.2813" y="330.7098">0..*</text></g><!--SRC=[KxSb4t0LfIQN9EQbvwGgABkwE1bQ65Lp9USa5XSh1029nFJKyiHA1GKR6uMW_FmI1Jix4DCrhoIpf1B8mL3fcG9Mgr6cary4D3HLKo4iCQSqrJyf2sWBL7TfNcPXQIestSxv-KKfcNc99Qd5K5EK7KsSZLnDqOtXgkLIfuQ7NKmiBPqiOHvsom7QJyYlO4M-YGKAg9ArN1IuY0ifg9KCbNHJTEs054gmeYj1Ku0KSbnS47yW6GHpCrGAv7eb8oLTNQ2iWPwU5h91N000]--></g></svg>