<?xml version="1.0" encoding="us-ascii" standalone="no"?><svg xmlns="http://www.w3.org/2000/svg" xmlns:xlink="http://www.w3.org/1999/xlink" contentStyleType="text/css" height="821.1px" preserveAspectRatio="none" style="width:1182px;height:821px;background:#FFFFFF;" version="1.1" viewBox="0 0 1182 821" width="1183px" zoomAndPan="magnify"><defs/><g><rect fill="#FFFFFF" height="738.2266" style="stroke:#181818;stroke-width:0.6999999999999998;" width="7" x="63" y="46.3148"/><rect fill="#FFFFFF" height="698.2937" style="stroke:#181818;stroke-width:0.6999999999999998;" width="7" x="227.5" y="66.2812"/><rect fill="#FFFFFF" height="588.3281" style="stroke:#181818;stroke-width:0.6999999999999998;" width="7" x="401.8" y="86.2477"/><rect fill="#FFFFFF" height="183.832" style="stroke:#181818;stroke-width:0.6999999999999998;" width="7" x="595" y="126.1805"/><rect fill="#FFFFFF" height="21" style="stroke:#181818;stroke-width:0.6999999999999998;" width="7" x="698.6" y="187.1133"/><rect fill="#FFFFFF" height="21" style="stroke:#181818;stroke-width:0.6999999999999998;" width="7" x="698.6" y="269.0461"/><rect fill="#FFFFFF" height="40.9664" style="stroke:#181818;stroke-width:0.6999999999999998;" width="7" x="698.6" y="613.643"/><rect fill="#FFFFFF" height="21" style="stroke:#181818;stroke-width:0.6999999999999998;" width="7" x="816.2" y="146.1469"/><rect fill="#FFFFFF" height="21" style="stroke:#181818;stroke-width:0.6999999999999998;" width="7" x="816.2" y="228.0797"/><rect fill="#FFFFFF" height="101.8992" style="stroke:#181818;stroke-width:0.6999999999999998;" width="7" x="955.5" y="349.9453"/><rect fill="#FFFFFF" height="101.8992" style="stroke:#181818;stroke-width:0.6999999999999998;" width="7" x="955.5" y="491.7773"/><rect fill="#FFFFFF" height="21" style="stroke:#181818;stroke-width:0.6999999999999998;" width="7" x="1036" y="369.9117"/><rect fill="#FFFFFF" height="21" style="stroke:#181818;stroke-width:0.6999999999999998;" width="7" x="1036" y="410.8781"/><rect fill="#FFFFFF" height="21" style="stroke:#181818;stroke-width:0.6999999999999998;" width="7" x="1036" y="511.7437"/><rect fill="#FFFFFF" height="21" style="stroke:#181818;stroke-width:0.6999999999999998;" width="7" x="1036" y="552.7102"/><rect fill="#FFFFFF" height="21" style="stroke:#181818;stroke-width:0.6999999999999998;" width="7" x="1131.2" y="633.6094"/><rect fill="#FFFFFF" height="21" style="stroke:#181818;stroke-width:0.6999999999999998;" width="7" x="1131.2" y="694.5422"/><line style="stroke:#181818;stroke-width:0.3499999999999999;stroke-dasharray:5.0,5.0;" x1="66.15" x2="66.15" y1="24.9484" y2="797.1414"/><line style="stroke:#181818;stroke-width:0.3499999999999999;stroke-dasharray:5.0,5.0;" x1="231" x2="231" y1="24.9484" y2="797.1414"/><line style="stroke:#181818;stroke-width:0.3499999999999999;stroke-dasharray:5.0,5.0;" x1="404.95" x2="404.95" y1="24.9484" y2="797.1414"/><line style="stroke:#181818;stroke-width:0.3499999999999999;stroke-dasharray:5.0,5.0;" x1="511.35" x2="511.35" y1="24.9484" y2="797.1414"/><line style="stroke:#181818;stroke-width:0.3499999999999999;stroke-dasharray:5.0,5.0;" x1="598.15" x2="598.15" y1="24.9484" y2="797.1414"/><line style="stroke:#181818;stroke-width:0.3499999999999999;stroke-dasharray:5.0,5.0;" x1="701.75" x2="701.75" y1="24.9484" y2="797.1414"/><line style="stroke:#181818;stroke-width:0.3499999999999999;stroke-dasharray:5.0,5.0;" x1="819.35" x2="819.35" y1="24.9484" y2="797.1414"/><line style="stroke:#181818;stroke-width:0.3499999999999999;stroke-dasharray:5.0,5.0;" x1="904.05" x2="904.05" y1="24.9484" y2="797.1414"/><line style="stroke:#181818;stroke-width:0.3499999999999999;stroke-dasharray:5.0,5.0;" x1="958.65" x2="958.65" y1="24.9484" y2="797.1414"/><line style="stroke:#181818;stroke-width:0.3499999999999999;stroke-dasharray:5.0,5.0;" x1="1039.15" x2="1039.15" y1="24.9484" y2="797.1414"/><line style="stroke:#181818;stroke-width:0.3499999999999999;stroke-dasharray:5.0,5.0;" x1="1134.35" x2="1134.35" y1="24.9484" y2="797.1414"/><rect fill="#E2E2F0" height="20.7484" rx="1.75" ry="1.75" style="stroke:#181818;stroke-width:0.3499999999999999;" width="94.5" x="19.25" y="3.5"/><text fill="#000000" font-family="sans-serif" font-size="9.8" lengthAdjust="spacing" textLength="84.7" x="24.15" y="17.2717">:PassagewayRoute</text><rect fill="#E2E2F0" height="20.7484" rx="1.75" ry="1.75" style="stroke:#181818;stroke-width:0.3499999999999999;" width="94.5" x="19.25" y="796.4414"/><text fill="#000000" font-family="sans-serif" font-size="9.8" lengthAdjust="spacing" textLength="84.7" x="24.15" y="810.2131">:PassagewayRoute</text><rect fill="#E2E2F0" height="20.7484" rx="1.75" ry="1.75" style="stroke:#181818;stroke-width:0.3499999999999999;" width="141.4" x="160.3" y="3.5"/><text fill="#000000" font-family="sans-serif" font-size="9.8" lengthAdjust="spacing" textLength="131.6" x="165.2" y="17.2717">:CreatePassagewayController</text><rect fill="#E2E2F0" height="20.7484" rx="1.75" ry="1.75" style="stroke:#181818;stroke-width:0.3499999999999999;" width="141.4" x="160.3" y="796.4414"/><text fill="#000000" font-family="sans-serif" font-size="9.8" lengthAdjust="spacing" textLength="131.6" x="165.2" y="810.2131">:CreatePassagewayController</text><rect fill="#E2E2F0" height="20.7484" rx="1.75" ry="1.75" style="stroke:#181818;stroke-width:0.3499999999999999;" width="130.9" x="339.85" y="3.5"/><text fill="#000000" font-family="sans-serif" font-size="9.8" lengthAdjust="spacing" textLength="121.1" x="344.75" y="17.2717">:CreatePassagewayService</text><rect fill="#E2E2F0" height="20.7484" rx="1.75" ry="1.75" style="stroke:#181818;stroke-width:0.3499999999999999;" width="130.9" x="339.85" y="796.4414"/><text fill="#000000" font-family="sans-serif" font-size="9.8" lengthAdjust="spacing" textLength="121.1" x="344.75" y="810.2131">:CreatePassagewayService</text><rect fill="#E2E2F0" height="20.7484" rx="1.75" ry="1.75" style="stroke:#181818;stroke-width:0.3499999999999999;" width="67.9" x="477.75" y="3.5"/><text fill="#000000" font-family="sans-serif" font-size="9.8" lengthAdjust="spacing" textLength="58.1" x="482.65" y="17.2717">:Passageway</text><rect fill="#E2E2F0" height="20.7484" rx="1.75" ry="1.75" style="stroke:#181818;stroke-width:0.3499999999999999;" width="67.9" x="477.75" y="796.4414"/><text fill="#000000" font-family="sans-serif" font-size="9.8" lengthAdjust="spacing" textLength="58.1" x="482.65" y="810.2131">:Passageway</text><rect fill="#E2E2F0" height="20.7484" rx="1.75" ry="1.75" style="stroke:#181818;stroke-width:0.3499999999999999;" width="91.7" x="552.65" y="3.5"/><text fill="#000000" font-family="sans-serif" font-size="9.8" lengthAdjust="spacing" textLength="81.9" x="557.55" y="17.2717">:PassagewayRepo</text><rect fill="#E2E2F0" height="20.7484" rx="1.75" ry="1.75" style="stroke:#181818;stroke-width:0.3499999999999999;" width="91.7" x="552.65" y="796.4414"/><text fill="#000000" font-family="sans-serif" font-size="9.8" lengthAdjust="spacing" textLength="81.9" x="557.55" y="810.2131">:PassagewayRepo</text><rect fill="#E2E2F0" height="20.7484" rx="1.75" ry="1.75" style="stroke:#181818;stroke-width:0.3499999999999999;" width="101.5" x="651.35" y="3.5"/><text fill="#000000" font-family="sans-serif" font-size="9.8" lengthAdjust="spacing" textLength="91.7" x="656.25" y="17.2717">:PassagewayMapper</text><rect fill="#E2E2F0" height="20.7484" rx="1.75" ry="1.75" style="stroke:#181818;stroke-width:0.3499999999999999;" width="101.5" x="651.35" y="796.4414"/><text fill="#000000" font-family="sans-serif" font-size="9.8" lengthAdjust="spacing" textLength="91.7" x="656.25" y="810.2131">:PassagewayMapper</text><rect fill="#E2E2F0" height="20.7484" rx="1.75" ry="1.75" style="stroke:#181818;stroke-width:0.3499999999999999;" width="119.7" x="759.85" y="3.5"/><text fill="#000000" font-family="sans-serif" font-size="9.8" lengthAdjust="spacing" textLength="109.9" x="764.75" y="17.2717">:PassagewayPersistence</text><rect fill="#E2E2F0" height="20.7484" rx="1.75" ry="1.75" style="stroke:#181818;stroke-width:0.3499999999999999;" width="119.7" x="759.85" y="796.4414"/><text fill="#000000" font-family="sans-serif" font-size="9.8" lengthAdjust="spacing" textLength="109.9" x="764.75" y="810.2131">:PassagewayPersistence</text><rect fill="#E2E2F0" height="20.7484" rx="1.75" ry="1.75" style="stroke:#181818;stroke-width:0.3499999999999999;" width="35.7" x="886.55" y="3.5"/><text fill="#000000" font-family="sans-serif" font-size="9.8" lengthAdjust="spacing" textLength="25.9" x="891.45" y="17.2717">:Floor</text><rect fill="#E2E2F0" height="20.7484" rx="1.75" ry="1.75" style="stroke:#181818;stroke-width:0.3499999999999999;" width="35.7" x="886.55" y="796.4414"/><text fill="#000000" font-family="sans-serif" font-size="9.8" lengthAdjust="spacing" textLength="25.9" x="891.45" y="810.2131">:Floor</text><rect fill="#E2E2F0" height="20.7484" rx="1.75" ry="1.75" style="stroke:#181818;stroke-width:0.3499999999999999;" width="59.5" x="929.25" y="3.5"/><text fill="#000000" font-family="sans-serif" font-size="9.8" lengthAdjust="spacing" textLength="49.7" x="934.15" y="17.2717">:FloorRepo</text><rect fill="#E2E2F0" height="20.7484" rx="1.75" ry="1.75" style="stroke:#181818;stroke-width:0.3499999999999999;" width="59.5" x="929.25" y="796.4414"/><text fill="#000000" font-family="sans-serif" font-size="9.8" lengthAdjust="spacing" textLength="49.7" x="934.15" y="810.2131">:FloorRepo</text><rect fill="#E2E2F0" height="20.7484" rx="1.75" ry="1.75" style="stroke:#181818;stroke-width:0.3499999999999999;" width="87.5" x="995.75" y="3.5"/><text fill="#000000" font-family="sans-serif" font-size="9.8" lengthAdjust="spacing" textLength="77.7" x="1000.65" y="17.2717">:FloorPersistence</text><rect fill="#E2E2F0" height="20.7484" rx="1.75" ry="1.75" style="stroke:#181818;stroke-width:0.3499999999999999;" width="87.5" x="995.75" y="796.4414"/><text fill="#000000" font-family="sans-serif" font-size="9.8" lengthAdjust="spacing" textLength="77.7" x="1000.65" y="810.2131">:FloorPersistence</text><rect fill="#E2E2F0" height="20.7484" rx="1.75" ry="1.75" style="stroke:#181818;stroke-width:0.3499999999999999;" width="88.9" x="1090.25" y="3.5"/><text fill="#000000" font-family="sans-serif" font-size="9.8" lengthAdjust="spacing" textLength="79.1" x="1095.15" y="17.2717">:PassagewayDTO</text><rect fill="#E2E2F0" height="20.7484" rx="1.75" ry="1.75" style="stroke:#181818;stroke-width:0.3499999999999999;" width="88.9" x="1090.25" y="796.4414"/><text fill="#000000" font-family="sans-serif" font-size="9.8" lengthAdjust="spacing" textLength="79.1" x="1095.15" y="810.2131">:PassagewayDTO</text><rect fill="#FFFFFF" height="738.2266" style="stroke:#181818;stroke-width:0.6999999999999998;" width="7" x="63" y="46.3148"/><rect fill="#FFFFFF" height="698.2937" style="stroke:#181818;stroke-width:0.6999999999999998;" width="7" x="227.5" y="66.2812"/><rect fill="#FFFFFF" height="588.3281" style="stroke:#181818;stroke-width:0.6999999999999998;" width="7" x="401.8" y="86.2477"/><rect fill="#FFFFFF" height="183.832" style="stroke:#181818;stroke-width:0.6999999999999998;" width="7" x="595" y="126.1805"/><rect fill="#FFFFFF" height="21" style="stroke:#181818;stroke-width:0.6999999999999998;" width="7" x="698.6" y="187.1133"/><rect fill="#FFFFFF" height="21" style="stroke:#181818;stroke-width:0.6999999999999998;" width="7" x="698.6" y="269.0461"/><rect fill="#FFFFFF" height="40.9664" style="stroke:#181818;stroke-width:0.6999999999999998;" width="7" x="698.6" y="613.643"/><rect fill="#FFFFFF" height="21" style="stroke:#181818;stroke-width:0.6999999999999998;" width="7" x="816.2" y="146.1469"/><rect fill="#FFFFFF" height="21" style="stroke:#181818;stroke-width:0.6999999999999998;" width="7" x="816.2" y="228.0797"/><rect fill="#FFFFFF" height="101.8992" style="stroke:#181818;stroke-width:0.6999999999999998;" width="7" x="955.5" y="349.9453"/><rect fill="#FFFFFF" height="101.8992" style="stroke:#181818;stroke-width:0.6999999999999998;" width="7" x="955.5" y="491.7773"/><rect fill="#FFFFFF" height="21" style="stroke:#181818;stroke-width:0.6999999999999998;" width="7" x="1036" y="369.9117"/><rect fill="#FFFFFF" height="21" style="stroke:#181818;stroke-width:0.6999999999999998;" width="7" x="1036" y="410.8781"/><rect fill="#FFFFFF" height="21" style="stroke:#181818;stroke-width:0.6999999999999998;" width="7" x="1036" y="511.7437"/><rect fill="#FFFFFF" height="21" style="stroke:#181818;stroke-width:0.6999999999999998;" width="7" x="1036" y="552.7102"/><rect fill="#FFFFFF" height="21" style="stroke:#181818;stroke-width:0.6999999999999998;" width="7" x="1131.2" y="633.6094"/><rect fill="#FFFFFF" height="21" style="stroke:#181818;stroke-width:0.6999999999999998;" width="7" x="1131.2" y="694.5422"/><ellipse cx="15.05" cy="45.7898" fill="none" rx="2.8" ry="2.8" style="stroke:#181818;stroke-width:1.0499999999999998;"/><polygon fill="#181818" points="54.6,43.5148,61.6,46.3148,54.6,49.1148,57.4,46.3148" style="stroke:#181818;stroke-width:0.6999999999999998;"/><line style="stroke:#181818;stroke-width:0.6999999999999998;" x1="18.2" x2="58.8" y1="46.3148" y2="46.3148"/><text fill="#000000" font-family="sans-serif" font-size="9.1" font-weight="bold" lengthAdjust="spacing" textLength="4.9" x="20.3" y="42.9864">1</text><text fill="#000000" font-family="sans-serif" font-size="9.1" lengthAdjust="spacing" textLength="24.5" x="28" y="42.9864">POST</text><polygon fill="#181818" points="219.1,63.4812,226.1,66.2812,219.1,69.0812,221.9,66.2812" style="stroke:#181818;stroke-width:0.6999999999999998;"/><line style="stroke:#181818;stroke-width:0.6999999999999998;" x1="70" x2="223.3" y1="66.2812" y2="66.2812"/><text fill="#000000" font-family="sans-serif" font-size="9.1" font-weight="bold" lengthAdjust="spacing" textLength="4.9" x="74.9" y="62.9528">2</text><text fill="#000000" font-family="sans-serif" font-size="9.1" lengthAdjust="spacing" textLength="136.5" x="82.6" y="62.9528">createPassageway(req, res, next)</text><polygon fill="#181818" points="393.4,83.4477,400.4,86.2477,393.4,89.0477,396.2,86.2477" style="stroke:#181818;stroke-width:0.6999999999999998;"/><line style="stroke:#181818;stroke-width:0.6999999999999998;" x1="234.5" x2="397.6" y1="86.2477" y2="86.2477"/><text fill="#000000" font-family="sans-serif" font-size="9.1" font-weight="bold" lengthAdjust="spacing" textLength="4.9" x="239.4" y="82.9192">3</text><text fill="#000000" font-family="sans-serif" font-size="9.1" lengthAdjust="spacing" textLength="146.3" x="247.1" y="82.9192">createPassageway(createFloorDTO)</text><polygon fill="#181818" points="503.3,103.4141,510.3,106.2141,503.3,109.0141,506.1,106.2141" style="stroke:#181818;stroke-width:0.6999999999999998;"/><line style="stroke:#181818;stroke-width:0.6999999999999998;" x1="408.8" x2="507.5" y1="106.2141" y2="106.2141"/><text fill="#000000" font-family="sans-serif" font-size="9.1" font-weight="bold" lengthAdjust="spacing" textLength="4.9" x="413.7" y="102.8856">4</text><text fill="#000000" font-family="sans-serif" font-size="9.1" lengthAdjust="spacing" textLength="25.2" x="421.4" y="102.8856">create</text><polygon fill="#181818" points="586.6,123.3805,593.6,126.1805,586.6,128.9805,589.4,126.1805" style="stroke:#181818;stroke-width:0.6999999999999998;"/><line style="stroke:#181818;stroke-width:0.6999999999999998;" x1="408.8" x2="590.8" y1="126.1805" y2="126.1805"/><text fill="#000000" font-family="sans-serif" font-size="9.1" font-weight="bold" lengthAdjust="spacing" textLength="4.9" x="413.7" y="122.8521">5</text><text fill="#000000" font-family="sans-serif" font-size="9.1" lengthAdjust="spacing" textLength="18.2" x="421.4" y="122.8521">save</text><polygon fill="#181818" points="807.8,143.3469,814.8,146.1469,807.8,148.9469,810.6,146.1469" style="stroke:#181818;stroke-width:0.6999999999999998;"/><line style="stroke:#181818;stroke-width:0.6999999999999998;" x1="602" x2="812" y1="146.1469" y2="146.1469"/><text fill="#000000" font-family="sans-serif" font-size="9.1" font-weight="bold" lengthAdjust="spacing" textLength="4.9" x="606.9" y="142.8185">6</text><text fill="#000000" font-family="sans-serif" font-size="9.1" lengthAdjust="spacing" textLength="30.8" x="614.6" y="142.8185">findOne</text><polygon fill="#181818" points="690.2,184.3133,697.2,187.1133,690.2,189.9133,693,187.1133" style="stroke:#181818;stroke-width:0.6999999999999998;"/><line style="stroke:#181818;stroke-width:0.6999999999999998;" x1="602" x2="694.4" y1="187.1133" y2="187.1133"/><text fill="#000000" font-family="sans-serif" font-size="9.1" font-weight="bold" lengthAdjust="spacing" textLength="4.9" x="606.9" y="183.7849">7</text><text fill="#000000" font-family="sans-serif" font-size="9.1" lengthAdjust="spacing" textLength="56" x="614.6" y="183.7849">toPersistence</text><polygon fill="#181818" points="807.8,225.2797,814.8,228.0797,807.8,230.8797,810.6,228.0797" style="stroke:#181818;stroke-width:0.6999999999999998;"/><line style="stroke:#181818;stroke-width:0.6999999999999998;" x1="602" x2="812" y1="228.0797" y2="228.0797"/><text fill="#000000" font-family="sans-serif" font-size="9.1" font-weight="bold" lengthAdjust="spacing" textLength="4.9" x="606.9" y="224.7513">8</text><text fill="#000000" font-family="sans-serif" font-size="9.1" lengthAdjust="spacing" textLength="25.2" x="614.6" y="224.7513">create</text><polygon fill="#181818" points="690.2,266.2461,697.2,269.0461,690.2,271.8461,693,269.0461" style="stroke:#181818;stroke-width:0.6999999999999998;"/><line style="stroke:#181818;stroke-width:0.6999999999999998;" x1="602" x2="694.4" y1="269.0461" y2="269.0461"/><text fill="#000000" font-family="sans-serif" font-size="9.1" font-weight="bold" lengthAdjust="spacing" textLength="4.9" x="606.9" y="265.7177">9</text><text fill="#000000" font-family="sans-serif" font-size="9.1" lengthAdjust="spacing" textLength="38.5" x="614.6" y="265.7177">toDomain</text><polygon fill="#181818" points="416.5,307.2125,409.5,310.0125,416.5,312.8125,413.7,310.0125" style="stroke:#181818;stroke-width:0.6999999999999998;"/><line style="stroke:#181818;stroke-width:0.6999999999999998;stroke-dasharray:2.0,2.0;" x1="412.3" x2="597.8" y1="310.0125" y2="310.0125"/><text fill="#000000" font-family="sans-serif" font-size="9.1" font-weight="bold" lengthAdjust="spacing" textLength="9.8" x="420.7" y="306.6841">10</text><text fill="#000000" font-family="sans-serif" font-size="9.1" lengthAdjust="spacing" textLength="2.8" x="433.3" y="306.6841">&#160;</text><polygon fill="#181818" points="896,327.1789,903,329.9789,896,332.7789,898.8,329.9789" style="stroke:#181818;stroke-width:0.6999999999999998;"/><line style="stroke:#181818;stroke-width:0.6999999999999998;" x1="408.8" x2="900.2" y1="329.9789" y2="329.9789"/><text fill="#000000" font-family="sans-serif" font-size="9.1" font-weight="bold" lengthAdjust="spacing" textLength="9.8" x="413.7" y="326.6505">11</text><text fill="#000000" font-family="sans-serif" font-size="9.1" lengthAdjust="spacing" textLength="66.5" x="426.3" y="326.6505">addPassageway</text><polygon fill="#181818" points="947.1,347.1453,954.1,349.9453,947.1,352.7453,949.9,349.9453" style="stroke:#181818;stroke-width:0.6999999999999998;"/><line style="stroke:#181818;stroke-width:0.6999999999999998;" x1="408.8" x2="951.3" y1="349.9453" y2="349.9453"/><text fill="#000000" font-family="sans-serif" font-size="9.1" font-weight="bold" lengthAdjust="spacing" textLength="9.8" x="413.7" y="346.6169">12</text><text fill="#000000" font-family="sans-serif" font-size="9.1" lengthAdjust="spacing" textLength="18.2" x="426.3" y="346.6169">save</text><polygon fill="#181818" points="1027.6,367.1117,1034.6,369.9117,1027.6,372.7117,1030.4,369.9117" style="stroke:#181818;stroke-width:0.6999999999999998;"/><line style="stroke:#181818;stroke-width:0.6999999999999998;" x1="962.5" x2="1031.8" y1="369.9117" y2="369.9117"/><text fill="#000000" font-family="sans-serif" font-size="9.1" font-weight="bold" lengthAdjust="spacing" textLength="9.8" x="967.4" y="366.5833">13</text><text fill="#000000" font-family="sans-serif" font-size="9.1" lengthAdjust="spacing" textLength="30.8" x="980" y="366.5833">findOne</text><polygon fill="#181818" points="1027.6,408.0781,1034.6,410.8781,1027.6,413.6781,1030.4,410.8781" style="stroke:#181818;stroke-width:0.6999999999999998;"/><line style="stroke:#181818;stroke-width:0.6999999999999998;" x1="962.5" x2="1031.8" y1="410.8781" y2="410.8781"/><text fill="#000000" font-family="sans-serif" font-size="9.1" font-weight="bold" lengthAdjust="spacing" textLength="9.8" x="967.4" y="407.5497">14</text><text fill="#000000" font-family="sans-serif" font-size="9.1" lengthAdjust="spacing" textLength="18.2" x="980" y="407.5497">save</text><polygon fill="#181818" points="416.5,449.0445,409.5,451.8445,416.5,454.6445,413.7,451.8445" style="stroke:#181818;stroke-width:0.6999999999999998;"/><line style="stroke:#181818;stroke-width:0.6999999999999998;stroke-dasharray:2.0,2.0;" x1="412.3" x2="958.3" y1="451.8445" y2="451.8445"/><text fill="#000000" font-family="sans-serif" font-size="9.1" font-weight="bold" lengthAdjust="spacing" textLength="9.8" x="420.7" y="448.5161">15</text><text fill="#000000" font-family="sans-serif" font-size="9.1" lengthAdjust="spacing" textLength="2.8" x="433.3" y="448.5161">&#160;</text><polygon fill="#181818" points="896,469.0109,903,471.8109,896,474.6109,898.8,471.8109" style="stroke:#181818;stroke-width:0.6999999999999998;"/><line style="stroke:#181818;stroke-width:0.6999999999999998;" x1="408.8" x2="900.2" y1="471.8109" y2="471.8109"/><text fill="#000000" font-family="sans-serif" font-size="9.1" font-weight="bold" lengthAdjust="spacing" textLength="9.8" x="413.7" y="468.4825">16</text><text fill="#000000" font-family="sans-serif" font-size="9.1" lengthAdjust="spacing" textLength="66.5" x="426.3" y="468.4825">addPassageway</text><polygon fill="#181818" points="947.1,488.9773,954.1,491.7773,947.1,494.5773,949.9,491.7773" style="stroke:#181818;stroke-width:0.6999999999999998;"/><line style="stroke:#181818;stroke-width:0.6999999999999998;" x1="408.8" x2="951.3" y1="491.7773" y2="491.7773"/><text fill="#000000" font-family="sans-serif" font-size="9.1" font-weight="bold" lengthAdjust="spacing" textLength="9.8" x="413.7" y="488.4489">17</text><text fill="#000000" font-family="sans-serif" font-size="9.1" lengthAdjust="spacing" textLength="18.2" x="426.3" y="488.4489">save</text><polygon fill="#181818" points="1027.6,508.9437,1034.6,511.7437,1027.6,514.5437,1030.4,511.7437" style="stroke:#181818;stroke-width:0.6999999999999998;"/><line style="stroke:#181818;stroke-width:0.6999999999999998;" x1="962.5" x2="1031.8" y1="511.7437" y2="511.7437"/><text fill="#000000" font-family="sans-serif" font-size="9.1" font-weight="bold" lengthAdjust="spacing" textLength="9.8" x="967.4" y="508.4153">18</text><text fill="#000000" font-family="sans-serif" font-size="9.1" lengthAdjust="spacing" textLength="30.8" x="980" y="508.4153">findOne</text><polygon fill="#181818" points="1027.6,549.9102,1034.6,552.7102,1027.6,555.5102,1030.4,552.7102" style="stroke:#181818;stroke-width:0.6999999999999998;"/><line style="stroke:#181818;stroke-width:0.6999999999999998;" x1="962.5" x2="1031.8" y1="552.7102" y2="552.7102"/><text fill="#000000" font-family="sans-serif" font-size="9.1" font-weight="bold" lengthAdjust="spacing" textLength="9.8" x="967.4" y="549.3817">19</text><text fill="#000000" font-family="sans-serif" font-size="9.1" lengthAdjust="spacing" textLength="18.2" x="980" y="549.3817">save</text><polygon fill="#181818" points="416.5,590.8766,409.5,593.6766,416.5,596.4766,413.7,593.6766" style="stroke:#181818;stroke-width:0.6999999999999998;"/><line style="stroke:#181818;stroke-width:0.6999999999999998;stroke-dasharray:2.0,2.0;" x1="412.3" x2="958.3" y1="593.6766" y2="593.6766"/><text fill="#000000" font-family="sans-serif" font-size="9.1" font-weight="bold" lengthAdjust="spacing" textLength="9.8" x="420.7" y="590.3481">20</text><text fill="#000000" font-family="sans-serif" font-size="9.1" lengthAdjust="spacing" textLength="2.8" x="433.3" y="590.3481">&#160;</text><polygon fill="#181818" points="690.2,610.843,697.2,613.643,690.2,616.443,693,613.643" style="stroke:#181818;stroke-width:0.6999999999999998;"/><line style="stroke:#181818;stroke-width:0.6999999999999998;" x1="408.8" x2="694.4" y1="613.643" y2="613.643"/><text fill="#000000" font-family="sans-serif" font-size="9.1" font-weight="bold" lengthAdjust="spacing" textLength="9.8" x="413.7" y="610.3146">21</text><text fill="#000000" font-family="sans-serif" font-size="9.1" lengthAdjust="spacing" textLength="25.9" x="426.3" y="610.3146">toDTO</text><polygon fill="#181818" points="1122.8,630.8094,1129.8,633.6094,1122.8,636.4094,1125.6,633.6094" style="stroke:#181818;stroke-width:0.6999999999999998;"/><line style="stroke:#181818;stroke-width:0.6999999999999998;" x1="705.6" x2="1127" y1="633.6094" y2="633.6094"/><text fill="#000000" font-family="sans-serif" font-size="9.1" font-weight="bold" lengthAdjust="spacing" textLength="9.8" x="710.5" y="630.281">22</text><text fill="#000000" font-family="sans-serif" font-size="9.1" lengthAdjust="spacing" textLength="25.2" x="723.1" y="630.281">create</text><polygon fill="#181818" points="242.2,671.7758,235.2,674.5758,242.2,677.3758,239.4,674.5758" style="stroke:#181818;stroke-width:0.6999999999999998;"/><line style="stroke:#181818;stroke-width:0.6999999999999998;stroke-dasharray:2.0,2.0;" x1="238" x2="404.6" y1="674.5758" y2="674.5758"/><text fill="#000000" font-family="sans-serif" font-size="9.1" font-weight="bold" lengthAdjust="spacing" textLength="9.8" x="246.4" y="671.2474">23</text><text fill="#000000" font-family="sans-serif" font-size="9.1" lengthAdjust="spacing" textLength="2.8" x="259" y="671.2474">&#160;</text><polygon fill="#181818" points="1122.8,691.7422,1129.8,694.5422,1122.8,697.3422,1125.6,694.5422" style="stroke:#181818;stroke-width:0.6999999999999998;"/><line style="stroke:#181818;stroke-width:0.6999999999999998;" x1="234.5" x2="1127" y1="694.5422" y2="694.5422"/><text fill="#000000" font-family="sans-serif" font-size="9.1" font-weight="bold" lengthAdjust="spacing" textLength="9.8" x="239.4" y="691.2138">24</text><text fill="#000000" font-family="sans-serif" font-size="9.1" lengthAdjust="spacing" textLength="35.7" x="252" y="691.2138">getValue</text><line style="stroke:#181818;stroke-width:0.6999999999999998;" x1="234.5" x2="263.9" y1="735.5086" y2="735.5086"/><line style="stroke:#181818;stroke-width:0.6999999999999998;" x1="263.9" x2="263.9" y1="735.5086" y2="744.6086"/><line style="stroke:#181818;stroke-width:0.6999999999999998;" x1="235.2" x2="263.9" y1="744.6086" y2="744.6086"/><polygon fill="#181818" points="242.2,741.8086,235.2,744.6086,242.2,747.4086,239.4,744.6086" style="stroke:#181818;stroke-width:0.6999999999999998;"/><text fill="#000000" font-family="sans-serif" font-size="9.1" font-weight="bold" lengthAdjust="spacing" textLength="9.8" x="239.4" y="732.1802">25</text><text fill="#000000" font-family="sans-serif" font-size="9.1" lengthAdjust="spacing" textLength="52.5" x="252" y="732.1802">res(201,json)</text><polygon fill="#181818" points="77.7,761.775,70.7,764.575,77.7,767.375,74.9,764.575" style="stroke:#181818;stroke-width:0.6999999999999998;"/><line style="stroke:#181818;stroke-width:0.6999999999999998;stroke-dasharray:2.0,2.0;" x1="73.5" x2="230.3" y1="764.575" y2="764.575"/><text fill="#000000" font-family="sans-serif" font-size="9.1" font-weight="bold" lengthAdjust="spacing" textLength="9.8" x="81.9" y="761.2466">26</text><text fill="#000000" font-family="sans-serif" font-size="9.1" lengthAdjust="spacing" textLength="37.1" x="94.5" y="761.2466">response</text><polygon fill="#181818" points="7.7,781.7414,0.7,784.5414,7.7,787.3414,4.9,784.5414" style="stroke:#181818;stroke-width:0.6999999999999998;"/><line style="stroke:#181818;stroke-width:0.6999999999999998;stroke-dasharray:2.0,2.0;" x1="3.5" x2="65.8" y1="784.5414" y2="784.5414"/><text fill="#000000" font-family="sans-serif" font-size="9.1" font-weight="bold" lengthAdjust="spacing" textLength="9.8" x="11.9" y="781.213">27</text><text fill="#000000" font-family="sans-serif" font-size="9.1" lengthAdjust="spacing" textLength="37.1" x="24.5" y="781.213">response</text><!--SRC=[xLLDJyCm3BttLqGxRT8c0SSA3ObDtD0cDd4FhPc2kgGawO1_Jv9-EI4j4u8RaxOcyRFzzkoujDA2LySda4bIKgbPnahADPcaMweKFS0R_NWGbOO9eOhS5KB80BUIG3Nqw9NWMegY0EbS-kqtVZkG9vRLUPhr8ACwSc7smwIX50vc5uEeUrgM3L6p78HjGIgcDF0CwO0E0qTdTi3RYXKvuuSOe6FOWY9CmqGUVfX0ptoztpWVyqoI6x5OkeWfsMvs-uHccfrC4Pgw9kv15ajKj9HaGPsc4bxdH8AQ4mxlUjP7GQKsdtvd8pOLZOIh3rngGnA5QviWQHQEcArvMhju1gjTIXGzGH_0wPdONui8fKp9C-FvXaCW0rOrXs5R5zWqJagqmBREopOL2cAtOuoQF_OxXDRYI1a_YqjV88oezKCYjusN4fhdVGcZc5X1l4R76-muNg9OxoFACVDvcU9CVvucBgcdmB-qVoSjrgsz3sO4UjrlljPiph_UF0j6mOEjkpjT1dzWObmtmlnXw38UG3_IeXhF6JZYkMmcyFJgudB-eWIV-S1sjZXGARZoXC9Z-dgn644shuLF]--></g></svg>