<?xml version="1.0" encoding="us-ascii" standalone="no"?><svg xmlns="http://www.w3.org/2000/svg" xmlns:xlink="http://www.w3.org/1999/xlink" contentStyleType="text/css" height="411.6px" preserveAspectRatio="none" style="width:499px;height:411px;background:#FFFFFF;" version="1.1" viewBox="0 0 499 411" width="499.2px" zoomAndPan="magnify"><defs/><g><g id="cluster_##2"><rect fill="#36827F" height="136.8" rx="1.5" ry="1.5" style="stroke:#181818;stroke-width:0.6;" width="203.4" x="4.2" y="8.2947"/></g><g id="cluster_##7"><rect fill="#D499B9" height="132.9" rx="1.5" ry="1.5" style="stroke:#181818;stroke-width:0.6;" width="254.4" x="222" y="8.2947"/></g><g id="cluster_##13"><rect fill="#9055A2" height="136.8" rx="1.5" ry="1.5" style="stroke:#181818;stroke-width:0.6;" width="187.8" x="307.8" y="271.6947"/></g><!--class Building--><g id="elem_Building"><rect codeLine="6" fill="#F1F1F1" height="41.0719" id="Building" rx="1.5" ry="1.5" style="stroke:#181818;stroke-width:0.3;" width="49.2" x="138" y="17.8947"/><ellipse cx="147" cy="33.6306" fill="#ADD1B2" rx="6.6" ry="6.6" style="stroke:#181818;stroke-width:0.6;"/><path d="M148.6594,31.1556 Q148.7531,31.0244 148.8656,30.9588 Q148.9781,30.8931 149.1094,30.8931 Q149.3344,30.8931 149.475,31.0525 Q149.6156,31.2025 149.6156,31.5681 L149.6156,32.44 Q149.6156,32.8056 149.475,32.965 Q149.3344,33.1244 149.1094,33.1244 Q148.9031,33.1244 148.7813,33.0025 Q148.6594,32.89 148.5938,32.5806 Q148.5656,32.365 148.4531,32.2525 Q148.2563,32.0275 147.8906,31.8963 Q147.525,31.765 147.15,31.765 Q146.6906,31.765 146.3063,31.9619 Q145.9313,32.1588 145.6313,32.6088 Q145.3406,33.0588 145.3406,33.6775 L145.3406,34.3338 Q145.3406,35.0744 145.875,35.5713 Q146.4094,36.0588 147.3656,36.0588 Q147.9281,36.0588 148.3219,35.9088 Q148.5563,35.815 148.8094,35.5525 Q148.9688,35.3931 149.0531,35.3463 Q149.1469,35.2994 149.2687,35.2994 Q149.4656,35.2994 149.6156,35.4588 Q149.775,35.6088 149.775,35.815 Q149.775,36.0213 149.5688,36.265 Q149.2687,36.6119 148.7906,36.8088 Q148.1437,37.0806 147.3656,37.0806 Q146.4562,37.0806 145.7344,36.7056 Q145.1437,36.4056 144.7313,35.7681 Q144.3188,35.1213 144.3188,34.3525 L144.3188,33.6588 Q144.3188,32.8619 144.6844,32.1775 Q145.0594,31.4838 145.7156,31.1181 Q146.3719,30.7431 147.1125,30.7431 Q147.5531,30.7431 147.9375,30.8463 Q148.3312,30.94 148.6594,31.1556 Z " fill="#000000"/><text fill="#000000" font-family="sans-serif" font-size="7.2" font-style="italic" lengthAdjust="spacing" textLength="24" x="158.4" y="27.4127">&#171;Root&#187;</text><text fill="#000000" font-family="sans-serif" font-size="7.2" font-style="italic" lengthAdjust="spacing" textLength="26.4" x="157.2" y="35.4564">&#171;Entity&#187;</text><text fill="#000000" font-family="sans-serif" font-size="8.4" lengthAdjust="spacing" textLength="30" x="155.4" y="44.5865">Building</text><line style="stroke:#181818;stroke-width:0.3;" x1="138.6" x2="186.6" y1="49.3666" y2="49.3666"/><line style="stroke:#181818;stroke-width:0.3;" x1="138.6" x2="186.6" y1="54.1666" y2="54.1666"/></g><!--class BuildingDescription--><g id="elem_BuildingDescription"><rect codeLine="7" fill="#F1F1F1" height="33.0281" id="BuildingDescription" rx="1.5" ry="1.5" style="stroke:#181818;stroke-width:0.3;" width="91.8" x="14.1" y="98.5947"/><ellipse cx="23.1" cy="110.3088" fill="#A4C2E5" rx="6.6" ry="6.6" style="stroke:#181818;stroke-width:0.6;"/><path d="M23.4656,112.0713 L24.5719,109.8119 Q24.1594,109.8119 24.0469,109.7369 Q23.7938,109.5869 23.7938,109.2963 Q23.7938,109.0713 23.9531,108.9306 Q24.1125,108.79 24.4781,108.79 L25.875,108.79 Q26.25,108.79 26.4,108.9306 Q26.5594,109.0713 26.5594,109.2963 Q26.5594,109.5213 26.4,109.6713 Q26.25,109.8119 25.875,109.8119 L25.7063,109.8119 L24,113.3088 L22.9313,113.3088 L21.225,109.8119 L21.0844,109.8119 Q20.7094,109.8119 20.55,109.6713 Q20.4,109.5213 20.4,109.2963 Q20.4,109.0713 20.55,108.9306 Q20.7094,108.79 21.0844,108.79 L22.4531,108.79 Q22.8187,108.79 22.9688,108.9306 Q23.1281,109.0713 23.1281,109.2963 Q23.1281,109.5869 22.8938,109.7369 Q22.7719,109.8119 22.3594,109.8119 L23.4656,112.0713 Z " fill="#000000"/><text fill="#000000" font-family="sans-serif" font-size="7.2" font-style="italic" lengthAdjust="spacing" textLength="49.2" x="43.2" y="108.1127">&#171;ValueObject&#187;</text><text fill="#000000" font-family="sans-serif" font-size="8.4" lengthAdjust="spacing" textLength="72.6" x="31.5" y="117.2428">BuildingDescription</text><line style="stroke:#181818;stroke-width:0.3;" x1="14.7" x2="105.3" y1="122.0228" y2="122.0228"/><line style="stroke:#181818;stroke-width:0.3;" x1="14.7" x2="105.3" y1="126.8228" y2="126.8228"/></g><!--class BuildingName--><g id="elem_BuildingName"><rect codeLine="8" fill="#F1F1F1" height="41.0719" id="BuildingName" rx="1.5" ry="1.5" style="stroke:#181818;stroke-width:0.3;" width="70.8" x="127.2" y="94.6947"/><ellipse cx="136.2" cy="110.4306" fill="#FFA500" rx="6.6" ry="6.6" style="stroke:#181818;stroke-width:0.6;"/><path d="M136.5656,112.1931 L137.6719,109.9338 Q137.2594,109.9338 137.1469,109.8588 Q136.8937,109.7088 136.8937,109.4181 Q136.8937,109.1931 137.0531,109.0525 Q137.2125,108.9119 137.5781,108.9119 L138.975,108.9119 Q139.35,108.9119 139.5,109.0525 Q139.6594,109.1931 139.6594,109.4181 Q139.6594,109.6431 139.5,109.7931 Q139.35,109.9338 138.975,109.9338 L138.8063,109.9338 L137.1,113.4306 L136.0313,113.4306 L134.325,109.9338 L134.1844,109.9338 Q133.8094,109.9338 133.65,109.7931 Q133.5,109.6431 133.5,109.4181 Q133.5,109.1931 133.65,109.0525 Q133.8094,108.9119 134.1844,108.9119 L135.5531,108.9119 Q135.9188,108.9119 136.0688,109.0525 Q136.2281,109.1931 136.2281,109.4181 Q136.2281,109.7088 135.9938,109.8588 Q135.8719,109.9338 135.4594,109.9338 L136.5656,112.1931 Z " fill="#000000"/><text fill="#000000" font-family="sans-serif" font-size="7.2" font-style="italic" lengthAdjust="spacing" textLength="49.2" x="145.8" y="104.2127">&#171;ValueObject&#187;</text><text fill="#000000" font-family="sans-serif" font-size="7.2" font-style="italic" lengthAdjust="spacing" textLength="31.2" x="154.8" y="112.2564">&#171;unique&#187;</text><text fill="#000000" font-family="sans-serif" font-size="8.4" lengthAdjust="spacing" textLength="51.6" x="144.6" y="121.3865">BuildingName</text><line style="stroke:#181818;stroke-width:0.3;" x1="127.8" x2="197.4" y1="126.1666" y2="126.1666"/><line style="stroke:#181818;stroke-width:0.3;" x1="127.8" x2="197.4" y1="130.9666" y2="130.9666"/></g><!--class Floor--><g id="elem_Floor"><rect codeLine="12" fill="#F1F1F1" height="41.0719" id="Floor" rx="1.5" ry="1.5" style="stroke:#181818;stroke-width:0.3;" width="43.2" x="321" y="17.8947"/><ellipse cx="330" cy="33.6306" fill="#ADD1B2" rx="6.6" ry="6.6" style="stroke:#181818;stroke-width:0.6;"/><path d="M331.6594,31.1556 Q331.7531,31.0244 331.8656,30.9588 Q331.9781,30.8931 332.1094,30.8931 Q332.3344,30.8931 332.475,31.0525 Q332.6156,31.2025 332.6156,31.5681 L332.6156,32.44 Q332.6156,32.8056 332.475,32.965 Q332.3344,33.1244 332.1094,33.1244 Q331.9031,33.1244 331.7813,33.0025 Q331.6594,32.89 331.5938,32.5806 Q331.5656,32.365 331.4531,32.2525 Q331.2562,32.0275 330.8906,31.8963 Q330.525,31.765 330.15,31.765 Q329.6906,31.765 329.3063,31.9619 Q328.9313,32.1588 328.6312,32.6088 Q328.3406,33.0588 328.3406,33.6775 L328.3406,34.3338 Q328.3406,35.0744 328.875,35.5713 Q329.4094,36.0588 330.3656,36.0588 Q330.9281,36.0588 331.3219,35.9088 Q331.5563,35.815 331.8094,35.5525 Q331.9688,35.3931 332.0531,35.3463 Q332.1469,35.2994 332.2688,35.2994 Q332.4656,35.2994 332.6156,35.4588 Q332.775,35.6088 332.775,35.815 Q332.775,36.0213 332.5687,36.265 Q332.2688,36.6119 331.7906,36.8088 Q331.1438,37.0806 330.3656,37.0806 Q329.4563,37.0806 328.7344,36.7056 Q328.1438,36.4056 327.7313,35.7681 Q327.3187,35.1213 327.3187,34.3525 L327.3187,33.6588 Q327.3187,32.8619 327.6844,32.1775 Q328.0594,31.4838 328.7156,31.1181 Q329.3719,30.7431 330.1125,30.7431 Q330.5531,30.7431 330.9375,30.8463 Q331.3313,30.94 331.6594,31.1556 Z " fill="#000000"/><text fill="#000000" font-family="sans-serif" font-size="7.2" font-style="italic" lengthAdjust="spacing" textLength="24" x="338.4" y="27.4127">&#171;Root&#187;</text><text fill="#000000" font-family="sans-serif" font-size="7.2" font-style="italic" lengthAdjust="spacing" textLength="26.4" x="337.2" y="35.4564">&#171;Entity&#187;</text><text fill="#000000" font-family="sans-serif" font-size="8.4" lengthAdjust="spacing" textLength="19.8" x="340.5" y="44.5865">Floor</text><line style="stroke:#181818;stroke-width:0.3;" x1="321.6" x2="363.6" y1="49.3666" y2="49.3666"/><line style="stroke:#181818;stroke-width:0.3;" x1="321.6" x2="363.6" y1="54.1666" y2="54.1666"/></g><!--class FloorNumber--><g id="elem_FloorNumber"><rect codeLine="13" fill="#F1F1F1" height="41.0719" id="FloorNumber" rx="1.5" ry="1.5" style="stroke:#181818;stroke-width:0.3;" width="68.4" x="231.6" y="17.8947"/><ellipse cx="240.6" cy="33.6306" fill="#FFA500" rx="6.6" ry="6.6" style="stroke:#181818;stroke-width:0.6;"/><path d="M240.9656,35.3931 L242.0719,33.1338 Q241.6594,33.1338 241.5469,33.0588 Q241.2938,32.9088 241.2938,32.6181 Q241.2938,32.3931 241.4531,32.2525 Q241.6125,32.1119 241.9781,32.1119 L243.375,32.1119 Q243.75,32.1119 243.9,32.2525 Q244.0594,32.3931 244.0594,32.6181 Q244.0594,32.8431 243.9,32.9931 Q243.75,33.1338 243.375,33.1338 L243.2062,33.1338 L241.5,36.6306 L240.4312,36.6306 L238.725,33.1338 L238.5844,33.1338 Q238.2094,33.1338 238.05,32.9931 Q237.9,32.8431 237.9,32.6181 Q237.9,32.3931 238.05,32.2525 Q238.2094,32.1119 238.5844,32.1119 L239.9531,32.1119 Q240.3188,32.1119 240.4688,32.2525 Q240.6281,32.3931 240.6281,32.6181 Q240.6281,32.9088 240.3937,33.0588 Q240.2719,33.1338 239.8594,33.1338 L240.9656,35.3931 Z " fill="#000000"/><text fill="#000000" font-family="sans-serif" font-size="7.2" font-style="italic" lengthAdjust="spacing" textLength="49.2" x="249" y="27.4127">&#171;ValueObject&#187;</text><text fill="#000000" font-family="sans-serif" font-size="7.2" font-style="italic" lengthAdjust="spacing" textLength="31.2" x="258" y="35.4564">&#171;unique&#187;</text><text fill="#000000" font-family="sans-serif" font-size="8.4" lengthAdjust="spacing" textLength="49.2" x="249" y="44.5865">FloorNumber</text><line style="stroke:#181818;stroke-width:0.3;" x1="232.2" x2="299.4" y1="49.3666" y2="49.3666"/><line style="stroke:#181818;stroke-width:0.3;" x1="232.2" x2="299.4" y1="54.1666" y2="54.1666"/></g><!--class FloorDescription--><g id="elem_FloorDescription"><rect codeLine="14" fill="#F1F1F1" height="33.0281" id="FloorDescription" rx="1.5" ry="1.5" style="stroke:#181818;stroke-width:0.3;" width="81.6" x="385.2" y="21.7947"/><ellipse cx="394.2" cy="33.5088" fill="#A4C2E5" rx="6.6" ry="6.6" style="stroke:#181818;stroke-width:0.6;"/><path d="M394.5656,35.2713 L395.6719,33.0119 Q395.2594,33.0119 395.1469,32.9369 Q394.8938,32.7869 394.8938,32.4963 Q394.8938,32.2713 395.0531,32.1306 Q395.2125,31.99 395.5781,31.99 L396.975,31.99 Q397.35,31.99 397.5,32.1306 Q397.6594,32.2713 397.6594,32.4963 Q397.6594,32.7213 397.5,32.8713 Q397.35,33.0119 396.975,33.0119 L396.8063,33.0119 L395.1,36.5088 L394.0313,36.5088 L392.325,33.0119 L392.1844,33.0119 Q391.8094,33.0119 391.65,32.8713 Q391.5,32.7213 391.5,32.4963 Q391.5,32.2713 391.65,32.1306 Q391.8094,31.99 392.1844,31.99 L393.5531,31.99 Q393.9188,31.99 394.0687,32.1306 Q394.2281,32.2713 394.2281,32.4963 Q394.2281,32.7869 393.9938,32.9369 Q393.8719,33.0119 393.4594,33.0119 L394.5656,35.2713 Z " fill="#000000"/><text fill="#000000" font-family="sans-serif" font-size="7.2" font-style="italic" lengthAdjust="spacing" textLength="49.2" x="409.2" y="31.3127">&#171;ValueObject&#187;</text><text fill="#000000" font-family="sans-serif" font-size="8.4" lengthAdjust="spacing" textLength="62.4" x="402.6" y="40.4428">FloorDescription</text><line style="stroke:#181818;stroke-width:0.3;" x1="385.8" x2="466.2" y1="45.2228" y2="45.2228"/><line style="stroke:#181818;stroke-width:0.3;" x1="385.8" x2="466.2" y1="50.0228" y2="50.0228"/></g><!--class FloorMap--><g id="elem_FloorMap"><rect codeLine="15" fill="#F1F1F1" height="33.0281" id="FloorMap" rx="1.5" ry="1.5" style="stroke:#181818;stroke-width:0.3;" width="55.2" x="315" y="98.5947"/><ellipse cx="324" cy="110.3088" fill="#ADD1B2" rx="6.6" ry="6.6" style="stroke:#181818;stroke-width:0.6;"/><path d="M325.6594,107.8338 Q325.7531,107.7025 325.8656,107.6369 Q325.9781,107.5713 326.1094,107.5713 Q326.3344,107.5713 326.475,107.7306 Q326.6156,107.8806 326.6156,108.2463 L326.6156,109.1181 Q326.6156,109.4838 326.475,109.6431 Q326.3344,109.8025 326.1094,109.8025 Q325.9031,109.8025 325.7813,109.6806 Q325.6594,109.5681 325.5938,109.2588 Q325.5656,109.0431 325.4531,108.9306 Q325.2562,108.7056 324.8906,108.5744 Q324.525,108.4431 324.15,108.4431 Q323.6906,108.4431 323.3063,108.64 Q322.9313,108.8369 322.6312,109.2869 Q322.3406,109.7369 322.3406,110.3556 L322.3406,111.0119 Q322.3406,111.7525 322.875,112.2494 Q323.4094,112.7369 324.3656,112.7369 Q324.9281,112.7369 325.3219,112.5869 Q325.5563,112.4931 325.8094,112.2306 Q325.9688,112.0713 326.0531,112.0244 Q326.1469,111.9775 326.2688,111.9775 Q326.4656,111.9775 326.6156,112.1369 Q326.775,112.2869 326.775,112.4931 Q326.775,112.6994 326.5687,112.9431 Q326.2688,113.29 325.7906,113.4869 Q325.1438,113.7588 324.3656,113.7588 Q323.4563,113.7588 322.7344,113.3838 Q322.1438,113.0838 321.7313,112.4463 Q321.3187,111.7994 321.3187,111.0306 L321.3187,110.3369 Q321.3187,109.54 321.6844,108.8556 Q322.0594,108.1619 322.7156,107.7963 Q323.3719,107.4213 324.1125,107.4213 Q324.5531,107.4213 324.9375,107.5244 Q325.3313,107.6181 325.6594,107.8338 Z " fill="#000000"/><text fill="#000000" font-family="sans-serif" font-size="7.2" font-style="italic" lengthAdjust="spacing" textLength="26.4" x="337.2" y="108.1127">&#171;Entity&#187;</text><text fill="#000000" font-family="sans-serif" font-size="8.4" lengthAdjust="spacing" textLength="36" x="332.4" y="117.2428">FloorMap</text><line style="stroke:#181818;stroke-width:0.3;" x1="315.6" x2="369.6" y1="122.0228" y2="122.0228"/><line style="stroke:#181818;stroke-width:0.3;" x1="315.6" x2="369.6" y1="126.8228" y2="126.8228"/></g><!--class Elevator--><g id="elem_Elevator"><rect codeLine="19" fill="#F1F1F1" height="41.0719" id="Elevator" rx="1.5" ry="1.5" style="stroke:#181818;stroke-width:0.3;" width="50.4" x="317.4" y="281.2947"/><ellipse cx="326.4" cy="297.0306" fill="#ADD1B2" rx="6.6" ry="6.6" style="stroke:#181818;stroke-width:0.6;"/><path d="M328.0594,294.5556 Q328.1531,294.4244 328.2656,294.3588 Q328.3781,294.2931 328.5094,294.2931 Q328.7344,294.2931 328.875,294.4525 Q329.0156,294.6025 329.0156,294.9681 L329.0156,295.84 Q329.0156,296.2056 328.875,296.365 Q328.7344,296.5244 328.5094,296.5244 Q328.3031,296.5244 328.1813,296.4025 Q328.0594,296.29 327.9938,295.9806 Q327.9656,295.765 327.8531,295.6525 Q327.6563,295.4275 327.2906,295.2963 Q326.925,295.165 326.55,295.165 Q326.0906,295.165 325.7063,295.3619 Q325.3313,295.5588 325.0313,296.0088 Q324.7406,296.4588 324.7406,297.0775 L324.7406,297.7338 Q324.7406,298.4744 325.275,298.9713 Q325.8094,299.4588 326.7656,299.4588 Q327.3281,299.4588 327.7219,299.3088 Q327.9563,299.215 328.2094,298.9525 Q328.3688,298.7931 328.4531,298.7463 Q328.5469,298.6994 328.6688,298.6994 Q328.8656,298.6994 329.0156,298.8588 Q329.175,299.0088 329.175,299.215 Q329.175,299.4213 328.9688,299.665 Q328.6688,300.0119 328.1906,300.2088 Q327.5438,300.4806 326.7656,300.4806 Q325.8563,300.4806 325.1344,300.1056 Q324.5438,299.8056 324.1312,299.1681 Q323.7188,298.5213 323.7188,297.7525 L323.7188,297.0588 Q323.7188,296.2619 324.0844,295.5775 Q324.4594,294.8838 325.1156,294.5181 Q325.7719,294.1431 326.5125,294.1431 Q326.9531,294.1431 327.3375,294.2463 Q327.7313,294.34 328.0594,294.5556 Z " fill="#000000"/><text fill="#000000" font-family="sans-serif" font-size="7.2" font-style="italic" lengthAdjust="spacing" textLength="24" x="338.4" y="290.8127">&#171;Root&#187;</text><text fill="#000000" font-family="sans-serif" font-size="7.2" font-style="italic" lengthAdjust="spacing" textLength="26.4" x="337.2" y="298.8564">&#171;Entity&#187;</text><text fill="#000000" font-family="sans-serif" font-size="8.4" lengthAdjust="spacing" textLength="31.2" x="334.8" y="307.9865">Elevator</text><line style="stroke:#181818;stroke-width:0.3;" x1="318" x2="367.2" y1="312.7666" y2="312.7666"/><line style="stroke:#181818;stroke-width:0.3;" x1="318" x2="367.2" y1="317.5666" y2="317.5666"/></g><!--class ElevatorId--><g id="elem_ElevatorId"><rect codeLine="20" fill="#F1F1F1" height="41.0719" id="ElevatorId" rx="1.5" ry="1.5" style="stroke:#181818;stroke-width:0.3;" width="66" x="317.4" y="358.0947"/><ellipse cx="326.4" cy="373.8306" fill="#FFA500" rx="6.6" ry="6.6" style="stroke:#181818;stroke-width:0.6;"/><path d="M326.7656,375.5931 L327.8719,373.3338 Q327.4594,373.3338 327.3469,373.2588 Q327.0938,373.1088 327.0938,372.8181 Q327.0938,372.5931 327.2531,372.4525 Q327.4125,372.3119 327.7781,372.3119 L329.175,372.3119 Q329.55,372.3119 329.7,372.4525 Q329.8594,372.5931 329.8594,372.8181 Q329.8594,373.0431 329.7,373.1931 Q329.55,373.3338 329.175,373.3338 L329.0062,373.3338 L327.3,376.8306 L326.2313,376.8306 L324.525,373.3338 L324.3844,373.3338 Q324.0094,373.3338 323.85,373.1931 Q323.7,373.0431 323.7,372.8181 Q323.7,372.5931 323.85,372.4525 Q324.0094,372.3119 324.3844,372.3119 L325.7531,372.3119 Q326.1188,372.3119 326.2688,372.4525 Q326.4281,372.5931 326.4281,372.8181 Q326.4281,373.1088 326.1937,373.2588 Q326.0719,373.3338 325.6594,373.3338 L326.7656,375.5931 Z " fill="#000000"/><text fill="#000000" font-family="sans-serif" font-size="7.2" font-style="italic" lengthAdjust="spacing" textLength="49.2" x="333.6" y="367.6127">&#171;ValueObject&#187;</text><text fill="#000000" font-family="sans-serif" font-size="7.2" font-style="italic" lengthAdjust="spacing" textLength="31.2" x="342.6" y="375.6564">&#171;unique&#187;</text><text fill="#000000" font-family="sans-serif" font-size="8.4" lengthAdjust="spacing" textLength="37.8" x="339.3" y="384.7865">ElevatorId</text><line style="stroke:#181818;stroke-width:0.3;" x1="318" x2="382.8" y1="389.5666" y2="389.5666"/><line style="stroke:#181818;stroke-width:0.3;" x1="318" x2="382.8" y1="394.3666" y2="394.3666"/></g><!--class ElevatorCoordinates--><g id="elem_ElevatorCoordinates"><rect codeLine="21" fill="#F1F1F1" height="33.0281" id="ElevatorCoordinates" rx="1.5" ry="1.5" style="stroke:#181818;stroke-width:0.3;" width="96.6" x="389.1" y="285.1947"/><ellipse cx="398.1" cy="296.9088" fill="#A4C2E5" rx="6.6" ry="6.6" style="stroke:#181818;stroke-width:0.6;"/><path d="M398.4656,298.6713 L399.5719,296.4119 Q399.1594,296.4119 399.0469,296.3369 Q398.7938,296.1869 398.7938,295.8963 Q398.7938,295.6713 398.9531,295.5306 Q399.1125,295.39 399.4781,295.39 L400.875,295.39 Q401.25,295.39 401.4,295.5306 Q401.5594,295.6713 401.5594,295.8963 Q401.5594,296.1213 401.4,296.2713 Q401.25,296.4119 400.875,296.4119 L400.7063,296.4119 L399,299.9088 L397.9313,299.9088 L396.225,296.4119 L396.0844,296.4119 Q395.7094,296.4119 395.55,296.2713 Q395.4,296.1213 395.4,295.8963 Q395.4,295.6713 395.55,295.5306 Q395.7094,295.39 396.0844,295.39 L397.4531,295.39 Q397.8187,295.39 397.9688,295.5306 Q398.1281,295.6713 398.1281,295.8963 Q398.1281,296.1869 397.8938,296.3369 Q397.7719,296.4119 397.3594,296.4119 L398.4656,298.6713 Z " fill="#000000"/><text fill="#000000" font-family="sans-serif" font-size="7.2" font-style="italic" lengthAdjust="spacing" textLength="49.2" x="420.6" y="294.7127">&#171;ValueObject&#187;</text><text fill="#000000" font-family="sans-serif" font-size="8.4" lengthAdjust="spacing" textLength="77.4" x="406.5" y="303.8428">ElevatorCoordinates</text><line style="stroke:#181818;stroke-width:0.3;" x1="389.7" x2="485.1" y1="308.6228" y2="308.6228"/><line style="stroke:#181818;stroke-width:0.3;" x1="389.7" x2="485.1" y1="313.4228" y2="313.4228"/></g><!--link Building to Floor--><g id="link_Building_Floor"><path codeLine="25" d="M162.6,17.8347 C162.6,11.9487 162.6,7.0947 162.6,7.0947 C162.6,7.0947 342.6,7.0947 342.6,7.0947 C342.6,7.0947 342.6,14.8347 342.6,14.8347 " fill="none" id="Building-to-Floor" style="stroke:#181818;stroke-width:0.6;"/><polygon fill="#181818" points="342.6,17.8347,345,12.4347,342.6,14.8347,340.2,12.4347,342.6,17.8347" style="stroke:#181818;stroke-width:0.6;"/><text fill="#000000" font-family="sans-serif" font-size="7.8" lengthAdjust="spacing" textLength="4.2" x="157.9669" y="11.4141">1</text><text fill="#000000" font-family="sans-serif" font-size="7.8" lengthAdjust="spacing" textLength="3" x="339.2906" y="11.4141">*</text></g><!--link Building to BuildingDescription--><g id="link_Building_BuildingDescription"><path codeLine="26" d="M137.766,38.2947 C107.4,38.2947 60,38.2947 60,38.2947 C60,38.2947 60,95.4327 60,95.4327 " fill="none" id="Building-to-BuildingDescription" style="stroke:#181818;stroke-width:0.6;"/><polygon fill="#181818" points="60,98.4327,62.4,93.0327,60,95.4327,57.6,93.0327,60,98.4327" style="stroke:#181818;stroke-width:0.6;"/><text fill="#000000" font-family="sans-serif" font-size="7.8" lengthAdjust="spacing" textLength="3" x="130.2398" y="36.2376">*</text><text fill="#000000" font-family="sans-serif" font-size="7.8" lengthAdjust="spacing" textLength="13.2" x="45.1913" y="92.0436">0..1</text></g><!--link Building to BuildingName--><g id="link_Building_BuildingName"><path codeLine="27" d="M162.6,58.8747 C162.6,58.8747 162.6,91.4547 162.6,91.4547 " fill="none" id="Building-to-BuildingName" style="stroke:#181818;stroke-width:0.6;"/><polygon fill="#181818" points="162.6,94.4547,165,89.0547,162.6,91.4547,160.2,89.0547,162.6,94.4547" style="stroke:#181818;stroke-width:0.6;"/><text fill="#000000" font-family="sans-serif" font-size="7.8" lengthAdjust="spacing" textLength="4.2" x="157.9866" y="70.8186">1</text><text fill="#000000" font-family="sans-serif" font-size="7.8" lengthAdjust="spacing" textLength="4.2" x="157.9866" y="88.2296">1</text></g><!--link Floor to FloorMap--><g id="link_Floor_FloorMap"><path codeLine="29" d="M342.6,58.8747 C342.6,58.8747 342.6,95.5887 342.6,95.5887 " fill="none" id="Floor-to-FloorMap" style="stroke:#181818;stroke-width:0.6;"/><polygon fill="#181818" points="342.6,98.5887,345,93.1887,342.6,95.5887,340.2,93.1887,342.6,98.5887" style="stroke:#181818;stroke-width:0.6;"/><text fill="#000000" font-family="sans-serif" font-size="7.8" lengthAdjust="spacing" textLength="4.2" x="337.9866" y="70.8186">1</text><text fill="#000000" font-family="sans-serif" font-size="7.8" lengthAdjust="spacing" textLength="4.2" x="337.8881" y="92.2376">1</text></g><!--reverse link FloorNumber to Floor--><g id="link_FloorNumber_Floor"><path codeLine="30" d="M303.156,38.2947 C303.156,38.2947 320.838,38.2947 320.838,38.2947 " fill="none" id="FloorNumber-backto-Floor" style="stroke:#181818;stroke-width:0.6;"/><polygon fill="#181818" points="300.156,38.2947,305.556,40.6947,303.156,38.2947,305.556,35.8947,300.156,38.2947" style="stroke:#181818;stroke-width:0.6;"/><text fill="#000000" font-family="sans-serif" font-size="7.8" lengthAdjust="spacing" textLength="4.2" x="304.8269" y="36.4204">1</text><text fill="#000000" font-family="sans-serif" font-size="7.8" lengthAdjust="spacing" textLength="3" x="313.2583" y="36.1331">*</text></g><!--link Floor to FloorDescription--><g id="link_Floor_FloorDescription"><path codeLine="31" d="M364.296,38.2947 C364.296,38.2947 382.176,38.2947 382.176,38.2947 " fill="none" id="Floor-to-FloorDescription" style="stroke:#181818;stroke-width:0.6;"/><polygon fill="#181818" points="385.176,38.2947,379.776,35.8947,382.176,38.2947,379.776,40.6947,385.176,38.2947" style="stroke:#181818;stroke-width:0.6;"/><text fill="#000000" font-family="sans-serif" font-size="7.8" lengthAdjust="spacing" textLength="3" x="369.0802" y="36.0939">*</text><text fill="#000000" font-family="sans-serif" font-size="7.8" lengthAdjust="spacing" textLength="4.2" x="376.2812" y="36.5121">1</text></g><!--link FloorMap to Elevator--><g id="link_FloorMap_Elevator"><path codeLine="32" d="M342.6,131.6547 C342.6,131.6547 342.6,278.2587 342.6,278.2587 " fill="none" id="FloorMap-to-Elevator" style="stroke:#181818;stroke-width:0.6;"/><polygon fill="#181818" points="342.6,281.2587,345,275.8587,342.6,278.2587,340.2,275.8587,342.6,281.2587" style="stroke:#181818;stroke-width:0.6;"/><text fill="#000000" font-family="sans-serif" font-size="7.8" lengthAdjust="spacing" textLength="4.2" x="337.9144" y="143.5496">1</text><text fill="#000000" font-family="sans-serif" font-size="7.8" lengthAdjust="spacing" textLength="13.2" x="328.0388" y="274.843">0..1</text></g><!--link Elevator to ElevatorId--><g id="link_Elevator_ElevatorId"><path codeLine="35" d="M342.6,322.2747 C342.6,322.2747 342.6,354.8547 342.6,354.8547 " fill="none" id="Elevator-to-ElevatorId" style="stroke:#181818;stroke-width:0.6;"/><polygon fill="#181818" points="342.6,357.8547,345,352.4547,342.6,354.8547,340.2,352.4547,342.6,357.8547" style="stroke:#181818;stroke-width:0.6;"/><text fill="#000000" font-family="sans-serif" font-size="7.8" lengthAdjust="spacing" textLength="4.2" x="337.9866" y="334.2186">1</text><text fill="#000000" font-family="sans-serif" font-size="7.8" lengthAdjust="spacing" textLength="4.2" x="336.4509" y="351.6296">1</text></g><!--link Elevator to ElevatorCoordinates--><g id="link_Elevator_ElevatorCoordinates"><path codeLine="36" d="M368.004,301.6947 C368.004,301.6947 386.046,301.6947 386.046,301.6947 " fill="none" id="Elevator-to-ElevatorCoordinates" style="stroke:#181818;stroke-width:0.6;"/><polygon fill="#181818" points="389.046,301.6947,383.646,299.2947,386.046,301.6947,383.646,304.0947,389.046,301.6947" style="stroke:#181818;stroke-width:0.6;"/><text fill="#000000" font-family="sans-serif" font-size="7.8" lengthAdjust="spacing" textLength="4.2" x="372.5594" y="299.6637">1</text><text fill="#000000" font-family="sans-serif" font-size="7.8" lengthAdjust="spacing" textLength="4.2" x="380.0371" y="299.9692">1</text></g><!--SRC=[bL9TIyCm57tFhmZPYmuxjhggXL7OHmS-k84FlcVjPKRJfARfO8Z_tNGbRJg5qhSavvxSSywznISJELKqmvm9qESSi5JwNIA452IQYYC7FBf_UF8VjzyeuRGeyAfaF6NYYF5YWL-br3YAgcCiDDDdSxcgsq2HA9Ph9iM5SdEw6otdQpyERl4RvINi3n-crr_YZcPW6L8PBN1DgC1IiAyIAlPFH_Hc7eQhq8hUSYbLd-9BqQxC3g26z7N8WxrUM2yqnrqznejZ9Pm6mTAtLc8E9whxtTYwvtIu6SjT6tLc55H3qMF7X8-QpI0puaLaJ6fxplkOU0QOJYOpyjz-T7ymbKvPjGq8rNEiqBI6RO0MCHtA5gY7wM0jvBPjfb1_xBKYRH36NPExqxtDk0jtG2T4X7u1]--></g></svg>