<?xml version="1.0" encoding="us-ascii" standalone="no"?><svg xmlns="http://www.w3.org/2000/svg" xmlns:xlink="http://www.w3.org/1999/xlink" contentStyleType="text/css" height="480.2px" preserveAspectRatio="none" style="width:789px;height:480px;background:#FFFFFF;" version="1.1" viewBox="0 0 789 480" width="789.6px" zoomAndPan="magnify"><defs/><g><g id="cluster_##2"><rect fill="#36827F" height="159.6" rx="1.75" ry="1.75" style="stroke:#181818;stroke-width:0.6999999999999998;" width="444.5" x="4.9" y="9.6772"/></g><g id="cluster_##9"><rect fill="#D499B9" height="155.05" rx="1.75" ry="1.75" style="stroke:#181818;stroke-width:0.6999999999999998;" width="296.8" x="466.2" y="9.6772"/></g><g id="cluster_##15"><rect fill="#9055A2" height="159.6" rx="1.75" ry="1.75" style="stroke:#181818;stroke-width:0.6999999999999998;" width="219.1" x="566.3" y="316.9772"/></g><!--class Building--><g id="elem_Building"><rect codeLine="6" fill="#F1F1F1" height="47.9172" id="Building" rx="1.75" ry="1.75" style="stroke:#181818;stroke-width:0.3499999999999999;" width="57.4" x="267.4" y="20.8772"/><ellipse cx="277.9" cy="39.2357" fill="#ADD1B2" rx="7.7" ry="7.7" style="stroke:#181818;stroke-width:0.6999999999999998;"/><path d="M279.8359,36.3482 Q279.9453,36.1951 280.0766,36.1186 Q280.2078,36.042 280.3609,36.042 Q280.6234,36.042 280.7875,36.2279 Q280.9516,36.4029 280.9516,36.8295 L280.9516,37.8467 Q280.9516,38.2732 280.7875,38.4592 Q280.6234,38.6451 280.3609,38.6451 Q280.1203,38.6451 279.9781,38.5029 Q279.8359,38.3717 279.7594,38.0107 Q279.7266,37.7592 279.5953,37.6279 Q279.3656,37.3654 278.9391,37.2123 Q278.5125,37.0592 278.075,37.0592 Q277.5391,37.0592 277.0906,37.2889 Q276.6531,37.5186 276.3031,38.0436 Q275.9641,38.5686 275.9641,39.2904 L275.9641,40.0561 Q275.9641,40.9201 276.5875,41.4998 Q277.2109,42.0686 278.3266,42.0686 Q278.9828,42.0686 279.4422,41.8936 Q279.7156,41.7842 280.0109,41.4779 Q280.1969,41.292 280.2953,41.2373 Q280.4047,41.1826 280.5469,41.1826 Q280.7766,41.1826 280.9516,41.3686 Q281.1375,41.5436 281.1375,41.7842 Q281.1375,42.0248 280.8969,42.3092 Q280.5469,42.7139 279.9891,42.9436 Q279.2344,43.2607 278.3266,43.2607 Q277.2656,43.2607 276.4234,42.8232 Q275.7344,42.4732 275.2531,41.7295 Q274.7719,40.9748 274.7719,40.0779 L274.7719,39.2686 Q274.7719,38.3389 275.1984,37.5404 Q275.6359,36.7311 276.4016,36.3045 Q277.1672,35.867 278.0312,35.867 Q278.5453,35.867 278.9937,35.9873 Q279.4531,36.0967 279.8359,36.3482 Z " fill="#000000"/><text fill="#000000" font-family="sans-serif" font-size="8.4" font-style="italic" lengthAdjust="spacing" textLength="28" x="291.2" y="31.9815">&#171;Root&#187;</text><text fill="#000000" font-family="sans-serif" font-size="8.4" font-style="italic" lengthAdjust="spacing" textLength="30.8" x="289.8" y="41.3658">&#171;Entity&#187;</text><text fill="#000000" font-family="sans-serif" font-size="9.8" lengthAdjust="spacing" textLength="35" x="287.7" y="52.0176">Building</text><line style="stroke:#181818;stroke-width:0.3499999999999999;" x1="268.1" x2="324.1" y1="57.5943" y2="57.5943"/><line style="stroke:#181818;stroke-width:0.3499999999999999;" x1="268.1" x2="324.1" y1="63.1943" y2="63.1943"/></g><!--class BuildingDescription--><g id="elem_BuildingDescription"><rect codeLine="7" fill="#F1F1F1" height="38.5328" id="BuildingDescription" rx="1.75" ry="1.75" style="stroke:#181818;stroke-width:0.3499999999999999;" width="107.1" x="16.45" y="115.0272"/><ellipse cx="26.95" cy="128.6936" fill="#A4C2E5" rx="7.7" ry="7.7" style="stroke:#181818;stroke-width:0.6999999999999998;"/><path d="M27.3766,130.7498 L28.6672,128.1139 Q28.1859,128.1139 28.0547,128.0264 Q27.7594,127.8514 27.7594,127.5123 Q27.7594,127.2498 27.9453,127.0857 Q28.1312,126.9217 28.5578,126.9217 L30.1875,126.9217 Q30.625,126.9217 30.8,127.0857 Q30.9859,127.2498 30.9859,127.5123 Q30.9859,127.7748 30.8,127.9498 Q30.625,128.1139 30.1875,128.1139 L29.9906,128.1139 L28,132.1936 L26.7531,132.1936 L24.7625,128.1139 L24.5984,128.1139 Q24.1609,128.1139 23.975,127.9498 Q23.8,127.7748 23.8,127.5123 Q23.8,127.2498 23.975,127.0857 Q24.1609,126.9217 24.5984,126.9217 L26.1953,126.9217 Q26.6219,126.9217 26.7969,127.0857 Q26.9828,127.2498 26.9828,127.5123 Q26.9828,127.8514 26.7094,128.0264 Q26.5672,128.1139 26.0859,128.1139 L27.3766,130.7498 Z " fill="#000000"/><text fill="#000000" font-family="sans-serif" font-size="8.4" font-style="italic" lengthAdjust="spacing" textLength="57.4" x="50.4" y="126.1315">&#171;ValueObject&#187;</text><text fill="#000000" font-family="sans-serif" font-size="9.8" lengthAdjust="spacing" textLength="84.7" x="36.75" y="136.7832">BuildingDescription</text><line style="stroke:#181818;stroke-width:0.3499999999999999;" x1="17.15" x2="122.85" y1="142.36" y2="142.36"/><line style="stroke:#181818;stroke-width:0.3499999999999999;" x1="17.15" x2="122.85" y1="147.96" y2="147.96"/></g><!--class BuildingName--><g id="elem_BuildingName"><rect codeLine="8" fill="#F1F1F1" height="38.5328" id="BuildingName" rx="1.75" ry="1.75" style="stroke:#181818;stroke-width:0.3499999999999999;" width="82.6" x="148.4" y="115.0272"/><ellipse cx="158.9" cy="128.6936" fill="#A4C2E5" rx="7.7" ry="7.7" style="stroke:#181818;stroke-width:0.6999999999999998;"/><path d="M159.3266,130.7498 L160.6172,128.1139 Q160.1359,128.1139 160.0047,128.0264 Q159.7094,127.8514 159.7094,127.5123 Q159.7094,127.2498 159.8953,127.0857 Q160.0812,126.9217 160.5078,126.9217 L162.1375,126.9217 Q162.575,126.9217 162.75,127.0857 Q162.9359,127.2498 162.9359,127.5123 Q162.9359,127.7748 162.75,127.9498 Q162.575,128.1139 162.1375,128.1139 L161.9406,128.1139 L159.95,132.1936 L158.7031,132.1936 L156.7125,128.1139 L156.5484,128.1139 Q156.1109,128.1139 155.925,127.9498 Q155.75,127.7748 155.75,127.5123 Q155.75,127.2498 155.925,127.0857 Q156.1109,126.9217 156.5484,126.9217 L158.1453,126.9217 Q158.5719,126.9217 158.7469,127.0857 Q158.9328,127.2498 158.9328,127.5123 Q158.9328,127.8514 158.6594,128.0264 Q158.5172,128.1139 158.0359,128.1139 L159.3266,130.7498 Z " fill="#000000"/><text fill="#000000" font-family="sans-serif" font-size="8.4" font-style="italic" lengthAdjust="spacing" textLength="57.4" x="170.1" y="126.1315">&#171;ValueObject&#187;</text><text fill="#000000" font-family="sans-serif" font-size="9.8" lengthAdjust="spacing" textLength="60.2" x="168.7" y="136.7832">BuildingName</text><line style="stroke:#181818;stroke-width:0.3499999999999999;" x1="149.1" x2="230.3" y1="142.36" y2="142.36"/><line style="stroke:#181818;stroke-width:0.3499999999999999;" x1="149.1" x2="230.3" y1="147.96" y2="147.96"/></g><!--class BuildingCode--><g id="elem_BuildingCode"><rect codeLine="9" fill="#F1F1F1" height="47.9172" id="BuildingCode" rx="1.75" ry="1.75" style="stroke:#181818;stroke-width:0.3499999999999999;" width="81.2" x="255.5" y="110.4772"/><ellipse cx="266" cy="128.8357" fill="#FFA500" rx="7.7" ry="7.7" style="stroke:#181818;stroke-width:0.6999999999999998;"/><path d="M266.4266,130.892 L267.7172,128.2561 Q267.2359,128.2561 267.1047,128.1686 Q266.8094,127.9936 266.8094,127.6545 Q266.8094,127.392 266.9953,127.2279 Q267.1812,127.0639 267.6078,127.0639 L269.2375,127.0639 Q269.675,127.0639 269.85,127.2279 Q270.0359,127.392 270.0359,127.6545 Q270.0359,127.917 269.85,128.092 Q269.675,128.2561 269.2375,128.2561 L269.0406,128.2561 L267.05,132.3357 L265.8031,132.3357 L263.8125,128.2561 L263.6484,128.2561 Q263.2109,128.2561 263.025,128.092 Q262.85,127.917 262.85,127.6545 Q262.85,127.392 263.025,127.2279 Q263.2109,127.0639 263.6484,127.0639 L265.2453,127.0639 Q265.6719,127.0639 265.8469,127.2279 Q266.0328,127.392 266.0328,127.6545 Q266.0328,127.9936 265.7594,128.1686 Q265.6172,128.2561 265.1359,128.2561 L266.4266,130.892 Z " fill="#000000"/><text fill="#000000" font-family="sans-serif" font-size="8.4" font-style="italic" lengthAdjust="spacing" textLength="57.4" x="276.5" y="121.5815">&#171;ValueObject&#187;</text><text fill="#000000" font-family="sans-serif" font-size="8.4" font-style="italic" lengthAdjust="spacing" textLength="36.4" x="287" y="130.9658">&#171;unique&#187;</text><text fill="#000000" font-family="sans-serif" font-size="9.8" lengthAdjust="spacing" textLength="58.8" x="275.8" y="141.6176">BuildingCode</text><line style="stroke:#181818;stroke-width:0.3499999999999999;" x1="256.2" x2="336" y1="147.1943" y2="147.1943"/><line style="stroke:#181818;stroke-width:0.3499999999999999;" x1="256.2" x2="336" y1="152.7943" y2="152.7943"/></g><!--class BuildingSize--><g id="elem_BuildingSize"><rect codeLine="10" fill="#F1F1F1" height="38.5328" id="BuildingSize" rx="1.75" ry="1.75" style="stroke:#181818;stroke-width:0.3499999999999999;" width="77" x="361.2" y="115.0272"/><ellipse cx="371.7" cy="128.6936" fill="#A4C2E5" rx="7.7" ry="7.7" style="stroke:#181818;stroke-width:0.6999999999999998;"/><path d="M372.1266,130.7498 L373.4172,128.1139 Q372.9359,128.1139 372.8047,128.0264 Q372.5094,127.8514 372.5094,127.5123 Q372.5094,127.2498 372.6953,127.0857 Q372.8812,126.9217 373.3078,126.9217 L374.9375,126.9217 Q375.375,126.9217 375.55,127.0857 Q375.7359,127.2498 375.7359,127.5123 Q375.7359,127.7748 375.55,127.9498 Q375.375,128.1139 374.9375,128.1139 L374.7406,128.1139 L372.75,132.1936 L371.5031,132.1936 L369.5125,128.1139 L369.3484,128.1139 Q368.9109,128.1139 368.725,127.9498 Q368.55,127.7748 368.55,127.5123 Q368.55,127.2498 368.725,127.0857 Q368.9109,126.9217 369.3484,126.9217 L370.9453,126.9217 Q371.3719,126.9217 371.5469,127.0857 Q371.7328,127.2498 371.7328,127.5123 Q371.7328,127.8514 371.4594,128.0264 Q371.3172,128.1139 370.8359,128.1139 L372.1266,130.7498 Z " fill="#000000"/><text fill="#000000" font-family="sans-serif" font-size="8.4" font-style="italic" lengthAdjust="spacing" textLength="57.4" x="380.1" y="126.1315">&#171;ValueObject&#187;</text><text fill="#000000" font-family="sans-serif" font-size="9.8" lengthAdjust="spacing" textLength="53.2" x="382.2" y="136.7832">BuildingSize</text><line style="stroke:#181818;stroke-width:0.3499999999999999;" x1="361.9" x2="437.5" y1="142.36" y2="142.36"/><line style="stroke:#181818;stroke-width:0.3499999999999999;" x1="361.9" x2="437.5" y1="147.96" y2="147.96"/></g><!--class Floor--><g id="elem_Floor"><rect codeLine="14" fill="#F1F1F1" height="47.9172" id="Floor" rx="1.75" ry="1.75" style="stroke:#181818;stroke-width:0.3499999999999999;" width="50.4" x="581.7" y="20.8772"/><ellipse cx="592.2" cy="39.2357" fill="#ADD1B2" rx="7.7" ry="7.7" style="stroke:#181818;stroke-width:0.6999999999999998;"/><path d="M594.1359,36.3482 Q594.2453,36.1951 594.3766,36.1186 Q594.5078,36.042 594.6609,36.042 Q594.9234,36.042 595.0875,36.2279 Q595.2516,36.4029 595.2516,36.8295 L595.2516,37.8467 Q595.2516,38.2732 595.0875,38.4592 Q594.9234,38.6451 594.6609,38.6451 Q594.4203,38.6451 594.2781,38.5029 Q594.1359,38.3717 594.0594,38.0107 Q594.0266,37.7592 593.8953,37.6279 Q593.6656,37.3654 593.2391,37.2123 Q592.8125,37.0592 592.375,37.0592 Q591.8391,37.0592 591.3906,37.2889 Q590.9531,37.5186 590.6031,38.0436 Q590.2641,38.5686 590.2641,39.2904 L590.2641,40.0561 Q590.2641,40.9201 590.8875,41.4998 Q591.5109,42.0686 592.6266,42.0686 Q593.2828,42.0686 593.7422,41.8936 Q594.0156,41.7842 594.3109,41.4779 Q594.4969,41.292 594.5953,41.2373 Q594.7047,41.1826 594.8469,41.1826 Q595.0766,41.1826 595.2516,41.3686 Q595.4375,41.5436 595.4375,41.7842 Q595.4375,42.0248 595.1969,42.3092 Q594.8469,42.7139 594.2891,42.9436 Q593.5344,43.2607 592.6266,43.2607 Q591.5656,43.2607 590.7234,42.8232 Q590.0344,42.4732 589.5531,41.7295 Q589.0719,40.9748 589.0719,40.0779 L589.0719,39.2686 Q589.0719,38.3389 589.4984,37.5404 Q589.9359,36.7311 590.7016,36.3045 Q591.4672,35.867 592.3312,35.867 Q592.8453,35.867 593.2937,35.9873 Q593.7531,36.0967 594.1359,36.3482 Z " fill="#000000"/><text fill="#000000" font-family="sans-serif" font-size="8.4" font-style="italic" lengthAdjust="spacing" textLength="28" x="602" y="31.9815">&#171;Root&#187;</text><text fill="#000000" font-family="sans-serif" font-size="8.4" font-style="italic" lengthAdjust="spacing" textLength="30.8" x="600.6" y="41.3658">&#171;Entity&#187;</text><text fill="#000000" font-family="sans-serif" font-size="9.8" lengthAdjust="spacing" textLength="23.1" x="604.45" y="52.0176">Floor</text><line style="stroke:#181818;stroke-width:0.3499999999999999;" x1="582.4" x2="631.4" y1="57.5943" y2="57.5943"/><line style="stroke:#181818;stroke-width:0.3499999999999999;" x1="582.4" x2="631.4" y1="63.1943" y2="63.1943"/></g><!--class FloorNumber--><g id="elem_FloorNumber"><rect codeLine="15" fill="#F1F1F1" height="47.9172" id="FloorNumber" rx="1.75" ry="1.75" style="stroke:#181818;stroke-width:0.3499999999999999;" width="79.8" x="477.4" y="20.8772"/><ellipse cx="487.9" cy="39.2357" fill="#FFA500" rx="7.7" ry="7.7" style="stroke:#181818;stroke-width:0.6999999999999998;"/><path d="M488.3266,41.292 L489.6172,38.6561 Q489.1359,38.6561 489.0047,38.5686 Q488.7094,38.3936 488.7094,38.0545 Q488.7094,37.792 488.8953,37.6279 Q489.0812,37.4639 489.5078,37.4639 L491.1375,37.4639 Q491.575,37.4639 491.75,37.6279 Q491.9359,37.792 491.9359,38.0545 Q491.9359,38.317 491.75,38.492 Q491.575,38.6561 491.1375,38.6561 L490.9406,38.6561 L488.95,42.7357 L487.7031,42.7357 L485.7125,38.6561 L485.5484,38.6561 Q485.1109,38.6561 484.925,38.492 Q484.75,38.317 484.75,38.0545 Q484.75,37.792 484.925,37.6279 Q485.1109,37.4639 485.5484,37.4639 L487.1453,37.4639 Q487.5719,37.4639 487.7469,37.6279 Q487.9328,37.792 487.9328,38.0545 Q487.9328,38.3936 487.6594,38.5686 Q487.5172,38.6561 487.0359,38.6561 L488.3266,41.292 Z " fill="#000000"/><text fill="#000000" font-family="sans-serif" font-size="8.4" font-style="italic" lengthAdjust="spacing" textLength="57.4" x="497.7" y="31.9815">&#171;ValueObject&#187;</text><text fill="#000000" font-family="sans-serif" font-size="8.4" font-style="italic" lengthAdjust="spacing" textLength="36.4" x="508.2" y="41.3658">&#171;unique&#187;</text><text fill="#000000" font-family="sans-serif" font-size="9.8" lengthAdjust="spacing" textLength="57.4" x="497.7" y="52.0176">FloorNumber</text><line style="stroke:#181818;stroke-width:0.3499999999999999;" x1="478.1" x2="556.5" y1="57.5943" y2="57.5943"/><line style="stroke:#181818;stroke-width:0.3499999999999999;" x1="478.1" x2="556.5" y1="63.1943" y2="63.1943"/></g><!--class FloorDescription--><g id="elem_FloorDescription"><rect codeLine="16" fill="#F1F1F1" height="38.5328" id="FloorDescription" rx="1.75" ry="1.75" style="stroke:#181818;stroke-width:0.3499999999999999;" width="95.2" x="656.6" y="25.4272"/><ellipse cx="667.1" cy="39.0936" fill="#A4C2E5" rx="7.7" ry="7.7" style="stroke:#181818;stroke-width:0.6999999999999998;"/><path d="M667.5266,41.1498 L668.8172,38.5139 Q668.3359,38.5139 668.2047,38.4264 Q667.9094,38.2514 667.9094,37.9123 Q667.9094,37.6498 668.0953,37.4857 Q668.2812,37.3217 668.7078,37.3217 L670.3375,37.3217 Q670.775,37.3217 670.95,37.4857 Q671.1359,37.6498 671.1359,37.9123 Q671.1359,38.1748 670.95,38.3498 Q670.775,38.5139 670.3375,38.5139 L670.1406,38.5139 L668.15,42.5936 L666.9031,42.5936 L664.9125,38.5139 L664.7484,38.5139 Q664.3109,38.5139 664.125,38.3498 Q663.95,38.1748 663.95,37.9123 Q663.95,37.6498 664.125,37.4857 Q664.3109,37.3217 664.7484,37.3217 L666.3453,37.3217 Q666.7719,37.3217 666.9469,37.4857 Q667.1328,37.6498 667.1328,37.9123 Q667.1328,38.2514 666.8594,38.4264 Q666.7172,38.5139 666.2359,38.5139 L667.5266,41.1498 Z " fill="#000000"/><text fill="#000000" font-family="sans-serif" font-size="8.4" font-style="italic" lengthAdjust="spacing" textLength="57.4" x="684.6" y="36.5315">&#171;ValueObject&#187;</text><text fill="#000000" font-family="sans-serif" font-size="9.8" lengthAdjust="spacing" textLength="72.8" x="676.9" y="47.1832">FloorDescription</text><line style="stroke:#181818;stroke-width:0.3499999999999999;" x1="657.3" x2="751.1" y1="52.76" y2="52.76"/><line style="stroke:#181818;stroke-width:0.3499999999999999;" x1="657.3" x2="751.1" y1="58.36" y2="58.36"/></g><!--class FloorMap--><g id="elem_FloorMap"><rect codeLine="17" fill="#F1F1F1" height="38.5328" id="FloorMap" rx="1.75" ry="1.75" style="stroke:#181818;stroke-width:0.3499999999999999;" width="64.4" x="574.7" y="115.0272"/><ellipse cx="585.2" cy="128.6936" fill="#ADD1B2" rx="7.7" ry="7.7" style="stroke:#181818;stroke-width:0.6999999999999998;"/><path d="M587.1359,125.8061 Q587.2453,125.6529 587.3766,125.5764 Q587.5078,125.4998 587.6609,125.4998 Q587.9234,125.4998 588.0875,125.6857 Q588.2516,125.8607 588.2516,126.2873 L588.2516,127.3045 Q588.2516,127.7311 588.0875,127.917 Q587.9234,128.1029 587.6609,128.1029 Q587.4203,128.1029 587.2781,127.9607 Q587.1359,127.8295 587.0594,127.4686 Q587.0266,127.217 586.8953,127.0857 Q586.6656,126.8232 586.2391,126.6701 Q585.8125,126.517 585.375,126.517 Q584.8391,126.517 584.3906,126.7467 Q583.9531,126.9764 583.6031,127.5014 Q583.2641,128.0264 583.2641,128.7482 L583.2641,129.5139 Q583.2641,130.3779 583.8875,130.9576 Q584.5109,131.5264 585.6266,131.5264 Q586.2828,131.5264 586.7422,131.3514 Q587.0156,131.242 587.3109,130.9357 Q587.4969,130.7498 587.5953,130.6951 Q587.7047,130.6404 587.8469,130.6404 Q588.0766,130.6404 588.2516,130.8264 Q588.4375,131.0014 588.4375,131.242 Q588.4375,131.4826 588.1969,131.767 Q587.8469,132.1717 587.2891,132.4014 Q586.5344,132.7186 585.6266,132.7186 Q584.5656,132.7186 583.7234,132.2811 Q583.0344,131.9311 582.5531,131.1873 Q582.0719,130.4326 582.0719,129.5357 L582.0719,128.7264 Q582.0719,127.7967 582.4984,126.9982 Q582.9359,126.1889 583.7016,125.7623 Q584.4672,125.3248 585.3312,125.3248 Q585.8453,125.3248 586.2937,125.4451 Q586.7531,125.5545 587.1359,125.8061 Z " fill="#000000"/><text fill="#000000" font-family="sans-serif" font-size="8.4" font-style="italic" lengthAdjust="spacing" textLength="30.8" x="600.6" y="126.1315">&#171;Entity&#187;</text><text fill="#000000" font-family="sans-serif" font-size="9.8" lengthAdjust="spacing" textLength="42" x="595" y="136.7832">FloorMap</text><line style="stroke:#181818;stroke-width:0.3499999999999999;" x1="575.4" x2="638.4" y1="142.36" y2="142.36"/><line style="stroke:#181818;stroke-width:0.3499999999999999;" x1="575.4" x2="638.4" y1="147.96" y2="147.96"/></g><!--class Elevator--><g id="elem_Elevator"><rect codeLine="21" fill="#F1F1F1" height="47.9172" id="Elevator" rx="1.75" ry="1.75" style="stroke:#181818;stroke-width:0.3499999999999999;" width="58.8" x="577.5" y="328.1772"/><ellipse cx="588" cy="346.5357" fill="#ADD1B2" rx="7.7" ry="7.7" style="stroke:#181818;stroke-width:0.6999999999999998;"/><path d="M589.9359,343.6482 Q590.0453,343.4951 590.1766,343.4186 Q590.3078,343.342 590.4609,343.342 Q590.7234,343.342 590.8875,343.5279 Q591.0516,343.7029 591.0516,344.1295 L591.0516,345.1467 Q591.0516,345.5732 590.8875,345.7592 Q590.7234,345.9451 590.4609,345.9451 Q590.2203,345.9451 590.0781,345.8029 Q589.9359,345.6717 589.8594,345.3107 Q589.8266,345.0592 589.6953,344.9279 Q589.4656,344.6654 589.0391,344.5123 Q588.6125,344.3592 588.175,344.3592 Q587.6391,344.3592 587.1906,344.5889 Q586.7531,344.8186 586.4031,345.3436 Q586.0641,345.8686 586.0641,346.5904 L586.0641,347.3561 Q586.0641,348.2201 586.6875,348.7998 Q587.3109,349.3686 588.4266,349.3686 Q589.0828,349.3686 589.5422,349.1936 Q589.8156,349.0842 590.1109,348.7779 Q590.2969,348.592 590.3953,348.5373 Q590.5047,348.4826 590.6469,348.4826 Q590.8766,348.4826 591.0516,348.6686 Q591.2375,348.8436 591.2375,349.0842 Q591.2375,349.3248 590.9969,349.6092 Q590.6469,350.0139 590.0891,350.2436 Q589.3344,350.5607 588.4266,350.5607 Q587.3656,350.5607 586.5234,350.1232 Q585.8344,349.7732 585.3531,349.0295 Q584.8719,348.2748 584.8719,347.3779 L584.8719,346.5686 Q584.8719,345.6389 585.2984,344.8404 Q585.7359,344.0311 586.5016,343.6045 Q587.2672,343.167 588.1312,343.167 Q588.6453,343.167 589.0937,343.2873 Q589.5531,343.3967 589.9359,343.6482 Z " fill="#000000"/><text fill="#000000" font-family="sans-serif" font-size="8.4" font-style="italic" lengthAdjust="spacing" textLength="28" x="602" y="339.2815">&#171;Root&#187;</text><text fill="#000000" font-family="sans-serif" font-size="8.4" font-style="italic" lengthAdjust="spacing" textLength="30.8" x="600.6" y="348.6658">&#171;Entity&#187;</text><text fill="#000000" font-family="sans-serif" font-size="9.8" lengthAdjust="spacing" textLength="36.4" x="597.8" y="359.3176">Elevator</text><line style="stroke:#181818;stroke-width:0.3499999999999999;" x1="578.2" x2="635.6" y1="364.8943" y2="364.8943"/><line style="stroke:#181818;stroke-width:0.3499999999999999;" x1="578.2" x2="635.6" y1="370.4943" y2="370.4943"/></g><!--class ElevatorId--><g id="elem_ElevatorId"><rect codeLine="22" fill="#F1F1F1" height="47.9172" id="ElevatorId" rx="1.75" ry="1.75" style="stroke:#181818;stroke-width:0.3499999999999999;" width="77" x="577.5" y="417.7772"/><ellipse cx="588" cy="436.1357" fill="#FFA500" rx="7.7" ry="7.7" style="stroke:#181818;stroke-width:0.6999999999999998;"/><path d="M588.4266,438.192 L589.7172,435.5561 Q589.2359,435.5561 589.1047,435.4686 Q588.8094,435.2936 588.8094,434.9545 Q588.8094,434.692 588.9953,434.5279 Q589.1812,434.3639 589.6078,434.3639 L591.2375,434.3639 Q591.675,434.3639 591.85,434.5279 Q592.0359,434.692 592.0359,434.9545 Q592.0359,435.217 591.85,435.392 Q591.675,435.5561 591.2375,435.5561 L591.0406,435.5561 L589.05,439.6357 L587.8031,439.6357 L585.8125,435.5561 L585.6484,435.5561 Q585.2109,435.5561 585.025,435.392 Q584.85,435.217 584.85,434.9545 Q584.85,434.692 585.025,434.5279 Q585.2109,434.3639 585.6484,434.3639 L587.2453,434.3639 Q587.6719,434.3639 587.8469,434.5279 Q588.0328,434.692 588.0328,434.9545 Q588.0328,435.2936 587.7594,435.4686 Q587.6172,435.5561 587.1359,435.5561 L588.4266,438.192 Z " fill="#000000"/><text fill="#000000" font-family="sans-serif" font-size="8.4" font-style="italic" lengthAdjust="spacing" textLength="57.4" x="596.4" y="428.8815">&#171;ValueObject&#187;</text><text fill="#000000" font-family="sans-serif" font-size="8.4" font-style="italic" lengthAdjust="spacing" textLength="36.4" x="606.9" y="438.2658">&#171;unique&#187;</text><text fill="#000000" font-family="sans-serif" font-size="9.8" lengthAdjust="spacing" textLength="44.1" x="603.05" y="448.9176">ElevatorId</text><line style="stroke:#181818;stroke-width:0.3499999999999999;" x1="578.2" x2="653.8" y1="454.4943" y2="454.4943"/><line style="stroke:#181818;stroke-width:0.3499999999999999;" x1="578.2" x2="653.8" y1="460.0943" y2="460.0943"/></g><!--class ElevatorCoordinates--><g id="elem_ElevatorCoordinates"><rect codeLine="23" fill="#F1F1F1" height="38.5328" id="ElevatorCoordinates" rx="1.75" ry="1.75" style="stroke:#181818;stroke-width:0.3499999999999999;" width="112.7" x="661.15" y="332.7272"/><ellipse cx="671.65" cy="346.3936" fill="#A4C2E5" rx="7.7" ry="7.7" style="stroke:#181818;stroke-width:0.6999999999999998;"/><path d="M672.0766,348.4498 L673.3672,345.8139 Q672.8859,345.8139 672.7547,345.7264 Q672.4594,345.5514 672.4594,345.2123 Q672.4594,344.9498 672.6453,344.7857 Q672.8312,344.6217 673.2578,344.6217 L674.8875,344.6217 Q675.325,344.6217 675.5,344.7857 Q675.6859,344.9498 675.6859,345.2123 Q675.6859,345.4748 675.5,345.6498 Q675.325,345.8139 674.8875,345.8139 L674.6906,345.8139 L672.7,349.8936 L671.4531,349.8936 L669.4625,345.8139 L669.2984,345.8139 Q668.8609,345.8139 668.675,345.6498 Q668.5,345.4748 668.5,345.2123 Q668.5,344.9498 668.675,344.7857 Q668.8609,344.6217 669.2984,344.6217 L670.8953,344.6217 Q671.3219,344.6217 671.4969,344.7857 Q671.6828,344.9498 671.6828,345.2123 Q671.6828,345.5514 671.4094,345.7264 Q671.2672,345.8139 670.7859,345.8139 L672.0766,348.4498 Z " fill="#000000"/><text fill="#000000" font-family="sans-serif" font-size="8.4" font-style="italic" lengthAdjust="spacing" textLength="57.4" x="697.9" y="343.8315">&#171;ValueObject&#187;</text><text fill="#000000" font-family="sans-serif" font-size="9.8" lengthAdjust="spacing" textLength="90.3" x="681.45" y="354.4832">ElevatorCoordinates</text><line style="stroke:#181818;stroke-width:0.3499999999999999;" x1="661.85" x2="773.15" y1="360.06" y2="360.06"/><line style="stroke:#181818;stroke-width:0.3499999999999999;" x1="661.85" x2="773.15" y1="365.66" y2="365.66"/></g><!--link Building to Floor--><g id="link_Building_Floor"><path codeLine="27" d="M296.1,20.8072 C296.1,13.9402 296.1,8.2772 296.1,8.2772 C296.1,8.2772 606.9,8.2772 606.9,8.2772 C606.9,8.2772 606.9,17.3072 606.9,17.3072 " fill="none" id="Building-to-Floor" style="stroke:#181818;stroke-width:0.6999999999999998;"/><polygon fill="#181818" points="606.9,20.8072,609.7,14.5072,606.9,17.3072,604.1,14.5072,606.9,20.8072" style="stroke:#181818;stroke-width:0.6999999999999998;"/><text fill="#000000" font-family="sans-serif" font-size="9.1" lengthAdjust="spacing" textLength="4.9" x="290.6947" y="13.3164">1</text><text fill="#000000" font-family="sans-serif" font-size="9.1" lengthAdjust="spacing" textLength="3.5" x="603.0391" y="13.3164">*</text></g><!--link Building to BuildingDescription--><g id="link_Building_BuildingDescription"><path codeLine="28" d="M267.232,36.9772 C206.283,36.9772 70,36.9772 70,36.9772 C70,36.9772 70,111.3242 70,111.3242 " fill="none" id="Building-to-BuildingDescription" style="stroke:#181818;stroke-width:0.6999999999999998;"/><polygon fill="#181818" points="70,114.8242,72.8,108.5242,70,111.3242,67.2,108.5242,70,114.8242" style="stroke:#181818;stroke-width:0.6999999999999998;"/><text fill="#000000" font-family="sans-serif" font-size="9.1" lengthAdjust="spacing" textLength="3.5" x="258.2782" y="33.1752">*</text><text fill="#000000" font-family="sans-serif" font-size="9.1" lengthAdjust="spacing" textLength="15.4" x="52.7231" y="107.3668">0..1</text></g><!--link Building to BuildingName--><g id="link_Building_BuildingName"><path codeLine="29" d="M267.309,53.0772 C235.795,53.0772 189.7,53.0772 189.7,53.0772 C189.7,53.0772 189.7,111.3312 189.7,111.3312 " fill="none" id="Building-to-BuildingName" style="stroke:#181818;stroke-width:0.6999999999999998;"/><polygon fill="#181818" points="189.7,114.8312,192.5,108.5312,189.7,111.3312,186.9,108.5312,189.7,114.8312" style="stroke:#181818;stroke-width:0.6999999999999998;"/><text fill="#000000" font-family="sans-serif" font-size="9.1" lengthAdjust="spacing" textLength="4.9" x="256.8442" y="52.143">1</text><text fill="#000000" font-family="sans-serif" font-size="9.1" lengthAdjust="spacing" textLength="4.9" x="184.2028" y="107.3755">1</text></g><!--link Building to BuildingSize--><g id="link_Building_BuildingSize"><path codeLine="30" d="M324.961,44.6772 C355.614,44.6772 399.7,44.6772 399.7,44.6772 C399.7,44.6772 399.7,111.3382 399.7,111.3382 " fill="none" id="Building-to-BuildingSize" style="stroke:#181818;stroke-width:0.6999999999999998;"/><polygon fill="#181818" points="399.7,114.8382,402.5,108.5382,399.7,111.3382,396.9,108.5382,399.7,114.8382" style="stroke:#181818;stroke-width:0.6999999999999998;"/><text fill="#000000" font-family="sans-serif" font-size="9.1" lengthAdjust="spacing" textLength="3.5" x="330.4136" y="42.2467">*</text><text fill="#000000" font-family="sans-serif" font-size="9.1" lengthAdjust="spacing" textLength="4.9" x="394.2028" y="107.3842">1</text></g><!--link Building to BuildingCode--><g id="link_Building_BuildingCode"><path codeLine="31" d="M296.1,68.6872 C296.1,68.6872 296.1,106.6972 296.1,106.6972 " fill="none" id="Building-to-BuildingCode" style="stroke:#181818;stroke-width:0.6999999999999998;"/><polygon fill="#181818" points="296.1,110.1972,298.9,103.8972,296.1,106.6972,293.3,103.8972,296.1,110.1972" style="stroke:#181818;stroke-width:0.6999999999999998;"/><text fill="#000000" font-family="sans-serif" font-size="9.1" lengthAdjust="spacing" textLength="4.9" x="290.7177" y="82.6216">1</text><text fill="#000000" font-family="sans-serif" font-size="9.1" lengthAdjust="spacing" textLength="4.9" x="290.7177" y="102.9346">1</text></g><!--link Floor to FloorMap--><g id="link_Floor_FloorMap"><path codeLine="33" d="M606.9,68.6872 C606.9,68.6872 606.9,111.5202 606.9,111.5202 " fill="none" id="Floor-to-FloorMap" style="stroke:#181818;stroke-width:0.6999999999999998;"/><polygon fill="#181818" points="606.9,115.0202,609.7,108.7202,606.9,111.5202,604.1,108.7202,606.9,115.0202" style="stroke:#181818;stroke-width:0.6999999999999998;"/><text fill="#000000" font-family="sans-serif" font-size="9.1" lengthAdjust="spacing" textLength="4.9" x="601.5177" y="82.6216">1</text><text fill="#000000" font-family="sans-serif" font-size="9.1" lengthAdjust="spacing" textLength="4.9" x="601.4028" y="107.6105">1</text></g><!--reverse link FloorNumber to Floor--><g id="link_FloorNumber_Floor"><path codeLine="34" d="M560.882,44.6772 C560.882,44.6772 581.511,44.6772 581.511,44.6772 " fill="none" id="FloorNumber-backto-Floor" style="stroke:#181818;stroke-width:0.6999999999999998;"/><polygon fill="#181818" points="557.382,44.6772,563.682,47.4772,560.882,44.6772,563.682,41.8772,557.382,44.6772" style="stroke:#181818;stroke-width:0.6999999999999998;"/><text fill="#000000" font-family="sans-serif" font-size="9.1" lengthAdjust="spacing" textLength="4.9" x="562.8314" y="42.4905">1</text><text fill="#000000" font-family="sans-serif" font-size="9.1" lengthAdjust="spacing" textLength="3.5" x="572.668" y="42.1553">*</text></g><!--link Floor to FloorDescription--><g id="link_Floor_FloorDescription"><path codeLine="35" d="M632.212,44.6772 C632.212,44.6772 653.072,44.6772 653.072,44.6772 " fill="none" id="Floor-to-FloorDescription" style="stroke:#181818;stroke-width:0.6999999999999998;"/><polygon fill="#181818" points="656.572,44.6772,650.272,41.8772,653.072,44.6772,650.272,47.4772,656.572,44.6772" style="stroke:#181818;stroke-width:0.6999999999999998;"/><text fill="#000000" font-family="sans-serif" font-size="9.1" lengthAdjust="spacing" textLength="3.5" x="637.7935" y="42.1096">*</text><text fill="#000000" font-family="sans-serif" font-size="9.1" lengthAdjust="spacing" textLength="4.9" x="646.1947" y="42.5974">1</text></g><!--link FloorMap to Elevator--><g id="link_FloorMap_Elevator"><path codeLine="36" d="M606.9,153.5972 C606.9,153.5972 606.9,324.6352 606.9,324.6352 " fill="none" id="FloorMap-to-Elevator" style="stroke:#181818;stroke-width:0.6999999999999998;"/><polygon fill="#181818" points="606.9,328.1352,609.7,321.8352,606.9,324.6352,604.1,321.8352,606.9,328.1352" style="stroke:#181818;stroke-width:0.6999999999999998;"/><text fill="#000000" font-family="sans-serif" font-size="9.1" lengthAdjust="spacing" textLength="4.9" x="601.4334" y="167.4746">1</text><text fill="#000000" font-family="sans-serif" font-size="9.1" lengthAdjust="spacing" textLength="15.4" x="589.9119" y="320.6502">0..1</text></g><!--link Elevator to ElevatorId--><g id="link_Elevator_ElevatorId"><path codeLine="39" d="M606.9,375.9872 C606.9,375.9872 606.9,413.9972 606.9,413.9972 " fill="none" id="Elevator-to-ElevatorId" style="stroke:#181818;stroke-width:0.6999999999999998;"/><polygon fill="#181818" points="606.9,417.4972,609.7,411.1972,606.9,413.9972,604.1,411.1972,606.9,417.4972" style="stroke:#181818;stroke-width:0.6999999999999998;"/><text fill="#000000" font-family="sans-serif" font-size="9.1" lengthAdjust="spacing" textLength="4.9" x="601.5177" y="389.9216">1</text><text fill="#000000" font-family="sans-serif" font-size="9.1" lengthAdjust="spacing" textLength="4.9" x="599.7261" y="410.2346">1</text></g><!--link Elevator to ElevatorCoordinates--><g id="link_Elevator_ElevatorCoordinates"><path codeLine="40" d="M636.538,351.9772 C636.538,351.9772 657.587,351.9772 657.587,351.9772 " fill="none" id="Elevator-to-ElevatorCoordinates" style="stroke:#181818;stroke-width:0.6999999999999998;"/><polygon fill="#181818" points="661.087,351.9772,654.787,349.1772,657.587,351.9772,654.787,354.7772,661.087,351.9772" style="stroke:#181818;stroke-width:0.6999999999999998;"/><text fill="#000000" font-family="sans-serif" font-size="9.1" lengthAdjust="spacing" textLength="4.9" x="641.8526" y="349.6077">1</text><text fill="#000000" font-family="sans-serif" font-size="9.1" lengthAdjust="spacing" textLength="4.9" x="650.5766" y="349.964">1</text></g><!--SRC=[bLBHJeCm57tlLpJiHHTPDXmgoKAoiItnmItHnFSEcbajBPPsoJJ-kmLIACD8UAESU-wzvzoJVn2M8O5II0d3yfnXo8Lyum00WME9s95YEBgzU_3kjzyWfYZFuKeHcX1sX72nWC-SInY6nUU6IIBF-d5HjyPvB4Wc2MSbvUfqCrhE8s_ZNyDNH1NU7zxrh2vnXr8yZ17nf6PmeRV7buG2L8nyAjnblv2ltda_BMFMyo1O1SQOBULSzBbI5krKUi1Y-AObUR2V9Ui9PR2zZzPYIGcclh_qZ9GDnISa-zMOkiTak1Z3ZVHssduaSTvlFgZJvymSDtJ6JYNF-ZzsN0rC9vEPyrS6snrqfLLM9AxJoSABXFp7B_87G9M30aqgs1p08BglQe0g31RMGFRQzHMhncuZqXYftQdlParlRjI6Mw1r101-0G00]--></g></svg>