<?xml version="1.0" encoding="us-ascii" standalone="no"?><svg xmlns="http://www.w3.org/2000/svg" xmlns:xlink="http://www.w3.org/1999/xlink" contentStyleType="text/css" height="280.8px" preserveAspectRatio="none" style="width:608px;height:280px;background:#FFFFFF;" version="1.1" viewBox="0 0 608 280" width="608.8px" zoomAndPan="magnify"><defs/><g><rect fill="#FFFFFF" height="22.8188" style="stroke:#181818;stroke-width:0.8000000000000002;" width="8" x="341.6" y="88.9313"/><rect fill="#FFFFFF" height="68.4563" style="stroke:#181818;stroke-width:0.8000000000000002;" width="8" x="341.6" y="134.5688"/><rect fill="#FFFFFF" height="22.8188" style="stroke:#181818;stroke-width:0.8000000000000002;" width="8" x="545.6" y="157.3875"/><line style="stroke:#181818;stroke-width:0.4000000000000001;stroke-dasharray:5.0,5.0;" x1="51.2" x2="51.2" y1="64.5125" y2="217.425"/><line style="stroke:#181818;stroke-width:0.4000000000000001;stroke-dasharray:5.0,5.0;" x1="345.6" x2="345.6" y1="64.5125" y2="217.425"/><line style="stroke:#181818;stroke-width:0.4000000000000001;stroke-dasharray:5.0,5.0;" x1="549.2" x2="549.2" y1="64.5125" y2="217.425"/><text fill="#000000" font-family="sans-serif" font-size="11.2" lengthAdjust="spacing" textLength="89.6" x="4" y="62.1391">Campus Manager</text><ellipse cx="51.2" cy="10.8" fill="#E2E2F0" rx="6.4" ry="6.4" style="stroke:#181818;stroke-width:0.4000000000000001;"/><path d="M51.2,17.2 L51.2,38.8 M40.8,23.6 L61.6,23.6 M51.2,38.8 L40.8,50.8 M51.2,38.8 L61.6,50.8 " fill="none" style="stroke:#181818;stroke-width:0.4000000000000001;"/><text fill="#000000" font-family="sans-serif" font-size="11.2" lengthAdjust="spacing" textLength="89.6" x="4" y="226.7641">Campus Manager</text><ellipse cx="51.2" cy="235.9375" fill="#E2E2F0" rx="6.4" ry="6.4" style="stroke:#181818;stroke-width:0.4000000000000001;"/><path d="M51.2,242.3375 L51.2,263.9375 M40.8,248.7375 L61.6,248.7375 M51.2,263.9375 L40.8,275.9375 M51.2,263.9375 L61.6,275.9375 " fill="none" style="stroke:#181818;stroke-width:0.4000000000000001;"/><rect fill="#E2E2F0" height="23.7125" rx="2" ry="2" style="stroke:#181818;stroke-width:0.4000000000000001;" width="73.6" x="308.8" y="40"/><text fill="#000000" font-family="sans-serif" font-size="11.2" lengthAdjust="spacing" textLength="62.4" x="314.4" y="55.7391">Visualiza&#231;&#227;o</text><rect fill="#E2E2F0" height="23.7125" rx="2" ry="2" style="stroke:#181818;stroke-width:0.4000000000000001;" width="73.6" x="308.8" y="216.625"/><text fill="#000000" font-family="sans-serif" font-size="11.2" lengthAdjust="spacing" textLength="62.4" x="314.4" y="232.3641">Visualiza&#231;&#227;o</text><rect fill="#E2E2F0" height="23.7125" rx="2" ry="2" style="stroke:#181818;stroke-width:0.4000000000000001;" width="109.6" x="494.8" y="40"/><text fill="#000000" font-family="sans-serif" font-size="11.2" lengthAdjust="spacing" textLength="98.4" x="500.4" y="55.7391">MasterDataBuilding</text><rect fill="#E2E2F0" height="23.7125" rx="2" ry="2" style="stroke:#181818;stroke-width:0.4000000000000001;" width="109.6" x="494.8" y="216.625"/><text fill="#000000" font-family="sans-serif" font-size="11.2" lengthAdjust="spacing" textLength="98.4" x="500.4" y="232.3641">MasterDataBuilding</text><rect fill="#FFFFFF" height="22.8188" style="stroke:#181818;stroke-width:0.8000000000000002;" width="8" x="341.6" y="88.9313"/><rect fill="#FFFFFF" height="68.4563" style="stroke:#181818;stroke-width:0.8000000000000002;" width="8" x="341.6" y="134.5688"/><rect fill="#FFFFFF" height="22.8188" style="stroke:#181818;stroke-width:0.8000000000000002;" width="8" x="545.6" y="157.3875"/><polygon fill="#181818" points="332,85.7313,340,88.9313,332,92.1313,335.2,88.9313" style="stroke:#181818;stroke-width:0.8000000000000002;"/><line style="stroke:#181818;stroke-width:0.8000000000000002;" x1="51.2" x2="336.8" y1="88.9313" y2="88.9313"/><text fill="#000000" font-family="sans-serif" font-size="10.4" font-weight="bold" lengthAdjust="spacing" textLength="5.6" x="56.8" y="85.1273">1</text><text fill="#000000" font-family="sans-serif" font-size="10.4" lengthAdjust="spacing" textLength="266.4" x="65.6" y="85.1273">Starts the process to list building floors served by elevator</text><polygon fill="#181818" points="60,108.55,52,111.75,60,114.95,56.8,111.75" style="stroke:#181818;stroke-width:0.8000000000000002;"/><line style="stroke:#181818;stroke-width:0.8000000000000002;stroke-dasharray:2.0,2.0;" x1="55.2" x2="344.8" y1="111.75" y2="111.75"/><text fill="#000000" font-family="sans-serif" font-size="10.4" font-weight="bold" lengthAdjust="spacing" textLength="5.6" x="64.8" y="107.9461">2</text><text fill="#000000" font-family="sans-serif" font-size="10.4" lengthAdjust="spacing" textLength="119.2" x="73.6" y="107.9461">Request intended building</text><polygon fill="#181818" points="332,131.3688,340,134.5688,332,137.7688,335.2,134.5688" style="stroke:#181818;stroke-width:0.8000000000000002;"/><line style="stroke:#181818;stroke-width:0.8000000000000002;" x1="51.2" x2="336.8" y1="134.5688" y2="134.5688"/><text fill="#000000" font-family="sans-serif" font-size="10.4" font-weight="bold" lengthAdjust="spacing" textLength="5.6" x="56.8" y="130.7648">3</text><text fill="#000000" font-family="sans-serif" font-size="10.4" lengthAdjust="spacing" textLength="68.8" x="65.6" y="130.7648">Types the data</text><polygon fill="#181818" points="536,154.1875,544,157.3875,536,160.5875,539.2,157.3875" style="stroke:#181818;stroke-width:0.8000000000000002;"/><line style="stroke:#181818;stroke-width:0.8000000000000002;" x1="349.6" x2="540.8" y1="157.3875" y2="157.3875"/><text fill="#000000" font-family="sans-serif" font-size="10.4" font-weight="bold" lengthAdjust="spacing" textLength="5.6" x="355.2" y="153.5836">4</text><text fill="#000000" font-family="sans-serif" font-size="10.4" lengthAdjust="spacing" textLength="172" x="364" y="153.5836">GET buildingFloorsServerdByElevator</text><polygon fill="#181818" points="358.4,177.0063,350.4,180.2063,358.4,183.4063,355.2,180.2063" style="stroke:#181818;stroke-width:0.8000000000000002;"/><line style="stroke:#181818;stroke-width:0.8000000000000002;stroke-dasharray:2.0,2.0;" x1="353.6" x2="548.8" y1="180.2063" y2="180.2063"/><text fill="#000000" font-family="sans-serif" font-size="10.4" font-weight="bold" lengthAdjust="spacing" textLength="5.6" x="363.2" y="176.4023">5</text><text fill="#000000" font-family="sans-serif" font-size="10.4" lengthAdjust="spacing" textLength="58.4" x="372" y="176.4023">floors(JSON)</text><polygon fill="#181818" points="60,199.825,52,203.025,60,206.225,56.8,203.025" style="stroke:#181818;stroke-width:0.8000000000000002;"/><line style="stroke:#181818;stroke-width:0.8000000000000002;stroke-dasharray:2.0,2.0;" x1="55.2" x2="344.8" y1="203.025" y2="203.025"/><text fill="#000000" font-family="sans-serif" font-size="10.4" font-weight="bold" lengthAdjust="spacing" textLength="5.6" x="64.8" y="199.2211">6</text><text fill="#000000" font-family="sans-serif" font-size="10.4" lengthAdjust="spacing" textLength="250.4" x="73.6" y="199.2211">Shows all floors served by elevator of intended building</text><!--SRC=[bP1DQiCm44RtFiNWLRhm1Kp98cvg4b0ATUX-R4qIWIAf-abnhzD53vABLNPCQMoyw6w4c6_Uzp1uhSAv9fjWuxM5jC2p2GuOAZoIJG4T52mnQBreX47buKsuW59yulNx-gNllbA6pfDzGe-h82GNwjWdb9iaAHXaoz5o3fMFwmxyYS1OtP2BimOfd8TwI823rDewS6GlnA5kWIHTCD9sp29ED6QwVq8M3nSiXrTw3nIJXVAaU9Srd4WupKNDSEzRGpTi7ilEWan8bj553kLw_tlxkMzNTUKiNxNhIRSehzpq7SOGDp6BRVMoU_XROT3zc6LJtoVzuG2bdBSA-l0_Gpy0]--></g></svg>