<?xml version="1.0" encoding="us-ascii" standalone="no"?><svg xmlns="http://www.w3.org/2000/svg" xmlns:xlink="http://www.w3.org/1999/xlink" contentStyleType="text/css" height="247px" preserveAspectRatio="none" style="width:800px;height:247px;background:#FFFFFF;" version="1.1" viewBox="0 0 800 247" width="800px" zoomAndPan="magnify"><defs/><g><g id="cluster_##2"><rect fill="#36827F" height="228" rx="2.5" ry="2.5" style="stroke:#181818;stroke-width:1.0;" width="339" x="7" y="13.8245"/></g><g id="cluster_##7"><rect fill="#D499B9" height="221.5" rx="2.5" ry="2.5" style="stroke:#181818;stroke-width:1.0;" width="424" x="370" y="13.8245"/></g><!--class Building--><g id="elem_Building"><rect codeLine="6" fill="#F1F1F1" height="68.4531" id="Building" rx="2.5" ry="2.5" style="stroke:#181818;stroke-width:0.5;" width="82" x="230" y="29.8245"/><ellipse cx="245" cy="56.0511" fill="#ADD1B2" rx="11" ry="11" style="stroke:#181818;stroke-width:1.0;"/><path d="M247.7656,51.9261 Q247.9219,51.7073 248.1094,51.5979 Q248.2969,51.4886 248.5156,51.4886 Q248.8906,51.4886 249.125,51.7542 Q249.3594,52.0042 249.3594,52.6136 L249.3594,54.0667 Q249.3594,54.6761 249.125,54.9417 Q248.8906,55.2073 248.5156,55.2073 Q248.1719,55.2073 247.9688,55.0042 Q247.7656,54.8167 247.6563,54.3011 Q247.6094,53.9417 247.4219,53.7542 Q247.0938,53.3792 246.4844,53.1604 Q245.875,52.9417 245.25,52.9417 Q244.4844,52.9417 243.8438,53.2698 Q243.2188,53.5979 242.7188,54.3479 Q242.2344,55.0979 242.2344,56.1292 L242.2344,57.2229 Q242.2344,58.4573 243.125,59.2854 Q244.0156,60.0979 245.6094,60.0979 Q246.5469,60.0979 247.2031,59.8479 Q247.5938,59.6917 248.0156,59.2542 Q248.2813,58.9886 248.4219,58.9104 Q248.5781,58.8323 248.7813,58.8323 Q249.1094,58.8323 249.3594,59.0979 Q249.625,59.3479 249.625,59.6917 Q249.625,60.0354 249.2813,60.4417 Q248.7813,61.0198 247.9844,61.3479 Q246.9063,61.8011 245.6094,61.8011 Q244.0938,61.8011 242.8906,61.1761 Q241.9063,60.6761 241.2188,59.6136 Q240.5313,58.5354 240.5313,57.2542 L240.5313,56.0979 Q240.5313,54.7698 241.1406,53.6292 Q241.7656,52.4729 242.8594,51.8636 Q243.9531,51.2386 245.1875,51.2386 Q245.9219,51.2386 246.5625,51.4104 Q247.2188,51.5667 247.7656,51.9261 Z " fill="#000000"/><text fill="#000000" font-family="sans-serif" font-size="12" font-style="italic" lengthAdjust="spacing" textLength="40" x="264" y="45.6878">&#171;Root&#187;</text><text fill="#000000" font-family="sans-serif" font-size="12" font-style="italic" lengthAdjust="spacing" textLength="44" x="262" y="59.094">&#171;Entity&#187;</text><text fill="#000000" font-family="sans-serif" font-size="14" lengthAdjust="spacing" textLength="50" x="259" y="74.3108">Building</text><line style="stroke:#181818;stroke-width:0.5;" x1="231" x2="311" y1="82.2776" y2="82.2776"/><line style="stroke:#181818;stroke-width:0.5;" x1="231" x2="311" y1="90.2776" y2="90.2776"/></g><!--class BuildingDescription--><g id="elem_BuildingDescription"><rect codeLine="7" fill="#F1F1F1" height="55.0469" id="BuildingDescription" rx="2.5" ry="2.5" style="stroke:#181818;stroke-width:0.5;" width="153" x="23.5" y="164.3245"/><ellipse cx="38.5" cy="183.8479" fill="#A4C2E5" rx="11" ry="11" style="stroke:#181818;stroke-width:1.0;"/><path d="M39.1094,186.7854 L40.9531,183.0198 Q40.2656,183.0198 40.0781,182.8948 Q39.6563,182.6448 39.6563,182.1604 Q39.6563,181.7854 39.9219,181.5511 Q40.1875,181.3167 40.7969,181.3167 L43.125,181.3167 Q43.75,181.3167 44,181.5511 Q44.2656,181.7854 44.2656,182.1604 Q44.2656,182.5354 44,182.7854 Q43.75,183.0198 43.125,183.0198 L42.8438,183.0198 L40,188.8479 L38.2188,188.8479 L35.375,183.0198 L35.1406,183.0198 Q34.5156,183.0198 34.25,182.7854 Q34,182.5354 34,182.1604 Q34,181.7854 34.25,181.5511 Q34.5156,181.3167 35.1406,181.3167 L37.4219,181.3167 Q38.0313,181.3167 38.2813,181.5511 Q38.5469,181.7854 38.5469,182.1604 Q38.5469,182.6448 38.1563,182.8948 Q37.9531,183.0198 37.2656,183.0198 L39.1094,186.7854 Z " fill="#000000"/><text fill="#000000" font-family="sans-serif" font-size="12" font-style="italic" lengthAdjust="spacing" textLength="82" x="72" y="180.1878">&#171;ValueObject&#187;</text><text fill="#000000" font-family="sans-serif" font-size="14" lengthAdjust="spacing" textLength="121" x="52.5" y="195.4046">BuildingDescription</text><line style="stroke:#181818;stroke-width:0.5;" x1="24.5" x2="175.5" y1="203.3714" y2="203.3714"/><line style="stroke:#181818;stroke-width:0.5;" x1="24.5" x2="175.5" y1="211.3714" y2="211.3714"/></g><!--class BuildingName--><g id="elem_BuildingName"><rect codeLine="8" fill="#F1F1F1" height="68.4531" id="BuildingName" rx="2.5" ry="2.5" style="stroke:#181818;stroke-width:0.5;" width="118" x="212" y="157.8245"/><ellipse cx="227" cy="184.0511" fill="#FFA500" rx="11" ry="11" style="stroke:#181818;stroke-width:1.0;"/><path d="M227.6094,186.9886 L229.4531,183.2229 Q228.7656,183.2229 228.5781,183.0979 Q228.1563,182.8479 228.1563,182.3636 Q228.1563,181.9886 228.4219,181.7542 Q228.6875,181.5198 229.2969,181.5198 L231.625,181.5198 Q232.25,181.5198 232.5,181.7542 Q232.7656,181.9886 232.7656,182.3636 Q232.7656,182.7386 232.5,182.9886 Q232.25,183.2229 231.625,183.2229 L231.3438,183.2229 L228.5,189.0511 L226.7188,189.0511 L223.875,183.2229 L223.6406,183.2229 Q223.0156,183.2229 222.75,182.9886 Q222.5,182.7386 222.5,182.3636 Q222.5,181.9886 222.75,181.7542 Q223.0156,181.5198 223.6406,181.5198 L225.9219,181.5198 Q226.5313,181.5198 226.7813,181.7542 Q227.0469,181.9886 227.0469,182.3636 Q227.0469,182.8479 226.6563,183.0979 Q226.4531,183.2229 225.7656,183.2229 L227.6094,186.9886 Z " fill="#000000"/><text fill="#000000" font-family="sans-serif" font-size="12" font-style="italic" lengthAdjust="spacing" textLength="82" x="243" y="173.6878">&#171;ValueObject&#187;</text><text fill="#000000" font-family="sans-serif" font-size="12" font-style="italic" lengthAdjust="spacing" textLength="52" x="258" y="187.094">&#171;unique&#187;</text><text fill="#000000" font-family="sans-serif" font-size="14" lengthAdjust="spacing" textLength="86" x="241" y="202.3108">BuildingName</text><line style="stroke:#181818;stroke-width:0.5;" x1="213" x2="329" y1="210.2776" y2="210.2776"/><line style="stroke:#181818;stroke-width:0.5;" x1="213" x2="329" y1="218.2776" y2="218.2776"/></g><!--class Floor--><g id="elem_Floor"><rect codeLine="12" fill="#F1F1F1" height="68.4531" id="Floor" rx="2.5" ry="2.5" style="stroke:#181818;stroke-width:0.5;" width="72" x="535" y="29.8245"/><ellipse cx="550" cy="56.0511" fill="#ADD1B2" rx="11" ry="11" style="stroke:#181818;stroke-width:1.0;"/><path d="M552.7656,51.9261 Q552.9219,51.7073 553.1094,51.5979 Q553.2969,51.4886 553.5156,51.4886 Q553.8906,51.4886 554.125,51.7542 Q554.3594,52.0042 554.3594,52.6136 L554.3594,54.0667 Q554.3594,54.6761 554.125,54.9417 Q553.8906,55.2073 553.5156,55.2073 Q553.1719,55.2073 552.9688,55.0042 Q552.7656,54.8167 552.6563,54.3011 Q552.6094,53.9417 552.4219,53.7542 Q552.0938,53.3792 551.4844,53.1604 Q550.875,52.9417 550.25,52.9417 Q549.4844,52.9417 548.8438,53.2698 Q548.2188,53.5979 547.7188,54.3479 Q547.2344,55.0979 547.2344,56.1292 L547.2344,57.2229 Q547.2344,58.4573 548.125,59.2854 Q549.0156,60.0979 550.6094,60.0979 Q551.5469,60.0979 552.2031,59.8479 Q552.5938,59.6917 553.0156,59.2542 Q553.2813,58.9886 553.4219,58.9104 Q553.5781,58.8323 553.7813,58.8323 Q554.1094,58.8323 554.3594,59.0979 Q554.625,59.3479 554.625,59.6917 Q554.625,60.0354 554.2813,60.4417 Q553.7813,61.0198 552.9844,61.3479 Q551.9063,61.8011 550.6094,61.8011 Q549.0938,61.8011 547.8906,61.1761 Q546.9063,60.6761 546.2188,59.6136 Q545.5313,58.5354 545.5313,57.2542 L545.5313,56.0979 Q545.5313,54.7698 546.1406,53.6292 Q546.7656,52.4729 547.8594,51.8636 Q548.9531,51.2386 550.1875,51.2386 Q550.9219,51.2386 551.5625,51.4104 Q552.2188,51.5667 552.7656,51.9261 Z " fill="#000000"/><text fill="#000000" font-family="sans-serif" font-size="12" font-style="italic" lengthAdjust="spacing" textLength="40" x="564" y="45.6878">&#171;Root&#187;</text><text fill="#000000" font-family="sans-serif" font-size="12" font-style="italic" lengthAdjust="spacing" textLength="44" x="562" y="59.094">&#171;Entity&#187;</text><text fill="#000000" font-family="sans-serif" font-size="14" lengthAdjust="spacing" textLength="33" x="567.5" y="74.3108">Floor</text><line style="stroke:#181818;stroke-width:0.5;" x1="536" x2="606" y1="82.2776" y2="82.2776"/><line style="stroke:#181818;stroke-width:0.5;" x1="536" x2="606" y1="90.2776" y2="90.2776"/></g><!--class FloorNumber--><g id="elem_FloorNumber"><rect codeLine="13" fill="#F1F1F1" height="68.4531" id="FloorNumber" rx="2.5" ry="2.5" style="stroke:#181818;stroke-width:0.5;" width="114" x="386" y="29.8245"/><ellipse cx="401" cy="56.0511" fill="#FFA500" rx="11" ry="11" style="stroke:#181818;stroke-width:1.0;"/><path d="M401.6094,58.9886 L403.4531,55.2229 Q402.7656,55.2229 402.5781,55.0979 Q402.1563,54.8479 402.1563,54.3636 Q402.1563,53.9886 402.4219,53.7542 Q402.6875,53.5198 403.2969,53.5198 L405.625,53.5198 Q406.25,53.5198 406.5,53.7542 Q406.7656,53.9886 406.7656,54.3636 Q406.7656,54.7386 406.5,54.9886 Q406.25,55.2229 405.625,55.2229 L405.3438,55.2229 L402.5,61.0511 L400.7188,61.0511 L397.875,55.2229 L397.6406,55.2229 Q397.0156,55.2229 396.75,54.9886 Q396.5,54.7386 396.5,54.3636 Q396.5,53.9886 396.75,53.7542 Q397.0156,53.5198 397.6406,53.5198 L399.9219,53.5198 Q400.5313,53.5198 400.7813,53.7542 Q401.0469,53.9886 401.0469,54.3636 Q401.0469,54.8479 400.6563,55.0979 Q400.4531,55.2229 399.7656,55.2229 L401.6094,58.9886 Z " fill="#000000"/><text fill="#000000" font-family="sans-serif" font-size="12" font-style="italic" lengthAdjust="spacing" textLength="82" x="415" y="45.6878">&#171;ValueObject&#187;</text><text fill="#000000" font-family="sans-serif" font-size="12" font-style="italic" lengthAdjust="spacing" textLength="52" x="430" y="59.094">&#171;unique&#187;</text><text fill="#000000" font-family="sans-serif" font-size="14" lengthAdjust="spacing" textLength="82" x="415" y="74.3108">FloorNumber</text><line style="stroke:#181818;stroke-width:0.5;" x1="387" x2="499" y1="82.2776" y2="82.2776"/><line style="stroke:#181818;stroke-width:0.5;" x1="387" x2="499" y1="90.2776" y2="90.2776"/></g><!--class FloorDescription--><g id="elem_FloorDescription"><rect codeLine="14" fill="#F1F1F1" height="55.0469" id="FloorDescription" rx="2.5" ry="2.5" style="stroke:#181818;stroke-width:0.5;" width="136" x="642" y="36.3245"/><ellipse cx="657" cy="55.8479" fill="#A4C2E5" rx="11" ry="11" style="stroke:#181818;stroke-width:1.0;"/><path d="M657.6094,58.7854 L659.4531,55.0198 Q658.7656,55.0198 658.5781,54.8948 Q658.1563,54.6448 658.1563,54.1604 Q658.1563,53.7854 658.4219,53.5511 Q658.6875,53.3167 659.2969,53.3167 L661.625,53.3167 Q662.25,53.3167 662.5,53.5511 Q662.7656,53.7854 662.7656,54.1604 Q662.7656,54.5354 662.5,54.7854 Q662.25,55.0198 661.625,55.0198 L661.3438,55.0198 L658.5,60.8479 L656.7188,60.8479 L653.875,55.0198 L653.6406,55.0198 Q653.0156,55.0198 652.75,54.7854 Q652.5,54.5354 652.5,54.1604 Q652.5,53.7854 652.75,53.5511 Q653.0156,53.3167 653.6406,53.3167 L655.9219,53.3167 Q656.5313,53.3167 656.7813,53.5511 Q657.0469,53.7854 657.0469,54.1604 Q657.0469,54.6448 656.6563,54.8948 Q656.4531,55.0198 655.7656,55.0198 L657.6094,58.7854 Z " fill="#000000"/><text fill="#000000" font-family="sans-serif" font-size="12" font-style="italic" lengthAdjust="spacing" textLength="82" x="682" y="52.1878">&#171;ValueObject&#187;</text><text fill="#000000" font-family="sans-serif" font-size="14" lengthAdjust="spacing" textLength="104" x="671" y="67.4046">FloorDescription</text><line style="stroke:#181818;stroke-width:0.5;" x1="643" x2="777" y1="75.3714" y2="75.3714"/><line style="stroke:#181818;stroke-width:0.5;" x1="643" x2="777" y1="83.3714" y2="83.3714"/></g><!--class FloorMap--><g id="elem_FloorMap"><rect codeLine="15" fill="#F1F1F1" height="55.0469" id="FloorMap" rx="2.5" ry="2.5" style="stroke:#181818;stroke-width:0.5;" width="92" x="525" y="164.3245"/><ellipse cx="540" cy="183.8479" fill="#ADD1B2" rx="11" ry="11" style="stroke:#181818;stroke-width:1.0;"/><path d="M542.7656,179.7229 Q542.9219,179.5042 543.1094,179.3948 Q543.2969,179.2854 543.5156,179.2854 Q543.8906,179.2854 544.125,179.5511 Q544.3594,179.8011 544.3594,180.4104 L544.3594,181.8636 Q544.3594,182.4729 544.125,182.7386 Q543.8906,183.0042 543.5156,183.0042 Q543.1719,183.0042 542.9688,182.8011 Q542.7656,182.6136 542.6563,182.0979 Q542.6094,181.7386 542.4219,181.5511 Q542.0938,181.1761 541.4844,180.9573 Q540.875,180.7386 540.25,180.7386 Q539.4844,180.7386 538.8438,181.0667 Q538.2188,181.3948 537.7188,182.1448 Q537.2344,182.8948 537.2344,183.9261 L537.2344,185.0198 Q537.2344,186.2542 538.125,187.0823 Q539.0156,187.8948 540.6094,187.8948 Q541.5469,187.8948 542.2031,187.6448 Q542.5938,187.4886 543.0156,187.0511 Q543.2813,186.7854 543.4219,186.7073 Q543.5781,186.6292 543.7813,186.6292 Q544.1094,186.6292 544.3594,186.8948 Q544.625,187.1448 544.625,187.4886 Q544.625,187.8323 544.2813,188.2386 Q543.7813,188.8167 542.9844,189.1448 Q541.9063,189.5979 540.6094,189.5979 Q539.0938,189.5979 537.8906,188.9729 Q536.9063,188.4729 536.2188,187.4104 Q535.5313,186.3323 535.5313,185.0511 L535.5313,183.8948 Q535.5313,182.5667 536.1406,181.4261 Q536.7656,180.2698 537.8594,179.6604 Q538.9531,179.0354 540.1875,179.0354 Q540.9219,179.0354 541.5625,179.2073 Q542.2188,179.3636 542.7656,179.7229 Z " fill="#000000"/><text fill="#000000" font-family="sans-serif" font-size="12" font-style="italic" lengthAdjust="spacing" textLength="44" x="562" y="180.1878">&#171;Entity&#187;</text><text fill="#000000" font-family="sans-serif" font-size="14" lengthAdjust="spacing" textLength="60" x="554" y="195.4046">FloorMap</text><line style="stroke:#181818;stroke-width:0.5;" x1="526" x2="616" y1="203.3714" y2="203.3714"/><line style="stroke:#181818;stroke-width:0.5;" x1="526" x2="616" y1="211.3714" y2="211.3714"/></g><!--link Building to Floor--><g id="link_Building_Floor"><path codeLine="19" d="M271,29.7245 C271,19.9145 271,11.8245 271,11.8245 C271,11.8245 571,11.8245 571,11.8245 C571,11.8245 571,24.7245 571,24.7245 " fill="none" id="Building-to-Floor" style="stroke:#181818;stroke-width:1.0;"/><polygon fill="#181818" points="571,29.7245,575,20.7245,571,24.7245,567,20.7245,571,29.7245" style="stroke:#181818;stroke-width:1.0;"/><text fill="#000000" font-family="sans-serif" font-size="13" lengthAdjust="spacing" textLength="7" x="263.2781" y="19.0234">1</text><text fill="#000000" font-family="sans-serif" font-size="13" lengthAdjust="spacing" textLength="5" x="565.4844" y="19.0234">*</text></g><!--link Building to BuildingDescription--><g id="link_Building_BuildingDescription"><path codeLine="20" d="M229.61,63.8245 C179,63.8245 100,63.8245 100,63.8245 C100,63.8245 100,159.0545 100,159.0545 " fill="none" id="Building-to-BuildingDescription" style="stroke:#181818;stroke-width:1.0;"/><polygon fill="#181818" points="100,164.0545,104,155.0545,100,159.0545,96,155.0545,100,164.0545" style="stroke:#181818;stroke-width:1.0;"/><text fill="#000000" font-family="sans-serif" font-size="13" lengthAdjust="spacing" textLength="5" x="217.0664" y="60.396">*</text><text fill="#000000" font-family="sans-serif" font-size="13" lengthAdjust="spacing" textLength="22" x="75.3188" y="153.406">0..1</text></g><!--link Building to BuildingName--><g id="link_Building_BuildingName"><path codeLine="21" d="M271,98.1245 C271,98.1245 271,152.4245 271,152.4245 " fill="none" id="Building-to-BuildingName" style="stroke:#181818;stroke-width:1.0;"/><polygon fill="#181818" points="271,157.4245,275,148.4245,271,152.4245,267,148.4245,271,157.4245" style="stroke:#181818;stroke-width:1.0;"/><text fill="#000000" font-family="sans-serif" font-size="13" lengthAdjust="spacing" textLength="7" x="263.3109" y="118.0309">1</text><text fill="#000000" font-family="sans-serif" font-size="13" lengthAdjust="spacing" textLength="7" x="263.3109" y="147.0494">1</text></g><!--link Floor to FloorMap--><g id="link_Floor_FloorMap"><path codeLine="25" d="M571,98.1245 C571,98.1245 571,159.3145 571,159.3145 " fill="none" id="Floor-to-FloorMap" style="stroke:#181818;stroke-width:1.0;"/><polygon fill="#181818" points="571,164.3145,575,155.3145,571,159.3145,567,155.3145,571,164.3145" style="stroke:#181818;stroke-width:1.0;"/><text fill="#000000" font-family="sans-serif" font-size="13" lengthAdjust="spacing" textLength="7" x="563.3109" y="118.0309">1</text><text fill="#000000" font-family="sans-serif" font-size="13" lengthAdjust="spacing" textLength="7" x="563.1469" y="153.7293">1</text></g><!--reverse link FloorNumber to Floor--><g id="link_FloorNumber_Floor"><path codeLine="26" d="M505.26,63.8245 C505.26,63.8245 534.73,63.8245 534.73,63.8245 " fill="none" id="FloorNumber-backto-Floor" style="stroke:#181818;stroke-width:1.0;"/><polygon fill="#181818" points="500.26,63.8245,509.26,67.8245,505.26,63.8245,509.26,59.8245,500.26,63.8245" style="stroke:#181818;stroke-width:1.0;"/><text fill="#000000" font-family="sans-serif" font-size="13" lengthAdjust="spacing" textLength="7" x="508.0449" y="60.7007">1</text><text fill="#000000" font-family="sans-serif" font-size="13" lengthAdjust="spacing" textLength="5" x="522.0972" y="60.2219">*</text></g><!--link Floor to FloorDescription--><g id="link_Floor_FloorDescription"><path codeLine="27" d="M607.16,63.8245 C607.16,63.8245 636.96,63.8245 636.96,63.8245 " fill="none" id="Floor-to-FloorDescription" style="stroke:#181818;stroke-width:1.0;"/><polygon fill="#181818" points="641.96,63.8245,632.96,59.8245,636.96,63.8245,632.96,67.8245,641.96,63.8245" style="stroke:#181818;stroke-width:1.0;"/><text fill="#000000" font-family="sans-serif" font-size="13" lengthAdjust="spacing" textLength="5" x="615.1336" y="60.1566">*</text><text fill="#000000" font-family="sans-serif" font-size="13" lengthAdjust="spacing" textLength="7" x="627.1353" y="60.8535">1</text></g><!--SRC=[bL7BRi8m4BpxArRcqgA2UFKH2KNYUGCa3hsRiA86nquT6mbL_NViH2aEhLJbvlNCU6R7-OdBZ6cMWk0IpIL3KDfyA4A8niGmUH08hU7Bs-1r-KKImV8SffQBFPS7WF4OjaePY6D_N4Z3pSKDTxmvvedccU5A5fA7yrDhCfeD5i-FyCw4nStkwBn-2zSinKgXjCk2zm8FMia_BNhrTotqV1H5qwWAlHHAwVyI5wIrJNUec_W6uiQx5geLow2Un-_oqpFjqqvCsxGa1_Tjsd50hzljqx_Qhh_Wc07DT-i-cPIzU7nV4gf05U8yx0qeomcm6nGQaoi0]--></g></svg>