<?xml version="1.0" encoding="us-ascii" standalone="no"?><svg xmlns="http://www.w3.org/2000/svg" xmlns:xlink="http://www.w3.org/1999/xlink" contentStyleType="text/css" height="210.6px" preserveAspectRatio="none" style="width:362px;height:210px;background:#FFFFFF;" version="1.1" viewBox="0 0 362 210" width="362.4px" zoomAndPan="magnify"><defs/><g><rect fill="#FFFFFF" height="17.1141" style="stroke:#181818;stroke-width:0.6;" width="6" x="217.2" y="66.6984"/><rect fill="#FFFFFF" height="51.3422" style="stroke:#181818;stroke-width:0.6;" width="6" x="217.2" y="100.9266"/><rect fill="#FFFFFF" height="17.1141" style="stroke:#181818;stroke-width:0.6;" width="6" x="315" y="118.0406"/><line style="stroke:#181818;stroke-width:0.3;stroke-dasharray:5.0,5.0;" x1="38.4" x2="38.4" y1="48.3844" y2="163.0688"/><line style="stroke:#181818;stroke-width:0.3;stroke-dasharray:5.0,5.0;" x1="220.2" x2="220.2" y1="48.3844" y2="163.0688"/><line style="stroke:#181818;stroke-width:0.3;stroke-dasharray:5.0,5.0;" x1="317.7" x2="317.7" y1="48.3844" y2="163.0688"/><text fill="#000000" font-family="sans-serif" font-size="8.4" lengthAdjust="spacing" textLength="67.2" x="3" y="46.6043">Campus Manager</text><ellipse cx="38.4" cy="8.1" fill="#E2E2F0" rx="4.8" ry="4.8" style="stroke:#181818;stroke-width:0.3;"/><path d="M38.4,12.9 L38.4,29.1 M30.6,17.7 L46.2,17.7 M38.4,29.1 L30.6,38.1 M38.4,29.1 L46.2,38.1 " fill="none" style="stroke:#181818;stroke-width:0.3;"/><text fill="#000000" font-family="sans-serif" font-size="8.4" lengthAdjust="spacing" textLength="67.2" x="3" y="170.073">Campus Manager</text><ellipse cx="38.4" cy="176.9531" fill="#E2E2F0" rx="4.8" ry="4.8" style="stroke:#181818;stroke-width:0.3;"/><path d="M38.4,181.7531 L38.4,197.9531 M30.6,186.5531 L46.2,186.5531 M38.4,197.9531 L30.6,206.9531 M38.4,197.9531 L46.2,206.9531 " fill="none" style="stroke:#181818;stroke-width:0.3;"/><rect fill="#E2E2F0" height="17.7844" rx="1.5" ry="1.5" style="stroke:#181818;stroke-width:0.3;" width="55.2" x="192.6" y="30"/><text fill="#000000" font-family="sans-serif" font-size="8.4" lengthAdjust="spacing" textLength="46.8" x="196.8" y="41.8043">Visualiza&#231;&#227;o</text><rect fill="#E2E2F0" height="17.7844" rx="1.5" ry="1.5" style="stroke:#181818;stroke-width:0.3;" width="55.2" x="192.6" y="162.4688"/><text fill="#000000" font-family="sans-serif" font-size="8.4" lengthAdjust="spacing" textLength="46.8" x="196.8" y="174.273">Visualiza&#231;&#227;o</text><rect fill="#E2E2F0" height="17.7844" rx="1.5" ry="1.5" style="stroke:#181818;stroke-width:0.3;" width="82.2" x="276.9" y="30"/><text fill="#000000" font-family="sans-serif" font-size="8.4" lengthAdjust="spacing" textLength="73.8" x="281.1" y="41.8043">MasterDataBuilding</text><rect fill="#E2E2F0" height="17.7844" rx="1.5" ry="1.5" style="stroke:#181818;stroke-width:0.3;" width="82.2" x="276.9" y="162.4688"/><text fill="#000000" font-family="sans-serif" font-size="8.4" lengthAdjust="spacing" textLength="73.8" x="281.1" y="174.273">MasterDataBuilding</text><rect fill="#FFFFFF" height="17.1141" style="stroke:#181818;stroke-width:0.6;" width="6" x="217.2" y="66.6984"/><rect fill="#FFFFFF" height="51.3422" style="stroke:#181818;stroke-width:0.6;" width="6" x="217.2" y="100.9266"/><rect fill="#FFFFFF" height="17.1141" style="stroke:#181818;stroke-width:0.6;" width="6" x="315" y="118.0406"/><polygon fill="#181818" points="210,64.2984,216,66.6984,210,69.0984,212.4,66.6984" style="stroke:#181818;stroke-width:0.6;"/><line style="stroke:#181818;stroke-width:0.6;" x1="38.4" x2="213.6" y1="66.6984" y2="66.6984"/><text fill="#000000" font-family="sans-serif" font-size="7.8" font-weight="bold" lengthAdjust="spacing" textLength="4.2" x="42.6" y="63.8455">1</text><text fill="#000000" font-family="sans-serif" font-size="7.8" lengthAdjust="spacing" textLength="160.8" x="49.2" y="63.8455">Starts the process to list all floors of a building</text><polygon fill="#181818" points="45,81.4125,39,83.8125,45,86.2125,42.6,83.8125" style="stroke:#181818;stroke-width:0.6;"/><line style="stroke:#181818;stroke-width:0.6;stroke-dasharray:2.0,2.0;" x1="41.4" x2="219.6" y1="83.8125" y2="83.8125"/><text fill="#000000" font-family="sans-serif" font-size="7.8" font-weight="bold" lengthAdjust="spacing" textLength="4.2" x="48.6" y="80.9596">2</text><text fill="#000000" font-family="sans-serif" font-size="7.8" lengthAdjust="spacing" textLength="89.4" x="55.2" y="80.9596">Request intended building</text><polygon fill="#181818" points="210,98.5266,216,100.9266,210,103.3266,212.4,100.9266" style="stroke:#181818;stroke-width:0.6;"/><line style="stroke:#181818;stroke-width:0.6;" x1="38.4" x2="213.6" y1="100.9266" y2="100.9266"/><text fill="#000000" font-family="sans-serif" font-size="7.8" font-weight="bold" lengthAdjust="spacing" textLength="4.2" x="42.6" y="98.0736">3</text><text fill="#000000" font-family="sans-serif" font-size="7.8" lengthAdjust="spacing" textLength="51.6" x="49.2" y="98.0736">Types the data</text><polygon fill="#181818" points="307.8,115.6406,313.8,118.0406,307.8,120.4406,310.2,118.0406" style="stroke:#181818;stroke-width:0.6;"/><line style="stroke:#181818;stroke-width:0.6;" x1="223.2" x2="311.4" y1="118.0406" y2="118.0406"/><text fill="#000000" font-family="sans-serif" font-size="7.8" font-weight="bold" lengthAdjust="spacing" textLength="4.2" x="227.4" y="115.1877">4</text><text fill="#000000" font-family="sans-serif" font-size="7.8" lengthAdjust="spacing" textLength="73.8" x="234" y="115.1877">GET floorsByBuilding</text><polygon fill="#181818" points="229.8,132.7547,223.8,135.1547,229.8,137.5547,227.4,135.1547" style="stroke:#181818;stroke-width:0.6;"/><line style="stroke:#181818;stroke-width:0.6;stroke-dasharray:2.0,2.0;" x1="226.2" x2="317.4" y1="135.1547" y2="135.1547"/><text fill="#000000" font-family="sans-serif" font-size="7.8" font-weight="bold" lengthAdjust="spacing" textLength="4.2" x="233.4" y="132.3018">5</text><text fill="#000000" font-family="sans-serif" font-size="7.8" lengthAdjust="spacing" textLength="43.8" x="240" y="132.3018">floors(JSON)</text><polygon fill="#181818" points="45,149.8688,39,152.2687,45,154.6688,42.6,152.2687" style="stroke:#181818;stroke-width:0.6;"/><line style="stroke:#181818;stroke-width:0.6;stroke-dasharray:2.0,2.0;" x1="41.4" x2="219.6" y1="152.2687" y2="152.2687"/><text fill="#000000" font-family="sans-serif" font-size="7.8" font-weight="bold" lengthAdjust="spacing" textLength="4.2" x="48.6" y="149.4158">6</text><text fill="#000000" font-family="sans-serif" font-size="7.8" lengthAdjust="spacing" textLength="123.6" x="55.2" y="149.4158">Shows all floors of intended building</text><!--SRC=[bP11Ri8m44NtESKegxB81QAAHT8g0ib5AeZz40zWoTZ67hU2wx3eGRXONOZKaYYBxcOq-d_U_nZPcdZOaC-mPUiXh_7WOW211dVaSy00jSWSUbQjScWOrYf4rEgCrw_hnJwSSe61oRyWOnMLbihiRWxDBCjg0SMq9ovXoKaUWFS4pjkMGfejQ1KOK6lOQcjz0Bi5X4td-4EgFf2fJ_AuGf7UrQ84UATZf6Ie39EH97-T98rvZU2kJexkj39b72KPe4nJ1IKqhwikKNMg1cbIIStiHjt_UjSypPUBjybVvgxMvw8Ozhgtdw5NuR_oVmC0]--></g></svg>