<?xml version="1.0" encoding="UTF-8" standalone="no"?><svg xmlns="http://www.w3.org/2000/svg" xmlns:xlink="http://www.w3.org/1999/xlink" contentStyleType="text/css" height="103px" preserveAspectRatio="none" style="width:351px;height:103px;background:#FFFFFF;" version="1.1" viewBox="0 0 351 103" width="351px" zoomAndPan="magnify"><defs/><g><!--MD5=[1478444cbd0d707d5292787239839939]
cluster RobDroneGo--><g id="cluster_RobDroneGo"><path d="M180.5,6 L272.5,6 A3.75,3.75 0 0 1 275,8.5 L282,29.6094 L341.5,29.6094 A2.5,2.5 0 0 1 344,32.1094 L344,87.5 A2.5,2.5 0 0 1 341.5,90 L180.5,90 A2.5,2.5 0 0 1 178,87.5 L178,8.5 A2.5,2.5 0 0 1 180.5,6 " fill="none" style="stroke:#000000;stroke-width:1.5;"/><line style="stroke:#000000;stroke-width:1.5;" x1="178" x2="282" y1="29.6094" y2="29.6094"/><text fill="#000000" font-family="sans-serif" font-size="14" font-weight="bold" lengthAdjust="spacing" textLength="91" x="182" y="22.5332">RobDroneGo</text></g><g id="elem_UC2"><ellipse cx="260.7537" cy="57.7507" fill="#F1F1F1" rx="66.7537" ry="15.7507" style="stroke:#181818;stroke-width:0.5;"/><text fill="#000000" font-family="sans-serif" font-size="14" lengthAdjust="spacing" textLength="78" x="218.7537" y="62.2673">Edit Building</text></g><!--MD5=[99f3cfe8ce18ee9cb444babb539f6fb5]
entity CM--><g id="elem_CM"><ellipse cx="70" cy="35" fill="#F1F1F1" rx="16" ry="16" style="stroke:#181818;stroke-width:1.5;"/><path d="M70,55 C74,55 77,55 81,51 C89,51 97,59 97,67 L97,71 C97,75 93,79 89,79 L51,79 C47,79 43,75 43,71 L43,67 C43,59 51,51 59,51 C63,55 66,55 70,55 " fill="#F1F1F1" style="stroke:#181818;stroke-width:1.5;"/><text fill="#000000" font-family="sans-serif" font-size="14" lengthAdjust="spacing" textLength="128" x="6" y="95.0332">UI Campus Manager</text></g><!--MD5=[5725362fb9128b29e7275e925cbddfee]
link CM to UC2--><g id="link_CM_UC2"><path d="M134.2,58 C151.76,58 170.94,58 188.92,58 " fill="none" id="CM-to-UC2" style="stroke:#181818;stroke-width:1.0;"/><polygon fill="#181818" points="193.95,58,184.95,54,188.95,58,184.95,62,193.95,58" style="stroke:#181818;stroke-width:1.0;"/></g><!--MD5=[79c1af7800d4354cb396a4cbd6c617f3]
@startuml scenaryLevel1
left to right direction

skinparam actorStyle awesome

actor "UI Campus Manager" as CM

package  RobDroneGo  {
  usecase "Edit Building" as UC2
}
CM - -> UC2
@enduml

PlantUML version 1.2022.7(Mon Aug 22 18:01:30 WEST 2022)
(GPL source distribution)
Java Runtime: Java(TM) SE Runtime Environment
JVM: Java HotSpot(TM) 64-Bit Server VM
Default Encoding: UTF-8
Language: en
Country: US
--></g></svg>