<?xml version="1.0" encoding="UTF-8" standalone="no"?><svg xmlns="http://www.w3.org/2000/svg" xmlns:xlink="http://www.w3.org/1999/xlink" contentStyleType="text/css" height="306px" preserveAspectRatio="none" style="width:369px;height:306px;background:#FFFFFF;" version="1.1" viewBox="0 0 369 306" width="369px" zoomAndPan="magnify"><defs/><g><rect fill="#FFFFFF" height="91.0547" style="stroke:#181818;stroke-width:1.0;" width="10" x="165.5" y="114.9609"/><rect fill="#FFFFFF" height="30.3516" style="stroke:#181818;stroke-width:1.0;" width="10" x="289.5" y="145.3125"/><line style="stroke:#181818;stroke-width:0.5;stroke-dasharray:5.0,5.0;" x1="60" x2="60" y1="82.6094" y2="224.0156"/><line style="stroke:#181818;stroke-width:0.5;stroke-dasharray:5.0,5.0;" x1="170" x2="170" y1="82.6094" y2="224.0156"/><line style="stroke:#181818;stroke-width:0.5;stroke-dasharray:5.0,5.0;" x1="294" x2="294" y1="82.6094" y2="224.0156"/><text fill="#000000" font-family="sans-serif" font-size="14" lengthAdjust="spacing" textLength="104" x="5" y="79.5332">Campus Manger</text><ellipse cx="60" cy="13.5" fill="#E2E2F0" rx="8" ry="8" style="stroke:#181818;stroke-width:0.5;"/><path d="M60,21.5 L60,48.5 M47,29.5 L73,29.5 M60,48.5 L47,63.5 M60,48.5 L73,63.5 " fill="none" style="stroke:#181818;stroke-width:0.5;"/><text fill="#000000" font-family="sans-serif" font-size="14" lengthAdjust="spacing" textLength="104" x="5" y="237.5488">Campus Manger</text><ellipse cx="60" cy="249.125" fill="#E2E2F0" rx="8" ry="8" style="stroke:#181818;stroke-width:0.5;"/><path d="M60,257.125 L60,284.125 M47,265.125 L73,265.125 M60,284.125 L47,299.125 M60,284.125 L73,299.125 " fill="none" style="stroke:#181818;stroke-width:0.5;"/><rect fill="#E2E2F0" height="31.6094" rx="2.5" ry="2.5" style="stroke:#181818;stroke-width:0.5;" width="91" x="125" y="50"/><text fill="#000000" font-family="sans-serif" font-size="14" lengthAdjust="spacing" textLength="77" x="132" y="71.5332">Vizualization</text><rect fill="#E2E2F0" height="31.6094" rx="2.5" ry="2.5" style="stroke:#181818;stroke-width:0.5;" width="91" x="125" y="223.0156"/><text fill="#000000" font-family="sans-serif" font-size="14" lengthAdjust="spacing" textLength="77" x="132" y="244.5488">Vizualization</text><rect fill="#E2E2F0" height="31.6094" rx="2.5" ry="2.5" style="stroke:#181818;stroke-width:0.5;" width="137" x="226" y="50"/><text fill="#000000" font-family="sans-serif" font-size="14" lengthAdjust="spacing" textLength="123" x="233" y="71.5332">MasterDataBuilding</text><rect fill="#E2E2F0" height="31.6094" rx="2.5" ry="2.5" style="stroke:#181818;stroke-width:0.5;" width="137" x="226" y="223.0156"/><text fill="#000000" font-family="sans-serif" font-size="14" lengthAdjust="spacing" textLength="123" x="233" y="244.5488">MasterDataBuilding</text><rect fill="#FFFFFF" height="91.0547" style="stroke:#181818;stroke-width:1.0;" width="10" x="165.5" y="114.9609"/><rect fill="#FFFFFF" height="30.3516" style="stroke:#181818;stroke-width:1.0;" width="10" x="289.5" y="145.3125"/><polygon fill="#181818" points="153.5,110.9609,163.5,114.9609,153.5,118.9609,157.5,114.9609" style="stroke:#181818;stroke-width:1.0;"/><line style="stroke:#181818;stroke-width:1.0;" x1="60" x2="159.5" y1="114.9609" y2="114.9609"/><text fill="#000000" font-family="sans-serif" font-size="13" font-weight="bold" lengthAdjust="spacing" textLength="7" x="67" y="110.1045">1</text><text fill="#000000" font-family="sans-serif" font-size="13" lengthAdjust="spacing" textLength="67" x="78" y="110.1045">editBuilding</text><polygon fill="#181818" points="277.5,141.3125,287.5,145.3125,277.5,149.3125,281.5,145.3125" style="stroke:#181818;stroke-width:1.0;"/><line style="stroke:#181818;stroke-width:1.0;" x1="175.5" x2="283.5" y1="145.3125" y2="145.3125"/><text fill="#000000" font-family="sans-serif" font-size="13" font-weight="bold" lengthAdjust="spacing" textLength="7" x="182.5" y="140.4561">2</text><text fill="#000000" font-family="sans-serif" font-size="13" lengthAdjust="spacing" textLength="67" x="193.5" y="140.4561">editBuilding</text><polygon fill="#181818" points="186.5,171.6641,176.5,175.6641,186.5,179.6641,182.5,175.6641" style="stroke:#181818;stroke-width:1.0;"/><line style="stroke:#181818;stroke-width:1.0;stroke-dasharray:2.0,2.0;" x1="180.5" x2="293.5" y1="175.6641" y2="175.6641"/><text fill="#000000" font-family="sans-serif" font-size="13" font-weight="bold" lengthAdjust="spacing" textLength="7" x="192.5" y="170.8076">3</text><text fill="#000000" font-family="sans-serif" font-size="13" lengthAdjust="spacing" textLength="4" x="203.5" y="170.8076"> </text><polygon fill="#181818" points="71,202.0156,61,206.0156,71,210.0156,67,206.0156" style="stroke:#181818;stroke-width:1.0;"/><line style="stroke:#181818;stroke-width:1.0;stroke-dasharray:2.0,2.0;" x1="65" x2="169.5" y1="206.0156" y2="206.0156"/><text fill="#000000" font-family="sans-serif" font-size="13" font-weight="bold" lengthAdjust="spacing" textLength="7" x="77" y="201.1592">4</text><text fill="#000000" font-family="sans-serif" font-size="13" lengthAdjust="spacing" textLength="4" x="88" y="201.1592"> </text><!--MD5=[8defcc4d75796bc9c8339cd1857ab612]
@startuml processLevel1
'https://plantuml.com/sequence-diagram

autonumber
actor "Campus Manger" as CM
participant Vizualization
participant MasterDataBuilding

CM -> Vizualization : editBuilding
activate Vizualization

Vizualization -> MasterDataBuilding : editBuilding
activate MasterDataBuilding

MasterDataBuilding - -> Vizualization
deactivate MasterDataBuilding

Vizualization - -> CM
deactivate Vizualization

@enduml

@startuml processLevel1

autonumber
actor "Campus Manger" as CM
participant Vizualization
participant MasterDataBuilding

CM -> Vizualization : editBuilding
activate Vizualization

Vizualization -> MasterDataBuilding : editBuilding
activate MasterDataBuilding

MasterDataBuilding - -> Vizualization
deactivate MasterDataBuilding

Vizualization - -> CM
deactivate Vizualization

@enduml

PlantUML version 1.2022.7(Mon Aug 22 18:01:30 WEST 2022)
(GPL source distribution)
Java Runtime: Java(TM) SE Runtime Environment
JVM: Java HotSpot(TM) 64-Bit Server VM
Default Encoding: UTF-8
Language: en
Country: US
--></g></svg>