<?xml version="1.0" encoding="UTF-8" standalone="no"?><svg xmlns="http://www.w3.org/2000/svg" xmlns:xlink="http://www.w3.org/1999/xlink" contentStyleType="text/css" height="761px" preserveAspectRatio="none" style="width:1142px;height:761px;background:#FFFFFF;" version="1.1" viewBox="0 0 1142 761" width="1142px" zoomAndPan="magnify"><defs/><g><rect fill="#FFFFFF" height="637.0313" style="stroke:#181818;stroke-width:1.0;" width="10" x="170" y="69.9609"/><rect fill="#FFFFFF" height="576.3281" style="stroke:#181818;stroke-width:1.0;" width="10" x="355" y="100.3125"/><rect fill="#FFFFFF" height="515.625" style="stroke:#181818;stroke-width:1.0;" width="10" x="540" y="130.6641"/><rect fill="#FFFFFF" height="333.5156" style="stroke:#181818;stroke-width:1.0;" width="10" x="724" y="252.0703"/><rect fill="#FFFFFF" height="242.8125" style="stroke:#181818;stroke-width:1.0;" width="10" x="808" y="221.7188"/><rect fill="#FFFFFF" height="60.3516" style="stroke:#181818;stroke-width:1.0;" width="10" x="808" y="555.5859"/><rect fill="#FFFFFF" height="364.2188" style="stroke:#181818;stroke-width:1.0;" width="10" x="972" y="161.0156"/><rect fill="#FFFFFF" height="303.5156" style="stroke:#181818;stroke-width:1.0;" width="10" x="1082" y="191.3672"/><line style="stroke:#181818;stroke-width:0.5;stroke-dasharray:5.0,5.0;" x1="175" x2="175" y1="37.6094" y2="724.9922"/><line style="stroke:#181818;stroke-width:0.5;stroke-dasharray:5.0,5.0;" x1="360" x2="360" y1="37.6094" y2="724.9922"/><line style="stroke:#181818;stroke-width:0.5;stroke-dasharray:5.0,5.0;" x1="544.5" x2="544.5" y1="37.6094" y2="724.9922"/><line style="stroke:#181818;stroke-width:0.5;stroke-dasharray:5.0,5.0;" x1="728.5" x2="728.5" y1="37.6094" y2="724.9922"/><line style="stroke:#181818;stroke-width:0.5;stroke-dasharray:5.0,5.0;" x1="812.5" x2="812.5" y1="37.6094" y2="724.9922"/><line style="stroke:#181818;stroke-width:0.5;stroke-dasharray:5.0,5.0;" x1="976.5" x2="976.5" y1="37.6094" y2="724.9922"/><line style="stroke:#181818;stroke-width:0.5;stroke-dasharray:5.0,5.0;" x1="1087" x2="1087" y1="37.6094" y2="724.9922"/><rect fill="#E2E2F0" height="31.6094" rx="2.5" ry="2.5" style="stroke:#181818;stroke-width:0.5;" width="156" x="97" y="5"/><text fill="#000000" font-family="sans-serif" font-size="14" lengthAdjust="spacing" textLength="142" x="104" y="26.5332">UploadFloorMapRoute</text><rect fill="#E2E2F0" height="31.6094" rx="2.5" ry="2.5" style="stroke:#181818;stroke-width:0.5;" width="156" x="97" y="723.9922"/><text fill="#000000" font-family="sans-serif" font-size="14" lengthAdjust="spacing" textLength="142" x="104" y="745.5254">UploadFloorMapRoute</text><rect fill="#E2E2F0" height="31.6094" rx="2.5" ry="2.5" style="stroke:#181818;stroke-width:0.5;" width="180" x="270" y="5"/><text fill="#000000" font-family="sans-serif" font-size="14" lengthAdjust="spacing" textLength="166" x="277" y="26.5332">UploadFloorMapController</text><rect fill="#E2E2F0" height="31.6094" rx="2.5" ry="2.5" style="stroke:#181818;stroke-width:0.5;" width="180" x="270" y="723.9922"/><text fill="#000000" font-family="sans-serif" font-size="14" lengthAdjust="spacing" textLength="166" x="277" y="745.5254">UploadFloorMapController</text><rect fill="#E2E2F0" height="31.6094" rx="2.5" ry="2.5" style="stroke:#181818;stroke-width:0.5;" width="165" x="462.5" y="5"/><text fill="#000000" font-family="sans-serif" font-size="14" lengthAdjust="spacing" textLength="151" x="469.5" y="26.5332">UploadFloorMapService</text><rect fill="#E2E2F0" height="31.6094" rx="2.5" ry="2.5" style="stroke:#181818;stroke-width:0.5;" width="165" x="462.5" y="723.9922"/><text fill="#000000" font-family="sans-serif" font-size="14" lengthAdjust="spacing" textLength="151" x="469.5" y="745.5254">UploadFloorMapService</text><rect fill="#E2E2F0" height="31.6094" rx="2.5" ry="2.5" style="stroke:#181818;stroke-width:0.5;" width="47" x="705.5" y="5"/><text fill="#000000" font-family="sans-serif" font-size="14" lengthAdjust="spacing" textLength="33" x="712.5" y="26.5332">Floor</text><rect fill="#E2E2F0" height="31.6094" rx="2.5" ry="2.5" style="stroke:#181818;stroke-width:0.5;" width="47" x="705.5" y="723.9922"/><text fill="#000000" font-family="sans-serif" font-size="14" lengthAdjust="spacing" textLength="33" x="712.5" y="745.5254">Floor</text><rect fill="#E2E2F0" height="31.6094" rx="2.5" ry="2.5" style="stroke:#181818;stroke-width:0.5;" width="87" x="769.5" y="5"/><text fill="#000000" font-family="sans-serif" font-size="14" lengthAdjust="spacing" textLength="73" x="776.5" y="26.5332">FloorMaper</text><rect fill="#E2E2F0" height="31.6094" rx="2.5" ry="2.5" style="stroke:#181818;stroke-width:0.5;" width="87" x="769.5" y="723.9922"/><text fill="#000000" font-family="sans-serif" font-size="14" lengthAdjust="spacing" textLength="73" x="776.5" y="745.5254">FloorMaper</text><rect fill="#E2E2F0" height="31.6094" rx="2.5" ry="2.5" style="stroke:#181818;stroke-width:0.5;" width="81" x="936.5" y="5"/><text fill="#000000" font-family="sans-serif" font-size="14" lengthAdjust="spacing" textLength="67" x="943.5" y="26.5332">FloorRepo</text><rect fill="#E2E2F0" height="31.6094" rx="2.5" ry="2.5" style="stroke:#181818;stroke-width:0.5;" width="81" x="936.5" y="723.9922"/><text fill="#000000" font-family="sans-serif" font-size="14" lengthAdjust="spacing" textLength="67" x="943.5" y="745.5254">FloorRepo</text><rect fill="#E2E2F0" height="31.6094" rx="2.5" ry="2.5" style="stroke:#181818;stroke-width:0.5;" width="98" x="1038" y="5"/><text fill="#000000" font-family="sans-serif" font-size="14" lengthAdjust="spacing" textLength="84" x="1045" y="26.5332">FloorSchema</text><rect fill="#E2E2F0" height="31.6094" rx="2.5" ry="2.5" style="stroke:#181818;stroke-width:0.5;" width="98" x="1038" y="723.9922"/><text fill="#000000" font-family="sans-serif" font-size="14" lengthAdjust="spacing" textLength="84" x="1045" y="745.5254">FloorSchema</text><rect fill="#FFFFFF" height="637.0313" style="stroke:#181818;stroke-width:1.0;" width="10" x="170" y="69.9609"/><rect fill="#FFFFFF" height="576.3281" style="stroke:#181818;stroke-width:1.0;" width="10" x="355" y="100.3125"/><rect fill="#FFFFFF" height="515.625" style="stroke:#181818;stroke-width:1.0;" width="10" x="540" y="130.6641"/><rect fill="#FFFFFF" height="333.5156" style="stroke:#181818;stroke-width:1.0;" width="10" x="724" y="252.0703"/><rect fill="#FFFFFF" height="242.8125" style="stroke:#181818;stroke-width:1.0;" width="10" x="808" y="221.7188"/><rect fill="#FFFFFF" height="60.3516" style="stroke:#181818;stroke-width:1.0;" width="10" x="808" y="555.5859"/><rect fill="#FFFFFF" height="364.2188" style="stroke:#181818;stroke-width:1.0;" width="10" x="972" y="161.0156"/><rect fill="#FFFFFF" height="303.5156" style="stroke:#181818;stroke-width:1.0;" width="10" x="1082" y="191.3672"/><ellipse cx="4.5" cy="69.2109" fill="none" rx="4" ry="4" style="stroke:#181818;stroke-width:1.5;"/><polygon fill="#181818" points="158,65.9609,168,69.9609,158,73.9609,162,69.9609" style="stroke:#181818;stroke-width:1.0;"/><line style="stroke:#181818;stroke-width:1.0;" x1="9" x2="164" y1="69.9609" y2="69.9609"/><text fill="#000000" font-family="sans-serif" font-size="13" font-weight="bold" lengthAdjust="spacing" textLength="7" x="12" y="65.1045">1</text><text fill="#000000" font-family="sans-serif" font-size="13" lengthAdjust="spacing" textLength="132" x="23" y="65.1045">patch /uploadFloorMap</text><polygon fill="#181818" points="343,96.3125,353,100.3125,343,104.3125,347,100.3125" style="stroke:#181818;stroke-width:1.0;"/><line style="stroke:#181818;stroke-width:1.0;" x1="180" x2="349" y1="100.3125" y2="100.3125"/><text fill="#000000" font-family="sans-serif" font-size="13" font-weight="bold" lengthAdjust="spacing" textLength="7" x="187" y="95.4561">2</text><text fill="#000000" font-family="sans-serif" font-size="13" lengthAdjust="spacing" textLength="145" x="198" y="95.4561">uploadFloorMap(mapDto)</text><polygon fill="#181818" points="528,126.6641,538,130.6641,528,134.6641,532,130.6641" style="stroke:#181818;stroke-width:1.0;"/><line style="stroke:#181818;stroke-width:1.0;" x1="365" x2="534" y1="130.6641" y2="130.6641"/><text fill="#000000" font-family="sans-serif" font-size="13" font-weight="bold" lengthAdjust="spacing" textLength="7" x="372" y="125.8076">3</text><text fill="#000000" font-family="sans-serif" font-size="13" lengthAdjust="spacing" textLength="145" x="383" y="125.8076">uploadFloorMap(mapDto)</text><polygon fill="#181818" points="960,157.0156,970,161.0156,960,165.0156,964,161.0156" style="stroke:#181818;stroke-width:1.0;"/><line style="stroke:#181818;stroke-width:1.0;" x1="550" x2="966" y1="161.0156" y2="161.0156"/><text fill="#000000" font-family="sans-serif" font-size="13" font-weight="bold" lengthAdjust="spacing" textLength="7" x="557" y="156.1592">4</text><text fill="#000000" font-family="sans-serif" font-size="13" lengthAdjust="spacing" textLength="88" x="568" y="156.1592">findById(floorId)</text><polygon fill="#181818" points="1070,187.3672,1080,191.3672,1070,195.3672,1074,191.3672" style="stroke:#181818;stroke-width:1.0;"/><line style="stroke:#181818;stroke-width:1.0;" x1="982" x2="1076" y1="191.3672" y2="191.3672"/><text fill="#000000" font-family="sans-serif" font-size="13" font-weight="bold" lengthAdjust="spacing" textLength="7" x="989" y="186.5107">5</text><text fill="#000000" font-family="sans-serif" font-size="13" lengthAdjust="spacing" textLength="28" x="1000" y="186.5107">find()</text><polygon fill="#181818" points="829,217.7188,819,221.7188,829,225.7188,825,221.7188" style="stroke:#181818;stroke-width:1.0;"/><line style="stroke:#181818;stroke-width:1.0;" x1="823" x2="971" y1="221.7188" y2="221.7188"/><text fill="#000000" font-family="sans-serif" font-size="13" font-weight="bold" lengthAdjust="spacing" textLength="7" x="835" y="216.8623">6</text><text fill="#000000" font-family="sans-serif" font-size="13" lengthAdjust="spacing" textLength="112" x="846" y="216.8623">toDomain(floorRaw)</text><polygon fill="#181818" points="745,248.0703,735,252.0703,745,256.0703,741,252.0703" style="stroke:#181818;stroke-width:1.0;"/><line style="stroke:#181818;stroke-width:1.0;" x1="739" x2="807" y1="252.0703" y2="252.0703"/><text fill="#000000" font-family="sans-serif" font-size="13" font-weight="bold" lengthAdjust="spacing" textLength="7" x="751" y="247.2139">7</text><text fill="#000000" font-family="sans-serif" font-size="13" lengthAdjust="spacing" textLength="44" x="762" y="247.2139">create()</text><polygon fill="#181818" points="796,278.4219,806,282.4219,796,286.4219,800,282.4219" style="stroke:#181818;stroke-width:1.0;"/><line style="stroke:#181818;stroke-width:1.0;stroke-dasharray:2.0,2.0;" x1="734" x2="802" y1="282.4219" y2="282.4219"/><text fill="#000000" font-family="sans-serif" font-size="13" font-weight="bold" lengthAdjust="spacing" textLength="7" x="741" y="277.5654">8</text><text fill="#000000" font-family="sans-serif" font-size="13" lengthAdjust="spacing" textLength="4" x="752" y="277.5654"> </text><polygon fill="#181818" points="960,308.7734,970,312.7734,960,316.7734,964,312.7734" style="stroke:#181818;stroke-width:1.0;"/><line style="stroke:#181818;stroke-width:1.0;stroke-dasharray:2.0,2.0;" x1="818" x2="966" y1="312.7734" y2="312.7734"/><text fill="#000000" font-family="sans-serif" font-size="13" font-weight="bold" lengthAdjust="spacing" textLength="7" x="825" y="307.917">9</text><text fill="#000000" font-family="sans-serif" font-size="13" lengthAdjust="spacing" textLength="4" x="836" y="307.917"> </text><polygon fill="#181818" points="561,339.125,551,343.125,561,347.125,557,343.125" style="stroke:#181818;stroke-width:1.0;"/><line style="stroke:#181818;stroke-width:1.0;stroke-dasharray:2.0,2.0;" x1="555" x2="971" y1="343.125" y2="343.125"/><text fill="#000000" font-family="sans-serif" font-size="13" font-weight="bold" lengthAdjust="spacing" textLength="14" x="567" y="338.2686">10</text><text fill="#000000" font-family="sans-serif" font-size="13" lengthAdjust="spacing" textLength="4" x="585" y="338.2686"> </text><polygon fill="#181818" points="712,369.4766,722,373.4766,712,377.4766,716,373.4766" style="stroke:#181818;stroke-width:1.0;"/><line style="stroke:#181818;stroke-width:1.0;" x1="550" x2="718" y1="373.4766" y2="373.4766"/><text fill="#000000" font-family="sans-serif" font-size="13" font-weight="bold" lengthAdjust="spacing" textLength="14" x="557" y="368.6201">11</text><text fill="#000000" font-family="sans-serif" font-size="13" lengthAdjust="spacing" textLength="132" x="575" y="368.6201">addFloorMap(floorMap)</text><polygon fill="#181818" points="960,399.8281,970,403.8281,960,407.8281,964,403.8281" style="stroke:#181818;stroke-width:1.0;"/><line style="stroke:#181818;stroke-width:1.0;" x1="550" x2="966" y1="403.8281" y2="403.8281"/><text fill="#000000" font-family="sans-serif" font-size="13" font-weight="bold" lengthAdjust="spacing" textLength="14" x="557" y="398.9717">12</text><text fill="#000000" font-family="sans-serif" font-size="13" lengthAdjust="spacing" textLength="58" x="575" y="398.9717">save(floor)</text><polygon fill="#181818" points="829,430.1797,819,434.1797,829,438.1797,825,434.1797" style="stroke:#181818;stroke-width:1.0;"/><line style="stroke:#181818;stroke-width:1.0;" x1="823" x2="971" y1="434.1797" y2="434.1797"/><text fill="#000000" font-family="sans-serif" font-size="13" font-weight="bold" lengthAdjust="spacing" textLength="14" x="835" y="429.3232">13</text><text fill="#000000" font-family="sans-serif" font-size="13" lengthAdjust="spacing" textLength="112" x="853" y="429.3232">toPersistence(floor)</text><polygon fill="#181818" points="960,460.5313,970,464.5313,960,468.5313,964,464.5313" style="stroke:#181818;stroke-width:1.0;"/><line style="stroke:#181818;stroke-width:1.0;stroke-dasharray:2.0,2.0;" x1="813" x2="966" y1="464.5313" y2="464.5313"/><text fill="#000000" font-family="sans-serif" font-size="13" font-weight="bold" lengthAdjust="spacing" textLength="14" x="820" y="459.6748">14</text><text fill="#000000" font-family="sans-serif" font-size="13" lengthAdjust="spacing" textLength="4" x="838" y="459.6748"> </text><polygon fill="#181818" points="1075,490.8828,1085,494.8828,1075,498.8828,1079,494.8828" style="stroke:#181818;stroke-width:1.0;"/><line style="stroke:#181818;stroke-width:1.0;" x1="982" x2="1081" y1="494.8828" y2="494.8828"/><text fill="#000000" font-family="sans-serif" font-size="13" font-weight="bold" lengthAdjust="spacing" textLength="14" x="989" y="490.0264">15</text><text fill="#000000" font-family="sans-serif" font-size="13" lengthAdjust="spacing" textLength="58" x="1007" y="490.0264">save(floor)</text><polygon fill="#181818" points="561,521.2344,551,525.2344,561,529.2344,557,525.2344" style="stroke:#181818;stroke-width:1.0;"/><line style="stroke:#181818;stroke-width:1.0;stroke-dasharray:2.0,2.0;" x1="555" x2="976" y1="525.2344" y2="525.2344"/><text fill="#000000" font-family="sans-serif" font-size="13" font-weight="bold" lengthAdjust="spacing" textLength="14" x="567" y="520.3779">16</text><text fill="#000000" font-family="sans-serif" font-size="13" lengthAdjust="spacing" textLength="4" x="585" y="520.3779"> </text><polygon fill="#181818" points="796,551.5859,806,555.5859,796,559.5859,800,555.5859" style="stroke:#181818;stroke-width:1.0;"/><line style="stroke:#181818;stroke-width:1.0;" x1="550" x2="802" y1="555.5859" y2="555.5859"/><text fill="#000000" font-family="sans-serif" font-size="13" font-weight="bold" lengthAdjust="spacing" textLength="14" x="557" y="550.7295">17</text><text fill="#000000" font-family="sans-serif" font-size="13" lengthAdjust="spacing" textLength="63" x="575" y="550.7295">toDto(floor)</text><polygon fill="#181818" points="561,611.9375,551,615.9375,561,619.9375,557,615.9375" style="stroke:#181818;stroke-width:1.0;"/><line style="stroke:#181818;stroke-width:1.0;stroke-dasharray:2.0,2.0;" x1="555" x2="812" y1="615.9375" y2="615.9375"/><text fill="#000000" font-family="sans-serif" font-size="13" font-weight="bold" lengthAdjust="spacing" textLength="14" x="567" y="611.0811">18</text><text fill="#000000" font-family="sans-serif" font-size="13" lengthAdjust="spacing" textLength="4" x="585" y="611.0811"> </text><polygon fill="#181818" points="376,642.2891,366,646.2891,376,650.2891,372,646.2891" style="stroke:#181818;stroke-width:1.0;"/><line style="stroke:#181818;stroke-width:1.0;stroke-dasharray:2.0,2.0;" x1="370" x2="544" y1="646.2891" y2="646.2891"/><text fill="#000000" font-family="sans-serif" font-size="13" font-weight="bold" lengthAdjust="spacing" textLength="14" x="382" y="641.4326">19</text><text fill="#000000" font-family="sans-serif" font-size="13" lengthAdjust="spacing" textLength="4" x="400" y="641.4326"> </text><polygon fill="#181818" points="191,672.6406,181,676.6406,191,680.6406,187,676.6406" style="stroke:#181818;stroke-width:1.0;"/><line style="stroke:#181818;stroke-width:1.0;stroke-dasharray:2.0,2.0;" x1="185" x2="359" y1="676.6406" y2="676.6406"/><text fill="#000000" font-family="sans-serif" font-size="13" font-weight="bold" lengthAdjust="spacing" textLength="14" x="197" y="671.7842">20</text><text fill="#000000" font-family="sans-serif" font-size="13" lengthAdjust="spacing" textLength="4" x="215" y="671.7842"> </text><polygon fill="#181818" points="11,702.9922,1,706.9922,11,710.9922,7,706.9922" style="stroke:#181818;stroke-width:1.0;"/><line style="stroke:#181818;stroke-width:1.0;stroke-dasharray:2.0,2.0;" x1="5" x2="174" y1="706.9922" y2="706.9922"/><text fill="#000000" font-family="sans-serif" font-size="13" font-weight="bold" lengthAdjust="spacing" textLength="14" x="17" y="702.1357">21</text><text fill="#000000" font-family="sans-serif" font-size="13" lengthAdjust="spacing" textLength="4" x="35" y="702.1357"> </text><!--MD5=[cefdd20740763983658301a7466b5155]
@startuml ProcessViewLevel3
'https://plantuml.com/sequence-diagram

autonumber
participant UploadFloorMapRoute
participant UploadFloorMapController
participant UploadFloorMapService
participant Floor
participant FloorMaper
participant FloorRepo
participant FloorSchema

?o->UploadFloorMapRoute : patch /uploadFloorMap
activate UploadFloorMapRoute

UploadFloorMapRoute -> UploadFloorMapController : uploadFloorMap(mapDto)
activate UploadFloorMapController

UploadFloorMapController -> UploadFloorMapService : uploadFloorMap(mapDto)
activate UploadFloorMapService

UploadFloorMapService -> FloorRepo : findById(floorId)
activate FloorRepo

FloorRepo -> FloorSchema : find()
activate FloorSchema

FloorRepo -> FloorMaper : toDomain(floorRaw)
activate FloorMaper

FloorMaper -> Floor : create()
activate Floor

Floor - -> FloorMaper

FloorMaper - -> FloorRepo : 

FloorRepo - -> UploadFloorMapService

UploadFloorMapService -> Floor : addFloorMap(floorMap)


UploadFloorMapService -> FloorRepo : save(floor)

FloorRepo -> FloorMaper : toPersistence(floor)

FloorMaper - -> FloorRepo 
deactivate FloorMaper

FloorRepo -> FloorSchema : save(floor)
deactivate FloorSchema

FloorRepo - -> UploadFloorMapService
deactivate FloorRepo

UploadFloorMapService -> FloorMaper : toDto(floor)
activate FloorMaper
deactivate Floor

FloorMaper - -> UploadFloorMapService
deactivate FloorMaper

UploadFloorMapService - -> UploadFloorMapController
deactivate UploadFloorMapService

UploadFloorMapController - -> UploadFloorMapRoute
deactivate UploadFloorMapController

<- - UploadFloorMapRoute
deactivate UploadFloorMapRoute

@enduml

@startuml ProcessViewLevel3

autonumber
participant UploadFloorMapRoute
participant UploadFloorMapController
participant UploadFloorMapService
participant Floor
participant FloorMaper
participant FloorRepo
participant FloorSchema

?o->UploadFloorMapRoute : patch /uploadFloorMap
activate UploadFloorMapRoute

UploadFloorMapRoute -> UploadFloorMapController : uploadFloorMap(mapDto)
activate UploadFloorMapController

UploadFloorMapController -> UploadFloorMapService : uploadFloorMap(mapDto)
activate UploadFloorMapService

UploadFloorMapService -> FloorRepo : findById(floorId)
activate FloorRepo

FloorRepo -> FloorSchema : find()
activate FloorSchema

FloorRepo -> FloorMaper : toDomain(floorRaw)
activate FloorMaper

FloorMaper -> Floor : create()
activate Floor

Floor - -> FloorMaper

FloorMaper - -> FloorRepo : 

FloorRepo - -> UploadFloorMapService

UploadFloorMapService -> Floor : addFloorMap(floorMap)


UploadFloorMapService -> FloorRepo : save(floor)

FloorRepo -> FloorMaper : toPersistence(floor)

FloorMaper - -> FloorRepo 
deactivate FloorMaper

FloorRepo -> FloorSchema : save(floor)
deactivate FloorSchema

FloorRepo - -> UploadFloorMapService
deactivate FloorRepo

UploadFloorMapService -> FloorMaper : toDto(floor)
activate FloorMaper
deactivate Floor

FloorMaper - -> UploadFloorMapService
deactivate FloorMaper

UploadFloorMapService - -> UploadFloorMapController
deactivate UploadFloorMapService

UploadFloorMapController - -> UploadFloorMapRoute
deactivate UploadFloorMapController

<- - UploadFloorMapRoute
deactivate UploadFloorMapRoute

@enduml

PlantUML version 1.2022.7(Mon Aug 22 18:01:30 WEST 2022)
(GPL source distribution)
Java Runtime: Java(TM) SE Runtime Environment
JVM: Java HotSpot(TM) 64-Bit Server VM
Default Encoding: UTF-8
Language: en
Country: US
--></g></svg>