<?xml version="1.0" encoding="UTF-8" standalone="no"?><svg xmlns="http://www.w3.org/2000/svg" xmlns:xlink="http://www.w3.org/1999/xlink" contentStyleType="text/css" height="1094px" preserveAspectRatio="none" style="width:1625px;height:1094px;background:#FFFFFF;" version="1.1" viewBox="0 0 1625 1094" width="1625px" zoomAndPan="magnify"><defs/><g><rect fill="#FFFFFF" height="970.1953" style="stroke:#181818;stroke-width:1.0;" width="10" x="170" y="69.9609"/><rect fill="#FFFFFF" height="909.4922" style="stroke:#181818;stroke-width:1.0;" width="10" x="355" y="100.3125"/><rect fill="#FFFFFF" height="848.7891" style="stroke:#181818;stroke-width:1.0;" width="10" x="540" y="130.6641"/><rect fill="#FFFFFF" height="30.3516" style="stroke:#181818;stroke-width:1.0;" width="10" x="735" y="524.8828"/><rect fill="#FFFFFF" height="30" style="stroke:#181818;stroke-width:1.0;" width="10" x="735" y="646.2891"/><rect fill="#FFFFFF" height="91.0547" style="stroke:#181818;stroke-width:1.0;" width="10" x="818" y="494.5313"/><rect fill="#FFFFFF" height="30.3516" style="stroke:#181818;stroke-width:1.0;" width="10" x="818" y="736.9922"/><rect fill="#FFFFFF" height="60.7031" style="stroke:#181818;stroke-width:1.0;" width="10" x="818" y="888.3984"/><rect fill="#FFFFFF" height="212.4609" style="stroke:#181818;stroke-width:1.0;" width="10" x="999" y="403.4766"/><rect fill="#FFFFFF" height="151.4063" style="stroke:#181818;stroke-width:1.0;" width="10" x="999" y="706.6406"/><rect fill="#FFFFFF" height="30.3516" style="stroke:#181818;stroke-width:1.0;" width="10" x="1110" y="433.8281"/><rect fill="#FFFFFF" height="30" style="stroke:#181818;stroke-width:1.0;" width="10" x="1110" y="797.6953"/><rect fill="#FFFFFF" height="30.3516" style="stroke:#181818;stroke-width:1.0;" width="10" x="1212.5" y="282.0703"/><rect fill="#FFFFFF" height="91.0547" style="stroke:#181818;stroke-width:1.0;" width="10" x="1306.5" y="251.7188"/><rect fill="#FFFFFF" height="212.1094" style="stroke:#181818;stroke-width:1.0;" width="10" x="1417.5" y="161.0156"/><rect fill="#FFFFFF" height="30" style="stroke:#181818;stroke-width:1.0;" width="10" x="1545.5" y="191.3672"/><line style="stroke:#181818;stroke-width:0.5;stroke-dasharray:5.0,5.0;" x1="175" x2="175" y1="37.6094" y2="1058.1563"/><line style="stroke:#181818;stroke-width:0.5;stroke-dasharray:5.0,5.0;" x1="360" x2="360" y1="37.6094" y2="1058.1563"/><line style="stroke:#181818;stroke-width:0.5;stroke-dasharray:5.0,5.0;" x1="544.5" x2="544.5" y1="37.6094" y2="1058.1563"/><line style="stroke:#181818;stroke-width:0.5;stroke-dasharray:5.0,5.0;" x1="739.5" x2="739.5" y1="37.6094" y2="1058.1563"/><line style="stroke:#181818;stroke-width:0.5;stroke-dasharray:5.0,5.0;" x1="822.5" x2="822.5" y1="37.6094" y2="1058.1563"/><line style="stroke:#181818;stroke-width:0.5;stroke-dasharray:5.0,5.0;" x1="914.5" x2="914.5" y1="37.6094" y2="1058.1563"/><line style="stroke:#181818;stroke-width:0.5;stroke-dasharray:5.0,5.0;" x1="1003.5" x2="1003.5" y1="37.6094" y2="1058.1563"/><line style="stroke:#181818;stroke-width:0.5;stroke-dasharray:5.0,5.0;" x1="1114.5" x2="1114.5" y1="37.6094" y2="1058.1563"/><line style="stroke:#181818;stroke-width:0.5;stroke-dasharray:5.0,5.0;" x1="1217.5" x2="1217.5" y1="37.6094" y2="1058.1563"/><line style="stroke:#181818;stroke-width:0.5;stroke-dasharray:5.0,5.0;" x1="1311.5" x2="1311.5" y1="37.6094" y2="1058.1563"/><line style="stroke:#181818;stroke-width:0.5;stroke-dasharray:5.0,5.0;" x1="1422.5" x2="1422.5" y1="37.6094" y2="1058.1563"/><line style="stroke:#181818;stroke-width:0.5;stroke-dasharray:5.0,5.0;" x1="1550.5" x2="1550.5" y1="37.6094" y2="1058.1563"/><rect fill="#E2E2F0" height="31.6094" rx="2.5" ry="2.5" style="stroke:#181818;stroke-width:0.5;" width="144" x="103" y="5"/><text fill="#000000" font-family="sans-serif" font-size="14" lengthAdjust="spacing" textLength="130" x="110" y="26.5332">LoadFloorMapRoute</text><rect fill="#E2E2F0" height="31.6094" rx="2.5" ry="2.5" style="stroke:#181818;stroke-width:0.5;" width="144" x="103" y="1057.1563"/><text fill="#000000" font-family="sans-serif" font-size="14" lengthAdjust="spacing" textLength="130" x="110" y="1078.6895">LoadFloorMapRoute</text><rect fill="#E2E2F0" height="31.6094" rx="2.5" ry="2.5" style="stroke:#181818;stroke-width:0.5;" width="168" x="276" y="5"/><text fill="#000000" font-family="sans-serif" font-size="14" lengthAdjust="spacing" textLength="154" x="283" y="26.5332">LoadFloorMapController</text><rect fill="#E2E2F0" height="31.6094" rx="2.5" ry="2.5" style="stroke:#181818;stroke-width:0.5;" width="168" x="276" y="1057.1563"/><text fill="#000000" font-family="sans-serif" font-size="14" lengthAdjust="spacing" textLength="154" x="283" y="1078.6895">LoadFloorMapController</text><rect fill="#E2E2F0" height="31.6094" rx="2.5" ry="2.5" style="stroke:#181818;stroke-width:0.5;" width="153" x="468.5" y="5"/><text fill="#000000" font-family="sans-serif" font-size="14" lengthAdjust="spacing" textLength="139" x="475.5" y="26.5332">LoadFloorMapService</text><rect fill="#E2E2F0" height="31.6094" rx="2.5" ry="2.5" style="stroke:#181818;stroke-width:0.5;" width="153" x="468.5" y="1057.1563"/><text fill="#000000" font-family="sans-serif" font-size="14" lengthAdjust="spacing" textLength="139" x="475.5" y="1078.6895">LoadFloorMapService</text><rect fill="#E2E2F0" height="31.6094" rx="2.5" ry="2.5" style="stroke:#181818;stroke-width:0.5;" width="47" x="716.5" y="5"/><text fill="#000000" font-family="sans-serif" font-size="14" lengthAdjust="spacing" textLength="33" x="723.5" y="26.5332">Floor</text><rect fill="#E2E2F0" height="31.6094" rx="2.5" ry="2.5" style="stroke:#181818;stroke-width:0.5;" width="47" x="716.5" y="1057.1563"/><text fill="#000000" font-family="sans-serif" font-size="14" lengthAdjust="spacing" textLength="33" x="723.5" y="1078.6895">Floor</text><rect fill="#E2E2F0" height="31.6094" rx="2.5" ry="2.5" style="stroke:#181818;stroke-width:0.5;" width="87" x="779.5" y="5"/><text fill="#000000" font-family="sans-serif" font-size="14" lengthAdjust="spacing" textLength="73" x="786.5" y="26.5332">FloorMaper</text><rect fill="#E2E2F0" height="31.6094" rx="2.5" ry="2.5" style="stroke:#181818;stroke-width:0.5;" width="87" x="779.5" y="1057.1563"/><text fill="#000000" font-family="sans-serif" font-size="14" lengthAdjust="spacing" textLength="73" x="786.5" y="1078.6895">FloorMaper</text><rect fill="#E2E2F0" height="31.6094" rx="2.5" ry="2.5" style="stroke:#181818;stroke-width:0.5;" width="77" x="876.5" y="5"/><text fill="#000000" font-family="sans-serif" font-size="14" lengthAdjust="spacing" textLength="63" x="883.5" y="26.5332">FloorDTO</text><rect fill="#E2E2F0" height="31.6094" rx="2.5" ry="2.5" style="stroke:#181818;stroke-width:0.5;" width="77" x="876.5" y="1057.1563"/><text fill="#000000" font-family="sans-serif" font-size="14" lengthAdjust="spacing" textLength="63" x="883.5" y="1078.6895">FloorDTO</text><rect fill="#E2E2F0" height="31.6094" rx="2.5" ry="2.5" style="stroke:#181818;stroke-width:0.5;" width="81" x="963.5" y="5"/><text fill="#000000" font-family="sans-serif" font-size="14" lengthAdjust="spacing" textLength="67" x="970.5" y="26.5332">FloorRepo</text><rect fill="#E2E2F0" height="31.6094" rx="2.5" ry="2.5" style="stroke:#181818;stroke-width:0.5;" width="81" x="963.5" y="1057.1563"/><text fill="#000000" font-family="sans-serif" font-size="14" lengthAdjust="spacing" textLength="67" x="970.5" y="1078.6895">FloorRepo</text><rect fill="#E2E2F0" height="31.6094" rx="2.5" ry="2.5" style="stroke:#181818;stroke-width:0.5;" width="121" x="1054.5" y="5"/><text fill="#000000" font-family="sans-serif" font-size="14" lengthAdjust="spacing" textLength="107" x="1061.5" y="26.5332">FloorPersistence</text><rect fill="#E2E2F0" height="31.6094" rx="2.5" ry="2.5" style="stroke:#181818;stroke-width:0.5;" width="121" x="1054.5" y="1057.1563"/><text fill="#000000" font-family="sans-serif" font-size="14" lengthAdjust="spacing" textLength="107" x="1061.5" y="1078.6895">FloorPersistence</text><rect fill="#E2E2F0" height="31.6094" rx="2.5" ry="2.5" style="stroke:#181818;stroke-width:0.5;" width="64" x="1185.5" y="5"/><text fill="#000000" font-family="sans-serif" font-size="14" lengthAdjust="spacing" textLength="50" x="1192.5" y="26.5332">Building</text><rect fill="#E2E2F0" height="31.6094" rx="2.5" ry="2.5" style="stroke:#181818;stroke-width:0.5;" width="64" x="1185.5" y="1057.1563"/><text fill="#000000" font-family="sans-serif" font-size="14" lengthAdjust="spacing" textLength="50" x="1192.5" y="1078.6895">Building</text><rect fill="#E2E2F0" height="31.6094" rx="2.5" ry="2.5" style="stroke:#181818;stroke-width:0.5;" width="104" x="1259.5" y="5"/><text fill="#000000" font-family="sans-serif" font-size="14" lengthAdjust="spacing" textLength="90" x="1266.5" y="26.5332">BuildingMaper</text><rect fill="#E2E2F0" height="31.6094" rx="2.5" ry="2.5" style="stroke:#181818;stroke-width:0.5;" width="104" x="1259.5" y="1057.1563"/><text fill="#000000" font-family="sans-serif" font-size="14" lengthAdjust="spacing" textLength="90" x="1266.5" y="1078.6895">BuildingMaper</text><rect fill="#E2E2F0" height="31.6094" rx="2.5" ry="2.5" style="stroke:#181818;stroke-width:0.5;" width="98" x="1373.5" y="5"/><text fill="#000000" font-family="sans-serif" font-size="14" lengthAdjust="spacing" textLength="84" x="1380.5" y="26.5332">BuildingRepo</text><rect fill="#E2E2F0" height="31.6094" rx="2.5" ry="2.5" style="stroke:#181818;stroke-width:0.5;" width="98" x="1373.5" y="1057.1563"/><text fill="#000000" font-family="sans-serif" font-size="14" lengthAdjust="spacing" textLength="84" x="1380.5" y="1078.6895">BuildingRepo</text><rect fill="#E2E2F0" height="31.6094" rx="2.5" ry="2.5" style="stroke:#181818;stroke-width:0.5;" width="138" x="1481.5" y="5"/><text fill="#000000" font-family="sans-serif" font-size="14" lengthAdjust="spacing" textLength="124" x="1488.5" y="26.5332">BuildingPersistence</text><rect fill="#E2E2F0" height="31.6094" rx="2.5" ry="2.5" style="stroke:#181818;stroke-width:0.5;" width="138" x="1481.5" y="1057.1563"/><text fill="#000000" font-family="sans-serif" font-size="14" lengthAdjust="spacing" textLength="124" x="1488.5" y="1078.6895">BuildingPersistence</text><rect fill="#FFFFFF" height="970.1953" style="stroke:#181818;stroke-width:1.0;" width="10" x="170" y="69.9609"/><rect fill="#FFFFFF" height="909.4922" style="stroke:#181818;stroke-width:1.0;" width="10" x="355" y="100.3125"/><rect fill="#FFFFFF" height="848.7891" style="stroke:#181818;stroke-width:1.0;" width="10" x="540" y="130.6641"/><rect fill="#FFFFFF" height="30.3516" style="stroke:#181818;stroke-width:1.0;" width="10" x="735" y="524.8828"/><rect fill="#FFFFFF" height="30" style="stroke:#181818;stroke-width:1.0;" width="10" x="735" y="646.2891"/><rect fill="#FFFFFF" height="91.0547" style="stroke:#181818;stroke-width:1.0;" width="10" x="818" y="494.5313"/><rect fill="#FFFFFF" height="30.3516" style="stroke:#181818;stroke-width:1.0;" width="10" x="818" y="736.9922"/><rect fill="#FFFFFF" height="60.7031" style="stroke:#181818;stroke-width:1.0;" width="10" x="818" y="888.3984"/><rect fill="#FFFFFF" height="212.4609" style="stroke:#181818;stroke-width:1.0;" width="10" x="999" y="403.4766"/><rect fill="#FFFFFF" height="151.4063" style="stroke:#181818;stroke-width:1.0;" width="10" x="999" y="706.6406"/><rect fill="#FFFFFF" height="30.3516" style="stroke:#181818;stroke-width:1.0;" width="10" x="1110" y="433.8281"/><rect fill="#FFFFFF" height="30" style="stroke:#181818;stroke-width:1.0;" width="10" x="1110" y="797.6953"/><rect fill="#FFFFFF" height="30.3516" style="stroke:#181818;stroke-width:1.0;" width="10" x="1212.5" y="282.0703"/><rect fill="#FFFFFF" height="91.0547" style="stroke:#181818;stroke-width:1.0;" width="10" x="1306.5" y="251.7188"/><rect fill="#FFFFFF" height="212.1094" style="stroke:#181818;stroke-width:1.0;" width="10" x="1417.5" y="161.0156"/><rect fill="#FFFFFF" height="30" style="stroke:#181818;stroke-width:1.0;" width="10" x="1545.5" y="191.3672"/><ellipse cx="4.5" cy="69.2109" fill="none" rx="4" ry="4" style="stroke:#181818;stroke-width:1.5;"/><polygon fill="#181818" points="158,65.9609,168,69.9609,158,73.9609,162,69.9609" style="stroke:#181818;stroke-width:1.0;"/><line style="stroke:#181818;stroke-width:1.0;" x1="9" x2="164" y1="69.9609" y2="69.9609"/><text fill="#000000" font-family="sans-serif" font-size="13" font-weight="bold" lengthAdjust="spacing" textLength="7" x="12" y="65.1045">1</text><text fill="#000000" font-family="sans-serif" font-size="13" lengthAdjust="spacing" textLength="132" x="23" y="65.1045">patch /uploadFloorMap</text><polygon fill="#181818" points="343,96.3125,353,100.3125,343,104.3125,347,100.3125" style="stroke:#181818;stroke-width:1.0;"/><line style="stroke:#181818;stroke-width:1.0;" x1="180" x2="349" y1="100.3125" y2="100.3125"/><text fill="#000000" font-family="sans-serif" font-size="13" font-weight="bold" lengthAdjust="spacing" textLength="7" x="187" y="95.4561">2</text><text fill="#000000" font-family="sans-serif" font-size="13" lengthAdjust="spacing" textLength="145" x="198" y="95.4561">uploadFloorMap(mapDto)</text><polygon fill="#181818" points="528,126.6641,538,130.6641,528,134.6641,532,130.6641" style="stroke:#181818;stroke-width:1.0;"/><line style="stroke:#181818;stroke-width:1.0;" x1="365" x2="534" y1="130.6641" y2="130.6641"/><text fill="#000000" font-family="sans-serif" font-size="13" font-weight="bold" lengthAdjust="spacing" textLength="7" x="372" y="125.8076">3</text><text fill="#000000" font-family="sans-serif" font-size="13" lengthAdjust="spacing" textLength="145" x="383" y="125.8076">uploadFloorMap(mapDto)</text><polygon fill="#181818" points="1405.5,157.0156,1415.5,161.0156,1405.5,165.0156,1409.5,161.0156" style="stroke:#181818;stroke-width:1.0;"/><line style="stroke:#181818;stroke-width:1.0;" x1="550" x2="1411.5" y1="161.0156" y2="161.0156"/><text fill="#000000" font-family="sans-serif" font-size="13" font-weight="bold" lengthAdjust="spacing" textLength="7" x="557" y="156.1592">4</text><text fill="#000000" font-family="sans-serif" font-size="13" lengthAdjust="spacing" textLength="120" x="568" y="156.1592">findByBuildingCode()</text><polygon fill="#181818" points="1533.5,187.3672,1543.5,191.3672,1533.5,195.3672,1537.5,191.3672" style="stroke:#181818;stroke-width:1.0;"/><line style="stroke:#181818;stroke-width:1.0;" x1="1427.5" x2="1539.5" y1="191.3672" y2="191.3672"/><text fill="#000000" font-family="sans-serif" font-size="13" font-weight="bold" lengthAdjust="spacing" textLength="7" x="1434.5" y="186.5107">5</text><text fill="#000000" font-family="sans-serif" font-size="13" lengthAdjust="spacing" textLength="28" x="1445.5" y="186.5107">find()</text><polygon fill="#181818" points="1327.5,247.7188,1317.5,251.7188,1327.5,255.7188,1323.5,251.7188" style="stroke:#181818;stroke-width:1.0;"/><line style="stroke:#181818;stroke-width:1.0;" x1="1321.5" x2="1416.5" y1="251.7188" y2="251.7188"/><text fill="#000000" font-family="sans-serif" font-size="13" font-weight="bold" lengthAdjust="spacing" textLength="7" x="1333.5" y="246.8623">6</text><text fill="#000000" font-family="sans-serif" font-size="13" lengthAdjust="spacing" textLength="63" x="1344.5" y="246.8623">toDomain()</text><polygon fill="#181818" points="1233.5,278.0703,1223.5,282.0703,1233.5,286.0703,1229.5,282.0703" style="stroke:#181818;stroke-width:1.0;"/><line style="stroke:#181818;stroke-width:1.0;" x1="1227.5" x2="1305.5" y1="282.0703" y2="282.0703"/><text fill="#000000" font-family="sans-serif" font-size="13" font-weight="bold" lengthAdjust="spacing" textLength="7" x="1239.5" y="277.2139">7</text><text fill="#000000" font-family="sans-serif" font-size="13" lengthAdjust="spacing" textLength="36" x="1250.5" y="277.2139">create</text><polygon fill="#181818" points="1294.5,308.4219,1304.5,312.4219,1294.5,316.4219,1298.5,312.4219" style="stroke:#181818;stroke-width:1.0;"/><line style="stroke:#181818;stroke-width:1.0;stroke-dasharray:2.0,2.0;" x1="1217.5" x2="1300.5" y1="312.4219" y2="312.4219"/><text fill="#000000" font-family="sans-serif" font-size="13" font-weight="bold" lengthAdjust="spacing" textLength="7" x="1224.5" y="307.5654">8</text><text fill="#000000" font-family="sans-serif" font-size="13" lengthAdjust="spacing" textLength="4" x="1235.5" y="307.5654"> </text><polygon fill="#181818" points="1405.5,338.7734,1415.5,342.7734,1405.5,346.7734,1409.5,342.7734" style="stroke:#181818;stroke-width:1.0;"/><line style="stroke:#181818;stroke-width:1.0;stroke-dasharray:2.0,2.0;" x1="1311.5" x2="1411.5" y1="342.7734" y2="342.7734"/><text fill="#000000" font-family="sans-serif" font-size="13" font-weight="bold" lengthAdjust="spacing" textLength="7" x="1318.5" y="337.917">9</text><text fill="#000000" font-family="sans-serif" font-size="13" lengthAdjust="spacing" textLength="4" x="1329.5" y="337.917"> </text><polygon fill="#181818" points="561,369.125,551,373.125,561,377.125,557,373.125" style="stroke:#181818;stroke-width:1.0;"/><line style="stroke:#181818;stroke-width:1.0;stroke-dasharray:2.0,2.0;" x1="555" x2="1421.5" y1="373.125" y2="373.125"/><text fill="#000000" font-family="sans-serif" font-size="13" font-weight="bold" lengthAdjust="spacing" textLength="14" x="567" y="368.2686">10</text><text fill="#000000" font-family="sans-serif" font-size="13" lengthAdjust="spacing" textLength="4" x="585" y="368.2686"> </text><polygon fill="#181818" points="987,399.4766,997,403.4766,987,407.4766,991,403.4766" style="stroke:#181818;stroke-width:1.0;"/><line style="stroke:#181818;stroke-width:1.0;" x1="550" x2="993" y1="403.4766" y2="403.4766"/><text fill="#000000" font-family="sans-serif" font-size="13" font-weight="bold" lengthAdjust="spacing" textLength="14" x="557" y="398.6201">11</text><text fill="#000000" font-family="sans-serif" font-size="13" lengthAdjust="spacing" textLength="88" x="575" y="398.6201">findById(floorId)</text><polygon fill="#181818" points="1098,429.8281,1108,433.8281,1098,437.8281,1102,433.8281" style="stroke:#181818;stroke-width:1.0;"/><line style="stroke:#181818;stroke-width:1.0;" x1="1009" x2="1104" y1="433.8281" y2="433.8281"/><text fill="#000000" font-family="sans-serif" font-size="13" font-weight="bold" lengthAdjust="spacing" textLength="14" x="1016" y="428.9717">12</text><text fill="#000000" font-family="sans-serif" font-size="13" lengthAdjust="spacing" textLength="28" x="1034" y="428.9717">find()</text><polygon fill="#181818" points="1020,460.1797,1010,464.1797,1020,468.1797,1016,464.1797" style="stroke:#181818;stroke-width:1.0;"/><line style="stroke:#181818;stroke-width:1.0;stroke-dasharray:2.0,2.0;" x1="1014" x2="1114" y1="464.1797" y2="464.1797"/><text fill="#000000" font-family="sans-serif" font-size="13" font-weight="bold" lengthAdjust="spacing" textLength="14" x="1026" y="459.3232">13</text><text fill="#000000" font-family="sans-serif" font-size="13" lengthAdjust="spacing" textLength="4" x="1044" y="459.3232"> </text><polygon fill="#181818" points="839,490.5313,829,494.5313,839,498.5313,835,494.5313" style="stroke:#181818;stroke-width:1.0;"/><line style="stroke:#181818;stroke-width:1.0;" x1="833" x2="998" y1="494.5313" y2="494.5313"/><text fill="#000000" font-family="sans-serif" font-size="13" font-weight="bold" lengthAdjust="spacing" textLength="14" x="845" y="489.6748">14</text><text fill="#000000" font-family="sans-serif" font-size="13" lengthAdjust="spacing" textLength="63" x="863" y="489.6748">toDomain()</text><polygon fill="#181818" points="756,520.8828,746,524.8828,756,528.8828,752,524.8828" style="stroke:#181818;stroke-width:1.0;"/><line style="stroke:#181818;stroke-width:1.0;" x1="750" x2="817" y1="524.8828" y2="524.8828"/><text fill="#000000" font-family="sans-serif" font-size="13" font-weight="bold" lengthAdjust="spacing" textLength="14" x="762" y="520.0264">15</text><text fill="#000000" font-family="sans-serif" font-size="13" lengthAdjust="spacing" textLength="36" x="780" y="520.0264">create</text><polygon fill="#181818" points="806,551.2344,816,555.2344,806,559.2344,810,555.2344" style="stroke:#181818;stroke-width:1.0;"/><line style="stroke:#181818;stroke-width:1.0;stroke-dasharray:2.0,2.0;" x1="740" x2="812" y1="555.2344" y2="555.2344"/><text fill="#000000" font-family="sans-serif" font-size="13" font-weight="bold" lengthAdjust="spacing" textLength="14" x="747" y="550.3779">16</text><text fill="#000000" font-family="sans-serif" font-size="13" lengthAdjust="spacing" textLength="4" x="765" y="550.3779"> </text><polygon fill="#181818" points="987,581.5859,997,585.5859,987,589.5859,991,585.5859" style="stroke:#181818;stroke-width:1.0;"/><line style="stroke:#181818;stroke-width:1.0;stroke-dasharray:2.0,2.0;" x1="823" x2="993" y1="585.5859" y2="585.5859"/><text fill="#000000" font-family="sans-serif" font-size="13" font-weight="bold" lengthAdjust="spacing" textLength="14" x="830" y="580.7295">17</text><text fill="#000000" font-family="sans-serif" font-size="13" lengthAdjust="spacing" textLength="4" x="848" y="580.7295"> </text><polygon fill="#181818" points="561,611.9375,551,615.9375,561,619.9375,557,615.9375" style="stroke:#181818;stroke-width:1.0;"/><line style="stroke:#181818;stroke-width:1.0;stroke-dasharray:2.0,2.0;" x1="555" x2="1003" y1="615.9375" y2="615.9375"/><text fill="#000000" font-family="sans-serif" font-size="13" font-weight="bold" lengthAdjust="spacing" textLength="14" x="567" y="611.0811">18</text><text fill="#000000" font-family="sans-serif" font-size="13" lengthAdjust="spacing" textLength="4" x="585" y="611.0811"> </text><polygon fill="#181818" points="723,642.2891,733,646.2891,723,650.2891,727,646.2891" style="stroke:#181818;stroke-width:1.0;"/><line style="stroke:#181818;stroke-width:1.0;" x1="550" x2="729" y1="646.2891" y2="646.2891"/><text fill="#000000" font-family="sans-serif" font-size="13" font-weight="bold" lengthAdjust="spacing" textLength="14" x="557" y="641.4326">19</text><text fill="#000000" font-family="sans-serif" font-size="13" lengthAdjust="spacing" textLength="148" x="575" y="641.4326">loadFloorMapAndupdate()</text><polygon fill="#181818" points="987,702.6406,997,706.6406,987,710.6406,991,706.6406" style="stroke:#181818;stroke-width:1.0;"/><line style="stroke:#181818;stroke-width:1.0;" x1="550" x2="993" y1="706.6406" y2="706.6406"/><text fill="#000000" font-family="sans-serif" font-size="13" font-weight="bold" lengthAdjust="spacing" textLength="14" x="557" y="701.7842">20</text><text fill="#000000" font-family="sans-serif" font-size="13" lengthAdjust="spacing" textLength="34" x="575" y="701.7842">save()</text><polygon fill="#181818" points="839,732.9922,829,736.9922,839,740.9922,835,736.9922" style="stroke:#181818;stroke-width:1.0;"/><line style="stroke:#181818;stroke-width:1.0;" x1="833" x2="998" y1="736.9922" y2="736.9922"/><text fill="#000000" font-family="sans-serif" font-size="13" font-weight="bold" lengthAdjust="spacing" textLength="14" x="845" y="732.1357">21</text><text fill="#000000" font-family="sans-serif" font-size="13" lengthAdjust="spacing" textLength="88" x="863" y="732.1357">toPersistence()</text><polygon fill="#181818" points="987,763.3438,997,767.3438,987,771.3438,991,767.3438" style="stroke:#181818;stroke-width:1.0;"/><line style="stroke:#181818;stroke-width:1.0;stroke-dasharray:2.0,2.0;" x1="823" x2="993" y1="767.3438" y2="767.3438"/><text fill="#000000" font-family="sans-serif" font-size="13" font-weight="bold" lengthAdjust="spacing" textLength="14" x="830" y="762.4873">22</text><text fill="#000000" font-family="sans-serif" font-size="13" lengthAdjust="spacing" textLength="4" x="848" y="762.4873"> </text><polygon fill="#181818" points="1098,793.6953,1108,797.6953,1098,801.6953,1102,797.6953" style="stroke:#181818;stroke-width:1.0;"/><line style="stroke:#181818;stroke-width:1.0;" x1="1009" x2="1104" y1="797.6953" y2="797.6953"/><text fill="#000000" font-family="sans-serif" font-size="13" font-weight="bold" lengthAdjust="spacing" textLength="14" x="1016" y="792.8389">23</text><text fill="#000000" font-family="sans-serif" font-size="13" lengthAdjust="spacing" textLength="34" x="1034" y="792.8389">save()</text><polygon fill="#181818" points="561,854.0469,551,858.0469,561,862.0469,557,858.0469" style="stroke:#181818;stroke-width:1.0;"/><line style="stroke:#181818;stroke-width:1.0;stroke-dasharray:2.0,2.0;" x1="555" x2="1003" y1="858.0469" y2="858.0469"/><text fill="#000000" font-family="sans-serif" font-size="13" font-weight="bold" lengthAdjust="spacing" textLength="14" x="567" y="853.1904">24</text><text fill="#000000" font-family="sans-serif" font-size="13" lengthAdjust="spacing" textLength="4" x="585" y="853.1904"> </text><polygon fill="#181818" points="806,884.3984,816,888.3984,806,892.3984,810,888.3984" style="stroke:#181818;stroke-width:1.0;"/><line style="stroke:#181818;stroke-width:1.0;" x1="550" x2="812" y1="888.3984" y2="888.3984"/><text fill="#000000" font-family="sans-serif" font-size="13" font-weight="bold" lengthAdjust="spacing" textLength="14" x="557" y="883.542">25</text><text fill="#000000" font-family="sans-serif" font-size="13" lengthAdjust="spacing" textLength="39" x="575" y="883.542">toDto()</text><polygon fill="#181818" points="903,914.75,913,918.75,903,922.75,907,918.75" style="stroke:#181818;stroke-width:1.0;"/><line style="stroke:#181818;stroke-width:1.0;" x1="828" x2="909" y1="918.75" y2="918.75"/><text fill="#000000" font-family="sans-serif" font-size="13" font-weight="bold" lengthAdjust="spacing" textLength="14" x="835" y="913.8936">26</text><text fill="#000000" font-family="sans-serif" font-size="13" lengthAdjust="spacing" textLength="36" x="853" y="913.8936">create</text><polygon fill="#181818" points="561,945.1016,551,949.1016,561,953.1016,557,949.1016" style="stroke:#181818;stroke-width:1.0;"/><line style="stroke:#181818;stroke-width:1.0;stroke-dasharray:2.0,2.0;" x1="555" x2="822" y1="949.1016" y2="949.1016"/><text fill="#000000" font-family="sans-serif" font-size="13" font-weight="bold" lengthAdjust="spacing" textLength="14" x="567" y="944.2451">27</text><text fill="#000000" font-family="sans-serif" font-size="13" lengthAdjust="spacing" textLength="4" x="585" y="944.2451"> </text><polygon fill="#181818" points="376,975.4531,366,979.4531,376,983.4531,372,979.4531" style="stroke:#181818;stroke-width:1.0;"/><line style="stroke:#181818;stroke-width:1.0;stroke-dasharray:2.0,2.0;" x1="370" x2="544" y1="979.4531" y2="979.4531"/><text fill="#000000" font-family="sans-serif" font-size="13" font-weight="bold" lengthAdjust="spacing" textLength="14" x="382" y="974.5967">28</text><text fill="#000000" font-family="sans-serif" font-size="13" lengthAdjust="spacing" textLength="4" x="400" y="974.5967"> </text><polygon fill="#181818" points="191,1005.8047,181,1009.8047,191,1013.8047,187,1009.8047" style="stroke:#181818;stroke-width:1.0;"/><line style="stroke:#181818;stroke-width:1.0;stroke-dasharray:2.0,2.0;" x1="185" x2="359" y1="1009.8047" y2="1009.8047"/><text fill="#000000" font-family="sans-serif" font-size="13" font-weight="bold" lengthAdjust="spacing" textLength="14" x="197" y="1004.9482">29</text><text fill="#000000" font-family="sans-serif" font-size="13" lengthAdjust="spacing" textLength="4" x="215" y="1004.9482"> </text><polygon fill="#181818" points="11,1036.1563,1,1040.1563,11,1044.1563,7,1040.1563" style="stroke:#181818;stroke-width:1.0;"/><line style="stroke:#181818;stroke-width:1.0;stroke-dasharray:2.0,2.0;" x1="5" x2="174" y1="1040.1563" y2="1040.1563"/><text fill="#000000" font-family="sans-serif" font-size="13" font-weight="bold" lengthAdjust="spacing" textLength="14" x="17" y="1035.2998">30</text><text fill="#000000" font-family="sans-serif" font-size="13" lengthAdjust="spacing" textLength="4" x="35" y="1035.2998"> </text><!--MD5=[2358d41c51351f26c72ce1ba70756e92]
@startuml ProcessViewLevel3
'https://plantuml.com/sequence-diagram

autonumber
participant LoadFloorMapRoute
participant LoadFloorMapController
participant LoadFloorMapService
participant Floor
participant FloorMaper
participant FloorDTO
participant FloorRepo
participant FloorPersistence
participant Building
participant BuildingMaper
participant BuildingRepo
participant BuildingPersistence

?o->LoadFloorMapRoute : patch /uploadFloorMap
activate LoadFloorMapRoute

LoadFloorMapRoute -> LoadFloorMapController : uploadFloorMap(mapDto)
activate LoadFloorMapController

LoadFloorMapController -> LoadFloorMapService : uploadFloorMap(mapDto)
activate LoadFloorMapService

LoadFloorMapService -> BuildingRepo : findByBuildingCode()
activate BuildingRepo

BuildingRepo -> BuildingPersistence : find()
activate BuildingPersistence
deactivate BuildingPersistence

BuildingRepo -> BuildingMaper : toDomain()
activate BuildingMaper

BuildingMaper -> Building : create
activate Building

Building - -> BuildingMaper
deactivate Building

BuildingMaper - -> BuildingRepo
deactivate BuildingMaper

BuildingRepo - -> LoadFloorMapService

deactivate BuildingRepo




LoadFloorMapService -> FloorRepo : findById(floorId)
activate FloorRepo

FloorRepo -> FloorPersistence : find()
activate FloorPersistence
FloorPersistence - -> FloorRepo
deactivate FloorPersistence

FloorRepo -> FloorMaper : toDomain()
activate FloorMaper

FloorMaper -> Floor : create
activate Floor

Floor - -> FloorMaper
deactivate Floor

FloorMaper - -> FloorRepo 
deactivate FloorMaper

FloorRepo - -> LoadFloorMapService
deactivate FloorRepo

LoadFloorMapService -> Floor : loadFloorMapAndupdate()
activate Floor

deactivate Floor

LoadFloorMapService -> FloorRepo : save()
activate FloorRepo

FloorRepo -> FloorMaper : toPersistence()
activate FloorMaper

FloorMaper - -> FloorRepo
deactivate FloorMaper

FloorRepo -> FloorPersistence : save()
activate FloorPersistence
deactivate FloorPersistence

FloorRepo - -> LoadFloorMapService
deactivate FloorRepo

LoadFloorMapService -> FloorMaper : toDto()
activate FloorMaper

FloorMaper -> FloorDTO : create

FloorMaper - -> LoadFloorMapService
deactivate FloorMaper

LoadFloorMapService - -> LoadFloorMapController
deactivate LoadFloorMapService

LoadFloorMapController - -> LoadFloorMapRoute
deactivate LoadFloorMapController

<- - LoadFloorMapRoute
deactivate LoadFloorMapRoute

@enduml

@startuml ProcessViewLevel3

autonumber
participant LoadFloorMapRoute
participant LoadFloorMapController
participant LoadFloorMapService
participant Floor
participant FloorMaper
participant FloorDTO
participant FloorRepo
participant FloorPersistence
participant Building
participant BuildingMaper
participant BuildingRepo
participant BuildingPersistence

?o->LoadFloorMapRoute : patch /uploadFloorMap
activate LoadFloorMapRoute

LoadFloorMapRoute -> LoadFloorMapController : uploadFloorMap(mapDto)
activate LoadFloorMapController

LoadFloorMapController -> LoadFloorMapService : uploadFloorMap(mapDto)
activate LoadFloorMapService

LoadFloorMapService -> BuildingRepo : findByBuildingCode()
activate BuildingRepo

BuildingRepo -> BuildingPersistence : find()
activate BuildingPersistence
deactivate BuildingPersistence

BuildingRepo -> BuildingMaper : toDomain()
activate BuildingMaper

BuildingMaper -> Building : create
activate Building

Building - -> BuildingMaper
deactivate Building

BuildingMaper - -> BuildingRepo
deactivate BuildingMaper

BuildingRepo - -> LoadFloorMapService

deactivate BuildingRepo




LoadFloorMapService -> FloorRepo : findById(floorId)
activate FloorRepo

FloorRepo -> FloorPersistence : find()
activate FloorPersistence
FloorPersistence - -> FloorRepo
deactivate FloorPersistence

FloorRepo -> FloorMaper : toDomain()
activate FloorMaper

FloorMaper -> Floor : create
activate Floor

Floor - -> FloorMaper
deactivate Floor

FloorMaper - -> FloorRepo 
deactivate FloorMaper

FloorRepo - -> LoadFloorMapService
deactivate FloorRepo

LoadFloorMapService -> Floor : loadFloorMapAndupdate()
activate Floor

deactivate Floor

LoadFloorMapService -> FloorRepo : save()
activate FloorRepo

FloorRepo -> FloorMaper : toPersistence()
activate FloorMaper

FloorMaper - -> FloorRepo
deactivate FloorMaper

FloorRepo -> FloorPersistence : save()
activate FloorPersistence
deactivate FloorPersistence

FloorRepo - -> LoadFloorMapService
deactivate FloorRepo

LoadFloorMapService -> FloorMaper : toDto()
activate FloorMaper

FloorMaper -> FloorDTO : create

FloorMaper - -> LoadFloorMapService
deactivate FloorMaper

LoadFloorMapService - -> LoadFloorMapController
deactivate LoadFloorMapService

LoadFloorMapController - -> LoadFloorMapRoute
deactivate LoadFloorMapController

<- - LoadFloorMapRoute
deactivate LoadFloorMapRoute

@enduml

PlantUML version 1.2022.7(Mon Aug 22 18:01:30 WEST 2022)
(GPL source distribution)
Java Runtime: Java(TM) SE Runtime Environment
JVM: Java HotSpot(TM) 64-Bit Server VM
Default Encoding: UTF-8
Language: en
Country: US
--></g></svg>