<?xml version="1.0" encoding="us-ascii" standalone="no"?><svg xmlns="http://www.w3.org/2000/svg" xmlns:xlink="http://www.w3.org/1999/xlink" contentStyleType="text/css" height="537.6px" preserveAspectRatio="none" style="width:928px;height:537px;background:#FFFFFF;" version="1.1" viewBox="0 0 928 537" width="928.2px" zoomAndPan="magnify"><defs/><g><rect fill="#FFFFFF" height="454.5625" style="stroke:#181818;stroke-width:0.6999999999999998;" width="7" x="63" y="46.3148"/><rect fill="#FFFFFF" height="414.6297" style="stroke:#181818;stroke-width:0.6999999999999998;" width="7" x="219.1" y="66.2812"/><rect fill="#FFFFFF" height="304.6641" style="stroke:#181818;stroke-width:0.6999999999999998;" width="7" x="385" y="86.2477"/><rect fill="#FFFFFF" height="183.832" style="stroke:#181818;stroke-width:0.6999999999999998;" width="7" x="565.6" y="126.1805"/><rect fill="#FFFFFF" height="21" style="stroke:#181818;stroke-width:0.6999999999999998;" width="7" x="662.9" y="187.1133"/><rect fill="#FFFFFF" height="21" style="stroke:#181818;stroke-width:0.6999999999999998;" width="7" x="662.9" y="269.0461"/><rect fill="#FFFFFF" height="40.9664" style="stroke:#181818;stroke-width:0.6999999999999998;" width="7" x="662.9" y="329.9789"/><rect fill="#FFFFFF" height="21" style="stroke:#181818;stroke-width:0.6999999999999998;" width="7" x="774.2" y="146.1469"/><rect fill="#FFFFFF" height="21" style="stroke:#181818;stroke-width:0.6999999999999998;" width="7" x="774.2" y="228.0797"/><rect fill="#FFFFFF" height="21" style="stroke:#181818;stroke-width:0.6999999999999998;" width="7" x="879.2" y="349.9453"/><rect fill="#FFFFFF" height="21" style="stroke:#181818;stroke-width:0.6999999999999998;" width="7" x="879.2" y="410.8781"/><line style="stroke:#181818;stroke-width:0.3499999999999999;stroke-dasharray:5.0,5.0;" x1="66.15" x2="66.15" y1="24.9484" y2="513.4773"/><line style="stroke:#181818;stroke-width:0.3499999999999999;stroke-dasharray:5.0,5.0;" x1="222.25" x2="222.25" y1="24.9484" y2="513.4773"/><line style="stroke:#181818;stroke-width:0.3499999999999999;stroke-dasharray:5.0,5.0;" x1="388.5" x2="388.5" y1="24.9484" y2="513.4773"/><line style="stroke:#181818;stroke-width:0.3499999999999999;stroke-dasharray:5.0,5.0;" x1="488.6" x2="488.6" y1="24.9484" y2="513.4773"/><line style="stroke:#181818;stroke-width:0.3499999999999999;stroke-dasharray:5.0,5.0;" x1="569.1" x2="569.1" y1="24.9484" y2="513.4773"/><line style="stroke:#181818;stroke-width:0.3499999999999999;stroke-dasharray:5.0,5.0;" x1="666.4" x2="666.4" y1="24.9484" y2="513.4773"/><line style="stroke:#181818;stroke-width:0.3499999999999999;stroke-dasharray:5.0,5.0;" x1="777.7" x2="777.7" y1="24.9484" y2="513.4773"/><line style="stroke:#181818;stroke-width:0.3499999999999999;stroke-dasharray:5.0,5.0;" x1="882.7" x2="882.7" y1="24.9484" y2="513.4773"/><rect fill="#E2E2F0" height="20.7484" rx="1.75" ry="1.75" style="stroke:#181818;stroke-width:0.3499999999999999;" width="118.3" x="7.35" y="3.5"/><text fill="#000000" font-family="sans-serif" font-size="9.8" lengthAdjust="spacing" textLength="108.5" x="12.25" y="17.2717">:CreateRobotTypeRoute</text><rect fill="#E2E2F0" height="20.7484" rx="1.75" ry="1.75" style="stroke:#181818;stroke-width:0.3499999999999999;" width="118.3" x="7.35" y="512.7773"/><text fill="#000000" font-family="sans-serif" font-size="9.8" lengthAdjust="spacing" textLength="108.5" x="12.25" y="526.549">:CreateRobotTypeRoute</text><rect fill="#E2E2F0" height="20.7484" rx="1.75" ry="1.75" style="stroke:#181818;stroke-width:0.3499999999999999;" width="135.1" x="155.05" y="3.5"/><text fill="#000000" font-family="sans-serif" font-size="9.8" lengthAdjust="spacing" textLength="125.3" x="159.95" y="17.2717">:CreateRobotTypeController</text><rect fill="#E2E2F0" height="20.7484" rx="1.75" ry="1.75" style="stroke:#181818;stroke-width:0.3499999999999999;" width="135.1" x="155.05" y="512.7773"/><text fill="#000000" font-family="sans-serif" font-size="9.8" lengthAdjust="spacing" textLength="125.3" x="159.95" y="526.549">:CreateRobotTypeController</text><rect fill="#E2E2F0" height="20.7484" rx="1.75" ry="1.75" style="stroke:#181818;stroke-width:0.3499999999999999;" width="124.6" x="326.2" y="3.5"/><text fill="#000000" font-family="sans-serif" font-size="9.8" lengthAdjust="spacing" textLength="114.8" x="331.1" y="17.2717">:CreateRobotTypeService</text><rect fill="#E2E2F0" height="20.7484" rx="1.75" ry="1.75" style="stroke:#181818;stroke-width:0.3499999999999999;" width="124.6" x="326.2" y="512.7773"/><text fill="#000000" font-family="sans-serif" font-size="9.8" lengthAdjust="spacing" textLength="114.8" x="331.1" y="526.549">:CreateRobotTypeService</text><rect fill="#E2E2F0" height="20.7484" rx="1.75" ry="1.75" style="stroke:#181818;stroke-width:0.3499999999999999;" width="61.6" x="457.8" y="3.5"/><text fill="#000000" font-family="sans-serif" font-size="9.8" lengthAdjust="spacing" textLength="51.8" x="462.7" y="17.2717">:RobotType</text><rect fill="#E2E2F0" height="20.7484" rx="1.75" ry="1.75" style="stroke:#181818;stroke-width:0.3499999999999999;" width="61.6" x="457.8" y="512.7773"/><text fill="#000000" font-family="sans-serif" font-size="9.8" lengthAdjust="spacing" textLength="51.8" x="462.7" y="526.549">:RobotType</text><rect fill="#E2E2F0" height="20.7484" rx="1.75" ry="1.75" style="stroke:#181818;stroke-width:0.3499999999999999;" width="85.4" x="526.4" y="3.5"/><text fill="#000000" font-family="sans-serif" font-size="9.8" lengthAdjust="spacing" textLength="75.6" x="531.3" y="17.2717">:RobotTypeRepo</text><rect fill="#E2E2F0" height="20.7484" rx="1.75" ry="1.75" style="stroke:#181818;stroke-width:0.3499999999999999;" width="85.4" x="526.4" y="512.7773"/><text fill="#000000" font-family="sans-serif" font-size="9.8" lengthAdjust="spacing" textLength="75.6" x="531.3" y="526.549">:RobotTypeRepo</text><rect fill="#E2E2F0" height="20.7484" rx="1.75" ry="1.75" style="stroke:#181818;stroke-width:0.3499999999999999;" width="95.2" x="618.8" y="3.5"/><text fill="#000000" font-family="sans-serif" font-size="9.8" lengthAdjust="spacing" textLength="85.4" x="623.7" y="17.2717">:RobotTypeMapper</text><rect fill="#E2E2F0" height="20.7484" rx="1.75" ry="1.75" style="stroke:#181818;stroke-width:0.3499999999999999;" width="95.2" x="618.8" y="512.7773"/><text fill="#000000" font-family="sans-serif" font-size="9.8" lengthAdjust="spacing" textLength="85.4" x="623.7" y="526.549">:RobotTypeMapper</text><rect fill="#E2E2F0" height="20.7484" rx="1.75" ry="1.75" style="stroke:#181818;stroke-width:0.3499999999999999;" width="113.4" x="721" y="3.5"/><text fill="#000000" font-family="sans-serif" font-size="9.8" lengthAdjust="spacing" textLength="103.6" x="725.9" y="17.2717">:RobotTypePersistence</text><rect fill="#E2E2F0" height="20.7484" rx="1.75" ry="1.75" style="stroke:#181818;stroke-width:0.3499999999999999;" width="113.4" x="721" y="512.7773"/><text fill="#000000" font-family="sans-serif" font-size="9.8" lengthAdjust="spacing" textLength="103.6" x="725.9" y="526.549">:RobotTypePersistence</text><rect fill="#E2E2F0" height="20.7484" rx="1.75" ry="1.75" style="stroke:#181818;stroke-width:0.3499999999999999;" width="82.6" x="841.4" y="3.5"/><text fill="#000000" font-family="sans-serif" font-size="9.8" lengthAdjust="spacing" textLength="72.8" x="846.3" y="17.2717">:RobotTypeDTO</text><rect fill="#E2E2F0" height="20.7484" rx="1.75" ry="1.75" style="stroke:#181818;stroke-width:0.3499999999999999;" width="82.6" x="841.4" y="512.7773"/><text fill="#000000" font-family="sans-serif" font-size="9.8" lengthAdjust="spacing" textLength="72.8" x="846.3" y="526.549">:RobotTypeDTO</text><rect fill="#FFFFFF" height="454.5625" style="stroke:#181818;stroke-width:0.6999999999999998;" width="7" x="63" y="46.3148"/><rect fill="#FFFFFF" height="414.6297" style="stroke:#181818;stroke-width:0.6999999999999998;" width="7" x="219.1" y="66.2812"/><rect fill="#FFFFFF" height="304.6641" style="stroke:#181818;stroke-width:0.6999999999999998;" width="7" x="385" y="86.2477"/><rect fill="#FFFFFF" height="183.832" style="stroke:#181818;stroke-width:0.6999999999999998;" width="7" x="565.6" y="126.1805"/><rect fill="#FFFFFF" height="21" style="stroke:#181818;stroke-width:0.6999999999999998;" width="7" x="662.9" y="187.1133"/><rect fill="#FFFFFF" height="21" style="stroke:#181818;stroke-width:0.6999999999999998;" width="7" x="662.9" y="269.0461"/><rect fill="#FFFFFF" height="40.9664" style="stroke:#181818;stroke-width:0.6999999999999998;" width="7" x="662.9" y="329.9789"/><rect fill="#FFFFFF" height="21" style="stroke:#181818;stroke-width:0.6999999999999998;" width="7" x="774.2" y="146.1469"/><rect fill="#FFFFFF" height="21" style="stroke:#181818;stroke-width:0.6999999999999998;" width="7" x="774.2" y="228.0797"/><rect fill="#FFFFFF" height="21" style="stroke:#181818;stroke-width:0.6999999999999998;" width="7" x="879.2" y="349.9453"/><rect fill="#FFFFFF" height="21" style="stroke:#181818;stroke-width:0.6999999999999998;" width="7" x="879.2" y="410.8781"/><ellipse cx="15.05" cy="45.7898" fill="none" rx="2.8" ry="2.8" style="stroke:#181818;stroke-width:1.0499999999999998;"/><polygon fill="#181818" points="54.6,43.5148,61.6,46.3148,54.6,49.1148,57.4,46.3148" style="stroke:#181818;stroke-width:0.6999999999999998;"/><line style="stroke:#181818;stroke-width:0.6999999999999998;" x1="18.2" x2="58.8" y1="46.3148" y2="46.3148"/><text fill="#000000" font-family="sans-serif" font-size="9.1" font-weight="bold" lengthAdjust="spacing" textLength="4.9" x="20.3" y="42.9864">1</text><text fill="#000000" font-family="sans-serif" font-size="9.1" lengthAdjust="spacing" textLength="24.5" x="28" y="42.9864">POST</text><polygon fill="#181818" points="210.7,63.4812,217.7,66.2812,210.7,69.0812,213.5,66.2812" style="stroke:#181818;stroke-width:0.6999999999999998;"/><line style="stroke:#181818;stroke-width:0.6999999999999998;" x1="70" x2="214.9" y1="66.2812" y2="66.2812"/><text fill="#000000" font-family="sans-serif" font-size="9.1" font-weight="bold" lengthAdjust="spacing" textLength="4.9" x="74.9" y="62.9528">2</text><text fill="#000000" font-family="sans-serif" font-size="9.1" lengthAdjust="spacing" textLength="128.1" x="82.6" y="62.9528">createRobotType(req, res, next)</text><polygon fill="#181818" points="376.6,83.4477,383.6,86.2477,376.6,89.0477,379.4,86.2477" style="stroke:#181818;stroke-width:0.6999999999999998;"/><line style="stroke:#181818;stroke-width:0.6999999999999998;" x1="226.1" x2="380.8" y1="86.2477" y2="86.2477"/><text fill="#000000" font-family="sans-serif" font-size="9.1" font-weight="bold" lengthAdjust="spacing" textLength="4.9" x="231" y="82.9192">3</text><text fill="#000000" font-family="sans-serif" font-size="9.1" lengthAdjust="spacing" textLength="137.9" x="238.7" y="82.9192">createRobotType(createFloorDTO)</text><polygon fill="#181818" points="480.2,103.4141,487.2,106.2141,480.2,109.0141,483,106.2141" style="stroke:#181818;stroke-width:0.6999999999999998;"/><line style="stroke:#181818;stroke-width:0.6999999999999998;" x1="392" x2="484.4" y1="106.2141" y2="106.2141"/><text fill="#000000" font-family="sans-serif" font-size="9.1" font-weight="bold" lengthAdjust="spacing" textLength="4.9" x="396.9" y="102.8856">4</text><text fill="#000000" font-family="sans-serif" font-size="9.1" lengthAdjust="spacing" textLength="25.2" x="404.6" y="102.8856">create</text><polygon fill="#181818" points="557.2,123.3805,564.2,126.1805,557.2,128.9805,560,126.1805" style="stroke:#181818;stroke-width:0.6999999999999998;"/><line style="stroke:#181818;stroke-width:0.6999999999999998;" x1="392" x2="561.4" y1="126.1805" y2="126.1805"/><text fill="#000000" font-family="sans-serif" font-size="9.1" font-weight="bold" lengthAdjust="spacing" textLength="4.9" x="396.9" y="122.8521">5</text><text fill="#000000" font-family="sans-serif" font-size="9.1" lengthAdjust="spacing" textLength="18.2" x="404.6" y="122.8521">save</text><polygon fill="#181818" points="765.8,143.3469,772.8,146.1469,765.8,148.9469,768.6,146.1469" style="stroke:#181818;stroke-width:0.6999999999999998;"/><line style="stroke:#181818;stroke-width:0.6999999999999998;" x1="572.6" x2="770" y1="146.1469" y2="146.1469"/><text fill="#000000" font-family="sans-serif" font-size="9.1" font-weight="bold" lengthAdjust="spacing" textLength="4.9" x="577.5" y="142.8185">6</text><text fill="#000000" font-family="sans-serif" font-size="9.1" lengthAdjust="spacing" textLength="30.8" x="585.2" y="142.8185">findOne</text><polygon fill="#181818" points="654.5,184.3133,661.5,187.1133,654.5,189.9133,657.3,187.1133" style="stroke:#181818;stroke-width:0.6999999999999998;"/><line style="stroke:#181818;stroke-width:0.6999999999999998;" x1="572.6" x2="658.7" y1="187.1133" y2="187.1133"/><text fill="#000000" font-family="sans-serif" font-size="9.1" font-weight="bold" lengthAdjust="spacing" textLength="4.9" x="577.5" y="183.7849">7</text><text fill="#000000" font-family="sans-serif" font-size="9.1" lengthAdjust="spacing" textLength="56" x="585.2" y="183.7849">toPersistence</text><polygon fill="#181818" points="765.8,225.2797,772.8,228.0797,765.8,230.8797,768.6,228.0797" style="stroke:#181818;stroke-width:0.6999999999999998;"/><line style="stroke:#181818;stroke-width:0.6999999999999998;" x1="572.6" x2="770" y1="228.0797" y2="228.0797"/><text fill="#000000" font-family="sans-serif" font-size="9.1" font-weight="bold" lengthAdjust="spacing" textLength="4.9" x="577.5" y="224.7513">8</text><text fill="#000000" font-family="sans-serif" font-size="9.1" lengthAdjust="spacing" textLength="25.2" x="585.2" y="224.7513">create</text><polygon fill="#181818" points="654.5,266.2461,661.5,269.0461,654.5,271.8461,657.3,269.0461" style="stroke:#181818;stroke-width:0.6999999999999998;"/><line style="stroke:#181818;stroke-width:0.6999999999999998;" x1="572.6" x2="658.7" y1="269.0461" y2="269.0461"/><text fill="#000000" font-family="sans-serif" font-size="9.1" font-weight="bold" lengthAdjust="spacing" textLength="4.9" x="577.5" y="265.7177">9</text><text fill="#000000" font-family="sans-serif" font-size="9.1" lengthAdjust="spacing" textLength="38.5" x="585.2" y="265.7177">toDomain</text><polygon fill="#181818" points="399.7,307.2125,392.7,310.0125,399.7,312.8125,396.9,310.0125" style="stroke:#181818;stroke-width:0.6999999999999998;"/><line style="stroke:#181818;stroke-width:0.6999999999999998;stroke-dasharray:2.0,2.0;" x1="395.5" x2="568.4" y1="310.0125" y2="310.0125"/><text fill="#000000" font-family="sans-serif" font-size="9.1" font-weight="bold" lengthAdjust="spacing" textLength="9.8" x="403.9" y="306.6841">10</text><text fill="#000000" font-family="sans-serif" font-size="9.1" lengthAdjust="spacing" textLength="2.8" x="416.5" y="306.6841">&#160;</text><polygon fill="#181818" points="654.5,327.1789,661.5,329.9789,654.5,332.7789,657.3,329.9789" style="stroke:#181818;stroke-width:0.6999999999999998;"/><line style="stroke:#181818;stroke-width:0.6999999999999998;" x1="392" x2="658.7" y1="329.9789" y2="329.9789"/><text fill="#000000" font-family="sans-serif" font-size="9.1" font-weight="bold" lengthAdjust="spacing" textLength="9.8" x="396.9" y="326.6505">11</text><text fill="#000000" font-family="sans-serif" font-size="9.1" lengthAdjust="spacing" textLength="25.9" x="409.5" y="326.6505">toDTO</text><polygon fill="#181818" points="870.8,347.1453,877.8,349.9453,870.8,352.7453,873.6,349.9453" style="stroke:#181818;stroke-width:0.6999999999999998;"/><line style="stroke:#181818;stroke-width:0.6999999999999998;" x1="669.9" x2="875" y1="349.9453" y2="349.9453"/><text fill="#000000" font-family="sans-serif" font-size="9.1" font-weight="bold" lengthAdjust="spacing" textLength="9.8" x="674.8" y="346.6169">12</text><text fill="#000000" font-family="sans-serif" font-size="9.1" lengthAdjust="spacing" textLength="25.2" x="687.4" y="346.6169">create</text><polygon fill="#181818" points="233.8,388.1117,226.8,390.9117,233.8,393.7117,231,390.9117" style="stroke:#181818;stroke-width:0.6999999999999998;"/><line style="stroke:#181818;stroke-width:0.6999999999999998;stroke-dasharray:2.0,2.0;" x1="229.6" x2="387.8" y1="390.9117" y2="390.9117"/><text fill="#000000" font-family="sans-serif" font-size="9.1" font-weight="bold" lengthAdjust="spacing" textLength="9.8" x="238" y="387.5833">13</text><text fill="#000000" font-family="sans-serif" font-size="9.1" lengthAdjust="spacing" textLength="2.8" x="250.6" y="387.5833">&#160;</text><polygon fill="#181818" points="870.8,408.0781,877.8,410.8781,870.8,413.6781,873.6,410.8781" style="stroke:#181818;stroke-width:0.6999999999999998;"/><line style="stroke:#181818;stroke-width:0.6999999999999998;" x1="226.1" x2="875" y1="410.8781" y2="410.8781"/><text fill="#000000" font-family="sans-serif" font-size="9.1" font-weight="bold" lengthAdjust="spacing" textLength="9.8" x="231" y="407.5497">14</text><text fill="#000000" font-family="sans-serif" font-size="9.1" lengthAdjust="spacing" textLength="35.7" x="243.6" y="407.5497">getValue</text><line style="stroke:#181818;stroke-width:0.6999999999999998;" x1="226.1" x2="255.5" y1="451.8445" y2="451.8445"/><line style="stroke:#181818;stroke-width:0.6999999999999998;" x1="255.5" x2="255.5" y1="451.8445" y2="460.9445"/><line style="stroke:#181818;stroke-width:0.6999999999999998;" x1="226.8" x2="255.5" y1="460.9445" y2="460.9445"/><polygon fill="#181818" points="233.8,458.1445,226.8,460.9445,233.8,463.7445,231,460.9445" style="stroke:#181818;stroke-width:0.6999999999999998;"/><text fill="#000000" font-family="sans-serif" font-size="9.1" font-weight="bold" lengthAdjust="spacing" textLength="9.8" x="231" y="448.5161">15</text><text fill="#000000" font-family="sans-serif" font-size="9.1" lengthAdjust="spacing" textLength="52.5" x="243.6" y="448.5161">res(201,json)</text><polygon fill="#181818" points="77.7,478.1109,70.7,480.9109,77.7,483.7109,74.9,480.9109" style="stroke:#181818;stroke-width:0.6999999999999998;"/><line style="stroke:#181818;stroke-width:0.6999999999999998;stroke-dasharray:2.0,2.0;" x1="73.5" x2="221.9" y1="480.9109" y2="480.9109"/><text fill="#000000" font-family="sans-serif" font-size="9.1" font-weight="bold" lengthAdjust="spacing" textLength="9.8" x="81.9" y="477.5825">16</text><text fill="#000000" font-family="sans-serif" font-size="9.1" lengthAdjust="spacing" textLength="37.1" x="94.5" y="477.5825">response</text><polygon fill="#181818" points="7.7,498.0773,0.7,500.8773,7.7,503.6773,4.9,500.8773" style="stroke:#181818;stroke-width:0.6999999999999998;"/><line style="stroke:#181818;stroke-width:0.6999999999999998;stroke-dasharray:2.0,2.0;" x1="3.5" x2="65.8" y1="500.8773" y2="500.8773"/><text fill="#000000" font-family="sans-serif" font-size="9.1" font-weight="bold" lengthAdjust="spacing" textLength="9.8" x="11.9" y="497.5489">17</text><text fill="#000000" font-family="sans-serif" font-size="9.1" lengthAdjust="spacing" textLength="37.1" x="24.5" y="497.5489">response</text><!--SRC=[hLF1RiCW3Btp5QYdLcgaRKSqTOTMkqsfscftcdeJLGeCIBNz_O3GnAHAjCCY9TZu-Tay7Duu9PlB4GmXcXidAg6vT7J6rWQuWvqwAdVuqTve7Cmej_IrLifCWzTAEgFg6apCwDtfj3sOgwZQAiaU97JGbhVcreuXTg1LH0LZ3FJ6jKvDUdCCjGLZXNKWAwG0sXpBsnpAYFSh8I-gMCL4HhVb_a1uvSJLdpxfIU92YnLIYz4g5sXku6j93TWbbV3j5Zq9ajW_lHS8avJtRAqV2_iM4TjDV9ACs5OGcxKfMI3eowZbL-W9ekOaV0DYg1UZ7qAUIWa34R2a9nYFTSJ-pXXr2iUwh72VY2IuKnsbW_rFGnjruKB-gPV-VZ2YrG-9V2FsavJH-3U4_Vxz4G8OSGxSs4HN8PyxZEjc8H-gMF4Jt3klc-cQWqGytdwIvqyFZykpLNAH0s-N545QIPlfWyVzkIWcaEdl-WK0]--></g></svg>