<?xml version="1.0" encoding="UTF-8" standalone="no"?><svg xmlns="http://www.w3.org/2000/svg" xmlns:xlink="http://www.w3.org/1999/xlink" contentStyleType="text/css" height="506px" preserveAspectRatio="none" style="width:1093px;height:506px;background:#FFFFFF;" version="1.1" viewBox="0 0 1093 506" width="1093px" zoomAndPan="magnify"><defs/><g><g id="cluster_##2"><rect fill="#464D77" height="351.5" rx="2.5" ry="2.5" style="stroke:#181818;stroke-width:1.0;" width="465" x="7" y="7"/></g><g id="cluster_##11"><rect fill="#96A377" height="240" rx="2.5" ry="2.5" style="stroke:#181818;stroke-width:1.0;" width="591" x="496" y="260"/></g><!--MD5=[60fb4f72b7635aa97affd2efc062a79f]
class Robot--><g id="elem_Robot"><rect codeLine="5" fill="#F1F1F1" height="73.7969" id="Robot" rx="2.5" ry="2.5" style="stroke:#181818;stroke-width:0.5;" width="72" x="260" y="142"/><ellipse cx="275" cy="170.8984" fill="#ADD1B2" rx="11" ry="11" style="stroke:#181818;stroke-width:1.0;"/><path d="M277.7656,166.7734 Q277.9219,166.5547 278.1094,166.4453 Q278.2969,166.3359 278.5156,166.3359 Q278.8906,166.3359 279.125,166.6016 Q279.3594,166.8516 279.3594,167.4609 L279.3594,168.9141 Q279.3594,169.5234 279.125,169.7891 Q278.8906,170.0547 278.5156,170.0547 Q278.1719,170.0547 277.9688,169.8516 Q277.7656,169.6641 277.6563,169.1484 Q277.6094,168.7891 277.4219,168.6016 Q277.0938,168.2266 276.4844,168.0078 Q275.875,167.7891 275.25,167.7891 Q274.4844,167.7891 273.8438,168.1172 Q273.2188,168.4453 272.7188,169.1953 Q272.2344,169.9453 272.2344,170.9766 L272.2344,172.0703 Q272.2344,173.3047 273.125,174.1328 Q274.0156,174.9453 275.6094,174.9453 Q276.5469,174.9453 277.2031,174.6953 Q277.5938,174.5391 278.0156,174.1016 Q278.2813,173.8359 278.4219,173.7578 Q278.5781,173.6797 278.7813,173.6797 Q279.1094,173.6797 279.3594,173.9453 Q279.625,174.1953 279.625,174.5391 Q279.625,174.8828 279.2813,175.2891 Q278.7813,175.8672 277.9844,176.1953 Q276.9063,176.6484 275.6094,176.6484 Q274.0938,176.6484 272.8906,176.0234 Q271.9063,175.5234 271.2188,174.4609 Q270.5313,173.3828 270.5313,172.1016 L270.5313,170.9453 Q270.5313,169.6172 271.1406,168.4766 Q271.7656,167.3203 272.8594,166.7109 Q273.9531,166.0859 275.1875,166.0859 Q275.9219,166.0859 276.5625,166.2578 Q277.2188,166.4141 277.7656,166.7734 Z " fill="#000000"/><text fill="#000000" font-family="sans-serif" font-size="12" font-style="italic" lengthAdjust="spacing" textLength="40" x="289" y="159.457">«Root»</text><text fill="#000000" font-family="sans-serif" font-size="12" font-style="italic" lengthAdjust="spacing" textLength="44" x="287" y="174.5508">«Entity»</text><text fill="#000000" font-family="sans-serif" font-size="14" lengthAdjust="spacing" textLength="38" x="290" y="191.7207">Robot</text><line style="stroke:#181818;stroke-width:0.5;" x1="261" x2="331" y1="199.7969" y2="199.7969"/><line style="stroke:#181818;stroke-width:0.5;" x1="261" x2="331" y1="207.7969" y2="207.7969"/></g><!--MD5=[2e3f1e60e74253ff42e47f8bfdb04ee2]
class Drone--><g id="elem_Drone"><rect codeLine="6" fill="#F1F1F1" height="58.7031" id="Drone" rx="2.5" ry="2.5" style="stroke:#181818;stroke-width:0.5;" width="72" x="323" y="23"/><ellipse cx="338" cy="44.3516" fill="#ADD1B2" rx="11" ry="11" style="stroke:#181818;stroke-width:1.0;"/><path d="M340.7656,40.2266 Q340.9219,40.0078 341.1094,39.8984 Q341.2969,39.7891 341.5156,39.7891 Q341.8906,39.7891 342.125,40.0547 Q342.3594,40.3047 342.3594,40.9141 L342.3594,42.3672 Q342.3594,42.9766 342.125,43.2422 Q341.8906,43.5078 341.5156,43.5078 Q341.1719,43.5078 340.9688,43.3047 Q340.7656,43.1172 340.6563,42.6016 Q340.6094,42.2422 340.4219,42.0547 Q340.0938,41.6797 339.4844,41.4609 Q338.875,41.2422 338.25,41.2422 Q337.4844,41.2422 336.8438,41.5703 Q336.2188,41.8984 335.7188,42.6484 Q335.2344,43.3984 335.2344,44.4297 L335.2344,45.5234 Q335.2344,46.7578 336.125,47.5859 Q337.0156,48.3984 338.6094,48.3984 Q339.5469,48.3984 340.2031,48.1484 Q340.5938,47.9922 341.0156,47.5547 Q341.2813,47.2891 341.4219,47.2109 Q341.5781,47.1328 341.7813,47.1328 Q342.1094,47.1328 342.3594,47.3984 Q342.625,47.6484 342.625,47.9922 Q342.625,48.3359 342.2813,48.7422 Q341.7813,49.3203 340.9844,49.6484 Q339.9063,50.1016 338.6094,50.1016 Q337.0938,50.1016 335.8906,49.4766 Q334.9063,48.9766 334.2188,47.9141 Q333.5313,46.8359 333.5313,45.5547 L333.5313,44.3984 Q333.5313,43.0703 334.1406,41.9297 Q334.7656,40.7734 335.8594,40.1641 Q336.9531,39.5391 338.1875,39.5391 Q338.9219,39.5391 339.5625,39.7109 Q340.2188,39.8672 340.7656,40.2266 Z " fill="#000000"/><text fill="#000000" font-family="sans-serif" font-size="12" font-style="italic" lengthAdjust="spacing" textLength="44" x="350" y="40.457">«Entity»</text><text fill="#000000" font-family="sans-serif" font-size="14" lengthAdjust="spacing" textLength="39" x="352.5" y="57.627">Drone</text><line style="stroke:#181818;stroke-width:0.5;" x1="324" x2="394" y1="65.7031" y2="65.7031"/><line style="stroke:#181818;stroke-width:0.5;" x1="324" x2="394" y1="73.7031" y2="73.7031"/></g><!--MD5=[5c93cb3968bd9ae62c5288bd269568f5]
class MobileRobot--><g id="elem_MobileRobot"><rect codeLine="7" fill="#F1F1F1" height="58.7031" id="MobileRobot" rx="2.5" ry="2.5" style="stroke:#181818;stroke-width:0.5;" width="111" x="176.5" y="23"/><ellipse cx="191.5" cy="44.3516" fill="#ADD1B2" rx="11" ry="11" style="stroke:#181818;stroke-width:1.0;"/><path d="M194.2656,40.2266 Q194.4219,40.0078 194.6094,39.8984 Q194.7969,39.7891 195.0156,39.7891 Q195.3906,39.7891 195.625,40.0547 Q195.8594,40.3047 195.8594,40.9141 L195.8594,42.3672 Q195.8594,42.9766 195.625,43.2422 Q195.3906,43.5078 195.0156,43.5078 Q194.6719,43.5078 194.4688,43.3047 Q194.2656,43.1172 194.1563,42.6016 Q194.1094,42.2422 193.9219,42.0547 Q193.5938,41.6797 192.9844,41.4609 Q192.375,41.2422 191.75,41.2422 Q190.9844,41.2422 190.3438,41.5703 Q189.7188,41.8984 189.2188,42.6484 Q188.7344,43.3984 188.7344,44.4297 L188.7344,45.5234 Q188.7344,46.7578 189.625,47.5859 Q190.5156,48.3984 192.1094,48.3984 Q193.0469,48.3984 193.7031,48.1484 Q194.0938,47.9922 194.5156,47.5547 Q194.7813,47.2891 194.9219,47.2109 Q195.0781,47.1328 195.2813,47.1328 Q195.6094,47.1328 195.8594,47.3984 Q196.125,47.6484 196.125,47.9922 Q196.125,48.3359 195.7813,48.7422 Q195.2813,49.3203 194.4844,49.6484 Q193.4063,50.1016 192.1094,50.1016 Q190.5938,50.1016 189.3906,49.4766 Q188.4063,48.9766 187.7188,47.9141 Q187.0313,46.8359 187.0313,45.5547 L187.0313,44.3984 Q187.0313,43.0703 187.6406,41.9297 Q188.2656,40.7734 189.3594,40.1641 Q190.4531,39.5391 191.6875,39.5391 Q192.4219,39.5391 193.0625,39.7109 Q193.7188,39.8672 194.2656,40.2266 Z " fill="#000000"/><text fill="#000000" font-family="sans-serif" font-size="12" font-style="italic" lengthAdjust="spacing" textLength="44" x="223" y="40.457">«Entity»</text><text fill="#000000" font-family="sans-serif" font-size="14" lengthAdjust="spacing" textLength="79" x="205.5" y="57.627">MobileRobot</text><line style="stroke:#181818;stroke-width:0.5;" x1="177.5" x2="286.5" y1="65.7031" y2="65.7031"/><line style="stroke:#181818;stroke-width:0.5;" x1="177.5" x2="286.5" y1="73.7031" y2="73.7031"/></g><!--MD5=[ba580110b1777f63e0f1dfe3fcefdac0]
class Code--><g id="elem_Code"><rect codeLine="9" fill="#F1F1F1" height="73.7969" id="Code" rx="2.5" ry="2.5" style="stroke:#181818;stroke-width:0.5;" width="110" x="115" y="142"/><ellipse cx="130" cy="170.8984" fill="#FFA500" rx="11" ry="11" style="stroke:#181818;stroke-width:1.0;"/><path d="M130.6094,173.8359 L132.4531,170.0703 Q131.7656,170.0703 131.5781,169.9453 Q131.1563,169.6953 131.1563,169.2109 Q131.1563,168.8359 131.4219,168.6016 Q131.6875,168.3672 132.2969,168.3672 L134.625,168.3672 Q135.25,168.3672 135.5,168.6016 Q135.7656,168.8359 135.7656,169.2109 Q135.7656,169.5859 135.5,169.8359 Q135.25,170.0703 134.625,170.0703 L134.3438,170.0703 L131.5,175.8984 L129.7188,175.8984 L126.875,170.0703 L126.6406,170.0703 Q126.0156,170.0703 125.75,169.8359 Q125.5,169.5859 125.5,169.2109 Q125.5,168.8359 125.75,168.6016 Q126.0156,168.3672 126.6406,168.3672 L128.9219,168.3672 Q129.5313,168.3672 129.7813,168.6016 Q130.0469,168.8359 130.0469,169.2109 Q130.0469,169.6953 129.6563,169.9453 Q129.4531,170.0703 128.7656,170.0703 L130.6094,173.8359 Z " fill="#000000"/><text fill="#000000" font-family="sans-serif" font-size="12" font-style="italic" lengthAdjust="spacing" textLength="82" x="142" y="159.457">«ValueObject»</text><text fill="#000000" font-family="sans-serif" font-size="12" font-style="italic" lengthAdjust="spacing" textLength="52" x="157" y="174.5508">«unique»</text><text fill="#000000" font-family="sans-serif" font-size="14" lengthAdjust="spacing" textLength="34" x="166" y="191.7207">Code</text><line style="stroke:#181818;stroke-width:0.5;" x1="116" x2="224" y1="199.7969" y2="199.7969"/><line style="stroke:#181818;stroke-width:0.5;" x1="116" x2="224" y1="207.7969" y2="207.7969"/></g><!--MD5=[a6c99dc740669a944c9e548db6d151dd]
class Nickname--><g id="elem_Nickname"><rect codeLine="10" fill="#F1F1F1" height="58.7031" id="Nickname" rx="2.5" ry="2.5" style="stroke:#181818;stroke-width:0.5;" width="110" x="23" y="283.5"/><ellipse cx="38" cy="304.8516" fill="#A4C2E5" rx="11" ry="11" style="stroke:#181818;stroke-width:1.0;"/><path d="M38.6094,307.7891 L40.4531,304.0234 Q39.7656,304.0234 39.5781,303.8984 Q39.1563,303.6484 39.1563,303.1641 Q39.1563,302.7891 39.4219,302.5547 Q39.6875,302.3203 40.2969,302.3203 L42.625,302.3203 Q43.25,302.3203 43.5,302.5547 Q43.7656,302.7891 43.7656,303.1641 Q43.7656,303.5391 43.5,303.7891 Q43.25,304.0234 42.625,304.0234 L42.3438,304.0234 L39.5,309.8516 L37.7188,309.8516 L34.875,304.0234 L34.6406,304.0234 Q34.0156,304.0234 33.75,303.7891 Q33.5,303.5391 33.5,303.1641 Q33.5,302.7891 33.75,302.5547 Q34.0156,302.3203 34.6406,302.3203 L36.9219,302.3203 Q37.5313,302.3203 37.7813,302.5547 Q38.0469,302.7891 38.0469,303.1641 Q38.0469,303.6484 37.6563,303.8984 Q37.4531,304.0234 36.7656,304.0234 L38.6094,307.7891 Z " fill="#000000"/><text fill="#000000" font-family="sans-serif" font-size="12" font-style="italic" lengthAdjust="spacing" textLength="82" x="50" y="300.957">«ValueObject»</text><text fill="#000000" font-family="sans-serif" font-size="14" lengthAdjust="spacing" textLength="61" x="60.5" y="318.127">Nickname</text><line style="stroke:#181818;stroke-width:0.5;" x1="24" x2="132" y1="326.2031" y2="326.2031"/><line style="stroke:#181818;stroke-width:0.5;" x1="24" x2="132" y1="334.2031" y2="334.2031"/></g><!--MD5=[d20bc46e64a704623e12462602543b29]
class OperationStatus--><g id="elem_OperationStatus"><rect codeLine="11" fill="#F1F1F1" height="58.7031" id="OperationStatus" rx="2.5" ry="2.5" style="stroke:#181818;stroke-width:0.5;" width="135" x="168.5" y="283.5"/><ellipse cx="183.5" cy="304.8516" fill="#A4C2E5" rx="11" ry="11" style="stroke:#181818;stroke-width:1.0;"/><path d="M184.1094,307.7891 L185.9531,304.0234 Q185.2656,304.0234 185.0781,303.8984 Q184.6563,303.6484 184.6563,303.1641 Q184.6563,302.7891 184.9219,302.5547 Q185.1875,302.3203 185.7969,302.3203 L188.125,302.3203 Q188.75,302.3203 189,302.5547 Q189.2656,302.7891 189.2656,303.1641 Q189.2656,303.5391 189,303.7891 Q188.75,304.0234 188.125,304.0234 L187.8438,304.0234 L185,309.8516 L183.2188,309.8516 L180.375,304.0234 L180.1406,304.0234 Q179.5156,304.0234 179.25,303.7891 Q179,303.5391 179,303.1641 Q179,302.7891 179.25,302.5547 Q179.5156,302.3203 180.1406,302.3203 L182.4219,302.3203 Q183.0313,302.3203 183.2813,302.5547 Q183.5469,302.7891 183.5469,303.1641 Q183.5469,303.6484 183.1563,303.8984 Q182.9531,304.0234 182.2656,304.0234 L184.1094,307.7891 Z " fill="#000000"/><text fill="#000000" font-family="sans-serif" font-size="12" font-style="italic" lengthAdjust="spacing" textLength="82" x="208" y="300.957">«ValueObject»</text><text fill="#000000" font-family="sans-serif" font-size="14" lengthAdjust="spacing" textLength="103" x="197.5" y="318.127">OperationStatus</text><line style="stroke:#181818;stroke-width:0.5;" x1="169.5" x2="302.5" y1="326.2031" y2="326.2031"/><line style="stroke:#181818;stroke-width:0.5;" x1="169.5" x2="302.5" y1="334.2031" y2="334.2031"/></g><!--MD5=[2145d3acc3e1d933aedd8d638120a59b]
class SerialNumber--><g id="elem_SerialNumber"><rect codeLine="12" fill="#F1F1F1" height="58.7031" id="SerialNumber" rx="2.5" ry="2.5" style="stroke:#181818;stroke-width:0.5;" width="117" x="338.5" y="283.5"/><ellipse cx="353.5" cy="304.8516" fill="#A4C2E5" rx="11" ry="11" style="stroke:#181818;stroke-width:1.0;"/><path d="M354.1094,307.7891 L355.9531,304.0234 Q355.2656,304.0234 355.0781,303.8984 Q354.6563,303.6484 354.6563,303.1641 Q354.6563,302.7891 354.9219,302.5547 Q355.1875,302.3203 355.7969,302.3203 L358.125,302.3203 Q358.75,302.3203 359,302.5547 Q359.2656,302.7891 359.2656,303.1641 Q359.2656,303.5391 359,303.7891 Q358.75,304.0234 358.125,304.0234 L357.8438,304.0234 L355,309.8516 L353.2188,309.8516 L350.375,304.0234 L350.1406,304.0234 Q349.5156,304.0234 349.25,303.7891 Q349,303.5391 349,303.1641 Q349,302.7891 349.25,302.5547 Q349.5156,302.3203 350.1406,302.3203 L352.4219,302.3203 Q353.0313,302.3203 353.2813,302.5547 Q353.5469,302.7891 353.5469,303.1641 Q353.5469,303.6484 353.1563,303.8984 Q352.9531,304.0234 352.2656,304.0234 L354.1094,307.7891 Z " fill="#000000"/><text fill="#000000" font-family="sans-serif" font-size="12" font-style="italic" lengthAdjust="spacing" textLength="82" x="369" y="300.957">«ValueObject»</text><text fill="#000000" font-family="sans-serif" font-size="14" lengthAdjust="spacing" textLength="85" x="367.5" y="318.127">SerialNumber</text><line style="stroke:#181818;stroke-width:0.5;" x1="339.5" x2="454.5" y1="326.2031" y2="326.2031"/><line style="stroke:#181818;stroke-width:0.5;" x1="339.5" x2="454.5" y1="334.2031" y2="334.2031"/></g><!--MD5=[ccfa383e5efe879a22324d26e60c61a8]
class RobotType--><g id="elem_RobotType"><rect codeLine="16" fill="#F1F1F1" height="73.7969" id="RobotType" rx="2.5" ry="2.5" style="stroke:#181818;stroke-width:0.5;" width="102" x="671" y="276"/><ellipse cx="686" cy="304.8984" fill="#ADD1B2" rx="11" ry="11" style="stroke:#181818;stroke-width:1.0;"/><path d="M688.7656,300.7734 Q688.9219,300.5547 689.1094,300.4453 Q689.2969,300.3359 689.5156,300.3359 Q689.8906,300.3359 690.125,300.6016 Q690.3594,300.8516 690.3594,301.4609 L690.3594,302.9141 Q690.3594,303.5234 690.125,303.7891 Q689.8906,304.0547 689.5156,304.0547 Q689.1719,304.0547 688.9688,303.8516 Q688.7656,303.6641 688.6563,303.1484 Q688.6094,302.7891 688.4219,302.6016 Q688.0938,302.2266 687.4844,302.0078 Q686.875,301.7891 686.25,301.7891 Q685.4844,301.7891 684.8438,302.1172 Q684.2188,302.4453 683.7188,303.1953 Q683.2344,303.9453 683.2344,304.9766 L683.2344,306.0703 Q683.2344,307.3047 684.125,308.1328 Q685.0156,308.9453 686.6094,308.9453 Q687.5469,308.9453 688.2031,308.6953 Q688.5938,308.5391 689.0156,308.1016 Q689.2813,307.8359 689.4219,307.7578 Q689.5781,307.6797 689.7813,307.6797 Q690.1094,307.6797 690.3594,307.9453 Q690.625,308.1953 690.625,308.5391 Q690.625,308.8828 690.2813,309.2891 Q689.7813,309.8672 688.9844,310.1953 Q687.9063,310.6484 686.6094,310.6484 Q685.0938,310.6484 683.8906,310.0234 Q682.9063,309.5234 682.2188,308.4609 Q681.5313,307.3828 681.5313,306.1016 L681.5313,304.9453 Q681.5313,303.6172 682.1406,302.4766 Q682.7656,301.3203 683.8594,300.7109 Q684.9531,300.0859 686.1875,300.0859 Q686.9219,300.0859 687.5625,300.2578 Q688.2188,300.4141 688.7656,300.7734 Z " fill="#000000"/><text fill="#000000" font-family="sans-serif" font-size="12" font-style="italic" lengthAdjust="spacing" textLength="40" x="715" y="293.457">«Root»</text><text fill="#000000" font-family="sans-serif" font-size="12" font-style="italic" lengthAdjust="spacing" textLength="44" x="713" y="308.5508">«Entity»</text><text fill="#000000" font-family="sans-serif" font-size="14" lengthAdjust="spacing" textLength="70" x="700" y="325.7207">RobotType</text><line style="stroke:#181818;stroke-width:0.5;" x1="672" x2="772" y1="333.7969" y2="333.7969"/><line style="stroke:#181818;stroke-width:0.5;" x1="672" x2="772" y1="341.7969" y2="341.7969"/></g><!--MD5=[b37e77c56cf3ef8f9bee588977cc071b]
class AvailableTask--><g id="elem_AvailableTask"><rect codeLine="17" fill="#F1F1F1" height="58.7031" id="AvailableTask" rx="2.5" ry="2.5" style="stroke:#181818;stroke-width:0.5;" width="120" x="512" y="417.5"/><ellipse cx="527" cy="438.8516" fill="#A4C2E5" rx="11" ry="11" style="stroke:#181818;stroke-width:1.0;"/><path d="M527.6094,441.7891 L529.4531,438.0234 Q528.7656,438.0234 528.5781,437.8984 Q528.1563,437.6484 528.1563,437.1641 Q528.1563,436.7891 528.4219,436.5547 Q528.6875,436.3203 529.2969,436.3203 L531.625,436.3203 Q532.25,436.3203 532.5,436.5547 Q532.7656,436.7891 532.7656,437.1641 Q532.7656,437.5391 532.5,437.7891 Q532.25,438.0234 531.625,438.0234 L531.3438,438.0234 L528.5,443.8516 L526.7188,443.8516 L523.875,438.0234 L523.6406,438.0234 Q523.0156,438.0234 522.75,437.7891 Q522.5,437.5391 522.5,437.1641 Q522.5,436.7891 522.75,436.5547 Q523.0156,436.3203 523.6406,436.3203 L525.9219,436.3203 Q526.5313,436.3203 526.7813,436.5547 Q527.0469,436.7891 527.0469,437.1641 Q527.0469,437.6484 526.6563,437.8984 Q526.4531,438.0234 525.7656,438.0234 L527.6094,441.7891 Z " fill="#000000"/><text fill="#000000" font-family="sans-serif" font-size="12" font-style="italic" lengthAdjust="spacing" textLength="82" x="544" y="434.957">«ValueObject»</text><text fill="#000000" font-family="sans-serif" font-size="14" lengthAdjust="spacing" textLength="88" x="541" y="452.127">AvailableTask</text><line style="stroke:#181818;stroke-width:0.5;" x1="513" x2="631" y1="460.2031" y2="460.2031"/><line style="stroke:#181818;stroke-width:0.5;" x1="513" x2="631" y1="468.2031" y2="468.2031"/></g><!--MD5=[3b278ffc40e97be70963d933829cec5d]
class RobotModel--><g id="elem_RobotModel"><rect codeLine="18" fill="#F1F1F1" height="58.7031" id="RobotModel" rx="2.5" ry="2.5" style="stroke:#181818;stroke-width:0.5;" width="110" x="667" y="417.5"/><ellipse cx="682" cy="438.8516" fill="#A4C2E5" rx="11" ry="11" style="stroke:#181818;stroke-width:1.0;"/><path d="M682.6094,441.7891 L684.4531,438.0234 Q683.7656,438.0234 683.5781,437.8984 Q683.1563,437.6484 683.1563,437.1641 Q683.1563,436.7891 683.4219,436.5547 Q683.6875,436.3203 684.2969,436.3203 L686.625,436.3203 Q687.25,436.3203 687.5,436.5547 Q687.7656,436.7891 687.7656,437.1641 Q687.7656,437.5391 687.5,437.7891 Q687.25,438.0234 686.625,438.0234 L686.3438,438.0234 L683.5,443.8516 L681.7188,443.8516 L678.875,438.0234 L678.6406,438.0234 Q678.0156,438.0234 677.75,437.7891 Q677.5,437.5391 677.5,437.1641 Q677.5,436.7891 677.75,436.5547 Q678.0156,436.3203 678.6406,436.3203 L680.9219,436.3203 Q681.5313,436.3203 681.7813,436.5547 Q682.0469,436.7891 682.0469,437.1641 Q682.0469,437.6484 681.6563,437.8984 Q681.4531,438.0234 680.7656,438.0234 L682.6094,441.7891 Z " fill="#000000"/><text fill="#000000" font-family="sans-serif" font-size="12" font-style="italic" lengthAdjust="spacing" textLength="82" x="694" y="434.957">«ValueObject»</text><text fill="#000000" font-family="sans-serif" font-size="14" lengthAdjust="spacing" textLength="76" x="697" y="452.127">RobotModel</text><line style="stroke:#181818;stroke-width:0.5;" x1="668" x2="776" y1="460.2031" y2="460.2031"/><line style="stroke:#181818;stroke-width:0.5;" x1="668" x2="776" y1="468.2031" y2="468.2031"/></g><!--MD5=[0d9b317619b6760dc6c8a719da2234ae]
class RobotBrand--><g id="elem_RobotBrand"><rect codeLine="19" fill="#F1F1F1" height="58.7031" id="RobotBrand" rx="2.5" ry="2.5" style="stroke:#181818;stroke-width:0.5;" width="110" x="812" y="417.5"/><ellipse cx="827" cy="438.8516" fill="#A4C2E5" rx="11" ry="11" style="stroke:#181818;stroke-width:1.0;"/><path d="M827.6094,441.7891 L829.4531,438.0234 Q828.7656,438.0234 828.5781,437.8984 Q828.1563,437.6484 828.1563,437.1641 Q828.1563,436.7891 828.4219,436.5547 Q828.6875,436.3203 829.2969,436.3203 L831.625,436.3203 Q832.25,436.3203 832.5,436.5547 Q832.7656,436.7891 832.7656,437.1641 Q832.7656,437.5391 832.5,437.7891 Q832.25,438.0234 831.625,438.0234 L831.3438,438.0234 L828.5,443.8516 L826.7188,443.8516 L823.875,438.0234 L823.6406,438.0234 Q823.0156,438.0234 822.75,437.7891 Q822.5,437.5391 822.5,437.1641 Q822.5,436.7891 822.75,436.5547 Q823.0156,436.3203 823.6406,436.3203 L825.9219,436.3203 Q826.5313,436.3203 826.7813,436.5547 Q827.0469,436.7891 827.0469,437.1641 Q827.0469,437.6484 826.6563,437.8984 Q826.4531,438.0234 825.7656,438.0234 L827.6094,441.7891 Z " fill="#000000"/><text fill="#000000" font-family="sans-serif" font-size="12" font-style="italic" lengthAdjust="spacing" textLength="82" x="839" y="434.957">«ValueObject»</text><text fill="#000000" font-family="sans-serif" font-size="14" lengthAdjust="spacing" textLength="76" x="842" y="452.127">RobotBrand</text><line style="stroke:#181818;stroke-width:0.5;" x1="813" x2="921" y1="460.2031" y2="460.2031"/><line style="stroke:#181818;stroke-width:0.5;" x1="813" x2="921" y1="468.2031" y2="468.2031"/></g><!--MD5=[22ddf07ada84b5fdd1218dc43bed8f30]
class RobotTypeId--><g id="elem_RobotTypeId"><rect codeLine="20" fill="#F1F1F1" height="73.7969" id="RobotTypeId" rx="2.5" ry="2.5" style="stroke:#181818;stroke-width:0.5;" width="113" x="957.5" y="410"/><ellipse cx="972.5" cy="438.8984" fill="#FFA500" rx="11" ry="11" style="stroke:#181818;stroke-width:1.0;"/><path d="M973.1094,441.8359 L974.9531,438.0703 Q974.2656,438.0703 974.0781,437.9453 Q973.6563,437.6953 973.6563,437.2109 Q973.6563,436.8359 973.9219,436.6016 Q974.1875,436.3672 974.7969,436.3672 L977.125,436.3672 Q977.75,436.3672 978,436.6016 Q978.2656,436.8359 978.2656,437.2109 Q978.2656,437.5859 978,437.8359 Q977.75,438.0703 977.125,438.0703 L976.8438,438.0703 L974,443.8984 L972.2188,443.8984 L969.375,438.0703 L969.1406,438.0703 Q968.5156,438.0703 968.25,437.8359 Q968,437.5859 968,437.2109 Q968,436.8359 968.25,436.6016 Q968.5156,436.3672 969.1406,436.3672 L971.4219,436.3672 Q972.0313,436.3672 972.2813,436.6016 Q972.5469,436.8359 972.5469,437.2109 Q972.5469,437.6953 972.1563,437.9453 Q971.9531,438.0703 971.2656,438.0703 L973.1094,441.8359 Z " fill="#000000"/><text fill="#000000" font-family="sans-serif" font-size="12" font-style="italic" lengthAdjust="spacing" textLength="82" x="986" y="427.457">«ValueObject»</text><text fill="#000000" font-family="sans-serif" font-size="12" font-style="italic" lengthAdjust="spacing" textLength="52" x="1001" y="442.5508">«unique»</text><text fill="#000000" font-family="sans-serif" font-size="14" lengthAdjust="spacing" textLength="81" x="986.5" y="459.7207">RobotTypeId</text><line style="stroke:#181818;stroke-width:0.5;" x1="958.5" x2="1069.5" y1="467.7969" y2="467.7969"/><line style="stroke:#181818;stroke-width:0.5;" x1="958.5" x2="1069.5" y1="475.7969" y2="475.7969"/></g><!--MD5=[2cc822c55cb0011683d50097503aa780]
link MobileRobot to Robot--><g id="link_MobileRobot_Robot"><path codeLine="25" d="M273.75,82.16 C273.75,82.16 273.75,121.82 273.75,121.82 " fill="none" id="MobileRobot-to-Robot" style="stroke:#181818;stroke-width:1.0;"/><polygon fill="none" points="280.75,121.82,273.75,141.82,266.75,121.82,280.75,121.82" style="stroke:#181818;stroke-width:1.0;"/></g><!--MD5=[241cc8a22b7a0c9301daa44ae531b72d]
link Drone to Robot--><g id="link_Drone_Robot"><path codeLine="26" d="M327.5,82.16 C327.5,82.16 327.5,121.82 327.5,121.82 " fill="none" id="Drone-to-Robot" style="stroke:#181818;stroke-width:1.0;"/><polygon fill="none" points="334.5,121.82,327.5,141.82,320.5,121.82,334.5,121.82" style="stroke:#181818;stroke-width:1.0;"/></g><!--MD5=[2c5ed39efa3d1bb0d8e8a6569aee9aac]
reverse link Code to Robot--><g id="link_Code_Robot"><path codeLine="27" d="M230.27,179 C230.27,179 259.99,179 259.99,179 " fill="none" id="Code-backto-Robot" style="stroke:#181818;stroke-width:1.0;"/><polygon fill="#181818" points="225.27,179,234.27,183,230.27,179,234.27,175,225.27,179" style="stroke:#181818;stroke-width:1.0;"/><text fill="#000000" font-family="sans-serif" font-size="13" lengthAdjust="spacing" textLength="7" x="233.1672" y="175.4574">1</text><text fill="#000000" font-family="sans-serif" font-size="13" lengthAdjust="spacing" textLength="7" x="244.8411" y="174.9023">1</text></g><!--MD5=[ca76a5cd1232cecc0d7d3307256b492c]
link Robot to RobotType--><g id="link_Robot_RobotType"><path codeLine="28" d="M322.5,216.04 C322.5,244.86 322.5,280 322.5,280 C322.5,280 666,280 666,280 " fill="none" id="Robot-to-RobotType" style="stroke:#181818;stroke-width:1.0;"/><polygon fill="#181818" points="671,280,662,276,666,280,662,284,671,280" style="stroke:#181818;stroke-width:1.0;"/><text fill="#000000" font-family="sans-serif" font-size="13" lengthAdjust="spacing" textLength="5" x="321.625" y="237.324">*</text><text fill="#000000" font-family="sans-serif" font-size="13" lengthAdjust="spacing" textLength="7" x="655.9953" y="271.514">1</text></g><!--MD5=[2479c5d89cd9b3e5e8bdb97dd832f511]
link Robot to OperationStatus--><g id="link_Robot_OperationStatus"><path codeLine="29" d="M289,216.33 C289,216.33 289,278.07 289,278.07 " fill="none" id="Robot-to-OperationStatus" style="stroke:#181818;stroke-width:1.0;"/><polygon fill="#181818" points="289,283.07,293,274.07,289,278.07,285,274.07,289,283.07" style="stroke:#181818;stroke-width:1.0;"/><text fill="#000000" font-family="sans-serif" font-size="13" lengthAdjust="spacing" textLength="5" x="282.4266" y="237.3788">*</text><text fill="#000000" font-family="sans-serif" font-size="13" lengthAdjust="spacing" textLength="7" x="292.2094" y="272.8089">1</text></g><!--MD5=[4c60e35692fd65e6a9072570090c4732]
link Robot to Nickname--><g id="link_Robot_Nickname"><path codeLine="30" d="M274.5,216.03 C274.5,231.52 274.5,246 274.5,246 C274.5,246 124,246 124,246 C124,246 124,278.42 124,278.42 " fill="none" id="Robot-to-Nickname" style="stroke:#181818;stroke-width:1.0;"/><polygon fill="#181818" points="124,283.42,128,274.42,124,278.42,120,274.42,124,283.42" style="stroke:#181818;stroke-width:1.0;"/><text fill="#000000" font-family="sans-serif" font-size="13" lengthAdjust="spacing" textLength="7" x="263.2031" y="237.3123">1</text><text fill="#000000" font-family="sans-serif" font-size="13" lengthAdjust="spacing" textLength="7" x="126.2969" y="272.7654">1</text></g><!--MD5=[e2e55c0343cd14f927eade45e39b61b6]
link Robot to SerialNumber--><g id="link_Robot_SerialNumber"><path codeLine="31" d="M313,216.33 C313,255.98 313,313 313,313 C313,313 333.2,313 333.2,313 " fill="none" id="Robot-to-SerialNumber" style="stroke:#181818;stroke-width:1.0;"/><polygon fill="#181818" points="338.2,313,329.2,309,333.2,313,329.2,317,338.2,313" style="stroke:#181818;stroke-width:1.0;"/><text fill="#000000" font-family="sans-serif" font-size="13" lengthAdjust="spacing" textLength="7" x="308.2359" y="237.3788">1</text><text fill="#000000" font-family="sans-serif" font-size="13" lengthAdjust="spacing" textLength="7" x="323.6072" y="309.5596">1</text></g><!--MD5=[8b41b02cfa30a2ac6a0b39f3fe227f91]
link RobotType to RobotModel--><g id="link_RobotType_RobotModel"><path codeLine="33" d="M705,350.33 C705,350.33 705,412.07 705,412.07 " fill="none" id="RobotType-to-RobotModel" style="stroke:#181818;stroke-width:1.0;"/><polygon fill="#181818" points="705,417.07,709,408.07,705,412.07,701,408.07,705,417.07" style="stroke:#181818;stroke-width:1.0;"/><text fill="#000000" font-family="sans-serif" font-size="13" lengthAdjust="spacing" textLength="5" x="696.7703" y="371.3788">*</text><text fill="#000000" font-family="sans-serif" font-size="13" lengthAdjust="spacing" textLength="7" x="693.7719" y="406.8089">1</text></g><!--MD5=[7dd0e14c260b4cf25b9457a761f8a81e]
link RobotType to RobotBrand--><g id="link_RobotType_RobotBrand"><path codeLine="34" d="M773.12,313 C814.87,313 867,313 867,313 C867,313 867,412.26 867,412.26 " fill="none" id="RobotType-to-RobotBrand" style="stroke:#181818;stroke-width:1.0;"/><polygon fill="#181818" points="867,417.26,871,408.26,867,412.26,863,408.26,867,417.26" style="stroke:#181818;stroke-width:1.0;"/><text fill="#000000" font-family="sans-serif" font-size="13" lengthAdjust="spacing" textLength="5" x="780.9954" y="309.3609">*</text><text fill="#000000" font-family="sans-serif" font-size="13" lengthAdjust="spacing" textLength="7" x="859.2344" y="406.5704">1</text></g><!--MD5=[ec4198872635756e2e6753e978bcd51d]
link RobotType to AvailableTask--><g id="link_RobotType_AvailableTask"><path codeLine="35" d="M670.8,347 C627.34,347 572,347 572,347 C572,347 572,412.27 572,412.27 " fill="none" id="RobotType-to-AvailableTask" style="stroke:#181818;stroke-width:1.0;"/><polygon fill="#181818" points="572,417.27,576,408.27,572,412.27,568,408.27,572,417.27" style="stroke:#181818;stroke-width:1.0;"/><text fill="#000000" font-family="sans-serif" font-size="13" lengthAdjust="spacing" textLength="5" x="657.9128" y="348.3546">*</text><text fill="#000000" font-family="sans-serif" font-size="13" lengthAdjust="spacing" textLength="5" x="566.4531" y="406.5826">*</text></g><!--MD5=[959d224b3368a063bf8207fbdd21be17]
link RobotType to RobotTypeId--><g id="link_RobotType_RobotTypeId"><path codeLine="36" d="M739,350.04 C739,378.86 739,414 739,414 C739,414 952.35,414 952.35,414 " fill="none" id="RobotType-to-RobotTypeId" style="stroke:#181818;stroke-width:1.0;"/><polygon fill="#181818" points="957.35,414,948.35,410,952.35,414,948.35,418,957.35,414" style="stroke:#181818;stroke-width:1.0;"/><text fill="#000000" font-family="sans-serif" font-size="13" lengthAdjust="spacing" textLength="7" x="734.3203" y="371.324">1</text><text fill="#000000" font-family="sans-serif" font-size="13" lengthAdjust="spacing" textLength="7" x="942.6433" y="406.2775">1</text></g><!--MD5=[16d1b0324c06c78bf5421bd5c2ae713e]
@startuml domain

skinparam linetype ortho
'========================================================
rectangle #464D77{
class Robot << Root >> << Entity >>
class Drone  << Entity >>
class MobileRobot  << Entity >>

class Code  << (v,orange) ValueObject >> << unique >>
class Nickname  << (v,#A4C2E5) ValueObject >>
class OperationStatus  << (v,#A4C2E5) ValueObject >>
class SerialNumber  << (v,#A4C2E5) ValueObject >>
}
'========================================================
rectangle #96A377{
class RobotType << Root >> << Entity >>
class AvailableTask  << (v,#A4C2E5) ValueObject >>
class RobotModel  << (v,#A4C2E5) ValueObject >>
class RobotBrand  << (v,#A4C2E5) ValueObject >>
class RobotTypeId << (v,orange) ValueObject >> << unique >>
}

'========================================================

Robot <|-u- MobileRobot
Robot <|-u- Drone
Robot "1"-l->"1" Code
Robot "*"- ->"1" RobotType
Robot "*"-d->"1" OperationStatus
Robot "1"- ->"1" Nickname
Robot "1"- ->"1" SerialNumber

RobotType "*"- ->"1" RobotModel
RobotType "*"- ->"1" RobotBrand
RobotType "*"- ->"*" AvailableTask
RobotType "1"- ->"1" RobotTypeId

@enduml

@startuml domain

skinparam linetype ortho
rectangle #464D77{
class Robot << Root >> << Entity >>
class Drone  << Entity >>
class MobileRobot  << Entity >>

class Code  << (v,orange) ValueObject >> << unique >>
class Nickname  << (v,#A4C2E5) ValueObject >>
class OperationStatus  << (v,#A4C2E5) ValueObject >>
class SerialNumber  << (v,#A4C2E5) ValueObject >>
}
rectangle #96A377{
class RobotType << Root >> << Entity >>
class AvailableTask  << (v,#A4C2E5) ValueObject >>
class RobotModel  << (v,#A4C2E5) ValueObject >>
class RobotBrand  << (v,#A4C2E5) ValueObject >>
class RobotTypeId << (v,orange) ValueObject >> << unique >>
}


Robot <|-u- MobileRobot
Robot <|-u- Drone
Robot "1"-l->"1" Code
Robot "*"- ->"1" RobotType
Robot "*"-d->"1" OperationStatus
Robot "1"- ->"1" Nickname
Robot "1"- ->"1" SerialNumber

RobotType "*"- ->"1" RobotModel
RobotType "*"- ->"1" RobotBrand
RobotType "*"- ->"*" AvailableTask
RobotType "1"- ->"1" RobotTypeId

@enduml

PlantUML version 1.2022.7(Mon Aug 22 18:01:30 WEST 2022)
(GPL source distribution)
Java Runtime: Java(TM) SE Runtime Environment
JVM: Java HotSpot(TM) 64-Bit Server VM
Default Encoding: UTF-8
Language: pt
Country: PT
--></g></svg>