<?xml version="1.0" encoding="us-ascii" standalone="no"?><svg xmlns="http://www.w3.org/2000/svg" xmlns:xlink="http://www.w3.org/1999/xlink" contentStyleType="text/css" height="197.6px" preserveAspectRatio="none" style="width:640px;height:197px;background:#FFFFFF;" version="1.1" viewBox="0 0 640 197" width="640px" zoomAndPan="magnify"><defs/><g><g id="cluster_##2"><rect fill="#36827F" height="182.4" rx="2" ry="2" style="stroke:#181818;stroke-width:0.8000000000000002;" width="271.2" x="5.6" y="11.0596"/></g><g id="cluster_##7"><rect fill="#D499B9" height="177.2" rx="2" ry="2" style="stroke:#181818;stroke-width:0.8000000000000002;" width="339.2" x="296" y="11.0596"/></g><!--class Building--><g id="elem_Building"><rect codeLine="6" fill="#F1F1F1" height="54.7625" id="Building" rx="2" ry="2" style="stroke:#181818;stroke-width:0.4000000000000001;" width="65.6" x="184" y="23.8596"/><ellipse cx="196" cy="44.8409" fill="#ADD1B2" rx="8.8" ry="8.8" style="stroke:#181818;stroke-width:0.8000000000000002;"/><path d="M198.2125,41.5409 Q198.3375,41.3659 198.4875,41.2784 Q198.6375,41.1909 198.8125,41.1909 Q199.1125,41.1909 199.3,41.4034 Q199.4875,41.6034 199.4875,42.0909 L199.4875,43.2534 Q199.4875,43.7409 199.3,43.9534 Q199.1125,44.1659 198.8125,44.1659 Q198.5375,44.1659 198.375,44.0034 Q198.2125,43.8534 198.125,43.4409 Q198.0875,43.1534 197.9375,43.0034 Q197.675,42.7034 197.1875,42.5284 Q196.7,42.3534 196.2,42.3534 Q195.5875,42.3534 195.075,42.6159 Q194.575,42.8784 194.175,43.4784 Q193.7875,44.0784 193.7875,44.9034 L193.7875,45.7784 Q193.7875,46.7659 194.5,47.4284 Q195.2125,48.0784 196.4875,48.0784 Q197.2375,48.0784 197.7625,47.8784 Q198.075,47.7534 198.4125,47.4034 Q198.625,47.1909 198.7375,47.1284 Q198.8625,47.0659 199.025,47.0659 Q199.2875,47.0659 199.4875,47.2784 Q199.7,47.4784 199.7,47.7534 Q199.7,48.0284 199.425,48.3534 Q199.025,48.8159 198.3875,49.0784 Q197.525,49.4409 196.4875,49.4409 Q195.275,49.4409 194.3125,48.9409 Q193.525,48.5409 192.975,47.6909 Q192.425,46.8284 192.425,45.8034 L192.425,44.8784 Q192.425,43.8159 192.9125,42.9034 Q193.4125,41.9784 194.2875,41.4909 Q195.1625,40.9909 196.15,40.9909 Q196.7375,40.9909 197.25,41.1284 Q197.775,41.2534 198.2125,41.5409 Z " fill="#000000"/><text fill="#000000" font-family="sans-serif" font-size="9.6" font-style="italic" lengthAdjust="spacing" textLength="32" x="211.2" y="36.5502">&#171;Root&#187;</text><text fill="#000000" font-family="sans-serif" font-size="9.6" font-style="italic" lengthAdjust="spacing" textLength="35.2" x="209.6" y="47.2752">&#171;Entity&#187;</text><text fill="#000000" font-family="sans-serif" font-size="11.2" lengthAdjust="spacing" textLength="40" x="207.2" y="59.4487">Building</text><line style="stroke:#181818;stroke-width:0.4000000000000001;" x1="184.8" x2="248.8" y1="65.8221" y2="65.8221"/><line style="stroke:#181818;stroke-width:0.4000000000000001;" x1="184.8" x2="248.8" y1="72.2221" y2="72.2221"/></g><!--class BuildingDescription--><g id="elem_BuildingDescription"><rect codeLine="7" fill="#F1F1F1" height="44.0375" id="BuildingDescription" rx="2" ry="2" style="stroke:#181818;stroke-width:0.4000000000000001;" width="122.4" x="18.8" y="131.4596"/><ellipse cx="30.8" cy="147.0784" fill="#A4C2E5" rx="8.8" ry="8.8" style="stroke:#181818;stroke-width:0.8000000000000002;"/><path d="M31.2875,149.4284 L32.7625,146.4159 Q32.2125,146.4159 32.0625,146.3159 Q31.725,146.1159 31.725,145.7284 Q31.725,145.4284 31.9375,145.2409 Q32.15,145.0534 32.6375,145.0534 L34.5,145.0534 Q35,145.0534 35.2,145.2409 Q35.4125,145.4284 35.4125,145.7284 Q35.4125,146.0284 35.2,146.2284 Q35,146.4159 34.5,146.4159 L34.275,146.4159 L32,151.0784 L30.575,151.0784 L28.3,146.4159 L28.1125,146.4159 Q27.6125,146.4159 27.4,146.2284 Q27.2,146.0284 27.2,145.7284 Q27.2,145.4284 27.4,145.2409 Q27.6125,145.0534 28.1125,145.0534 L29.9375,145.0534 Q30.425,145.0534 30.625,145.2409 Q30.8375,145.4284 30.8375,145.7284 Q30.8375,146.1159 30.525,146.3159 Q30.3625,146.4159 29.8125,146.4159 L31.2875,149.4284 Z " fill="#000000"/><text fill="#000000" font-family="sans-serif" font-size="9.6" font-style="italic" lengthAdjust="spacing" textLength="65.6" x="57.6" y="144.1502">&#171;ValueObject&#187;</text><text fill="#000000" font-family="sans-serif" font-size="11.2" lengthAdjust="spacing" textLength="96.8" x="42" y="156.3237">BuildingDescription</text><line style="stroke:#181818;stroke-width:0.4000000000000001;" x1="19.6" x2="140.4" y1="162.6971" y2="162.6971"/><line style="stroke:#181818;stroke-width:0.4000000000000001;" x1="19.6" x2="140.4" y1="169.0971" y2="169.0971"/></g><!--class BuildingName--><g id="elem_BuildingName"><rect codeLine="8" fill="#F1F1F1" height="54.7625" id="BuildingName" rx="2" ry="2" style="stroke:#181818;stroke-width:0.4000000000000001;" width="94.4" x="169.6" y="126.2596"/><ellipse cx="181.6" cy="147.2409" fill="#FFA500" rx="8.8" ry="8.8" style="stroke:#181818;stroke-width:0.8000000000000002;"/><path d="M182.0875,149.5909 L183.5625,146.5784 Q183.0125,146.5784 182.8625,146.4784 Q182.525,146.2784 182.525,145.8909 Q182.525,145.5909 182.7375,145.4034 Q182.95,145.2159 183.4375,145.2159 L185.3,145.2159 Q185.8,145.2159 186,145.4034 Q186.2125,145.5909 186.2125,145.8909 Q186.2125,146.1909 186,146.3909 Q185.8,146.5784 185.3,146.5784 L185.075,146.5784 L182.8,151.2409 L181.375,151.2409 L179.1,146.5784 L178.9125,146.5784 Q178.4125,146.5784 178.2,146.3909 Q178,146.1909 178,145.8909 Q178,145.5909 178.2,145.4034 Q178.4125,145.2159 178.9125,145.2159 L180.7375,145.2159 Q181.225,145.2159 181.425,145.4034 Q181.6375,145.5909 181.6375,145.8909 Q181.6375,146.2784 181.325,146.4784 Q181.1625,146.5784 180.6125,146.5784 L182.0875,149.5909 Z " fill="#000000"/><text fill="#000000" font-family="sans-serif" font-size="9.6" font-style="italic" lengthAdjust="spacing" textLength="65.6" x="194.4" y="138.9502">&#171;ValueObject&#187;</text><text fill="#000000" font-family="sans-serif" font-size="9.6" font-style="italic" lengthAdjust="spacing" textLength="41.6" x="206.4" y="149.6752">&#171;unique&#187;</text><text fill="#000000" font-family="sans-serif" font-size="11.2" lengthAdjust="spacing" textLength="68.8" x="192.8" y="161.8487">BuildingName</text><line style="stroke:#181818;stroke-width:0.4000000000000001;" x1="170.4" x2="263.2" y1="168.2221" y2="168.2221"/><line style="stroke:#181818;stroke-width:0.4000000000000001;" x1="170.4" x2="263.2" y1="174.6221" y2="174.6221"/></g><!--class Floor--><g id="elem_Floor"><rect codeLine="12" fill="#F1F1F1" height="54.7625" id="Floor" rx="2" ry="2" style="stroke:#181818;stroke-width:0.4000000000000001;" width="57.6" x="428" y="23.8596"/><ellipse cx="440" cy="44.8409" fill="#ADD1B2" rx="8.8" ry="8.8" style="stroke:#181818;stroke-width:0.8000000000000002;"/><path d="M442.2125,41.5409 Q442.3375,41.3659 442.4875,41.2784 Q442.6375,41.1909 442.8125,41.1909 Q443.1125,41.1909 443.3,41.4034 Q443.4875,41.6034 443.4875,42.0909 L443.4875,43.2534 Q443.4875,43.7409 443.3,43.9534 Q443.1125,44.1659 442.8125,44.1659 Q442.5375,44.1659 442.375,44.0034 Q442.2125,43.8534 442.125,43.4409 Q442.0875,43.1534 441.9375,43.0034 Q441.675,42.7034 441.1875,42.5284 Q440.7,42.3534 440.2,42.3534 Q439.5875,42.3534 439.075,42.6159 Q438.575,42.8784 438.175,43.4784 Q437.7875,44.0784 437.7875,44.9034 L437.7875,45.7784 Q437.7875,46.7659 438.5,47.4284 Q439.2125,48.0784 440.4875,48.0784 Q441.2375,48.0784 441.7625,47.8784 Q442.075,47.7534 442.4125,47.4034 Q442.625,47.1909 442.7375,47.1284 Q442.8625,47.0659 443.025,47.0659 Q443.2875,47.0659 443.4875,47.2784 Q443.7,47.4784 443.7,47.7534 Q443.7,48.0284 443.425,48.3534 Q443.025,48.8159 442.3875,49.0784 Q441.525,49.4409 440.4875,49.4409 Q439.275,49.4409 438.3125,48.9409 Q437.525,48.5409 436.975,47.6909 Q436.425,46.8284 436.425,45.8034 L436.425,44.8784 Q436.425,43.8159 436.9125,42.9034 Q437.4125,41.9784 438.2875,41.4909 Q439.1625,40.9909 440.15,40.9909 Q440.7375,40.9909 441.25,41.1284 Q441.775,41.2534 442.2125,41.5409 Z " fill="#000000"/><text fill="#000000" font-family="sans-serif" font-size="9.6" font-style="italic" lengthAdjust="spacing" textLength="32" x="451.2" y="36.5502">&#171;Root&#187;</text><text fill="#000000" font-family="sans-serif" font-size="9.6" font-style="italic" lengthAdjust="spacing" textLength="35.2" x="449.6" y="47.2752">&#171;Entity&#187;</text><text fill="#000000" font-family="sans-serif" font-size="11.2" lengthAdjust="spacing" textLength="26.4" x="454" y="59.4487">Floor</text><line style="stroke:#181818;stroke-width:0.4000000000000001;" x1="428.8" x2="484.8" y1="65.8221" y2="65.8221"/><line style="stroke:#181818;stroke-width:0.4000000000000001;" x1="428.8" x2="484.8" y1="72.2221" y2="72.2221"/></g><!--class FloorNumber--><g id="elem_FloorNumber"><rect codeLine="13" fill="#F1F1F1" height="54.7625" id="FloorNumber" rx="2" ry="2" style="stroke:#181818;stroke-width:0.4000000000000001;" width="91.2" x="308.8" y="23.8596"/><ellipse cx="320.8" cy="44.8409" fill="#FFA500" rx="8.8" ry="8.8" style="stroke:#181818;stroke-width:0.8000000000000002;"/><path d="M321.2875,47.1909 L322.7625,44.1784 Q322.2125,44.1784 322.0625,44.0784 Q321.725,43.8784 321.725,43.4909 Q321.725,43.1909 321.9375,43.0034 Q322.15,42.8159 322.6375,42.8159 L324.5,42.8159 Q325,42.8159 325.2,43.0034 Q325.4125,43.1909 325.4125,43.4909 Q325.4125,43.7909 325.2,43.9909 Q325,44.1784 324.5,44.1784 L324.275,44.1784 L322,48.8409 L320.575,48.8409 L318.3,44.1784 L318.1125,44.1784 Q317.6125,44.1784 317.4,43.9909 Q317.2,43.7909 317.2,43.4909 Q317.2,43.1909 317.4,43.0034 Q317.6125,42.8159 318.1125,42.8159 L319.9375,42.8159 Q320.425,42.8159 320.625,43.0034 Q320.8375,43.1909 320.8375,43.4909 Q320.8375,43.8784 320.525,44.0784 Q320.3625,44.1784 319.8125,44.1784 L321.2875,47.1909 Z " fill="#000000"/><text fill="#000000" font-family="sans-serif" font-size="9.6" font-style="italic" lengthAdjust="spacing" textLength="65.6" x="332" y="36.5502">&#171;ValueObject&#187;</text><text fill="#000000" font-family="sans-serif" font-size="9.6" font-style="italic" lengthAdjust="spacing" textLength="41.6" x="344" y="47.2752">&#171;unique&#187;</text><text fill="#000000" font-family="sans-serif" font-size="11.2" lengthAdjust="spacing" textLength="65.6" x="332" y="59.4487">FloorNumber</text><line style="stroke:#181818;stroke-width:0.4000000000000001;" x1="309.6" x2="399.2" y1="65.8221" y2="65.8221"/><line style="stroke:#181818;stroke-width:0.4000000000000001;" x1="309.6" x2="399.2" y1="72.2221" y2="72.2221"/></g><!--class FloorDescription--><g id="elem_FloorDescription"><rect codeLine="14" fill="#F1F1F1" height="44.0375" id="FloorDescription" rx="2" ry="2" style="stroke:#181818;stroke-width:0.4000000000000001;" width="108.8" x="513.6" y="29.0596"/><ellipse cx="525.6" cy="44.6784" fill="#A4C2E5" rx="8.8" ry="8.8" style="stroke:#181818;stroke-width:0.8000000000000002;"/><path d="M526.0875,47.0284 L527.5625,44.0159 Q527.0125,44.0159 526.8625,43.9159 Q526.525,43.7159 526.525,43.3284 Q526.525,43.0284 526.7375,42.8409 Q526.95,42.6534 527.4375,42.6534 L529.3,42.6534 Q529.8,42.6534 530,42.8409 Q530.2125,43.0284 530.2125,43.3284 Q530.2125,43.6284 530,43.8284 Q529.8,44.0159 529.3,44.0159 L529.075,44.0159 L526.8,48.6784 L525.375,48.6784 L523.1,44.0159 L522.9125,44.0159 Q522.4125,44.0159 522.2,43.8284 Q522,43.6284 522,43.3284 Q522,43.0284 522.2,42.8409 Q522.4125,42.6534 522.9125,42.6534 L524.7375,42.6534 Q525.225,42.6534 525.425,42.8409 Q525.6375,43.0284 525.6375,43.3284 Q525.6375,43.7159 525.325,43.9159 Q525.1625,44.0159 524.6125,44.0159 L526.0875,47.0284 Z " fill="#000000"/><text fill="#000000" font-family="sans-serif" font-size="9.6" font-style="italic" lengthAdjust="spacing" textLength="65.6" x="545.6" y="41.7502">&#171;ValueObject&#187;</text><text fill="#000000" font-family="sans-serif" font-size="11.2" lengthAdjust="spacing" textLength="83.2" x="536.8" y="53.9237">FloorDescription</text><line style="stroke:#181818;stroke-width:0.4000000000000001;" x1="514.4" x2="621.6" y1="60.2971" y2="60.2971"/><line style="stroke:#181818;stroke-width:0.4000000000000001;" x1="514.4" x2="621.6" y1="66.6971" y2="66.6971"/></g><!--class FloorMap--><g id="elem_FloorMap"><rect codeLine="15" fill="#F1F1F1" height="44.0375" id="FloorMap" rx="2" ry="2" style="stroke:#181818;stroke-width:0.4000000000000001;" width="73.6" x="420" y="131.4596"/><ellipse cx="432" cy="147.0784" fill="#ADD1B2" rx="8.8" ry="8.8" style="stroke:#181818;stroke-width:0.8000000000000002;"/><path d="M434.2125,143.7784 Q434.3375,143.6034 434.4875,143.5159 Q434.6375,143.4284 434.8125,143.4284 Q435.1125,143.4284 435.3,143.6409 Q435.4875,143.8409 435.4875,144.3284 L435.4875,145.4909 Q435.4875,145.9784 435.3,146.1909 Q435.1125,146.4034 434.8125,146.4034 Q434.5375,146.4034 434.375,146.2409 Q434.2125,146.0909 434.125,145.6784 Q434.0875,145.3909 433.9375,145.2409 Q433.675,144.9409 433.1875,144.7659 Q432.7,144.5909 432.2,144.5909 Q431.5875,144.5909 431.075,144.8534 Q430.575,145.1159 430.175,145.7159 Q429.7875,146.3159 429.7875,147.1409 L429.7875,148.0159 Q429.7875,149.0034 430.5,149.6659 Q431.2125,150.3159 432.4875,150.3159 Q433.2375,150.3159 433.7625,150.1159 Q434.075,149.9909 434.4125,149.6409 Q434.625,149.4284 434.7375,149.3659 Q434.8625,149.3034 435.025,149.3034 Q435.2875,149.3034 435.4875,149.5159 Q435.7,149.7159 435.7,149.9909 Q435.7,150.2659 435.425,150.5909 Q435.025,151.0534 434.3875,151.3159 Q433.525,151.6784 432.4875,151.6784 Q431.275,151.6784 430.3125,151.1784 Q429.525,150.7784 428.975,149.9284 Q428.425,149.0659 428.425,148.0409 L428.425,147.1159 Q428.425,146.0534 428.9125,145.1409 Q429.4125,144.2159 430.2875,143.7284 Q431.1625,143.2284 432.15,143.2284 Q432.7375,143.2284 433.25,143.3659 Q433.775,143.4909 434.2125,143.7784 Z " fill="#000000"/><text fill="#000000" font-family="sans-serif" font-size="9.6" font-style="italic" lengthAdjust="spacing" textLength="35.2" x="449.6" y="144.1502">&#171;Entity&#187;</text><text fill="#000000" font-family="sans-serif" font-size="11.2" lengthAdjust="spacing" textLength="48" x="443.2" y="156.3237">FloorMap</text><line style="stroke:#181818;stroke-width:0.4000000000000001;" x1="420.8" x2="492.8" y1="162.6971" y2="162.6971"/><line style="stroke:#181818;stroke-width:0.4000000000000001;" x1="420.8" x2="492.8" y1="169.0971" y2="169.0971"/></g><!--link Building to Floor--><g id="link_Building_Floor"><path codeLine="19" d="M216.8,23.7796 C216.8,15.9316 216.8,9.4596 216.8,9.4596 C216.8,9.4596 456.8,9.4596 456.8,9.4596 C456.8,9.4596 456.8,19.7796 456.8,19.7796 " fill="none" id="Building-to-Floor" style="stroke:#181818;stroke-width:0.8000000000000002;"/><polygon fill="#181818" points="456.8,23.7796,460,16.5796,456.8,19.7796,453.6,16.5796,456.8,23.7796" style="stroke:#181818;stroke-width:0.8000000000000002;"/><text fill="#000000" font-family="sans-serif" font-size="10.4" lengthAdjust="spacing" textLength="5.6" x="210.6225" y="15.2188">1</text><text fill="#000000" font-family="sans-serif" font-size="10.4" lengthAdjust="spacing" textLength="4" x="452.3875" y="15.2188">*</text></g><!--link Building to BuildingDescription--><g id="link_Building_BuildingDescription"><path codeLine="20" d="M183.688,51.0596 C143.2,51.0596 80,51.0596 80,51.0596 C80,51.0596 80,127.2436 80,127.2436 " fill="none" id="Building-to-BuildingDescription" style="stroke:#181818;stroke-width:0.8000000000000002;"/><polygon fill="#181818" points="80,131.2436,83.2,124.0436,80,127.2436,76.8,124.0436,80,131.2436" style="stroke:#181818;stroke-width:0.8000000000000002;"/><text fill="#000000" font-family="sans-serif" font-size="10.4" lengthAdjust="spacing" textLength="4" x="173.6531" y="48.3168">*</text><text fill="#000000" font-family="sans-serif" font-size="10.4" lengthAdjust="spacing" textLength="17.6" x="60.255" y="122.7248">0..1</text></g><!--link Building to BuildingName--><g id="link_Building_BuildingName"><path codeLine="21" d="M216.8,78.4996 C216.8,78.4996 216.8,121.9396 216.8,121.9396 " fill="none" id="Building-to-BuildingName" style="stroke:#181818;stroke-width:0.8000000000000002;"/><polygon fill="#181818" points="216.8,125.9396,220,118.7396,216.8,121.9396,213.6,118.7396,216.8,125.9396" style="stroke:#181818;stroke-width:0.8000000000000002;"/><text fill="#000000" font-family="sans-serif" font-size="10.4" lengthAdjust="spacing" textLength="5.6" x="210.6488" y="94.4247">1</text><text fill="#000000" font-family="sans-serif" font-size="10.4" lengthAdjust="spacing" textLength="5.6" x="210.6488" y="117.6395">1</text></g><!--link Floor to FloorMap--><g id="link_Floor_FloorMap"><path codeLine="25" d="M456.8,78.4996 C456.8,78.4996 456.8,127.4516 456.8,127.4516 " fill="none" id="Floor-to-FloorMap" style="stroke:#181818;stroke-width:0.8000000000000002;"/><polygon fill="#181818" points="456.8,131.4516,460,124.2516,456.8,127.4516,453.6,124.2516,456.8,131.4516" style="stroke:#181818;stroke-width:0.8000000000000002;"/><text fill="#000000" font-family="sans-serif" font-size="10.4" lengthAdjust="spacing" textLength="5.6" x="450.6488" y="94.4247">1</text><text fill="#000000" font-family="sans-serif" font-size="10.4" lengthAdjust="spacing" textLength="5.6" x="450.5175" y="122.9835">1</text></g><!--reverse link FloorNumber to Floor--><g id="link_FloorNumber_Floor"><path codeLine="26" d="M404.208,51.0596 C404.208,51.0596 427.784,51.0596 427.784,51.0596 " fill="none" id="FloorNumber-backto-Floor" style="stroke:#181818;stroke-width:0.8000000000000002;"/><polygon fill="#181818" points="400.208,51.0596,407.408,54.2596,404.208,51.0596,407.408,47.8596,400.208,51.0596" style="stroke:#181818;stroke-width:0.8000000000000002;"/><text fill="#000000" font-family="sans-serif" font-size="10.4" lengthAdjust="spacing" textLength="5.6" x="406.4359" y="48.5606">1</text><text fill="#000000" font-family="sans-serif" font-size="10.4" lengthAdjust="spacing" textLength="4" x="417.6777" y="48.1775">*</text></g><!--link Floor to FloorDescription--><g id="link_Floor_FloorDescription"><path codeLine="27" d="M485.728,51.0596 C485.728,51.0596 509.568,51.0596 509.568,51.0596 " fill="none" id="Floor-to-FloorDescription" style="stroke:#181818;stroke-width:0.8000000000000002;"/><polygon fill="#181818" points="513.568,51.0596,506.368,47.8596,509.568,51.0596,506.368,54.2596,513.568,51.0596" style="stroke:#181818;stroke-width:0.8000000000000002;"/><text fill="#000000" font-family="sans-serif" font-size="10.4" lengthAdjust="spacing" textLength="4" x="492.1069" y="48.1253">*</text><text fill="#000000" font-family="sans-serif" font-size="10.4" lengthAdjust="spacing" textLength="5.6" x="501.7083" y="48.6828">1</text></g><!--SRC=[bL7BRi8m4BpxArRcqgA2UFKH2KNYUGCa3hsRiA86nquT6mbL_NViH2aEhLJbvlNCU6R7-OdBZ6cMWk0IpIL3KDfyA4A8niGmUH08hU7Bs-1r-KKImV8SffQBFPS7WF4OjaePY6D_N4Z3pSKDTxmvvedccU5A5fA7yrDhCfeD5i-FyCw4nStkwBn-2zSinKgXjCk2zm8FMia_BNhrTotqV1H5qwWAlHHAwVyI5wIrJNUec_W6uiQx5geLow2Un-_oqpFjqqvCsxGa1_Tjsd50hzljqx_Qhh_Wc07DT-i-cPIzU7nV4gf05U8yx0qeomcm6nGQaoi0]--></g></svg>