<?xml version="1.0" encoding="us-ascii" standalone="no"?><svg xmlns="http://www.w3.org/2000/svg" xmlns:xlink="http://www.w3.org/1999/xlink" contentStyleType="text/css" height="247px" preserveAspectRatio="none" style="width:1096px;height:247px;background:#FFFFFF;" version="1.1" viewBox="0 0 1096 247" width="1096px" zoomAndPan="magnify"><defs/><g><g id="cluster_##2"><rect fill="#36827F" height="228" rx="2.5" ry="2.5" style="stroke:#181818;stroke-width:1.0;" width="635" x="7" y="13.8245"/></g><g id="cluster_##9"><rect fill="#D499B9" height="221.5" rx="2.5" ry="2.5" style="stroke:#181818;stroke-width:1.0;" width="424" x="666" y="13.8245"/></g><!--class Building--><g id="elem_Building"><rect codeLine="6" fill="#F1F1F1" height="68.4531" id="Building" rx="2.5" ry="2.5" style="stroke:#181818;stroke-width:0.5;" width="82" x="382" y="29.8245"/><ellipse cx="397" cy="56.0511" fill="#ADD1B2" rx="11" ry="11" style="stroke:#181818;stroke-width:1.0;"/><path d="M399.7656,51.9261 Q399.9219,51.7073 400.1094,51.5979 Q400.2969,51.4886 400.5156,51.4886 Q400.8906,51.4886 401.125,51.7542 Q401.3594,52.0042 401.3594,52.6136 L401.3594,54.0667 Q401.3594,54.6761 401.125,54.9417 Q400.8906,55.2073 400.5156,55.2073 Q400.1719,55.2073 399.9688,55.0042 Q399.7656,54.8167 399.6563,54.3011 Q399.6094,53.9417 399.4219,53.7542 Q399.0938,53.3792 398.4844,53.1604 Q397.875,52.9417 397.25,52.9417 Q396.4844,52.9417 395.8438,53.2698 Q395.2188,53.5979 394.7188,54.3479 Q394.2344,55.0979 394.2344,56.1292 L394.2344,57.2229 Q394.2344,58.4573 395.125,59.2854 Q396.0156,60.0979 397.6094,60.0979 Q398.5469,60.0979 399.2031,59.8479 Q399.5938,59.6917 400.0156,59.2542 Q400.2813,58.9886 400.4219,58.9104 Q400.5781,58.8323 400.7813,58.8323 Q401.1094,58.8323 401.3594,59.0979 Q401.625,59.3479 401.625,59.6917 Q401.625,60.0354 401.2813,60.4417 Q400.7813,61.0198 399.9844,61.3479 Q398.9063,61.8011 397.6094,61.8011 Q396.0938,61.8011 394.8906,61.1761 Q393.9063,60.6761 393.2188,59.6136 Q392.5313,58.5354 392.5313,57.2542 L392.5313,56.0979 Q392.5313,54.7698 393.1406,53.6292 Q393.7656,52.4729 394.8594,51.8636 Q395.9531,51.2386 397.1875,51.2386 Q397.9219,51.2386 398.5625,51.4104 Q399.2188,51.5667 399.7656,51.9261 Z " fill="#000000"/><text fill="#000000" font-family="sans-serif" font-size="12" font-style="italic" lengthAdjust="spacing" textLength="40" x="416" y="45.6878">&#171;Root&#187;</text><text fill="#000000" font-family="sans-serif" font-size="12" font-style="italic" lengthAdjust="spacing" textLength="44" x="414" y="59.094">&#171;Entity&#187;</text><text fill="#000000" font-family="sans-serif" font-size="14" lengthAdjust="spacing" textLength="50" x="411" y="74.3108">Building</text><line style="stroke:#181818;stroke-width:0.5;" x1="383" x2="463" y1="82.2776" y2="82.2776"/><line style="stroke:#181818;stroke-width:0.5;" x1="383" x2="463" y1="90.2776" y2="90.2776"/></g><!--class BuildingDescription--><g id="elem_BuildingDescription"><rect codeLine="7" fill="#F1F1F1" height="55.0469" id="BuildingDescription" rx="2.5" ry="2.5" style="stroke:#181818;stroke-width:0.5;" width="153" x="23.5" y="164.3245"/><ellipse cx="38.5" cy="183.8479" fill="#A4C2E5" rx="11" ry="11" style="stroke:#181818;stroke-width:1.0;"/><path d="M39.1094,186.7854 L40.9531,183.0198 Q40.2656,183.0198 40.0781,182.8948 Q39.6563,182.6448 39.6563,182.1604 Q39.6563,181.7854 39.9219,181.5511 Q40.1875,181.3167 40.7969,181.3167 L43.125,181.3167 Q43.75,181.3167 44,181.5511 Q44.2656,181.7854 44.2656,182.1604 Q44.2656,182.5354 44,182.7854 Q43.75,183.0198 43.125,183.0198 L42.8438,183.0198 L40,188.8479 L38.2188,188.8479 L35.375,183.0198 L35.1406,183.0198 Q34.5156,183.0198 34.25,182.7854 Q34,182.5354 34,182.1604 Q34,181.7854 34.25,181.5511 Q34.5156,181.3167 35.1406,181.3167 L37.4219,181.3167 Q38.0313,181.3167 38.2813,181.5511 Q38.5469,181.7854 38.5469,182.1604 Q38.5469,182.6448 38.1563,182.8948 Q37.9531,183.0198 37.2656,183.0198 L39.1094,186.7854 Z " fill="#000000"/><text fill="#000000" font-family="sans-serif" font-size="12" font-style="italic" lengthAdjust="spacing" textLength="82" x="72" y="180.1878">&#171;ValueObject&#187;</text><text fill="#000000" font-family="sans-serif" font-size="14" lengthAdjust="spacing" textLength="121" x="52.5" y="195.4046">BuildingDescription</text><line style="stroke:#181818;stroke-width:0.5;" x1="24.5" x2="175.5" y1="203.3714" y2="203.3714"/><line style="stroke:#181818;stroke-width:0.5;" x1="24.5" x2="175.5" y1="211.3714" y2="211.3714"/></g><!--class BuildingName--><g id="elem_BuildingName"><rect codeLine="8" fill="#F1F1F1" height="55.0469" id="BuildingName" rx="2.5" ry="2.5" style="stroke:#181818;stroke-width:0.5;" width="118" x="212" y="164.3245"/><ellipse cx="227" cy="183.8479" fill="#A4C2E5" rx="11" ry="11" style="stroke:#181818;stroke-width:1.0;"/><path d="M227.6094,186.7854 L229.4531,183.0198 Q228.7656,183.0198 228.5781,182.8948 Q228.1563,182.6448 228.1563,182.1604 Q228.1563,181.7854 228.4219,181.5511 Q228.6875,181.3167 229.2969,181.3167 L231.625,181.3167 Q232.25,181.3167 232.5,181.5511 Q232.7656,181.7854 232.7656,182.1604 Q232.7656,182.5354 232.5,182.7854 Q232.25,183.0198 231.625,183.0198 L231.3438,183.0198 L228.5,188.8479 L226.7188,188.8479 L223.875,183.0198 L223.6406,183.0198 Q223.0156,183.0198 222.75,182.7854 Q222.5,182.5354 222.5,182.1604 Q222.5,181.7854 222.75,181.5511 Q223.0156,181.3167 223.6406,181.3167 L225.9219,181.3167 Q226.5313,181.3167 226.7813,181.5511 Q227.0469,181.7854 227.0469,182.1604 Q227.0469,182.6448 226.6563,182.8948 Q226.4531,183.0198 225.7656,183.0198 L227.6094,186.7854 Z " fill="#000000"/><text fill="#000000" font-family="sans-serif" font-size="12" font-style="italic" lengthAdjust="spacing" textLength="82" x="243" y="180.1878">&#171;ValueObject&#187;</text><text fill="#000000" font-family="sans-serif" font-size="14" lengthAdjust="spacing" textLength="86" x="241" y="195.4046">BuildingName</text><line style="stroke:#181818;stroke-width:0.5;" x1="213" x2="329" y1="203.3714" y2="203.3714"/><line style="stroke:#181818;stroke-width:0.5;" x1="213" x2="329" y1="211.3714" y2="211.3714"/></g><!--class BuildingCode--><g id="elem_BuildingCode"><rect codeLine="9" fill="#F1F1F1" height="68.4531" id="BuildingCode" rx="2.5" ry="2.5" style="stroke:#181818;stroke-width:0.5;" width="116" x="365" y="157.8245"/><ellipse cx="380" cy="184.0511" fill="#FFA500" rx="11" ry="11" style="stroke:#181818;stroke-width:1.0;"/><path d="M380.6094,186.9886 L382.4531,183.2229 Q381.7656,183.2229 381.5781,183.0979 Q381.1563,182.8479 381.1563,182.3636 Q381.1563,181.9886 381.4219,181.7542 Q381.6875,181.5198 382.2969,181.5198 L384.625,181.5198 Q385.25,181.5198 385.5,181.7542 Q385.7656,181.9886 385.7656,182.3636 Q385.7656,182.7386 385.5,182.9886 Q385.25,183.2229 384.625,183.2229 L384.3438,183.2229 L381.5,189.0511 L379.7188,189.0511 L376.875,183.2229 L376.6406,183.2229 Q376.0156,183.2229 375.75,182.9886 Q375.5,182.7386 375.5,182.3636 Q375.5,181.9886 375.75,181.7542 Q376.0156,181.5198 376.6406,181.5198 L378.9219,181.5198 Q379.5313,181.5198 379.7813,181.7542 Q380.0469,181.9886 380.0469,182.3636 Q380.0469,182.8479 379.6563,183.0979 Q379.4531,183.2229 378.7656,183.2229 L380.6094,186.9886 Z " fill="#000000"/><text fill="#000000" font-family="sans-serif" font-size="12" font-style="italic" lengthAdjust="spacing" textLength="82" x="395" y="173.6878">&#171;ValueObject&#187;</text><text fill="#000000" font-family="sans-serif" font-size="12" font-style="italic" lengthAdjust="spacing" textLength="52" x="410" y="187.094">&#171;unique&#187;</text><text fill="#000000" font-family="sans-serif" font-size="14" lengthAdjust="spacing" textLength="84" x="394" y="202.3108">BuildingCode</text><line style="stroke:#181818;stroke-width:0.5;" x1="366" x2="480" y1="210.2776" y2="210.2776"/><line style="stroke:#181818;stroke-width:0.5;" x1="366" x2="480" y1="218.2776" y2="218.2776"/></g><!--class BuildingSize--><g id="elem_BuildingSize"><rect codeLine="10" fill="#F1F1F1" height="55.0469" id="BuildingSize" rx="2.5" ry="2.5" style="stroke:#181818;stroke-width:0.5;" width="110" x="516" y="164.3245"/><ellipse cx="531" cy="183.8479" fill="#A4C2E5" rx="11" ry="11" style="stroke:#181818;stroke-width:1.0;"/><path d="M531.6094,186.7854 L533.4531,183.0198 Q532.7656,183.0198 532.5781,182.8948 Q532.1563,182.6448 532.1563,182.1604 Q532.1563,181.7854 532.4219,181.5511 Q532.6875,181.3167 533.2969,181.3167 L535.625,181.3167 Q536.25,181.3167 536.5,181.5511 Q536.7656,181.7854 536.7656,182.1604 Q536.7656,182.5354 536.5,182.7854 Q536.25,183.0198 535.625,183.0198 L535.3438,183.0198 L532.5,188.8479 L530.7188,188.8479 L527.875,183.0198 L527.6406,183.0198 Q527.0156,183.0198 526.75,182.7854 Q526.5,182.5354 526.5,182.1604 Q526.5,181.7854 526.75,181.5511 Q527.0156,181.3167 527.6406,181.3167 L529.9219,181.3167 Q530.5313,181.3167 530.7813,181.5511 Q531.0469,181.7854 531.0469,182.1604 Q531.0469,182.6448 530.6563,182.8948 Q530.4531,183.0198 529.7656,183.0198 L531.6094,186.7854 Z " fill="#000000"/><text fill="#000000" font-family="sans-serif" font-size="12" font-style="italic" lengthAdjust="spacing" textLength="82" x="543" y="180.1878">&#171;ValueObject&#187;</text><text fill="#000000" font-family="sans-serif" font-size="14" lengthAdjust="spacing" textLength="76" x="546" y="195.4046">BuildingSize</text><line style="stroke:#181818;stroke-width:0.5;" x1="517" x2="625" y1="203.3714" y2="203.3714"/><line style="stroke:#181818;stroke-width:0.5;" x1="517" x2="625" y1="211.3714" y2="211.3714"/></g><!--class Floor--><g id="elem_Floor"><rect codeLine="14" fill="#F1F1F1" height="68.4531" id="Floor" rx="2.5" ry="2.5" style="stroke:#181818;stroke-width:0.5;" width="72" x="831" y="29.8245"/><ellipse cx="846" cy="56.0511" fill="#ADD1B2" rx="11" ry="11" style="stroke:#181818;stroke-width:1.0;"/><path d="M848.7656,51.9261 Q848.9219,51.7073 849.1094,51.5979 Q849.2969,51.4886 849.5156,51.4886 Q849.8906,51.4886 850.125,51.7542 Q850.3594,52.0042 850.3594,52.6136 L850.3594,54.0667 Q850.3594,54.6761 850.125,54.9417 Q849.8906,55.2073 849.5156,55.2073 Q849.1719,55.2073 848.9688,55.0042 Q848.7656,54.8167 848.6563,54.3011 Q848.6094,53.9417 848.4219,53.7542 Q848.0938,53.3792 847.4844,53.1604 Q846.875,52.9417 846.25,52.9417 Q845.4844,52.9417 844.8438,53.2698 Q844.2188,53.5979 843.7188,54.3479 Q843.2344,55.0979 843.2344,56.1292 L843.2344,57.2229 Q843.2344,58.4573 844.125,59.2854 Q845.0156,60.0979 846.6094,60.0979 Q847.5469,60.0979 848.2031,59.8479 Q848.5938,59.6917 849.0156,59.2542 Q849.2813,58.9886 849.4219,58.9104 Q849.5781,58.8323 849.7813,58.8323 Q850.1094,58.8323 850.3594,59.0979 Q850.625,59.3479 850.625,59.6917 Q850.625,60.0354 850.2813,60.4417 Q849.7813,61.0198 848.9844,61.3479 Q847.9063,61.8011 846.6094,61.8011 Q845.0938,61.8011 843.8906,61.1761 Q842.9063,60.6761 842.2188,59.6136 Q841.5313,58.5354 841.5313,57.2542 L841.5313,56.0979 Q841.5313,54.7698 842.1406,53.6292 Q842.7656,52.4729 843.8594,51.8636 Q844.9531,51.2386 846.1875,51.2386 Q846.9219,51.2386 847.5625,51.4104 Q848.2188,51.5667 848.7656,51.9261 Z " fill="#000000"/><text fill="#000000" font-family="sans-serif" font-size="12" font-style="italic" lengthAdjust="spacing" textLength="40" x="860" y="45.6878">&#171;Root&#187;</text><text fill="#000000" font-family="sans-serif" font-size="12" font-style="italic" lengthAdjust="spacing" textLength="44" x="858" y="59.094">&#171;Entity&#187;</text><text fill="#000000" font-family="sans-serif" font-size="14" lengthAdjust="spacing" textLength="33" x="863.5" y="74.3108">Floor</text><line style="stroke:#181818;stroke-width:0.5;" x1="832" x2="902" y1="82.2776" y2="82.2776"/><line style="stroke:#181818;stroke-width:0.5;" x1="832" x2="902" y1="90.2776" y2="90.2776"/></g><!--class FloorNumber--><g id="elem_FloorNumber"><rect codeLine="15" fill="#F1F1F1" height="68.4531" id="FloorNumber" rx="2.5" ry="2.5" style="stroke:#181818;stroke-width:0.5;" width="114" x="682" y="29.8245"/><ellipse cx="697" cy="56.0511" fill="#FFA500" rx="11" ry="11" style="stroke:#181818;stroke-width:1.0;"/><path d="M697.6094,58.9886 L699.4531,55.2229 Q698.7656,55.2229 698.5781,55.0979 Q698.1563,54.8479 698.1563,54.3636 Q698.1563,53.9886 698.4219,53.7542 Q698.6875,53.5198 699.2969,53.5198 L701.625,53.5198 Q702.25,53.5198 702.5,53.7542 Q702.7656,53.9886 702.7656,54.3636 Q702.7656,54.7386 702.5,54.9886 Q702.25,55.2229 701.625,55.2229 L701.3438,55.2229 L698.5,61.0511 L696.7188,61.0511 L693.875,55.2229 L693.6406,55.2229 Q693.0156,55.2229 692.75,54.9886 Q692.5,54.7386 692.5,54.3636 Q692.5,53.9886 692.75,53.7542 Q693.0156,53.5198 693.6406,53.5198 L695.9219,53.5198 Q696.5313,53.5198 696.7813,53.7542 Q697.0469,53.9886 697.0469,54.3636 Q697.0469,54.8479 696.6563,55.0979 Q696.4531,55.2229 695.7656,55.2229 L697.6094,58.9886 Z " fill="#000000"/><text fill="#000000" font-family="sans-serif" font-size="12" font-style="italic" lengthAdjust="spacing" textLength="82" x="711" y="45.6878">&#171;ValueObject&#187;</text><text fill="#000000" font-family="sans-serif" font-size="12" font-style="italic" lengthAdjust="spacing" textLength="52" x="726" y="59.094">&#171;unique&#187;</text><text fill="#000000" font-family="sans-serif" font-size="14" lengthAdjust="spacing" textLength="82" x="711" y="74.3108">FloorNumber</text><line style="stroke:#181818;stroke-width:0.5;" x1="683" x2="795" y1="82.2776" y2="82.2776"/><line style="stroke:#181818;stroke-width:0.5;" x1="683" x2="795" y1="90.2776" y2="90.2776"/></g><!--class FloorDescription--><g id="elem_FloorDescription"><rect codeLine="16" fill="#F1F1F1" height="55.0469" id="FloorDescription" rx="2.5" ry="2.5" style="stroke:#181818;stroke-width:0.5;" width="136" x="938" y="36.3245"/><ellipse cx="953" cy="55.8479" fill="#A4C2E5" rx="11" ry="11" style="stroke:#181818;stroke-width:1.0;"/><path d="M953.6094,58.7854 L955.4531,55.0198 Q954.7656,55.0198 954.5781,54.8948 Q954.1563,54.6448 954.1563,54.1604 Q954.1563,53.7854 954.4219,53.5511 Q954.6875,53.3167 955.2969,53.3167 L957.625,53.3167 Q958.25,53.3167 958.5,53.5511 Q958.7656,53.7854 958.7656,54.1604 Q958.7656,54.5354 958.5,54.7854 Q958.25,55.0198 957.625,55.0198 L957.3438,55.0198 L954.5,60.8479 L952.7188,60.8479 L949.875,55.0198 L949.6406,55.0198 Q949.0156,55.0198 948.75,54.7854 Q948.5,54.5354 948.5,54.1604 Q948.5,53.7854 948.75,53.5511 Q949.0156,53.3167 949.6406,53.3167 L951.9219,53.3167 Q952.5313,53.3167 952.7813,53.5511 Q953.0469,53.7854 953.0469,54.1604 Q953.0469,54.6448 952.6563,54.8948 Q952.4531,55.0198 951.7656,55.0198 L953.6094,58.7854 Z " fill="#000000"/><text fill="#000000" font-family="sans-serif" font-size="12" font-style="italic" lengthAdjust="spacing" textLength="82" x="978" y="52.1878">&#171;ValueObject&#187;</text><text fill="#000000" font-family="sans-serif" font-size="14" lengthAdjust="spacing" textLength="104" x="967" y="67.4046">FloorDescription</text><line style="stroke:#181818;stroke-width:0.5;" x1="939" x2="1073" y1="75.3714" y2="75.3714"/><line style="stroke:#181818;stroke-width:0.5;" x1="939" x2="1073" y1="83.3714" y2="83.3714"/></g><!--class FloorMap--><g id="elem_FloorMap"><rect codeLine="17" fill="#F1F1F1" height="55.0469" id="FloorMap" rx="2.5" ry="2.5" style="stroke:#181818;stroke-width:0.5;" width="92" x="821" y="164.3245"/><ellipse cx="836" cy="183.8479" fill="#ADD1B2" rx="11" ry="11" style="stroke:#181818;stroke-width:1.0;"/><path d="M838.7656,179.7229 Q838.9219,179.5042 839.1094,179.3948 Q839.2969,179.2854 839.5156,179.2854 Q839.8906,179.2854 840.125,179.5511 Q840.3594,179.8011 840.3594,180.4104 L840.3594,181.8636 Q840.3594,182.4729 840.125,182.7386 Q839.8906,183.0042 839.5156,183.0042 Q839.1719,183.0042 838.9688,182.8011 Q838.7656,182.6136 838.6563,182.0979 Q838.6094,181.7386 838.4219,181.5511 Q838.0938,181.1761 837.4844,180.9573 Q836.875,180.7386 836.25,180.7386 Q835.4844,180.7386 834.8438,181.0667 Q834.2188,181.3948 833.7188,182.1448 Q833.2344,182.8948 833.2344,183.9261 L833.2344,185.0198 Q833.2344,186.2542 834.125,187.0823 Q835.0156,187.8948 836.6094,187.8948 Q837.5469,187.8948 838.2031,187.6448 Q838.5938,187.4886 839.0156,187.0511 Q839.2813,186.7854 839.4219,186.7073 Q839.5781,186.6292 839.7813,186.6292 Q840.1094,186.6292 840.3594,186.8948 Q840.625,187.1448 840.625,187.4886 Q840.625,187.8323 840.2813,188.2386 Q839.7813,188.8167 838.9844,189.1448 Q837.9063,189.5979 836.6094,189.5979 Q835.0938,189.5979 833.8906,188.9729 Q832.9063,188.4729 832.2188,187.4104 Q831.5313,186.3323 831.5313,185.0511 L831.5313,183.8948 Q831.5313,182.5667 832.1406,181.4261 Q832.7656,180.2698 833.8594,179.6604 Q834.9531,179.0354 836.1875,179.0354 Q836.9219,179.0354 837.5625,179.2073 Q838.2188,179.3636 838.7656,179.7229 Z " fill="#000000"/><text fill="#000000" font-family="sans-serif" font-size="12" font-style="italic" lengthAdjust="spacing" textLength="44" x="858" y="180.1878">&#171;Entity&#187;</text><text fill="#000000" font-family="sans-serif" font-size="14" lengthAdjust="spacing" textLength="60" x="850" y="195.4046">FloorMap</text><line style="stroke:#181818;stroke-width:0.5;" x1="822" x2="912" y1="203.3714" y2="203.3714"/><line style="stroke:#181818;stroke-width:0.5;" x1="822" x2="912" y1="211.3714" y2="211.3714"/></g><!--link Building to Floor--><g id="link_Building_Floor"><path codeLine="21" d="M423,29.7245 C423,19.9145 423,11.8245 423,11.8245 C423,11.8245 867,11.8245 867,11.8245 C867,11.8245 867,24.7245 867,24.7245 " fill="none" id="Building-to-Floor" style="stroke:#181818;stroke-width:1.0;"/><polygon fill="#181818" points="867,29.7245,871,20.7245,867,24.7245,863,20.7245,867,29.7245" style="stroke:#181818;stroke-width:1.0;"/><text fill="#000000" font-family="sans-serif" font-size="13" lengthAdjust="spacing" textLength="7" x="415.2781" y="19.0234">1</text><text fill="#000000" font-family="sans-serif" font-size="13" lengthAdjust="spacing" textLength="5" x="861.4844" y="19.0234">*</text></g><!--link Building to BuildingDescription--><g id="link_Building_BuildingDescription"><path codeLine="22" d="M381.76,52.8245 C294.69,52.8245 100,52.8245 100,52.8245 C100,52.8245 100,159.0345 100,159.0345 " fill="none" id="Building-to-BuildingDescription" style="stroke:#181818;stroke-width:1.0;"/><polygon fill="#181818" points="100,164.0345,104,155.0345,100,159.0345,96,155.0345,100,164.0345" style="stroke:#181818;stroke-width:1.0;"/><text fill="#000000" font-family="sans-serif" font-size="13" lengthAdjust="spacing" textLength="5" x="368.9688" y="47.3931">*</text><text fill="#000000" font-family="sans-serif" font-size="13" lengthAdjust="spacing" textLength="22" x="75.3188" y="153.3811">0..1</text></g><!--link Building to BuildingName--><g id="link_Building_BuildingName"><path codeLine="23" d="M381.87,75.8245 C336.85,75.8245 271,75.8245 271,75.8245 C271,75.8245 271,159.0445 271,159.0445 " fill="none" id="Building-to-BuildingName" style="stroke:#181818;stroke-width:1.0;"/><polygon fill="#181818" points="271,164.0445,275,155.0445,271,159.0445,267,155.0445,271,164.0445" style="stroke:#181818;stroke-width:1.0;"/><text fill="#000000" font-family="sans-serif" font-size="13" lengthAdjust="spacing" textLength="7" x="366.9203" y="74.4899">1</text><text fill="#000000" font-family="sans-serif" font-size="13" lengthAdjust="spacing" textLength="7" x="263.1469" y="153.3935">1</text></g><!--link Building to BuildingSize--><g id="link_Building_BuildingSize"><path codeLine="24" d="M464.23,63.8245 C508.02,63.8245 571,63.8245 571,63.8245 C571,63.8245 571,159.0545 571,159.0545 " fill="none" id="Building-to-BuildingSize" style="stroke:#181818;stroke-width:1.0;"/><polygon fill="#181818" points="571,164.0545,575,155.0545,571,159.0545,567,155.0545,571,164.0545" style="stroke:#181818;stroke-width:1.0;"/><text fill="#000000" font-family="sans-serif" font-size="13" lengthAdjust="spacing" textLength="5" x="472.0194" y="60.3524">*</text><text fill="#000000" font-family="sans-serif" font-size="13" lengthAdjust="spacing" textLength="7" x="563.1469" y="153.406">1</text></g><!--link Building to BuildingCode--><g id="link_Building_BuildingCode"><path codeLine="25" d="M423,98.1245 C423,98.1245 423,152.4245 423,152.4245 " fill="none" id="Building-to-BuildingCode" style="stroke:#181818;stroke-width:1.0;"/><polygon fill="#181818" points="423,157.4245,427,148.4245,423,152.4245,419,148.4245,423,157.4245" style="stroke:#181818;stroke-width:1.0;"/><text fill="#000000" font-family="sans-serif" font-size="13" lengthAdjust="spacing" textLength="7" x="415.3109" y="118.0309">1</text><text fill="#000000" font-family="sans-serif" font-size="13" lengthAdjust="spacing" textLength="7" x="415.3109" y="147.0494">1</text></g><!--link Floor to FloorMap--><g id="link_Floor_FloorMap"><path codeLine="28" d="M867,98.1245 C867,98.1245 867,159.3145 867,159.3145 " fill="none" id="Floor-to-FloorMap" style="stroke:#181818;stroke-width:1.0;"/><polygon fill="#181818" points="867,164.3145,871,155.3145,867,159.3145,863,155.3145,867,164.3145" style="stroke:#181818;stroke-width:1.0;"/><text fill="#000000" font-family="sans-serif" font-size="13" lengthAdjust="spacing" textLength="7" x="859.3109" y="118.0309">1</text><text fill="#000000" font-family="sans-serif" font-size="13" lengthAdjust="spacing" textLength="7" x="859.1469" y="153.7293">1</text></g><!--reverse link FloorNumber to Floor--><g id="link_FloorNumber_Floor"><path codeLine="29" d="M801.26,63.8245 C801.26,63.8245 830.73,63.8245 830.73,63.8245 " fill="none" id="FloorNumber-backto-Floor" style="stroke:#181818;stroke-width:1.0;"/><polygon fill="#181818" points="796.26,63.8245,805.26,67.8245,801.26,63.8245,805.26,59.8245,796.26,63.8245" style="stroke:#181818;stroke-width:1.0;"/><text fill="#000000" font-family="sans-serif" font-size="13" lengthAdjust="spacing" textLength="7" x="804.0449" y="60.7007">1</text><text fill="#000000" font-family="sans-serif" font-size="13" lengthAdjust="spacing" textLength="5" x="818.0972" y="60.2219">*</text></g><!--link Floor to FloorDescription--><g id="link_Floor_FloorDescription"><path codeLine="30" d="M903.16,63.8245 C903.16,63.8245 932.96,63.8245 932.96,63.8245 " fill="none" id="Floor-to-FloorDescription" style="stroke:#181818;stroke-width:1.0;"/><polygon fill="#181818" points="937.96,63.8245,928.96,59.8245,932.96,63.8245,928.96,67.8245,937.96,63.8245" style="stroke:#181818;stroke-width:1.0;"/><text fill="#000000" font-family="sans-serif" font-size="13" lengthAdjust="spacing" textLength="5" x="911.1336" y="60.1566">*</text><text fill="#000000" font-family="sans-serif" font-size="13" lengthAdjust="spacing" textLength="7" x="923.1353" y="60.8535">1</text></g><!--SRC=[bP9TJyCW58Rl-HKdx4ONjxWvFveiJTpNdJFHn7lMdaoKGgLWCet_NMZJZQx6fNV0-pw7mtiethdCcMOP22xHx784fSsh8eHeJ0oJMu7Gkxgv6z-klaaYM570p7AHSha5c4xXIIa3SUoNIscusRdDaM-1HQ9vRhYI9NBsUT6xdyp7o-jpU672ukFcpTtL1jSimsx4NALxGcdNFHu3NhIIVrXiqy_yw-HzFurW5fCecaLrC2kXb3wLIcbQsso3kdkd9Tmvpv9wO3aq-_5lsS-IZkWWfdrQcOFpFXquuN8u7D6_9jgiu9o1pS-lLIdGVTx_yNwQxYDMiNevhVJwFRNY2jk3K6KRQ0Sfx9ly0W00]--></g></svg>