<?xml version="1.0" encoding="us-ascii" standalone="no"?><svg xmlns="http://www.w3.org/2000/svg" xmlns:xlink="http://www.w3.org/1999/xlink" contentStyleType="text/css" height="360px" preserveAspectRatio="none" style="width:490px;height:360px;background:#FFFFFF;" version="1.1" viewBox="0 0 490 360" width="490.4px" zoomAndPan="magnify"><defs/><g><rect fill="#FFFFFF" height="22.8188" style="stroke:#181818;stroke-width:0.8000000000000002;" width="8" x="297.6" y="88.9313"/><rect fill="#FFFFFF" height="22.8188" style="stroke:#181818;stroke-width:0.8000000000000002;" width="8" x="297.6" y="134.5688"/><rect fill="#FFFFFF" height="101.675" style="stroke:#181818;stroke-width:0.8000000000000002;" width="8" x="297.6" y="180.2063"/><rect fill="#FFFFFF" height="56.0375" style="stroke:#181818;stroke-width:0.8000000000000002;" width="8" x="397.2" y="203.025"/><line style="stroke:#181818;stroke-width:0.4000000000000001;stroke-dasharray:5.0,5.0;" x1="51.2" x2="51.2" y1="64.5125" y2="296.2813"/><line style="stroke:#181818;stroke-width:0.4000000000000001;stroke-dasharray:5.0,5.0;" x1="301.6" x2="301.6" y1="64.5125" y2="296.2813"/><line style="stroke:#181818;stroke-width:0.4000000000000001;stroke-dasharray:5.0,5.0;" x1="400.8" x2="400.8" y1="64.5125" y2="296.2813"/><text fill="#000000" font-family="sans-serif" font-size="11.2" lengthAdjust="spacing" textLength="89.6" x="4" y="62.1391">Campus Manager</text><ellipse cx="51.2" cy="10.8" fill="#E2E2F0" rx="6.4" ry="6.4" style="stroke:#181818;stroke-width:0.4000000000000001;"/><path d="M51.2,17.2 L51.2,38.8 M40.8,23.6 L61.6,23.6 M51.2,38.8 L40.8,50.8 M51.2,38.8 L61.6,50.8 " fill="none" style="stroke:#181818;stroke-width:0.4000000000000001;"/><text fill="#000000" font-family="sans-serif" font-size="11.2" lengthAdjust="spacing" textLength="89.6" x="4" y="305.6203">Campus Manager</text><ellipse cx="51.2" cy="314.7938" fill="#E2E2F0" rx="6.4" ry="6.4" style="stroke:#181818;stroke-width:0.4000000000000001;"/><path d="M51.2,321.1938 L51.2,342.7938 M40.8,327.5938 L61.6,327.5938 M51.2,342.7938 L40.8,354.7938 M51.2,342.7938 L61.6,354.7938 " fill="none" style="stroke:#181818;stroke-width:0.4000000000000001;"/><rect fill="#E2E2F0" height="23.7125" rx="2" ry="2" style="stroke:#181818;stroke-width:0.4000000000000001;" width="73.6" x="264.8" y="40"/><text fill="#000000" font-family="sans-serif" font-size="11.2" lengthAdjust="spacing" textLength="62.4" x="270.4" y="55.7391">Visualiza&#231;&#227;o</text><rect fill="#E2E2F0" height="23.7125" rx="2" ry="2" style="stroke:#181818;stroke-width:0.4000000000000001;" width="73.6" x="264.8" y="295.4813"/><text fill="#000000" font-family="sans-serif" font-size="11.2" lengthAdjust="spacing" textLength="62.4" x="270.4" y="311.2203">Visualiza&#231;&#227;o</text><rect fill="#E2E2F0" height="23.7125" rx="2" ry="2" style="stroke:#181818;stroke-width:0.4000000000000001;" width="109.6" x="346.4" y="40"/><text fill="#000000" font-family="sans-serif" font-size="11.2" lengthAdjust="spacing" textLength="98.4" x="352" y="55.7391">MasterDataBuilding</text><rect fill="#E2E2F0" height="23.7125" rx="2" ry="2" style="stroke:#181818;stroke-width:0.4000000000000001;" width="109.6" x="346.4" y="295.4813"/><text fill="#000000" font-family="sans-serif" font-size="11.2" lengthAdjust="spacing" textLength="98.4" x="352" y="311.2203">MasterDataBuilding</text><rect fill="#FFFFFF" height="22.8188" style="stroke:#181818;stroke-width:0.8000000000000002;" width="8" x="297.6" y="88.9313"/><rect fill="#FFFFFF" height="22.8188" style="stroke:#181818;stroke-width:0.8000000000000002;" width="8" x="297.6" y="134.5688"/><rect fill="#FFFFFF" height="101.675" style="stroke:#181818;stroke-width:0.8000000000000002;" width="8" x="297.6" y="180.2063"/><rect fill="#FFFFFF" height="56.0375" style="stroke:#181818;stroke-width:0.8000000000000002;" width="8" x="397.2" y="203.025"/><polygon fill="#181818" points="288,85.7313,296,88.9313,288,92.1313,291.2,88.9313" style="stroke:#181818;stroke-width:0.8000000000000002;"/><line style="stroke:#181818;stroke-width:0.8000000000000002;" x1="51.2" x2="292.8" y1="88.9313" y2="88.9313"/><text fill="#000000" font-family="sans-serif" font-size="10.4" font-weight="bold" lengthAdjust="spacing" textLength="5.6" x="56.8" y="85.1273">1</text><text fill="#000000" font-family="sans-serif" font-size="10.4" lengthAdjust="spacing" textLength="187.2" x="65.6" y="85.1273">Starts the process to edit a building floor</text><polygon fill="#181818" points="60,108.55,52,111.75,60,114.95,56.8,111.75" style="stroke:#181818;stroke-width:0.8000000000000002;"/><line style="stroke:#181818;stroke-width:0.8000000000000002;stroke-dasharray:2.0,2.0;" x1="55.2" x2="300.8" y1="111.75" y2="111.75"/><text fill="#000000" font-family="sans-serif" font-size="10.4" font-weight="bold" lengthAdjust="spacing" textLength="5.6" x="64.8" y="107.9461">2</text><text fill="#000000" font-family="sans-serif" font-size="10.4" lengthAdjust="spacing" textLength="93.6" x="73.6" y="107.9461">Request data to edit</text><polygon fill="#181818" points="288,131.3688,296,134.5688,288,137.7688,291.2,134.5688" style="stroke:#181818;stroke-width:0.8000000000000002;"/><line style="stroke:#181818;stroke-width:0.8000000000000002;" x1="51.2" x2="292.8" y1="134.5688" y2="134.5688"/><text fill="#000000" font-family="sans-serif" font-size="10.4" font-weight="bold" lengthAdjust="spacing" textLength="5.6" x="56.8" y="130.7648">3</text><text fill="#000000" font-family="sans-serif" font-size="10.4" lengthAdjust="spacing" textLength="68.8" x="65.6" y="130.7648">Types the data</text><polygon fill="#181818" points="60,154.1875,52,157.3875,60,160.5875,56.8,157.3875" style="stroke:#181818;stroke-width:0.8000000000000002;"/><line style="stroke:#181818;stroke-width:0.8000000000000002;stroke-dasharray:2.0,2.0;" x1="55.2" x2="300.8" y1="157.3875" y2="157.3875"/><text fill="#000000" font-family="sans-serif" font-size="10.4" font-weight="bold" lengthAdjust="spacing" textLength="5.6" x="64.8" y="153.5836">4</text><text fill="#000000" font-family="sans-serif" font-size="10.4" lengthAdjust="spacing" textLength="218.4" x="73.6" y="153.5836">Shows actual information and request new data</text><polygon fill="#181818" points="288,177.0063,296,180.2063,288,183.4063,291.2,180.2063" style="stroke:#181818;stroke-width:0.8000000000000002;"/><line style="stroke:#181818;stroke-width:0.8000000000000002;" x1="51.2" x2="292.8" y1="180.2063" y2="180.2063"/><text fill="#000000" font-family="sans-serif" font-size="10.4" font-weight="bold" lengthAdjust="spacing" textLength="5.6" x="56.8" y="176.4023">5</text><text fill="#000000" font-family="sans-serif" font-size="10.4" lengthAdjust="spacing" textLength="90.4" x="65.6" y="176.4023">Types the new data</text><polygon fill="#181818" points="387.6,199.825,395.6,203.025,387.6,206.225,390.8,203.025" style="stroke:#181818;stroke-width:0.8000000000000002;"/><line style="stroke:#181818;stroke-width:0.8000000000000002;" x1="305.6" x2="392.4" y1="203.025" y2="203.025"/><text fill="#000000" font-family="sans-serif" font-size="10.4" font-weight="bold" lengthAdjust="spacing" textLength="5.6" x="311.2" y="199.2211">6</text><text fill="#000000" font-family="sans-serif" font-size="10.4" lengthAdjust="spacing" textLength="42.4" x="320" y="199.2211">PUT floor</text><line style="stroke:#181818;stroke-width:0.8000000000000002;" x1="405.2" x2="438.8" y1="225.8438" y2="225.8438"/><line style="stroke:#181818;stroke-width:0.8000000000000002;" x1="438.8" x2="438.8" y1="225.8438" y2="236.2438"/><line style="stroke:#181818;stroke-width:0.8000000000000002;" x1="406" x2="438.8" y1="236.2438" y2="236.2438"/><polygon fill="#181818" points="414,233.0438,406,236.2438,414,239.4438,410.8,236.2438" style="stroke:#181818;stroke-width:0.8000000000000002;"/><text fill="#000000" font-family="sans-serif" font-size="10.4" font-weight="bold" lengthAdjust="spacing" textLength="5.6" x="410.8" y="222.0398">7</text><text fill="#000000" font-family="sans-serif" font-size="10.4" lengthAdjust="spacing" textLength="65.6" x="419.6" y="222.0398">editFloor(floor)</text><polygon fill="#181818" points="314.4,255.8625,306.4,259.0625,314.4,262.2625,311.2,259.0625" style="stroke:#181818;stroke-width:0.8000000000000002;"/><line style="stroke:#181818;stroke-width:0.8000000000000002;stroke-dasharray:2.0,2.0;" x1="309.6" x2="400.4" y1="259.0625" y2="259.0625"/><text fill="#000000" font-family="sans-serif" font-size="10.4" font-weight="bold" lengthAdjust="spacing" textLength="5.6" x="319.2" y="255.2586">8</text><text fill="#000000" font-family="sans-serif" font-size="10.4" lengthAdjust="spacing" textLength="19.2" x="328" y="255.2586">floor</text><polygon fill="#181818" points="60,278.6813,52,281.8813,60,285.0813,56.8,281.8813" style="stroke:#181818;stroke-width:0.8000000000000002;"/><line style="stroke:#181818;stroke-width:0.8000000000000002;stroke-dasharray:2.0,2.0;" x1="55.2" x2="300.8" y1="281.8813" y2="281.8813"/><text fill="#000000" font-family="sans-serif" font-size="10.4" font-weight="bold" lengthAdjust="spacing" textLength="5.6" x="64.8" y="278.0773">9</text><text fill="#000000" font-family="sans-serif" font-size="10.4" lengthAdjust="spacing" textLength="121.6" x="73.6" y="278.0773">Informs operation success</text><!--SRC=[fP5DJiCm44RtESKeArZa0X7gWY2gB28XMjXFusbhAV4OUqm5rs71GNend9yY6WWIOcThPfwVly4WR4Ax8PTWBUmWBR2rmKE51dVaKa0FHPLOTA9hRT48F6eViD6lU7m_ll5PAQtG2xaR5BmEkb7Qx7h2iaoIee9iCHdEOILnt8Fi2QpZcdmyCv3I0WYRaG7RXhatrCyeD3Kulq8Mdocg7ExfAP0NKD7c14qKpL5c1DSlbWQ_ZlDNXzMU3nxYK2o2DbjsBOfc0sWKk57Gq660_qFkap5Bc1ekubPok7jOJzFjbhKiJmrTQhTTmqNVTZdKVd0PA5- -C2xzAik-zPPz4XxOaXloyA7kblzR11y0]--></g></svg>