<?xml version="1.0" encoding="us-ascii" standalone="no"?><svg xmlns="http://www.w3.org/2000/svg" xmlns:xlink="http://www.w3.org/1999/xlink" contentStyleType="text/css" height="873px" preserveAspectRatio="none" style="width:1274px;height:873px;background:#FFFFFF;" version="1.1" viewBox="0 0 1274 873" width="1274.4px" zoomAndPan="magnify"><defs/><g><rect fill="#FFFFFF" height="766.793" style="stroke:#181818;stroke-width:0.9;" width="9" x="81" y="59.5477"/><rect fill="#FFFFFF" height="715.4508" style="stroke:#181818;stroke-width:0.9;" width="9" x="252" y="85.2188"/><rect fill="#FFFFFF" height="574.0664" style="stroke:#181818;stroke-width:0.9;" width="9" x="435.6" y="110.8898"/><rect fill="#FFFFFF" height="236.3555" style="stroke:#181818;stroke-width:0.9;" width="9" x="601.2" y="162.232"/><rect fill="#FFFFFF" height="27" style="stroke:#181818;stroke-width:0.9;" width="9" x="709.2" y="240.5742"/><rect fill="#FFFFFF" height="27" style="stroke:#181818;stroke-width:0.9;" width="9" x="709.2" y="345.9164"/><rect fill="#FFFFFF" height="52.6711" style="stroke:#181818;stroke-width:0.9;" width="9" x="709.2" y="606.6141"/><rect fill="#FFFFFF" height="27" style="stroke:#181818;stroke-width:0.9;" width="9" x="819" y="187.9031"/><rect fill="#FFFFFF" height="27" style="stroke:#181818;stroke-width:0.9;" width="9" x="819" y="293.2453"/><rect fill="#FFFFFF" height="131.0133" style="stroke:#181818;stroke-width:0.9;" width="9" x="1000.35" y="449.9297"/><rect fill="#FFFFFF" height="27" style="stroke:#181818;stroke-width:0.9;" width="9" x="1119.15" y="475.6008"/><rect fill="#FFFFFF" height="27" style="stroke:#181818;stroke-width:0.9;" width="9" x="1119.15" y="528.2719"/><rect fill="#FFFFFF" height="27" style="stroke:#181818;stroke-width:0.9;" width="9" x="1228.5" y="632.2852"/><rect fill="#FFFFFF" height="27" style="stroke:#181818;stroke-width:0.9;" width="9" x="1228.5" y="710.6273"/><line style="stroke:#181818;stroke-width:0.45;stroke-dasharray:5.0,5.0;" x1="85.05" x2="85.05" y1="32.0766" y2="842.5406"/><line style="stroke:#181818;stroke-width:0.45;stroke-dasharray:5.0,5.0;" x1="256.5" x2="256.5" y1="32.0766" y2="842.5406"/><line style="stroke:#181818;stroke-width:0.45;stroke-dasharray:5.0,5.0;" x1="439.65" x2="439.65" y1="32.0766" y2="842.5406"/><line style="stroke:#181818;stroke-width:0.45;stroke-dasharray:5.0,5.0;" x1="535.05" x2="535.05" y1="32.0766" y2="842.5406"/><line style="stroke:#181818;stroke-width:0.45;stroke-dasharray:5.0,5.0;" x1="605.25" x2="605.25" y1="32.0766" y2="842.5406"/><line style="stroke:#181818;stroke-width:0.45;stroke-dasharray:5.0,5.0;" x1="713.25" x2="713.25" y1="32.0766" y2="842.5406"/><line style="stroke:#181818;stroke-width:0.45;stroke-dasharray:5.0,5.0;" x1="823.05" x2="823.05" y1="32.0766" y2="842.5406"/><line style="stroke:#181818;stroke-width:0.45;stroke-dasharray:5.0,5.0;" x1="919.35" x2="919.35" y1="32.0766" y2="842.5406"/><line style="stroke:#181818;stroke-width:0.45;stroke-dasharray:5.0,5.0;" x1="1004.85" x2="1004.85" y1="32.0766" y2="842.5406"/><line style="stroke:#181818;stroke-width:0.45;stroke-dasharray:5.0,5.0;" x1="1123.65" x2="1123.65" y1="32.0766" y2="842.5406"/><line style="stroke:#181818;stroke-width:0.45;stroke-dasharray:5.0,5.0;" x1="1232.55" x2="1232.55" y1="32.0766" y2="842.5406"/><rect fill="#E2E2F0" height="26.6766" rx="2.25" ry="2.25" style="stroke:#181818;stroke-width:0.45;" width="80.1" x="45.45" y="4.5"/><text fill="#000000" font-family="sans-serif" font-size="12.6" lengthAdjust="spacing" textLength="67.5" x="51.75" y="22.2064">:FloorRoute</text><rect fill="#E2E2F0" height="26.6766" rx="2.25" ry="2.25" style="stroke:#181818;stroke-width:0.45;" width="80.1" x="45.45" y="841.6406"/><text fill="#000000" font-family="sans-serif" font-size="12.6" lengthAdjust="spacing" textLength="67.5" x="51.75" y="859.3471">:FloorRoute</text><rect fill="#E2E2F0" height="26.6766" rx="2.25" ry="2.25" style="stroke:#181818;stroke-width:0.45;" width="140.4" x="186.3" y="4.5"/><text fill="#000000" font-family="sans-serif" font-size="12.6" lengthAdjust="spacing" textLength="127.8" x="192.6" y="22.2064">:CreateFloorController</text><rect fill="#E2E2F0" height="26.6766" rx="2.25" ry="2.25" style="stroke:#181818;stroke-width:0.45;" width="140.4" x="186.3" y="841.6406"/><text fill="#000000" font-family="sans-serif" font-size="12.6" lengthAdjust="spacing" textLength="127.8" x="192.6" y="859.3471">:CreateFloorController</text><rect fill="#E2E2F0" height="26.6766" rx="2.25" ry="2.25" style="stroke:#181818;stroke-width:0.45;" width="126.9" x="376.65" y="4.5"/><text fill="#000000" font-family="sans-serif" font-size="12.6" lengthAdjust="spacing" textLength="114.3" x="382.95" y="22.2064">:CreateFloorService</text><rect fill="#E2E2F0" height="26.6766" rx="2.25" ry="2.25" style="stroke:#181818;stroke-width:0.45;" width="126.9" x="376.65" y="841.6406"/><text fill="#000000" font-family="sans-serif" font-size="12.6" lengthAdjust="spacing" textLength="114.3" x="382.95" y="859.3471">:CreateFloorService</text><rect fill="#E2E2F0" height="26.6766" rx="2.25" ry="2.25" style="stroke:#181818;stroke-width:0.45;" width="45.9" x="512.55" y="4.5"/><text fill="#000000" font-family="sans-serif" font-size="12.6" lengthAdjust="spacing" textLength="33.3" x="518.85" y="22.2064">:Floor</text><rect fill="#E2E2F0" height="26.6766" rx="2.25" ry="2.25" style="stroke:#181818;stroke-width:0.45;" width="45.9" x="512.55" y="841.6406"/><text fill="#000000" font-family="sans-serif" font-size="12.6" lengthAdjust="spacing" textLength="33.3" x="518.85" y="859.3471">:Floor</text><rect fill="#E2E2F0" height="26.6766" rx="2.25" ry="2.25" style="stroke:#181818;stroke-width:0.45;" width="76.5" x="567.45" y="4.5"/><text fill="#000000" font-family="sans-serif" font-size="12.6" lengthAdjust="spacing" textLength="63.9" x="573.75" y="22.2064">:FloorRepo</text><rect fill="#E2E2F0" height="26.6766" rx="2.25" ry="2.25" style="stroke:#181818;stroke-width:0.45;" width="76.5" x="567.45" y="841.6406"/><text fill="#000000" font-family="sans-serif" font-size="12.6" lengthAdjust="spacing" textLength="63.9" x="573.75" y="859.3471">:FloorRepo</text><rect fill="#E2E2F0" height="26.6766" rx="2.25" ry="2.25" style="stroke:#181818;stroke-width:0.45;" width="89.1" x="669.15" y="4.5"/><text fill="#000000" font-family="sans-serif" font-size="12.6" lengthAdjust="spacing" textLength="76.5" x="675.45" y="22.2064">:FloorMapper</text><rect fill="#E2E2F0" height="26.6766" rx="2.25" ry="2.25" style="stroke:#181818;stroke-width:0.45;" width="89.1" x="669.15" y="841.6406"/><text fill="#000000" font-family="sans-serif" font-size="12.6" lengthAdjust="spacing" textLength="76.5" x="675.45" y="859.3471">:FloorMapper</text><rect fill="#E2E2F0" height="26.6766" rx="2.25" ry="2.25" style="stroke:#181818;stroke-width:0.45;" width="112.5" x="767.25" y="4.5"/><text fill="#000000" font-family="sans-serif" font-size="12.6" lengthAdjust="spacing" textLength="99.9" x="773.55" y="22.2064">:FloorPersistence</text><rect fill="#E2E2F0" height="26.6766" rx="2.25" ry="2.25" style="stroke:#181818;stroke-width:0.45;" width="112.5" x="767.25" y="841.6406"/><text fill="#000000" font-family="sans-serif" font-size="12.6" lengthAdjust="spacing" textLength="99.9" x="773.55" y="859.3471">:FloorPersistence</text><rect fill="#E2E2F0" height="26.6766" rx="2.25" ry="2.25" style="stroke:#181818;stroke-width:0.45;" width="61.2" x="888.75" y="4.5"/><text fill="#000000" font-family="sans-serif" font-size="12.6" lengthAdjust="spacing" textLength="48.6" x="895.05" y="22.2064">:Building</text><rect fill="#E2E2F0" height="26.6766" rx="2.25" ry="2.25" style="stroke:#181818;stroke-width:0.45;" width="61.2" x="888.75" y="841.6406"/><text fill="#000000" font-family="sans-serif" font-size="12.6" lengthAdjust="spacing" textLength="48.6" x="895.05" y="859.3471">:Building</text><rect fill="#E2E2F0" height="26.6766" rx="2.25" ry="2.25" style="stroke:#181818;stroke-width:0.45;" width="91.8" x="958.95" y="4.5"/><text fill="#000000" font-family="sans-serif" font-size="12.6" lengthAdjust="spacing" textLength="79.2" x="965.25" y="22.2064">:BuildingRepo</text><rect fill="#E2E2F0" height="26.6766" rx="2.25" ry="2.25" style="stroke:#181818;stroke-width:0.45;" width="91.8" x="958.95" y="841.6406"/><text fill="#000000" font-family="sans-serif" font-size="12.6" lengthAdjust="spacing" textLength="79.2" x="965.25" y="859.3471">:BuildingRepo</text><rect fill="#E2E2F0" height="26.6766" rx="2.25" ry="2.25" style="stroke:#181818;stroke-width:0.45;" width="127.8" x="1059.75" y="4.5"/><text fill="#000000" font-family="sans-serif" font-size="12.6" lengthAdjust="spacing" textLength="115.2" x="1066.05" y="22.2064">:BuildingPersistence</text><rect fill="#E2E2F0" height="26.6766" rx="2.25" ry="2.25" style="stroke:#181818;stroke-width:0.45;" width="127.8" x="1059.75" y="841.6406"/><text fill="#000000" font-family="sans-serif" font-size="12.6" lengthAdjust="spacing" textLength="115.2" x="1066.05" y="859.3471">:BuildingPersistence</text><rect fill="#E2E2F0" height="26.6766" rx="2.25" ry="2.25" style="stroke:#181818;stroke-width:0.45;" width="72.9" x="1196.55" y="4.5"/><text fill="#000000" font-family="sans-serif" font-size="12.6" lengthAdjust="spacing" textLength="60.3" x="1202.85" y="22.2064">:FloorDTO</text><rect fill="#E2E2F0" height="26.6766" rx="2.25" ry="2.25" style="stroke:#181818;stroke-width:0.45;" width="72.9" x="1196.55" y="841.6406"/><text fill="#000000" font-family="sans-serif" font-size="12.6" lengthAdjust="spacing" textLength="60.3" x="1202.85" y="859.3471">:FloorDTO</text><rect fill="#FFFFFF" height="766.793" style="stroke:#181818;stroke-width:0.9;" width="9" x="81" y="59.5477"/><rect fill="#FFFFFF" height="715.4508" style="stroke:#181818;stroke-width:0.9;" width="9" x="252" y="85.2188"/><rect fill="#FFFFFF" height="574.0664" style="stroke:#181818;stroke-width:0.9;" width="9" x="435.6" y="110.8898"/><rect fill="#FFFFFF" height="236.3555" style="stroke:#181818;stroke-width:0.9;" width="9" x="601.2" y="162.232"/><rect fill="#FFFFFF" height="27" style="stroke:#181818;stroke-width:0.9;" width="9" x="709.2" y="240.5742"/><rect fill="#FFFFFF" height="27" style="stroke:#181818;stroke-width:0.9;" width="9" x="709.2" y="345.9164"/><rect fill="#FFFFFF" height="52.6711" style="stroke:#181818;stroke-width:0.9;" width="9" x="709.2" y="606.6141"/><rect fill="#FFFFFF" height="27" style="stroke:#181818;stroke-width:0.9;" width="9" x="819" y="187.9031"/><rect fill="#FFFFFF" height="27" style="stroke:#181818;stroke-width:0.9;" width="9" x="819" y="293.2453"/><rect fill="#FFFFFF" height="131.0133" style="stroke:#181818;stroke-width:0.9;" width="9" x="1000.35" y="449.9297"/><rect fill="#FFFFFF" height="27" style="stroke:#181818;stroke-width:0.9;" width="9" x="1119.15" y="475.6008"/><rect fill="#FFFFFF" height="27" style="stroke:#181818;stroke-width:0.9;" width="9" x="1119.15" y="528.2719"/><rect fill="#FFFFFF" height="27" style="stroke:#181818;stroke-width:0.9;" width="9" x="1228.5" y="632.2852"/><rect fill="#FFFFFF" height="27" style="stroke:#181818;stroke-width:0.9;" width="9" x="1228.5" y="710.6273"/><ellipse cx="19.35" cy="58.8727" fill="none" rx="3.6" ry="3.6" style="stroke:#181818;stroke-width:1.35;"/><polygon fill="#181818" points="70.2,55.9477,79.2,59.5477,70.2,63.1477,73.8,59.5477" style="stroke:#181818;stroke-width:0.9;"/><line style="stroke:#181818;stroke-width:0.9;" x1="23.4" x2="75.6" y1="59.5477" y2="59.5477"/><text fill="#000000" font-family="sans-serif" font-size="11.7" font-weight="bold" lengthAdjust="spacing" textLength="6.3" x="26.1" y="55.2683">1</text><text fill="#000000" font-family="sans-serif" font-size="11.7" lengthAdjust="spacing" textLength="31.5" x="36" y="55.2683">POST</text><polygon fill="#181818" points="241.2,81.6188,250.2,85.2188,241.2,88.8188,244.8,85.2188" style="stroke:#181818;stroke-width:0.9;"/><line style="stroke:#181818;stroke-width:0.9;" x1="90" x2="246.6" y1="85.2188" y2="85.2188"/><text fill="#000000" font-family="sans-serif" font-size="11.7" font-weight="bold" lengthAdjust="spacing" textLength="6.3" x="96.3" y="80.9394">2</text><text fill="#000000" font-family="sans-serif" font-size="11.7" lengthAdjust="spacing" textLength="135" x="106.2" y="80.9394">createFloor(req, res, next)</text><polygon fill="#181818" points="424.8,107.2898,433.8,110.8898,424.8,114.4898,428.4,110.8898" style="stroke:#181818;stroke-width:0.9;"/><line style="stroke:#181818;stroke-width:0.9;" x1="261" x2="430.2" y1="110.8898" y2="110.8898"/><text fill="#000000" font-family="sans-serif" font-size="11.7" font-weight="bold" lengthAdjust="spacing" textLength="6.3" x="267.3" y="106.6104">3</text><text fill="#000000" font-family="sans-serif" font-size="11.7" lengthAdjust="spacing" textLength="147.6" x="277.2" y="106.6104">createFloor(createFloorDTO)</text><polygon fill="#181818" points="524.7,132.9609,533.7,136.5609,524.7,140.1609,528.3,136.5609" style="stroke:#181818;stroke-width:0.9;"/><line style="stroke:#181818;stroke-width:0.9;" x1="444.6" x2="530.1" y1="136.5609" y2="136.5609"/><text fill="#000000" font-family="sans-serif" font-size="11.7" font-weight="bold" lengthAdjust="spacing" textLength="6.3" x="450.9" y="132.2815">4</text><text fill="#000000" font-family="sans-serif" font-size="11.7" lengthAdjust="spacing" textLength="32.4" x="460.8" y="132.2815">create</text><polygon fill="#181818" points="590.4,158.632,599.4,162.232,590.4,165.832,594,162.232" style="stroke:#181818;stroke-width:0.9;"/><line style="stroke:#181818;stroke-width:0.9;" x1="444.6" x2="595.8" y1="162.232" y2="162.232"/><text fill="#000000" font-family="sans-serif" font-size="11.7" font-weight="bold" lengthAdjust="spacing" textLength="6.3" x="450.9" y="157.9526">5</text><text fill="#000000" font-family="sans-serif" font-size="11.7" lengthAdjust="spacing" textLength="23.4" x="460.8" y="157.9526">save</text><polygon fill="#181818" points="808.2,184.3031,817.2,187.9031,808.2,191.5031,811.8,187.9031" style="stroke:#181818;stroke-width:0.9;"/><line style="stroke:#181818;stroke-width:0.9;" x1="610.2" x2="813.6" y1="187.9031" y2="187.9031"/><text fill="#000000" font-family="sans-serif" font-size="11.7" font-weight="bold" lengthAdjust="spacing" textLength="6.3" x="616.5" y="183.6237">6</text><text fill="#000000" font-family="sans-serif" font-size="11.7" lengthAdjust="spacing" textLength="39.6" x="626.4" y="183.6237">findOne</text><polygon fill="#181818" points="698.4,236.9742,707.4,240.5742,698.4,244.1742,702,240.5742" style="stroke:#181818;stroke-width:0.9;"/><line style="stroke:#181818;stroke-width:0.9;" x1="610.2" x2="703.8" y1="240.5742" y2="240.5742"/><text fill="#000000" font-family="sans-serif" font-size="11.7" font-weight="bold" lengthAdjust="spacing" textLength="6.3" x="616.5" y="236.2948">7</text><text fill="#000000" font-family="sans-serif" font-size="11.7" lengthAdjust="spacing" textLength="72" x="626.4" y="236.2948">toPersistence</text><polygon fill="#181818" points="808.2,289.6453,817.2,293.2453,808.2,296.8453,811.8,293.2453" style="stroke:#181818;stroke-width:0.9;"/><line style="stroke:#181818;stroke-width:0.9;" x1="610.2" x2="813.6" y1="293.2453" y2="293.2453"/><text fill="#000000" font-family="sans-serif" font-size="11.7" font-weight="bold" lengthAdjust="spacing" textLength="6.3" x="616.5" y="288.9659">8</text><text fill="#000000" font-family="sans-serif" font-size="11.7" lengthAdjust="spacing" textLength="32.4" x="626.4" y="288.9659">create</text><polygon fill="#181818" points="698.4,342.3164,707.4,345.9164,698.4,349.5164,702,345.9164" style="stroke:#181818;stroke-width:0.9;"/><line style="stroke:#181818;stroke-width:0.9;" x1="610.2" x2="703.8" y1="345.9164" y2="345.9164"/><text fill="#000000" font-family="sans-serif" font-size="11.7" font-weight="bold" lengthAdjust="spacing" textLength="6.3" x="616.5" y="341.637">9</text><text fill="#000000" font-family="sans-serif" font-size="11.7" lengthAdjust="spacing" textLength="49.5" x="626.4" y="341.637">toDomain</text><polygon fill="#181818" points="454.5,394.9875,445.5,398.5875,454.5,402.1875,450.9,398.5875" style="stroke:#181818;stroke-width:0.9;"/><line style="stroke:#181818;stroke-width:0.9;stroke-dasharray:2.0,2.0;" x1="449.1" x2="604.8" y1="398.5875" y2="398.5875"/><text fill="#000000" font-family="sans-serif" font-size="11.7" font-weight="bold" lengthAdjust="spacing" textLength="12.6" x="459.9" y="394.3081">10</text><text fill="#000000" font-family="sans-serif" font-size="11.7" lengthAdjust="spacing" textLength="3.6" x="476.1" y="394.3081">&#160;</text><polygon fill="#181818" points="908.55,420.6586,917.55,424.2586,908.55,427.8586,912.15,424.2586" style="stroke:#181818;stroke-width:0.9;"/><line style="stroke:#181818;stroke-width:0.9;" x1="444.6" x2="913.95" y1="424.2586" y2="424.2586"/><text fill="#000000" font-family="sans-serif" font-size="11.7" font-weight="bold" lengthAdjust="spacing" textLength="12.6" x="450.9" y="419.9792">11</text><text fill="#000000" font-family="sans-serif" font-size="11.7" lengthAdjust="spacing" textLength="45" x="467.1" y="419.9792">addFloor</text><polygon fill="#181818" points="989.55,446.3297,998.55,449.9297,989.55,453.5297,993.15,449.9297" style="stroke:#181818;stroke-width:0.9;"/><line style="stroke:#181818;stroke-width:0.9;" x1="444.6" x2="994.95" y1="449.9297" y2="449.9297"/><text fill="#000000" font-family="sans-serif" font-size="11.7" font-weight="bold" lengthAdjust="spacing" textLength="12.6" x="450.9" y="445.6503">12</text><text fill="#000000" font-family="sans-serif" font-size="11.7" lengthAdjust="spacing" textLength="23.4" x="467.1" y="445.6503">save</text><polygon fill="#181818" points="1108.35,472.0008,1117.35,475.6008,1108.35,479.2008,1111.95,475.6008" style="stroke:#181818;stroke-width:0.9;"/><line style="stroke:#181818;stroke-width:0.9;" x1="1009.35" x2="1113.75" y1="475.6008" y2="475.6008"/><text fill="#000000" font-family="sans-serif" font-size="11.7" font-weight="bold" lengthAdjust="spacing" textLength="12.6" x="1015.65" y="471.3214">13</text><text fill="#000000" font-family="sans-serif" font-size="11.7" lengthAdjust="spacing" textLength="39.6" x="1031.85" y="471.3214">findOne</text><polygon fill="#181818" points="1108.35,524.6719,1117.35,528.2719,1108.35,531.8719,1111.95,528.2719" style="stroke:#181818;stroke-width:0.9;"/><line style="stroke:#181818;stroke-width:0.9;" x1="1009.35" x2="1113.75" y1="528.2719" y2="528.2719"/><text fill="#000000" font-family="sans-serif" font-size="11.7" font-weight="bold" lengthAdjust="spacing" textLength="12.6" x="1015.65" y="523.9925">14</text><text fill="#000000" font-family="sans-serif" font-size="11.7" lengthAdjust="spacing" textLength="23.4" x="1031.85" y="523.9925">save</text><polygon fill="#181818" points="454.5,577.343,445.5,580.943,454.5,584.543,450.9,580.943" style="stroke:#181818;stroke-width:0.9;"/><line style="stroke:#181818;stroke-width:0.9;stroke-dasharray:2.0,2.0;" x1="449.1" x2="1003.95" y1="580.943" y2="580.943"/><text fill="#000000" font-family="sans-serif" font-size="11.7" font-weight="bold" lengthAdjust="spacing" textLength="12.6" x="459.9" y="576.6636">15</text><text fill="#000000" font-family="sans-serif" font-size="11.7" lengthAdjust="spacing" textLength="3.6" x="476.1" y="576.6636">&#160;</text><polygon fill="#181818" points="698.4,603.0141,707.4,606.6141,698.4,610.2141,702,606.6141" style="stroke:#181818;stroke-width:0.9;"/><line style="stroke:#181818;stroke-width:0.9;" x1="444.6" x2="703.8" y1="606.6141" y2="606.6141"/><text fill="#000000" font-family="sans-serif" font-size="11.7" font-weight="bold" lengthAdjust="spacing" textLength="12.6" x="450.9" y="602.3347">16</text><text fill="#000000" font-family="sans-serif" font-size="11.7" lengthAdjust="spacing" textLength="33.3" x="467.1" y="602.3347">toDTO</text><polygon fill="#181818" points="1217.7,628.6852,1226.7,632.2852,1217.7,635.8852,1221.3,632.2852" style="stroke:#181818;stroke-width:0.9;"/><line style="stroke:#181818;stroke-width:0.9;" x1="718.2" x2="1223.1" y1="632.2852" y2="632.2852"/><text fill="#000000" font-family="sans-serif" font-size="11.7" font-weight="bold" lengthAdjust="spacing" textLength="12.6" x="724.5" y="628.0058">17</text><text fill="#000000" font-family="sans-serif" font-size="11.7" lengthAdjust="spacing" textLength="32.4" x="740.7" y="628.0058">create</text><polygon fill="#181818" points="270.9,681.3563,261.9,684.9563,270.9,688.5563,267.3,684.9563" style="stroke:#181818;stroke-width:0.9;"/><line style="stroke:#181818;stroke-width:0.9;stroke-dasharray:2.0,2.0;" x1="265.5" x2="439.2" y1="684.9563" y2="684.9563"/><text fill="#000000" font-family="sans-serif" font-size="11.7" font-weight="bold" lengthAdjust="spacing" textLength="12.6" x="276.3" y="680.6769">18</text><text fill="#000000" font-family="sans-serif" font-size="11.7" lengthAdjust="spacing" textLength="3.6" x="292.5" y="680.6769">&#160;</text><polygon fill="#181818" points="1217.7,707.0273,1226.7,710.6273,1217.7,714.2273,1221.3,710.6273" style="stroke:#181818;stroke-width:0.9;"/><line style="stroke:#181818;stroke-width:0.9;" x1="261" x2="1223.1" y1="710.6273" y2="710.6273"/><text fill="#000000" font-family="sans-serif" font-size="11.7" font-weight="bold" lengthAdjust="spacing" textLength="12.6" x="267.3" y="706.3479">19</text><text fill="#000000" font-family="sans-serif" font-size="11.7" lengthAdjust="spacing" textLength="45.9" x="283.5" y="706.3479">getValue</text><line style="stroke:#181818;stroke-width:0.9;" x1="261" x2="298.8" y1="763.2984" y2="763.2984"/><line style="stroke:#181818;stroke-width:0.9;" x1="298.8" x2="298.8" y1="763.2984" y2="774.9984"/><line style="stroke:#181818;stroke-width:0.9;" x1="261.9" x2="298.8" y1="774.9984" y2="774.9984"/><polygon fill="#181818" points="270.9,771.3984,261.9,774.9984,270.9,778.5984,267.3,774.9984" style="stroke:#181818;stroke-width:0.9;"/><text fill="#000000" font-family="sans-serif" font-size="11.7" font-weight="bold" lengthAdjust="spacing" textLength="12.6" x="267.3" y="759.019">20</text><text fill="#000000" font-family="sans-serif" font-size="11.7" lengthAdjust="spacing" textLength="67.5" x="283.5" y="759.019">res(201,json)</text><polygon fill="#181818" points="99.9,797.0695,90.9,800.6695,99.9,804.2695,96.3,800.6695" style="stroke:#181818;stroke-width:0.9;"/><line style="stroke:#181818;stroke-width:0.9;stroke-dasharray:2.0,2.0;" x1="94.5" x2="255.6" y1="800.6695" y2="800.6695"/><text fill="#000000" font-family="sans-serif" font-size="11.7" font-weight="bold" lengthAdjust="spacing" textLength="12.6" x="105.3" y="796.3901">21</text><text fill="#000000" font-family="sans-serif" font-size="11.7" lengthAdjust="spacing" textLength="47.7" x="121.5" y="796.3901">response</text><polygon fill="#181818" points="9.9,822.7406,0.9,826.3406,9.9,829.9406,6.3,826.3406" style="stroke:#181818;stroke-width:0.9;"/><line style="stroke:#181818;stroke-width:0.9;stroke-dasharray:2.0,2.0;" x1="4.5" x2="84.6" y1="826.3406" y2="826.3406"/><text fill="#000000" font-family="sans-serif" font-size="11.7" font-weight="bold" lengthAdjust="spacing" textLength="12.6" x="15.3" y="822.0612">22</text><text fill="#000000" font-family="sans-serif" font-size="11.7" lengthAdjust="spacing" textLength="47.7" x="31.5" y="822.0612">response</text><!--SRC=[hLJVQyCW47xthv0zjT30jaSP7QnbRwDbBNjtoQquKitKbFtvK_Fhp4meOu4adlVT-NdVAQ-jalNv7JGX5TTMvABYqj8RzbmgfLzLRU66SaE3EO9iD70BmRDHqcfLbg03UZ2dGmwWBo9lihVZ58KcNycDIHA4IWM47wG0BxogMb9kc4BiGHjXBCWSxHHDZcAUQb4MGfu2jZCcC3qxF3617TD8pAVORu-x07T_GXvLjWwpZEvtXoFXkHKNL-zMFH9-D5iZVHZD1qaM6hvML8DPKGdVTZaaG8AwPx1yibQyE1CQEseeKoSrQGU1ZfUNDI6HmzUBKSClC2G8DIJ-wn5ZjHZz4BBOIHXj7fUnW6bVdzXr2wDMOLyVvJi99V7c7ADsO_z3QAlENCYhk0pQO4HJFrJahjCOvKNHTah2dT8YwcjiuC1vTL9zZjYctDUjb6RwzsNIrOmgWClMoUNEPIIEUxtRpVzk30z6kKTcaBPV8Jx56DUViFYOXXLFODzuMS-lEGh4buMx6nRtjtUhJwFaCWPshHz0bP8cgXE-G1woR0RPTk0F]--></g></svg>