<?xml version="1.0" encoding="UTF-8" standalone="no"?><svg xmlns="http://www.w3.org/2000/svg" xmlns:xlink="http://www.w3.org/1999/xlink" contentStyleType="text/css" height="815px" preserveAspectRatio="none" style="width:1689px;height:815px;background:#FFFFFF;" version="1.1" viewBox="0 0 1689 815" width="1689px" zoomAndPan="magnify"><defs/><g><rect fill="#FFFFFF" height="599.9766" style="stroke:#181818;stroke-width:1.0;" width="10" x="192" y="114.9609"/><rect fill="#FFFFFF" height="555.625" style="stroke:#181818;stroke-width:1.0;" width="10" x="434" y="145.3125"/><rect fill="#FFFFFF" height="511.2734" style="stroke:#181818;stroke-width:1.0;" width="10" x="662" y="175.6641"/><rect fill="#FFFFFF" height="331.5156" style="stroke:#181818;stroke-width:1.0;" width="10" x="779" y="341.4219"/><rect fill="#FFFFFF" height="375.8672" style="stroke:#181818;stroke-width:1.0;" width="10" x="844.5" y="297.0703"/><rect fill="#FFFFFF" height="361.8672" style="stroke:#181818;stroke-width:1.0;" width="10" x="961.5" y="266.7188"/><rect fill="#FFFFFF" height="240.4609" style="stroke:#181818;stroke-width:1.0;" width="10" x="1054" y="432.4766"/><rect fill="#FFFFFF" height="497.2734" style="stroke:#181818;stroke-width:1.0;" width="10" x="1244" y="175.6641"/><rect fill="#FFFFFF" height="497.2734" style="stroke:#181818;stroke-width:1.0;" width="10" x="1343.5" y="175.6641"/><line style="stroke:#181818;stroke-width:0.5;stroke-dasharray:5.0,5.0;" x1="64" x2="64" y1="82.6094" y2="732.9375"/><line style="stroke:#181818;stroke-width:0.5;stroke-dasharray:5.0,5.0;" x1="197" x2="197" y1="82.6094" y2="732.9375"/><line style="stroke:#181818;stroke-width:0.5;stroke-dasharray:5.0,5.0;" x1="439" x2="439" y1="82.6094" y2="732.9375"/><line style="stroke:#181818;stroke-width:0.5;stroke-dasharray:5.0,5.0;" x1="666.5" x2="666.5" y1="82.6094" y2="732.9375"/><line style="stroke:#181818;stroke-width:0.5;stroke-dasharray:5.0,5.0;" x1="783.5" x2="783.5" y1="82.6094" y2="732.9375"/><line style="stroke:#181818;stroke-width:0.5;stroke-dasharray:5.0,5.0;" x1="849.5" x2="849.5" y1="82.6094" y2="732.9375"/><line style="stroke:#181818;stroke-width:0.5;stroke-dasharray:5.0,5.0;" x1="966" x2="966" y1="82.6094" y2="732.9375"/><line style="stroke:#181818;stroke-width:0.5;stroke-dasharray:5.0,5.0;" x1="1059" x2="1059" y1="82.6094" y2="732.9375"/><line style="stroke:#181818;stroke-width:0.5;stroke-dasharray:5.0,5.0;" x1="1140" x2="1140" y1="82.6094" y2="732.9375"/><line style="stroke:#181818;stroke-width:0.5;stroke-dasharray:5.0,5.0;" x1="1248.5" x2="1248.5" y1="82.6094" y2="732.9375"/><line style="stroke:#181818;stroke-width:0.5;stroke-dasharray:5.0,5.0;" x1="1348.5" x2="1348.5" y1="82.6094" y2="732.9375"/><line style="stroke:#181818;stroke-width:0.5;stroke-dasharray:5.0,5.0;" x1="1525.5" x2="1525.5" y1="82.6094" y2="732.9375"/><line style="stroke:#181818;stroke-width:0.5;stroke-dasharray:5.0,5.0;" x1="1640.5" x2="1640.5" y1="82.6094" y2="732.9375"/><text fill="#000000" font-family="sans-serif" font-size="14" lengthAdjust="spacing" textLength="112" x="5" y="79.5332">Campus Manager</text><ellipse cx="64" cy="13.5" fill="#E2E2F0" rx="8" ry="8" style="stroke:#181818;stroke-width:0.5;"/><path d="M64,21.5 L64,48.5 M51,29.5 L77,29.5 M64,48.5 L51,63.5 M64,48.5 L77,63.5 " fill="none" style="stroke:#181818;stroke-width:0.5;"/><text fill="#000000" font-family="sans-serif" font-size="14" lengthAdjust="spacing" textLength="112" x="5" y="746.4707">Campus Manager</text><ellipse cx="64" cy="758.0469" fill="#E2E2F0" rx="8" ry="8" style="stroke:#181818;stroke-width:0.5;"/><path d="M64,766.0469 L64,793.0469 M51,774.0469 L77,774.0469 M64,793.0469 L51,808.0469 M64,793.0469 L77,808.0469 " fill="none" style="stroke:#181818;stroke-width:0.5;"/><rect fill="#E2E2F0" height="31.6094" rx="2.5" ry="2.5" style="stroke:#181818;stroke-width:0.5;" width="128" x="133" y="50"/><text fill="#000000" font-family="sans-serif" font-size="14" lengthAdjust="spacing" textLength="114" x="140" y="71.5332">CreateFloorRoute</text><rect fill="#E2E2F0" height="31.6094" rx="2.5" ry="2.5" style="stroke:#181818;stroke-width:0.5;" width="128" x="133" y="731.9375"/><text fill="#000000" font-family="sans-serif" font-size="14" lengthAdjust="spacing" textLength="114" x="140" y="753.4707">CreateFloorRoute</text><rect fill="#E2E2F0" height="31.6094" rx="2.5" ry="2.5" style="stroke:#181818;stroke-width:0.5;" width="152" x="363" y="50"/><text fill="#000000" font-family="sans-serif" font-size="14" lengthAdjust="spacing" textLength="138" x="370" y="71.5332">CreateFloorController</text><rect fill="#E2E2F0" height="31.6094" rx="2.5" ry="2.5" style="stroke:#181818;stroke-width:0.5;" width="152" x="363" y="731.9375"/><text fill="#000000" font-family="sans-serif" font-size="14" lengthAdjust="spacing" textLength="138" x="370" y="753.4707">CreateFloorController</text><rect fill="#E2E2F0" height="31.6094" rx="2.5" ry="2.5" style="stroke:#181818;stroke-width:0.5;" width="137" x="598.5" y="50"/><text fill="#000000" font-family="sans-serif" font-size="14" lengthAdjust="spacing" textLength="123" x="605.5" y="71.5332">CreateFloorService</text><rect fill="#E2E2F0" height="31.6094" rx="2.5" ry="2.5" style="stroke:#181818;stroke-width:0.5;" width="137" x="598.5" y="731.9375"/><text fill="#000000" font-family="sans-serif" font-size="14" lengthAdjust="spacing" textLength="123" x="605.5" y="753.4707">CreateFloorService</text><rect fill="#E2E2F0" height="31.6094" rx="2.5" ry="2.5" style="stroke:#181818;stroke-width:0.5;" width="47" x="760.5" y="50"/><text fill="#000000" font-family="sans-serif" font-size="14" lengthAdjust="spacing" textLength="33" x="767.5" y="71.5332">Floor</text><rect fill="#E2E2F0" height="31.6094" rx="2.5" ry="2.5" style="stroke:#181818;stroke-width:0.5;" width="47" x="760.5" y="731.9375"/><text fill="#000000" font-family="sans-serif" font-size="14" lengthAdjust="spacing" textLength="33" x="767.5" y="753.4707">Floor</text><rect fill="#E2E2F0" height="31.6094" rx="2.5" ry="2.5" style="stroke:#181818;stroke-width:0.5;" width="64" x="817.5" y="50"/><text fill="#000000" font-family="sans-serif" font-size="14" lengthAdjust="spacing" textLength="50" x="824.5" y="71.5332">Building</text><rect fill="#E2E2F0" height="31.6094" rx="2.5" ry="2.5" style="stroke:#181818;stroke-width:0.5;" width="64" x="817.5" y="731.9375"/><text fill="#000000" font-family="sans-serif" font-size="14" lengthAdjust="spacing" textLength="50" x="824.5" y="753.4707">Building</text><rect fill="#E2E2F0" height="31.6094" rx="2.5" ry="2.5" style="stroke:#181818;stroke-width:0.5;" width="91" x="921" y="50"/><text fill="#000000" font-family="sans-serif" font-size="14" lengthAdjust="spacing" textLength="77" x="928" y="71.5332">BuildingMap</text><rect fill="#E2E2F0" height="31.6094" rx="2.5" ry="2.5" style="stroke:#181818;stroke-width:0.5;" width="91" x="921" y="731.9375"/><text fill="#000000" font-family="sans-serif" font-size="14" lengthAdjust="spacing" textLength="77" x="928" y="753.4707">BuildingMap</text><rect fill="#E2E2F0" height="31.6094" rx="2.5" ry="2.5" style="stroke:#181818;stroke-width:0.5;" width="74" x="1022" y="50"/><text fill="#000000" font-family="sans-serif" font-size="14" lengthAdjust="spacing" textLength="60" x="1029" y="71.5332">FloorMap</text><rect fill="#E2E2F0" height="31.6094" rx="2.5" ry="2.5" style="stroke:#181818;stroke-width:0.5;" width="74" x="1022" y="731.9375"/><text fill="#000000" font-family="sans-serif" font-size="14" lengthAdjust="spacing" textLength="60" x="1029" y="753.4707">FloorMap</text><rect fill="#E2E2F0" height="31.6094" rx="2.5" ry="2.5" style="stroke:#181818;stroke-width:0.5;" width="69" x="1106" y="50"/><text fill="#000000" font-family="sans-serif" font-size="14" lengthAdjust="spacing" textLength="55" x="1113" y="71.5332">FloorDto</text><rect fill="#E2E2F0" height="31.6094" rx="2.5" ry="2.5" style="stroke:#181818;stroke-width:0.5;" width="69" x="1106" y="731.9375"/><text fill="#000000" font-family="sans-serif" font-size="14" lengthAdjust="spacing" textLength="55" x="1113" y="753.4707">FloorDto</text><rect fill="#E2E2F0" height="31.6094" rx="2.5" ry="2.5" style="stroke:#181818;stroke-width:0.5;" width="81" x="1208.5" y="50"/><text fill="#000000" font-family="sans-serif" font-size="14" lengthAdjust="spacing" textLength="67" x="1215.5" y="71.5332">FloorRepo</text><rect fill="#E2E2F0" height="31.6094" rx="2.5" ry="2.5" style="stroke:#181818;stroke-width:0.5;" width="81" x="1208.5" y="731.9375"/><text fill="#000000" font-family="sans-serif" font-size="14" lengthAdjust="spacing" textLength="67" x="1215.5" y="753.4707">FloorRepo</text><rect fill="#E2E2F0" height="31.6094" rx="2.5" ry="2.5" style="stroke:#181818;stroke-width:0.5;" width="98" x="1299.5" y="50"/><text fill="#000000" font-family="sans-serif" font-size="14" lengthAdjust="spacing" textLength="84" x="1306.5" y="71.5332">BuildingRepo</text><rect fill="#E2E2F0" height="31.6094" rx="2.5" ry="2.5" style="stroke:#181818;stroke-width:0.5;" width="98" x="1299.5" y="731.9375"/><text fill="#000000" font-family="sans-serif" font-size="14" lengthAdjust="spacing" textLength="84" x="1306.5" y="753.4707">BuildingRepo</text><text fill="#000000" font-family="sans-serif" font-size="14" lengthAdjust="spacing" textLength="110" x="1467.5" y="79.5332">buildingDatabase</text><path d="M1507.5,29 C1507.5,19 1525.5,19 1525.5,19 C1525.5,19 1543.5,19 1543.5,29 L1543.5,55 C1543.5,65 1525.5,65 1525.5,65 C1525.5,65 1507.5,65 1507.5,55 L1507.5,29 " fill="#E2E2F0" style="stroke:#181818;stroke-width:1.5;"/><path d="M1507.5,29 C1507.5,39 1525.5,39 1525.5,39 C1525.5,39 1543.5,39 1543.5,29 " fill="none" style="stroke:#181818;stroke-width:1.5;"/><text fill="#000000" font-family="sans-serif" font-size="14" lengthAdjust="spacing" textLength="110" x="1467.5" y="746.4707">buildingDatabase</text><path d="M1507.5,759.5469 C1507.5,749.5469 1525.5,749.5469 1525.5,749.5469 C1525.5,749.5469 1543.5,749.5469 1543.5,759.5469 L1543.5,785.5469 C1543.5,795.5469 1525.5,795.5469 1525.5,795.5469 C1525.5,795.5469 1507.5,795.5469 1507.5,785.5469 L1507.5,759.5469 " fill="#E2E2F0" style="stroke:#181818;stroke-width:1.5;"/><path d="M1507.5,759.5469 C1507.5,769.5469 1525.5,769.5469 1525.5,769.5469 C1525.5,769.5469 1543.5,769.5469 1543.5,759.5469 " fill="none" style="stroke:#181818;stroke-width:1.5;"/><text fill="#000000" font-family="sans-serif" font-size="14" lengthAdjust="spacing" textLength="89" x="1593.5" y="79.5332">floorDatabase</text><path d="M1623,29 C1623,19 1641,19 1641,19 C1641,19 1659,19 1659,29 L1659,55 C1659,65 1641,65 1641,65 C1641,65 1623,65 1623,55 L1623,29 " fill="#E2E2F0" style="stroke:#181818;stroke-width:1.5;"/><path d="M1623,29 C1623,39 1641,39 1641,39 C1641,39 1659,39 1659,29 " fill="none" style="stroke:#181818;stroke-width:1.5;"/><text fill="#000000" font-family="sans-serif" font-size="14" lengthAdjust="spacing" textLength="89" x="1593.5" y="746.4707">floorDatabase</text><path d="M1623,759.5469 C1623,749.5469 1641,749.5469 1641,749.5469 C1641,749.5469 1659,749.5469 1659,759.5469 L1659,785.5469 C1659,795.5469 1641,795.5469 1641,795.5469 C1641,795.5469 1623,795.5469 1623,785.5469 L1623,759.5469 " fill="#E2E2F0" style="stroke:#181818;stroke-width:1.5;"/><path d="M1623,759.5469 C1623,769.5469 1641,769.5469 1641,769.5469 C1641,769.5469 1659,769.5469 1659,759.5469 " fill="none" style="stroke:#181818;stroke-width:1.5;"/><rect fill="#FFFFFF" height="599.9766" style="stroke:#181818;stroke-width:1.0;" width="10" x="192" y="114.9609"/><rect fill="#FFFFFF" height="555.625" style="stroke:#181818;stroke-width:1.0;" width="10" x="434" y="145.3125"/><rect fill="#FFFFFF" height="511.2734" style="stroke:#181818;stroke-width:1.0;" width="10" x="662" y="175.6641"/><rect fill="#FFFFFF" height="331.5156" style="stroke:#181818;stroke-width:1.0;" width="10" x="779" y="341.4219"/><rect fill="#FFFFFF" height="375.8672" style="stroke:#181818;stroke-width:1.0;" width="10" x="844.5" y="297.0703"/><rect fill="#FFFFFF" height="361.8672" style="stroke:#181818;stroke-width:1.0;" width="10" x="961.5" y="266.7188"/><rect fill="#FFFFFF" height="240.4609" style="stroke:#181818;stroke-width:1.0;" width="10" x="1054" y="432.4766"/><rect fill="#FFFFFF" height="497.2734" style="stroke:#181818;stroke-width:1.0;" width="10" x="1244" y="175.6641"/><rect fill="#FFFFFF" height="497.2734" style="stroke:#181818;stroke-width:1.0;" width="10" x="1343.5" y="175.6641"/><polygon fill="#181818" points="180,110.9609,190,114.9609,180,118.9609,184,114.9609" style="stroke:#181818;stroke-width:1.0;"/><line style="stroke:#181818;stroke-width:1.0;" x1="64" x2="186" y1="114.9609" y2="114.9609"/><text fill="#000000" font-family="sans-serif" font-size="13" lengthAdjust="spacing" textLength="63" x="71" y="110.1045">data JSON</text><polygon fill="#181818" points="422,141.3125,432,145.3125,422,149.3125,426,145.3125" style="stroke:#181818;stroke-width:1.0;"/><line style="stroke:#181818;stroke-width:1.0;" x1="202" x2="428" y1="145.3125" y2="145.3125"/><text fill="#000000" font-family="sans-serif" font-size="13" lengthAdjust="spacing" textLength="213" x="209" y="140.4561">createFloor(floorJSON, buildingCode)</text><polygon fill="#181818" points="650,171.6641,660,175.6641,650,179.6641,654,175.6641" style="stroke:#181818;stroke-width:1.0;"/><line style="stroke:#181818;stroke-width:1.0;" x1="444" x2="656" y1="175.6641" y2="175.6641"/><text fill="#000000" font-family="sans-serif" font-size="13" lengthAdjust="spacing" textLength="199" x="451" y="170.8076">createFloor(floorDto, buildingCode)</text><polygon fill="#181818" points="1331.5,202.0156,1341.5,206.0156,1331.5,210.0156,1335.5,206.0156" style="stroke:#181818;stroke-width:1.0;"/><line style="stroke:#181818;stroke-width:1.0;" x1="672" x2="1337.5" y1="206.0156" y2="206.0156"/><text fill="#000000" font-family="sans-serif" font-size="13" lengthAdjust="spacing" textLength="148" x="679" y="201.1592">findByCode(buildingCode)</text><polygon fill="#181818" points="1513.5,232.3672,1523.5,236.3672,1513.5,240.3672,1517.5,236.3672" style="stroke:#181818;stroke-width:1.0;"/><line style="stroke:#181818;stroke-width:1.0;" x1="1353.5" x2="1519.5" y1="236.3672" y2="236.3672"/><text fill="#000000" font-family="sans-serif" font-size="13" lengthAdjust="spacing" textLength="148" x="1360.5" y="231.5107">findByCode(buildingCode)</text><polygon fill="#181818" points="982.5,262.7188,972.5,266.7188,982.5,270.7188,978.5,266.7188" style="stroke:#181818;stroke-width:1.0;"/><line style="stroke:#181818;stroke-width:1.0;" x1="976.5" x2="1342.5" y1="266.7188" y2="266.7188"/><text fill="#000000" font-family="sans-serif" font-size="13" lengthAdjust="spacing" textLength="107" x="988.5" y="261.8623">toDomain(building)</text><polygon fill="#181818" points="865.5,293.0703,855.5,297.0703,865.5,301.0703,861.5,297.0703" style="stroke:#181818;stroke-width:1.0;"/><line style="stroke:#181818;stroke-width:1.0;" x1="859.5" x2="960.5" y1="297.0703" y2="297.0703"/><text fill="#000000" font-family="sans-serif" font-size="13" lengthAdjust="spacing" textLength="88" x="871.5" y="292.2139">create(building)</text><polygon fill="#181818" points="683,307.0703,673,311.0703,683,315.0703,679,311.0703" style="stroke:#181818;stroke-width:1.0;"/><line style="stroke:#181818;stroke-width:1.0;stroke-dasharray:2.0,2.0;" x1="677" x2="1342.5" y1="311.0703" y2="311.0703"/><polygon fill="#181818" points="767,337.4219,777,341.4219,767,345.4219,771,341.4219" style="stroke:#181818;stroke-width:1.0;"/><line style="stroke:#181818;stroke-width:1.0;" x1="672" x2="773" y1="341.4219" y2="341.4219"/><text fill="#000000" font-family="sans-serif" font-size="13" lengthAdjust="spacing" textLength="88" x="679" y="336.5654">create(floorDto)</text><polygon fill="#181818" points="832.5,367.7734,842.5,371.7734,832.5,375.7734,836.5,371.7734" style="stroke:#181818;stroke-width:1.0;"/><line style="stroke:#181818;stroke-width:1.0;" x1="672" x2="838.5" y1="371.7734" y2="371.7734"/><text fill="#000000" font-family="sans-serif" font-size="13" lengthAdjust="spacing" textLength="82" x="679" y="366.917">addFloor(floor)</text><polygon fill="#181818" points="1232,398.125,1242,402.125,1232,406.125,1236,402.125" style="stroke:#181818;stroke-width:1.0;"/><line style="stroke:#181818;stroke-width:1.0;" x1="672" x2="1238" y1="402.125" y2="402.125"/><text fill="#000000" font-family="sans-serif" font-size="13" lengthAdjust="spacing" textLength="58" x="679" y="397.2686">save(floor)</text><polygon fill="#181818" points="1075,428.4766,1065,432.4766,1075,436.4766,1071,432.4766" style="stroke:#181818;stroke-width:1.0;"/><line style="stroke:#181818;stroke-width:1.0;" x1="1069" x2="1243" y1="432.4766" y2="432.4766"/><text fill="#000000" font-family="sans-serif" font-size="13" lengthAdjust="spacing" textLength="112" x="1081" y="427.6201">toPersistence(floor)</text><polygon fill="#181818" points="1629,458.8281,1639,462.8281,1629,466.8281,1633,462.8281" style="stroke:#181818;stroke-width:1.0;"/><line style="stroke:#181818;stroke-width:1.0;" x1="1254" x2="1635" y1="462.8281" y2="462.8281"/><text fill="#000000" font-family="sans-serif" font-size="13" lengthAdjust="spacing" textLength="127" x="1261" y="457.9717">save(floorPersistence)</text><polygon fill="#181818" points="1075,489.1797,1065,493.1797,1075,497.1797,1071,493.1797" style="stroke:#181818;stroke-width:1.0;"/><line style="stroke:#181818;stroke-width:1.0;" x1="1069" x2="1243" y1="493.1797" y2="493.1797"/><text fill="#000000" font-family="sans-serif" font-size="13" lengthAdjust="spacing" textLength="156" x="1081" y="488.3232">toDomain(floorPersistence)</text><polygon fill="#181818" points="683,503.1797,673,507.1797,683,511.1797,679,507.1797" style="stroke:#181818;stroke-width:1.0;"/><line style="stroke:#181818;stroke-width:1.0;stroke-dasharray:2.0,2.0;" x1="677" x2="1243" y1="507.1797" y2="507.1797"/><polygon fill="#181818" points="1331.5,533.5313,1341.5,537.5313,1331.5,541.5313,1335.5,537.5313" style="stroke:#181818;stroke-width:1.0;"/><line style="stroke:#181818;stroke-width:1.0;" x1="672" x2="1337.5" y1="537.5313" y2="537.5313"/><text fill="#000000" font-family="sans-serif" font-size="13" lengthAdjust="spacing" textLength="78" x="679" y="532.6748">save(building)</text><polygon fill="#181818" points="982.5,563.8828,972.5,567.8828,982.5,571.8828,978.5,567.8828" style="stroke:#181818;stroke-width:1.0;"/><line style="stroke:#181818;stroke-width:1.0;" x1="976.5" x2="1342.5" y1="567.8828" y2="567.8828"/><text fill="#000000" font-family="sans-serif" font-size="13" lengthAdjust="spacing" textLength="132" x="988.5" y="563.0264">toPersistence(building)</text><polygon fill="#181818" points="1513.5,594.2344,1523.5,598.2344,1513.5,602.2344,1517.5,598.2344" style="stroke:#181818;stroke-width:1.0;"/><line style="stroke:#181818;stroke-width:1.0;" x1="1353.5" x2="1519.5" y1="598.2344" y2="598.2344"/><text fill="#000000" font-family="sans-serif" font-size="13" lengthAdjust="spacing" textLength="78" x="1360.5" y="593.3779">save(building)</text><polygon fill="#181818" points="977.5,624.5859,967.5,628.5859,977.5,632.5859,973.5,628.5859" style="stroke:#181818;stroke-width:1.0;"/><line style="stroke:#181818;stroke-width:1.0;" x1="971.5" x2="1342.5" y1="628.5859" y2="628.5859"/><text fill="#000000" font-family="sans-serif" font-size="13" lengthAdjust="spacing" textLength="107" x="983.5" y="623.7295">toDomain(building)</text><polygon fill="#181818" points="683,638.5859,673,642.5859,683,646.5859,679,642.5859" style="stroke:#181818;stroke-width:1.0;"/><line style="stroke:#181818;stroke-width:1.0;stroke-dasharray:2.0,2.0;" x1="677" x2="1342.5" y1="642.5859" y2="642.5859"/><polygon fill="#181818" points="1047,668.9375,1057,672.9375,1047,676.9375,1051,672.9375" style="stroke:#181818;stroke-width:1.0;"/><line style="stroke:#181818;stroke-width:1.0;" x1="672" x2="1053" y1="672.9375" y2="672.9375"/><text fill="#000000" font-family="sans-serif" font-size="13" lengthAdjust="spacing" textLength="63" x="679" y="668.0811">toDto(floor)</text><polygon fill="#181818" points="455,682.9375,445,686.9375,455,690.9375,451,686.9375" style="stroke:#181818;stroke-width:1.0;"/><line style="stroke:#181818;stroke-width:1.0;" x1="449" x2="666" y1="686.9375" y2="686.9375"/><polygon fill="#181818" points="213,696.9375,203,700.9375,213,704.9375,209,700.9375" style="stroke:#181818;stroke-width:1.0;"/><line style="stroke:#181818;stroke-width:1.0;" x1="207" x2="438" y1="700.9375" y2="700.9375"/><polygon fill="#181818" points="75,710.9375,65,714.9375,75,718.9375,71,714.9375" style="stroke:#181818;stroke-width:1.0;"/><line style="stroke:#181818;stroke-width:1.0;" x1="69" x2="196" y1="714.9375" y2="714.9375"/><!--MD5=[dd614c8e4694f65abf31306f79491a02]
@startuml SequenceDiagramLevel3
'https://plantuml.com/use-case-diagram


actor "Campus Manager" as CM
participant CreateFloorRoute
participant CreateFloorController
participant CreateFloorService
participant Floor
participant Building
participant BuildingMap
participant FloorMap
participant FloorDto
participant FloorRepo
participant BuildingRepo
database buildingDatabase
database floorDatabase

CM -> CreateFloorRoute : data JSON
activate CreateFloorRoute

CreateFloorRoute -> CreateFloorController : createFloor(floorJSON, buildingCode)
activate CreateFloorController

CreateFloorController -> CreateFloorService : createFloor(floorDto, buildingCode)
activate CreateFloorService
activate BuildingRepo
activate FloorRepo

CreateFloorService -> BuildingRepo : findByCode(buildingCode)

BuildingRepo -> buildingDatabase : findByCode(buildingCode)

BuildingRepo -> BuildingMap : toDomain(building)
activate BuildingMap

BuildingMap -> Building : create(building)
activate Building

BuildingRepo - -> CreateFloorService

CreateFloorService -> Floor : create(floorDto)
activate Floor

CreateFloorService -> Building : addFloor(floor)

CreateFloorService -> FloorRepo : save(floor)

FloorRepo -> FloorMap : toPersistence(floor)
activate FloorMap

FloorRepo -> floorDatabase : save(floorPersistence)

FloorRepo -> FloorMap : toDomain(floorPersistence)

FloorRepo - -> CreateFloorService

CreateFloorService -> BuildingRepo : save(building)

BuildingRepo -> BuildingMap : toPersistence(building)

BuildingRepo -> buildingDatabase : save(building)

BuildingRepo -> BuildingMap : toDomain(building)
deactivate BuildingMap

BuildingRepo - -> CreateFloorService

CreateFloorService -> FloorMap : toDto(floor)
deactivate FloorMap

deactivate Building
deactivate Floor
deactivate BuildingRepo
deactivate FloorRepo

CreateFloorService -> CreateFloorController 
deactivate CreateFloorService

CreateFloorController -> CreateFloorRoute

deactivate CreateFloorController

CreateFloorRoute -> CM

deactivate CreateFloorRoute

@enduml

@startuml SequenceDiagramLevel3


actor "Campus Manager" as CM
participant CreateFloorRoute
participant CreateFloorController
participant CreateFloorService
participant Floor
participant Building
participant BuildingMap
participant FloorMap
participant FloorDto
participant FloorRepo
participant BuildingRepo
database buildingDatabase
database floorDatabase

CM -> CreateFloorRoute : data JSON
activate CreateFloorRoute

CreateFloorRoute -> CreateFloorController : createFloor(floorJSON, buildingCode)
activate CreateFloorController

CreateFloorController -> CreateFloorService : createFloor(floorDto, buildingCode)
activate CreateFloorService
activate BuildingRepo
activate FloorRepo

CreateFloorService -> BuildingRepo : findByCode(buildingCode)

BuildingRepo -> buildingDatabase : findByCode(buildingCode)

BuildingRepo -> BuildingMap : toDomain(building)
activate BuildingMap

BuildingMap -> Building : create(building)
activate Building

BuildingRepo - -> CreateFloorService

CreateFloorService -> Floor : create(floorDto)
activate Floor

CreateFloorService -> Building : addFloor(floor)

CreateFloorService -> FloorRepo : save(floor)

FloorRepo -> FloorMap : toPersistence(floor)
activate FloorMap

FloorRepo -> floorDatabase : save(floorPersistence)

FloorRepo -> FloorMap : toDomain(floorPersistence)

FloorRepo - -> CreateFloorService

CreateFloorService -> BuildingRepo : save(building)

BuildingRepo -> BuildingMap : toPersistence(building)

BuildingRepo -> buildingDatabase : save(building)

BuildingRepo -> BuildingMap : toDomain(building)
deactivate BuildingMap

BuildingRepo - -> CreateFloorService

CreateFloorService -> FloorMap : toDto(floor)
deactivate FloorMap

deactivate Building
deactivate Floor
deactivate BuildingRepo
deactivate FloorRepo

CreateFloorService -> CreateFloorController 
deactivate CreateFloorService

CreateFloorController -> CreateFloorRoute

deactivate CreateFloorController

CreateFloorRoute -> CM

deactivate CreateFloorRoute

@enduml

PlantUML version 1.2022.7(Mon Aug 22 18:01:30 WEST 2022)
(GPL source distribution)
Java Runtime: Java(TM) SE Runtime Environment
JVM: Java HotSpot(TM) 64-Bit Server VM
Default Encoding: UTF-8
Language: en
Country: US
--></g></svg>