<?xml version="1.0" encoding="us-ascii" standalone="no"?><svg xmlns="http://www.w3.org/2000/svg" xmlns:xlink="http://www.w3.org/1999/xlink" contentStyleType="text/css" height="243px" preserveAspectRatio="none" style="width:262px;height:243px;background:#FFFFFF;" version="1.1" viewBox="0 0 262 243" width="262px" zoomAndPan="magnify"><defs/><g><g id="cluster_##2"><rect fill="#464D77" height="230" rx="2.5" ry="2.5" style="stroke:#181818;stroke-width:1.0;" width="249" x="7" y="7"/></g><!--class Robot--><g id="elem_Robot"><rect codeLine="7" fill="#F1F1F1" height="76.543" id="Robot" rx="2.5" ry="2.5" style="stroke:#181818;stroke-width:0.5;" width="72" x="168" y="23"/><ellipse cx="183" cy="53.2715" fill="#ADD1B2" rx="11" ry="11" style="stroke:#181818;stroke-width:1.0;"/><path d="M185.7656,49.1465 Q185.9219,48.9277 186.1094,48.8184 Q186.2969,48.709 186.5156,48.709 Q186.8906,48.709 187.125,48.9746 Q187.3594,49.2246 187.3594,49.834 L187.3594,51.2871 Q187.3594,51.8965 187.125,52.1621 Q186.8906,52.4277 186.5156,52.4277 Q186.1719,52.4277 185.9688,52.2246 Q185.7656,52.0371 185.6563,51.5215 Q185.6094,51.1621 185.4219,50.9746 Q185.0938,50.5996 184.4844,50.3809 Q183.875,50.1621 183.25,50.1621 Q182.4844,50.1621 181.8438,50.4902 Q181.2188,50.8184 180.7188,51.5684 Q180.2344,52.3184 180.2344,53.3496 L180.2344,54.4434 Q180.2344,55.6777 181.125,56.5059 Q182.0156,57.3184 183.6094,57.3184 Q184.5469,57.3184 185.2031,57.0684 Q185.5938,56.9121 186.0156,56.4746 Q186.2813,56.209 186.4219,56.1309 Q186.5781,56.0527 186.7813,56.0527 Q187.1094,56.0527 187.3594,56.3184 Q187.625,56.5684 187.625,56.9121 Q187.625,57.2559 187.2813,57.6621 Q186.7813,58.2402 185.9844,58.5684 Q184.9063,59.0215 183.6094,59.0215 Q182.0938,59.0215 180.8906,58.3965 Q179.9063,57.8965 179.2188,56.834 Q178.5313,55.7559 178.5313,54.4746 L178.5313,53.3184 Q178.5313,51.9902 179.1406,50.8496 Q179.7656,49.6934 180.8594,49.084 Q181.9531,48.459 183.1875,48.459 Q183.9219,48.459 184.5625,48.6309 Q185.2188,48.7871 185.7656,49.1465 Z " fill="#000000"/><text fill="#000000" font-family="sans-serif" font-size="12" font-style="italic" lengthAdjust="spacing" textLength="40" x="197" y="40.9492">&#171;Root&#187;</text><text fill="#000000" font-family="sans-serif" font-size="12" font-style="italic" lengthAdjust="spacing" textLength="44" x="195" y="56.9102">&#171;Entity&#187;</text><text fill="#000000" font-family="sans-serif" font-size="14" lengthAdjust="spacing" textLength="38" x="198" y="75.0293">Robot</text><line style="stroke:#181818;stroke-width:0.5;" x1="169" x2="239" y1="83.543" y2="83.543"/><line style="stroke:#181818;stroke-width:0.5;" x1="169" x2="239" y1="91.543" y2="91.543"/></g><!--class Code--><g id="elem_Code"><rect codeLine="9" fill="#F1F1F1" height="76.543" id="Code" rx="2.5" ry="2.5" style="stroke:#181818;stroke-width:0.5;" width="110" x="23" y="23"/><ellipse cx="38" cy="53.2715" fill="#FFA500" rx="11" ry="11" style="stroke:#181818;stroke-width:1.0;"/><path d="M38.6094,56.209 L40.4531,52.4434 Q39.7656,52.4434 39.5781,52.3184 Q39.1563,52.0684 39.1563,51.584 Q39.1563,51.209 39.4219,50.9746 Q39.6875,50.7402 40.2969,50.7402 L42.625,50.7402 Q43.25,50.7402 43.5,50.9746 Q43.7656,51.209 43.7656,51.584 Q43.7656,51.959 43.5,52.209 Q43.25,52.4434 42.625,52.4434 L42.3438,52.4434 L39.5,58.2715 L37.7188,58.2715 L34.875,52.4434 L34.6406,52.4434 Q34.0156,52.4434 33.75,52.209 Q33.5,51.959 33.5,51.584 Q33.5,51.209 33.75,50.9746 Q34.0156,50.7402 34.6406,50.7402 L36.9219,50.7402 Q37.5313,50.7402 37.7813,50.9746 Q38.0469,51.209 38.0469,51.584 Q38.0469,52.0684 37.6563,52.3184 Q37.4531,52.4434 36.7656,52.4434 L38.6094,56.209 Z " fill="#000000"/><text fill="#000000" font-family="sans-serif" font-size="12" font-style="italic" lengthAdjust="spacing" textLength="82" x="50" y="40.9492">&#171;ValueObject&#187;</text><text fill="#000000" font-family="sans-serif" font-size="12" font-style="italic" lengthAdjust="spacing" textLength="52" x="65" y="56.9102">&#171;unique&#187;</text><text fill="#000000" font-family="sans-serif" font-size="14" lengthAdjust="spacing" textLength="34" x="74" y="75.0293">Code</text><line style="stroke:#181818;stroke-width:0.5;" x1="24" x2="132" y1="83.543" y2="83.543"/><line style="stroke:#181818;stroke-width:0.5;" x1="24" x2="132" y1="91.543" y2="91.543"/></g><!--class OperationStatus--><g id="elem_OperationStatus"><rect codeLine="10" fill="#F1F1F1" height="60.582" id="OperationStatus" rx="2.5" ry="2.5" style="stroke:#181818;stroke-width:0.5;" width="135" x="104.5" y="160"/><ellipse cx="119.5" cy="182.291" fill="#A4C2E5" rx="11" ry="11" style="stroke:#181818;stroke-width:1.0;"/><path d="M120.1094,185.2285 L121.9531,181.4629 Q121.2656,181.4629 121.0781,181.3379 Q120.6563,181.0879 120.6563,180.6035 Q120.6563,180.2285 120.9219,179.9941 Q121.1875,179.7598 121.7969,179.7598 L124.125,179.7598 Q124.75,179.7598 125,179.9941 Q125.2656,180.2285 125.2656,180.6035 Q125.2656,180.9785 125,181.2285 Q124.75,181.4629 124.125,181.4629 L123.8438,181.4629 L121,187.291 L119.2188,187.291 L116.375,181.4629 L116.1406,181.4629 Q115.5156,181.4629 115.25,181.2285 Q115,180.9785 115,180.6035 Q115,180.2285 115.25,179.9941 Q115.5156,179.7598 116.1406,179.7598 L118.4219,179.7598 Q119.0313,179.7598 119.2813,179.9941 Q119.5469,180.2285 119.5469,180.6035 Q119.5469,181.0879 119.1563,181.3379 Q118.9531,181.4629 118.2656,181.4629 L120.1094,185.2285 Z " fill="#000000"/><text fill="#000000" font-family="sans-serif" font-size="12" font-style="italic" lengthAdjust="spacing" textLength="82" x="144" y="177.9492">&#171;ValueObject&#187;</text><text fill="#000000" font-family="sans-serif" font-size="14" lengthAdjust="spacing" textLength="103" x="133.5" y="196.0684">OperationStatus</text><line style="stroke:#181818;stroke-width:0.5;" x1="105.5" x2="238.5" y1="204.582" y2="204.582"/><line style="stroke:#181818;stroke-width:0.5;" x1="105.5" x2="238.5" y1="212.582" y2="212.582"/></g><!--reverse link Code to Robot--><g id="link_Code_Robot"><path codeLine="14" d="M139.27,62 C151.04,62 157.17,62 167.99,62 " fill="none" id="Code-backto-Robot" style="stroke:#181818;stroke-width:1.0;"/><polygon fill="#181818" points="133.27,62,142.27,66,138.27,62,142.27,58,133.27,62" style="stroke:#181818;stroke-width:1.0;"/><text fill="#000000" font-family="sans-serif" font-size="13" lengthAdjust="spacing" textLength="7" x="141.1672" y="58.0036">1</text><text fill="#000000" font-family="sans-serif" font-size="13" lengthAdjust="spacing" textLength="7" x="152.8411" y="57.4555">1</text></g><!--link Robot to OperationStatus--><g id="link_Robot_OperationStatus"><path codeLine="15" d="M203.75,100.2 C203.75,119.2 203.75,135.78 203.75,153.6 " fill="none" id="Robot-to-OperationStatus" style="stroke:#181818;stroke-width:1.0;"/><polygon fill="#181818" points="203.75,159.6,207.75,150.6,203.75,154.6,199.75,150.6,203.75,159.6" style="stroke:#181818;stroke-width:1.0;"/><text fill="#000000" font-family="sans-serif" font-size="13" lengthAdjust="spacing" textLength="5" x="198.3289" y="121.5131">*</text><text fill="#000000" font-family="sans-serif" font-size="13" lengthAdjust="spacing" textLength="7" x="202.5766" y="148.5752">1</text></g><!--SRC=[fKyz3u903DtxAoum-14PD2WBaXXa9j74_O16JyyxF8e9CVvt3u65KRkyzhNlvRMw2LLom-zC2eNKbCYqeOi6WCdsnmA3EN5rbiXSV-FlW-05kUHLnGuwqyJ2q3OMewXj4qM26Zj0VnJh0bcxcJuNsbWVdB4JbpMcsTKQzx9QYKUDhQnJfIKQJaAh8t6ggy70tVdnAbcF7U3zntlGlU4i7KzwaOLlv86TErxHiQD8y040]--></g></svg>