<?xml version="1.0" encoding="us-ascii" standalone="no"?><svg xmlns="http://www.w3.org/2000/svg" xmlns:xlink="http://www.w3.org/1999/xlink" contentStyleType="text/css" height="249px" preserveAspectRatio="none" style="width:260px;height:249px;background:#FFFFFF;" version="1.1" viewBox="0 0 260 249" width="260px" zoomAndPan="magnify"><defs/><g><rect fill="#FFFFFF" height="31.291" style="stroke:#181818;stroke-width:1.0;" width="10" x="200" y="116.9121"/><line style="stroke:#181818;stroke-width:0.5;stroke-dasharray:5.0,5.0;" x1="60" x2="60" y1="83.6211" y2="166.2031"/><line style="stroke:#181818;stroke-width:0.5;stroke-dasharray:5.0,5.0;" x1="205" x2="205" y1="83.6211" y2="166.2031"/><text fill="#000000" font-family="sans-serif" font-size="14" lengthAdjust="spacing" textLength="104" x="5" y="80.1074">Campus Manger</text><ellipse cx="60" cy="13.5" fill="#E2E2F0" rx="8" ry="8" style="stroke:#181818;stroke-width:0.5;"/><path d="M60,21.5 L60,48.5 M47,29.5 L73,29.5 M60,48.5 L47,63.5 M60,48.5 L73,63.5 " fill="none" style="stroke:#181818;stroke-width:0.5;"/><text fill="#000000" font-family="sans-serif" font-size="14" lengthAdjust="spacing" textLength="104" x="5" y="180.3105">Campus Manger</text><ellipse cx="60" cy="192.3242" fill="#E2E2F0" rx="8" ry="8" style="stroke:#181818;stroke-width:0.5;"/><path d="M60,200.3242 L60,227.3242 M47,208.3242 L73,208.3242 M60,227.3242 L47,242.3242 M60,227.3242 L73,242.3242 " fill="none" style="stroke:#181818;stroke-width:0.5;"/><rect fill="#E2E2F0" height="32.6211" rx="2.5" ry="2.5" style="stroke:#181818;stroke-width:0.5;" width="98" x="156" y="50"/><text fill="#000000" font-family="sans-serif" font-size="14" lengthAdjust="spacing" textLength="84" x="163" y="72.1074">RobDroneGo</text><rect fill="#E2E2F0" height="32.6211" rx="2.5" ry="2.5" style="stroke:#181818;stroke-width:0.5;" width="98" x="156" y="165.2031"/><text fill="#000000" font-family="sans-serif" font-size="14" lengthAdjust="spacing" textLength="84" x="163" y="187.3105">RobDroneGo</text><rect fill="#FFFFFF" height="31.291" style="stroke:#181818;stroke-width:1.0;" width="10" x="200" y="116.9121"/><polygon fill="#181818" points="188,112.9121,198,116.9121,188,120.9121,192,116.9121" style="stroke:#181818;stroke-width:1.0;"/><line style="stroke:#181818;stroke-width:1.0;" x1="60" x2="194" y1="116.9121" y2="116.9121"/><text fill="#000000" font-family="sans-serif" font-size="13" font-weight="bold" lengthAdjust="spacing" textLength="7" x="67" y="111.6494">1</text><text fill="#000000" font-family="sans-serif" font-size="13" lengthAdjust="spacing" textLength="110" x="78" y="111.6494">createPassageway</text><polygon fill="#181818" points="71,144.2031,61,148.2031,71,152.2031,67,148.2031" style="stroke:#181818;stroke-width:1.0;"/><line style="stroke:#181818;stroke-width:1.0;stroke-dasharray:2.0,2.0;" x1="65" x2="204" y1="148.2031" y2="148.2031"/><text fill="#000000" font-family="sans-serif" font-size="13" font-weight="bold" lengthAdjust="spacing" textLength="7" x="77" y="142.9404">2</text><text fill="#000000" font-family="sans-serif" font-size="13" lengthAdjust="spacing" textLength="4" x="88" y="142.9404">&#160;</text><!--SRC=[ROqx3i8m40NxFSKg3PL9duB6I5IM43VOEAjWAVwmNeEuFQOB4ktepRp3NRNKQHpBHabRt8u-nx7oet7oR9P0gr04eAOvjJYp07dDWeEbM5f5Hsbb6P0gMWU5H8CFfRVmbkUpvCIN360TcjEEu8HUc9IlL2kj_ABtjnkU7Vs8i7DCJ_IFXVykFm00]--></g></svg>