<?xml version="1.0" encoding="us-ascii" standalone="no"?><svg xmlns="http://www.w3.org/2000/svg" xmlns:xlink="http://www.w3.org/1999/xlink" contentStyleType="text/css" height="105px" preserveAspectRatio="none" style="width:343px;height:105px;background:#FFFFFF;" version="1.1" viewBox="0 0 343 105" width="343px" zoomAndPan="magnify"><defs/><g><!--cluster RobDroneGo--><g id="cluster_RobDroneGo"><path d="M160.5,6.0137 L252.5,6.0137 A3.75,3.75 0 0 1 255,8.5137 L262,30.6348 L333.5,30.6348 A2.5,2.5 0 0 1 336,33.1348 L336,90.5137 A2.5,2.5 0 0 1 333.5,93.0137 L160.5,93.0137 A2.5,2.5 0 0 1 158,90.5137 L158,8.5137 A2.5,2.5 0 0 1 160.5,6.0137 " fill="none" style="stroke:#000000;stroke-width:1.5;"/><line style="stroke:#000000;stroke-width:1.5;" x1="158" x2="262" y1="30.6348" y2="30.6348"/><text fill="#000000" font-family="sans-serif" font-size="14" font-weight="bold" lengthAdjust="spacing" textLength="91" x="162" y="23.1211">RobDroneGo</text></g><g id="elem_UC2"><ellipse cx="247.1246" cy="60.0386" fill="#F1F1F1" rx="73.1246" ry="17.0249" style="stroke:#181818;stroke-width:0.5;"/><text fill="#000000" font-family="sans-serif" font-size="14" lengthAdjust="spacing" textLength="89" x="199.6246" y="64.8423">Disable Robot</text></g><!--entity CM--><g id="elem_CM"><ellipse cx="60" cy="36.5137" fill="#F1F1F1" rx="16" ry="16" style="stroke:#181818;stroke-width:1.5;"/><path d="M60,56.5137 C64,56.5137 67,56.5137 71,52.5137 C79,52.5137 87,60.5137 87,68.5137 L87,72.5137 C87,76.5137 83,80.5137 79,80.5137 L41,80.5137 C37,80.5137 33,76.5137 33,72.5137 L33,68.5137 C33,60.5137 41,52.5137 49,52.5137 C53,56.5137 56,56.5137 60,56.5137 " fill="#F1F1F1" style="stroke:#181818;stroke-width:1.5;"/><text fill="#000000" font-family="sans-serif" font-size="14" lengthAdjust="spacing" textLength="108" x="6" y="97.1211">UI Fleet Manager</text></g><!--link CM to UC2--><g id="link_CM_UC2"><path d="M114.01,60.0137 C132.59,60.0137 147.79,60.0137 167.67,60.0137 " fill="none" id="CM-to-UC2" style="stroke:#181818;stroke-width:1.0;"/><polygon fill="#181818" points="173.67,60.0137,164.67,56.0137,168.67,60.0137,164.67,64.0137,173.67,60.0137" style="stroke:#181818;stroke-width:1.0;"/></g><!--SRC=[7Omn3i8m40JxUyKgVHeUG9C8HE46b0TSp16iEBx8lWWXnDynAMSqkr4U1bFaC3qDzv35Mz14LEQGLiwyWBrfljax2lWbHHSXsXsQuO9J534uJZn9Ri05dIDQsSzL05ST-wn9pWfy2DYAU2w2fW-5ntfP0xLzDtG7-bBdqBR7F_m0]--></g></svg>