<?xml version="1.0" encoding="UTF-8" standalone="no"?><svg xmlns="http://www.w3.org/2000/svg" xmlns:xlink="http://www.w3.org/1999/xlink" contentStyleType="text/css" height="215px" preserveAspectRatio="none" style="width:454px;height:215px;background:#FFFFFF;" version="1.1" viewBox="0 0 454 215" width="454px" zoomAndPan="magnify"><defs/><g><rect fill="#FFFFFF" height="91.0547" style="stroke:#181818;stroke-width:1.0;" width="10" x="177" y="69.9609"/><rect fill="#FFFFFF" height="30.3516" style="stroke:#181818;stroke-width:1.0;" width="10" x="375" y="100.3125"/><line style="stroke:#181818;stroke-width:0.5;stroke-dasharray:5.0,5.0;" x1="182" x2="182" y1="37.6094" y2="179.0156"/><line style="stroke:#181818;stroke-width:0.5;stroke-dasharray:5.0,5.0;" x1="379.5" x2="379.5" y1="37.6094" y2="179.0156"/><rect fill="#E2E2F0" height="31.6094" rx="2.5" ry="2.5" style="stroke:#181818;stroke-width:0.5;" width="92" x="136" y="5"/><text fill="#000000" font-family="sans-serif" font-size="14" lengthAdjust="spacing" textLength="78" x="143" y="26.5332">Visualization</text><rect fill="#E2E2F0" height="31.6094" rx="2.5" ry="2.5" style="stroke:#181818;stroke-width:0.5;" width="92" x="136" y="178.0156"/><text fill="#000000" font-family="sans-serif" font-size="14" lengthAdjust="spacing" textLength="78" x="143" y="199.5488">Visualization</text><rect fill="#E2E2F0" height="31.6094" rx="2.5" ry="2.5" style="stroke:#181818;stroke-width:0.5;" width="137" x="311.5" y="5"/><text fill="#000000" font-family="sans-serif" font-size="14" lengthAdjust="spacing" textLength="123" x="318.5" y="26.5332">MasterDataBuilding</text><rect fill="#E2E2F0" height="31.6094" rx="2.5" ry="2.5" style="stroke:#181818;stroke-width:0.5;" width="137" x="311.5" y="178.0156"/><text fill="#000000" font-family="sans-serif" font-size="14" lengthAdjust="spacing" textLength="123" x="318.5" y="199.5488">MasterDataBuilding</text><rect fill="#FFFFFF" height="91.0547" style="stroke:#181818;stroke-width:1.0;" width="10" x="177" y="69.9609"/><rect fill="#FFFFFF" height="30.3516" style="stroke:#181818;stroke-width:1.0;" width="10" x="375" y="100.3125"/><ellipse cx="4.5" cy="69.2109" fill="none" rx="4" ry="4" style="stroke:#181818;stroke-width:1.5;"/><polygon fill="#181818" points="165,65.9609,175,69.9609,165,73.9609,169,69.9609" style="stroke:#181818;stroke-width:1.0;"/><line style="stroke:#181818;stroke-width:1.0;" x1="9" x2="171" y1="69.9609" y2="69.9609"/><text fill="#000000" font-family="sans-serif" font-size="13" lengthAdjust="spacing" textLength="150" x="12" y="65.1045">sends building information</text><polygon fill="#181818" points="363,96.3125,373,100.3125,363,104.3125,367,100.3125" style="stroke:#181818;stroke-width:1.0;"/><line style="stroke:#181818;stroke-width:1.0;" x1="187" x2="369" y1="100.3125" y2="100.3125"/><text fill="#000000" font-family="sans-serif" font-size="13" lengthAdjust="spacing" textLength="169" x="194" y="95.4561">POST createBuildingRequest</text><polygon fill="#181818" points="198,126.6641,188,130.6641,198,134.6641,194,130.6641" style="stroke:#181818;stroke-width:1.0;"/><line style="stroke:#181818;stroke-width:1.0;" x1="192" x2="379" y1="130.6641" y2="130.6641"/><text fill="#000000" font-family="sans-serif" font-size="13" lengthAdjust="spacing" textLength="78" x="204" y="125.8076">buildingJSON</text><polygon fill="#181818" points="11,157.0156,1,161.0156,11,165.0156,7,161.0156" style="stroke:#181818;stroke-width:1.0;"/><line style="stroke:#181818;stroke-width:1.0;stroke-dasharray:2.0,2.0;" x1="5" x2="181" y1="161.0156" y2="161.0156"/><text fill="#000000" font-family="sans-serif" font-size="13" lengthAdjust="spacing" textLength="88" x="17" y="156.1592">inform success</text><!--MD5=[5160b22e2c86dfb8b56e1eea3ec1e428]
@startuml SequenceDiagramLevel2


participant Visualization
participant MasterDataBuilding

?o-> Visualization : sends building information
activate Visualization

Visualization -> MasterDataBuilding : POST createBuildingRequest
activate MasterDataBuilding

MasterDataBuilding -> Visualization : buildingJSON

deactivate MasterDataBuilding

<- - Visualization: inform success
deactivate Visualization


@enduml

PlantUML version 1.2022.7(Mon Aug 22 18:01:30 WEST 2022)
(GPL source distribution)
Java Runtime: Java(TM) SE Runtime Environment
JVM: Java HotSpot(TM) 64-Bit Server VM
Default Encoding: UTF-8
Language: pt
Country: PT
--></g></svg>