<?xml version="1.0" encoding="us-ascii" standalone="no"?><svg xmlns="http://www.w3.org/2000/svg" xmlns:xlink="http://www.w3.org/1999/xlink" contentStyleType="text/css" height="412.2px" preserveAspectRatio="none" style="width:553px;height:412px;background:#FFFFFF;" version="1.1" viewBox="0 0 553 412" width="553.5px" zoomAndPan="magnify"><defs/><g><g id="cluster_##2"><rect fill="#464D77" height="400.5" rx="2.25" ry="2.25" style="stroke:#181818;stroke-width:0.9;" width="541.8" x="6.3" y="6.3"/></g><!--class Robot--><g id="elem_Robot"><rect codeLine="5" fill="#F1F1F1" height="61.6078" id="Robot" rx="2.25" ry="2.25" style="stroke:#181818;stroke-width:0.45;" width="64.8" x="232.2" y="124.2"/><ellipse cx="245.7" cy="147.8039" fill="#ADD1B2" rx="9.9" ry="9.9" style="stroke:#181818;stroke-width:0.9;"/><path d="M248.1891,144.0914 Q248.3297,143.8945 248.4984,143.7961 Q248.6672,143.6977 248.8641,143.6977 Q249.2016,143.6977 249.4125,143.9367 Q249.6234,144.1617 249.6234,144.7102 L249.6234,146.018 Q249.6234,146.5664 249.4125,146.8055 Q249.2016,147.0445 248.8641,147.0445 Q248.5547,147.0445 248.3719,146.8617 Q248.1891,146.693 248.0906,146.2289 Q248.0484,145.9055 247.8797,145.7367 Q247.5844,145.3992 247.0359,145.2023 Q246.4875,145.0055 245.925,145.0055 Q245.2359,145.0055 244.6594,145.3008 Q244.0969,145.5961 243.6469,146.2711 Q243.2109,146.9461 243.2109,147.8742 L243.2109,148.8586 Q243.2109,149.9695 244.0125,150.7148 Q244.8141,151.4461 246.2484,151.4461 Q247.0922,151.4461 247.6828,151.2211 Q248.0344,151.0805 248.4141,150.6867 Q248.6531,150.4477 248.7797,150.3773 Q248.9203,150.307 249.1031,150.307 Q249.3984,150.307 249.6234,150.5461 Q249.8625,150.7711 249.8625,151.0805 Q249.8625,151.3898 249.5531,151.7555 Q249.1031,152.2758 248.3859,152.5711 Q247.4156,152.9789 246.2484,152.9789 Q244.8844,152.9789 243.8016,152.4164 Q242.9156,151.9664 242.2969,151.0102 Q241.6781,150.0398 241.6781,148.8867 L241.6781,147.8461 Q241.6781,146.6508 242.2266,145.6242 Q242.7891,144.5836 243.7734,144.0352 Q244.7578,143.4727 245.8688,143.4727 Q246.5297,143.4727 247.1063,143.6273 Q247.6969,143.768 248.1891,144.0914 Z " fill="#000000"/><text fill="#000000" font-family="sans-serif" font-size="10.8" font-style="italic" lengthAdjust="spacing" textLength="36" x="258.3" y="138.477">&#171;Root&#187;</text><text fill="#000000" font-family="sans-serif" font-size="10.8" font-style="italic" lengthAdjust="spacing" textLength="39.6" x="256.5" y="150.5426">&#171;Entity&#187;</text><text fill="#000000" font-family="sans-serif" font-size="12.6" lengthAdjust="spacing" textLength="34.2" x="259.2" y="164.2377">Robot</text><line style="stroke:#181818;stroke-width:0.45;" x1="233.1" x2="296.1" y1="171.4078" y2="171.4078"/><line style="stroke:#181818;stroke-width:0.45;" x1="233.1" x2="296.1" y1="178.6078" y2="178.6078"/></g><!--class RobotType--><g id="elem_RobotType"><rect codeLine="6" fill="#F1F1F1" height="49.5422" id="RobotType" rx="2.25" ry="2.25" style="stroke:#181818;stroke-width:0.45;" width="91.8" x="20.7" y="239.4"/><ellipse cx="34.2" cy="256.9711" fill="#ADD1B2" rx="9.9" ry="9.9" style="stroke:#181818;stroke-width:0.9;"/><path d="M36.6891,253.2586 Q36.8297,253.0617 36.9984,252.9633 Q37.1672,252.8648 37.3641,252.8648 Q37.7016,252.8648 37.9125,253.1039 Q38.1234,253.3289 38.1234,253.8773 L38.1234,255.1852 Q38.1234,255.7336 37.9125,255.9727 Q37.7016,256.2117 37.3641,256.2117 Q37.0547,256.2117 36.8719,256.0289 Q36.6891,255.8602 36.5906,255.3961 Q36.5484,255.0727 36.3797,254.9039 Q36.0844,254.5664 35.5359,254.3695 Q34.9875,254.1727 34.425,254.1727 Q33.7359,254.1727 33.1594,254.468 Q32.5969,254.7633 32.1469,255.4383 Q31.7109,256.1133 31.7109,257.0414 L31.7109,258.0258 Q31.7109,259.1367 32.5125,259.882 Q33.3141,260.6133 34.7484,260.6133 Q35.5922,260.6133 36.1828,260.3883 Q36.5344,260.2477 36.9141,259.8539 Q37.1531,259.6148 37.2797,259.5445 Q37.4203,259.4742 37.6031,259.4742 Q37.8984,259.4742 38.1234,259.7133 Q38.3625,259.9383 38.3625,260.2477 Q38.3625,260.557 38.0531,260.9227 Q37.6031,261.443 36.8859,261.7383 Q35.9156,262.1461 34.7484,262.1461 Q33.3844,262.1461 32.3016,261.5836 Q31.4156,261.1336 30.7969,260.1773 Q30.1781,259.207 30.1781,258.0539 L30.1781,257.0133 Q30.1781,255.818 30.7266,254.7914 Q31.2891,253.7508 32.2734,253.2023 Q33.2578,252.6398 34.3688,252.6398 Q35.0297,252.6398 35.6063,252.7945 Q36.1969,252.9352 36.6891,253.2586 Z " fill="#000000"/><text fill="#000000" font-family="sans-serif" font-size="10.8" font-style="italic" lengthAdjust="spacing" textLength="39.6" x="58.5" y="253.677">&#171;Entity&#187;</text><text fill="#000000" font-family="sans-serif" font-size="12.6" lengthAdjust="spacing" textLength="63" x="46.8" y="267.3721">RobotType</text><line style="stroke:#181818;stroke-width:0.45;" x1="21.6" x2="111.6" y1="274.5422" y2="274.5422"/><line style="stroke:#181818;stroke-width:0.45;" x1="21.6" x2="111.6" y1="281.7422" y2="281.7422"/></g><!--class Drone--><g id="elem_Drone"><rect codeLine="7" fill="#F1F1F1" height="49.5422" id="Drone" rx="2.25" ry="2.25" style="stroke:#181818;stroke-width:0.45;" width="64.8" x="288.9" y="20.7"/><ellipse cx="302.4" cy="38.2711" fill="#ADD1B2" rx="9.9" ry="9.9" style="stroke:#181818;stroke-width:0.9;"/><path d="M304.8891,34.5586 Q305.0297,34.3617 305.1984,34.2633 Q305.3672,34.1648 305.5641,34.1648 Q305.9016,34.1648 306.1125,34.4039 Q306.3234,34.6289 306.3234,35.1773 L306.3234,36.4852 Q306.3234,37.0336 306.1125,37.2727 Q305.9016,37.5117 305.5641,37.5117 Q305.2547,37.5117 305.0719,37.3289 Q304.8891,37.1602 304.7906,36.6961 Q304.7484,36.3727 304.5797,36.2039 Q304.2844,35.8664 303.7359,35.6695 Q303.1875,35.4727 302.625,35.4727 Q301.9359,35.4727 301.3594,35.768 Q300.7969,36.0633 300.3469,36.7383 Q299.9109,37.4133 299.9109,38.3414 L299.9109,39.3258 Q299.9109,40.4367 300.7125,41.182 Q301.5141,41.9133 302.9484,41.9133 Q303.7922,41.9133 304.3828,41.6883 Q304.7344,41.5477 305.1141,41.1539 Q305.3531,40.9148 305.4797,40.8445 Q305.6203,40.7742 305.8031,40.7742 Q306.0984,40.7742 306.3234,41.0133 Q306.5625,41.2383 306.5625,41.5477 Q306.5625,41.857 306.2531,42.2227 Q305.8031,42.743 305.0859,43.0383 Q304.1156,43.4461 302.9484,43.4461 Q301.5844,43.4461 300.5016,42.8836 Q299.6156,42.4336 298.9969,41.4773 Q298.3781,40.507 298.3781,39.3539 L298.3781,38.3133 Q298.3781,37.118 298.9266,36.0914 Q299.4891,35.0508 300.4734,34.5023 Q301.4578,33.9398 302.5688,33.9398 Q303.2297,33.9398 303.8063,34.0945 Q304.3969,34.2352 304.8891,34.5586 Z " fill="#000000"/><text fill="#000000" font-family="sans-serif" font-size="10.8" font-style="italic" lengthAdjust="spacing" textLength="39.6" x="313.2" y="34.977">&#171;Entity&#187;</text><text fill="#000000" font-family="sans-serif" font-size="12.6" lengthAdjust="spacing" textLength="35.1" x="315.45" y="48.6721">Drone</text><line style="stroke:#181818;stroke-width:0.45;" x1="289.8" x2="352.8" y1="55.8422" y2="55.8422"/><line style="stroke:#181818;stroke-width:0.45;" x1="289.8" x2="352.8" y1="63.0422" y2="63.0422"/></g><!--class MobileRobot--><g id="elem_MobileRobot"><rect codeLine="8" fill="#F1F1F1" height="49.5422" id="MobileRobot" rx="2.25" ry="2.25" style="stroke:#181818;stroke-width:0.45;" width="99.9" x="157.05" y="20.7"/><ellipse cx="170.55" cy="38.2711" fill="#ADD1B2" rx="9.9" ry="9.9" style="stroke:#181818;stroke-width:0.9;"/><path d="M173.0391,34.5586 Q173.1797,34.3617 173.3484,34.2633 Q173.5172,34.1648 173.7141,34.1648 Q174.0516,34.1648 174.2625,34.4039 Q174.4734,34.6289 174.4734,35.1773 L174.4734,36.4852 Q174.4734,37.0336 174.2625,37.2727 Q174.0516,37.5117 173.7141,37.5117 Q173.4047,37.5117 173.2219,37.3289 Q173.0391,37.1602 172.9406,36.6961 Q172.8984,36.3727 172.7297,36.2039 Q172.4344,35.8664 171.8859,35.6695 Q171.3375,35.4727 170.775,35.4727 Q170.0859,35.4727 169.5094,35.768 Q168.9469,36.0633 168.4969,36.7383 Q168.0609,37.4133 168.0609,38.3414 L168.0609,39.3258 Q168.0609,40.4367 168.8625,41.182 Q169.6641,41.9133 171.0984,41.9133 Q171.9422,41.9133 172.5328,41.6883 Q172.8844,41.5477 173.2641,41.1539 Q173.5031,40.9148 173.6297,40.8445 Q173.7703,40.7742 173.9531,40.7742 Q174.2484,40.7742 174.4734,41.0133 Q174.7125,41.2383 174.7125,41.5477 Q174.7125,41.857 174.4031,42.2227 Q173.9531,42.743 173.2359,43.0383 Q172.2656,43.4461 171.0984,43.4461 Q169.7344,43.4461 168.6516,42.8836 Q167.7656,42.4336 167.1469,41.4773 Q166.5281,40.507 166.5281,39.3539 L166.5281,38.3133 Q166.5281,37.118 167.0766,36.0914 Q167.6391,35.0508 168.6234,34.5023 Q169.6078,33.9398 170.7188,33.9398 Q171.3797,33.9398 171.9563,34.0945 Q172.5469,34.2352 173.0391,34.5586 Z " fill="#000000"/><text fill="#000000" font-family="sans-serif" font-size="10.8" font-style="italic" lengthAdjust="spacing" textLength="39.6" x="198.9" y="34.977">&#171;Entity&#187;</text><text fill="#000000" font-family="sans-serif" font-size="12.6" lengthAdjust="spacing" textLength="71.1" x="183.15" y="48.6721">MobileRobot</text><line style="stroke:#181818;stroke-width:0.45;" x1="157.95" x2="256.05" y1="55.8422" y2="55.8422"/><line style="stroke:#181818;stroke-width:0.45;" x1="157.95" x2="256.05" y1="63.0422" y2="63.0422"/></g><!--class RobotModel--><g id="elem_RobotModel"><rect codeLine="10" fill="#F1F1F1" height="49.5422" id="RobotModel" rx="2.25" ry="2.25" style="stroke:#181818;stroke-width:0.45;" width="99" x="20.7" y="342.9"/><ellipse cx="34.2" cy="360.4711" fill="#A4C2E5" rx="9.9" ry="9.9" style="stroke:#181818;stroke-width:0.9;"/><path d="M34.7484,363.1148 L36.4078,359.7258 Q35.7891,359.7258 35.6203,359.6133 Q35.2406,359.3883 35.2406,358.9523 Q35.2406,358.6148 35.4797,358.4039 Q35.7188,358.193 36.2672,358.193 L38.3625,358.193 Q38.925,358.193 39.15,358.4039 Q39.3891,358.6148 39.3891,358.9523 Q39.3891,359.2898 39.15,359.5148 Q38.925,359.7258 38.3625,359.7258 L38.1094,359.7258 L35.55,364.9711 L33.9469,364.9711 L31.3875,359.7258 L31.1766,359.7258 Q30.6141,359.7258 30.375,359.5148 Q30.15,359.2898 30.15,358.9523 Q30.15,358.6148 30.375,358.4039 Q30.6141,358.193 31.1766,358.193 L33.2297,358.193 Q33.7781,358.193 34.0031,358.4039 Q34.2422,358.6148 34.2422,358.9523 Q34.2422,359.3883 33.8906,359.6133 Q33.7078,359.7258 33.0891,359.7258 L34.7484,363.1148 Z " fill="#000000"/><text fill="#000000" font-family="sans-serif" font-size="10.8" font-style="italic" lengthAdjust="spacing" textLength="73.8" x="45" y="357.177">&#171;ValueObject&#187;</text><text fill="#000000" font-family="sans-serif" font-size="12.6" lengthAdjust="spacing" textLength="68.4" x="47.7" y="370.8721">RobotModel</text><line style="stroke:#181818;stroke-width:0.45;" x1="21.6" x2="118.8" y1="378.0422" y2="378.0422"/><line style="stroke:#181818;stroke-width:0.45;" x1="21.6" x2="118.8" y1="385.2422" y2="385.2422"/></g><!--class RobotBrand--><g id="elem_RobotBrand"><rect codeLine="11" fill="#F1F1F1" height="49.5422" id="RobotBrand" rx="2.25" ry="2.25" style="stroke:#181818;stroke-width:0.45;" width="99" x="151.2" y="342.9"/><ellipse cx="164.7" cy="360.4711" fill="#A4C2E5" rx="9.9" ry="9.9" style="stroke:#181818;stroke-width:0.9;"/><path d="M165.2484,363.1148 L166.9078,359.7258 Q166.2891,359.7258 166.1203,359.6133 Q165.7406,359.3883 165.7406,358.9523 Q165.7406,358.6148 165.9797,358.4039 Q166.2188,358.193 166.7672,358.193 L168.8625,358.193 Q169.425,358.193 169.65,358.4039 Q169.8891,358.6148 169.8891,358.9523 Q169.8891,359.2898 169.65,359.5148 Q169.425,359.7258 168.8625,359.7258 L168.6094,359.7258 L166.05,364.9711 L164.4469,364.9711 L161.8875,359.7258 L161.6766,359.7258 Q161.1141,359.7258 160.875,359.5148 Q160.65,359.2898 160.65,358.9523 Q160.65,358.6148 160.875,358.4039 Q161.1141,358.193 161.6766,358.193 L163.7297,358.193 Q164.2781,358.193 164.5031,358.4039 Q164.7422,358.6148 164.7422,358.9523 Q164.7422,359.3883 164.3906,359.6133 Q164.2078,359.7258 163.5891,359.7258 L165.2484,363.1148 Z " fill="#000000"/><text fill="#000000" font-family="sans-serif" font-size="10.8" font-style="italic" lengthAdjust="spacing" textLength="73.8" x="175.5" y="357.177">&#171;ValueObject&#187;</text><text fill="#000000" font-family="sans-serif" font-size="12.6" lengthAdjust="spacing" textLength="68.4" x="178.2" y="370.8721">RobotBrand</text><line style="stroke:#181818;stroke-width:0.45;" x1="152.1" x2="249.3" y1="378.0422" y2="378.0422"/><line style="stroke:#181818;stroke-width:0.45;" x1="152.1" x2="249.3" y1="385.2422" y2="385.2422"/></g><!--class Code--><g id="elem_Code"><rect codeLine="13" fill="#F1F1F1" height="61.6078" id="Code" rx="2.25" ry="2.25" style="stroke:#181818;stroke-width:0.45;" width="99" x="101.7" y="124.2"/><ellipse cx="115.2" cy="147.8039" fill="#FFA500" rx="9.9" ry="9.9" style="stroke:#181818;stroke-width:0.9;"/><path d="M115.7484,150.4477 L117.4078,147.0586 Q116.7891,147.0586 116.6203,146.9461 Q116.2406,146.7211 116.2406,146.2852 Q116.2406,145.9477 116.4797,145.7367 Q116.7188,145.5258 117.2672,145.5258 L119.3625,145.5258 Q119.925,145.5258 120.15,145.7367 Q120.3891,145.9477 120.3891,146.2852 Q120.3891,146.6227 120.15,146.8477 Q119.925,147.0586 119.3625,147.0586 L119.1094,147.0586 L116.55,152.3039 L114.9469,152.3039 L112.3875,147.0586 L112.1766,147.0586 Q111.6141,147.0586 111.375,146.8477 Q111.15,146.6227 111.15,146.2852 Q111.15,145.9477 111.375,145.7367 Q111.6141,145.5258 112.1766,145.5258 L114.2297,145.5258 Q114.7781,145.5258 115.0031,145.7367 Q115.2422,145.9477 115.2422,146.2852 Q115.2422,146.7211 114.8906,146.9461 Q114.7078,147.0586 114.0891,147.0586 L115.7484,150.4477 Z " fill="#000000"/><text fill="#000000" font-family="sans-serif" font-size="10.8" font-style="italic" lengthAdjust="spacing" textLength="73.8" x="126" y="138.477">&#171;ValueObject&#187;</text><text fill="#000000" font-family="sans-serif" font-size="10.8" font-style="italic" lengthAdjust="spacing" textLength="46.8" x="139.5" y="150.5426">&#171;unique&#187;</text><text fill="#000000" font-family="sans-serif" font-size="12.6" lengthAdjust="spacing" textLength="30.6" x="147.6" y="164.2377">Code</text><line style="stroke:#181818;stroke-width:0.45;" x1="102.6" x2="199.8" y1="171.4078" y2="171.4078"/><line style="stroke:#181818;stroke-width:0.45;" x1="102.6" x2="199.8" y1="178.6078" y2="178.6078"/></g><!--class AvailableTask--><g id="elem_AvailableTask"><rect codeLine="14" fill="#F1F1F1" height="49.5422" id="AvailableTask" rx="2.25" ry="2.25" style="stroke:#181818;stroke-width:0.45;" width="108" x="281.7" y="342.9"/><ellipse cx="295.2" cy="360.4711" fill="#A4C2E5" rx="9.9" ry="9.9" style="stroke:#181818;stroke-width:0.9;"/><path d="M295.7484,363.1148 L297.4078,359.7258 Q296.7891,359.7258 296.6203,359.6133 Q296.2406,359.3883 296.2406,358.9523 Q296.2406,358.6148 296.4797,358.4039 Q296.7188,358.193 297.2672,358.193 L299.3625,358.193 Q299.925,358.193 300.15,358.4039 Q300.3891,358.6148 300.3891,358.9523 Q300.3891,359.2898 300.15,359.5148 Q299.925,359.7258 299.3625,359.7258 L299.1094,359.7258 L296.55,364.9711 L294.9469,364.9711 L292.3875,359.7258 L292.1766,359.7258 Q291.6141,359.7258 291.375,359.5148 Q291.15,359.2898 291.15,358.9523 Q291.15,358.6148 291.375,358.4039 Q291.6141,358.193 292.1766,358.193 L294.2297,358.193 Q294.7781,358.193 295.0031,358.4039 Q295.2422,358.6148 295.2422,358.9523 Q295.2422,359.3883 294.8906,359.6133 Q294.7078,359.7258 294.0891,359.7258 L295.7484,363.1148 Z " fill="#000000"/><text fill="#000000" font-family="sans-serif" font-size="10.8" font-style="italic" lengthAdjust="spacing" textLength="73.8" x="310.5" y="357.177">&#171;ValueObject&#187;</text><text fill="#000000" font-family="sans-serif" font-size="12.6" lengthAdjust="spacing" textLength="79.2" x="307.8" y="370.8721">AvailableTask</text><line style="stroke:#181818;stroke-width:0.45;" x1="282.6" x2="388.8" y1="378.0422" y2="378.0422"/><line style="stroke:#181818;stroke-width:0.45;" x1="282.6" x2="388.8" y1="385.2422" y2="385.2422"/></g><!--class Nickname--><g id="elem_Nickname"><rect codeLine="15" fill="#F1F1F1" height="49.5422" id="Nickname" rx="2.25" ry="2.25" style="stroke:#181818;stroke-width:0.45;" width="99" x="144" y="239.4"/><ellipse cx="157.5" cy="256.9711" fill="#A4C2E5" rx="9.9" ry="9.9" style="stroke:#181818;stroke-width:0.9;"/><path d="M158.0484,259.6148 L159.7078,256.2258 Q159.0891,256.2258 158.9203,256.1133 Q158.5406,255.8883 158.5406,255.4523 Q158.5406,255.1148 158.7797,254.9039 Q159.0188,254.693 159.5672,254.693 L161.6625,254.693 Q162.225,254.693 162.45,254.9039 Q162.6891,255.1148 162.6891,255.4523 Q162.6891,255.7898 162.45,256.0148 Q162.225,256.2258 161.6625,256.2258 L161.4094,256.2258 L158.85,261.4711 L157.2469,261.4711 L154.6875,256.2258 L154.4766,256.2258 Q153.9141,256.2258 153.675,256.0148 Q153.45,255.7898 153.45,255.4523 Q153.45,255.1148 153.675,254.9039 Q153.9141,254.693 154.4766,254.693 L156.5297,254.693 Q157.0781,254.693 157.3031,254.9039 Q157.5422,255.1148 157.5422,255.4523 Q157.5422,255.8883 157.1906,256.1133 Q157.0078,256.2258 156.3891,256.2258 L158.0484,259.6148 Z " fill="#000000"/><text fill="#000000" font-family="sans-serif" font-size="10.8" font-style="italic" lengthAdjust="spacing" textLength="73.8" x="168.3" y="253.677">&#171;ValueObject&#187;</text><text fill="#000000" font-family="sans-serif" font-size="12.6" lengthAdjust="spacing" textLength="54.9" x="177.75" y="267.3721">Nickname</text><line style="stroke:#181818;stroke-width:0.45;" x1="144.9" x2="242.1" y1="274.5422" y2="274.5422"/><line style="stroke:#181818;stroke-width:0.45;" x1="144.9" x2="242.1" y1="281.7422" y2="281.7422"/></g><!--class OperationStatus--><g id="elem_OperationStatus"><rect codeLine="16" fill="#F1F1F1" height="49.5422" id="OperationStatus" rx="2.25" ry="2.25" style="stroke:#181818;stroke-width:0.45;" width="121.5" x="274.95" y="239.4"/><ellipse cx="288.45" cy="256.9711" fill="#A4C2E5" rx="9.9" ry="9.9" style="stroke:#181818;stroke-width:0.9;"/><path d="M288.9984,259.6148 L290.6578,256.2258 Q290.0391,256.2258 289.8703,256.1133 Q289.4906,255.8883 289.4906,255.4523 Q289.4906,255.1148 289.7297,254.9039 Q289.9688,254.693 290.5172,254.693 L292.6125,254.693 Q293.175,254.693 293.4,254.9039 Q293.6391,255.1148 293.6391,255.4523 Q293.6391,255.7898 293.4,256.0148 Q293.175,256.2258 292.6125,256.2258 L292.3594,256.2258 L289.8,261.4711 L288.1969,261.4711 L285.6375,256.2258 L285.4266,256.2258 Q284.8641,256.2258 284.625,256.0148 Q284.4,255.7898 284.4,255.4523 Q284.4,255.1148 284.625,254.9039 Q284.8641,254.693 285.4266,254.693 L287.4797,254.693 Q288.0281,254.693 288.2531,254.9039 Q288.4922,255.1148 288.4922,255.4523 Q288.4922,255.8883 288.1406,256.1133 Q287.9578,256.2258 287.3391,256.2258 L288.9984,259.6148 Z " fill="#000000"/><text fill="#000000" font-family="sans-serif" font-size="10.8" font-style="italic" lengthAdjust="spacing" textLength="73.8" x="310.5" y="253.677">&#171;ValueObject&#187;</text><text fill="#000000" font-family="sans-serif" font-size="12.6" lengthAdjust="spacing" textLength="92.7" x="301.05" y="267.3721">OperationStatus</text><line style="stroke:#181818;stroke-width:0.45;" x1="275.85" x2="395.55" y1="274.5422" y2="274.5422"/><line style="stroke:#181818;stroke-width:0.45;" x1="275.85" x2="395.55" y1="281.7422" y2="281.7422"/></g><!--class SerialNumber--><g id="elem_SerialNumber"><rect codeLine="17" fill="#F1F1F1" height="49.5422" id="SerialNumber" rx="2.25" ry="2.25" style="stroke:#181818;stroke-width:0.45;" width="105.3" x="427.95" y="239.4"/><ellipse cx="441.45" cy="256.9711" fill="#A4C2E5" rx="9.9" ry="9.9" style="stroke:#181818;stroke-width:0.9;"/><path d="M441.9984,259.6148 L443.6578,256.2258 Q443.0391,256.2258 442.8703,256.1133 Q442.4906,255.8883 442.4906,255.4523 Q442.4906,255.1148 442.7297,254.9039 Q442.9688,254.693 443.5172,254.693 L445.6125,254.693 Q446.175,254.693 446.4,254.9039 Q446.6391,255.1148 446.6391,255.4523 Q446.6391,255.7898 446.4,256.0148 Q446.175,256.2258 445.6125,256.2258 L445.3594,256.2258 L442.8,261.4711 L441.1969,261.4711 L438.6375,256.2258 L438.4266,256.2258 Q437.8641,256.2258 437.625,256.0148 Q437.4,255.7898 437.4,255.4523 Q437.4,255.1148 437.625,254.9039 Q437.8641,254.693 438.4266,254.693 L440.4797,254.693 Q441.0281,254.693 441.2531,254.9039 Q441.4922,255.1148 441.4922,255.4523 Q441.4922,255.8883 441.1406,256.1133 Q440.9578,256.2258 440.3391,256.2258 L441.9984,259.6148 Z " fill="#000000"/><text fill="#000000" font-family="sans-serif" font-size="10.8" font-style="italic" lengthAdjust="spacing" textLength="73.8" x="455.4" y="253.677">&#171;ValueObject&#187;</text><text fill="#000000" font-family="sans-serif" font-size="12.6" lengthAdjust="spacing" textLength="76.5" x="454.05" y="267.3721">SerialNumber</text><line style="stroke:#181818;stroke-width:0.45;" x1="428.85" x2="532.35" y1="274.5422" y2="274.5422"/><line style="stroke:#181818;stroke-width:0.45;" x1="428.85" x2="532.35" y1="281.7422" y2="281.7422"/></g><!--link MobileRobot to Robot--><g id="link_MobileRobot_Robot"><path codeLine="21" d="M244.575,70.263 C244.575,70.263 244.575,105.822 244.575,105.822 " fill="none" id="MobileRobot-to-Robot" style="stroke:#181818;stroke-width:0.9;"/><polygon fill="none" points="250.875,105.822,244.575,123.822,238.275,105.822,250.875,105.822" style="stroke:#181818;stroke-width:0.9;"/></g><!--link Drone to Robot--><g id="link_Drone_Robot"><path codeLine="22" d="M292.95,70.263 C292.95,70.263 292.95,105.822 292.95,105.822 " fill="none" id="Drone-to-Robot" style="stroke:#181818;stroke-width:0.9;"/><polygon fill="none" points="299.25,105.822,292.95,123.822,286.65,105.822,299.25,105.822" style="stroke:#181818;stroke-width:0.9;"/></g><!--reverse link Code to Robot--><g id="link_Code_Robot"><path codeLine="23" d="M205.443,154.8 C205.443,154.8 232.191,154.8 232.191,154.8 " fill="none" id="Code-backto-Robot" style="stroke:#181818;stroke-width:0.9;"/><polygon fill="#181818" points="200.943,154.8,209.043,158.4,205.443,154.8,209.043,151.2,200.943,154.8" style="stroke:#181818;stroke-width:0.9;"/><text fill="#000000" font-family="sans-serif" font-size="11.7" lengthAdjust="spacing" textLength="6.3" x="208.0505" y="151.9494">1</text><text fill="#000000" font-family="sans-serif" font-size="11.7" lengthAdjust="spacing" textLength="6.3" x="218.557" y="151.4989">1</text></g><!--link Robot to RobotType--><g id="link_Robot_RobotType"><path codeLine="24" d="M235.8,185.625 C235.8,199.314 235.8,212.4 235.8,212.4 C235.8,212.4 107.1,212.4 107.1,212.4 C107.1,212.4 107.1,234.684 107.1,234.684 " fill="none" id="Robot-to-RobotType" style="stroke:#181818;stroke-width:0.9;"/><polygon fill="#181818" points="107.1,239.184,110.7,231.084,107.1,234.684,103.5,231.084,107.1,239.184" style="stroke:#181818;stroke-width:0.9;"/><text fill="#000000" font-family="sans-serif" font-size="11.7" lengthAdjust="spacing" textLength="4.5" x="225.187" y="203.5319">*</text><text fill="#000000" font-family="sans-serif" font-size="11.7" lengthAdjust="spacing" textLength="6.3" x="109.9041" y="229.6069">1</text></g><!--link Robot to OperationStatus--><g id="link_Robot_OperationStatus"><path codeLine="25" d="M285.975,185.553 C285.975,185.553 285.975,234.648 285.975,234.648 " fill="none" id="Robot-to-OperationStatus" style="stroke:#181818;stroke-width:0.9;"/><polygon fill="#181818" points="285.975,239.148,289.575,231.048,285.975,234.648,282.375,231.048,285.975,239.148" style="stroke:#181818;stroke-width:0.9;"/><text fill="#000000" font-family="sans-serif" font-size="11.7" lengthAdjust="spacing" textLength="4.5" x="285.4195" y="203.7934">*</text><text fill="#000000" font-family="sans-serif" font-size="11.7" lengthAdjust="spacing" textLength="6.3" x="266.7867" y="229.5621">1</text></g><!--link Robot to Nickname--><g id="link_Robot_Nickname"><path codeLine="26" d="M239.4,185.553 C239.4,185.553 239.4,234.648 239.4,234.648 " fill="none" id="Robot-to-Nickname" style="stroke:#181818;stroke-width:0.9;"/><polygon fill="#181818" points="239.4,239.148,243,231.048,239.4,234.648,235.8,231.048,239.4,239.148" style="stroke:#181818;stroke-width:0.9;"/><text fill="#000000" font-family="sans-serif" font-size="11.7" lengthAdjust="spacing" textLength="6.3" x="234.8522" y="203.7934">1</text><text fill="#000000" font-family="sans-serif" font-size="11.7" lengthAdjust="spacing" textLength="6.3" x="243.5203" y="229.5621">1</text></g><!--link Robot to SerialNumber--><g id="link_Robot_SerialNumber"><path codeLine="27" d="M297.171,154.8 C357.516,154.8 480.6,154.8 480.6,154.8 C480.6,154.8 480.6,234.837 480.6,234.837 " fill="none" id="Robot-to-SerialNumber" style="stroke:#181818;stroke-width:0.9;"/><polygon fill="#181818" points="480.6,239.337,484.2,231.237,480.6,234.837,477,231.237,480.6,239.337" style="stroke:#181818;stroke-width:0.9;"/><text fill="#000000" font-family="sans-serif" font-size="11.7" lengthAdjust="spacing" textLength="6.3" x="304.2036" y="151.5576">1</text><text fill="#000000" font-family="sans-serif" font-size="11.7" lengthAdjust="spacing" textLength="6.3" x="473.5322" y="229.7972">1</text></g><!--link RobotType to RobotModel--><g id="link_RobotType_RobotModel"><path codeLine="29" d="M51.3,288.945 C51.3,288.945 51.3,338.202 51.3,338.202 " fill="none" id="RobotType-to-RobotModel" style="stroke:#181818;stroke-width:0.9;"/><polygon fill="#181818" points="51.3,342.702,54.9,334.602,51.3,338.202,47.7,334.602,51.3,342.702" style="stroke:#181818;stroke-width:0.9;"/><text fill="#000000" font-family="sans-serif" font-size="11.7" lengthAdjust="spacing" textLength="4.5" x="42.7416" y="306.777">*</text><text fill="#000000" font-family="sans-serif" font-size="11.7" lengthAdjust="spacing" textLength="6.3" x="39.6253" y="333.1293">1</text></g><!--link RobotType to RobotBrand--><g id="link_RobotType_RobotBrand"><path codeLine="30" d="M112.626,264.6 C123.426,264.6 131.85,264.6 131.85,264.6 C131.85,264.6 131.85,368.1 131.85,368.1 C131.85,368.1 146.529,368.1 146.529,368.1 " fill="none" id="RobotType-to-RobotBrand" style="stroke:#181818;stroke-width:0.9;"/><polygon fill="#181818" points="151.029,368.1,142.929,364.5,146.529,368.1,142.929,371.7,151.029,368.1" style="stroke:#181818;stroke-width:0.9;"/><text fill="#000000" font-family="sans-serif" font-size="11.7" lengthAdjust="spacing" textLength="4.5" x="119.7165" y="261.764">*</text><text fill="#000000" font-family="sans-serif" font-size="11.7" lengthAdjust="spacing" textLength="6.3" x="137.6312" y="365.3344">1</text></g><!--link RobotType to AvailableTask--><g id="link_RobotType_AvailableTask"><path codeLine="31" d="M81.9,289.116 C81.9,302.346 81.9,315.9 81.9,315.9 C81.9,315.9 335.7,315.9 335.7,315.9 C335.7,315.9 335.7,338.184 335.7,338.184 " fill="none" id="RobotType-to-AvailableTask" style="stroke:#181818;stroke-width:0.9;"/><polygon fill="#181818" points="335.7,342.684,339.3,334.584,335.7,338.184,332.1,334.584,335.7,342.684" style="stroke:#181818;stroke-width:0.9;"/><text fill="#000000" font-family="sans-serif" font-size="11.7" lengthAdjust="spacing" textLength="4.5" x="80.2547" y="306.594">*</text><text fill="#000000" font-family="sans-serif" font-size="11.7" lengthAdjust="spacing" textLength="4.5" x="330.6516" y="333.1069">*</text></g><!--SRC=[ZPBFJy8m5CVl_IkQSL7Y3fef5x84WIEG2F7-jhrWNTVEhYKXwlzkrmtj1eQTshxFz_tgUrNEH0aA2igPG7qiaKgbtoGX2bCDOi-HZgAdQ36PV9AKGrNH5vb8JQTJUx5d7DVNfT1C7-t3r-pgQ1VWGac1z19PoOHnR19qkHzt9JFaZjySxaQpQFwmVBobhy0DRf9tMtQlZcS58hkcRntcDlP9AgtV7llA6Xh1FWp-fPaTW758EEwWoeTLjcPfBg30OUfDYGeqasAhGPjgcDCM5GE-DaM2wchxtuIqW_qAJUXFecDtisijmNqGyZ2sX_ksatKSX8tnTmayaZMeruyNiE6dtpa3VazjnMxDUbdTYloFtKQSut7GdIJv0G00]--></g></svg>