<?xml version="1.0" encoding="us-ascii" standalone="no"?><svg xmlns="http://www.w3.org/2000/svg" xmlns:xlink="http://www.w3.org/1999/xlink" contentStyleType="text/css" height="387.2px" preserveAspectRatio="none" style="width:874px;height:387px;background:#FFFFFF;" version="1.1" viewBox="0 0 874 387" width="874.4px" zoomAndPan="magnify"><defs/><g><g id="cluster_##2"><rect fill="#464D77" height="269.2" rx="2" ry="2" style="stroke:#181818;stroke-width:0.8000000000000002;" width="372" x="5.6" y="5.6"/></g><g id="cluster_##11"><rect fill="#96A377" height="182.4" rx="2" ry="2" style="stroke:#181818;stroke-width:0.8000000000000002;" width="472.8" x="396.8" y="200"/></g><!--class Robot--><g id="elem_Robot"><rect codeLine="6" fill="#F1F1F1" height="54.7625" id="Robot" rx="2" ry="2" style="stroke:#181818;stroke-width:0.4000000000000001;" width="57.6" x="208" y="110.4"/><ellipse cx="220" cy="131.3813" fill="#ADD1B2" rx="8.8" ry="8.8" style="stroke:#181818;stroke-width:0.8000000000000002;"/><path d="M222.2125,128.0813 Q222.3375,127.9063 222.4875,127.8188 Q222.6375,127.7313 222.8125,127.7313 Q223.1125,127.7313 223.3,127.9438 Q223.4875,128.1438 223.4875,128.6313 L223.4875,129.7938 Q223.4875,130.2813 223.3,130.4938 Q223.1125,130.7063 222.8125,130.7063 Q222.5375,130.7063 222.375,130.5438 Q222.2125,130.3938 222.125,129.9813 Q222.0875,129.6938 221.9375,129.5438 Q221.675,129.2438 221.1875,129.0688 Q220.7,128.8938 220.2,128.8938 Q219.5875,128.8938 219.075,129.1563 Q218.575,129.4188 218.175,130.0188 Q217.7875,130.6188 217.7875,131.4438 L217.7875,132.3188 Q217.7875,133.3063 218.5,133.9688 Q219.2125,134.6188 220.4875,134.6188 Q221.2375,134.6188 221.7625,134.4188 Q222.075,134.2938 222.4125,133.9438 Q222.625,133.7313 222.7375,133.6688 Q222.8625,133.6063 223.025,133.6063 Q223.2875,133.6063 223.4875,133.8188 Q223.7,134.0188 223.7,134.2938 Q223.7,134.5688 223.425,134.8938 Q223.025,135.3563 222.3875,135.6188 Q221.525,135.9813 220.4875,135.9813 Q219.275,135.9813 218.3125,135.4813 Q217.525,135.0813 216.975,134.2313 Q216.425,133.3688 216.425,132.3438 L216.425,131.4188 Q216.425,130.3563 216.9125,129.4438 Q217.4125,128.5188 218.2875,128.0313 Q219.1625,127.5313 220.15,127.5313 Q220.7375,127.5313 221.25,127.6688 Q221.775,127.7938 222.2125,128.0813 Z " fill="#000000"/><text fill="#000000" font-family="sans-serif" font-size="9.6" font-style="italic" lengthAdjust="spacing" textLength="32" x="231.2" y="123.0906">&#171;Root&#187;</text><text fill="#000000" font-family="sans-serif" font-size="9.6" font-style="italic" lengthAdjust="spacing" textLength="35.2" x="229.6" y="133.8156">&#171;Entity&#187;</text><text fill="#000000" font-family="sans-serif" font-size="11.2" lengthAdjust="spacing" textLength="30.4" x="232" y="145.9891">Robot</text><line style="stroke:#181818;stroke-width:0.4000000000000001;" x1="208.8" x2="264.8" y1="152.3625" y2="152.3625"/><line style="stroke:#181818;stroke-width:0.4000000000000001;" x1="208.8" x2="264.8" y1="158.7625" y2="158.7625"/></g><!--class Drone--><g id="elem_Drone"><rect codeLine="7" fill="#F1F1F1" height="44.0375" id="Drone" rx="2" ry="2" style="stroke:#181818;stroke-width:0.4000000000000001;" width="57.6" x="258.4" y="18.4"/><ellipse cx="270.4" cy="34.0188" fill="#ADD1B2" rx="8.8" ry="8.8" style="stroke:#181818;stroke-width:0.8000000000000002;"/><path d="M272.6125,30.7188 Q272.7375,30.5438 272.8875,30.4563 Q273.0375,30.3688 273.2125,30.3688 Q273.5125,30.3688 273.7,30.5813 Q273.8875,30.7813 273.8875,31.2688 L273.8875,32.4313 Q273.8875,32.9188 273.7,33.1313 Q273.5125,33.3438 273.2125,33.3438 Q272.9375,33.3438 272.775,33.1813 Q272.6125,33.0313 272.525,32.6188 Q272.4875,32.3313 272.3375,32.1813 Q272.075,31.8813 271.5875,31.7063 Q271.1,31.5313 270.6,31.5313 Q269.9875,31.5313 269.475,31.7938 Q268.975,32.0563 268.575,32.6563 Q268.1875,33.2563 268.1875,34.0813 L268.1875,34.9563 Q268.1875,35.9438 268.9,36.6063 Q269.6125,37.2563 270.8875,37.2563 Q271.6375,37.2563 272.1625,37.0563 Q272.475,36.9313 272.8125,36.5813 Q273.025,36.3688 273.1375,36.3063 Q273.2625,36.2438 273.425,36.2438 Q273.6875,36.2438 273.8875,36.4563 Q274.1,36.6563 274.1,36.9313 Q274.1,37.2063 273.825,37.5313 Q273.425,37.9938 272.7875,38.2563 Q271.925,38.6188 270.8875,38.6188 Q269.675,38.6188 268.7125,38.1188 Q267.925,37.7188 267.375,36.8688 Q266.825,36.0063 266.825,34.9813 L266.825,34.0563 Q266.825,32.9938 267.3125,32.0813 Q267.8125,31.1563 268.6875,30.6688 Q269.5625,30.1688 270.55,30.1688 Q271.1375,30.1688 271.65,30.3063 Q272.175,30.4313 272.6125,30.7188 Z " fill="#000000"/><text fill="#000000" font-family="sans-serif" font-size="9.6" font-style="italic" lengthAdjust="spacing" textLength="35.2" x="280" y="31.0906">&#171;Entity&#187;</text><text fill="#000000" font-family="sans-serif" font-size="11.2" lengthAdjust="spacing" textLength="31.2" x="282" y="43.2641">Drone</text><line style="stroke:#181818;stroke-width:0.4000000000000001;" x1="259.2" x2="315.2" y1="49.6375" y2="49.6375"/><line style="stroke:#181818;stroke-width:0.4000000000000001;" x1="259.2" x2="315.2" y1="56.0375" y2="56.0375"/></g><!--class MobileRobot--><g id="elem_MobileRobot"><rect codeLine="8" fill="#F1F1F1" height="44.0375" id="MobileRobot" rx="2" ry="2" style="stroke:#181818;stroke-width:0.4000000000000001;" width="88.8" x="141.2" y="18.4"/><ellipse cx="153.2" cy="34.0188" fill="#ADD1B2" rx="8.8" ry="8.8" style="stroke:#181818;stroke-width:0.8000000000000002;"/><path d="M155.4125,30.7188 Q155.5375,30.5438 155.6875,30.4563 Q155.8375,30.3688 156.0125,30.3688 Q156.3125,30.3688 156.5,30.5813 Q156.6875,30.7813 156.6875,31.2688 L156.6875,32.4313 Q156.6875,32.9188 156.5,33.1313 Q156.3125,33.3438 156.0125,33.3438 Q155.7375,33.3438 155.575,33.1813 Q155.4125,33.0313 155.325,32.6188 Q155.2875,32.3313 155.1375,32.1813 Q154.875,31.8813 154.3875,31.7063 Q153.9,31.5313 153.4,31.5313 Q152.7875,31.5313 152.275,31.7938 Q151.775,32.0563 151.375,32.6563 Q150.9875,33.2563 150.9875,34.0813 L150.9875,34.9563 Q150.9875,35.9438 151.7,36.6063 Q152.4125,37.2563 153.6875,37.2563 Q154.4375,37.2563 154.9625,37.0563 Q155.275,36.9313 155.6125,36.5813 Q155.825,36.3688 155.9375,36.3063 Q156.0625,36.2438 156.225,36.2438 Q156.4875,36.2438 156.6875,36.4563 Q156.9,36.6563 156.9,36.9313 Q156.9,37.2063 156.625,37.5313 Q156.225,37.9938 155.5875,38.2563 Q154.725,38.6188 153.6875,38.6188 Q152.475,38.6188 151.5125,38.1188 Q150.725,37.7188 150.175,36.8688 Q149.625,36.0063 149.625,34.9813 L149.625,34.0563 Q149.625,32.9938 150.1125,32.0813 Q150.6125,31.1563 151.4875,30.6688 Q152.3625,30.1688 153.35,30.1688 Q153.9375,30.1688 154.45,30.3063 Q154.975,30.4313 155.4125,30.7188 Z " fill="#000000"/><text fill="#000000" font-family="sans-serif" font-size="9.6" font-style="italic" lengthAdjust="spacing" textLength="35.2" x="178.4" y="31.0906">&#171;Entity&#187;</text><text fill="#000000" font-family="sans-serif" font-size="11.2" lengthAdjust="spacing" textLength="63.2" x="164.4" y="43.2641">MobileRobot</text><line style="stroke:#181818;stroke-width:0.4000000000000001;" x1="142" x2="229.2" y1="49.6375" y2="49.6375"/><line style="stroke:#181818;stroke-width:0.4000000000000001;" x1="142" x2="229.2" y1="56.0375" y2="56.0375"/></g><!--class Code--><g id="elem_Code"><rect codeLine="10" fill="#F1F1F1" height="54.7625" id="Code" rx="2" ry="2" style="stroke:#181818;stroke-width:0.4000000000000001;" width="88" x="92" y="110.4"/><ellipse cx="104" cy="131.3813" fill="#FFA500" rx="8.8" ry="8.8" style="stroke:#181818;stroke-width:0.8000000000000002;"/><path d="M104.4875,133.7313 L105.9625,130.7188 Q105.4125,130.7188 105.2625,130.6188 Q104.925,130.4188 104.925,130.0313 Q104.925,129.7313 105.1375,129.5438 Q105.35,129.3563 105.8375,129.3563 L107.7,129.3563 Q108.2,129.3563 108.4,129.5438 Q108.6125,129.7313 108.6125,130.0313 Q108.6125,130.3313 108.4,130.5313 Q108.2,130.7188 107.7,130.7188 L107.475,130.7188 L105.2,135.3813 L103.775,135.3813 L101.5,130.7188 L101.3125,130.7188 Q100.8125,130.7188 100.6,130.5313 Q100.4,130.3313 100.4,130.0313 Q100.4,129.7313 100.6,129.5438 Q100.8125,129.3563 101.3125,129.3563 L103.1375,129.3563 Q103.625,129.3563 103.825,129.5438 Q104.0375,129.7313 104.0375,130.0313 Q104.0375,130.4188 103.725,130.6188 Q103.5625,130.7188 103.0125,130.7188 L104.4875,133.7313 Z " fill="#000000"/><text fill="#000000" font-family="sans-serif" font-size="9.6" font-style="italic" lengthAdjust="spacing" textLength="65.6" x="113.6" y="123.0906">&#171;ValueObject&#187;</text><text fill="#000000" font-family="sans-serif" font-size="9.6" font-style="italic" lengthAdjust="spacing" textLength="41.6" x="125.6" y="133.8156">&#171;unique&#187;</text><text fill="#000000" font-family="sans-serif" font-size="11.2" lengthAdjust="spacing" textLength="27.2" x="132.8" y="145.9891">Code</text><line style="stroke:#181818;stroke-width:0.4000000000000001;" x1="92.8" x2="179.2" y1="152.3625" y2="152.3625"/><line style="stroke:#181818;stroke-width:0.4000000000000001;" x1="92.8" x2="179.2" y1="158.7625" y2="158.7625"/></g><!--class Nickname--><g id="elem_Nickname"><rect codeLine="11" fill="#F1F1F1" height="44.0375" id="Nickname" rx="2" ry="2" style="stroke:#181818;stroke-width:0.4000000000000001;" width="88" x="18.4" y="218"/><ellipse cx="30.4" cy="233.6188" fill="#A4C2E5" rx="8.8" ry="8.8" style="stroke:#181818;stroke-width:0.8000000000000002;"/><path d="M30.8875,235.9688 L32.3625,232.9563 Q31.8125,232.9563 31.6625,232.8563 Q31.325,232.6563 31.325,232.2688 Q31.325,231.9688 31.5375,231.7813 Q31.75,231.5938 32.2375,231.5938 L34.1,231.5938 Q34.6,231.5938 34.8,231.7813 Q35.0125,231.9688 35.0125,232.2688 Q35.0125,232.5688 34.8,232.7688 Q34.6,232.9563 34.1,232.9563 L33.875,232.9563 L31.6,237.6188 L30.175,237.6188 L27.9,232.9563 L27.7125,232.9563 Q27.2125,232.9563 27,232.7688 Q26.8,232.5688 26.8,232.2688 Q26.8,231.9688 27,231.7813 Q27.2125,231.5938 27.7125,231.5938 L29.5375,231.5938 Q30.025,231.5938 30.225,231.7813 Q30.4375,231.9688 30.4375,232.2688 Q30.4375,232.6563 30.125,232.8563 Q29.9625,232.9563 29.4125,232.9563 L30.8875,235.9688 Z " fill="#000000"/><text fill="#000000" font-family="sans-serif" font-size="9.6" font-style="italic" lengthAdjust="spacing" textLength="65.6" x="40" y="230.6906">&#171;ValueObject&#187;</text><text fill="#000000" font-family="sans-serif" font-size="11.2" lengthAdjust="spacing" textLength="48.8" x="48.4" y="242.8641">Nickname</text><line style="stroke:#181818;stroke-width:0.4000000000000001;" x1="19.2" x2="105.6" y1="249.2375" y2="249.2375"/><line style="stroke:#181818;stroke-width:0.4000000000000001;" x1="19.2" x2="105.6" y1="255.6375" y2="255.6375"/></g><!--class OperationStatus--><g id="elem_OperationStatus"><rect codeLine="12" fill="#F1F1F1" height="44.0375" id="OperationStatus" rx="2" ry="2" style="stroke:#181818;stroke-width:0.4000000000000001;" width="108" x="134.8" y="218"/><ellipse cx="146.8" cy="233.6188" fill="#A4C2E5" rx="8.8" ry="8.8" style="stroke:#181818;stroke-width:0.8000000000000002;"/><path d="M147.2875,235.9688 L148.7625,232.9563 Q148.2125,232.9563 148.0625,232.8563 Q147.725,232.6563 147.725,232.2688 Q147.725,231.9688 147.9375,231.7813 Q148.15,231.5938 148.6375,231.5938 L150.5,231.5938 Q151,231.5938 151.2,231.7813 Q151.4125,231.9688 151.4125,232.2688 Q151.4125,232.5688 151.2,232.7688 Q151,232.9563 150.5,232.9563 L150.275,232.9563 L148,237.6188 L146.575,237.6188 L144.3,232.9563 L144.1125,232.9563 Q143.6125,232.9563 143.4,232.7688 Q143.2,232.5688 143.2,232.2688 Q143.2,231.9688 143.4,231.7813 Q143.6125,231.5938 144.1125,231.5938 L145.9375,231.5938 Q146.425,231.5938 146.625,231.7813 Q146.8375,231.9688 146.8375,232.2688 Q146.8375,232.6563 146.525,232.8563 Q146.3625,232.9563 145.8125,232.9563 L147.2875,235.9688 Z " fill="#000000"/><text fill="#000000" font-family="sans-serif" font-size="9.6" font-style="italic" lengthAdjust="spacing" textLength="65.6" x="166.4" y="230.6906">&#171;ValueObject&#187;</text><text fill="#000000" font-family="sans-serif" font-size="11.2" lengthAdjust="spacing" textLength="82.4" x="158" y="242.8641">OperationStatus</text><line style="stroke:#181818;stroke-width:0.4000000000000001;" x1="135.6" x2="242" y1="249.2375" y2="249.2375"/><line style="stroke:#181818;stroke-width:0.4000000000000001;" x1="135.6" x2="242" y1="255.6375" y2="255.6375"/></g><!--class SerialNumber--><g id="elem_SerialNumber"><rect codeLine="13" fill="#F1F1F1" height="44.0375" id="SerialNumber" rx="2" ry="2" style="stroke:#181818;stroke-width:0.4000000000000001;" width="93.6" x="270.8" y="218"/><ellipse cx="282.8" cy="233.6188" fill="#A4C2E5" rx="8.8" ry="8.8" style="stroke:#181818;stroke-width:0.8000000000000002;"/><path d="M283.2875,235.9688 L284.7625,232.9563 Q284.2125,232.9563 284.0625,232.8563 Q283.725,232.6563 283.725,232.2688 Q283.725,231.9688 283.9375,231.7813 Q284.15,231.5938 284.6375,231.5938 L286.5,231.5938 Q287,231.5938 287.2,231.7813 Q287.4125,231.9688 287.4125,232.2688 Q287.4125,232.5688 287.2,232.7688 Q287,232.9563 286.5,232.9563 L286.275,232.9563 L284,237.6188 L282.575,237.6188 L280.3,232.9563 L280.1125,232.9563 Q279.6125,232.9563 279.4,232.7688 Q279.2,232.5688 279.2,232.2688 Q279.2,231.9688 279.4,231.7813 Q279.6125,231.5938 280.1125,231.5938 L281.9375,231.5938 Q282.425,231.5938 282.625,231.7813 Q282.8375,231.9688 282.8375,232.2688 Q282.8375,232.6563 282.525,232.8563 Q282.3625,232.9563 281.8125,232.9563 L283.2875,235.9688 Z " fill="#000000"/><text fill="#000000" font-family="sans-serif" font-size="9.6" font-style="italic" lengthAdjust="spacing" textLength="65.6" x="295.2" y="230.6906">&#171;ValueObject&#187;</text><text fill="#000000" font-family="sans-serif" font-size="11.2" lengthAdjust="spacing" textLength="68" x="294" y="242.8641">SerialNumber</text><line style="stroke:#181818;stroke-width:0.4000000000000001;" x1="271.6" x2="363.6" y1="249.2375" y2="249.2375"/><line style="stroke:#181818;stroke-width:0.4000000000000001;" x1="271.6" x2="363.6" y1="255.6375" y2="255.6375"/></g><!--class RobotType--><g id="elem_RobotType"><rect codeLine="17" fill="#F1F1F1" height="54.7625" id="RobotType" rx="2" ry="2" style="stroke:#181818;stroke-width:0.4000000000000001;" width="81.6" x="536.8" y="212.8"/><ellipse cx="548.8" cy="233.7813" fill="#ADD1B2" rx="8.8" ry="8.8" style="stroke:#181818;stroke-width:0.8000000000000002;"/><path d="M551.0125,230.4813 Q551.1375,230.3063 551.2875,230.2188 Q551.4375,230.1313 551.6125,230.1313 Q551.9125,230.1313 552.1,230.3438 Q552.2875,230.5438 552.2875,231.0313 L552.2875,232.1938 Q552.2875,232.6813 552.1,232.8938 Q551.9125,233.1063 551.6125,233.1063 Q551.3375,233.1063 551.175,232.9438 Q551.0125,232.7938 550.925,232.3813 Q550.8875,232.0938 550.7375,231.9438 Q550.475,231.6438 549.9875,231.4688 Q549.5,231.2938 549,231.2938 Q548.3875,231.2938 547.875,231.5563 Q547.375,231.8188 546.975,232.4188 Q546.5875,233.0188 546.5875,233.8438 L546.5875,234.7188 Q546.5875,235.7063 547.3,236.3688 Q548.0125,237.0188 549.2875,237.0188 Q550.0375,237.0188 550.5625,236.8188 Q550.875,236.6938 551.2125,236.3438 Q551.425,236.1313 551.5375,236.0688 Q551.6625,236.0063 551.825,236.0063 Q552.0875,236.0063 552.2875,236.2188 Q552.5,236.4188 552.5,236.6938 Q552.5,236.9688 552.225,237.2938 Q551.825,237.7563 551.1875,238.0188 Q550.325,238.3813 549.2875,238.3813 Q548.075,238.3813 547.1125,237.8813 Q546.325,237.4813 545.775,236.6313 Q545.225,235.7688 545.225,234.7438 L545.225,233.8188 Q545.225,232.7563 545.7125,231.8438 Q546.2125,230.9188 547.0875,230.4313 Q547.9625,229.9313 548.95,229.9313 Q549.5375,229.9313 550.05,230.0688 Q550.575,230.1938 551.0125,230.4813 Z " fill="#000000"/><text fill="#000000" font-family="sans-serif" font-size="9.6" font-style="italic" lengthAdjust="spacing" textLength="32" x="572" y="225.4906">&#171;Root&#187;</text><text fill="#000000" font-family="sans-serif" font-size="9.6" font-style="italic" lengthAdjust="spacing" textLength="35.2" x="570.4" y="236.2156">&#171;Entity&#187;</text><text fill="#000000" font-family="sans-serif" font-size="11.2" lengthAdjust="spacing" textLength="56" x="560" y="248.3891">RobotType</text><line style="stroke:#181818;stroke-width:0.4000000000000001;" x1="537.6" x2="617.6" y1="254.7625" y2="254.7625"/><line style="stroke:#181818;stroke-width:0.4000000000000001;" x1="537.6" x2="617.6" y1="261.1625" y2="261.1625"/></g><!--class AvailableTask--><g id="elem_AvailableTask"><rect codeLine="18" fill="#F1F1F1" height="44.0375" id="AvailableTask" rx="2" ry="2" style="stroke:#181818;stroke-width:0.4000000000000001;" width="96" x="409.6" y="320.4"/><ellipse cx="421.6" cy="336.0188" fill="#A4C2E5" rx="8.8" ry="8.8" style="stroke:#181818;stroke-width:0.8000000000000002;"/><path d="M422.0875,338.3688 L423.5625,335.3563 Q423.0125,335.3563 422.8625,335.2563 Q422.525,335.0563 422.525,334.6688 Q422.525,334.3688 422.7375,334.1813 Q422.95,333.9938 423.4375,333.9938 L425.3,333.9938 Q425.8,333.9938 426,334.1813 Q426.2125,334.3688 426.2125,334.6688 Q426.2125,334.9688 426,335.1688 Q425.8,335.3563 425.3,335.3563 L425.075,335.3563 L422.8,340.0188 L421.375,340.0188 L419.1,335.3563 L418.9125,335.3563 Q418.4125,335.3563 418.2,335.1688 Q418,334.9688 418,334.6688 Q418,334.3688 418.2,334.1813 Q418.4125,333.9938 418.9125,333.9938 L420.7375,333.9938 Q421.225,333.9938 421.425,334.1813 Q421.6375,334.3688 421.6375,334.6688 Q421.6375,335.0563 421.325,335.2563 Q421.1625,335.3563 420.6125,335.3563 L422.0875,338.3688 Z " fill="#000000"/><text fill="#000000" font-family="sans-serif" font-size="9.6" font-style="italic" lengthAdjust="spacing" textLength="65.6" x="435.2" y="333.0906">&#171;ValueObject&#187;</text><text fill="#000000" font-family="sans-serif" font-size="11.2" lengthAdjust="spacing" textLength="70.4" x="432.8" y="345.2641">AvailableTask</text><line style="stroke:#181818;stroke-width:0.4000000000000001;" x1="410.4" x2="504.8" y1="351.6375" y2="351.6375"/><line style="stroke:#181818;stroke-width:0.4000000000000001;" x1="410.4" x2="504.8" y1="358.0375" y2="358.0375"/></g><!--class RobotModel--><g id="elem_RobotModel"><rect codeLine="19" fill="#F1F1F1" height="44.0375" id="RobotModel" rx="2" ry="2" style="stroke:#181818;stroke-width:0.4000000000000001;" width="88" x="533.6" y="320.4"/><ellipse cx="545.6" cy="336.0188" fill="#A4C2E5" rx="8.8" ry="8.8" style="stroke:#181818;stroke-width:0.8000000000000002;"/><path d="M546.0875,338.3688 L547.5625,335.3563 Q547.0125,335.3563 546.8625,335.2563 Q546.525,335.0563 546.525,334.6688 Q546.525,334.3688 546.7375,334.1813 Q546.95,333.9938 547.4375,333.9938 L549.3,333.9938 Q549.8,333.9938 550,334.1813 Q550.2125,334.3688 550.2125,334.6688 Q550.2125,334.9688 550,335.1688 Q549.8,335.3563 549.3,335.3563 L549.075,335.3563 L546.8,340.0188 L545.375,340.0188 L543.1,335.3563 L542.9125,335.3563 Q542.4125,335.3563 542.2,335.1688 Q542,334.9688 542,334.6688 Q542,334.3688 542.2,334.1813 Q542.4125,333.9938 542.9125,333.9938 L544.7375,333.9938 Q545.225,333.9938 545.425,334.1813 Q545.6375,334.3688 545.6375,334.6688 Q545.6375,335.0563 545.325,335.2563 Q545.1625,335.3563 544.6125,335.3563 L546.0875,338.3688 Z " fill="#000000"/><text fill="#000000" font-family="sans-serif" font-size="9.6" font-style="italic" lengthAdjust="spacing" textLength="65.6" x="555.2" y="333.0906">&#171;ValueObject&#187;</text><text fill="#000000" font-family="sans-serif" font-size="11.2" lengthAdjust="spacing" textLength="60.8" x="557.6" y="345.2641">RobotModel</text><line style="stroke:#181818;stroke-width:0.4000000000000001;" x1="534.4" x2="620.8" y1="351.6375" y2="351.6375"/><line style="stroke:#181818;stroke-width:0.4000000000000001;" x1="534.4" x2="620.8" y1="358.0375" y2="358.0375"/></g><!--class RobotBrand--><g id="elem_RobotBrand"><rect codeLine="20" fill="#F1F1F1" height="44.0375" id="RobotBrand" rx="2" ry="2" style="stroke:#181818;stroke-width:0.4000000000000001;" width="88" x="649.6" y="320.4"/><ellipse cx="661.6" cy="336.0188" fill="#A4C2E5" rx="8.8" ry="8.8" style="stroke:#181818;stroke-width:0.8000000000000002;"/><path d="M662.0875,338.3688 L663.5625,335.3563 Q663.0125,335.3563 662.8625,335.2563 Q662.525,335.0563 662.525,334.6688 Q662.525,334.3688 662.7375,334.1813 Q662.95,333.9938 663.4375,333.9938 L665.3,333.9938 Q665.8,333.9938 666,334.1813 Q666.2125,334.3688 666.2125,334.6688 Q666.2125,334.9688 666,335.1688 Q665.8,335.3563 665.3,335.3563 L665.075,335.3563 L662.8,340.0188 L661.375,340.0188 L659.1,335.3563 L658.9125,335.3563 Q658.4125,335.3563 658.2,335.1688 Q658,334.9688 658,334.6688 Q658,334.3688 658.2,334.1813 Q658.4125,333.9938 658.9125,333.9938 L660.7375,333.9938 Q661.225,333.9938 661.425,334.1813 Q661.6375,334.3688 661.6375,334.6688 Q661.6375,335.0563 661.325,335.2563 Q661.1625,335.3563 660.6125,335.3563 L662.0875,338.3688 Z " fill="#000000"/><text fill="#000000" font-family="sans-serif" font-size="9.6" font-style="italic" lengthAdjust="spacing" textLength="65.6" x="671.2" y="333.0906">&#171;ValueObject&#187;</text><text fill="#000000" font-family="sans-serif" font-size="11.2" lengthAdjust="spacing" textLength="60.8" x="673.6" y="345.2641">RobotBrand</text><line style="stroke:#181818;stroke-width:0.4000000000000001;" x1="650.4" x2="736.8" y1="351.6375" y2="351.6375"/><line style="stroke:#181818;stroke-width:0.4000000000000001;" x1="650.4" x2="736.8" y1="358.0375" y2="358.0375"/></g><!--class RobotTypeId--><g id="elem_RobotTypeId"><rect codeLine="21" fill="#F1F1F1" height="54.7625" id="RobotTypeId" rx="2" ry="2" style="stroke:#181818;stroke-width:0.4000000000000001;" width="90.4" x="766" y="315.2"/><ellipse cx="778" cy="336.1813" fill="#FFA500" rx="8.8" ry="8.8" style="stroke:#181818;stroke-width:0.8000000000000002;"/><path d="M778.4875,338.5313 L779.9625,335.5188 Q779.4125,335.5188 779.2625,335.4188 Q778.925,335.2188 778.925,334.8313 Q778.925,334.5313 779.1375,334.3438 Q779.35,334.1563 779.8375,334.1563 L781.7,334.1563 Q782.2,334.1563 782.4,334.3438 Q782.6125,334.5313 782.6125,334.8313 Q782.6125,335.1313 782.4,335.3313 Q782.2,335.5188 781.7,335.5188 L781.475,335.5188 L779.2,340.1813 L777.775,340.1813 L775.5,335.5188 L775.3125,335.5188 Q774.8125,335.5188 774.6,335.3313 Q774.4,335.1313 774.4,334.8313 Q774.4,334.5313 774.6,334.3438 Q774.8125,334.1563 775.3125,334.1563 L777.1375,334.1563 Q777.625,334.1563 777.825,334.3438 Q778.0375,334.5313 778.0375,334.8313 Q778.0375,335.2188 777.725,335.4188 Q777.5625,335.5188 777.0125,335.5188 L778.4875,338.5313 Z " fill="#000000"/><text fill="#000000" font-family="sans-serif" font-size="9.6" font-style="italic" lengthAdjust="spacing" textLength="65.6" x="788.8" y="327.8906">&#171;ValueObject&#187;</text><text fill="#000000" font-family="sans-serif" font-size="9.6" font-style="italic" lengthAdjust="spacing" textLength="41.6" x="800.8" y="338.6156">&#171;unique&#187;</text><text fill="#000000" font-family="sans-serif" font-size="11.2" lengthAdjust="spacing" textLength="64.8" x="789.2" y="350.7891">RobotTypeId</text><line style="stroke:#181818;stroke-width:0.4000000000000001;" x1="766.8" x2="855.6" y1="357.1625" y2="357.1625"/><line style="stroke:#181818;stroke-width:0.4000000000000001;" x1="766.8" x2="855.6" y1="363.5625" y2="363.5625"/></g><!--link MobileRobot to Robot--><g id="link_MobileRobot_Robot"><path codeLine="25" d="M219,62.456 C219,62.456 219,94.064 219,94.064 " fill="none" id="MobileRobot-to-Robot" style="stroke:#181818;stroke-width:0.8000000000000002;"/><polygon fill="none" points="224.6,94.064,219,110.064,213.4,94.064,224.6,94.064" style="stroke:#181818;stroke-width:0.8000000000000002;"/></g><!--link Drone to Robot--><g id="link_Drone_Robot"><path codeLine="26" d="M262,62.456 C262,62.456 262,94.064 262,94.064 " fill="none" id="Drone-to-Robot" style="stroke:#181818;stroke-width:0.8000000000000002;"/><polygon fill="none" points="267.6,94.064,262,110.064,256.4,94.064,267.6,94.064" style="stroke:#181818;stroke-width:0.8000000000000002;"/></g><!--reverse link Code to Robot--><g id="link_Code_Robot"><path codeLine="27" d="M184.216,137.6 C184.216,137.6 207.992,137.6 207.992,137.6 " fill="none" id="Code-backto-Robot" style="stroke:#181818;stroke-width:0.8000000000000002;"/><polygon fill="#181818" points="180.216,137.6,187.416,140.8,184.216,137.6,187.416,134.4,180.216,137.6" style="stroke:#181818;stroke-width:0.8000000000000002;"/><text fill="#000000" font-family="sans-serif" font-size="10.4" lengthAdjust="spacing" textLength="5.6" x="186.5338" y="135.0661">1</text><text fill="#000000" font-family="sans-serif" font-size="10.4" lengthAdjust="spacing" textLength="5.6" x="195.8729" y="134.6656">1</text></g><!--link Robot to RobotType--><g id="link_Robot_RobotType"><path codeLine="28" d="M265.856,137.6 C348.272,137.6 577.6,137.6 577.6,137.6 C577.6,137.6 577.6,208.56 577.6,208.56 " fill="none" id="Robot-to-RobotType" style="stroke:#181818;stroke-width:0.8000000000000002;"/><polygon fill="#181818" points="577.6,212.56,580.8,205.36,577.6,208.56,574.4,205.36,577.6,212.56" style="stroke:#181818;stroke-width:0.8000000000000002;"/><text fill="#000000" font-family="sans-serif" font-size="10.4" lengthAdjust="spacing" textLength="4" x="271.9702" y="134.7179">*</text><text fill="#000000" font-family="sans-serif" font-size="10.4" lengthAdjust="spacing" textLength="5.6" x="571.4488" y="204.2756">1</text></g><!--link Robot to OperationStatus--><g id="link_Robot_OperationStatus"><path codeLine="29" d="M231.2,165.04 C231.2,165.04 231.2,213.992 231.2,213.992 " fill="none" id="Robot-to-OperationStatus" style="stroke:#181818;stroke-width:0.8000000000000002;"/><polygon fill="#181818" points="231.2,217.992,234.4,210.792,231.2,213.992,228,210.792,231.2,217.992" style="stroke:#181818;stroke-width:0.8000000000000002;"/><text fill="#000000" font-family="sans-serif" font-size="10.4" lengthAdjust="spacing" textLength="4" x="225.7038" y="180.9651">*</text><text fill="#000000" font-family="sans-serif" font-size="10.4" lengthAdjust="spacing" textLength="5.6" x="235.2525" y="209.5239">1</text></g><!--link Robot to Nickname--><g id="link_Robot_Nickname"><path codeLine="30" d="M219.6,165 C219.6,177.168 219.6,188.8 219.6,188.8 C219.6,188.8 99.2,188.8 99.2,188.8 C99.2,188.8 99.2,213.992 99.2,213.992 " fill="none" id="Robot-to-Nickname" style="stroke:#181818;stroke-width:0.8000000000000002;"/><polygon fill="#181818" points="99.2,217.992,102.4,210.792,99.2,213.992,96,210.792,99.2,217.992" style="stroke:#181818;stroke-width:0.8000000000000002;"/><text fill="#000000" font-family="sans-serif" font-size="10.4" lengthAdjust="spacing" textLength="5.6" x="210.0625" y="180.9173">1</text><text fill="#000000" font-family="sans-serif" font-size="10.4" lengthAdjust="spacing" textLength="5.6" x="101.8875" y="209.5239">1</text></g><!--link Robot to SerialNumber--><g id="link_Robot_SerialNumber"><path codeLine="31" d="M254.2,165.04 C254.2,195.376 254.2,240 254.2,240 C254.2,240 266.528,240 266.528,240 " fill="none" id="Robot-to-SerialNumber" style="stroke:#181818;stroke-width:0.8000000000000002;"/><polygon fill="#181818" points="270.528,240,263.328,236.8,266.528,240,263.328,243.2,270.528,240" style="stroke:#181818;stroke-width:0.8000000000000002;"/><text fill="#000000" font-family="sans-serif" font-size="10.4" lengthAdjust="spacing" textLength="5.6" x="251.4744" y="180.9651">1</text><text fill="#000000" font-family="sans-serif" font-size="10.4" lengthAdjust="spacing" textLength="5.6" x="258.8499" y="237.5556">1</text></g><!--link RobotType to RobotModel--><g id="link_RobotType_RobotModel"><path codeLine="33" d="M577.6,267.44 C577.6,267.44 577.6,316.392 577.6,316.392 " fill="none" id="RobotType-to-RobotModel" style="stroke:#181818;stroke-width:0.8000000000000002;"/><polygon fill="#181818" points="577.6,320.392,580.8,313.192,577.6,316.392,574.4,313.192,577.6,320.392" style="stroke:#181818;stroke-width:0.8000000000000002;"/><text fill="#000000" font-family="sans-serif" font-size="10.4" lengthAdjust="spacing" textLength="4" x="573.2063" y="283.3651">*</text><text fill="#000000" font-family="sans-serif" font-size="10.4" lengthAdjust="spacing" textLength="5.6" x="571.3175" y="311.9239">1</text></g><!--link RobotType to RobotBrand--><g id="link_RobotType_RobotBrand"><path codeLine="34" d="M618.496,249.6 C651.896,249.6 693.6,249.6 693.6,249.6 C693.6,249.6 693.6,316.176 693.6,316.176 " fill="none" id="RobotType-to-RobotBrand" style="stroke:#181818;stroke-width:0.8000000000000002;"/><polygon fill="#181818" points="693.6,320.176,696.8,312.976,693.6,316.176,690.4,312.976,693.6,320.176" style="stroke:#181818;stroke-width:0.8000000000000002;"/><text fill="#000000" font-family="sans-serif" font-size="10.4" lengthAdjust="spacing" textLength="4" x="624.7964" y="248.4065">*</text><text fill="#000000" font-family="sans-serif" font-size="10.4" lengthAdjust="spacing" textLength="5.6" x="687.3175" y="311.6552">1</text></g><!--link RobotType to AvailableTask--><g id="link_RobotType_AvailableTask"><path codeLine="35" d="M536.64,240 C501.872,240 457.6,240 457.6,240 C457.6,240 457.6,316.184 457.6,316.184 " fill="none" id="RobotType-to-AvailableTask" style="stroke:#181818;stroke-width:0.8000000000000002;"/><polygon fill="#181818" points="457.6,320.184,460.8,312.984,457.6,316.184,454.4,312.984,457.6,320.184" style="stroke:#181818;stroke-width:0.8000000000000002;"/><text fill="#000000" font-family="sans-serif" font-size="10.4" lengthAdjust="spacing" textLength="4" x="526.3303" y="237.3965">*</text><text fill="#000000" font-family="sans-serif" font-size="10.4" lengthAdjust="spacing" textLength="4" x="453.1125" y="311.6652">*</text></g><!--link RobotType to RobotTypeId--><g id="link_RobotType_RobotTypeId"><path codeLine="36" d="M618.56,231.2 C685.552,231.2 811.2,231.2 811.2,231.2 C811.2,231.2 811.2,311.2 811.2,311.2 " fill="none" id="RobotType-to-RobotTypeId" style="stroke:#181818;stroke-width:0.8000000000000002;"/><polygon fill="#181818" points="811.2,315.2,814.4,308,811.2,311.2,808,308,811.2,315.2" style="stroke:#181818;stroke-width:0.8000000000000002;"/><text fill="#000000" font-family="sans-serif" font-size="10.4" lengthAdjust="spacing" textLength="5.6" x="624.7138" y="227.3938">1</text><text fill="#000000" font-family="sans-serif" font-size="10.4" lengthAdjust="spacing" textLength="5.6" x="805.0225" y="306.6556">1</text></g><!--SRC=[hLBBJiCm4BpdAwpq05JaK0Yja4gaqFRGGrk9LjoTP0KcZXqSkr85_3jEuhPvy6WGljZUcLslPoUB2Kknm0cYX87SfO2uaC_Siixk_hWi0Q74x8a2whb3TpeQlLaXnLc67dZ09HgFzK7ldfSVPqmIkTCNmvaApW1zXInuG2YKDUgu8KnuL6QURo-vq1t01Nh4LC4gUD4jcGSL8wyAZcMN98mPJWwPFT-TNCrkcgc6lKf1O4auMqiiLNPQqXe4mNIfaW34RnaV_oFyxT2_RWY_oOVxi_Z-5XEA0meRdCMd_QqelT3AqmxyUpsTg0C_RtqUTHYjbj4oRdjtb5FrJYrUkCr4x87jKCVJM-6aVRHlEsNmq4a5YKgeuOfAmHBVUwm5L9rXEYx6r7YrqFTxk92p3VVj-a2hZ47hL_Fe4m00]--></g></svg>