<?xml version="1.0" encoding="us-ascii" standalone="no"?><svg xmlns="http://www.w3.org/2000/svg" xmlns:xlink="http://www.w3.org/1999/xlink" contentStyleType="text/css" height="314.4px" preserveAspectRatio="none" style="width:524px;height:314px;background:#FFFFFF;" version="1.1" viewBox="0 0 524 314" width="524.8px" zoomAndPan="magnify"><defs/><g><rect fill="#FFFFFF" height="22.8188" style="stroke:#181818;stroke-width:0.8000000000000002;" width="8" x="309.6" y="88.9313"/><rect fill="#FFFFFF" height="101.675" style="stroke:#181818;stroke-width:0.8000000000000002;" width="8" x="309.6" y="134.5688"/><rect fill="#FFFFFF" height="56.0375" style="stroke:#181818;stroke-width:0.8000000000000002;" width="8" x="411.2" y="157.3875"/><line style="stroke:#181818;stroke-width:0.4000000000000001;stroke-dasharray:5.0,5.0;" x1="43.2" x2="43.2" y1="64.5125" y2="250.6438"/><line style="stroke:#181818;stroke-width:0.4000000000000001;stroke-dasharray:5.0,5.0;" x1="313.6" x2="313.6" y1="64.5125" y2="250.6438"/><line style="stroke:#181818;stroke-width:0.4000000000000001;stroke-dasharray:5.0,5.0;" x1="415.2" x2="415.2" y1="64.5125" y2="250.6438"/><text fill="#000000" font-family="sans-serif" font-size="11.2" lengthAdjust="spacing" textLength="73.6" x="4" y="62.1391">Fleet Manager</text><ellipse cx="43.2" cy="10.8" fill="#E2E2F0" rx="6.4" ry="6.4" style="stroke:#181818;stroke-width:0.4000000000000001;"/><path d="M43.2,17.2 L43.2,38.8 M32.8,23.6 L53.6,23.6 M43.2,38.8 L32.8,50.8 M43.2,38.8 L53.6,50.8 " fill="none" style="stroke:#181818;stroke-width:0.4000000000000001;"/><text fill="#000000" font-family="sans-serif" font-size="11.2" lengthAdjust="spacing" textLength="73.6" x="4" y="259.9828">Fleet Manager</text><ellipse cx="43.2" cy="269.1563" fill="#E2E2F0" rx="6.4" ry="6.4" style="stroke:#181818;stroke-width:0.4000000000000001;"/><path d="M43.2,275.5563 L43.2,297.1563 M32.8,281.9563 L53.6,281.9563 M43.2,297.1563 L32.8,309.1563 M43.2,297.1563 L53.6,309.1563 " fill="none" style="stroke:#181818;stroke-width:0.4000000000000001;"/><rect fill="#E2E2F0" height="23.7125" rx="2" ry="2" style="stroke:#181818;stroke-width:0.4000000000000001;" width="73.6" x="276.8" y="40"/><text fill="#000000" font-family="sans-serif" font-size="11.2" lengthAdjust="spacing" textLength="62.4" x="282.4" y="55.7391">Visualiza&#231;&#227;o</text><rect fill="#E2E2F0" height="23.7125" rx="2" ry="2" style="stroke:#181818;stroke-width:0.4000000000000001;" width="73.6" x="276.8" y="249.8438"/><text fill="#000000" font-family="sans-serif" font-size="11.2" lengthAdjust="spacing" textLength="62.4" x="282.4" y="265.5828">Visualiza&#231;&#227;o</text><rect fill="#E2E2F0" height="23.7125" rx="2" ry="2" style="stroke:#181818;stroke-width:0.4000000000000001;" width="113.6" x="358.4" y="40"/><text fill="#000000" font-family="sans-serif" font-size="11.2" lengthAdjust="spacing" textLength="102.4" x="364" y="55.7391">MasterDataLogistics</text><rect fill="#E2E2F0" height="23.7125" rx="2" ry="2" style="stroke:#181818;stroke-width:0.4000000000000001;" width="113.6" x="358.4" y="249.8438"/><text fill="#000000" font-family="sans-serif" font-size="11.2" lengthAdjust="spacing" textLength="102.4" x="364" y="265.5828">MasterDataLogistics</text><rect fill="#FFFFFF" height="22.8188" style="stroke:#181818;stroke-width:0.8000000000000002;" width="8" x="309.6" y="88.9313"/><rect fill="#FFFFFF" height="101.675" style="stroke:#181818;stroke-width:0.8000000000000002;" width="8" x="309.6" y="134.5688"/><rect fill="#FFFFFF" height="56.0375" style="stroke:#181818;stroke-width:0.8000000000000002;" width="8" x="411.2" y="157.3875"/><polygon fill="#181818" points="300,85.7313,308,88.9313,300,92.1313,303.2,88.9313" style="stroke:#181818;stroke-width:0.8000000000000002;"/><line style="stroke:#181818;stroke-width:0.8000000000000002;" x1="43.2" x2="304.8" y1="88.9313" y2="88.9313"/><text fill="#000000" font-family="sans-serif" font-size="10.4" font-weight="bold" lengthAdjust="spacing" textLength="5.6" x="48.8" y="85.1273">1</text><text fill="#000000" font-family="sans-serif" font-size="10.4" lengthAdjust="spacing" textLength="226.4" x="57.6" y="85.1273">Starts the process to add a new robot to the fleet</text><polygon fill="#181818" points="52,108.55,44,111.75,52,114.95,48.8,111.75" style="stroke:#181818;stroke-width:0.8000000000000002;"/><line style="stroke:#181818;stroke-width:0.8000000000000002;stroke-dasharray:2.0,2.0;" x1="47.2" x2="312.8" y1="111.75" y2="111.75"/><text fill="#000000" font-family="sans-serif" font-size="10.4" font-weight="bold" lengthAdjust="spacing" textLength="5.6" x="56.8" y="107.9461">2</text><text fill="#000000" font-family="sans-serif" font-size="10.4" lengthAdjust="spacing" textLength="238.4" x="65.6" y="107.9461">Request data (type, serialNumber, Nickname, Code</text><polygon fill="#181818" points="300,131.3688,308,134.5688,300,137.7688,303.2,134.5688" style="stroke:#181818;stroke-width:0.8000000000000002;"/><line style="stroke:#181818;stroke-width:0.8000000000000002;" x1="43.2" x2="304.8" y1="134.5688" y2="134.5688"/><text fill="#000000" font-family="sans-serif" font-size="10.4" font-weight="bold" lengthAdjust="spacing" textLength="5.6" x="48.8" y="130.7648">3</text><text fill="#000000" font-family="sans-serif" font-size="10.4" lengthAdjust="spacing" textLength="68.8" x="57.6" y="130.7648">Types the data</text><polygon fill="#181818" points="401.6,154.1875,409.6,157.3875,401.6,160.5875,404.8,157.3875" style="stroke:#181818;stroke-width:0.8000000000000002;"/><line style="stroke:#181818;stroke-width:0.8000000000000002;" x1="317.6" x2="406.4" y1="157.3875" y2="157.3875"/><text fill="#000000" font-family="sans-serif" font-size="10.4" font-weight="bold" lengthAdjust="spacing" textLength="5.6" x="323.2" y="153.5836">4</text><text fill="#000000" font-family="sans-serif" font-size="10.4" lengthAdjust="spacing" textLength="54.4" x="332" y="153.5836">POST robot</text><line style="stroke:#181818;stroke-width:0.8000000000000002;" x1="419.2" x2="452.8" y1="180.2063" y2="180.2063"/><line style="stroke:#181818;stroke-width:0.8000000000000002;" x1="452.8" x2="452.8" y1="180.2063" y2="190.6063"/><line style="stroke:#181818;stroke-width:0.8000000000000002;" x1="420" x2="452.8" y1="190.6063" y2="190.6063"/><polygon fill="#181818" points="428,187.4063,420,190.6063,428,193.8063,424.8,190.6063" style="stroke:#181818;stroke-width:0.8000000000000002;"/><text fill="#000000" font-family="sans-serif" font-size="10.4" font-weight="bold" lengthAdjust="spacing" textLength="5.6" x="424.8" y="176.4023">5</text><text fill="#000000" font-family="sans-serif" font-size="10.4" lengthAdjust="spacing" textLength="85.6" x="433.6" y="176.4023">createRobot(robot)</text><polygon fill="#181818" points="326.4,210.225,318.4,213.425,326.4,216.625,323.2,213.425" style="stroke:#181818;stroke-width:0.8000000000000002;"/><line style="stroke:#181818;stroke-width:0.8000000000000002;stroke-dasharray:2.0,2.0;" x1="321.6" x2="414.4" y1="213.425" y2="213.425"/><text fill="#000000" font-family="sans-serif" font-size="10.4" font-weight="bold" lengthAdjust="spacing" textLength="5.6" x="331.2" y="209.6211">6</text><text fill="#000000" font-family="sans-serif" font-size="10.4" lengthAdjust="spacing" textLength="23.2" x="340" y="209.6211">robot</text><polygon fill="#181818" points="52,233.0438,44,236.2438,52,239.4438,48.8,236.2438" style="stroke:#181818;stroke-width:0.8000000000000002;"/><line style="stroke:#181818;stroke-width:0.8000000000000002;stroke-dasharray:2.0,2.0;" x1="47.2" x2="312.8" y1="236.2438" y2="236.2438"/><text fill="#000000" font-family="sans-serif" font-size="10.4" font-weight="bold" lengthAdjust="spacing" textLength="5.6" x="56.8" y="232.4398">7</text><text fill="#000000" font-family="sans-serif" font-size="10.4" lengthAdjust="spacing" textLength="121.6" x="65.6" y="232.4398">Informs operation success</text><!--SRC=[VP51JiD034NtEOMLLP6Q2qIeco2gIgIWjcBlJjmo8Xa7ZmE2wx3W8BqOCma8sX9s6VlRVly7EsNNDLkI18soG7fT4ocKw71FaW9wACgaHL5hR8jEuTxw3clxXeUFmpiVjT8IlP9SeU8DxwqF3T-lc2-If2WXcvrCvx3MCEz17mXQOKC-V3DWLG62enSGthB6KbJi8bi4jS-eT4fo_8GiN2lA75Rqr95Ng08LJFIrfIbu4elriZS-XQKrZmwRK2-uegIYiGiZ7ZPXvs0XtXZbEmESXLnokBjTRmQRFvCnh_dYMs64Gd4L9PDUU35q_q0Pzlnoy9NyPPQTQHTknz9uu9O4rR83tvdu1_vBu1C0]--></g></svg>