<?xml version="1.0" encoding="UTF-8" standalone="no"?><svg xmlns="http://www.w3.org/2000/svg" xmlns:xlink="http://www.w3.org/1999/xlink" contentStyleType="text/css" height="104px" preserveAspectRatio="none" style="width:364px;height:104px;background:#FFFFFF;" version="1.1" viewBox="0 0 364 104" width="364px" zoomAndPan="magnify"><defs/><g><!--MD5=[1478444cbd0d707d5292787239839939]
cluster RobDroneGo--><g id="cluster_RobDroneGo"><path d="M180.5,6 L272.5,6 A3.75,3.75 0 0 1 275,8.5 L282,29.6094 L354.5,29.6094 A2.5,2.5 0 0 1 357,32.1094 L357,89.5 A2.5,2.5 0 0 1 354.5,92 L180.5,92 A2.5,2.5 0 0 1 178,89.5 L178,8.5 A2.5,2.5 0 0 1 180.5,6 " fill="none" style="stroke:#000000;stroke-width:1.5;"/><line style="stroke:#000000;stroke-width:1.5;" x1="178" x2="282" y1="29.6094" y2="29.6094"/><text fill="#000000" font-family="sans-serif" font-size="14" font-weight="bold" lengthAdjust="spacing" textLength="91" x="182" y="22.5332">RobDroneGo</text></g><g id="elem_UC1"><ellipse cx="267.376" cy="59.0752" fill="#F1F1F1" rx="73.376" ry="17.0752" style="stroke:#181818;stroke-width:0.5;"/><text fill="#000000" font-family="sans-serif" font-size="14" lengthAdjust="spacing" textLength="97" x="215.876" y="63.5918">Create Building</text></g><!--MD5=[99f3cfe8ce18ee9cb444babb539f6fb5]
entity CM--><g id="elem_CM"><ellipse cx="70" cy="36" fill="#F1F1F1" rx="16" ry="16" style="stroke:#181818;stroke-width:1.5;"/><path d="M70,56 C74,56 77,56 81,52 C89,52 97,60 97,68 L97,72 C97,76 93,80 89,80 L51,80 C47,80 43,76 43,72 L43,68 C43,60 51,52 59,52 C63,56 66,56 70,56 " fill="#F1F1F1" style="stroke:#181818;stroke-width:1.5;"/><text fill="#000000" font-family="sans-serif" font-size="14" lengthAdjust="spacing" textLength="128" x="6" y="96.0332">UI Campus Manager</text></g><!--MD5=[903ea60045c411424de2a9ed86ec2df2]
link CM to UC1--><g id="link_CM_UC1"><path d="M134.2,59 C151.54,59 170.54,59 188.59,59 " fill="none" id="CM-to-UC1" style="stroke:#181818;stroke-width:1.0;"/><polygon fill="#181818" points="193.66,59,184.66,55,188.66,59,184.66,63,193.66,59" style="stroke:#181818;stroke-width:1.0;"/></g><!--MD5=[93e1d9237bba7d0147ad819db7d64358]
@startuml
left to right direction

skinparam actorStyle awesome

actor "UI Campus Manager" as CM


package  RobDroneGo  {
  
    usecase "Create Building" as UC1
  
}

CM - -> UC1

@enduml

PlantUML version 1.2022.7(Mon Aug 22 18:01:30 WEST 2022)
(GPL source distribution)
Java Runtime: Java(TM) SE Runtime Environment
JVM: Java HotSpot(TM) 64-Bit Server VM
Default Encoding: UTF-8
Language: pt
Country: PT
--></g></svg>