<?xml version="1.0" encoding="us-ascii" standalone="no"?><svg xmlns="http://www.w3.org/2000/svg" xmlns:xlink="http://www.w3.org/1999/xlink" contentStyleType="text/css" height="1681.8px" preserveAspectRatio="none" style="width:606px;height:1681px;background:#FFFFFF;" version="1.1" viewBox="0 0 606 1681" width="606.6px" zoomAndPan="magnify"><defs/><g><!--cluster RobDroneGo--><g id="cluster_RobDroneGo"><path d="M54.15,1.8 L81.75,1.8 A1.125,1.125 0 0 1 82.5,2.55 L84.6,8.2922 L603.75,8.2922 A0.75,0.75 0 0 1 604.5,9.0422 L604.5,1678.95 A0.75,0.75 0 0 1 603.75,1679.7 L54.15,1679.7 A0.75,0.75 0 0 1 53.4,1678.95 L53.4,2.55 A0.75,0.75 0 0 1 54.15,1.8 " fill="none" style="stroke:#000000;stroke-width:0.44999999999999996;"/><line style="stroke:#000000;stroke-width:0.44999999999999996;" x1="53.4" x2="84.6" y1="8.2922" y2="8.2922"/><text fill="#000000" font-family="sans-serif" font-size="4.2" font-weight="bold" lengthAdjust="spacing" textLength="27.3" x="54.6" y="6.2021">RobDroneGo</text></g><g id="elem_UC1"><ellipse cx="328.9733" cy="17.0747" fill="#F1F1F1" rx="21.0233" ry="4.9247" style="stroke:#181818;stroke-width:0.15;"/><text fill="#000000" font-family="sans-serif" font-size="4.2" lengthAdjust="spacing" textLength="29.1" x="314.3371" y="17.9548">Create Building</text></g><g id="elem_UC2"><ellipse cx="328.9329" cy="37.1966" fill="#F1F1F1" rx="18.8829" ry="4.4966" style="stroke:#181818;stroke-width:0.15;"/><text fill="#000000" font-family="sans-serif" font-size="4.2" lengthAdjust="spacing" textLength="23.4" x="316.3329" y="38.2726">Edit Building</text></g><g id="elem_UC3"><ellipse cx="328.9868" cy="57.2474" fill="#F1F1F1" rx="21.6368" ry="5.0474" style="stroke:#181818;stroke-width:0.15;"/><text fill="#000000" font-family="sans-serif" font-size="4.2" lengthAdjust="spacing" textLength="30.6" x="313.6868" y="58.1034">List All Buildings</text></g><g id="elem_UC4"><ellipse cx="328.9332" cy="79.1966" fill="#F1F1F1" rx="27.8832" ry="6.2966" style="stroke:#181818;stroke-width:0.15;"/><text fill="#000000" font-family="sans-serif" font-size="4.2" lengthAdjust="spacing" textLength="45" x="306.4332" y="80.0527">Create Floor of Building</text></g><g id="elem_UC5"><ellipse cx="328.948" cy="101.9396" fill="#F1F1F1" rx="25.348" ry="5.7896" style="stroke:#181818;stroke-width:0.15;"/><text fill="#000000" font-family="sans-serif" font-size="4.2" lengthAdjust="spacing" textLength="39.3" x="309.298" y="102.7957">Edit Floor of Building</text></g><g id="elem_UC6"><ellipse cx="329.0086" cy="124.2717" fill="#F1F1F1" rx="26.0086" ry="5.9217" style="stroke:#181818;stroke-width:0.15;"/><text fill="#000000" font-family="sans-serif" font-size="4.2" lengthAdjust="spacing" textLength="40.8" x="308.6086" y="125.1278">List Floors of Building</text></g><g id="elem_UC7"><ellipse cx="328.9161" cy="148.8232" fill="#F1F1F1" rx="37.7661" ry="8.2732" style="stroke:#181818;stroke-width:0.15;"/><text fill="#000000" font-family="sans-serif" font-size="4.2" lengthAdjust="spacing" textLength="66.3" x="295.7661" y="149.6793">Create Passage Between Buildings</text></g><g id="elem_UC8"><ellipse cx="328.9262" cy="175.4352" fill="#F1F1F1" rx="35.0762" ry="7.7352" style="stroke:#181818;stroke-width:0.15;"/><text fill="#000000" font-family="sans-serif" font-size="4.2" lengthAdjust="spacing" textLength="60.6" x="298.6262" y="176.2913">Edit Passage Between Buildings</text></g><g id="elem_UC9"><ellipse cx="328.8816" cy="201.8263" fill="#F1F1F1" rx="35.7816" ry="7.8763" style="stroke:#181818;stroke-width:0.15;"/><text fill="#000000" font-family="sans-serif" font-size="4.2" lengthAdjust="spacing" textLength="62.1" x="297.8316" y="202.6824">List Passages Between Buildings</text></g><g id="elem_UC10"><ellipse cx="328.9881" cy="227.1376" fill="#F1F1F1" rx="30.3381" ry="6.7876" style="stroke:#181818;stroke-width:0.15;"/><text fill="#000000" font-family="sans-serif" font-size="4.2" lengthAdjust="spacing" textLength="50.4" x="303.7881" y="227.9937">Create Elevator in Building</text></g><g id="elem_UC11"><ellipse cx="328.9482" cy="250.7696" fill="#F1F1F1" rx="27.7482" ry="6.2696" style="stroke:#181818;stroke-width:0.15;"/><text fill="#000000" font-family="sans-serif" font-size="4.2" lengthAdjust="spacing" textLength="44.7" x="306.5982" y="251.6257">Edit Elevator in Building</text></g><g id="elem_UC12"><ellipse cx="329.0248" cy="274.155" fill="#F1F1F1" rx="28.4248" ry="6.405" style="stroke:#181818;stroke-width:0.15;"/><text fill="#000000" font-family="sans-serif" font-size="4.2" lengthAdjust="spacing" textLength="46.2" x="305.9248" y="275.011">List Elevators in Building</text></g><g id="elem_UC13"><ellipse cx="328.8756" cy="297.2851" fill="#F1F1F1" rx="27.0756" ry="6.1351" style="stroke:#181818;stroke-width:0.15;"/><text fill="#000000" font-family="sans-serif" font-size="4.2" lengthAdjust="spacing" textLength="43.2" x="307.2756" y="298.1412">Create Rooms of Floor</text></g><g id="elem_UC14"><ellipse cx="328.9499" cy="319.5" fill="#F1F1F1" rx="23.3999" ry="5.4" style="stroke:#181818;stroke-width:0.15;"/><text fill="#000000" font-family="sans-serif" font-size="4.2" lengthAdjust="spacing" textLength="34.8" x="311.5499" y="320.356">List Room of Floor</text></g><g id="elem_UC15"><ellipse cx="328.9117" cy="341.3923" fill="#F1F1F1" rx="25.6117" ry="5.8423" style="stroke:#181818;stroke-width:0.15;"/><text fill="#000000" font-family="sans-serif" font-size="4.2" lengthAdjust="spacing" textLength="39.9" x="308.9617" y="342.2484">Add New Robot Type</text></g><g id="elem_UC16"><ellipse cx="328.9482" cy="364.1696" fill="#F1F1F1" rx="27.7482" ry="6.2696" style="stroke:#181818;stroke-width:0.15;"/><text fill="#000000" font-family="sans-serif" font-size="4.2" lengthAdjust="spacing" textLength="44.7" x="306.5982" y="365.0257">Add New Robot to Fleet</text></g><g id="elem_UC17"><ellipse cx="328.8883" cy="385.5177" fill="#F1F1F1" rx="18.9883" ry="4.5177" style="stroke:#181818;stroke-width:0.15;"/><text fill="#000000" font-family="sans-serif" font-size="4.2" lengthAdjust="spacing" textLength="23.7" x="316.1383" y="386.5937">Inhibit Robot</text></g><g id="elem_UC18"><ellipse cx="328.9499" cy="405.9" fill="#F1F1F1" rx="23.3999" ry="5.4" style="stroke:#181818;stroke-width:0.15;"/><text fill="#000000" font-family="sans-serif" font-size="4.2" lengthAdjust="spacing" textLength="34.8" x="311.5499" y="406.756">Consult All Robots</text></g><g id="elem_UC19"><ellipse cx="328.9018" cy="430.7304" fill="#F1F1F1" rx="41.0518" ry="8.9304" style="stroke:#181818;stroke-width:0.15;"/><text fill="#000000" font-family="sans-serif" font-size="4.2" lengthAdjust="spacing" textLength="73.2" x="292.3018" y="431.5864">Search Robots by Designation or Task</text></g><g id="elem_UC20"><ellipse cx="328.9527" cy="474.2405" fill="#F1F1F1" rx="115.3527" ry="23.7905" style="stroke:#181818;stroke-width:0.15;"/><text fill="#000000" font-family="sans-serif" font-size="4.2" lengthAdjust="spacing" textLength="224.1" x="216.9027" y="475.0966">Deployment of one of the RFP modules in a DEI VM to be systematic, validating on a scheduled basis with the test plan</text></g><g id="elem_UC21"><ellipse cx="328.9501" cy="527.97" fill="#F1F1F1" rx="93.0001" ry="19.32" style="stroke:#181818;stroke-width:0.15;"/><text fill="#000000" font-family="sans-serif" font-size="4.2" lengthAdjust="spacing" textLength="179.1" x="239.4001" y="528.8261">Only customers on the DEI internal network (wired or via VPN) to be able to access the solution</text></g><g id="elem_UC22"><ellipse cx="328.9096" cy="578.3619" fill="#F1F1F1" rx="98.2096" ry="20.3619" style="stroke:#181818;stroke-width:0.15;"/><text fill="#000000" font-family="sans-serif" font-size="4.2" lengthAdjust="spacing" textLength="189.6" x="234.1096" y="579.218">The clients indicated in the previous user story to be able to be defined by simply changing a text file</text></g><g id="elem_UC23"><ellipse cx="328.939" cy="623.6978" fill="#F1F1F1" rx="67.639" ry="14.2478" style="stroke:#181818;stroke-width:0.15;"/><text fill="#000000" font-family="sans-serif" font-size="4.2" lengthAdjust="spacing" textLength="127.8" x="265.039" y="624.5539">Identify and quantify the risks involved in the recommended solution</text></g><g id="elem_UC24"><ellipse cx="328.96" cy="667.532" fill="#F1F1F1" rx="91.81" ry="19.082" style="stroke:#181818;stroke-width:0.15;"/><text fill="#000000" font-family="sans-serif" font-size="4.2" lengthAdjust="spacing" textLength="176.7" x="240.61" y="668.3881">MBCO (Minimum Business Continuity Objective) to be proposed to stakeholders to be defined</text></g><g id="elem_UC25"><ellipse cx="328.9876" cy="726.3675" fill="#F1F1F1" rx="142.2376" ry="29.1675" style="stroke:#181818;stroke-width:0.15;"/><text fill="#000000" font-family="sans-serif" font-size="4.2" lengthAdjust="spacing" textLength="278.1" x="189.9376" y="727.2236">Backup strategy to be proposed, justified and implemented that minimizes the RPO (Recovery Point Objective) and the WRT (Work Recovery Time)</text></g><g id="elem_UC26"><ellipse cx="328.9476" cy="778.5595" fill="#F1F1F1" rx="58.9476" ry="12.5095" style="stroke:#181818;stroke-width:0.15;"/><text fill="#000000" font-family="sans-serif" font-size="4.2" lengthAdjust="spacing" textLength="110.1" x="273.8976" y="779.4156">Define a public folder for all users registered in the system</text></g><g id="elem_UC27"><ellipse cx="328.9998" cy="812.47" fill="#F1F1F1" rx="50.7498" ry="10.87" style="stroke:#181818;stroke-width:0.15;"/><text fill="#000000" font-family="sans-serif" font-size="4.2" lengthAdjust="spacing" textLength="93.3" x="282.3498" y="813.326">Obtain users with more than 3 incorrect accesses</text></g><g id="elem_UC28"><ellipse cx="328.9727" cy="847.5345" fill="#F1F1F1" rx="65.5727" ry="13.8345" style="stroke:#181818;stroke-width:0.15;"/><text fill="#000000" font-family="sans-serif" font-size="4.2" lengthAdjust="spacing" textLength="123.6" x="267.1727" y="848.3906">Disaster recovery plan that satisfies the MBCO defined in sprint B</text></g><g id="elem_UC29"><ellipse cx="328.9731" cy="901.8346" fill="#F1F1F1" rx="146.5731" ry="30.0346" style="stroke:#181818;stroke-width:0.15;"/><text fill="#000000" font-family="sans-serif" font-size="4.2" lengthAdjust="spacing" textLength="286.8" x="185.5731" y="902.6907">Changes to be made to the infrastructure to be presented in a justified manner in order to ensure an MTD (Maximum Tolerable Downtime) of 20 minutes</text></g><g id="elem_UC30"><ellipse cx="328.9051" cy="997.161" fill="#F1F1F1" rx="270.7051" ry="54.861" style="stroke:#181818;stroke-width:0.15;"/><text fill="#000000" font-family="sans-serif" font-size="4.2" lengthAdjust="spacing" textLength="535.5" x="61.1551" y="998.0171">Backup copy of the DB(s) to be made to a Cloud environment using a script that renames it to the format &lt;db_name&gt;_yyyymmdd with &lt;db_name&gt; being the name of the database, yyyy the year the copy was made, mm the month the copy was made and dd the day the copy was made</text></g><g id="elem_UC31"><ellipse cx="328.9482" cy="1109.6696" fill="#F1F1F1" rx="231.7482" ry="47.0696" style="stroke:#181818;stroke-width:0.15;"/><text fill="#000000" font-family="sans-serif" font-size="4.2" lengthAdjust="spacing" textLength="457.5" x="100.1982" y="1110.5257">Use the Backup created in US 840 to create a script that manages the files resulting from this backup, within the following schedule. 1 Backup per month for the last year, 1 backup per week for the last month, 1 backup per day for the last week</text></g><g id="elem_UC32"><ellipse cx="328.9054" cy="1202.3311" fill="#F1F1F1" rx="170.8054" ry="34.8811" style="stroke:#181818;stroke-width:0.15;"/><text fill="#000000" font-family="sans-serif" font-size="4.2" lengthAdjust="spacing" textLength="335.4" x="161.2054" y="1203.1871">DB backup US process to be kept in the Linux log, in an appropriate context, and the administrator is alerted when accessing the console if a serious failure occurs in this process</text></g><g id="elem_UC33"><ellipse cx="328.94" cy="1280.068" fill="#F1F1F1" rx="157.49" ry="32.218" style="stroke:#181818;stroke-width:0.15;"/><text fill="#000000" font-family="sans-serif" font-size="4.2" lengthAdjust="spacing" textLength="308.7" x="174.59" y="1280.9241">Backup copy of the US of the DB backup to have a lifespan of no more than 7 (seven) days, except as indicated in the US of retention of monthly and annual copies</text></g><g id="elem_UC34"><ellipse cx="328.977" cy="1352.6454" fill="#F1F1F1" rx="145.377" ry="29.7954" style="stroke:#181818;stroke-width:0.15;"/><text fill="#000000" font-family="sans-serif" font-size="4.2" lengthAdjust="spacing" textLength="284.4" x="186.777" y="1353.5015">A BIA (Business Impact Analysis) of the final solution to be presented to me, adapting if and where applicable the risk(s) identified in the previous sprint</text></g><g id="elem_UC35"><ellipse cx="328.9044" cy="1410.2909" fill="#F1F1F1" rx="81.8544" ry="17.0909" style="stroke:#181818;stroke-width:0.15;"/><text fill="#000000" font-family="sans-serif" font-size="4.2" lengthAdjust="spacing" textLength="156.6" x="250.6044" y="1411.1469">Access management to be implemented that meets the appropriate security criteria</text></g><g id="elem_UC36"><ellipse cx="328.8905" cy="1458.9481" fill="#F1F1F1" rx="100.8905" ry="20.8981" style="stroke:#181818;stroke-width:0.15;"/><text fill="#000000" font-family="sans-serif" font-size="4.2" lengthAdjust="spacing" textLength="195" x="231.3905" y="1459.8041">Clustering system to be implemented in a justified manner between the systems that implement the SPA</text></g><g id="elem_UC37"><ellipse cx="328.9714" cy="1509.0643" fill="#F1F1F1" rx="90.4714" ry="18.8143" style="stroke:#181818;stroke-width:0.15;"/><text fill="#000000" font-family="sans-serif" font-size="4.2" lengthAdjust="spacing" textLength="174" x="241.9714" y="1509.9203">Have SSH access to the virtual machine, only through a certificate, without using a password</text></g><g id="elem_UC38"><ellipse cx="329.0094" cy="1556.3819" fill="#F1F1F1" rx="86.3094" ry="17.9819" style="stroke:#181818;stroke-width:0.15;"/><text fill="#000000" font-family="sans-serif" font-size="4.2" lengthAdjust="spacing" textLength="165.6" x="246.2094" y="1557.2379">A public file share to be created between the various teams, in SMB/CIFS or NFS format</text></g><g id="elem_UC39"><ellipse cx="328.9629" cy="1629.9626" fill="#F1F1F1" rx="220.9629" ry="44.9126" style="stroke:#181818;stroke-width:0.15;"/><text fill="#000000" font-family="sans-serif" font-size="4.2" lengthAdjust="spacing" textLength="435.9" x="111.0129" y="1630.8186">Must ensure that, if necessary, backups were carried out correctly. To do this, we must automate its replacement, ultimately validating the functioning of the system (Ex. Database - execute a successful SQL query after replacement)</text></g><!--entity CM--><g id="elem_CM"><ellipse cx="21" cy="155.7" fill="#F1F1F1" rx="4.8" ry="4.8" style="stroke:#181818;stroke-width:0.44999999999999996;"/><path d="M21,161.7 C22.2,161.7 23.1,161.7 24.3,160.5 C26.7,160.5 29.1,162.9 29.1,165.3 L29.1,166.5 C29.1,167.7 27.9,168.9 26.7,168.9 L15.3,168.9 C14.1,168.9 12.9,167.7 12.9,166.5 L12.9,165.3 C12.9,162.9 15.3,160.5 17.7,160.5 C18.9,161.7 19.8,161.7 21,161.7 " fill="#F1F1F1" style="stroke:#181818;stroke-width:0.44999999999999996;"/><text fill="#000000" font-family="sans-serif" font-size="4.2" lengthAdjust="spacing" textLength="38.4" x="1.8" y="173.1521">UI Campus Manager</text></g><!--entity FM--><g id="elem_FM"><ellipse cx="21" cy="378.9" fill="#F1F1F1" rx="4.8" ry="4.8" style="stroke:#181818;stroke-width:0.44999999999999996;"/><path d="M21,384.9 C22.2,384.9 23.1,384.9 24.3,383.7 C26.7,383.7 29.1,386.1 29.1,388.5 L29.1,389.7 C29.1,390.9 27.9,392.1 26.7,392.1 L15.3,392.1 C14.1,392.1 12.9,390.9 12.9,389.7 L12.9,388.5 C12.9,386.1 15.3,383.7 17.7,383.7 C18.9,384.9 19.8,384.9 21,384.9 " fill="#F1F1F1" style="stroke:#181818;stroke-width:0.44999999999999996;"/><text fill="#000000" font-family="sans-serif" font-size="4.2" lengthAdjust="spacing" textLength="32.4" x="4.8" y="396.3521">UI Fleet Manager</text></g><!--entity SM--><g id="elem_SM"><ellipse cx="21" cy="942.9" fill="#F1F1F1" rx="4.8" ry="4.8" style="stroke:#181818;stroke-width:0.44999999999999996;"/><path d="M21,948.9 C22.2,948.9 23.1,948.9 24.3,947.7 C26.7,947.7 29.1,950.1 29.1,952.5 L29.1,953.7 C29.1,954.9 27.9,956.1 26.7,956.1 L15.3,956.1 C14.1,956.1 12.9,954.9 12.9,953.7 L12.9,952.5 C12.9,950.1 15.3,947.7 17.7,947.7 C18.9,948.9 19.8,948.9 21,948.9 " fill="#F1F1F1" style="stroke:#181818;stroke-width:0.44999999999999996;"/><text fill="#000000" font-family="sans-serif" font-size="4.2" lengthAdjust="spacing" textLength="36.6" x="2.7" y="960.3521">UI System Manager</text></g><!--entity U--><g id="elem_U"><ellipse cx="21" cy="121.5" fill="#F1F1F1" rx="4.8" ry="4.8" style="stroke:#181818;stroke-width:0.44999999999999996;"/><path d="M21,127.5 C22.2,127.5 23.1,127.5 24.3,126.3 C26.7,126.3 29.1,128.7 29.1,131.1 L29.1,132.3 C29.1,133.5 27.9,134.7 26.7,134.7 L15.3,134.7 C14.1,134.7 12.9,133.5 12.9,132.3 L12.9,131.1 C12.9,128.7 15.3,126.3 17.7,126.3 C18.9,127.5 19.8,127.5 21,127.5 " fill="#F1F1F1" style="stroke:#181818;stroke-width:0.44999999999999996;"/><text fill="#000000" font-family="sans-serif" font-size="4.2" lengthAdjust="spacing" textLength="13.5" x="14.25" y="138.9521">UI User</text></g><!--link CM to UC1--><g id="link_CM_UC1"><path d="M36.663,150.438 C38.046,148.815 39.27,147.06 40.2,145.2 C51.96,121.665 31.896,45.39 51,27.3 C69.378,9.9 244.224,14.175 306.642,16.278 " fill="none" id="CM-to-UC1" style="stroke:#181818;stroke-width:0.3;"/><polygon fill="#181818" points="308.184,16.332,305.5267,15.0402,306.6849,16.2806,305.4445,17.4388,308.184,16.332" style="stroke:#181818;stroke-width:0.3;"/></g><!--link CM to UC2--><g id="link_CM_UC2"><path d="M36.63,150.42 C38.019,148.8 39.255,147.051 40.2,145.2 C50.208,125.61 34.875,61.764 51,46.8 C69.75,29.403 248.052,34.245 308.625,36.417 " fill="none" id="CM-to-UC2" style="stroke:#181818;stroke-width:0.3;"/><polygon fill="#181818" points="310.209,36.474,307.5554,35.1746,308.71,36.4183,307.4663,37.573,310.209,36.474" style="stroke:#181818;stroke-width:0.3;"/></g><!--link CM to UC3--><g id="link_CM_UC3"><path d="M36.579,150.393 C37.974,148.779 39.228,147.039 40.2,145.2 C56.508,114.384 25.128,90.873 51,67.5 C69.714,50.595 243.132,54.501 306.015,56.499 " fill="none" id="CM-to-UC3" style="stroke:#181818;stroke-width:0.3;"/><polygon fill="#181818" points="307.569,56.55,304.908,55.2658,306.0697,56.5029,304.8326,57.6646,307.569,56.55" style="stroke:#181818;stroke-width:0.3;"/></g><!--link CM to UC4--><g id="link_CM_UC4"><path d="M36.381,150.438 C37.833,148.803 39.153,147.048 40.2,145.2 C52.338,123.795 32.313,106.908 51,90.9 C88.086,59.133 240.129,70.29 302.136,76.35 " fill="none" id="CM-to-UC4" style="stroke:#181818;stroke-width:0.3;"/><polygon fill="#181818" points="303.675,76.5,301.1045,75.0431,302.1821,76.3541,300.8711,77.4318,303.675,76.5" style="stroke:#181818;stroke-width:0.3;"/></g><!--link CM to UC5--><g id="link_CM_UC5"><path d="M36.057,150.396 C37.587,148.761 39.012,147.015 40.2,145.2 C48.45,132.609 38.955,122.127 51,113.1 C90.432,83.55 243.741,94.095 304.068,99.558 " fill="none" id="CM-to-UC5" style="stroke:#181818;stroke-width:0.3;"/><polygon fill="#181818" points="305.562,99.696,302.9788,98.2618,304.0679,99.5633,302.7664,100.6524,305.562,99.696" style="stroke:#181818;stroke-width:0.3;"/></g><!--link CM to UC6--><g id="link_CM_UC6"><path d="M34.425,150.444 C36.363,148.689 38.334,146.898 40.2,145.2 C45.015,140.817 44.979,137.781 51,135.3 C95.841,116.82 241.521,120.522 301.977,122.961 " fill="none" id="CM-to-UC6" style="stroke:#181818;stroke-width:0.3;"/><polygon fill="#181818" points="303.477,123.021,300.8309,121.7065,301.9784,122.9568,300.7281,124.1043,303.477,123.021" style="stroke:#181818;stroke-width:0.3;"/></g><!--link CM to UC7--><g id="link_CM_UC7"><path d="M40.293,161.466 C89.865,159.288 223.902,153.402 290.304,150.483 " fill="none" id="CM-to-UC7" style="stroke:#181818;stroke-width:0.3;"/><polygon fill="#181818" points="291.861,150.417,289.112,149.334,290.3624,150.4814,289.215,151.7318,291.861,150.417" style="stroke:#181818;stroke-width:0.3;"/></g><!--link CM to UC8--><g id="link_CM_UC8"><path d="M40.293,163.116 C90.516,165.273 227.43,171.153 292.878,173.964 " fill="none" id="CM-to-UC8" style="stroke:#181818;stroke-width:0.3;"/><polygon fill="#181818" points="294.411,174.03,291.765,172.7152,292.9124,173.9656,291.662,175.113,294.411,174.03" style="stroke:#181818;stroke-width:0.3;"/></g><!--link CM to UC9--><g id="link_CM_UC9"><path d="M31.341,174.225 C36.597,179.577 43.491,185.361 51,188.4 C135.159,222.483 245.583,213.759 298.209,206.742 " fill="none" id="CM-to-UC9" style="stroke:#181818;stroke-width:0.3;"/><polygon fill="#181818" points="299.748,206.535,296.9114,205.7083,298.2616,206.7363,297.2335,208.0865,299.748,206.535" style="stroke:#181818;stroke-width:0.3;"/></g><!--link CM to UC10--><g id="link_CM_UC10"><path d="M24.321,174.243 C28.197,186.825 36.258,206.046 51,215.1 C91.695,240.096 235.488,233.607 298.59,229.383 " fill="none" id="CM-to-UC10" style="stroke:#181818;stroke-width:0.3;"/><polygon fill="#181818" points="300.156,229.278,297.3829,228.2581,298.6592,229.3766,297.5408,230.653,300.156,229.278" style="stroke:#181818;stroke-width:0.3;"/></g><!--link CM to UC11--><g id="link_CM_UC11"><path d="M22.023,174.186 C23.796,191.697 29.913,223.983 51,239.1 C90.495,267.411 239.745,258.411 301.572,253.29 " fill="none" id="CM-to-UC11" style="stroke:#181818;stroke-width:0.3;"/><polygon fill="#181818" points="303.105,253.161,300.3119,252.1973,301.6105,253.2898,300.518,254.5885,303.105,253.161" style="stroke:#181818;stroke-width:0.3;"/></g><!--link CM to UC12--><g id="link_CM_UC12"><path d="M23.097,174.21 C26.985,198.258 36.984,251.265 51,262.2 C89.292,292.071 239.058,282.384 301.296,276.882 " fill="none" id="CM-to-UC12" style="stroke:#181818;stroke-width:0.3;"/><polygon fill="#181818" points="302.841,276.744,300.0452,275.7883,301.3469,276.8771,300.2581,278.1788,302.841,276.744" style="stroke:#181818;stroke-width:0.3;"/></g><!--link CM to UC13--><g id="link_CM_UC13"><path d="M22.368,174.171 C25.161,202.29 33.696,271.677 51,285.9 C88.836,317.001 241.326,305.937 302.787,300.03 " fill="none" id="CM-to-UC13" style="stroke:#181818;stroke-width:0.3;"/><polygon fill="#181818" points="304.311,299.883,301.5071,298.9512,302.8181,300.0289,301.7405,301.3399,304.311,299.883" style="stroke:#181818;stroke-width:0.3;"/></g><!--link CM to UC14--><g id="link_CM_UC14"><path d="M21.888,174.195 C23.721,205.911 30.504,291.267 51,308.7 C89.04,341.052 247.155,328.14 306.243,322.017 " fill="none" id="CM-to-UC14" style="stroke:#181818;stroke-width:0.3;"/><polygon fill="#181818" points="307.791,321.855,304.9819,320.9392,306.299,322.0093,305.2288,323.3265,307.791,321.855" style="stroke:#181818;stroke-width:0.3;"/></g><!--link FM to UC15--><g id="link_FM_UC15"><path d="M28.389,373.647 C33.609,366.123 41.442,356.988 51,352.5 C95.043,331.821 242.055,336.837 302.43,339.897 " fill="none" id="FM-to-UC15" style="stroke:#181818;stroke-width:0.3;"/><polygon fill="#181818" points="304.014,339.978,301.3792,338.6409,302.516,339.901,301.2559,341.0377,304.014,339.978" style="stroke:#181818;stroke-width:0.3;"/></g><!--link FM to UC16--><g id="link_FM_UC16"><path d="M37.269,379.266 C41.655,377.805 46.455,376.434 51,375.6 C140.835,359.124 249.648,360.783 300.237,362.763 " fill="none" id="FM-to-UC16" style="stroke:#181818;stroke-width:0.3;"/><polygon fill="#181818" points="301.863,362.829,299.2131,361.522,300.3642,362.769,299.1172,363.9201,301.863,362.829" style="stroke:#181818;stroke-width:0.3;"/></g><!--link FM to UC17--><g id="link_FM_UC17"><path d="M37.284,385.5 C88.863,385.5 250.845,385.5 308.241,385.5 " fill="none" id="FM-to-UC17" style="stroke:#181818;stroke-width:0.3;"/><polygon fill="#181818" points="309.825,385.5,307.125,384.3,308.325,385.5,307.125,386.7,309.825,385.5" style="stroke:#181818;stroke-width:0.3;"/></g><!--link FM to UC18--><g id="link_FM_UC18"><path d="M37.203,391.524 C41.61,392.949 46.437,394.29 51,395.1 C143.562,411.537 256.101,409.209 304.56,407.157 " fill="none" id="FM-to-UC18" style="stroke:#181818;stroke-width:0.3;"/><polygon fill="#181818" points="306.114,407.091,303.365,406.008,304.6154,407.1554,303.468,408.4058,306.114,407.091" style="stroke:#181818;stroke-width:0.3;"/></g><!--link FM to UC19--><g id="link_FM_UC19"><path d="M29.166,397.353 C34.449,404.232 42.066,412.32 51,416.4 C132.285,453.531 241.218,444.486 295.293,436.635 " fill="none" id="FM-to-UC19" style="stroke:#181818;stroke-width:0.3;"/><polygon fill="#181818" points="296.796,436.416,293.9499,435.6225,295.312,436.6347,294.2998,437.9969,296.796,436.416" style="stroke:#181818;stroke-width:0.3;"/></g><!--link SM to UC20--><g id="link_SM_UC20"><path d="M21.198,937.626 C20.739,870.018 20.046,535.551 51,503.4 C99.774,452.739 182.454,450.156 244.935,457.428 " fill="none" id="SM-to-UC20" style="stroke:#181818;stroke-width:0.3;"/><polygon fill="#181818" points="246.501,457.614,243.96,456.1063,245.0113,457.4385,243.6791,458.4898,246.501,457.614" style="stroke:#181818;stroke-width:0.3;"/></g><!--link SM to UC21--><g id="link_SM_UC21"><path d="M21.294,937.614 C21.384,874.524 23.295,580.686 51,552.6 C106.254,496.584 203.325,501.801 266.802,513.063 " fill="none" id="SM-to-UC21" style="stroke:#181818;stroke-width:0.3;"/><polygon fill="#181818" points="268.296,513.33,265.8517,511.6701,266.8198,513.0639,265.426,514.0321,268.296,513.33" style="stroke:#181818;stroke-width:0.3;"/></g><!--link SM to UC22--><g id="link_SM_UC22"><path d="M21.438,937.572 C22.227,879.519 27.018,628.347 51,604.2 C104.946,549.885 198.183,552.825 261.591,563.013 " fill="none" id="SM-to-UC22" style="stroke:#181818;stroke-width:0.3;"/><polygon fill="#181818" points="263.082,563.256,260.6084,561.64,261.6013,563.0163,260.225,564.0092,263.082,563.256" style="stroke:#181818;stroke-width:0.3;"/></g><!--link SM to UC23--><g id="link_SM_UC23"><path d="M21.564,937.59 C22.881,883.662 29.529,664.107 51,643.2 C80.115,614.85 190.824,615.333 263.343,619.002 " fill="none" id="SM-to-UC23" style="stroke:#181818;stroke-width:0.3;"/><polygon fill="#181818" points="264.942,619.083,262.3072,617.7459,263.444,619.006,262.1839,620.1427,264.942,619.083" style="stroke:#181818;stroke-width:0.3;"/></g><!--link SM to UC24--><g id="link_SM_UC24"><path d="M21.804,937.587 C23.958,889.206 33.135,709.182 51,691.8 C107.304,637.02 203.859,641.946 266.967,652.884 " fill="none" id="SM-to-UC24" style="stroke:#181818;stroke-width:0.3;"/><polygon fill="#181818" points="268.452,653.142,265.9983,651.4959,266.9743,652.8843,265.586,653.8602,268.452,653.142" style="stroke:#181818;stroke-width:0.3;"/></g><!--link SM to UC25--><g id="link_SM_UC25"><path d="M21.384,937.53 C21.906,899.952 25.593,785.394 51,760.8 C91.563,721.533 152.523,710.811 206.997,710.808 " fill="none" id="SM-to-UC25" style="stroke:#181818;stroke-width:0.3;"/><polygon fill="#181818" points="208.527,710.808,205.827,709.608,207.027,710.808,205.827,712.008,208.527,710.808" style="stroke:#181818;stroke-width:0.3;"/></g><!--link SM to UC26--><g id="link_SM_UC26"><path d="M21.798,937.554 C23.424,904.818 29.781,814.869 51,796.2 C82.632,768.369 200.1,770.25 271.719,774.273 " fill="none" id="SM-to-UC26" style="stroke:#181818;stroke-width:0.3;"/><polygon fill="#181818" points="273.297,774.363,270.6701,773.0105,271.7995,774.2772,270.5328,775.4066,273.297,774.363" style="stroke:#181818;stroke-width:0.3;"/></g><!--link SM to UC27--><g id="link_SM_UC27"><path d="M22.452,937.569 C25.389,909.831 34.158,842.31 51,828.3 C84.6,800.352 209.532,803.979 279.816,808.503 " fill="none" id="SM-to-UC27" style="stroke:#181818;stroke-width:0.3;"/><polygon fill="#181818" points="281.364,808.602,278.7488,807.227,279.8672,808.5034,278.5909,809.6219,281.364,808.602" style="stroke:#181818;stroke-width:0.3;"/></g><!--link SM to UC28--><g id="link_SM_UC28"><path d="M21.687,937.59 C22.998,918.993 28.488,883.434 51,866.4 C83.307,841.956 192.432,841.425 263.871,843.969 " fill="none" id="SM-to-UC28" style="stroke:#181818;stroke-width:0.3;"/><polygon fill="#181818" points="265.446,844.026,262.7924,842.7266,263.947,843.9703,262.7033,845.125,265.446,844.026" style="stroke:#181818;stroke-width:0.3;"/></g><!--link SM to UC29--><g id="link_SM_UC29"><path d="M39.318,940.926 C43.11,939.387 47.133,937.944 51,936.9 C95.157,924.987 144.384,917.091 188.976,911.865 " fill="none" id="SM-to-UC29" style="stroke:#181818;stroke-width:0.3;"/><polygon fill="#181818" points="190.56,911.682,187.7403,910.7991,189.0699,911.8538,188.0152,913.1833,190.56,911.682" style="stroke:#181818;stroke-width:0.3;"/></g><!--link SM to UC30--><g id="link_SM_UC30"><path d="M39.378,952.305 C55.83,954.858 82.098,958.935 112.26,963.618 " fill="none" id="SM-to-UC30" style="stroke:#181818;stroke-width:0.3;"/><polygon fill="#181818" points="113.79,963.855,111.3073,962.253,112.3079,963.6237,110.9373,964.6243,113.79,963.855" style="stroke:#181818;stroke-width:0.3;"/></g><!--link SM to UC31--><g id="link_SM_UC31"><path d="M22.98,961.386 C26.784,986.589 36.84,1044.159 51,1057.2 C67.971,1072.83 88.077,1084.488 109.593,1093.11 " fill="none" id="SM-to-UC31" style="stroke:#181818;stroke-width:0.3;"/><polygon fill="#181818" points="111.012,1093.671,108.9429,1091.5617,109.6172,1093.1191,108.0599,1093.7934,111.012,1093.671" style="stroke:#181818;stroke-width:0.3;"/></g><!--link SM to UC32--><g id="link_SM_UC32"><path d="M21.171,961.488 C21,1002.081 22.683,1133.415 51,1161.9 C80.562,1191.639 121.638,1205.958 163.14,1211.862 " fill="none" id="SM-to-UC32" style="stroke:#181818;stroke-width:0.3;"/><polygon fill="#181818" points="164.739,1212.087,162.2333,1210.5213,163.2537,1211.8773,161.8977,1212.8977,164.739,1212.087" style="stroke:#181818;stroke-width:0.3;"/></g><!--link SM to UC33--><g id="link_SM_UC33"><path d="M21.651,961.392 C23.31,1013.748 31.119,1222.047 51,1242.6 C85.731,1278.504 137.277,1291.638 186.561,1294.491 " fill="none" id="SM-to-UC33" style="stroke:#181818;stroke-width:0.3;"/><polygon fill="#181818" points="188.166,1294.578,185.5352,1293.233,186.6682,1294.4965,185.4048,1295.6295,188.166,1294.578" style="stroke:#181818;stroke-width:0.3;"/></g><!--link SM to UC34--><g id="link_SM_UC34"><path d="M21.387,961.389 C21.945,1021.623 25.833,1291.269 51,1317.6 C90.183,1358.598 151.353,1369.506 206.316,1369.242 " fill="none" id="SM-to-UC34" style="stroke:#181818;stroke-width:0.3;"/><polygon fill="#181818" points="207.858,1369.233,205.1512,1368.0484,206.358,1369.2416,205.1649,1370.4484,207.858,1369.233" style="stroke:#181818;stroke-width:0.3;"/></g><!--link SM to UC35--><g id="link_SM_UC35"><path d="M21.201,961.398 C20.769,1028.382 20.229,1356.621 51,1387.8 C77.691,1414.848 176.244,1417.167 248.37,1414.923 " fill="none" id="SM-to-UC35" style="stroke:#181818;stroke-width:0.3;"/><polygon fill="#181818" points="249.963,1414.875,247.2265,1413.7607,248.4637,1414.9223,247.3021,1416.1595,249.963,1414.875" style="stroke:#181818;stroke-width:0.3;"/></g><!--link SM to UC36--><g id="link_SM_UC36"><path d="M21.6,961.446 C23.478,1034.181 34.098,1415.025 51,1432.5 C103.833,1487.127 196.248,1484.694 259.848,1474.635 " fill="none" id="SM-to-UC36" style="stroke:#181818;stroke-width:0.3;"/><polygon fill="#181818" points="261.345,1474.395,258.4901,1473.6337,259.8636,1474.6305,258.8669,1476.004,261.345,1474.395" style="stroke:#181818;stroke-width:0.3;"/></g><!--link SM to UC37--><g id="link_SM_UC37"><path d="M21.525,961.467 C23.025,1038.819 32.142,1465.551 51,1485 C106.641,1542.381 206.091,1535.7 269.637,1523.742 " fill="none" id="SM-to-UC37" style="stroke:#181818;stroke-width:0.3;"/><polygon fill="#181818" points="271.134,1523.457,268.2581,1522.7792,269.6601,1523.7355,268.7037,1525.1374,271.134,1523.457" style="stroke:#181818;stroke-width:0.3;"/></g><!--link SM to UC38--><g id="link_SM_UC38"><path d="M21.468,961.473 C22.656,1042.818 30.393,1511.697 51,1533 C107.562,1591.473 209.634,1583.22 273.009,1570.674 " fill="none" id="SM-to-UC38" style="stroke:#181818;stroke-width:0.3;"/><polygon fill="#181818" points="274.5,1570.377,271.6164,1569.733,273.0295,1570.6728,272.0897,1572.0859,274.5,1570.377" style="stroke:#181818;stroke-width:0.3;"/></g><!--link SM to UC39--><g id="link_SM_UC39"><path d="M21.444,961.437 C22.521,1046.277 29.844,1555.338 51,1579.5 C67.302,1598.118 87.984,1611.354 110.679,1620.6 " fill="none" id="SM-to-UC39" style="stroke:#181818;stroke-width:0.3;"/><polygon fill="#181818" points="112.176,1621.206,110.1204,1619.0836,110.7848,1620.6452,109.2232,1621.3096,112.176,1621.206" style="stroke:#181818;stroke-width:0.3;"/></g><!--SRC=[XLTTRzku4dtthnZqAG7SRX8bJG8i5eZjvcw0kit6wVQne2NQvaOITKdAZkx5_U_t36dQLEpk1W4ybeQShpDdngLSE7AQZ5gk71NAoDmfNGy6zaNLZJ2Y8f4xRMQkAoM9ZRIwaeE1VqRllZtGM5HDQsagQh6KvXq9I-Dfylw-bDBrNj-dhsUTTRBglP-bxx_PxTDlWq4ZyXTe4Jtf-SJeMlvB4_rtGDHQcGihwTtOIE4aZLfL5gfUXeFZyrJbKw7SMuMBLE6piexkodAdPBTQsH5BzwM6ethnziRB0vC_qxmwiEqrxH7LZqSSU1JMSav6qcsah0-SlZvmv9zEt1muj3rXVthazeXZdqgv5bn5LH_Ku-p0gR_JFZzmA6hRO-eNHvnvqhho6VMvZPhPmSMiTw1sEKZrxeg2liWDOr0xUkuQ6VMkVgw61lDz45LxbNoeLsgkN52D6hswZNLjspAWqcl5n9_tYZMJmkIhhGRDEvf8gvQru8OcvFPPs9TuyBONr4GsfUugMJkE7ft57sw5nDq_KgMBjfG-ru8cdnxepoa7D9TaVVFY_dn8Qr6g0cAzn7aesdmb-Ln1Ss6LfOroAt-baqXqKuewDbyF3L_higEyjGuqmqrG-pDiLTLEcbgKL0E5shpGoGPiLN1WQoNepySlfrktn1nK1L7akRJMNs1rsN8QeiqUffwXa9SAqNEGXSe1cOB3vPEDaMkbmN1GDmI_JFV63CH2BbJDeNPaLTLm22jHBpaP0W6_EbgeCWBbeeVGXm9srQ8ZKHVqxrQ4BspPAFl23grrkTxx0uBM5IfLuD7Rg7g0dex6N-bagcfLjHMwnC93P0DOGf5QvJhwEl-BsNujO-8QenjjSJ6-MYTUv4gN1PUX5sMqrkEu4RYvRN3A87dBxis5G_eB9LKBXRivJiwHPBYnhPLmLB6RwZyoLElf4Pu_8T2rHBOVDKgVEiitiDhtfsSw-SvGsEa-gqgUHWUl-X1dvr6EffsNAgU53mqVXWJQYgjhaTmbQ42QVRe3nEEDlRxzEdS2Mk6aXtUbZUHuQifmFjU6f-aMXZBsx4MljIVA2hRew-f3uDO8IR5e9ukSXQJuUaQWmQvj3ETb5A_jKS6OuITZuIfHUAJoDQfU65WqRUvQ8tTraZPKmpVvlbYLg6lfMLaRJXVK9RW81-7az7a2W8bN3x1dNKhZMsAYDu0Owi0aSd76jMtTFlpR8x39TTD5ofcCJkpf6yS5ZKlT5h2zLXZydgWOq4jFD4OrBcJCo5fKJ5KkXelwWg3ersB-Wr_zzgF3NrM1dNt5TizXZQ_Z8_mzEWD64-0lEIG-vnzrO5alUASt28gz759L-QSL-cjr-Dw3jYYsbtQ72d79wB4XjX-l6TFafvalqhSPtLoUSPJXuPj4L7wV2i1Xwc5eymZX61T6iwlWvBc_TkXJiSKxsgBK6rQB1Fw1pgFz1WW8yN7Ri7e9AFcC3A4rtsjXJNZfA_bpRxGu4JqbFXOJqQFeoIYUG-1WbK3i7YCl4a5llVyCgBrIgPT33sJyDqn1Hd66SdW0AXxk-4CKJ3kUidZpi202QJY_cnMMdD2s4HGu3BP5-omuqzBuaR0GgkHUq7dUXcN4ftNhNmpauXy0ZuXsq8zH8hILM7DLIxMGja4eqAbrGZ7NT6BbMjQdd4Ox9FcQSoR4aHaMB1ZfUDHeVvKlHncc3dgynLo5JshNfbblbjpHwE6EJdP3vA72Bevz1EEumt0_ZG60d71H74i7v8Bl5Jf55ABnIEHarZxTJ2XD0ruEGtKx_PW8L9YFwiX43WmO7UwDexim-aCRUBe8lXmE7cnbeKrIgE2Qrl28H4k1d9M8HdeZPLosJDs-MSBFc4CZn_bqlbsaznF61dTsH_shsUDTDDoRFBypD6QpttSRJk0wSAFZGbOYHpiZqPgNARSokbsku4OETCCDXaReUTtkQRJ1ae-rAaxtxBfV_pWrmILaLs8tEI8bfH6jHMWF9qLbVIVEfgDVnW_tCrxMlk0Zi78qrPjSK-GgpXXEoP1HKakEKvXkk6qG35p6J2wCuRHo8DjnMtOVC8keqBuN4ISecQyKBLPAhgroJ8QOihbFz92O5laDSfKiiHxERUr_3VkbTf5KYqu-lNwWoNOuq7iq7n0JMBZrDLcq9St- -8oDZcUwM8GHlxCQTvJiTl2_mNXAxz__vd-exiIBlPZjnSkzUBKNF-x5wxruinTl4nDdYPpOEqyCdYSM-TVF_UxBLI9_JEJhHBv9PFpAcEqYEalayqI-IEGiaIyJ-IgHFoRoTIBV9FBjNiuIkrbYDqliPedTBB6R9NQpn6wMsCqIkzdj_m40]--></g></svg>