<?xml version="1.0" encoding="us-ascii" standalone="no"?><svg xmlns="http://www.w3.org/2000/svg" xmlns:xlink="http://www.w3.org/1999/xlink" contentStyleType="text/css" height="536.4px" preserveAspectRatio="none" style="width:1433px;height:536px;background:#FFFFFF;" version="1.1" viewBox="0 0 1433 536" width="1433.7px" zoomAndPan="magnify"><defs/><g><rect fill="#FFFFFF" height="430.5287" style="stroke:#181818;stroke-width:0.9;" width="9" x="57.6" y="64.7209"/><rect fill="#FFFFFF" height="366.1049" style="stroke:#181818;stroke-width:0.9;" width="9" x="290.7" y="92.8828"/><rect fill="#FFFFFF" height="309.7811" style="stroke:#181818;stroke-width:0.9;" width="9" x="521.1" y="121.0447"/><rect fill="#FFFFFF" height="84.4857" style="stroke:#181818;stroke-width:0.9;" width="9" x="731.7" y="149.2066"/><rect fill="#FFFFFF" height="28.1619" style="stroke:#181818;stroke-width:0.9;" width="9" x="881.1" y="177.3686"/><rect fill="#FFFFFF" height="28.1619" style="stroke:#181818;stroke-width:0.9;" width="9" x="978.75" y="374.502"/><rect fill="#FFFFFF" height="84.4857" style="stroke:#181818;stroke-width:0.9;" width="9" x="1242.9" y="261.8543"/><rect fill="#FFFFFF" height="28.1619" style="stroke:#181818;stroke-width:0.9;" width="9" x="1377.9" y="290.0162"/><line style="stroke:#181818;stroke-width:0.45;stroke-dasharray:5.0,5.0;" x1="61.65" x2="61.65" y1="34.759" y2="503.3496"/><line style="stroke:#181818;stroke-width:0.45;stroke-dasharray:5.0,5.0;" x1="295.2" x2="295.2" y1="34.759" y2="503.3496"/><line style="stroke:#181818;stroke-width:0.45;stroke-dasharray:5.0,5.0;" x1="525.15" x2="525.15" y1="34.759" y2="503.3496"/><line style="stroke:#181818;stroke-width:0.45;stroke-dasharray:5.0,5.0;" x1="736.2" x2="736.2" y1="34.759" y2="503.3496"/><line style="stroke:#181818;stroke-width:0.45;stroke-dasharray:5.0,5.0;" x1="885.15" x2="885.15" y1="34.759" y2="503.3496"/><line style="stroke:#181818;stroke-width:0.45;stroke-dasharray:5.0,5.0;" x1="983.25" x2="983.25" y1="34.759" y2="503.3496"/><line style="stroke:#181818;stroke-width:0.45;stroke-dasharray:5.0,5.0;" x1="1113.75" x2="1113.75" y1="34.759" y2="503.3496"/><line style="stroke:#181818;stroke-width:0.45;stroke-dasharray:5.0,5.0;" x1="1246.95" x2="1246.95" y1="34.759" y2="503.3496"/><line style="stroke:#181818;stroke-width:0.45;stroke-dasharray:5.0,5.0;" x1="1382.4" x2="1382.4" y1="34.759" y2="503.3496"/><rect fill="#E2E2F0" height="29.359" rx="2.25" ry="2.25" style="stroke:#181818;stroke-width:0.45;" width="80.1" x="22.05" y="4.5"/><text fill="#000000" font-family="sans-serif" font-size="12.6" lengthAdjust="spacing" textLength="67.5" x="28.35" y="24.3967">:FloorRoute</text><rect fill="#E2E2F0" height="29.359" rx="2.25" ry="2.25" style="stroke:#181818;stroke-width:0.45;" width="80.1" x="22.05" y="502.4496"/><text fill="#000000" font-family="sans-serif" font-size="12.6" lengthAdjust="spacing" textLength="67.5" x="28.35" y="522.3463">:FloorRoute</text><rect fill="#E2E2F0" height="29.359" rx="2.25" ry="2.25" style="stroke:#181818;stroke-width:0.45;" width="205.2" x="192.6" y="4.5"/><text fill="#000000" font-family="sans-serif" font-size="12.6" lengthAdjust="spacing" textLength="192.6" x="198.9" y="24.3967">:ListFloorsPassagewaysController</text><rect fill="#E2E2F0" height="29.359" rx="2.25" ry="2.25" style="stroke:#181818;stroke-width:0.45;" width="205.2" x="192.6" y="502.4496"/><text fill="#000000" font-family="sans-serif" font-size="12.6" lengthAdjust="spacing" textLength="192.6" x="198.9" y="522.3463">:ListFloorsPassagewaysController</text><rect fill="#E2E2F0" height="29.359" rx="2.25" ry="2.25" style="stroke:#181818;stroke-width:0.45;" width="191.7" x="429.75" y="4.5"/><text fill="#000000" font-family="sans-serif" font-size="12.6" lengthAdjust="spacing" textLength="179.1" x="436.05" y="24.3967">:ListFloorsPassagewaysService</text><rect fill="#E2E2F0" height="29.359" rx="2.25" ry="2.25" style="stroke:#181818;stroke-width:0.45;" width="191.7" x="429.75" y="502.4496"/><text fill="#000000" font-family="sans-serif" font-size="12.6" lengthAdjust="spacing" textLength="179.1" x="436.05" y="522.3463">:ListFloorsPassagewaysService</text><rect fill="#E2E2F0" height="29.359" rx="2.25" ry="2.25" style="stroke:#181818;stroke-width:0.45;" width="91.8" x="690.3" y="4.5"/><text fill="#000000" font-family="sans-serif" font-size="12.6" lengthAdjust="spacing" textLength="79.2" x="696.6" y="24.3967">:BuildingRepo</text><rect fill="#E2E2F0" height="29.359" rx="2.25" ry="2.25" style="stroke:#181818;stroke-width:0.45;" width="91.8" x="690.3" y="502.4496"/><text fill="#000000" font-family="sans-serif" font-size="12.6" lengthAdjust="spacing" textLength="79.2" x="696.6" y="522.3463">:BuildingRepo</text><rect fill="#E2E2F0" height="29.359" rx="2.25" ry="2.25" style="stroke:#181818;stroke-width:0.45;" width="107.1" x="832.05" y="4.5"/><text fill="#000000" font-family="sans-serif" font-size="12.6" lengthAdjust="spacing" textLength="94.5" x="838.35" y="24.3967">:BuildingSchema</text><rect fill="#E2E2F0" height="29.359" rx="2.25" ry="2.25" style="stroke:#181818;stroke-width:0.45;" width="107.1" x="832.05" y="502.4496"/><text fill="#000000" font-family="sans-serif" font-size="12.6" lengthAdjust="spacing" textLength="94.5" x="838.35" y="522.3463">:BuildingSchema</text><rect fill="#E2E2F0" height="29.359" rx="2.25" ry="2.25" style="stroke:#181818;stroke-width:0.45;" width="70.2" x="948.15" y="4.5"/><text fill="#000000" font-family="sans-serif" font-size="12.6" lengthAdjust="spacing" textLength="57.6" x="954.45" y="24.3967">:FloorMap</text><rect fill="#E2E2F0" height="29.359" rx="2.25" ry="2.25" style="stroke:#181818;stroke-width:0.45;" width="70.2" x="948.15" y="502.4496"/><text fill="#000000" font-family="sans-serif" font-size="12.6" lengthAdjust="spacing" textLength="57.6" x="954.45" y="522.3463">:FloorMap</text><rect fill="#E2E2F0" height="29.359" rx="2.25" ry="2.25" style="stroke:#181818;stroke-width:0.45;" width="172.8" x="1027.35" y="4.5"/><text fill="#000000" font-family="sans-serif" font-size="12.6" lengthAdjust="spacing" textLength="160.2" x="1033.65" y="24.3967">:IListFloorPassagewaysDTO</text><rect fill="#E2E2F0" height="29.359" rx="2.25" ry="2.25" style="stroke:#181818;stroke-width:0.45;" width="172.8" x="1027.35" y="502.4496"/><text fill="#000000" font-family="sans-serif" font-size="12.6" lengthAdjust="spacing" textLength="160.2" x="1033.65" y="522.3463">:IListFloorPassagewaysDTO</text><rect fill="#E2E2F0" height="29.359" rx="2.25" ry="2.25" style="stroke:#181818;stroke-width:0.45;" width="76.5" x="1209.15" y="4.5"/><text fill="#000000" font-family="sans-serif" font-size="12.6" lengthAdjust="spacing" textLength="63.9" x="1215.45" y="24.3967">:FloorRepo</text><rect fill="#E2E2F0" height="29.359" rx="2.25" ry="2.25" style="stroke:#181818;stroke-width:0.45;" width="76.5" x="1209.15" y="502.4496"/><text fill="#000000" font-family="sans-serif" font-size="12.6" lengthAdjust="spacing" textLength="63.9" x="1215.45" y="522.3463">:FloorRepo</text><rect fill="#E2E2F0" height="29.359" rx="2.25" ry="2.25" style="stroke:#181818;stroke-width:0.45;" width="91.8" x="1336.5" y="4.5"/><text fill="#000000" font-family="sans-serif" font-size="12.6" lengthAdjust="spacing" textLength="79.2" x="1342.8" y="24.3967">:FloorSchema</text><rect fill="#E2E2F0" height="29.359" rx="2.25" ry="2.25" style="stroke:#181818;stroke-width:0.45;" width="91.8" x="1336.5" y="502.4496"/><text fill="#000000" font-family="sans-serif" font-size="12.6" lengthAdjust="spacing" textLength="79.2" x="1342.8" y="522.3463">:FloorSchema</text><rect fill="#FFFFFF" height="430.5287" style="stroke:#181818;stroke-width:0.9;" width="9" x="57.6" y="64.7209"/><rect fill="#FFFFFF" height="366.1049" style="stroke:#181818;stroke-width:0.9;" width="9" x="290.7" y="92.8828"/><rect fill="#FFFFFF" height="309.7811" style="stroke:#181818;stroke-width:0.9;" width="9" x="521.1" y="121.0447"/><rect fill="#FFFFFF" height="84.4857" style="stroke:#181818;stroke-width:0.9;" width="9" x="731.7" y="149.2066"/><rect fill="#FFFFFF" height="28.1619" style="stroke:#181818;stroke-width:0.9;" width="9" x="881.1" y="177.3686"/><rect fill="#FFFFFF" height="28.1619" style="stroke:#181818;stroke-width:0.9;" width="9" x="978.75" y="374.502"/><rect fill="#FFFFFF" height="84.4857" style="stroke:#181818;stroke-width:0.9;" width="9" x="1242.9" y="261.8543"/><rect fill="#FFFFFF" height="28.1619" style="stroke:#181818;stroke-width:0.9;" width="9" x="1377.9" y="290.0162"/><ellipse cx="4.05" cy="64.0459" fill="none" rx="3.6" ry="3.6" style="stroke:#181818;stroke-width:1.35;"/><polygon fill="#181818" points="46.8,61.1209,55.8,64.7209,46.8,68.3209,50.4,64.7209" style="stroke:#181818;stroke-width:0.9;"/><line style="stroke:#181818;stroke-width:0.9;" x1="8.1" x2="52.2" y1="64.7209" y2="64.7209"/><text fill="#000000" font-family="sans-serif" font-size="11.7" font-weight="bold" lengthAdjust="spacing" textLength="6.3" x="10.8" y="59.9845">1</text><text fill="#000000" font-family="sans-serif" font-size="11.7" lengthAdjust="spacing" textLength="23.4" x="20.7" y="59.9845">GET</text><polygon fill="#181818" points="279.9,89.2828,288.9,92.8828,279.9,96.4828,283.5,92.8828" style="stroke:#181818;stroke-width:0.9;"/><line style="stroke:#181818;stroke-width:0.9;" x1="66.6" x2="285.3" y1="92.8828" y2="92.8828"/><text fill="#000000" font-family="sans-serif" font-size="11.7" font-weight="bold" lengthAdjust="spacing" textLength="6.3" x="72.9" y="88.1464">2</text><text fill="#000000" font-family="sans-serif" font-size="11.7" lengthAdjust="spacing" textLength="197.1" x="82.8" y="88.1464">listFloorsPassageways(req, res, next)</text><polygon fill="#181818" points="510.3,117.4447,519.3,121.0447,510.3,124.6447,513.9,121.0447" style="stroke:#181818;stroke-width:0.9;"/><line style="stroke:#181818;stroke-width:0.9;" x1="299.7" x2="515.7" y1="121.0447" y2="121.0447"/><text fill="#000000" font-family="sans-serif" font-size="11.7" font-weight="bold" lengthAdjust="spacing" textLength="6.3" x="306" y="116.3083">3</text><text fill="#000000" font-family="sans-serif" font-size="11.7" lengthAdjust="spacing" textLength="194.4" x="315.9" y="116.3083">listFloorsPassageways(buildingCode)</text><polygon fill="#181818" points="720.9,145.6066,729.9,149.2066,720.9,152.8066,724.5,149.2066" style="stroke:#181818;stroke-width:0.9;"/><line style="stroke:#181818;stroke-width:0.9;" x1="530.1" x2="726.3" y1="149.2066" y2="149.2066"/><text fill="#000000" font-family="sans-serif" font-size="11.7" font-weight="bold" lengthAdjust="spacing" textLength="6.3" x="536.4" y="144.4702">4</text><text fill="#000000" font-family="sans-serif" font-size="11.7" lengthAdjust="spacing" textLength="174.6" x="546.3" y="144.4702">findByBuildingCode(buildingCode)</text><polygon fill="#181818" points="870.3,173.7686,879.3,177.3686,870.3,180.9686,873.9,177.3686" style="stroke:#181818;stroke-width:0.9;"/><line style="stroke:#181818;stroke-width:0.9;" x1="740.7" x2="875.7" y1="177.3686" y2="177.3686"/><text fill="#000000" font-family="sans-serif" font-size="11.7" font-weight="bold" lengthAdjust="spacing" textLength="6.3" x="747" y="172.6321">5</text><text fill="#000000" font-family="sans-serif" font-size="11.7" lengthAdjust="spacing" textLength="113.4" x="756.9" y="172.6321">findOne(buildingCode)</text><polygon fill="#181818" points="750.6,201.9305,741.6,205.5305,750.6,209.1305,747,205.5305" style="stroke:#181818;stroke-width:0.9;"/><line style="stroke:#181818;stroke-width:0.9;stroke-dasharray:2.0,2.0;" x1="745.2" x2="884.7" y1="205.5305" y2="205.5305"/><text fill="#000000" font-family="sans-serif" font-size="11.7" font-weight="bold" lengthAdjust="spacing" textLength="6.3" x="756" y="200.794">6</text><text fill="#000000" font-family="sans-serif" font-size="11.7" lengthAdjust="spacing" textLength="3.6" x="765.9" y="200.794">&#160;</text><polygon fill="#181818" points="540,230.0924,531,233.6924,540,237.2924,536.4,233.6924" style="stroke:#181818;stroke-width:0.9;"/><line style="stroke:#181818;stroke-width:0.9;stroke-dasharray:2.0,2.0;" x1="534.6" x2="735.3" y1="233.6924" y2="233.6924"/><text fill="#000000" font-family="sans-serif" font-size="11.7" font-weight="bold" lengthAdjust="spacing" textLength="6.3" x="545.4" y="228.956">7</text><text fill="#000000" font-family="sans-serif" font-size="11.7" lengthAdjust="spacing" textLength="3.6" x="555.3" y="228.956">&#160;</text><polygon fill="#181818" points="1232.1,258.2543,1241.1,261.8543,1232.1,265.4543,1235.7,261.8543" style="stroke:#181818;stroke-width:0.9;"/><line style="stroke:#181818;stroke-width:0.9;" x1="530.1" x2="1237.5" y1="261.8543" y2="261.8543"/><text fill="#000000" font-family="sans-serif" font-size="11.7" font-weight="bold" lengthAdjust="spacing" textLength="6.3" x="536.4" y="257.1179">8</text><text fill="#000000" font-family="sans-serif" font-size="11.7" lengthAdjust="spacing" textLength="233.1" x="546.3" y="257.1179">get floors in which the passageway connects</text><polygon fill="#181818" points="1367.1,286.4162,1376.1,290.0162,1367.1,293.6162,1370.7,290.0162" style="stroke:#181818;stroke-width:0.9;"/><line style="stroke:#181818;stroke-width:0.9;" x1="1251.9" x2="1372.5" y1="290.0162" y2="290.0162"/><text fill="#000000" font-family="sans-serif" font-size="11.7" font-weight="bold" lengthAdjust="spacing" textLength="6.3" x="1258.2" y="285.2798">9</text><text fill="#000000" font-family="sans-serif" font-size="11.7" lengthAdjust="spacing" textLength="99" x="1268.1" y="285.2798">find(passagewayId)</text><polygon fill="#181818" points="1261.8,314.5781,1252.8,318.1781,1261.8,321.7781,1258.2,318.1781" style="stroke:#181818;stroke-width:0.9;"/><line style="stroke:#181818;stroke-width:0.9;stroke-dasharray:2.0,2.0;" x1="1256.4" x2="1381.5" y1="318.1781" y2="318.1781"/><text fill="#000000" font-family="sans-serif" font-size="11.7" font-weight="bold" lengthAdjust="spacing" textLength="12.6" x="1267.2" y="313.4417">10</text><text fill="#000000" font-family="sans-serif" font-size="11.7" lengthAdjust="spacing" textLength="3.6" x="1283.4" y="313.4417">&#160;</text><polygon fill="#181818" points="540,342.74,531,346.34,540,349.94,536.4,346.34" style="stroke:#181818;stroke-width:0.9;"/><line style="stroke:#181818;stroke-width:0.9;stroke-dasharray:2.0,2.0;" x1="534.6" x2="1246.5" y1="346.34" y2="346.34"/><text fill="#000000" font-family="sans-serif" font-size="11.7" font-weight="bold" lengthAdjust="spacing" textLength="12.6" x="545.4" y="341.6036">11</text><text fill="#000000" font-family="sans-serif" font-size="11.7" lengthAdjust="spacing" textLength="3.6" x="561.6" y="341.6036">&#160;</text><polygon fill="#181818" points="967.95,370.902,976.95,374.502,967.95,378.102,971.55,374.502" style="stroke:#181818;stroke-width:0.9;"/><line style="stroke:#181818;stroke-width:0.9;" x1="530.1" x2="973.35" y1="374.502" y2="374.502"/><text fill="#000000" font-family="sans-serif" font-size="11.7" font-weight="bold" lengthAdjust="spacing" textLength="12.6" x="536.4" y="369.7655">12</text><text fill="#000000" font-family="sans-serif" font-size="11.7" lengthAdjust="spacing" textLength="166.5" x="552.6" y="369.7655">toDtoList(floor, floorsConnected)</text><polygon fill="#181818" points="1102.95,399.0639,1111.95,402.6639,1102.95,406.2639,1106.55,402.6639" style="stroke:#181818;stroke-width:0.9;"/><line style="stroke:#181818;stroke-width:0.9;" x1="983.25" x2="1108.35" y1="402.6639" y2="402.6639"/><text fill="#000000" font-family="sans-serif" font-size="11.7" font-weight="bold" lengthAdjust="spacing" textLength="12.6" x="989.55" y="397.9274">13</text><text fill="#000000" font-family="sans-serif" font-size="11.7" lengthAdjust="spacing" textLength="32.4" x="1005.75" y="397.9274">create</text><polygon fill="#181818" points="309.6,427.2258,300.6,430.8258,309.6,434.4258,306,430.8258" style="stroke:#181818;stroke-width:0.9;"/><line style="stroke:#181818;stroke-width:0.9;stroke-dasharray:2.0,2.0;" x1="304.2" x2="524.7" y1="430.8258" y2="430.8258"/><text fill="#000000" font-family="sans-serif" font-size="11.7" font-weight="bold" lengthAdjust="spacing" textLength="12.6" x="315" y="426.0894">14</text><text fill="#000000" font-family="sans-serif" font-size="11.7" lengthAdjust="spacing" textLength="46.8" x="331.2" y="426.0894">floors list</text><polygon fill="#181818" points="76.5,455.3877,67.5,458.9877,76.5,462.5877,72.9,458.9877" style="stroke:#181818;stroke-width:0.9;"/><line style="stroke:#181818;stroke-width:0.9;stroke-dasharray:2.0,2.0;" x1="71.1" x2="294.3" y1="458.9877" y2="458.9877"/><text fill="#000000" font-family="sans-serif" font-size="11.7" font-weight="bold" lengthAdjust="spacing" textLength="12.6" x="81.9" y="454.2513">15</text><text fill="#000000" font-family="sans-serif" font-size="11.7" lengthAdjust="spacing" textLength="46.8" x="98.1" y="454.2513">floors list</text><polygon fill="#181818" points="9.9,483.5496,0.9,487.1496,9.9,490.7496,6.3,487.1496" style="stroke:#181818;stroke-width:0.9;"/><line style="stroke:#181818;stroke-width:0.9;stroke-dasharray:2.0,2.0;" x1="4.5" x2="56.7" y1="487.1496" y2="487.1496"/><text fill="#000000" font-family="sans-serif" font-size="11.7" font-weight="bold" lengthAdjust="spacing" textLength="12.6" x="15.3" y="482.4132">16</text><text fill="#000000" font-family="sans-serif" font-size="11.7" lengthAdjust="spacing" textLength="3.6" x="31.5" y="482.4132">&#160;</text><!--SRC=[ZLFHRi8W57tdAsvySedzWMPnYRej9bjSr1z0UhKa5JgWElz-G6bBkpRPIxdGSo_dd7kXbP6YkfvG4L9IPJZZ9HK6PkbR8QNQoyhW3AW67mqW7rmR3zDVL6jwmJjzwBKKHicYGENpkkr_aW-eRfpLDuPuaBQgU95nSTbZAMjYDfZ075YEL-fH_QCngP-qz4Yx3dvlMweHqyrnv-5s7NUkuTVkHc4HnK2Da1UPBBtTARo_7WbbXj-emT02uXT8bf6rAHHZRiuLVYz0eLw0m1_pr9MAkaAws1KDhazLF0KVrpB3g5xJAn82LybfJk7CHRPwhAAqgHhU8_TnoVr-rMLsOZ9tq5vVvJb9XkSPJcKql5sI9n91w-QHdhYsgobSqC3P6mLSm3tdB0UJ8vIjRS2a4CYCxWXtKz56tlr8xhmhiCrYhsl6NPxZ_5VWYB3kqWWNpMTFeNq7gP4R8ztqpxt0HT2vhkLWpCez6s8_BjM-YHIOGdiUt-GXxGs30GuEkgdhgMW6AvvIDrpr-vZ8YiRRwgwnLjql]--></g></svg>