<?xml version="1.0" encoding="us-ascii" standalone="no"?><svg xmlns="http://www.w3.org/2000/svg" xmlns:xlink="http://www.w3.org/1999/xlink" contentStyleType="text/css" height="393px" preserveAspectRatio="none" style="width:692px;height:393px;background:#FFFFFF;" version="1.1" viewBox="0 0 692 393" width="692px" zoomAndPan="magnify"><defs/><g><rect fill="#FFFFFF" height="28.5234" style="stroke:#181818;stroke-width:1.0;" width="10" x="399" y="111.1641"/><rect fill="#FFFFFF" height="127.0938" style="stroke:#181818;stroke-width:1.0;" width="10" x="399" y="168.2109"/><rect fill="#FFFFFF" height="70.0469" style="stroke:#181818;stroke-width:1.0;" width="10" x="523.5" y="196.7344"/><line style="stroke:#181818;stroke-width:0.5;stroke-dasharray:5.0,5.0;" x1="64" x2="64" y1="80.6406" y2="313.3047"/><line style="stroke:#181818;stroke-width:0.5;stroke-dasharray:5.0,5.0;" x1="404" x2="404" y1="80.6406" y2="313.3047"/><line style="stroke:#181818;stroke-width:0.5;stroke-dasharray:5.0,5.0;" x1="528" x2="528" y1="80.6406" y2="313.3047"/><text fill="#000000" font-family="sans-serif" font-size="14" lengthAdjust="spacing" textLength="112" x="5" y="77.6738">Campus Manager</text><ellipse cx="64" cy="13.5" fill="#E2E2F0" rx="8" ry="8" style="stroke:#181818;stroke-width:0.5;"/><path d="M64,21.5 L64,48.5 M51,29.5 L77,29.5 M64,48.5 L51,63.5 M64,48.5 L77,63.5 " fill="none" style="stroke:#181818;stroke-width:0.5;"/><text fill="#000000" font-family="sans-serif" font-size="14" lengthAdjust="spacing" textLength="112" x="5" y="324.9785">Campus Manager</text><ellipse cx="64" cy="336.4453" fill="#E2E2F0" rx="8" ry="8" style="stroke:#181818;stroke-width:0.5;"/><path d="M64,344.4453 L64,371.4453 M51,352.4453 L77,352.4453 M64,371.4453 L51,386.4453 M64,371.4453 L77,386.4453 " fill="none" style="stroke:#181818;stroke-width:0.5;"/><rect fill="#E2E2F0" height="29.6406" rx="2.5" ry="2.5" style="stroke:#181818;stroke-width:0.5;" width="92" x="358" y="50"/><text fill="#000000" font-family="sans-serif" font-size="14" lengthAdjust="spacing" textLength="78" x="365" y="69.6738">Visualiza&#231;&#227;o</text><rect fill="#E2E2F0" height="29.6406" rx="2.5" ry="2.5" style="stroke:#181818;stroke-width:0.5;" width="92" x="358" y="312.3047"/><text fill="#000000" font-family="sans-serif" font-size="14" lengthAdjust="spacing" textLength="78" x="365" y="331.9785">Visualiza&#231;&#227;o</text><rect fill="#E2E2F0" height="29.6406" rx="2.5" ry="2.5" style="stroke:#181818;stroke-width:0.5;" width="137" x="460" y="50"/><text fill="#000000" font-family="sans-serif" font-size="14" lengthAdjust="spacing" textLength="123" x="467" y="69.6738">MasterDataBuilding</text><rect fill="#E2E2F0" height="29.6406" rx="2.5" ry="2.5" style="stroke:#181818;stroke-width:0.5;" width="137" x="460" y="312.3047"/><text fill="#000000" font-family="sans-serif" font-size="14" lengthAdjust="spacing" textLength="123" x="467" y="331.9785">MasterDataBuilding</text><rect fill="#FFFFFF" height="28.5234" style="stroke:#181818;stroke-width:1.0;" width="10" x="399" y="111.1641"/><rect fill="#FFFFFF" height="127.0938" style="stroke:#181818;stroke-width:1.0;" width="10" x="399" y="168.2109"/><rect fill="#FFFFFF" height="70.0469" style="stroke:#181818;stroke-width:1.0;" width="10" x="523.5" y="196.7344"/><polygon fill="#181818" points="387,107.1641,397,111.1641,387,115.1641,391,111.1641" style="stroke:#181818;stroke-width:1.0;"/><line style="stroke:#181818;stroke-width:1.0;" x1="64" x2="393" y1="111.1641" y2="111.1641"/><text fill="#000000" font-family="sans-serif" font-size="13" font-weight="bold" lengthAdjust="spacing" textLength="7" x="71" y="106.4092">1</text><text fill="#000000" font-family="sans-serif" font-size="13" lengthAdjust="spacing" textLength="305" x="82" y="106.4092">Starts the process to create an elevator in a building.</text><polygon fill="#181818" points="75,135.6875,65,139.6875,75,143.6875,71,139.6875" style="stroke:#181818;stroke-width:1.0;"/><line style="stroke:#181818;stroke-width:1.0;stroke-dasharray:2.0,2.0;" x1="69" x2="403" y1="139.6875" y2="139.6875"/><text fill="#000000" font-family="sans-serif" font-size="13" font-weight="bold" lengthAdjust="spacing" textLength="7" x="81" y="134.9326">2</text><text fill="#000000" font-family="sans-serif" font-size="13" lengthAdjust="spacing" textLength="77" x="92" y="134.9326">Request data</text><polygon fill="#181818" points="387,164.2109,397,168.2109,387,172.2109,391,168.2109" style="stroke:#181818;stroke-width:1.0;"/><line style="stroke:#181818;stroke-width:1.0;" x1="64" x2="393" y1="168.2109" y2="168.2109"/><text fill="#000000" font-family="sans-serif" font-size="13" font-weight="bold" lengthAdjust="spacing" textLength="7" x="71" y="163.4561">3</text><text fill="#000000" font-family="sans-serif" font-size="13" lengthAdjust="spacing" textLength="86" x="82" y="163.4561">Types the data</text><polygon fill="#181818" points="511.5,192.7344,521.5,196.7344,511.5,200.7344,515.5,196.7344" style="stroke:#181818;stroke-width:1.0;"/><line style="stroke:#181818;stroke-width:1.0;" x1="409" x2="517.5" y1="196.7344" y2="196.7344"/><text fill="#000000" font-family="sans-serif" font-size="13" font-weight="bold" lengthAdjust="spacing" textLength="7" x="416" y="191.9795">4</text><text fill="#000000" font-family="sans-serif" font-size="13" lengthAdjust="spacing" textLength="83" x="427" y="191.9795">POST elevator</text><line style="stroke:#181818;stroke-width:1.0;" x1="533.5" x2="575.5" y1="225.2578" y2="225.2578"/><line style="stroke:#181818;stroke-width:1.0;" x1="575.5" x2="575.5" y1="225.2578" y2="238.2578"/><line style="stroke:#181818;stroke-width:1.0;" x1="534.5" x2="575.5" y1="238.2578" y2="238.2578"/><polygon fill="#181818" points="544.5,234.2578,534.5,238.2578,544.5,242.2578,540.5,238.2578" style="stroke:#181818;stroke-width:1.0;"/><text fill="#000000" font-family="sans-serif" font-size="13" font-weight="bold" lengthAdjust="spacing" textLength="7" x="540.5" y="220.5029">5</text><text fill="#000000" font-family="sans-serif" font-size="13" lengthAdjust="spacing" textLength="134" x="551.5" y="220.5029">createElevator(elevator)</text><polygon fill="#181818" points="420,262.7813,410,266.7813,420,270.7813,416,266.7813" style="stroke:#181818;stroke-width:1.0;"/><line style="stroke:#181818;stroke-width:1.0;stroke-dasharray:2.0,2.0;" x1="414" x2="527.5" y1="266.7813" y2="266.7813"/><text fill="#000000" font-family="sans-serif" font-size="13" font-weight="bold" lengthAdjust="spacing" textLength="7" x="426" y="262.0264">6</text><text fill="#000000" font-family="sans-serif" font-size="13" lengthAdjust="spacing" textLength="44" x="437" y="262.0264">elevator</text><polygon fill="#181818" points="75,291.3047,65,295.3047,75,299.3047,71,295.3047" style="stroke:#181818;stroke-width:1.0;"/><line style="stroke:#181818;stroke-width:1.0;stroke-dasharray:2.0,2.0;" x1="69" x2="403" y1="295.3047" y2="295.3047"/><text fill="#000000" font-family="sans-serif" font-size="13" font-weight="bold" lengthAdjust="spacing" textLength="7" x="81" y="290.5498">7</text><text fill="#000000" font-family="sans-serif" font-size="13" lengthAdjust="spacing" textLength="152" x="92" y="290.5498">Informs operation success</text><!--SRC=[VP11JiCm44NtFiKeArY40qIe2mAgih10j68_TOPYAR6DFQu4rs71GNenx2OjD11s7ld_cVS_HhOczXlo0XLR3qMDlOi191hSaYy00zHIEFIibNPe69vqYDZfTzn_xZ_isLSXCJ3vMsIyYRfhjTaUDYmR8Me9vM9Yhc35oHw0NmYSjuf2UbjGdf09q01rjCCCfWqWRCQbLvbMxx9cGdC-GfbErhA2HtgD51ZQH2PQcdFFGAxV70sC1_-iUtfyaO9Ny72_MfzoV9jp9ylcA1eItusgYwFySj3ymNHQ-2FDMFDrMVwID-RP-Zw0TUIHjJKGeifr_zV65m00]--></g></svg>