<?xml version="1.0" encoding="UTF-8" standalone="no"?><svg xmlns="http://www.w3.org/2000/svg" xmlns:xlink="http://www.w3.org/1999/xlink" contentStyleType="text/css" height="109px" preserveAspectRatio="none" style="width:361px;height:109px;background:#FFFFFF;" version="1.1" viewBox="0 0 361 109" width="361px" zoomAndPan="magnify"><defs/><g><!--MD5=[1478444cbd0d707d5292787239839939]
cluster RobDroneGo--><g id="cluster_RobDroneGo"><path d="M131.5,6 L223.5,6 A3.75,3.75 0 0 1 226,8.5 L233,29.6094 L351.5,29.6094 A2.5,2.5 0 0 1 354,32.1094 L354,99.5 A2.5,2.5 0 0 1 351.5,102 L131.5,102 A2.5,2.5 0 0 1 129,99.5 L129,8.5 A2.5,2.5 0 0 1 131.5,6 " fill="none" style="stroke:#000000;stroke-width:1.5;"/><line style="stroke:#000000;stroke-width:1.5;" x1="129" x2="233" y1="29.6094" y2="29.6094"/><text fill="#000000" font-family="sans-serif" font-size="14" font-weight="bold" lengthAdjust="spacing" textLength="91" x="133" y="22.5332">RobDroneGo</text></g><g id="elem_UC2"><ellipse cx="241.511" cy="64.2022" fill="#F1F1F1" rx="96.511" ry="21.7022" style="stroke:#181818;stroke-width:0.5;"/><text fill="#000000" font-family="sans-serif" font-size="14" lengthAdjust="spacing" textLength="153" x="165.011" y="67.9307">Authenticate all services</text></g><!--MD5=[99f3cfe8ce18ee9cb444babb539f6fb5]
entity CM--><g id="elem_CM"><ellipse cx="45.5" cy="41" fill="#F1F1F1" rx="16" ry="16" style="stroke:#181818;stroke-width:1.5;"/><path d="M45.5,61 C49.5,61 52.5,61 56.5,57 C64.5,57 72.5,65 72.5,73 L72.5,77 C72.5,81 68.5,85 64.5,85 L26.5,85 C22.5,85 18.5,81 18.5,77 L18.5,73 C18.5,65 26.5,57 34.5,57 C38.5,61 41.5,61 45.5,61 " fill="#F1F1F1" style="stroke:#181818;stroke-width:1.5;"/><text fill="#000000" font-family="sans-serif" font-size="14" lengthAdjust="spacing" textLength="79" x="6" y="101.0332">System User</text></g><!--MD5=[5725362fb9128b29e7275e925cbddfee]
link CM to UC2--><g id="link_CM_UC2"><path d="M85.29,64 C101.06,64 120.08,64 139.33,64 " fill="none" id="CM-to-UC2" style="stroke:#181818;stroke-width:1.0;"/><polygon fill="#181818" points="144.76,64,135.76,60,139.76,64,135.76,68,144.76,64" style="stroke:#181818;stroke-width:1.0;"/></g><!--MD5=[17c9c97f037e9c353bd21dc6513c6b4e]
@startuml scenaryLevel1
left to right direction

skinparam actorStyle awesome

actor "System User" as CM

package  RobDroneGo  {
  usecase "Authenticate all services" as UC2
}
CM - -> UC2
@enduml

PlantUML version 1.2022.7(Mon Aug 22 18:01:30 WEST 2022)
(GPL source distribution)
Java Runtime: Java(TM) SE Runtime Environment
JVM: Java HotSpot(TM) 64-Bit Server VM
Default Encoding: UTF-8
Language: en
Country: US
--></g></svg>