<?xml version="1.0" encoding="UTF-8" standalone="no"?><svg xmlns="http://www.w3.org/2000/svg" xmlns:xlink="http://www.w3.org/1999/xlink" contentStyleType="text/css" height="684px" preserveAspectRatio="none" style="width:938px;height:684px;background:#FFFFFF;" version="1.1" viewBox="0 0 938 684" width="938px" zoomAndPan="magnify"><defs/><g><rect fill="#FFFFFF" height="485.625" style="stroke:#181818;stroke-width:1.0;" width="10" x="61" y="100.9609"/><rect fill="#FFFFFF" height="485.625" style="stroke:#181818;stroke-width:1.0;" width="10" x="207" y="100.9609"/><rect fill="#FFFFFF" height="424.9219" style="stroke:#181818;stroke-width:1.0;" width="10" x="359.5" y="131.3125"/><rect fill="#FFFFFF" height="364.2188" style="stroke:#181818;stroke-width:1.0;" width="10" x="482.5" y="161.6641"/><rect fill="#FFFFFF" height="242.8125" style="stroke:#181818;stroke-width:1.0;" width="10" x="570" y="192.0156"/><rect fill="#FFFFFF" height="91.0547" style="stroke:#181818;stroke-width:1.0;" width="10" x="655" y="465.1797"/><rect fill="#FFFFFF" height="121.4063" style="stroke:#181818;stroke-width:1.0;" width="10" x="757" y="283.0703"/><line style="stroke:#181818;stroke-width:0.5;stroke-dasharray:5.0,5.0;" x1="66" x2="66" y1="68.6094" y2="604.5859"/><line style="stroke:#181818;stroke-width:0.5;stroke-dasharray:5.0,5.0;" x1="212" x2="212" y1="68.6094" y2="604.5859"/><line style="stroke:#181818;stroke-width:0.5;stroke-dasharray:5.0,5.0;" x1="364" x2="364" y1="68.6094" y2="604.5859"/><line style="stroke:#181818;stroke-width:0.5;stroke-dasharray:5.0,5.0;" x1="487" x2="487" y1="68.6094" y2="604.5859"/><line style="stroke:#181818;stroke-width:0.5;stroke-dasharray:5.0,5.0;" x1="575" x2="575" y1="68.6094" y2="604.5859"/><line style="stroke:#181818;stroke-width:0.5;stroke-dasharray:5.0,5.0;" x1="660" x2="660" y1="68.6094" y2="604.5859"/><line style="stroke:#181818;stroke-width:0.5;stroke-dasharray:5.0,5.0;" x1="762" x2="762" y1="68.6094" y2="604.5859"/><line style="stroke:#181818;stroke-width:0.5;stroke-dasharray:5.0,5.0;" x1="879" x2="879" y1="68.6094" y2="604.5859"/><rect fill="#E2E2F0" height="31.6094" rx="2.5" ry="2.5" style="stroke:#181818;stroke-width:0.5;" width="122" x="5" y="36"/><text fill="#000000" font-family="sans-serif" font-size="14" lengthAdjust="spacing" textLength="108" x="12" y="57.5332">EditBuildintRoute</text><rect fill="#E2E2F0" height="31.6094" rx="2.5" ry="2.5" style="stroke:#181818;stroke-width:0.5;" width="122" x="5" y="603.5859"/><text fill="#000000" font-family="sans-serif" font-size="14" lengthAdjust="spacing" textLength="108" x="12" y="625.1191">EditBuildintRoute</text><rect fill="#E2E2F0" height="31.6094" rx="2.5" ry="2.5" style="stroke:#181818;stroke-width:0.5;" width="150" x="137" y="36"/><text fill="#000000" font-family="sans-serif" font-size="14" lengthAdjust="spacing" textLength="136" x="144" y="57.5332">EditBuildingController</text><rect fill="#E2E2F0" height="31.6094" rx="2.5" ry="2.5" style="stroke:#181818;stroke-width:0.5;" width="150" x="137" y="603.5859"/><text fill="#000000" font-family="sans-serif" font-size="14" lengthAdjust="spacing" textLength="136" x="144" y="625.1191">EditBuildingController</text><rect fill="#E2E2F0" height="31.6094" rx="2.5" ry="2.5" style="stroke:#181818;stroke-width:0.5;" width="135" x="297" y="36"/><text fill="#000000" font-family="sans-serif" font-size="14" lengthAdjust="spacing" textLength="121" x="304" y="57.5332">EditBuildingService</text><rect fill="#E2E2F0" height="31.6094" rx="2.5" ry="2.5" style="stroke:#181818;stroke-width:0.5;" width="135" x="297" y="603.5859"/><text fill="#000000" font-family="sans-serif" font-size="14" lengthAdjust="spacing" textLength="121" x="304" y="625.1191">EditBuildingService</text><rect fill="#E2E2F0" height="31.6094" rx="2.5" ry="2.5" style="stroke:#181818;stroke-width:0.5;" width="91" x="442" y="36"/><text fill="#000000" font-family="sans-serif" font-size="14" lengthAdjust="spacing" textLength="77" x="449" y="57.5332">BuildingMap</text><rect fill="#E2E2F0" height="31.6094" rx="2.5" ry="2.5" style="stroke:#181818;stroke-width:0.5;" width="91" x="442" y="603.5859"/><text fill="#000000" font-family="sans-serif" font-size="14" lengthAdjust="spacing" textLength="77" x="449" y="625.1191">BuildingMap</text><rect fill="#E2E2F0" height="31.6094" rx="2.5" ry="2.5" style="stroke:#181818;stroke-width:0.5;" width="64" x="543" y="36"/><text fill="#000000" font-family="sans-serif" font-size="14" lengthAdjust="spacing" textLength="50" x="550" y="57.5332">Building</text><rect fill="#E2E2F0" height="31.6094" rx="2.5" ry="2.5" style="stroke:#181818;stroke-width:0.5;" width="64" x="543" y="603.5859"/><text fill="#000000" font-family="sans-serif" font-size="14" lengthAdjust="spacing" textLength="50" x="550" y="625.1191">Building</text><rect fill="#E2E2F0" height="31.6094" rx="2.5" ry="2.5" style="stroke:#181818;stroke-width:0.5;" width="86" x="617" y="36"/><text fill="#000000" font-family="sans-serif" font-size="14" lengthAdjust="spacing" textLength="72" x="624" y="57.5332">BuildingDto</text><rect fill="#E2E2F0" height="31.6094" rx="2.5" ry="2.5" style="stroke:#181818;stroke-width:0.5;" width="86" x="617" y="603.5859"/><text fill="#000000" font-family="sans-serif" font-size="14" lengthAdjust="spacing" textLength="72" x="624" y="625.1191">BuildingDto</text><rect fill="#E2E2F0" height="31.6094" rx="2.5" ry="2.5" style="stroke:#181818;stroke-width:0.5;" width="98" x="713" y="36"/><text fill="#000000" font-family="sans-serif" font-size="14" lengthAdjust="spacing" textLength="84" x="720" y="57.5332">BuildingRepo</text><rect fill="#E2E2F0" height="31.6094" rx="2.5" ry="2.5" style="stroke:#181818;stroke-width:0.5;" width="98" x="713" y="603.5859"/><text fill="#000000" font-family="sans-serif" font-size="14" lengthAdjust="spacing" textLength="84" x="720" y="625.1191">BuildingRepo</text><text fill="#000000" font-family="sans-serif" font-size="14" lengthAdjust="spacing" textLength="110" x="821" y="65.5332">buildingDatabase</text><path d="M861,15 C861,5 879,5 879,5 C879,5 897,5 897,15 L897,41 C897,51 879,51 879,51 C879,51 861,51 861,41 L861,15 " fill="#E2E2F0" style="stroke:#181818;stroke-width:1.5;"/><path d="M861,15 C861,25 879,25 879,25 C879,25 897,25 897,15 " fill="none" style="stroke:#181818;stroke-width:1.5;"/><text fill="#000000" font-family="sans-serif" font-size="14" lengthAdjust="spacing" textLength="110" x="821" y="618.1191">buildingDatabase</text><path d="M861,631.1953 C861,621.1953 879,621.1953 879,621.1953 C879,621.1953 897,621.1953 897,631.1953 L897,657.1953 C897,667.1953 879,667.1953 879,667.1953 C879,667.1953 861,667.1953 861,657.1953 L861,631.1953 " fill="#E2E2F0" style="stroke:#181818;stroke-width:1.5;"/><path d="M861,631.1953 C861,641.1953 879,641.1953 879,641.1953 C879,641.1953 897,641.1953 897,631.1953 " fill="none" style="stroke:#181818;stroke-width:1.5;"/><rect fill="#FFFFFF" height="485.625" style="stroke:#181818;stroke-width:1.0;" width="10" x="61" y="100.9609"/><rect fill="#FFFFFF" height="485.625" style="stroke:#181818;stroke-width:1.0;" width="10" x="207" y="100.9609"/><rect fill="#FFFFFF" height="424.9219" style="stroke:#181818;stroke-width:1.0;" width="10" x="359.5" y="131.3125"/><rect fill="#FFFFFF" height="364.2188" style="stroke:#181818;stroke-width:1.0;" width="10" x="482.5" y="161.6641"/><rect fill="#FFFFFF" height="242.8125" style="stroke:#181818;stroke-width:1.0;" width="10" x="570" y="192.0156"/><rect fill="#FFFFFF" height="91.0547" style="stroke:#181818;stroke-width:1.0;" width="10" x="655" y="465.1797"/><rect fill="#FFFFFF" height="121.4063" style="stroke:#181818;stroke-width:1.0;" width="10" x="757" y="283.0703"/><polygon fill="#181818" points="195,96.9609,205,100.9609,195,104.9609,199,100.9609" style="stroke:#181818;stroke-width:1.0;"/><line style="stroke:#181818;stroke-width:1.0;" x1="71" x2="201" y1="100.9609" y2="100.9609"/><text fill="#000000" font-family="sans-serif" font-size="13" font-weight="bold" lengthAdjust="spacing" textLength="7" x="78" y="96.1045">1</text><text fill="#000000" font-family="sans-serif" font-size="13" lengthAdjust="spacing" textLength="67" x="89" y="96.1045">editBuilding</text><polygon fill="#181818" points="347.5,127.3125,357.5,131.3125,347.5,135.3125,351.5,131.3125" style="stroke:#181818;stroke-width:1.0;"/><line style="stroke:#181818;stroke-width:1.0;" x1="217" x2="353.5" y1="131.3125" y2="131.3125"/><text fill="#000000" font-family="sans-serif" font-size="13" font-weight="bold" lengthAdjust="spacing" textLength="7" x="224" y="126.4561">2</text><text fill="#000000" font-family="sans-serif" font-size="13" lengthAdjust="spacing" textLength="67" x="235" y="126.4561">editBuilding</text><polygon fill="#181818" points="470.5,157.6641,480.5,161.6641,470.5,165.6641,474.5,161.6641" style="stroke:#181818;stroke-width:1.0;"/><line style="stroke:#181818;stroke-width:1.0;" x1="369.5" x2="476.5" y1="161.6641" y2="161.6641"/><text fill="#000000" font-family="sans-serif" font-size="13" font-weight="bold" lengthAdjust="spacing" textLength="7" x="376.5" y="156.8076">3</text><text fill="#000000" font-family="sans-serif" font-size="13" lengthAdjust="spacing" textLength="55" x="387.5" y="156.8076">toDomain</text><polygon fill="#181818" points="558,188.0156,568,192.0156,558,196.0156,562,192.0156" style="stroke:#181818;stroke-width:1.0;"/><line style="stroke:#181818;stroke-width:1.0;" x1="492.5" x2="564" y1="192.0156" y2="192.0156"/><text fill="#000000" font-family="sans-serif" font-size="13" font-weight="bold" lengthAdjust="spacing" textLength="7" x="499.5" y="187.1592">4</text><text fill="#000000" font-family="sans-serif" font-size="13" lengthAdjust="spacing" textLength="36" x="510.5" y="187.1592">create</text><polygon fill="#181818" points="503.5,218.3672,493.5,222.3672,503.5,226.3672,499.5,222.3672" style="stroke:#181818;stroke-width:1.0;"/><line style="stroke:#181818;stroke-width:1.0;stroke-dasharray:2.0,2.0;" x1="497.5" x2="569" y1="222.3672" y2="222.3672"/><text fill="#000000" font-family="sans-serif" font-size="13" font-weight="bold" lengthAdjust="spacing" textLength="7" x="509.5" y="217.5107">5</text><text fill="#000000" font-family="sans-serif" font-size="13" lengthAdjust="spacing" textLength="4" x="520.5" y="217.5107"> </text><polygon fill="#181818" points="380.5,248.7188,370.5,252.7188,380.5,256.7188,376.5,252.7188" style="stroke:#181818;stroke-width:1.0;"/><line style="stroke:#181818;stroke-width:1.0;stroke-dasharray:2.0,2.0;" x1="374.5" x2="481.5" y1="252.7188" y2="252.7188"/><text fill="#000000" font-family="sans-serif" font-size="13" font-weight="bold" lengthAdjust="spacing" textLength="7" x="386.5" y="247.8623">6</text><text fill="#000000" font-family="sans-serif" font-size="13" lengthAdjust="spacing" textLength="4" x="397.5" y="247.8623"> </text><polygon fill="#181818" points="745,279.0703,755,283.0703,745,287.0703,749,283.0703" style="stroke:#181818;stroke-width:1.0;"/><line style="stroke:#181818;stroke-width:1.0;" x1="369.5" x2="751" y1="283.0703" y2="283.0703"/><text fill="#000000" font-family="sans-serif" font-size="13" font-weight="bold" lengthAdjust="spacing" textLength="7" x="376.5" y="278.2139">7</text><text fill="#000000" font-family="sans-serif" font-size="13" lengthAdjust="spacing" textLength="26" x="387.5" y="278.2139">save</text><polygon fill="#181818" points="503.5,309.4219,493.5,313.4219,503.5,317.4219,499.5,313.4219" style="stroke:#181818;stroke-width:1.0;"/><line style="stroke:#181818;stroke-width:1.0;" x1="497.5" x2="756" y1="313.4219" y2="313.4219"/><text fill="#000000" font-family="sans-serif" font-size="13" font-weight="bold" lengthAdjust="spacing" textLength="7" x="509.5" y="308.5654">8</text><text fill="#000000" font-family="sans-serif" font-size="13" lengthAdjust="spacing" textLength="80" x="520.5" y="308.5654">toPersistence</text><polygon fill="#181818" points="745,339.7734,755,343.7734,745,347.7734,749,343.7734" style="stroke:#181818;stroke-width:1.0;"/><line style="stroke:#181818;stroke-width:1.0;stroke-dasharray:2.0,2.0;" x1="492.5" x2="751" y1="343.7734" y2="343.7734"/><text fill="#000000" font-family="sans-serif" font-size="13" font-weight="bold" lengthAdjust="spacing" textLength="7" x="499.5" y="338.917">9</text><text fill="#000000" font-family="sans-serif" font-size="13" lengthAdjust="spacing" textLength="4" x="510.5" y="338.917"> </text><polygon fill="#181818" points="867,370.125,877,374.125,867,378.125,871,374.125" style="stroke:#181818;stroke-width:1.0;"/><line style="stroke:#181818;stroke-width:1.0;" x1="767" x2="873" y1="374.125" y2="374.125"/><text fill="#000000" font-family="sans-serif" font-size="13" font-weight="bold" lengthAdjust="spacing" textLength="14" x="774" y="369.2686">10</text><text fill="#000000" font-family="sans-serif" font-size="13" lengthAdjust="spacing" textLength="26" x="792" y="369.2686">save</text><polygon fill="#181818" points="380.5,400.4766,370.5,404.4766,380.5,408.4766,376.5,404.4766" style="stroke:#181818;stroke-width:1.0;"/><line style="stroke:#181818;stroke-width:1.0;stroke-dasharray:2.0,2.0;" x1="374.5" x2="761" y1="404.4766" y2="404.4766"/><text fill="#000000" font-family="sans-serif" font-size="13" font-weight="bold" lengthAdjust="spacing" textLength="14" x="386.5" y="399.6201">11</text><text fill="#000000" font-family="sans-serif" font-size="13" lengthAdjust="spacing" textLength="4" x="404.5" y="399.6201"> </text><polygon fill="#181818" points="470.5,430.8281,480.5,434.8281,470.5,438.8281,474.5,434.8281" style="stroke:#181818;stroke-width:1.0;"/><line style="stroke:#181818;stroke-width:1.0;" x1="369.5" x2="476.5" y1="434.8281" y2="434.8281"/><text fill="#000000" font-family="sans-serif" font-size="13" font-weight="bold" lengthAdjust="spacing" textLength="14" x="376.5" y="429.9717">12</text><text fill="#000000" font-family="sans-serif" font-size="13" lengthAdjust="spacing" textLength="31" x="394.5" y="429.9717">toDto</text><polygon fill="#181818" points="643,461.1797,653,465.1797,643,469.1797,647,465.1797" style="stroke:#181818;stroke-width:1.0;"/><line style="stroke:#181818;stroke-width:1.0;" x1="492.5" x2="649" y1="465.1797" y2="465.1797"/><text fill="#000000" font-family="sans-serif" font-size="13" font-weight="bold" lengthAdjust="spacing" textLength="14" x="499.5" y="460.3232">13</text><text fill="#000000" font-family="sans-serif" font-size="13" lengthAdjust="spacing" textLength="36" x="517.5" y="460.3232">create</text><polygon fill="#181818" points="503.5,491.5313,493.5,495.5313,503.5,499.5313,499.5,495.5313" style="stroke:#181818;stroke-width:1.0;"/><line style="stroke:#181818;stroke-width:1.0;stroke-dasharray:2.0,2.0;" x1="497.5" x2="654" y1="495.5313" y2="495.5313"/><text fill="#000000" font-family="sans-serif" font-size="13" font-weight="bold" lengthAdjust="spacing" textLength="14" x="509.5" y="490.6748">14</text><text fill="#000000" font-family="sans-serif" font-size="13" lengthAdjust="spacing" textLength="4" x="527.5" y="490.6748"> </text><polygon fill="#181818" points="380.5,521.8828,370.5,525.8828,380.5,529.8828,376.5,525.8828" style="stroke:#181818;stroke-width:1.0;"/><line style="stroke:#181818;stroke-width:1.0;stroke-dasharray:2.0,2.0;" x1="374.5" x2="486.5" y1="525.8828" y2="525.8828"/><text fill="#000000" font-family="sans-serif" font-size="13" font-weight="bold" lengthAdjust="spacing" textLength="14" x="386.5" y="521.0264">15</text><text fill="#000000" font-family="sans-serif" font-size="13" lengthAdjust="spacing" textLength="4" x="404.5" y="521.0264"> </text><polygon fill="#181818" points="228,552.2344,218,556.2344,228,560.2344,224,556.2344" style="stroke:#181818;stroke-width:1.0;"/><line style="stroke:#181818;stroke-width:1.0;stroke-dasharray:2.0,2.0;" x1="222" x2="363.5" y1="556.2344" y2="556.2344"/><text fill="#000000" font-family="sans-serif" font-size="13" font-weight="bold" lengthAdjust="spacing" textLength="14" x="234" y="551.3779">16</text><text fill="#000000" font-family="sans-serif" font-size="13" lengthAdjust="spacing" textLength="4" x="252" y="551.3779"> </text><polygon fill="#181818" points="77,582.5859,67,586.5859,77,590.5859,73,586.5859" style="stroke:#181818;stroke-width:1.0;"/><line style="stroke:#181818;stroke-width:1.0;stroke-dasharray:2.0,2.0;" x1="71" x2="211" y1="586.5859" y2="586.5859"/><text fill="#000000" font-family="sans-serif" font-size="13" font-weight="bold" lengthAdjust="spacing" textLength="14" x="83" y="581.7295">17</text><text fill="#000000" font-family="sans-serif" font-size="13" lengthAdjust="spacing" textLength="4" x="101" y="581.7295"> </text><!--MD5=[ab92979d1f293b60883b1073b27a16a6]
@startuml processLevel3
'https://plantuml.com/sequence-diagram

autonumber
participant EditBuildintRoute
participant EditBuildingController
participant EditBuildingService
participant BuildingMap
participant Building
participant BuildingDto
participant BuildingRepo
database buildingDatabase

EditBuildintRoute -> EditBuildingController : editBuilding
activate EditBuildintRoute
activate EditBuildingController

EditBuildingController -> EditBuildingService : editBuilding
activate EditBuildingService

EditBuildingService -> BuildingMap : toDomain
activate BuildingMap

BuildingMap -> Building : create
activate Building

Building - -> BuildingMap

BuildingMap - -> EditBuildingService

EditBuildingService -> BuildingRepo : save
activate BuildingRepo

BuildingRepo -> BuildingMap : toPersistence

BuildingMap - -> BuildingRepo

BuildingRepo -> buildingDatabase : save

BuildingRepo - -> EditBuildingService
deactivate BuildingRepo

EditBuildingService -> BuildingMap : toDto
deactivate Building

BuildingMap -> BuildingDto : create
activate BuildingDto

BuildingDto - -> BuildingMap

BuildingMap - -> EditBuildingService
deactivate BuildingMap

EditBuildingService - -> EditBuildingController
deactivate EditBuildingService
deactivate BuildingDto

EditBuildingController - -> EditBuildintRoute
deactivate EditBuildingController

deactivate EditBuildintRoute

@enduml

@startuml processLevel3

autonumber
participant EditBuildintRoute
participant EditBuildingController
participant EditBuildingService
participant BuildingMap
participant Building
participant BuildingDto
participant BuildingRepo
database buildingDatabase

EditBuildintRoute -> EditBuildingController : editBuilding
activate EditBuildintRoute
activate EditBuildingController

EditBuildingController -> EditBuildingService : editBuilding
activate EditBuildingService

EditBuildingService -> BuildingMap : toDomain
activate BuildingMap

BuildingMap -> Building : create
activate Building

Building - -> BuildingMap

BuildingMap - -> EditBuildingService

EditBuildingService -> BuildingRepo : save
activate BuildingRepo

BuildingRepo -> BuildingMap : toPersistence

BuildingMap - -> BuildingRepo

BuildingRepo -> buildingDatabase : save

BuildingRepo - -> EditBuildingService
deactivate BuildingRepo

EditBuildingService -> BuildingMap : toDto
deactivate Building

BuildingMap -> BuildingDto : create
activate BuildingDto

BuildingDto - -> BuildingMap

BuildingMap - -> EditBuildingService
deactivate BuildingMap

EditBuildingService - -> EditBuildingController
deactivate EditBuildingService
deactivate BuildingDto

EditBuildingController - -> EditBuildintRoute
deactivate EditBuildingController

deactivate EditBuildintRoute

@enduml

PlantUML version 1.2022.7(Mon Aug 22 18:01:30 WEST 2022)
(GPL source distribution)
Java Runtime: Java(TM) SE Runtime Environment
JVM: Java HotSpot(TM) 64-Bit Server VM
Default Encoding: UTF-8
Language: en
Country: US
--></g></svg>