<?xml version="1.0" encoding="us-ascii" standalone="no"?><svg xmlns="http://www.w3.org/2000/svg" xmlns:xlink="http://www.w3.org/1999/xlink" contentStyleType="text/css" height="494px" preserveAspectRatio="none" style="width:313px;height:494px;background:#FFFFFF;" version="1.1" viewBox="0 0 313 494" width="313px" zoomAndPan="magnify"><defs/><g><!--class ListBuildingUI--><g id="elem_ListBuildingUI"><rect codeLine="4" fill="#F1F1F1" height="48" id="ListBuildingUI" rx="2.5" ry="2.5" style="stroke:#181818;stroke-width:0.5;" width="116" x="32" y="7"/><ellipse cx="47" cy="23" fill="#ADD1B2" rx="11" ry="11" style="stroke:#181818;stroke-width:1.0;"/><path d="M49.7656,18.875 Q49.9219,18.6563 50.1094,18.5469 Q50.2969,18.4375 50.5156,18.4375 Q50.8906,18.4375 51.125,18.7031 Q51.3594,18.9531 51.3594,19.5625 L51.3594,21.0156 Q51.3594,21.625 51.125,21.8906 Q50.8906,22.1563 50.5156,22.1563 Q50.1719,22.1563 49.9688,21.9531 Q49.7656,21.7656 49.6563,21.25 Q49.6094,20.8906 49.4219,20.7031 Q49.0938,20.3281 48.4844,20.1094 Q47.875,19.8906 47.25,19.8906 Q46.4844,19.8906 45.8438,20.2188 Q45.2188,20.5469 44.7188,21.2969 Q44.2344,22.0469 44.2344,23.0781 L44.2344,24.1719 Q44.2344,25.4063 45.125,26.2344 Q46.0156,27.0469 47.6094,27.0469 Q48.5469,27.0469 49.2031,26.7969 Q49.5938,26.6406 50.0156,26.2031 Q50.2813,25.9375 50.4219,25.8594 Q50.5781,25.7813 50.7813,25.7813 Q51.1094,25.7813 51.3594,26.0469 Q51.625,26.2969 51.625,26.6406 Q51.625,26.9844 51.2813,27.3906 Q50.7813,27.9688 49.9844,28.2969 Q48.9063,28.75 47.6094,28.75 Q46.0938,28.75 44.8906,28.125 Q43.9063,27.625 43.2188,26.5625 Q42.5313,25.4844 42.5313,24.2031 L42.5313,23.0469 Q42.5313,21.7188 43.1406,20.5781 Q43.7656,19.4219 44.8594,18.8125 Q45.9531,18.1875 47.1875,18.1875 Q47.9219,18.1875 48.5625,18.3594 Q49.2188,18.5156 49.7656,18.875 Z " fill="#000000"/><text fill="#000000" font-family="sans-serif" font-size="14" lengthAdjust="spacing" textLength="84" x="61" y="27.8535">ListBuildingUI</text><line style="stroke:#181818;stroke-width:0.5;" x1="33" x2="147" y1="39" y2="39"/><line style="stroke:#181818;stroke-width:0.5;" x1="33" x2="147" y1="47" y2="47"/></g><!--class ListBuildingController--><g id="elem_ListBuildingController"><rect codeLine="5" fill="#F1F1F1" height="48" id="ListBuildingController" rx="2.5" ry="2.5" style="stroke:#181818;stroke-width:0.5;" width="166" x="7" y="115"/><ellipse cx="22" cy="131" fill="#ADD1B2" rx="11" ry="11" style="stroke:#181818;stroke-width:1.0;"/><path d="M24.7656,126.875 Q24.9219,126.6563 25.1094,126.5469 Q25.2969,126.4375 25.5156,126.4375 Q25.8906,126.4375 26.125,126.7031 Q26.3594,126.9531 26.3594,127.5625 L26.3594,129.0156 Q26.3594,129.625 26.125,129.8906 Q25.8906,130.1563 25.5156,130.1563 Q25.1719,130.1563 24.9688,129.9531 Q24.7656,129.7656 24.6563,129.25 Q24.6094,128.8906 24.4219,128.7031 Q24.0938,128.3281 23.4844,128.1094 Q22.875,127.8906 22.25,127.8906 Q21.4844,127.8906 20.8438,128.2188 Q20.2188,128.5469 19.7188,129.2969 Q19.2344,130.0469 19.2344,131.0781 L19.2344,132.1719 Q19.2344,133.4063 20.125,134.2344 Q21.0156,135.0469 22.6094,135.0469 Q23.5469,135.0469 24.2031,134.7969 Q24.5938,134.6406 25.0156,134.2031 Q25.2813,133.9375 25.4219,133.8594 Q25.5781,133.7813 25.7813,133.7813 Q26.1094,133.7813 26.3594,134.0469 Q26.625,134.2969 26.625,134.6406 Q26.625,134.9844 26.2813,135.3906 Q25.7813,135.9688 24.9844,136.2969 Q23.9063,136.75 22.6094,136.75 Q21.0938,136.75 19.8906,136.125 Q18.9063,135.625 18.2188,134.5625 Q17.5313,133.4844 17.5313,132.2031 L17.5313,131.0469 Q17.5313,129.7188 18.1406,128.5781 Q18.7656,127.4219 19.8594,126.8125 Q20.9531,126.1875 22.1875,126.1875 Q22.9219,126.1875 23.5625,126.3594 Q24.2188,126.5156 24.7656,126.875 Z " fill="#000000"/><text fill="#000000" font-family="sans-serif" font-size="14" lengthAdjust="spacing" textLength="134" x="36" y="135.8535">ListBuildingController</text><line style="stroke:#181818;stroke-width:0.5;" x1="8" x2="172" y1="147" y2="147"/><line style="stroke:#181818;stroke-width:0.5;" x1="8" x2="172" y1="155" y2="155"/></g><!--class BuildingService--><g id="elem_BuildingService"><rect codeLine="6" fill="#F1F1F1" height="48" id="BuildingService" rx="2.5" ry="2.5" style="stroke:#181818;stroke-width:0.5;" width="129" x="25.5" y="223"/><ellipse cx="40.5" cy="239" fill="#ADD1B2" rx="11" ry="11" style="stroke:#181818;stroke-width:1.0;"/><path d="M43.2656,234.875 Q43.4219,234.6563 43.6094,234.5469 Q43.7969,234.4375 44.0156,234.4375 Q44.3906,234.4375 44.625,234.7031 Q44.8594,234.9531 44.8594,235.5625 L44.8594,237.0156 Q44.8594,237.625 44.625,237.8906 Q44.3906,238.1563 44.0156,238.1563 Q43.6719,238.1563 43.4688,237.9531 Q43.2656,237.7656 43.1563,237.25 Q43.1094,236.8906 42.9219,236.7031 Q42.5938,236.3281 41.9844,236.1094 Q41.375,235.8906 40.75,235.8906 Q39.9844,235.8906 39.3438,236.2188 Q38.7188,236.5469 38.2188,237.2969 Q37.7344,238.0469 37.7344,239.0781 L37.7344,240.1719 Q37.7344,241.4063 38.625,242.2344 Q39.5156,243.0469 41.1094,243.0469 Q42.0469,243.0469 42.7031,242.7969 Q43.0938,242.6406 43.5156,242.2031 Q43.7813,241.9375 43.9219,241.8594 Q44.0781,241.7813 44.2813,241.7813 Q44.6094,241.7813 44.8594,242.0469 Q45.125,242.2969 45.125,242.6406 Q45.125,242.9844 44.7813,243.3906 Q44.2813,243.9688 43.4844,244.2969 Q42.4063,244.75 41.1094,244.75 Q39.5938,244.75 38.3906,244.125 Q37.4063,243.625 36.7188,242.5625 Q36.0313,241.4844 36.0313,240.2031 L36.0313,239.0469 Q36.0313,237.7188 36.6406,236.5781 Q37.2656,235.4219 38.3594,234.8125 Q39.4531,234.1875 40.6875,234.1875 Q41.4219,234.1875 42.0625,234.3594 Q42.7188,234.5156 43.2656,234.875 Z " fill="#000000"/><text fill="#000000" font-family="sans-serif" font-size="14" lengthAdjust="spacing" textLength="97" x="54.5" y="243.8535">BuildingService</text><line style="stroke:#181818;stroke-width:0.5;" x1="26.5" x2="153.5" y1="255" y2="255"/><line style="stroke:#181818;stroke-width:0.5;" x1="26.5" x2="153.5" y1="263" y2="263"/></g><!--class BuildingRepo--><g id="elem_BuildingRepo"><rect codeLine="7" fill="#F1F1F1" height="48" id="BuildingRepo" rx="2.5" ry="2.5" style="stroke:#181818;stroke-width:0.5;" width="116" x="190" y="223"/><ellipse cx="205" cy="239" fill="#ADD1B2" rx="11" ry="11" style="stroke:#181818;stroke-width:1.0;"/><path d="M207.7656,234.875 Q207.9219,234.6563 208.1094,234.5469 Q208.2969,234.4375 208.5156,234.4375 Q208.8906,234.4375 209.125,234.7031 Q209.3594,234.9531 209.3594,235.5625 L209.3594,237.0156 Q209.3594,237.625 209.125,237.8906 Q208.8906,238.1563 208.5156,238.1563 Q208.1719,238.1563 207.9688,237.9531 Q207.7656,237.7656 207.6563,237.25 Q207.6094,236.8906 207.4219,236.7031 Q207.0938,236.3281 206.4844,236.1094 Q205.875,235.8906 205.25,235.8906 Q204.4844,235.8906 203.8438,236.2188 Q203.2188,236.5469 202.7188,237.2969 Q202.2344,238.0469 202.2344,239.0781 L202.2344,240.1719 Q202.2344,241.4063 203.125,242.2344 Q204.0156,243.0469 205.6094,243.0469 Q206.5469,243.0469 207.2031,242.7969 Q207.5938,242.6406 208.0156,242.2031 Q208.2813,241.9375 208.4219,241.8594 Q208.5781,241.7813 208.7813,241.7813 Q209.1094,241.7813 209.3594,242.0469 Q209.625,242.2969 209.625,242.6406 Q209.625,242.9844 209.2813,243.3906 Q208.7813,243.9688 207.9844,244.2969 Q206.9063,244.75 205.6094,244.75 Q204.0938,244.75 202.8906,244.125 Q201.9063,243.625 201.2188,242.5625 Q200.5313,241.4844 200.5313,240.2031 L200.5313,239.0469 Q200.5313,237.7188 201.1406,236.5781 Q201.7656,235.4219 202.8594,234.8125 Q203.9531,234.1875 205.1875,234.1875 Q205.9219,234.1875 206.5625,234.3594 Q207.2188,234.5156 207.7656,234.875 Z " fill="#000000"/><text fill="#000000" font-family="sans-serif" font-size="14" lengthAdjust="spacing" textLength="84" x="219" y="243.8535">BuildingRepo</text><line style="stroke:#181818;stroke-width:0.5;" x1="191" x2="305" y1="255" y2="255"/><line style="stroke:#181818;stroke-width:0.5;" x1="191" x2="305" y1="263" y2="263"/></g><!--class BuildingMap--><g id="elem_BuildingMap"><rect codeLine="8" fill="#F1F1F1" height="48" id="BuildingMap" rx="2.5" ry="2.5" style="stroke:#181818;stroke-width:0.5;" width="109" x="35.5" y="331"/><ellipse cx="50.5" cy="347" fill="#ADD1B2" rx="11" ry="11" style="stroke:#181818;stroke-width:1.0;"/><path d="M53.2656,342.875 Q53.4219,342.6563 53.6094,342.5469 Q53.7969,342.4375 54.0156,342.4375 Q54.3906,342.4375 54.625,342.7031 Q54.8594,342.9531 54.8594,343.5625 L54.8594,345.0156 Q54.8594,345.625 54.625,345.8906 Q54.3906,346.1563 54.0156,346.1563 Q53.6719,346.1563 53.4688,345.9531 Q53.2656,345.7656 53.1563,345.25 Q53.1094,344.8906 52.9219,344.7031 Q52.5938,344.3281 51.9844,344.1094 Q51.375,343.8906 50.75,343.8906 Q49.9844,343.8906 49.3438,344.2188 Q48.7188,344.5469 48.2188,345.2969 Q47.7344,346.0469 47.7344,347.0781 L47.7344,348.1719 Q47.7344,349.4063 48.625,350.2344 Q49.5156,351.0469 51.1094,351.0469 Q52.0469,351.0469 52.7031,350.7969 Q53.0938,350.6406 53.5156,350.2031 Q53.7813,349.9375 53.9219,349.8594 Q54.0781,349.7813 54.2813,349.7813 Q54.6094,349.7813 54.8594,350.0469 Q55.125,350.2969 55.125,350.6406 Q55.125,350.9844 54.7813,351.3906 Q54.2813,351.9688 53.4844,352.2969 Q52.4063,352.75 51.1094,352.75 Q49.5938,352.75 48.3906,352.125 Q47.4063,351.625 46.7188,350.5625 Q46.0313,349.4844 46.0313,348.2031 L46.0313,347.0469 Q46.0313,345.7188 46.6406,344.5781 Q47.2656,343.4219 48.3594,342.8125 Q49.4531,342.1875 50.6875,342.1875 Q51.4219,342.1875 52.0625,342.3594 Q52.7188,342.5156 53.2656,342.875 Z " fill="#000000"/><text fill="#000000" font-family="sans-serif" font-size="14" lengthAdjust="spacing" textLength="77" x="64.5" y="351.8535">BuildingMap</text><line style="stroke:#181818;stroke-width:0.5;" x1="36.5" x2="143.5" y1="363" y2="363"/><line style="stroke:#181818;stroke-width:0.5;" x1="36.5" x2="143.5" y1="371" y2="371"/></g><!--class BuildingDTO--><g id="elem_BuildingDTO"><rect codeLine="9" fill="#F1F1F1" height="48" id="BuildingDTO" rx="2.5" ry="2.5" style="stroke:#181818;stroke-width:0.5;" width="112" x="34" y="439"/><ellipse cx="49" cy="455" fill="#ADD1B2" rx="11" ry="11" style="stroke:#181818;stroke-width:1.0;"/><path d="M51.7656,450.875 Q51.9219,450.6563 52.1094,450.5469 Q52.2969,450.4375 52.5156,450.4375 Q52.8906,450.4375 53.125,450.7031 Q53.3594,450.9531 53.3594,451.5625 L53.3594,453.0156 Q53.3594,453.625 53.125,453.8906 Q52.8906,454.1563 52.5156,454.1563 Q52.1719,454.1563 51.9688,453.9531 Q51.7656,453.7656 51.6563,453.25 Q51.6094,452.8906 51.4219,452.7031 Q51.0938,452.3281 50.4844,452.1094 Q49.875,451.8906 49.25,451.8906 Q48.4844,451.8906 47.8438,452.2188 Q47.2188,452.5469 46.7188,453.2969 Q46.2344,454.0469 46.2344,455.0781 L46.2344,456.1719 Q46.2344,457.4063 47.125,458.2344 Q48.0156,459.0469 49.6094,459.0469 Q50.5469,459.0469 51.2031,458.7969 Q51.5938,458.6406 52.0156,458.2031 Q52.2813,457.9375 52.4219,457.8594 Q52.5781,457.7813 52.7813,457.7813 Q53.1094,457.7813 53.3594,458.0469 Q53.625,458.2969 53.625,458.6406 Q53.625,458.9844 53.2813,459.3906 Q52.7813,459.9688 51.9844,460.2969 Q50.9063,460.75 49.6094,460.75 Q48.0938,460.75 46.8906,460.125 Q45.9063,459.625 45.2188,458.5625 Q44.5313,457.4844 44.5313,456.2031 L44.5313,455.0469 Q44.5313,453.7188 45.1406,452.5781 Q45.7656,451.4219 46.8594,450.8125 Q47.9531,450.1875 49.1875,450.1875 Q49.9219,450.1875 50.5625,450.3594 Q51.2188,450.5156 51.7656,450.875 Z " fill="#000000"/><text fill="#000000" font-family="sans-serif" font-size="14" lengthAdjust="spacing" textLength="80" x="63" y="459.8535">BuildingDTO</text><line style="stroke:#181818;stroke-width:0.5;" x1="35" x2="145" y1="471" y2="471"/><line style="stroke:#181818;stroke-width:0.5;" x1="35" x2="145" y1="479" y2="479"/></g><!--link ListBuildingUI to ListBuildingController--><g id="link_ListBuildingUI_ListBuildingController"><path codeLine="11" d="M90,55.24 C90,55.24 90,109.84 90,109.84 " fill="none" id="ListBuildingUI-to-ListBuildingController" style="stroke:#181818;stroke-width:1.0;stroke-dasharray:7.0,7.0;"/><polygon fill="#181818" points="90,114.84,94,105.84,90,109.84,86,105.84,90,114.84" style="stroke:#181818;stroke-width:1.0;"/></g><!--link ListBuildingController to BuildingService--><g id="link_ListBuildingController_BuildingService"><path codeLine="12" d="M90,163.24 C90,163.24 90,217.84 90,217.84 " fill="none" id="ListBuildingController-to-BuildingService" style="stroke:#181818;stroke-width:1.0;"/><polygon fill="#181818" points="90,222.84,94,213.84,90,217.84,86,213.84,90,222.84" style="stroke:#181818;stroke-width:1.0;"/></g><!--link BuildingService to BuildingRepo--><g id="link_BuildingService_BuildingRepo"><path codeLine="13" d="M154.72,247 C154.72,247 184.97,247 184.97,247 " fill="none" id="BuildingService-to-BuildingRepo" style="stroke:#181818;stroke-width:1.0;"/><polygon fill="#181818" points="189.97,247,180.97,243,184.97,247,180.97,251,189.97,247" style="stroke:#181818;stroke-width:1.0;"/></g><!--link BuildingService to BuildingMap--><g id="link_BuildingService_BuildingMap"><path codeLine="14" d="M90,271.24 C90,271.24 90,325.84 90,325.84 " fill="none" id="BuildingService-to-BuildingMap" style="stroke:#181818;stroke-width:1.0;"/><polygon fill="#181818" points="90,330.84,94,321.84,90,325.84,86,321.84,90,330.84" style="stroke:#181818;stroke-width:1.0;"/></g><!--link BuildingMap to BuildingDTO--><g id="link_BuildingMap_BuildingDTO"><path codeLine="15" d="M90,379.24 C90,379.24 90,433.84 90,433.84 " fill="none" id="BuildingMap-to-BuildingDTO" style="stroke:#181818;stroke-width:1.0;"/><polygon fill="#181818" points="90,438.84,94,429.84,90,433.84,86,429.84,90,438.84" style="stroke:#181818;stroke-width:1.0;"/></g><!--SRC=[AyxEp2j8B4hCLSZ9p4ijgIn8LSWlAid8v-9ApaaiBbRmoImkSIhDp4d9p4iFzSGYw9oVLrAKdvEJMWILX4a4fnQLPIQdeea6fHRaemdv9XQWYRY4-7DneLcjeAUROeVBPkp22hefkdRepa7ZA-WMsQ4w3aC1q10KjoAnKIL1pWO0]--></g></svg>