<?xml version="1.0" encoding="us-ascii" standalone="no"?><svg xmlns="http://www.w3.org/2000/svg" xmlns:xlink="http://www.w3.org/1999/xlink" contentStyleType="text/css" height="197.6px" preserveAspectRatio="none" style="width:876px;height:197px;background:#FFFFFF;" version="1.1" viewBox="0 0 876 197" width="876.8px" zoomAndPan="magnify"><defs/><g><g id="cluster_##2"><rect fill="#36827F" height="182.4" rx="2" ry="2" style="stroke:#181818;stroke-width:0.8000000000000002;" width="508" x="5.6" y="11.0596"/></g><g id="cluster_##9"><rect fill="#D499B9" height="177.2" rx="2" ry="2" style="stroke:#181818;stroke-width:0.8000000000000002;" width="339.2" x="532.8" y="11.0596"/></g><!--class Building--><g id="elem_Building"><rect codeLine="6" fill="#F1F1F1" height="54.7625" id="Building" rx="2" ry="2" style="stroke:#181818;stroke-width:0.4000000000000001;" width="65.6" x="305.6" y="23.8596"/><ellipse cx="317.6" cy="44.8409" fill="#ADD1B2" rx="8.8" ry="8.8" style="stroke:#181818;stroke-width:0.8000000000000002;"/><path d="M319.8125,41.5409 Q319.9375,41.3659 320.0875,41.2784 Q320.2375,41.1909 320.4125,41.1909 Q320.7125,41.1909 320.9,41.4034 Q321.0875,41.6034 321.0875,42.0909 L321.0875,43.2534 Q321.0875,43.7409 320.9,43.9534 Q320.7125,44.1659 320.4125,44.1659 Q320.1375,44.1659 319.975,44.0034 Q319.8125,43.8534 319.725,43.4409 Q319.6875,43.1534 319.5375,43.0034 Q319.275,42.7034 318.7875,42.5284 Q318.3,42.3534 317.8,42.3534 Q317.1875,42.3534 316.675,42.6159 Q316.175,42.8784 315.775,43.4784 Q315.3875,44.0784 315.3875,44.9034 L315.3875,45.7784 Q315.3875,46.7659 316.1,47.4284 Q316.8125,48.0784 318.0875,48.0784 Q318.8375,48.0784 319.3625,47.8784 Q319.675,47.7534 320.0125,47.4034 Q320.225,47.1909 320.3375,47.1284 Q320.4625,47.0659 320.625,47.0659 Q320.8875,47.0659 321.0875,47.2784 Q321.3,47.4784 321.3,47.7534 Q321.3,48.0284 321.025,48.3534 Q320.625,48.8159 319.9875,49.0784 Q319.125,49.4409 318.0875,49.4409 Q316.875,49.4409 315.9125,48.9409 Q315.125,48.5409 314.575,47.6909 Q314.025,46.8284 314.025,45.8034 L314.025,44.8784 Q314.025,43.8159 314.5125,42.9034 Q315.0125,41.9784 315.8875,41.4909 Q316.7625,40.9909 317.75,40.9909 Q318.3375,40.9909 318.85,41.1284 Q319.375,41.2534 319.8125,41.5409 Z " fill="#000000"/><text fill="#000000" font-family="sans-serif" font-size="9.6" font-style="italic" lengthAdjust="spacing" textLength="32" x="332.8" y="36.5502">&#171;Root&#187;</text><text fill="#000000" font-family="sans-serif" font-size="9.6" font-style="italic" lengthAdjust="spacing" textLength="35.2" x="331.2" y="47.2752">&#171;Entity&#187;</text><text fill="#000000" font-family="sans-serif" font-size="11.2" lengthAdjust="spacing" textLength="40" x="328.8" y="59.4487">Building</text><line style="stroke:#181818;stroke-width:0.4000000000000001;" x1="306.4" x2="370.4" y1="65.8221" y2="65.8221"/><line style="stroke:#181818;stroke-width:0.4000000000000001;" x1="306.4" x2="370.4" y1="72.2221" y2="72.2221"/></g><!--class BuildingDescription--><g id="elem_BuildingDescription"><rect codeLine="7" fill="#F1F1F1" height="44.0375" id="BuildingDescription" rx="2" ry="2" style="stroke:#181818;stroke-width:0.4000000000000001;" width="122.4" x="18.8" y="131.4596"/><ellipse cx="30.8" cy="147.0784" fill="#A4C2E5" rx="8.8" ry="8.8" style="stroke:#181818;stroke-width:0.8000000000000002;"/><path d="M31.2875,149.4284 L32.7625,146.4159 Q32.2125,146.4159 32.0625,146.3159 Q31.725,146.1159 31.725,145.7284 Q31.725,145.4284 31.9375,145.2409 Q32.15,145.0534 32.6375,145.0534 L34.5,145.0534 Q35,145.0534 35.2,145.2409 Q35.4125,145.4284 35.4125,145.7284 Q35.4125,146.0284 35.2,146.2284 Q35,146.4159 34.5,146.4159 L34.275,146.4159 L32,151.0784 L30.575,151.0784 L28.3,146.4159 L28.1125,146.4159 Q27.6125,146.4159 27.4,146.2284 Q27.2,146.0284 27.2,145.7284 Q27.2,145.4284 27.4,145.2409 Q27.6125,145.0534 28.1125,145.0534 L29.9375,145.0534 Q30.425,145.0534 30.625,145.2409 Q30.8375,145.4284 30.8375,145.7284 Q30.8375,146.1159 30.525,146.3159 Q30.3625,146.4159 29.8125,146.4159 L31.2875,149.4284 Z " fill="#000000"/><text fill="#000000" font-family="sans-serif" font-size="9.6" font-style="italic" lengthAdjust="spacing" textLength="65.6" x="57.6" y="144.1502">&#171;ValueObject&#187;</text><text fill="#000000" font-family="sans-serif" font-size="11.2" lengthAdjust="spacing" textLength="96.8" x="42" y="156.3237">BuildingDescription</text><line style="stroke:#181818;stroke-width:0.4000000000000001;" x1="19.6" x2="140.4" y1="162.6971" y2="162.6971"/><line style="stroke:#181818;stroke-width:0.4000000000000001;" x1="19.6" x2="140.4" y1="169.0971" y2="169.0971"/></g><!--class BuildingName--><g id="elem_BuildingName"><rect codeLine="8" fill="#F1F1F1" height="44.0375" id="BuildingName" rx="2" ry="2" style="stroke:#181818;stroke-width:0.4000000000000001;" width="94.4" x="169.6" y="131.4596"/><ellipse cx="181.6" cy="147.0784" fill="#A4C2E5" rx="8.8" ry="8.8" style="stroke:#181818;stroke-width:0.8000000000000002;"/><path d="M182.0875,149.4284 L183.5625,146.4159 Q183.0125,146.4159 182.8625,146.3159 Q182.525,146.1159 182.525,145.7284 Q182.525,145.4284 182.7375,145.2409 Q182.95,145.0534 183.4375,145.0534 L185.3,145.0534 Q185.8,145.0534 186,145.2409 Q186.2125,145.4284 186.2125,145.7284 Q186.2125,146.0284 186,146.2284 Q185.8,146.4159 185.3,146.4159 L185.075,146.4159 L182.8,151.0784 L181.375,151.0784 L179.1,146.4159 L178.9125,146.4159 Q178.4125,146.4159 178.2,146.2284 Q178,146.0284 178,145.7284 Q178,145.4284 178.2,145.2409 Q178.4125,145.0534 178.9125,145.0534 L180.7375,145.0534 Q181.225,145.0534 181.425,145.2409 Q181.6375,145.4284 181.6375,145.7284 Q181.6375,146.1159 181.325,146.3159 Q181.1625,146.4159 180.6125,146.4159 L182.0875,149.4284 Z " fill="#000000"/><text fill="#000000" font-family="sans-serif" font-size="9.6" font-style="italic" lengthAdjust="spacing" textLength="65.6" x="194.4" y="144.1502">&#171;ValueObject&#187;</text><text fill="#000000" font-family="sans-serif" font-size="11.2" lengthAdjust="spacing" textLength="68.8" x="192.8" y="156.3237">BuildingName</text><line style="stroke:#181818;stroke-width:0.4000000000000001;" x1="170.4" x2="263.2" y1="162.6971" y2="162.6971"/><line style="stroke:#181818;stroke-width:0.4000000000000001;" x1="170.4" x2="263.2" y1="169.0971" y2="169.0971"/></g><!--class BuildingCode--><g id="elem_BuildingCode"><rect codeLine="9" fill="#F1F1F1" height="54.7625" id="BuildingCode" rx="2" ry="2" style="stroke:#181818;stroke-width:0.4000000000000001;" width="92.8" x="292" y="126.2596"/><ellipse cx="304" cy="147.2409" fill="#FFA500" rx="8.8" ry="8.8" style="stroke:#181818;stroke-width:0.8000000000000002;"/><path d="M304.4875,149.5909 L305.9625,146.5784 Q305.4125,146.5784 305.2625,146.4784 Q304.925,146.2784 304.925,145.8909 Q304.925,145.5909 305.1375,145.4034 Q305.35,145.2159 305.8375,145.2159 L307.7,145.2159 Q308.2,145.2159 308.4,145.4034 Q308.6125,145.5909 308.6125,145.8909 Q308.6125,146.1909 308.4,146.3909 Q308.2,146.5784 307.7,146.5784 L307.475,146.5784 L305.2,151.2409 L303.775,151.2409 L301.5,146.5784 L301.3125,146.5784 Q300.8125,146.5784 300.6,146.3909 Q300.4,146.1909 300.4,145.8909 Q300.4,145.5909 300.6,145.4034 Q300.8125,145.2159 301.3125,145.2159 L303.1375,145.2159 Q303.625,145.2159 303.825,145.4034 Q304.0375,145.5909 304.0375,145.8909 Q304.0375,146.2784 303.725,146.4784 Q303.5625,146.5784 303.0125,146.5784 L304.4875,149.5909 Z " fill="#000000"/><text fill="#000000" font-family="sans-serif" font-size="9.6" font-style="italic" lengthAdjust="spacing" textLength="65.6" x="316" y="138.9502">&#171;ValueObject&#187;</text><text fill="#000000" font-family="sans-serif" font-size="9.6" font-style="italic" lengthAdjust="spacing" textLength="41.6" x="328" y="149.6752">&#171;unique&#187;</text><text fill="#000000" font-family="sans-serif" font-size="11.2" lengthAdjust="spacing" textLength="67.2" x="315.2" y="161.8487">BuildingCode</text><line style="stroke:#181818;stroke-width:0.4000000000000001;" x1="292.8" x2="384" y1="168.2221" y2="168.2221"/><line style="stroke:#181818;stroke-width:0.4000000000000001;" x1="292.8" x2="384" y1="174.6221" y2="174.6221"/></g><!--class BuildingSize--><g id="elem_BuildingSize"><rect codeLine="10" fill="#F1F1F1" height="44.0375" id="BuildingSize" rx="2" ry="2" style="stroke:#181818;stroke-width:0.4000000000000001;" width="88" x="412.8" y="131.4596"/><ellipse cx="424.8" cy="147.0784" fill="#A4C2E5" rx="8.8" ry="8.8" style="stroke:#181818;stroke-width:0.8000000000000002;"/><path d="M425.2875,149.4284 L426.7625,146.4159 Q426.2125,146.4159 426.0625,146.3159 Q425.725,146.1159 425.725,145.7284 Q425.725,145.4284 425.9375,145.2409 Q426.15,145.0534 426.6375,145.0534 L428.5,145.0534 Q429,145.0534 429.2,145.2409 Q429.4125,145.4284 429.4125,145.7284 Q429.4125,146.0284 429.2,146.2284 Q429,146.4159 428.5,146.4159 L428.275,146.4159 L426,151.0784 L424.575,151.0784 L422.3,146.4159 L422.1125,146.4159 Q421.6125,146.4159 421.4,146.2284 Q421.2,146.0284 421.2,145.7284 Q421.2,145.4284 421.4,145.2409 Q421.6125,145.0534 422.1125,145.0534 L423.9375,145.0534 Q424.425,145.0534 424.625,145.2409 Q424.8375,145.4284 424.8375,145.7284 Q424.8375,146.1159 424.525,146.3159 Q424.3625,146.4159 423.8125,146.4159 L425.2875,149.4284 Z " fill="#000000"/><text fill="#000000" font-family="sans-serif" font-size="9.6" font-style="italic" lengthAdjust="spacing" textLength="65.6" x="434.4" y="144.1502">&#171;ValueObject&#187;</text><text fill="#000000" font-family="sans-serif" font-size="11.2" lengthAdjust="spacing" textLength="60.8" x="436.8" y="156.3237">BuildingSize</text><line style="stroke:#181818;stroke-width:0.4000000000000001;" x1="413.6" x2="500" y1="162.6971" y2="162.6971"/><line style="stroke:#181818;stroke-width:0.4000000000000001;" x1="413.6" x2="500" y1="169.0971" y2="169.0971"/></g><!--class Floor--><g id="elem_Floor"><rect codeLine="14" fill="#F1F1F1" height="54.7625" id="Floor" rx="2" ry="2" style="stroke:#181818;stroke-width:0.4000000000000001;" width="57.6" x="664.8" y="23.8596"/><ellipse cx="676.8" cy="44.8409" fill="#ADD1B2" rx="8.8" ry="8.8" style="stroke:#181818;stroke-width:0.8000000000000002;"/><path d="M679.0125,41.5409 Q679.1375,41.3659 679.2875,41.2784 Q679.4375,41.1909 679.6125,41.1909 Q679.9125,41.1909 680.1,41.4034 Q680.2875,41.6034 680.2875,42.0909 L680.2875,43.2534 Q680.2875,43.7409 680.1,43.9534 Q679.9125,44.1659 679.6125,44.1659 Q679.3375,44.1659 679.175,44.0034 Q679.0125,43.8534 678.925,43.4409 Q678.8875,43.1534 678.7375,43.0034 Q678.475,42.7034 677.9875,42.5284 Q677.5,42.3534 677,42.3534 Q676.3875,42.3534 675.875,42.6159 Q675.375,42.8784 674.975,43.4784 Q674.5875,44.0784 674.5875,44.9034 L674.5875,45.7784 Q674.5875,46.7659 675.3,47.4284 Q676.0125,48.0784 677.2875,48.0784 Q678.0375,48.0784 678.5625,47.8784 Q678.875,47.7534 679.2125,47.4034 Q679.425,47.1909 679.5375,47.1284 Q679.6625,47.0659 679.825,47.0659 Q680.0875,47.0659 680.2875,47.2784 Q680.5,47.4784 680.5,47.7534 Q680.5,48.0284 680.225,48.3534 Q679.825,48.8159 679.1875,49.0784 Q678.325,49.4409 677.2875,49.4409 Q676.075,49.4409 675.1125,48.9409 Q674.325,48.5409 673.775,47.6909 Q673.225,46.8284 673.225,45.8034 L673.225,44.8784 Q673.225,43.8159 673.7125,42.9034 Q674.2125,41.9784 675.0875,41.4909 Q675.9625,40.9909 676.95,40.9909 Q677.5375,40.9909 678.05,41.1284 Q678.575,41.2534 679.0125,41.5409 Z " fill="#000000"/><text fill="#000000" font-family="sans-serif" font-size="9.6" font-style="italic" lengthAdjust="spacing" textLength="32" x="688" y="36.5502">&#171;Root&#187;</text><text fill="#000000" font-family="sans-serif" font-size="9.6" font-style="italic" lengthAdjust="spacing" textLength="35.2" x="686.4" y="47.2752">&#171;Entity&#187;</text><text fill="#000000" font-family="sans-serif" font-size="11.2" lengthAdjust="spacing" textLength="26.4" x="690.8" y="59.4487">Floor</text><line style="stroke:#181818;stroke-width:0.4000000000000001;" x1="665.6" x2="721.6" y1="65.8221" y2="65.8221"/><line style="stroke:#181818;stroke-width:0.4000000000000001;" x1="665.6" x2="721.6" y1="72.2221" y2="72.2221"/></g><!--class FloorNumber--><g id="elem_FloorNumber"><rect codeLine="15" fill="#F1F1F1" height="54.7625" id="FloorNumber" rx="2" ry="2" style="stroke:#181818;stroke-width:0.4000000000000001;" width="91.2" x="545.6" y="23.8596"/><ellipse cx="557.6" cy="44.8409" fill="#FFA500" rx="8.8" ry="8.8" style="stroke:#181818;stroke-width:0.8000000000000002;"/><path d="M558.0875,47.1909 L559.5625,44.1784 Q559.0125,44.1784 558.8625,44.0784 Q558.525,43.8784 558.525,43.4909 Q558.525,43.1909 558.7375,43.0034 Q558.95,42.8159 559.4375,42.8159 L561.3,42.8159 Q561.8,42.8159 562,43.0034 Q562.2125,43.1909 562.2125,43.4909 Q562.2125,43.7909 562,43.9909 Q561.8,44.1784 561.3,44.1784 L561.075,44.1784 L558.8,48.8409 L557.375,48.8409 L555.1,44.1784 L554.9125,44.1784 Q554.4125,44.1784 554.2,43.9909 Q554,43.7909 554,43.4909 Q554,43.1909 554.2,43.0034 Q554.4125,42.8159 554.9125,42.8159 L556.7375,42.8159 Q557.225,42.8159 557.425,43.0034 Q557.6375,43.1909 557.6375,43.4909 Q557.6375,43.8784 557.325,44.0784 Q557.1625,44.1784 556.6125,44.1784 L558.0875,47.1909 Z " fill="#000000"/><text fill="#000000" font-family="sans-serif" font-size="9.6" font-style="italic" lengthAdjust="spacing" textLength="65.6" x="568.8" y="36.5502">&#171;ValueObject&#187;</text><text fill="#000000" font-family="sans-serif" font-size="9.6" font-style="italic" lengthAdjust="spacing" textLength="41.6" x="580.8" y="47.2752">&#171;unique&#187;</text><text fill="#000000" font-family="sans-serif" font-size="11.2" lengthAdjust="spacing" textLength="65.6" x="568.8" y="59.4487">FloorNumber</text><line style="stroke:#181818;stroke-width:0.4000000000000001;" x1="546.4" x2="636" y1="65.8221" y2="65.8221"/><line style="stroke:#181818;stroke-width:0.4000000000000001;" x1="546.4" x2="636" y1="72.2221" y2="72.2221"/></g><!--class FloorDescription--><g id="elem_FloorDescription"><rect codeLine="16" fill="#F1F1F1" height="44.0375" id="FloorDescription" rx="2" ry="2" style="stroke:#181818;stroke-width:0.4000000000000001;" width="108.8" x="750.4" y="29.0596"/><ellipse cx="762.4" cy="44.6784" fill="#A4C2E5" rx="8.8" ry="8.8" style="stroke:#181818;stroke-width:0.8000000000000002;"/><path d="M762.8875,47.0284 L764.3625,44.0159 Q763.8125,44.0159 763.6625,43.9159 Q763.325,43.7159 763.325,43.3284 Q763.325,43.0284 763.5375,42.8409 Q763.75,42.6534 764.2375,42.6534 L766.1,42.6534 Q766.6,42.6534 766.8,42.8409 Q767.0125,43.0284 767.0125,43.3284 Q767.0125,43.6284 766.8,43.8284 Q766.6,44.0159 766.1,44.0159 L765.875,44.0159 L763.6,48.6784 L762.175,48.6784 L759.9,44.0159 L759.7125,44.0159 Q759.2125,44.0159 759,43.8284 Q758.8,43.6284 758.8,43.3284 Q758.8,43.0284 759,42.8409 Q759.2125,42.6534 759.7125,42.6534 L761.5375,42.6534 Q762.025,42.6534 762.225,42.8409 Q762.4375,43.0284 762.4375,43.3284 Q762.4375,43.7159 762.125,43.9159 Q761.9625,44.0159 761.4125,44.0159 L762.8875,47.0284 Z " fill="#000000"/><text fill="#000000" font-family="sans-serif" font-size="9.6" font-style="italic" lengthAdjust="spacing" textLength="65.6" x="782.4" y="41.7502">&#171;ValueObject&#187;</text><text fill="#000000" font-family="sans-serif" font-size="11.2" lengthAdjust="spacing" textLength="83.2" x="773.6" y="53.9237">FloorDescription</text><line style="stroke:#181818;stroke-width:0.4000000000000001;" x1="751.2" x2="858.4" y1="60.2971" y2="60.2971"/><line style="stroke:#181818;stroke-width:0.4000000000000001;" x1="751.2" x2="858.4" y1="66.6971" y2="66.6971"/></g><!--class FloorMap--><g id="elem_FloorMap"><rect codeLine="17" fill="#F1F1F1" height="44.0375" id="FloorMap" rx="2" ry="2" style="stroke:#181818;stroke-width:0.4000000000000001;" width="73.6" x="656.8" y="131.4596"/><ellipse cx="668.8" cy="147.0784" fill="#ADD1B2" rx="8.8" ry="8.8" style="stroke:#181818;stroke-width:0.8000000000000002;"/><path d="M671.0125,143.7784 Q671.1375,143.6034 671.2875,143.5159 Q671.4375,143.4284 671.6125,143.4284 Q671.9125,143.4284 672.1,143.6409 Q672.2875,143.8409 672.2875,144.3284 L672.2875,145.4909 Q672.2875,145.9784 672.1,146.1909 Q671.9125,146.4034 671.6125,146.4034 Q671.3375,146.4034 671.175,146.2409 Q671.0125,146.0909 670.925,145.6784 Q670.8875,145.3909 670.7375,145.2409 Q670.475,144.9409 669.9875,144.7659 Q669.5,144.5909 669,144.5909 Q668.3875,144.5909 667.875,144.8534 Q667.375,145.1159 666.975,145.7159 Q666.5875,146.3159 666.5875,147.1409 L666.5875,148.0159 Q666.5875,149.0034 667.3,149.6659 Q668.0125,150.3159 669.2875,150.3159 Q670.0375,150.3159 670.5625,150.1159 Q670.875,149.9909 671.2125,149.6409 Q671.425,149.4284 671.5375,149.3659 Q671.6625,149.3034 671.825,149.3034 Q672.0875,149.3034 672.2875,149.5159 Q672.5,149.7159 672.5,149.9909 Q672.5,150.2659 672.225,150.5909 Q671.825,151.0534 671.1875,151.3159 Q670.325,151.6784 669.2875,151.6784 Q668.075,151.6784 667.1125,151.1784 Q666.325,150.7784 665.775,149.9284 Q665.225,149.0659 665.225,148.0409 L665.225,147.1159 Q665.225,146.0534 665.7125,145.1409 Q666.2125,144.2159 667.0875,143.7284 Q667.9625,143.2284 668.95,143.2284 Q669.5375,143.2284 670.05,143.3659 Q670.575,143.4909 671.0125,143.7784 Z " fill="#000000"/><text fill="#000000" font-family="sans-serif" font-size="9.6" font-style="italic" lengthAdjust="spacing" textLength="35.2" x="686.4" y="144.1502">&#171;Entity&#187;</text><text fill="#000000" font-family="sans-serif" font-size="11.2" lengthAdjust="spacing" textLength="48" x="680" y="156.3237">FloorMap</text><line style="stroke:#181818;stroke-width:0.4000000000000001;" x1="657.6" x2="729.6" y1="162.6971" y2="162.6971"/><line style="stroke:#181818;stroke-width:0.4000000000000001;" x1="657.6" x2="729.6" y1="169.0971" y2="169.0971"/></g><!--link Building to Floor--><g id="link_Building_Floor"><path codeLine="21" d="M338.4,23.7796 C338.4,15.9316 338.4,9.4596 338.4,9.4596 C338.4,9.4596 693.6,9.4596 693.6,9.4596 C693.6,9.4596 693.6,19.7796 693.6,19.7796 " fill="none" id="Building-to-Floor" style="stroke:#181818;stroke-width:0.8000000000000002;"/><polygon fill="#181818" points="693.6,23.7796,696.8,16.5796,693.6,19.7796,690.4,16.5796,693.6,23.7796" style="stroke:#181818;stroke-width:0.8000000000000002;"/><text fill="#000000" font-family="sans-serif" font-size="10.4" lengthAdjust="spacing" textLength="5.6" x="332.2225" y="15.2188">1</text><text fill="#000000" font-family="sans-serif" font-size="10.4" lengthAdjust="spacing" textLength="4" x="689.1875" y="15.2188">*</text></g><!--link Building to BuildingDescription--><g id="link_Building_BuildingDescription"><path codeLine="22" d="M305.408,42.2596 C235.752,42.2596 80,42.2596 80,42.2596 C80,42.2596 80,127.2276 80,127.2276 " fill="none" id="Building-to-BuildingDescription" style="stroke:#181818;stroke-width:0.8000000000000002;"/><polygon fill="#181818" points="80,131.2276,83.2,124.0276,80,127.2276,76.8,124.0276,80,131.2276" style="stroke:#181818;stroke-width:0.8000000000000002;"/><text fill="#000000" font-family="sans-serif" font-size="10.4" lengthAdjust="spacing" textLength="4" x="295.1751" y="37.9145">*</text><text fill="#000000" font-family="sans-serif" font-size="10.4" lengthAdjust="spacing" textLength="17.6" x="60.255" y="122.7049">0..1</text></g><!--link Building to BuildingName--><g id="link_Building_BuildingName"><path codeLine="23" d="M305.496,60.6596 C269.48,60.6596 216.8,60.6596 216.8,60.6596 C216.8,60.6596 216.8,127.2356 216.8,127.2356 " fill="none" id="Building-to-BuildingName" style="stroke:#181818;stroke-width:0.8000000000000002;"/><polygon fill="#181818" points="216.8,131.2356,220,124.0356,216.8,127.2356,213.6,124.0356,216.8,131.2356" style="stroke:#181818;stroke-width:0.8000000000000002;"/><text fill="#000000" font-family="sans-serif" font-size="10.4" lengthAdjust="spacing" textLength="5.6" x="293.5362" y="59.592">1</text><text fill="#000000" font-family="sans-serif" font-size="10.4" lengthAdjust="spacing" textLength="5.6" x="210.5175" y="122.7148">1</text></g><!--link Building to BuildingSize--><g id="link_Building_BuildingSize"><path codeLine="24" d="M371.384,51.0596 C406.416,51.0596 456.8,51.0596 456.8,51.0596 C456.8,51.0596 456.8,127.2436 456.8,127.2436 " fill="none" id="Building-to-BuildingSize" style="stroke:#181818;stroke-width:0.8000000000000002;"/><polygon fill="#181818" points="456.8,131.2436,460,124.0436,456.8,127.2436,453.6,124.0436,456.8,131.2436" style="stroke:#181818;stroke-width:0.8000000000000002;"/><text fill="#000000" font-family="sans-serif" font-size="10.4" lengthAdjust="spacing" textLength="4" x="377.6155" y="48.282">*</text><text fill="#000000" font-family="sans-serif" font-size="10.4" lengthAdjust="spacing" textLength="5.6" x="450.5175" y="122.7248">1</text></g><!--link Building to BuildingCode--><g id="link_Building_BuildingCode"><path codeLine="25" d="M338.4,78.4996 C338.4,78.4996 338.4,121.9396 338.4,121.9396 " fill="none" id="Building-to-BuildingCode" style="stroke:#181818;stroke-width:0.8000000000000002;"/><polygon fill="#181818" points="338.4,125.9396,341.6,118.7396,338.4,121.9396,335.2,118.7396,338.4,125.9396" style="stroke:#181818;stroke-width:0.8000000000000002;"/><text fill="#000000" font-family="sans-serif" font-size="10.4" lengthAdjust="spacing" textLength="5.6" x="332.2488" y="94.4247">1</text><text fill="#000000" font-family="sans-serif" font-size="10.4" lengthAdjust="spacing" textLength="5.6" x="332.2488" y="117.6395">1</text></g><!--link Floor to FloorMap--><g id="link_Floor_FloorMap"><path codeLine="28" d="M693.6,78.4996 C693.6,78.4996 693.6,127.4516 693.6,127.4516 " fill="none" id="Floor-to-FloorMap" style="stroke:#181818;stroke-width:0.8000000000000002;"/><polygon fill="#181818" points="693.6,131.4516,696.8,124.2516,693.6,127.4516,690.4,124.2516,693.6,131.4516" style="stroke:#181818;stroke-width:0.8000000000000002;"/><text fill="#000000" font-family="sans-serif" font-size="10.4" lengthAdjust="spacing" textLength="5.6" x="687.4488" y="94.4247">1</text><text fill="#000000" font-family="sans-serif" font-size="10.4" lengthAdjust="spacing" textLength="5.6" x="687.3175" y="122.9835">1</text></g><!--reverse link FloorNumber to Floor--><g id="link_FloorNumber_Floor"><path codeLine="29" d="M641.008,51.0596 C641.008,51.0596 664.584,51.0596 664.584,51.0596 " fill="none" id="FloorNumber-backto-Floor" style="stroke:#181818;stroke-width:0.8000000000000002;"/><polygon fill="#181818" points="637.008,51.0596,644.208,54.2596,641.008,51.0596,644.208,47.8596,637.008,51.0596" style="stroke:#181818;stroke-width:0.8000000000000002;"/><text fill="#000000" font-family="sans-serif" font-size="10.4" lengthAdjust="spacing" textLength="5.6" x="643.2359" y="48.5606">1</text><text fill="#000000" font-family="sans-serif" font-size="10.4" lengthAdjust="spacing" textLength="4" x="654.4777" y="48.1775">*</text></g><!--link Floor to FloorDescription--><g id="link_Floor_FloorDescription"><path codeLine="30" d="M722.528,51.0596 C722.528,51.0596 746.368,51.0596 746.368,51.0596 " fill="none" id="Floor-to-FloorDescription" style="stroke:#181818;stroke-width:0.8000000000000002;"/><polygon fill="#181818" points="750.368,51.0596,743.168,47.8596,746.368,51.0596,743.168,54.2596,750.368,51.0596" style="stroke:#181818;stroke-width:0.8000000000000002;"/><text fill="#000000" font-family="sans-serif" font-size="10.4" lengthAdjust="spacing" textLength="4" x="728.9069" y="48.1253">*</text><text fill="#000000" font-family="sans-serif" font-size="10.4" lengthAdjust="spacing" textLength="5.6" x="738.5083" y="48.6828">1</text></g><!--SRC=[bP9TJyCW58Rl-HKdx4ONjxWvFveiJTpNdJFHn7lMdaoKGgLWCet_NMZJZQx6fNV0-pw7mtiethdCcMOP22xHx784fSsh8eHeJ0oJMu7Gkxgv6z-klaaYM570p7AHSha5c4xXIIa3SUoNIscusRdDaM-1HQ9vRhYI9NBsUT6xdyp7o-jpU672ukFcpTtL1jSimsx4NALxGcdNFHu3NhIIVrXiqy_yw-HzFurW5fCecaLrC2kXb3wLIcbQsso3kdkd9Tmvpv9wO3aq-_5lsS-IZkWWfdrQcOFpFXquuN8u7D6_9jgiu9o1pS-lLIdGVTx_yNwQxYDMiNevhVJwFRNY2jk3K6KRQ0Sfx9ly0W00]--></g></svg>