<?xml version="1.0" encoding="us-ascii" standalone="no"?><svg xmlns="http://www.w3.org/2000/svg" xmlns:xlink="http://www.w3.org/1999/xlink" contentStyleType="text/css" height="225px" preserveAspectRatio="none" style="width:763px;height:225px;background:#FFFFFF;" version="1.1" viewBox="0 0 763 225" width="763.8px" zoomAndPan="magnify"><defs/><g><rect fill="#FFFFFF" height="154.0266" style="stroke:#181818;stroke-width:0.6;" width="6" x="76.8" y="39.6984"/><rect fill="#FFFFFF" height="119.7984" style="stroke:#181818;stroke-width:0.6;" width="6" x="250.8" y="56.8125"/><rect fill="#FFFFFF" height="85.5703" style="stroke:#181818;stroke-width:0.6;" width="6" x="424.8" y="73.9266"/><rect fill="#FFFFFF" height="17.1141" style="stroke:#181818;stroke-width:0.6;" width="6" x="598.8" y="91.0406"/><rect fill="#FFFFFF" height="17.1141" style="stroke:#181818;stroke-width:0.6;" width="6" x="663.9" y="125.2688"/><line style="stroke:#181818;stroke-width:0.3;stroke-dasharray:5.0,5.0;" x1="79.5" x2="79.5" y1="21.3844" y2="204.525"/><line style="stroke:#181818;stroke-width:0.3;stroke-dasharray:5.0,5.0;" x1="253.8" x2="253.8" y1="21.3844" y2="204.525"/><line style="stroke:#181818;stroke-width:0.3;stroke-dasharray:5.0,5.0;" x1="427.5" x2="427.5" y1="21.3844" y2="204.525"/><line style="stroke:#181818;stroke-width:0.3;stroke-dasharray:5.0,5.0;" x1="601.8" x2="601.8" y1="21.3844" y2="204.525"/><line style="stroke:#181818;stroke-width:0.3;stroke-dasharray:5.0,5.0;" x1="666.6" x2="666.6" y1="21.3844" y2="204.525"/><line style="stroke:#181818;stroke-width:0.3;stroke-dasharray:5.0,5.0;" x1="730.8" x2="730.8" y1="21.3844" y2="204.525"/><rect fill="#E2E2F0" height="17.7844" rx="1.5" ry="1.5" style="stroke:#181818;stroke-width:0.3;" width="30.6" x="64.5" y="3"/><text fill="#000000" font-family="sans-serif" font-size="8.4" lengthAdjust="spacing" textLength="22.2" x="68.7" y="14.8043">:Floor</text><rect fill="#E2E2F0" height="17.7844" rx="1.5" ry="1.5" style="stroke:#181818;stroke-width:0.3;" width="30.6" x="64.5" y="203.925"/><text fill="#000000" font-family="sans-serif" font-size="8.4" lengthAdjust="spacing" textLength="22.2" x="68.7" y="215.7293">:Floor</text><rect fill="#E2E2F0" height="17.7844" rx="1.5" ry="1.5" style="stroke:#181818;stroke-width:0.3;" width="91.2" x="208.2" y="3"/><text fill="#000000" font-family="sans-serif" font-size="8.4" lengthAdjust="spacing" textLength="82.8" x="212.4" y="14.8043">:ListBuildingController</text><rect fill="#E2E2F0" height="17.7844" rx="1.5" ry="1.5" style="stroke:#181818;stroke-width:0.3;" width="91.2" x="208.2" y="203.925"/><text fill="#000000" font-family="sans-serif" font-size="8.4" lengthAdjust="spacing" textLength="82.8" x="212.4" y="215.7293">:ListBuildingController</text><rect fill="#E2E2F0" height="17.7844" rx="1.5" ry="1.5" style="stroke:#181818;stroke-width:0.3;" width="69" x="393.3" y="3"/><text fill="#000000" font-family="sans-serif" font-size="8.4" lengthAdjust="spacing" textLength="60.6" x="397.5" y="14.8043">:BuildingService</text><rect fill="#E2E2F0" height="17.7844" rx="1.5" ry="1.5" style="stroke:#181818;stroke-width:0.3;" width="69" x="393.3" y="203.925"/><text fill="#000000" font-family="sans-serif" font-size="8.4" lengthAdjust="spacing" textLength="60.6" x="397.5" y="215.7293">:BuildingService</text><rect fill="#E2E2F0" height="17.7844" rx="1.5" ry="1.5" style="stroke:#181818;stroke-width:0.3;" width="61.2" x="571.2" y="3"/><text fill="#000000" font-family="sans-serif" font-size="8.4" lengthAdjust="spacing" textLength="52.8" x="575.4" y="14.8043">:BuildingRepo</text><rect fill="#E2E2F0" height="17.7844" rx="1.5" ry="1.5" style="stroke:#181818;stroke-width:0.3;" width="61.2" x="571.2" y="203.925"/><text fill="#000000" font-family="sans-serif" font-size="8.4" lengthAdjust="spacing" textLength="52.8" x="575.4" y="215.7293">:BuildingRepo</text><rect fill="#E2E2F0" height="17.7844" rx="1.5" ry="1.5" style="stroke:#181818;stroke-width:0.3;" width="57" x="638.4" y="3"/><text fill="#000000" font-family="sans-serif" font-size="8.4" lengthAdjust="spacing" textLength="48.6" x="642.6" y="14.8043">:BuildingMap</text><rect fill="#E2E2F0" height="17.7844" rx="1.5" ry="1.5" style="stroke:#181818;stroke-width:0.3;" width="57" x="638.4" y="203.925"/><text fill="#000000" font-family="sans-serif" font-size="8.4" lengthAdjust="spacing" textLength="48.6" x="642.6" y="215.7293">:BuildingMap</text><rect fill="#E2E2F0" height="17.7844" rx="1.5" ry="1.5" style="stroke:#181818;stroke-width:0.3;" width="58.8" x="701.4" y="3"/><text fill="#000000" font-family="sans-serif" font-size="8.4" lengthAdjust="spacing" textLength="50.4" x="705.6" y="14.8043">:BuildingDTO</text><rect fill="#E2E2F0" height="17.7844" rx="1.5" ry="1.5" style="stroke:#181818;stroke-width:0.3;" width="58.8" x="701.4" y="203.925"/><text fill="#000000" font-family="sans-serif" font-size="8.4" lengthAdjust="spacing" textLength="50.4" x="705.6" y="215.7293">:BuildingDTO</text><rect fill="#FFFFFF" height="154.0266" style="stroke:#181818;stroke-width:0.6;" width="6" x="76.8" y="39.6984"/><rect fill="#FFFFFF" height="119.7984" style="stroke:#181818;stroke-width:0.6;" width="6" x="250.8" y="56.8125"/><rect fill="#FFFFFF" height="85.5703" style="stroke:#181818;stroke-width:0.6;" width="6" x="424.8" y="73.9266"/><rect fill="#FFFFFF" height="17.1141" style="stroke:#181818;stroke-width:0.6;" width="6" x="598.8" y="91.0406"/><rect fill="#FFFFFF" height="17.1141" style="stroke:#181818;stroke-width:0.6;" width="6" x="663.9" y="125.2688"/><ellipse cx="41.1" cy="39.2484" fill="none" rx="2.4" ry="2.4" style="stroke:#181818;stroke-width:0.8999999999999999;"/><polygon fill="#181818" points="69.6,37.2984,75.6,39.6984,69.6,42.0984,72,39.6984" style="stroke:#181818;stroke-width:0.6;"/><line style="stroke:#181818;stroke-width:0.6;" x1="43.8" x2="73.2" y1="39.6984" y2="39.6984"/><text fill="#000000" font-family="sans-serif" font-size="7.8" font-weight="bold" lengthAdjust="spacing" textLength="4.2" x="45.6" y="36.8455">1</text><text fill="#000000" font-family="sans-serif" font-size="7.8" lengthAdjust="spacing" textLength="15.6" x="52.2" y="36.8455">GET</text><polygon fill="#181818" points="243.6,54.4125,249.6,56.8125,243.6,59.2125,246,56.8125" style="stroke:#181818;stroke-width:0.6;"/><line style="stroke:#181818;stroke-width:0.6;" x1="82.8" x2="247.2" y1="56.8125" y2="56.8125"/><text fill="#000000" font-family="sans-serif" font-size="7.8" font-weight="bold" lengthAdjust="spacing" textLength="4.2" x="87" y="53.9596">2</text><text fill="#000000" font-family="sans-serif" font-size="7.8" lengthAdjust="spacing" textLength="150" x="93.6" y="53.9596">getBuildingsByMaxAndMinFloors(min,max)</text><polygon fill="#181818" points="417.6,71.5266,423.6,73.9266,417.6,76.3266,420,73.9266" style="stroke:#181818;stroke-width:0.6;"/><line style="stroke:#181818;stroke-width:0.6;" x1="256.8" x2="421.2" y1="73.9266" y2="73.9266"/><text fill="#000000" font-family="sans-serif" font-size="7.8" font-weight="bold" lengthAdjust="spacing" textLength="4.2" x="261" y="71.0736">3</text><text fill="#000000" font-family="sans-serif" font-size="7.8" lengthAdjust="spacing" textLength="150" x="267.6" y="71.0736">getBuildingsByMaxAndMinFloors(min,max)</text><polygon fill="#181818" points="591.6,88.6406,597.6,91.0406,591.6,93.4406,594,91.0406" style="stroke:#181818;stroke-width:0.6;"/><line style="stroke:#181818;stroke-width:0.6;" x1="430.8" x2="595.2" y1="91.0406" y2="91.0406"/><text fill="#000000" font-family="sans-serif" font-size="7.8" font-weight="bold" lengthAdjust="spacing" textLength="4.2" x="435" y="88.1877">4</text><text fill="#000000" font-family="sans-serif" font-size="7.8" lengthAdjust="spacing" textLength="150" x="441.6" y="88.1877">getBuildingsByMaxAndMinFloors(min,max)</text><polygon fill="#181818" points="437.4,105.7547,431.4,108.1547,437.4,110.5547,435,108.1547" style="stroke:#181818;stroke-width:0.6;"/><line style="stroke:#181818;stroke-width:0.6;stroke-dasharray:2.0,2.0;" x1="433.8" x2="601.2" y1="108.1547" y2="108.1547"/><text fill="#000000" font-family="sans-serif" font-size="7.8" font-weight="bold" lengthAdjust="spacing" textLength="4.2" x="441" y="105.3018">5</text><text fill="#000000" font-family="sans-serif" font-size="7.8" lengthAdjust="spacing" textLength="39" x="447.6" y="105.3018">buildingList</text><polygon fill="#181818" points="656.7,122.8687,662.7,125.2688,656.7,127.6687,659.1,125.2688" style="stroke:#181818;stroke-width:0.6;"/><line style="stroke:#181818;stroke-width:0.6;" x1="430.8" x2="660.3" y1="125.2688" y2="125.2688"/><text fill="#000000" font-family="sans-serif" font-size="7.8" font-weight="bold" lengthAdjust="spacing" textLength="4.2" x="435" y="122.4158">6</text><text fill="#000000" font-family="sans-serif" font-size="7.8" lengthAdjust="spacing" textLength="66" x="441.6" y="122.4158">toDTO(buildingList)</text><polygon fill="#181818" points="723.6,139.9828,729.6,142.3828,723.6,144.7828,726,142.3828" style="stroke:#181818;stroke-width:0.6;"/><line style="stroke:#181818;stroke-width:0.6;" x1="666.9" x2="727.2" y1="142.3828" y2="142.3828"/><text fill="#000000" font-family="sans-serif" font-size="7.8" font-weight="bold" lengthAdjust="spacing" textLength="4.2" x="671.1" y="139.5299">7</text><text fill="#000000" font-family="sans-serif" font-size="7.8" lengthAdjust="spacing" textLength="26.4" x="677.7" y="139.5299">create()</text><polygon fill="#181818" points="263.4,157.0969,257.4,159.4969,263.4,161.8969,261,159.4969" style="stroke:#181818;stroke-width:0.6;"/><line style="stroke:#181818;stroke-width:0.6;stroke-dasharray:2.0,2.0;" x1="259.8" x2="427.2" y1="159.4969" y2="159.4969"/><text fill="#000000" font-family="sans-serif" font-size="7.8" font-weight="bold" lengthAdjust="spacing" textLength="4.2" x="267" y="156.6439">8</text><text fill="#000000" font-family="sans-serif" font-size="7.8" lengthAdjust="spacing" textLength="54.6" x="273.6" y="156.6439">buildingListDTO</text><polygon fill="#181818" points="89.4,174.2109,83.4,176.6109,89.4,179.0109,87,176.6109" style="stroke:#181818;stroke-width:0.6;"/><line style="stroke:#181818;stroke-width:0.6;stroke-dasharray:2.0,2.0;" x1="85.8" x2="253.2" y1="176.6109" y2="176.6109"/><text fill="#000000" font-family="sans-serif" font-size="7.8" font-weight="bold" lengthAdjust="spacing" textLength="4.2" x="93" y="173.758">9</text><text fill="#000000" font-family="sans-serif" font-size="7.8" lengthAdjust="spacing" textLength="54.6" x="99.6" y="173.758">buildingListDTO</text><polygon fill="#181818" points="6.6,191.325,0.6,193.725,6.6,196.125,4.2,193.725" style="stroke:#181818;stroke-width:0.6;"/><line style="stroke:#181818;stroke-width:0.6;stroke-dasharray:2.0,2.0;" x1="3" x2="79.2" y1="193.725" y2="193.725"/><text fill="#000000" font-family="sans-serif" font-size="7.8" font-weight="bold" lengthAdjust="spacing" textLength="8.4" x="10.2" y="190.8721">10</text><text fill="#000000" font-family="sans-serif" font-size="7.8" lengthAdjust="spacing" textLength="54.6" x="21" y="190.8721">buildingListDTO</text><!--SRC=[bP91QiCm44NtSmgHbGFL1KH9QDeacvf2amjCR144jcHaEQIthqPLugd1BLcO6TllVtd-68VWxD2Uj0Veq0TJcGvj40krQvpp2u6zIDtaxRlfmsOmJMti-TNPu5tJw1zyl9reRln1-ukfT89pFqD-wiubZ9ePfiGk8R7E46_7ZqJ42h1sSfK6KcA_FG9MmLmmw3maf2BaYasXn5dVP-qtNoLUNsnT6flOlcYDVMhnkXozM08mzkIQnttSyfOJv8RCA9J7dLAK05I4v9zqoYwqMgZrRm4xDWQjH70npO9Bs16qYdWH72bLUHsV5ajkIiXeEicRszBIcEwU0yyrolDA_r3ofJnB-RyW_n7V]--></g></svg>