<?xml version="1.0" encoding="us-ascii" standalone="no"?><svg xmlns="http://www.w3.org/2000/svg" xmlns:xlink="http://www.w3.org/1999/xlink" contentStyleType="text/css" height="375px" preserveAspectRatio="none" style="width:1300px;height:375px;background:#FFFFFF;" version="1.1" viewBox="0 0 1300 375" width="1300px" zoomAndPan="magnify"><defs/><g><rect fill="#FFFFFF" height="256.7109" style="stroke:#181818;stroke-width:1.0;" width="10" x="128" y="66.1641"/><rect fill="#FFFFFF" height="199.6641" style="stroke:#181818;stroke-width:1.0;" width="10" x="444" y="94.6875"/><rect fill="#FFFFFF" height="142.6172" style="stroke:#181818;stroke-width:1.0;" width="10" x="733" y="123.2109"/><rect fill="#FFFFFF" height="28.5234" style="stroke:#181818;stroke-width:1.0;" width="10" x="1025" y="151.7344"/><rect fill="#FFFFFF" height="28.5234" style="stroke:#181818;stroke-width:1.0;" width="10" x="1133.5" y="208.7813"/><line style="stroke:#181818;stroke-width:0.5;stroke-dasharray:5.0,5.0;" x1="133" x2="133" y1="35.6406" y2="340.875"/><line style="stroke:#181818;stroke-width:0.5;stroke-dasharray:5.0,5.0;" x1="449" x2="449" y1="35.6406" y2="340.875"/><line style="stroke:#181818;stroke-width:0.5;stroke-dasharray:5.0,5.0;" x1="737.5" x2="737.5" y1="35.6406" y2="340.875"/><line style="stroke:#181818;stroke-width:0.5;stroke-dasharray:5.0,5.0;" x1="1030" x2="1030" y1="35.6406" y2="340.875"/><line style="stroke:#181818;stroke-width:0.5;stroke-dasharray:5.0,5.0;" x1="1138" x2="1138" y1="35.6406" y2="340.875"/><line style="stroke:#181818;stroke-width:0.5;stroke-dasharray:5.0,5.0;" x1="1245" x2="1245" y1="35.6406" y2="340.875"/><rect fill="#E2E2F0" height="29.6406" rx="2.5" ry="2.5" style="stroke:#181818;stroke-width:0.5;" width="106" x="80" y="5"/><text fill="#000000" font-family="sans-serif" font-size="14" lengthAdjust="spacing" textLength="92" x="87" y="24.6738">:BuildingRoute</text><rect fill="#E2E2F0" height="29.6406" rx="2.5" ry="2.5" style="stroke:#181818;stroke-width:0.5;" width="106" x="80" y="339.875"/><text fill="#000000" font-family="sans-serif" font-size="14" lengthAdjust="spacing" textLength="92" x="87" y="359.5488">:BuildingRoute</text><rect fill="#E2E2F0" height="29.6406" rx="2.5" ry="2.5" style="stroke:#181818;stroke-width:0.5;" width="246" x="326" y="5"/><text fill="#000000" font-family="sans-serif" font-size="14" lengthAdjust="spacing" textLength="232" x="333" y="24.6738">:ListBuildingsMaxMinFloorsController</text><rect fill="#E2E2F0" height="29.6406" rx="2.5" ry="2.5" style="stroke:#181818;stroke-width:0.5;" width="246" x="326" y="339.875"/><text fill="#000000" font-family="sans-serif" font-size="14" lengthAdjust="spacing" textLength="232" x="333" y="359.5488">:ListBuildingsMaxMinFloorsController</text><rect fill="#E2E2F0" height="29.6406" rx="2.5" ry="2.5" style="stroke:#181818;stroke-width:0.5;" width="231" x="622.5" y="5"/><text fill="#000000" font-family="sans-serif" font-size="14" lengthAdjust="spacing" textLength="217" x="629.5" y="24.6738">:ListBuildingsMaxMinFloorsService</text><rect fill="#E2E2F0" height="29.6406" rx="2.5" ry="2.5" style="stroke:#181818;stroke-width:0.5;" width="231" x="622.5" y="339.875"/><text fill="#000000" font-family="sans-serif" font-size="14" lengthAdjust="spacing" textLength="217" x="629.5" y="359.5488">:ListBuildingsMaxMinFloorsService</text><rect fill="#E2E2F0" height="29.6406" rx="2.5" ry="2.5" style="stroke:#181818;stroke-width:0.5;" width="102" x="979" y="5"/><text fill="#000000" font-family="sans-serif" font-size="14" lengthAdjust="spacing" textLength="88" x="986" y="24.6738">:BuildingRepo</text><rect fill="#E2E2F0" height="29.6406" rx="2.5" ry="2.5" style="stroke:#181818;stroke-width:0.5;" width="102" x="979" y="339.875"/><text fill="#000000" font-family="sans-serif" font-size="14" lengthAdjust="spacing" textLength="88" x="986" y="359.5488">:BuildingRepo</text><rect fill="#E2E2F0" height="29.6406" rx="2.5" ry="2.5" style="stroke:#181818;stroke-width:0.5;" width="95" x="1091" y="5"/><text fill="#000000" font-family="sans-serif" font-size="14" lengthAdjust="spacing" textLength="81" x="1098" y="24.6738">:BuildingMap</text><rect fill="#E2E2F0" height="29.6406" rx="2.5" ry="2.5" style="stroke:#181818;stroke-width:0.5;" width="95" x="1091" y="339.875"/><text fill="#000000" font-family="sans-serif" font-size="14" lengthAdjust="spacing" textLength="81" x="1098" y="359.5488">:BuildingMap</text><rect fill="#E2E2F0" height="29.6406" rx="2.5" ry="2.5" style="stroke:#181818;stroke-width:0.5;" width="98" x="1196" y="5"/><text fill="#000000" font-family="sans-serif" font-size="14" lengthAdjust="spacing" textLength="84" x="1203" y="24.6738">:BuildingDTO</text><rect fill="#E2E2F0" height="29.6406" rx="2.5" ry="2.5" style="stroke:#181818;stroke-width:0.5;" width="98" x="1196" y="339.875"/><text fill="#000000" font-family="sans-serif" font-size="14" lengthAdjust="spacing" textLength="84" x="1203" y="359.5488">:BuildingDTO</text><rect fill="#FFFFFF" height="256.7109" style="stroke:#181818;stroke-width:1.0;" width="10" x="128" y="66.1641"/><rect fill="#FFFFFF" height="199.6641" style="stroke:#181818;stroke-width:1.0;" width="10" x="444" y="94.6875"/><rect fill="#FFFFFF" height="142.6172" style="stroke:#181818;stroke-width:1.0;" width="10" x="733" y="123.2109"/><rect fill="#FFFFFF" height="28.5234" style="stroke:#181818;stroke-width:1.0;" width="10" x="1025" y="151.7344"/><rect fill="#FFFFFF" height="28.5234" style="stroke:#181818;stroke-width:1.0;" width="10" x="1133.5" y="208.7813"/><ellipse cx="68.5" cy="65.4141" fill="none" rx="4" ry="4" style="stroke:#181818;stroke-width:1.5;"/><polygon fill="#181818" points="116,62.1641,126,66.1641,116,70.1641,120,66.1641" style="stroke:#181818;stroke-width:1.0;"/><line style="stroke:#181818;stroke-width:1.0;" x1="73" x2="122" y1="66.1641" y2="66.1641"/><text fill="#000000" font-family="sans-serif" font-size="13" font-weight="bold" lengthAdjust="spacing" textLength="7" x="76" y="61.4092">1</text><text fill="#000000" font-family="sans-serif" font-size="13" lengthAdjust="spacing" textLength="26" x="87" y="61.4092">GET</text><polygon fill="#181818" points="432,90.6875,442,94.6875,432,98.6875,436,94.6875" style="stroke:#181818;stroke-width:1.0;"/><line style="stroke:#181818;stroke-width:1.0;" x1="138" x2="438" y1="94.6875" y2="94.6875"/><text fill="#000000" font-family="sans-serif" font-size="13" font-weight="bold" lengthAdjust="spacing" textLength="7" x="145" y="89.9326">2</text><text fill="#000000" font-family="sans-serif" font-size="13" lengthAdjust="spacing" textLength="276" x="156" y="89.9326">listBuildingsByMaxAndMinFloors(req, res, next)</text><polygon fill="#181818" points="721,119.2109,731,123.2109,721,127.2109,725,123.2109" style="stroke:#181818;stroke-width:1.0;"/><line style="stroke:#181818;stroke-width:1.0;" x1="454" x2="727" y1="123.2109" y2="123.2109"/><text fill="#000000" font-family="sans-serif" font-size="13" font-weight="bold" lengthAdjust="spacing" textLength="7" x="461" y="118.4561">3</text><text fill="#000000" font-family="sans-serif" font-size="13" lengthAdjust="spacing" textLength="249" x="472" y="118.4561">listBuildingsByMaxAndMinFloors(max,min)</text><polygon fill="#181818" points="1013,147.7344,1023,151.7344,1013,155.7344,1017,151.7344" style="stroke:#181818;stroke-width:1.0;"/><line style="stroke:#181818;stroke-width:1.0;" x1="743" x2="1019" y1="151.7344" y2="151.7344"/><text fill="#000000" font-family="sans-serif" font-size="13" font-weight="bold" lengthAdjust="spacing" textLength="7" x="750" y="146.9795">4</text><text fill="#000000" font-family="sans-serif" font-size="13" lengthAdjust="spacing" textLength="252" x="761" y="146.9795">findBuildingsByMaxAndMinFloors(max,min)</text><polygon fill="#181818" points="754,176.2578,744,180.2578,754,184.2578,750,180.2578" style="stroke:#181818;stroke-width:1.0;"/><line style="stroke:#181818;stroke-width:1.0;stroke-dasharray:2.0,2.0;" x1="748" x2="1029" y1="180.2578" y2="180.2578"/><text fill="#000000" font-family="sans-serif" font-size="13" font-weight="bold" lengthAdjust="spacing" textLength="7" x="760" y="175.5029">5</text><text fill="#000000" font-family="sans-serif" font-size="13" lengthAdjust="spacing" textLength="65" x="771" y="175.5029">buildingList</text><polygon fill="#181818" points="1121.5,204.7813,1131.5,208.7813,1121.5,212.7813,1125.5,208.7813" style="stroke:#181818;stroke-width:1.0;"/><line style="stroke:#181818;stroke-width:1.0;" x1="743" x2="1127.5" y1="208.7813" y2="208.7813"/><text fill="#000000" font-family="sans-serif" font-size="13" font-weight="bold" lengthAdjust="spacing" textLength="7" x="750" y="204.0264">6</text><text fill="#000000" font-family="sans-serif" font-size="13" lengthAdjust="spacing" textLength="110" x="761" y="204.0264">toDTO(buildingList)</text><polygon fill="#181818" points="1233,233.3047,1243,237.3047,1233,241.3047,1237,237.3047" style="stroke:#181818;stroke-width:1.0;"/><line style="stroke:#181818;stroke-width:1.0;" x1="1138.5" x2="1239" y1="237.3047" y2="237.3047"/><text fill="#000000" font-family="sans-serif" font-size="13" font-weight="bold" lengthAdjust="spacing" textLength="7" x="1145.5" y="232.5498">7</text><text fill="#000000" font-family="sans-serif" font-size="13" lengthAdjust="spacing" textLength="44" x="1156.5" y="232.5498">create()</text><polygon fill="#181818" points="465,261.8281,455,265.8281,465,269.8281,461,265.8281" style="stroke:#181818;stroke-width:1.0;"/><line style="stroke:#181818;stroke-width:1.0;stroke-dasharray:2.0,2.0;" x1="459" x2="737" y1="265.8281" y2="265.8281"/><text fill="#000000" font-family="sans-serif" font-size="13" font-weight="bold" lengthAdjust="spacing" textLength="7" x="471" y="261.0732">8</text><text fill="#000000" font-family="sans-serif" font-size="13" lengthAdjust="spacing" textLength="91" x="482" y="261.0732">buildingListDTO</text><polygon fill="#181818" points="149,290.3516,139,294.3516,149,298.3516,145,294.3516" style="stroke:#181818;stroke-width:1.0;"/><line style="stroke:#181818;stroke-width:1.0;stroke-dasharray:2.0,2.0;" x1="143" x2="448" y1="294.3516" y2="294.3516"/><text fill="#000000" font-family="sans-serif" font-size="13" font-weight="bold" lengthAdjust="spacing" textLength="7" x="155" y="289.5967">9</text><text fill="#000000" font-family="sans-serif" font-size="13" lengthAdjust="spacing" textLength="91" x="166" y="289.5967">buildingListDTO</text><polygon fill="#181818" points="11,318.875,1,322.875,11,326.875,7,322.875" style="stroke:#181818;stroke-width:1.0;"/><line style="stroke:#181818;stroke-width:1.0;stroke-dasharray:2.0,2.0;" x1="5" x2="132" y1="322.875" y2="322.875"/><text fill="#000000" font-family="sans-serif" font-size="13" font-weight="bold" lengthAdjust="spacing" textLength="14" x="17" y="318.1201">10</text><text fill="#000000" font-family="sans-serif" font-size="13" lengthAdjust="spacing" textLength="91" x="35" y="318.1201">buildingListDTO</text><!--SRC=[bLBBJiCm4BplLwnwIgNa1onKH7bTY92WF-0c2xBasC5ngl3tsCPjbagXS8Xs4ytCxin6ZjwQiTkJ0-YbywfHlJGULs8xAjqgy_vYHqyhb0C-Q6lT6Uf93Vw876evrSeas71hZNTMQtA9Ex_-LU2Lt44rtvDplxGXzJR1OhE0gMMV8A4k8EvspmaHAi2rhJPf3O6FzpkGZLS7wIb70AbWjM6s16hkPFiPlDoOzcIdSFHHegEXH4EJNy-QB1gO-wYURL-KxkHKTiempMDWa9ke5jCH-APC-o-f52f0B5ZnfVPP9LuGMlf9O7D3v0Az3RaMdC96nAE49u83IZIEmjTYpKKZP1OzIvxBnlCntYa8dcoWv-F-mkHdkQggouJyRtm1]--></g></svg>
