<?xml version="1.0" encoding="us-ascii" standalone="no"?><svg xmlns="http://www.w3.org/2000/svg" xmlns:xlink="http://www.w3.org/1999/xlink" contentStyleType="text/css" height="280.8px" preserveAspectRatio="none" style="width:616px;height:280px;background:#FFFFFF;" version="1.1" viewBox="0 0 616 280" width="616.8px" zoomAndPan="magnify"><defs/><g><rect fill="#FFFFFF" height="22.8188" style="stroke:#181818;stroke-width:0.8000000000000002;" width="8" x="352.8" y="88.9313"/><rect fill="#FFFFFF" height="68.4563" style="stroke:#181818;stroke-width:0.8000000000000002;" width="8" x="352.8" y="134.5688"/><rect fill="#FFFFFF" height="22.8188" style="stroke:#181818;stroke-width:0.8000000000000002;" width="8" x="546.4" y="157.3875"/><line style="stroke:#181818;stroke-width:0.4000000000000001;stroke-dasharray:5.0,5.0;" x1="51.2" x2="51.2" y1="64.5125" y2="217.425"/><line style="stroke:#181818;stroke-width:0.4000000000000001;stroke-dasharray:5.0,5.0;" x1="356.8" x2="356.8" y1="64.5125" y2="217.425"/><line style="stroke:#181818;stroke-width:0.4000000000000001;stroke-dasharray:5.0,5.0;" x1="550.4" x2="550.4" y1="64.5125" y2="217.425"/><text fill="#000000" font-family="sans-serif" font-size="11.2" lengthAdjust="spacing" textLength="89.6" x="4" y="62.1391">Campus Manager</text><ellipse cx="51.2" cy="10.8" fill="#E2E2F0" rx="6.4" ry="6.4" style="stroke:#181818;stroke-width:0.4000000000000001;"/><path d="M51.2,17.2 L51.2,38.8 M40.8,23.6 L61.6,23.6 M51.2,38.8 L40.8,50.8 M51.2,38.8 L61.6,50.8 " fill="none" style="stroke:#181818;stroke-width:0.4000000000000001;"/><text fill="#000000" font-family="sans-serif" font-size="11.2" lengthAdjust="spacing" textLength="89.6" x="4" y="226.7641">Campus Manager</text><ellipse cx="51.2" cy="235.9375" fill="#E2E2F0" rx="6.4" ry="6.4" style="stroke:#181818;stroke-width:0.4000000000000001;"/><path d="M51.2,242.3375 L51.2,263.9375 M40.8,248.7375 L61.6,248.7375 M51.2,263.9375 L40.8,275.9375 M51.2,263.9375 L61.6,275.9375 " fill="none" style="stroke:#181818;stroke-width:0.4000000000000001;"/><rect fill="#E2E2F0" height="23.7125" rx="2" ry="2" style="stroke:#181818;stroke-width:0.4000000000000001;" width="73.6" x="320" y="40"/><text fill="#000000" font-family="sans-serif" font-size="11.2" lengthAdjust="spacing" textLength="62.4" x="325.6" y="55.7391">Visualiza&#231;&#227;o</text><rect fill="#E2E2F0" height="23.7125" rx="2" ry="2" style="stroke:#181818;stroke-width:0.4000000000000001;" width="73.6" x="320" y="216.625"/><text fill="#000000" font-family="sans-serif" font-size="11.2" lengthAdjust="spacing" textLength="62.4" x="325.6" y="232.3641">Visualiza&#231;&#227;o</text><rect fill="#E2E2F0" height="23.7125" rx="2" ry="2" style="stroke:#181818;stroke-width:0.4000000000000001;" width="123.2" x="488.8" y="40"/><text fill="#000000" font-family="sans-serif" font-size="11.2" lengthAdjust="spacing" textLength="112" x="494.4" y="55.7391">Gest&#227;o de Informa&#231;&#227;o</text><rect fill="#E2E2F0" height="23.7125" rx="2" ry="2" style="stroke:#181818;stroke-width:0.4000000000000001;" width="123.2" x="488.8" y="216.625"/><text fill="#000000" font-family="sans-serif" font-size="11.2" lengthAdjust="spacing" textLength="112" x="494.4" y="232.3641">Gest&#227;o de Informa&#231;&#227;o</text><rect fill="#FFFFFF" height="22.8188" style="stroke:#181818;stroke-width:0.8000000000000002;" width="8" x="352.8" y="88.9313"/><rect fill="#FFFFFF" height="68.4563" style="stroke:#181818;stroke-width:0.8000000000000002;" width="8" x="352.8" y="134.5688"/><rect fill="#FFFFFF" height="22.8188" style="stroke:#181818;stroke-width:0.8000000000000002;" width="8" x="546.4" y="157.3875"/><polygon fill="#181818" points="343.2,85.7313,351.2,88.9313,343.2,92.1313,346.4,88.9313" style="stroke:#181818;stroke-width:0.8000000000000002;"/><line style="stroke:#181818;stroke-width:0.8000000000000002;" x1="51.2" x2="348" y1="88.9313" y2="88.9313"/><text fill="#000000" font-family="sans-serif" font-size="10.4" font-weight="bold" lengthAdjust="spacing" textLength="5.6" x="56.8" y="85.1273">1</text><text fill="#000000" font-family="sans-serif" font-size="10.4" lengthAdjust="spacing" textLength="277.6" x="65.6" y="85.1273">Starts the process to  list buildings with min and max floors.</text><polygon fill="#181818" points="60,108.55,52,111.75,60,114.95,56.8,111.75" style="stroke:#181818;stroke-width:0.8000000000000002;"/><line style="stroke:#181818;stroke-width:0.8000000000000002;stroke-dasharray:2.0,2.0;" x1="55.2" x2="356" y1="111.75" y2="111.75"/><text fill="#000000" font-family="sans-serif" font-size="10.4" font-weight="bold" lengthAdjust="spacing" textLength="5.6" x="64.8" y="107.9461">2</text><text fill="#000000" font-family="sans-serif" font-size="10.4" lengthAdjust="spacing" textLength="140.8" x="73.6" y="107.9461">Request max and min of floors</text><polygon fill="#181818" points="343.2,131.3688,351.2,134.5688,343.2,137.7688,346.4,134.5688" style="stroke:#181818;stroke-width:0.8000000000000002;"/><line style="stroke:#181818;stroke-width:0.8000000000000002;" x1="51.2" x2="348" y1="134.5688" y2="134.5688"/><text fill="#000000" font-family="sans-serif" font-size="10.4" font-weight="bold" lengthAdjust="spacing" textLength="5.6" x="56.8" y="130.7648">3</text><text fill="#000000" font-family="sans-serif" font-size="10.4" lengthAdjust="spacing" textLength="68.8" x="65.6" y="130.7648">Types the data</text><polygon fill="#181818" points="536.8,154.1875,544.8,157.3875,536.8,160.5875,540,157.3875" style="stroke:#181818;stroke-width:0.8000000000000002;"/><line style="stroke:#181818;stroke-width:0.8000000000000002;" x1="360.8" x2="541.6" y1="157.3875" y2="157.3875"/><text fill="#000000" font-family="sans-serif" font-size="10.4" font-weight="bold" lengthAdjust="spacing" textLength="5.6" x="366.4" y="153.5836">4</text><text fill="#000000" font-family="sans-serif" font-size="10.4" lengthAdjust="spacing" textLength="161.6" x="375.2" y="153.5836">GET buildingsByMaxAndMinFloors</text><polygon fill="#181818" points="369.6,177.0063,361.6,180.2063,369.6,183.4063,366.4,180.2063" style="stroke:#181818;stroke-width:0.8000000000000002;"/><line style="stroke:#181818;stroke-width:0.8000000000000002;stroke-dasharray:2.0,2.0;" x1="364.8" x2="549.6" y1="180.2063" y2="180.2063"/><text fill="#000000" font-family="sans-serif" font-size="10.4" font-weight="bold" lengthAdjust="spacing" textLength="5.6" x="374.4" y="176.4023">5</text><text fill="#000000" font-family="sans-serif" font-size="10.4" lengthAdjust="spacing" textLength="58.4" x="383.2" y="176.4023">floors(JSON)</text><polygon fill="#181818" points="60,199.825,52,203.025,60,206.225,56.8,203.025" style="stroke:#181818;stroke-width:0.8000000000000002;"/><line style="stroke:#181818;stroke-width:0.8000000000000002;stroke-dasharray:2.0,2.0;" x1="55.2" x2="356" y1="203.025" y2="203.025"/><text fill="#000000" font-family="sans-serif" font-size="10.4" font-weight="bold" lengthAdjust="spacing" textLength="5.6" x="64.8" y="199.2211">6</text><text fill="#000000" font-family="sans-serif" font-size="10.4" lengthAdjust="spacing" textLength="92" x="73.6" y="199.2211">Shows buildings list</text><!--SRC=[VP11JiCm44NtESKegx881uYgIX1152I3H2lsqzXfHahiO8zfotLOS91U33Ufe4qLThR7UlF-Hyz6-tQjR8Gb6mjnXctd7GZKk54s1dIGYQX3orHIXvhXZPp7XZxny7tuCXUZE5UEmoD81OMkZ6s7JpqcBw8e4v0iHeGKbXmO3hXMq5bJAXVE1g0Xnx3sr4ZI6mTRuXfQqe1QGeixg1fZhBizcjC7iXgRNLuX2PipaSAhUlT1iqVqg80qrOaMIJM5cv1VxJirk4jad9Ivibc4GbB87rP_4U_t0dTtMWhIZuFDBosKbnTzXF7-mNlsj7nvlZctFzKzJvBhlckpTMVD7el-B_WF]--></g></svg>