<?xml version="1.0" encoding="us-ascii" standalone="no"?><svg xmlns="http://www.w3.org/2000/svg" xmlns:xlink="http://www.w3.org/1999/xlink" contentStyleType="text/css" height="460.8px" preserveAspectRatio="none" style="width:664px;height:460px;background:#FFFFFF;" version="1.1" viewBox="0 0 664 460" width="664.2px" zoomAndPan="magnify"><defs/><g><rect fill="#FFFFFF" height="389.625" style="stroke:#181818;stroke-width:0.6;" width="6" x="54" y="39.6984"/><rect fill="#FFFFFF" height="355.3969" style="stroke:#181818;stroke-width:0.6;" width="6" x="171" y="56.8125"/><rect fill="#FFFFFF" height="261.1406" style="stroke:#181818;stroke-width:0.6;" width="6" x="296.4" y="73.9266"/><rect fill="#FFFFFF" height="157.5703" style="stroke:#181818;stroke-width:0.6;" width="6" x="412.8" y="108.1547"/><rect fill="#FFFFFF" height="18" style="stroke:#181818;stroke-width:0.6;" width="6" x="484.8" y="160.3828"/><rect fill="#FFFFFF" height="18" style="stroke:#181818;stroke-width:0.6;" width="6" x="484.8" y="230.6109"/><rect fill="#FFFFFF" height="35.1141" style="stroke:#181818;stroke-width:0.6;" width="6" x="484.8" y="282.8391"/><rect fill="#FFFFFF" height="18" style="stroke:#181818;stroke-width:0.6;" width="6" x="561" y="125.2688"/><rect fill="#FFFFFF" height="18" style="stroke:#181818;stroke-width:0.6;" width="6" x="561" y="195.4969"/><rect fill="#FFFFFF" height="18" style="stroke:#181818;stroke-width:0.6;" width="6" x="631.8" y="299.9531"/><rect fill="#FFFFFF" height="18" style="stroke:#181818;stroke-width:0.6;" width="6" x="631.8" y="352.1813"/><line style="stroke:#181818;stroke-width:0.3;stroke-dasharray:5.0,5.0;" x1="57" x2="57" y1="21.3844" y2="440.1234"/><line style="stroke:#181818;stroke-width:0.3;stroke-dasharray:5.0,5.0;" x1="173.7" x2="173.7" y1="21.3844" y2="440.1234"/><line style="stroke:#181818;stroke-width:0.3;stroke-dasharray:5.0,5.0;" x1="299.4" x2="299.4" y1="21.3844" y2="440.1234"/><line style="stroke:#181818;stroke-width:0.3;stroke-dasharray:5.0,5.0;" x1="366" x2="366" y1="21.3844" y2="440.1234"/><line style="stroke:#181818;stroke-width:0.3;stroke-dasharray:5.0,5.0;" x1="415.8" x2="415.8" y1="21.3844" y2="440.1234"/><line style="stroke:#181818;stroke-width:0.3;stroke-dasharray:5.0,5.0;" x1="487.8" x2="487.8" y1="21.3844" y2="440.1234"/><line style="stroke:#181818;stroke-width:0.3;stroke-dasharray:5.0,5.0;" x1="564" x2="564" y1="21.3844" y2="440.1234"/><line style="stroke:#181818;stroke-width:0.3;stroke-dasharray:5.0,5.0;" x1="634.8" x2="634.8" y1="21.3844" y2="440.1234"/><rect fill="#E2E2F0" height="17.7844" rx="1.5" ry="1.5" style="stroke:#181818;stroke-width:0.3;" width="56.4" x="28.8" y="3"/><text fill="#000000" font-family="sans-serif" font-size="8.4" lengthAdjust="spacing" textLength="48" x="33" y="14.8043">:RobotRoute</text><rect fill="#E2E2F0" height="17.7844" rx="1.5" ry="1.5" style="stroke:#181818;stroke-width:0.3;" width="56.4" x="28.8" y="439.5234"/><text fill="#000000" font-family="sans-serif" font-size="8.4" lengthAdjust="spacing" textLength="48" x="33" y="451.3277">:RobotRoute</text><rect fill="#E2E2F0" height="17.7844" rx="1.5" ry="1.5" style="stroke:#181818;stroke-width:0.3;" width="96.6" x="125.7" y="3"/><text fill="#000000" font-family="sans-serif" font-size="8.4" lengthAdjust="spacing" textLength="88.2" x="129.9" y="14.8043">:CreateRobotController</text><rect fill="#E2E2F0" height="17.7844" rx="1.5" ry="1.5" style="stroke:#181818;stroke-width:0.3;" width="96.6" x="125.7" y="439.5234"/><text fill="#000000" font-family="sans-serif" font-size="8.4" lengthAdjust="spacing" textLength="88.2" x="129.9" y="451.3277">:CreateRobotController</text><rect fill="#E2E2F0" height="17.7844" rx="1.5" ry="1.5" style="stroke:#181818;stroke-width:0.3;" width="87.6" x="255.6" y="3"/><text fill="#000000" font-family="sans-serif" font-size="8.4" lengthAdjust="spacing" textLength="79.2" x="259.8" y="14.8043">:CreateRobotService</text><rect fill="#E2E2F0" height="17.7844" rx="1.5" ry="1.5" style="stroke:#181818;stroke-width:0.3;" width="87.6" x="255.6" y="439.5234"/><text fill="#000000" font-family="sans-serif" font-size="8.4" lengthAdjust="spacing" textLength="79.2" x="259.8" y="451.3277">:CreateRobotService</text><rect fill="#E2E2F0" height="17.7844" rx="1.5" ry="1.5" style="stroke:#181818;stroke-width:0.3;" width="33.6" x="349.2" y="3"/><text fill="#000000" font-family="sans-serif" font-size="8.4" lengthAdjust="spacing" textLength="25.2" x="353.4" y="14.8043">:Robot</text><rect fill="#E2E2F0" height="17.7844" rx="1.5" ry="1.5" style="stroke:#181818;stroke-width:0.3;" width="33.6" x="349.2" y="439.5234"/><text fill="#000000" font-family="sans-serif" font-size="8.4" lengthAdjust="spacing" textLength="25.2" x="353.4" y="451.3277">:Robot</text><rect fill="#E2E2F0" height="17.7844" rx="1.5" ry="1.5" style="stroke:#181818;stroke-width:0.3;" width="54" x="388.8" y="3"/><text fill="#000000" font-family="sans-serif" font-size="8.4" lengthAdjust="spacing" textLength="45.6" x="393" y="14.8043">:RobotRepo</text><rect fill="#E2E2F0" height="17.7844" rx="1.5" ry="1.5" style="stroke:#181818;stroke-width:0.3;" width="54" x="388.8" y="439.5234"/><text fill="#000000" font-family="sans-serif" font-size="8.4" lengthAdjust="spacing" textLength="45.6" x="393" y="451.3277">:RobotRepo</text><rect fill="#E2E2F0" height="17.7844" rx="1.5" ry="1.5" style="stroke:#181818;stroke-width:0.3;" width="62.4" x="456.6" y="3"/><text fill="#000000" font-family="sans-serif" font-size="8.4" lengthAdjust="spacing" textLength="54" x="460.8" y="14.8043">:RobotMapper</text><rect fill="#E2E2F0" height="17.7844" rx="1.5" ry="1.5" style="stroke:#181818;stroke-width:0.3;" width="62.4" x="456.6" y="439.5234"/><text fill="#000000" font-family="sans-serif" font-size="8.4" lengthAdjust="spacing" textLength="54" x="460.8" y="451.3277">:RobotMapper</text><rect fill="#E2E2F0" height="17.7844" rx="1.5" ry="1.5" style="stroke:#181818;stroke-width:0.3;" width="78" x="525" y="3"/><text fill="#000000" font-family="sans-serif" font-size="8.4" lengthAdjust="spacing" textLength="69.6" x="529.2" y="14.8043">:RobotPersistence</text><rect fill="#E2E2F0" height="17.7844" rx="1.5" ry="1.5" style="stroke:#181818;stroke-width:0.3;" width="78" x="525" y="439.5234"/><text fill="#000000" font-family="sans-serif" font-size="8.4" lengthAdjust="spacing" textLength="69.6" x="529.2" y="451.3277">:RobotPersistence</text><rect fill="#E2E2F0" height="17.7844" rx="1.5" ry="1.5" style="stroke:#181818;stroke-width:0.3;" width="51.6" x="609" y="3"/><text fill="#000000" font-family="sans-serif" font-size="8.4" lengthAdjust="spacing" textLength="43.2" x="613.2" y="14.8043">:RobotDTO</text><rect fill="#E2E2F0" height="17.7844" rx="1.5" ry="1.5" style="stroke:#181818;stroke-width:0.3;" width="51.6" x="609" y="439.5234"/><text fill="#000000" font-family="sans-serif" font-size="8.4" lengthAdjust="spacing" textLength="43.2" x="613.2" y="451.3277">:RobotDTO</text><rect fill="#FFFFFF" height="389.625" style="stroke:#181818;stroke-width:0.6;" width="6" x="54" y="39.6984"/><rect fill="#FFFFFF" height="355.3969" style="stroke:#181818;stroke-width:0.6;" width="6" x="171" y="56.8125"/><rect fill="#FFFFFF" height="261.1406" style="stroke:#181818;stroke-width:0.6;" width="6" x="296.4" y="73.9266"/><rect fill="#FFFFFF" height="157.5703" style="stroke:#181818;stroke-width:0.6;" width="6" x="412.8" y="108.1547"/><rect fill="#FFFFFF" height="18" style="stroke:#181818;stroke-width:0.6;" width="6" x="484.8" y="160.3828"/><rect fill="#FFFFFF" height="18" style="stroke:#181818;stroke-width:0.6;" width="6" x="484.8" y="230.6109"/><rect fill="#FFFFFF" height="35.1141" style="stroke:#181818;stroke-width:0.6;" width="6" x="484.8" y="282.8391"/><rect fill="#FFFFFF" height="18" style="stroke:#181818;stroke-width:0.6;" width="6" x="561" y="125.2688"/><rect fill="#FFFFFF" height="18" style="stroke:#181818;stroke-width:0.6;" width="6" x="561" y="195.4969"/><rect fill="#FFFFFF" height="18" style="stroke:#181818;stroke-width:0.6;" width="6" x="631.8" y="299.9531"/><rect fill="#FFFFFF" height="18" style="stroke:#181818;stroke-width:0.6;" width="6" x="631.8" y="352.1813"/><ellipse cx="12.9" cy="39.2484" fill="none" rx="2.4" ry="2.4" style="stroke:#181818;stroke-width:0.8999999999999999;"/><polygon fill="#181818" points="46.8,37.2984,52.8,39.6984,46.8,42.0984,49.2,39.6984" style="stroke:#181818;stroke-width:0.6;"/><line style="stroke:#181818;stroke-width:0.6;" x1="15.6" x2="50.4" y1="39.6984" y2="39.6984"/><text fill="#000000" font-family="sans-serif" font-size="7.8" font-weight="bold" lengthAdjust="spacing" textLength="4.2" x="17.4" y="36.8455">1</text><text fill="#000000" font-family="sans-serif" font-size="7.8" lengthAdjust="spacing" textLength="21" x="24" y="36.8455">POST</text><polygon fill="#181818" points="163.8,54.4125,169.8,56.8125,163.8,59.2125,166.2,56.8125" style="stroke:#181818;stroke-width:0.6;"/><line style="stroke:#181818;stroke-width:0.6;" x1="60" x2="167.4" y1="56.8125" y2="56.8125"/><text fill="#000000" font-family="sans-serif" font-size="7.8" font-weight="bold" lengthAdjust="spacing" textLength="4.2" x="64.2" y="53.9596">2</text><text fill="#000000" font-family="sans-serif" font-size="7.8" lengthAdjust="spacing" textLength="93" x="70.8" y="53.9596">createRobot(req, res, next)</text><polygon fill="#181818" points="289.2,71.5266,295.2,73.9266,289.2,76.3266,291.6,73.9266" style="stroke:#181818;stroke-width:0.6;"/><line style="stroke:#181818;stroke-width:0.6;" x1="177" x2="292.8" y1="73.9266" y2="73.9266"/><text fill="#000000" font-family="sans-serif" font-size="7.8" font-weight="bold" lengthAdjust="spacing" textLength="4.2" x="181.2" y="71.0736">3</text><text fill="#000000" font-family="sans-serif" font-size="7.8" lengthAdjust="spacing" textLength="101.4" x="187.8" y="71.0736">createRobot(createFloorDTO)</text><polygon fill="#181818" points="358.8,88.6406,364.8,91.0406,358.8,93.4406,361.2,91.0406" style="stroke:#181818;stroke-width:0.6;"/><line style="stroke:#181818;stroke-width:0.6;" x1="302.4" x2="362.4" y1="91.0406" y2="91.0406"/><text fill="#000000" font-family="sans-serif" font-size="7.8" font-weight="bold" lengthAdjust="spacing" textLength="4.2" x="306.6" y="88.1877">4</text><text fill="#000000" font-family="sans-serif" font-size="7.8" lengthAdjust="spacing" textLength="21.6" x="313.2" y="88.1877">create</text><polygon fill="#181818" points="405.6,105.7547,411.6,108.1547,405.6,110.5547,408,108.1547" style="stroke:#181818;stroke-width:0.6;"/><line style="stroke:#181818;stroke-width:0.6;" x1="302.4" x2="409.2" y1="108.1547" y2="108.1547"/><text fill="#000000" font-family="sans-serif" font-size="7.8" font-weight="bold" lengthAdjust="spacing" textLength="4.2" x="306.6" y="105.3018">5</text><text fill="#000000" font-family="sans-serif" font-size="7.8" lengthAdjust="spacing" textLength="15.6" x="313.2" y="105.3018">save</text><polygon fill="#181818" points="553.8,122.8687,559.8,125.2688,553.8,127.6687,556.2,125.2688" style="stroke:#181818;stroke-width:0.6;"/><line style="stroke:#181818;stroke-width:0.6;" x1="418.8" x2="557.4" y1="125.2688" y2="125.2688"/><text fill="#000000" font-family="sans-serif" font-size="7.8" font-weight="bold" lengthAdjust="spacing" textLength="4.2" x="423" y="122.4158">6</text><text fill="#000000" font-family="sans-serif" font-size="7.8" lengthAdjust="spacing" textLength="26.4" x="429.6" y="122.4158">findOne</text><polygon fill="#181818" points="477.6,157.9828,483.6,160.3828,477.6,162.7828,480,160.3828" style="stroke:#181818;stroke-width:0.6;"/><line style="stroke:#181818;stroke-width:0.6;" x1="418.8" x2="481.2" y1="160.3828" y2="160.3828"/><text fill="#000000" font-family="sans-serif" font-size="7.8" font-weight="bold" lengthAdjust="spacing" textLength="4.2" x="423" y="157.5299">7</text><text fill="#000000" font-family="sans-serif" font-size="7.8" lengthAdjust="spacing" textLength="48" x="429.6" y="157.5299">toPersistence</text><polygon fill="#181818" points="553.8,193.0969,559.8,195.4969,553.8,197.8969,556.2,195.4969" style="stroke:#181818;stroke-width:0.6;"/><line style="stroke:#181818;stroke-width:0.6;" x1="418.8" x2="557.4" y1="195.4969" y2="195.4969"/><text fill="#000000" font-family="sans-serif" font-size="7.8" font-weight="bold" lengthAdjust="spacing" textLength="4.2" x="423" y="192.6439">8</text><text fill="#000000" font-family="sans-serif" font-size="7.8" lengthAdjust="spacing" textLength="21.6" x="429.6" y="192.6439">create</text><polygon fill="#181818" points="477.6,228.2109,483.6,230.6109,477.6,233.0109,480,230.6109" style="stroke:#181818;stroke-width:0.6;"/><line style="stroke:#181818;stroke-width:0.6;" x1="418.8" x2="481.2" y1="230.6109" y2="230.6109"/><text fill="#000000" font-family="sans-serif" font-size="7.8" font-weight="bold" lengthAdjust="spacing" textLength="4.2" x="423" y="227.758">9</text><text fill="#000000" font-family="sans-serif" font-size="7.8" lengthAdjust="spacing" textLength="33" x="429.6" y="227.758">toDomain</text><polygon fill="#181818" points="309,263.325,303,265.725,309,268.125,306.6,265.725" style="stroke:#181818;stroke-width:0.6;"/><line style="stroke:#181818;stroke-width:0.6;stroke-dasharray:2.0,2.0;" x1="305.4" x2="415.2" y1="265.725" y2="265.725"/><text fill="#000000" font-family="sans-serif" font-size="7.8" font-weight="bold" lengthAdjust="spacing" textLength="8.4" x="312.6" y="262.8721">10</text><text fill="#000000" font-family="sans-serif" font-size="7.8" lengthAdjust="spacing" textLength="2.4" x="323.4" y="262.8721">&#160;</text><polygon fill="#181818" points="477.6,280.4391,483.6,282.8391,477.6,285.2391,480,282.8391" style="stroke:#181818;stroke-width:0.6;"/><line style="stroke:#181818;stroke-width:0.6;" x1="302.4" x2="481.2" y1="282.8391" y2="282.8391"/><text fill="#000000" font-family="sans-serif" font-size="7.8" font-weight="bold" lengthAdjust="spacing" textLength="8.4" x="306.6" y="279.9861">11</text><text fill="#000000" font-family="sans-serif" font-size="7.8" lengthAdjust="spacing" textLength="22.2" x="317.4" y="279.9861">toDTO</text><polygon fill="#181818" points="624.6,297.5531,630.6,299.9531,624.6,302.3531,627,299.9531" style="stroke:#181818;stroke-width:0.6;"/><line style="stroke:#181818;stroke-width:0.6;" x1="490.8" x2="628.2" y1="299.9531" y2="299.9531"/><text fill="#000000" font-family="sans-serif" font-size="7.8" font-weight="bold" lengthAdjust="spacing" textLength="8.4" x="495" y="297.1002">12</text><text fill="#000000" font-family="sans-serif" font-size="7.8" lengthAdjust="spacing" textLength="21.6" x="505.8" y="297.1002">create</text><polygon fill="#181818" points="183.6,332.6672,177.6,335.0672,183.6,337.4672,181.2,335.0672" style="stroke:#181818;stroke-width:0.6;"/><line style="stroke:#181818;stroke-width:0.6;stroke-dasharray:2.0,2.0;" x1="180" x2="298.8" y1="335.0672" y2="335.0672"/><text fill="#000000" font-family="sans-serif" font-size="7.8" font-weight="bold" lengthAdjust="spacing" textLength="8.4" x="187.2" y="332.2143">13</text><text fill="#000000" font-family="sans-serif" font-size="7.8" lengthAdjust="spacing" textLength="2.4" x="198" y="332.2143">&#160;</text><polygon fill="#181818" points="624.6,349.7813,630.6,352.1813,624.6,354.5813,627,352.1813" style="stroke:#181818;stroke-width:0.6;"/><line style="stroke:#181818;stroke-width:0.6;" x1="177" x2="628.2" y1="352.1813" y2="352.1813"/><text fill="#000000" font-family="sans-serif" font-size="7.8" font-weight="bold" lengthAdjust="spacing" textLength="8.4" x="181.2" y="349.3283">14</text><text fill="#000000" font-family="sans-serif" font-size="7.8" lengthAdjust="spacing" textLength="30.6" x="192" y="349.3283">getValue</text><line style="stroke:#181818;stroke-width:0.6;" x1="177" x2="202.2" y1="387.2953" y2="387.2953"/><line style="stroke:#181818;stroke-width:0.6;" x1="202.2" x2="202.2" y1="387.2953" y2="395.0953"/><line style="stroke:#181818;stroke-width:0.6;" x1="177.6" x2="202.2" y1="395.0953" y2="395.0953"/><polygon fill="#181818" points="183.6,392.6953,177.6,395.0953,183.6,397.4953,181.2,395.0953" style="stroke:#181818;stroke-width:0.6;"/><text fill="#000000" font-family="sans-serif" font-size="7.8" font-weight="bold" lengthAdjust="spacing" textLength="8.4" x="181.2" y="384.4424">15</text><text fill="#000000" font-family="sans-serif" font-size="7.8" lengthAdjust="spacing" textLength="45" x="192" y="384.4424">res(201,json)</text><polygon fill="#181818" points="66.6,409.8094,60.6,412.2094,66.6,414.6094,64.2,412.2094" style="stroke:#181818;stroke-width:0.6;"/><line style="stroke:#181818;stroke-width:0.6;stroke-dasharray:2.0,2.0;" x1="63" x2="173.4" y1="412.2094" y2="412.2094"/><text fill="#000000" font-family="sans-serif" font-size="7.8" font-weight="bold" lengthAdjust="spacing" textLength="8.4" x="70.2" y="409.3564">16</text><text fill="#000000" font-family="sans-serif" font-size="7.8" lengthAdjust="spacing" textLength="31.8" x="81" y="409.3564">response</text><polygon fill="#181818" points="6.6,426.9234,0.6,429.3234,6.6,431.7234,4.2,429.3234" style="stroke:#181818;stroke-width:0.6;"/><line style="stroke:#181818;stroke-width:0.6;stroke-dasharray:2.0,2.0;" x1="3" x2="56.4" y1="429.3234" y2="429.3234"/><text fill="#000000" font-family="sans-serif" font-size="7.8" font-weight="bold" lengthAdjust="spacing" textLength="8.4" x="10.2" y="426.4705">17</text><text fill="#000000" font-family="sans-serif" font-size="7.8" lengthAdjust="spacing" textLength="31.8" x="21" y="426.4705">response</text><!--SRC=[hLEnRiCW4Dtv2fGfaMAfxOYgT4ZKhKgKHDs9Sws87Cu57FNp2vZOX-j47Mh9ve1tZtUFismSwkPy0CDOBOrJfQgbTdmYjdX0jyN6mOHBoryhH3E0B0r81n6uHEqCLXMOYEwdjrDsO2wgRDbJF2QXvQkajQC2eSQ82C4Ou4tMTHBbmp741enLre4kIQLaSIndjLz7h1yPUy5Y4PC4twntUoPBfow-okGPYmCl5iGLmSlUYAc1hpatOETSmxURzGJ4Hl_qiq2MBCkPsZWUwAKHfgl1B0LHJZ1Lj2dPHl1IS2ilq1D4Vrdu1iJG8y4_b3wkDGoAfpOUuVPUH-plI727TA_B2lT7ICBqdg9KsFy8Mk5PAlqdBVtTK4Jh7p7vIkmxAAFnRzZswxzB2632EPX64Tq9URzHNDSBUKF54p_1lSkgkN_c896sjU_YwTF3u_naKSzouFMI8gX6RJD_QAi_5yKTPFghVW00]--></g></svg>