<?xml version="1.0" encoding="us-ascii" standalone="no"?><svg xmlns="http://www.w3.org/2000/svg" xmlns:xlink="http://www.w3.org/1999/xlink" contentStyleType="text/css" height="632px" preserveAspectRatio="none" style="width:1238px;height:632px;background:#FFFFFF;" version="1.1" viewBox="0 0 1238 632" width="1238px" zoomAndPan="magnify"><defs/><g><rect fill="#FFFFFF" height="414.2012" style="stroke:#181818;stroke-width:1.0;" width="10" x="136" y="116.9121"/><rect fill="#FFFFFF" height="368.9102" style="stroke:#181818;stroke-width:1.0;" width="10" x="378" y="148.2031"/><rect fill="#FFFFFF" height="323.6191" style="stroke:#181818;stroke-width:1.0;" width="10" x="606" y="179.4941"/><rect fill="#FFFFFF" height="184.4551" style="stroke:#181818;stroke-width:1.0;" width="10" x="722" y="304.6582"/><rect fill="#FFFFFF" height="201.7461" style="stroke:#181818;stroke-width:1.0;" width="10" x="839" y="273.3672"/><rect fill="#FFFFFF" height="360.6191" style="stroke:#181818;stroke-width:1.0;" width="10" x="1005" y="179.4941"/><line style="stroke:#181818;stroke-width:0.5;stroke-dasharray:5.0,5.0;" x1="54" x2="54" y1="83.6211" y2="549.1133"/><line style="stroke:#181818;stroke-width:0.5;stroke-dasharray:5.0,5.0;" x1="141" x2="141" y1="83.6211" y2="549.1133"/><line style="stroke:#181818;stroke-width:0.5;stroke-dasharray:5.0,5.0;" x1="382.5" x2="382.5" y1="83.6211" y2="549.1133"/><line style="stroke:#181818;stroke-width:0.5;stroke-dasharray:5.0,5.0;" x1="610.5" x2="610.5" y1="83.6211" y2="549.1133"/><line style="stroke:#181818;stroke-width:0.5;stroke-dasharray:5.0,5.0;" x1="727" x2="727" y1="83.6211" y2="549.1133"/><line style="stroke:#181818;stroke-width:0.5;stroke-dasharray:5.0,5.0;" x1="843.5" x2="843.5" y1="83.6211" y2="549.1133"/><line style="stroke:#181818;stroke-width:0.5;stroke-dasharray:5.0,5.0;" x1="1010" x2="1010" y1="83.6211" y2="549.1133"/><line style="stroke:#181818;stroke-width:0.5;stroke-dasharray:5.0,5.0;" x1="1187" x2="1187" y1="83.6211" y2="549.1133"/><text fill="#000000" font-family="sans-serif" font-size="14" lengthAdjust="spacing" textLength="92" x="5" y="80.1074">Fleet Manager</text><ellipse cx="54" cy="13.5" fill="#E2E2F0" rx="8" ry="8" style="stroke:#181818;stroke-width:0.5;"/><path d="M54,21.5 L54,48.5 M41,29.5 L67,29.5 M54,48.5 L41,63.5 M54,48.5 L67,63.5 " fill="none" style="stroke:#181818;stroke-width:0.5;"/><text fill="#000000" font-family="sans-serif" font-size="14" lengthAdjust="spacing" textLength="92" x="5" y="563.2207">Fleet Manager</text><ellipse cx="54" cy="575.2344" fill="#E2E2F0" rx="8" ry="8" style="stroke:#181818;stroke-width:0.5;"/><path d="M54,583.2344 L54,610.2344 M41,591.2344 L67,591.2344 M54,610.2344 L41,625.2344 M54,610.2344 L67,625.2344 " fill="none" style="stroke:#181818;stroke-width:0.5;"/><rect fill="#E2E2F0" height="32.6211" rx="2.5" ry="2.5" style="stroke:#181818;stroke-width:0.5;" width="52" x="115" y="50"/><text fill="#000000" font-family="sans-serif" font-size="14" lengthAdjust="spacing" textLength="38" x="122" y="72.1074">Robot</text><rect fill="#E2E2F0" height="32.6211" rx="2.5" ry="2.5" style="stroke:#181818;stroke-width:0.5;" width="52" x="115" y="548.1133"/><text fill="#000000" font-family="sans-serif" font-size="14" lengthAdjust="spacing" textLength="38" x="122" y="570.2207">Robot</text><rect fill="#E2E2F0" height="32.6211" rx="2.5" ry="2.5" style="stroke:#181818;stroke-width:0.5;" width="75" x="345.5" y="50"/><text fill="#000000" font-family="sans-serif" font-size="14" lengthAdjust="spacing" textLength="61" x="352.5" y="72.1074">Nickname</text><rect fill="#E2E2F0" height="32.6211" rx="2.5" ry="2.5" style="stroke:#181818;stroke-width:0.5;" width="75" x="345.5" y="548.1133"/><text fill="#000000" font-family="sans-serif" font-size="14" lengthAdjust="spacing" textLength="61" x="352.5" y="570.2207">Nickname</text><rect fill="#E2E2F0" height="32.6211" rx="2.5" ry="2.5" style="stroke:#181818;stroke-width:0.5;" width="121" x="550.5" y="50"/><text fill="#000000" font-family="sans-serif" font-size="14" lengthAdjust="spacing" textLength="107" x="557.5" y="72.1074">CreateNewRobot</text><rect fill="#E2E2F0" height="32.6211" rx="2.5" ry="2.5" style="stroke:#181818;stroke-width:0.5;" width="121" x="550.5" y="548.1133"/><text fill="#000000" font-family="sans-serif" font-size="14" lengthAdjust="spacing" textLength="107" x="557.5" y="570.2207">CreateNewRobot</text><rect fill="#E2E2F0" height="32.6211" rx="2.5" ry="2.5" style="stroke:#181818;stroke-width:0.5;" width="64" x="695" y="50"/><text fill="#000000" font-family="sans-serif" font-size="14" lengthAdjust="spacing" textLength="50" x="702" y="72.1074">Building</text><rect fill="#E2E2F0" height="32.6211" rx="2.5" ry="2.5" style="stroke:#181818;stroke-width:0.5;" width="64" x="695" y="548.1133"/><text fill="#000000" font-family="sans-serif" font-size="14" lengthAdjust="spacing" textLength="50" x="702" y="570.2207">Building</text><rect fill="#E2E2F0" height="32.6211" rx="2.5" ry="2.5" style="stroke:#181818;stroke-width:0.5;" width="91" x="798.5" y="50"/><text fill="#000000" font-family="sans-serif" font-size="14" lengthAdjust="spacing" textLength="77" x="805.5" y="72.1074">BuildingMap</text><rect fill="#E2E2F0" height="32.6211" rx="2.5" ry="2.5" style="stroke:#181818;stroke-width:0.5;" width="91" x="798.5" y="548.1133"/><text fill="#000000" font-family="sans-serif" font-size="14" lengthAdjust="spacing" textLength="77" x="805.5" y="570.2207">BuildingMap</text><rect fill="#E2E2F0" height="32.6211" rx="2.5" ry="2.5" style="stroke:#181818;stroke-width:0.5;" width="86" x="967" y="50"/><text fill="#000000" font-family="sans-serif" font-size="14" lengthAdjust="spacing" textLength="72" x="974" y="72.1074">RobotRepo</text><rect fill="#E2E2F0" height="32.6211" rx="2.5" ry="2.5" style="stroke:#181818;stroke-width:0.5;" width="86" x="967" y="548.1133"/><text fill="#000000" font-family="sans-serif" font-size="14" lengthAdjust="spacing" textLength="72" x="974" y="570.2207">RobotRepo</text><text fill="#000000" font-family="sans-serif" font-size="14" lengthAdjust="spacing" textLength="94" x="1137" y="80.1074">robotDatabase</text><path d="M1169,29 C1169,19 1187,19 1187,19 C1187,19 1205,19 1205,29 L1205,55 C1205,65 1187,65 1187,65 C1187,65 1169,65 1169,55 L1169,29 " fill="#E2E2F0" style="stroke:#181818;stroke-width:1.5;"/><path d="M1169,29 C1169,39 1187,39 1187,39 C1187,39 1205,39 1205,29 " fill="none" style="stroke:#181818;stroke-width:1.5;"/><text fill="#000000" font-family="sans-serif" font-size="14" lengthAdjust="spacing" textLength="94" x="1137" y="563.2207">robotDatabase</text><path d="M1169,576.7344 C1169,566.7344 1187,566.7344 1187,566.7344 C1187,566.7344 1205,566.7344 1205,576.7344 L1205,602.7344 C1205,612.7344 1187,612.7344 1187,612.7344 C1187,612.7344 1169,612.7344 1169,602.7344 L1169,576.7344 " fill="#E2E2F0" style="stroke:#181818;stroke-width:1.5;"/><path d="M1169,576.7344 C1169,586.7344 1187,586.7344 1187,586.7344 C1187,586.7344 1205,586.7344 1205,576.7344 " fill="none" style="stroke:#181818;stroke-width:1.5;"/><rect fill="#FFFFFF" height="414.2012" style="stroke:#181818;stroke-width:1.0;" width="10" x="136" y="116.9121"/><rect fill="#FFFFFF" height="368.9102" style="stroke:#181818;stroke-width:1.0;" width="10" x="378" y="148.2031"/><rect fill="#FFFFFF" height="323.6191" style="stroke:#181818;stroke-width:1.0;" width="10" x="606" y="179.4941"/><rect fill="#FFFFFF" height="184.4551" style="stroke:#181818;stroke-width:1.0;" width="10" x="722" y="304.6582"/><rect fill="#FFFFFF" height="201.7461" style="stroke:#181818;stroke-width:1.0;" width="10" x="839" y="273.3672"/><rect fill="#FFFFFF" height="360.6191" style="stroke:#181818;stroke-width:1.0;" width="10" x="1005" y="179.4941"/><polygon fill="#181818" points="124,112.9121,134,116.9121,124,120.9121,128,116.9121" style="stroke:#181818;stroke-width:1.0;"/><line style="stroke:#181818;stroke-width:1.0;" x1="54" x2="130" y1="116.9121" y2="116.9121"/><text fill="#000000" font-family="sans-serif" font-size="13" lengthAdjust="spacing" textLength="63" x="61" y="111.6494">data JSON</text><polygon fill="#181818" points="366,144.2031,376,148.2031,366,152.2031,370,148.2031" style="stroke:#181818;stroke-width:1.0;"/><line style="stroke:#181818;stroke-width:1.0;" x1="146" x2="372" y1="148.2031" y2="148.2031"/><text fill="#000000" font-family="sans-serif" font-size="13" lengthAdjust="spacing" textLength="213" x="153" y="142.9404">createFloor(floorJSON, buildingCode)</text><polygon fill="#181818" points="594,175.4941,604,179.4941,594,183.4941,598,179.4941" style="stroke:#181818;stroke-width:1.0;"/><line style="stroke:#181818;stroke-width:1.0;" x1="388" x2="600" y1="179.4941" y2="179.4941"/><text fill="#000000" font-family="sans-serif" font-size="13" lengthAdjust="spacing" textLength="199" x="395" y="174.2314">createFloor(floorDto, buildingCode)</text><polygon fill="#181818" points="993,206.7852,1003,210.7852,993,214.7852,997,210.7852" style="stroke:#181818;stroke-width:1.0;"/><line style="stroke:#181818;stroke-width:1.0;" x1="616" x2="999" y1="210.7852" y2="210.7852"/><text fill="#000000" font-family="sans-serif" font-size="13" lengthAdjust="spacing" textLength="148" x="623" y="205.5225">findByCode(buildingCode)</text><polygon fill="#181818" points="1175,238.0762,1185,242.0762,1175,246.0762,1179,242.0762" style="stroke:#181818;stroke-width:1.0;"/><line style="stroke:#181818;stroke-width:1.0;" x1="1015" x2="1181" y1="242.0762" y2="242.0762"/><text fill="#000000" font-family="sans-serif" font-size="13" lengthAdjust="spacing" textLength="148" x="1022" y="236.8135">findByCode(buildingCode)</text><polygon fill="#181818" points="860,269.3672,850,273.3672,860,277.3672,856,273.3672" style="stroke:#181818;stroke-width:1.0;"/><line style="stroke:#181818;stroke-width:1.0;" x1="854" x2="1004" y1="273.3672" y2="273.3672"/><text fill="#000000" font-family="sans-serif" font-size="13" lengthAdjust="spacing" textLength="107" x="866" y="268.1045">toDomain(building)</text><polygon fill="#181818" points="743,300.6582,733,304.6582,743,308.6582,739,304.6582" style="stroke:#181818;stroke-width:1.0;"/><line style="stroke:#181818;stroke-width:1.0;" x1="737" x2="838" y1="304.6582" y2="304.6582"/><text fill="#000000" font-family="sans-serif" font-size="13" lengthAdjust="spacing" textLength="88" x="749" y="299.3955">create(building)</text><polygon fill="#181818" points="627,314.6582,617,318.6582,627,322.6582,623,318.6582" style="stroke:#181818;stroke-width:1.0;"/><line style="stroke:#181818;stroke-width:1.0;stroke-dasharray:2.0,2.0;" x1="621" x2="1004" y1="318.6582" y2="318.6582"/><polygon fill="#181818" points="710,345.9492,720,349.9492,710,353.9492,714,349.9492" style="stroke:#181818;stroke-width:1.0;"/><line style="stroke:#181818;stroke-width:1.0;" x1="616" x2="716" y1="349.9492" y2="349.9492"/><text fill="#000000" font-family="sans-serif" font-size="13" lengthAdjust="spacing" textLength="82" x="623" y="344.6865">addFloor(floor)</text><polygon fill="#181818" points="993,377.2402,1003,381.2402,993,385.2402,997,381.2402" style="stroke:#181818;stroke-width:1.0;"/><line style="stroke:#181818;stroke-width:1.0;" x1="616" x2="999" y1="381.2402" y2="381.2402"/><text fill="#000000" font-family="sans-serif" font-size="13" lengthAdjust="spacing" textLength="78" x="623" y="375.9775">save(building)</text><polygon fill="#181818" points="860,408.5313,850,412.5313,860,416.5313,856,412.5313" style="stroke:#181818;stroke-width:1.0;"/><line style="stroke:#181818;stroke-width:1.0;" x1="854" x2="1004" y1="412.5313" y2="412.5313"/><text fill="#000000" font-family="sans-serif" font-size="13" lengthAdjust="spacing" textLength="132" x="866" y="407.2686">toPersistence(building)</text><polygon fill="#181818" points="1175,439.8223,1185,443.8223,1175,447.8223,1179,443.8223" style="stroke:#181818;stroke-width:1.0;"/><line style="stroke:#181818;stroke-width:1.0;" x1="1015" x2="1181" y1="443.8223" y2="443.8223"/><text fill="#000000" font-family="sans-serif" font-size="13" lengthAdjust="spacing" textLength="78" x="1022" y="438.5596">save(building)</text><polygon fill="#181818" points="855,471.1133,845,475.1133,855,479.1133,851,475.1133" style="stroke:#181818;stroke-width:1.0;"/><line style="stroke:#181818;stroke-width:1.0;" x1="849" x2="1004" y1="475.1133" y2="475.1133"/><text fill="#000000" font-family="sans-serif" font-size="13" lengthAdjust="spacing" textLength="107" x="861" y="469.8506">toDomain(building)</text><polygon fill="#181818" points="627,485.1133,617,489.1133,627,493.1133,623,489.1133" style="stroke:#181818;stroke-width:1.0;"/><line style="stroke:#181818;stroke-width:1.0;stroke-dasharray:2.0,2.0;" x1="621" x2="1004" y1="489.1133" y2="489.1133"/><polygon fill="#181818" points="399,499.1133,389,503.1133,399,507.1133,395,503.1133" style="stroke:#181818;stroke-width:1.0;"/><line style="stroke:#181818;stroke-width:1.0;" x1="393" x2="610" y1="503.1133" y2="503.1133"/><polygon fill="#181818" points="157,513.1133,147,517.1133,157,521.1133,153,517.1133" style="stroke:#181818;stroke-width:1.0;"/><line style="stroke:#181818;stroke-width:1.0;" x1="151" x2="382" y1="517.1133" y2="517.1133"/><polygon fill="#181818" points="65,527.1133,55,531.1133,65,535.1133,61,531.1133" style="stroke:#181818;stroke-width:1.0;"/><line style="stroke:#181818;stroke-width:1.0;" x1="59" x2="140" y1="531.1133" y2="531.1133"/><!--SRC=[bLInReCm5Dpz5LQM9b9JzWmTaeYX4hHAl-1Xlr2hO2DZKlNlQmS2DX3QBfOmT_VkpeQ73sEgUXT5LG7ID6Nnn5GPDJLk6TY52yWrb8GGO4PfkeeBH4CJa92ZNb6eQPoG2hGHJ5HMWPvKfaomamhsAQ74OFEW4Goc-3N5xnjHS27psSq4gkcu4rQAS32GMSzKkwrZzqH8dD3jSukZE-fGzENzDNM1nCLww1oJ5c6XDxyMpQukuq8flJwxrJ4VQTQPEIYEcq6e3qfw2IiN9fqJFHfrLtFKKsZwcfkC1jp2kfTssbb8llzsgkjm11bGbXAKzdUQTooMPDHHbI1aJ_62-0T8V9gdqfUp910ucFGxLuSd3vnxnMz-Aw-6Y-zbEViRwbhK1YMxpndN_Ay1at8vpjUxND0CQww7_WxxXB6MVz6dyiC7qQlQluMFQ3a_]--></g></svg>