<?xml version="1.0" encoding="UTF-8" standalone="no"?><svg xmlns="http://www.w3.org/2000/svg" xmlns:xlink="http://www.w3.org/1999/xlink" contentStyleType="text/css" height="253px" preserveAspectRatio="none" style="width:352px;height:253px;background:#FFFFFF;" version="1.1" viewBox="0 0 352 253" width="352px" zoomAndPan="magnify"><defs/><g><g id="cluster_##2"><rect fill="#36827F" height="240" rx="2.5" ry="2.5" style="stroke:#181818;stroke-width:1.0;" width="339" x="7" y="7"/></g><!--MD5=[8560f289a30852a9f75d64e53f926853]
class Building--><g id="elem_Building"><rect codeLine="4" fill="#F1F1F1" height="73.7969" id="Building" rx="2.5" ry="2.5" style="stroke:#181818;stroke-width:0.5;" width="82" x="144" y="23"/><ellipse cx="159" cy="51.8984" fill="#ADD1B2" rx="11" ry="11" style="stroke:#181818;stroke-width:1.0;"/><path d="M161.7656,47.7734 Q161.9219,47.5547 162.1094,47.4453 Q162.2969,47.3359 162.5156,47.3359 Q162.8906,47.3359 163.125,47.6016 Q163.3594,47.8516 163.3594,48.4609 L163.3594,49.9141 Q163.3594,50.5234 163.125,50.7891 Q162.8906,51.0547 162.5156,51.0547 Q162.1719,51.0547 161.9688,50.8516 Q161.7656,50.6641 161.6563,50.1484 Q161.6094,49.7891 161.4219,49.6016 Q161.0938,49.2266 160.4844,49.0078 Q159.875,48.7891 159.25,48.7891 Q158.4844,48.7891 157.8438,49.1172 Q157.2188,49.4453 156.7188,50.1953 Q156.2344,50.9453 156.2344,51.9766 L156.2344,53.0703 Q156.2344,54.3047 157.125,55.1328 Q158.0156,55.9453 159.6094,55.9453 Q160.5469,55.9453 161.2031,55.6953 Q161.5938,55.5391 162.0156,55.1016 Q162.2813,54.8359 162.4219,54.7578 Q162.5781,54.6797 162.7813,54.6797 Q163.1094,54.6797 163.3594,54.9453 Q163.625,55.1953 163.625,55.5391 Q163.625,55.8828 163.2813,56.2891 Q162.7813,56.8672 161.9844,57.1953 Q160.9063,57.6484 159.6094,57.6484 Q158.0938,57.6484 156.8906,57.0234 Q155.9063,56.5234 155.2188,55.4609 Q154.5313,54.3828 154.5313,53.1016 L154.5313,51.9453 Q154.5313,50.6172 155.1406,49.4766 Q155.7656,48.3203 156.8594,47.7109 Q157.9531,47.0859 159.1875,47.0859 Q159.9219,47.0859 160.5625,47.2578 Q161.2188,47.4141 161.7656,47.7734 Z " fill="#000000"/><text fill="#000000" font-family="sans-serif" font-size="12" font-style="italic" lengthAdjust="spacing" textLength="40" x="178" y="40.457">«Root»</text><text fill="#000000" font-family="sans-serif" font-size="12" font-style="italic" lengthAdjust="spacing" textLength="44" x="176" y="55.5508">«Entity»</text><text fill="#000000" font-family="sans-serif" font-size="14" lengthAdjust="spacing" textLength="50" x="173" y="72.7207">Building</text><line style="stroke:#181818;stroke-width:0.5;" x1="145" x2="225" y1="80.7969" y2="80.7969"/><line style="stroke:#181818;stroke-width:0.5;" x1="145" x2="225" y1="88.7969" y2="88.7969"/></g><!--MD5=[c0b459e78c8de4b6fd0153dde2bd0f96]
class BuildingDescription--><g id="elem_BuildingDescription"><rect codeLine="5" fill="#F1F1F1" height="58.7031" id="BuildingDescription" rx="2.5" ry="2.5" style="stroke:#181818;stroke-width:0.5;" width="153" x="23.5" y="164.5"/><ellipse cx="38.5" cy="185.8516" fill="#A4C2E5" rx="11" ry="11" style="stroke:#181818;stroke-width:1.0;"/><path d="M39.1094,188.7891 L40.9531,185.0234 Q40.2656,185.0234 40.0781,184.8984 Q39.6563,184.6484 39.6563,184.1641 Q39.6563,183.7891 39.9219,183.5547 Q40.1875,183.3203 40.7969,183.3203 L43.125,183.3203 Q43.75,183.3203 44,183.5547 Q44.2656,183.7891 44.2656,184.1641 Q44.2656,184.5391 44,184.7891 Q43.75,185.0234 43.125,185.0234 L42.8438,185.0234 L40,190.8516 L38.2188,190.8516 L35.375,185.0234 L35.1406,185.0234 Q34.5156,185.0234 34.25,184.7891 Q34,184.5391 34,184.1641 Q34,183.7891 34.25,183.5547 Q34.5156,183.3203 35.1406,183.3203 L37.4219,183.3203 Q38.0313,183.3203 38.2813,183.5547 Q38.5469,183.7891 38.5469,184.1641 Q38.5469,184.6484 38.1563,184.8984 Q37.9531,185.0234 37.2656,185.0234 L39.1094,188.7891 Z " fill="#000000"/><text fill="#000000" font-family="sans-serif" font-size="12" font-style="italic" lengthAdjust="spacing" textLength="82" x="72" y="181.957">«ValueObject»</text><text fill="#000000" font-family="sans-serif" font-size="14" lengthAdjust="spacing" textLength="121" x="52.5" y="199.127">BuildingDescription</text><line style="stroke:#181818;stroke-width:0.5;" x1="24.5" x2="175.5" y1="207.2031" y2="207.2031"/><line style="stroke:#181818;stroke-width:0.5;" x1="24.5" x2="175.5" y1="215.2031" y2="215.2031"/></g><!--MD5=[454d980de7ec19c426bfaad009ef01a6]
class BuildingName--><g id="elem_BuildingName"><rect codeLine="6" fill="#F1F1F1" height="73.7969" id="BuildingName" rx="2.5" ry="2.5" style="stroke:#181818;stroke-width:0.5;" width="118" x="212" y="157"/><ellipse cx="227" cy="185.8984" fill="#FFA500" rx="11" ry="11" style="stroke:#181818;stroke-width:1.0;"/><path d="M227.6094,188.8359 L229.4531,185.0703 Q228.7656,185.0703 228.5781,184.9453 Q228.1563,184.6953 228.1563,184.2109 Q228.1563,183.8359 228.4219,183.6016 Q228.6875,183.3672 229.2969,183.3672 L231.625,183.3672 Q232.25,183.3672 232.5,183.6016 Q232.7656,183.8359 232.7656,184.2109 Q232.7656,184.5859 232.5,184.8359 Q232.25,185.0703 231.625,185.0703 L231.3438,185.0703 L228.5,190.8984 L226.7188,190.8984 L223.875,185.0703 L223.6406,185.0703 Q223.0156,185.0703 222.75,184.8359 Q222.5,184.5859 222.5,184.2109 Q222.5,183.8359 222.75,183.6016 Q223.0156,183.3672 223.6406,183.3672 L225.9219,183.3672 Q226.5313,183.3672 226.7813,183.6016 Q227.0469,183.8359 227.0469,184.2109 Q227.0469,184.6953 226.6563,184.9453 Q226.4531,185.0703 225.7656,185.0703 L227.6094,188.8359 Z " fill="#000000"/><text fill="#000000" font-family="sans-serif" font-size="12" font-style="italic" lengthAdjust="spacing" textLength="82" x="243" y="174.457">«ValueObject»</text><text fill="#000000" font-family="sans-serif" font-size="12" font-style="italic" lengthAdjust="spacing" textLength="52" x="258" y="189.5508">«unique»</text><text fill="#000000" font-family="sans-serif" font-size="14" lengthAdjust="spacing" textLength="86" x="241" y="206.7207">BuildingName</text><line style="stroke:#181818;stroke-width:0.5;" x1="213" x2="329" y1="214.7969" y2="214.7969"/><line style="stroke:#181818;stroke-width:0.5;" x1="213" x2="329" y1="222.7969" y2="222.7969"/></g><!--MD5=[c7c2c2b6fa1af21c048badd80363f7c7]
link Building to BuildingDescription--><g id="link_Building_BuildingDescription"><path codeLine="9" d="M161.77,97.07 C149.16,116.66 133.67,140.7 121.36,159.82 " fill="none" id="Building-to-BuildingDescription" style="stroke:#181818;stroke-width:1.0;"/><polygon fill="#181818" points="118.63,164.07,126.8662,158.6695,121.3374,159.8664,120.1404,154.3377,118.63,164.07" style="stroke:#181818;stroke-width:1.0;"/><text fill="#000000" font-family="sans-serif" font-size="13" lengthAdjust="spacing" textLength="5" x="152.3477" y="118.3592">*</text><text fill="#000000" font-family="sans-serif" font-size="13" lengthAdjust="spacing" textLength="22" x="98.2037" y="153.8089">0..1</text></g><!--MD5=[53e22fe04d307f496c435aecb681f20c]
link Building to BuildingName--><g id="link_Building_BuildingName"><path codeLine="10" d="M208.5,97.07 C219.69,114.24 233.11,134.84 244.64,152.54 " fill="none" id="Building-to-BuildingName" style="stroke:#181818;stroke-width:1.0;"/><polygon fill="#181818" points="247.53,156.97,245.9812,147.2437,244.8061,152.7771,239.2726,151.602,247.53,156.97" style="stroke:#181818;stroke-width:1.0;"/><text fill="#000000" font-family="sans-serif" font-size="13" lengthAdjust="spacing" textLength="7" x="204.9375" y="118.3592">1</text><text fill="#000000" font-family="sans-serif" font-size="13" lengthAdjust="spacing" textLength="7" x="235.5574" y="146.2138">1</text></g><!--MD5=[6ab305ff81873c756fff43ff127e8a3e]
@startuml DomainModelExcerpt
'https://plantuml.com/use-case-diagram

rectangle #36827F{
class Building  << Root >> << Entity >>
class BuildingDescription  << (v,#A4C2E5) ValueObject >>
class BuildingName  << (v,orange) ValueObject >> << unique >>
}

Building "*"- ->"0..1" BuildingDescription
Building "1"- ->"1" BuildingName

@enduml

@startuml DomainModelExcerpt

rectangle #36827F{
class Building  << Root >> << Entity >>
class BuildingDescription  << (v,#A4C2E5) ValueObject >>
class BuildingName  << (v,orange) ValueObject >> << unique >>
}

Building "*"- ->"0..1" BuildingDescription
Building "1"- ->"1" BuildingName

@enduml

PlantUML version 1.2022.7(Mon Aug 22 18:01:30 WEST 2022)
(GPL source distribution)
Java Runtime: Java(TM) SE Runtime Environment
JVM: Java HotSpot(TM) 64-Bit Server VM
Default Encoding: UTF-8
Language: pt
Country: PT
--></g></svg>