<?xml version="1.0" encoding="UTF-8" standalone="no"?><svg xmlns="http://www.w3.org/2000/svg" xmlns:xlink="http://www.w3.org/1999/xlink" contentStyleType="text/css" height="730px" preserveAspectRatio="none" style="width:1474px;height:730px;background:#FFFFFF;" version="1.1" viewBox="0 0 1474 730" width="1474px" zoomAndPan="magnify"><defs/><g><rect fill="#FFFFFF" height="515.625" style="stroke:#181818;stroke-width:1.0;" width="10" x="235" y="114.9609"/><rect fill="#FFFFFF" height="454.9219" style="stroke:#181818;stroke-width:1.0;" width="10" x="426" y="145.3125"/><rect fill="#FFFFFF" height="394.2188" style="stroke:#181818;stroke-width:1.0;" width="10" x="636" y="175.6641"/><rect fill="#FFFFFF" height="303.1641" style="stroke:#181818;stroke-width:1.0;" width="10" x="832" y="236.3672"/><rect fill="#FFFFFF" height="242.4609" style="stroke:#181818;stroke-width:1.0;" width="10" x="982" y="266.7188"/><rect fill="#FFFFFF" height="303.1641" style="stroke:#181818;stroke-width:1.0;" width="10" x="1080" y="206.0156"/><rect fill="#FFFFFF" height="90.7031" style="stroke:#181818;stroke-width:1.0;" width="10" x="1189" y="479.1797"/><rect fill="#FFFFFF" height="182.1094" style="stroke:#181818;stroke-width:1.0;" width="10" x="1291" y="236.3672"/><line style="stroke:#181818;stroke-width:0.5;stroke-dasharray:5.0,5.0;" x1="64" x2="64" y1="82.6094" y2="648.5859"/><line style="stroke:#181818;stroke-width:0.5;stroke-dasharray:5.0,5.0;" x1="239.5" x2="239.5" y1="82.6094" y2="648.5859"/><line style="stroke:#181818;stroke-width:0.5;stroke-dasharray:5.0,5.0;" x1="430.5" x2="430.5" y1="82.6094" y2="648.5859"/><line style="stroke:#181818;stroke-width:0.5;stroke-dasharray:5.0,5.0;" x1="640.5" x2="640.5" y1="82.6094" y2="648.5859"/><line style="stroke:#181818;stroke-width:0.5;stroke-dasharray:5.0,5.0;" x1="837" x2="837" y1="82.6094" y2="648.5859"/><line style="stroke:#181818;stroke-width:0.5;stroke-dasharray:5.0,5.0;" x1="987" x2="987" y1="82.6094" y2="648.5859"/><line style="stroke:#181818;stroke-width:0.5;stroke-dasharray:5.0,5.0;" x1="1085" x2="1085" y1="82.6094" y2="648.5859"/><line style="stroke:#181818;stroke-width:0.5;stroke-dasharray:5.0,5.0;" x1="1194" x2="1194" y1="82.6094" y2="648.5859"/><line style="stroke:#181818;stroke-width:0.5;stroke-dasharray:5.0,5.0;" x1="1296" x2="1296" y1="82.6094" y2="648.5859"/><line style="stroke:#181818;stroke-width:0.5;stroke-dasharray:5.0,5.0;" x1="1438.5" x2="1438.5" y1="82.6094" y2="648.5859"/><text fill="#000000" font-family="sans-serif" font-size="14" lengthAdjust="spacing" textLength="112" x="5" y="79.5332">Campus Manager</text><ellipse cx="64" cy="13.5" fill="#E2E2F0" rx="8" ry="8" style="stroke:#181818;stroke-width:0.5;"/><path d="M64,21.5 L64,48.5 M51,29.5 L77,29.5 M64,48.5 L51,63.5 M64,48.5 L77,63.5 " fill="none" style="stroke:#181818;stroke-width:0.5;"/><text fill="#000000" font-family="sans-serif" font-size="14" lengthAdjust="spacing" textLength="112" x="5" y="662.1191">Campus Manager</text><ellipse cx="64" cy="673.6953" fill="#E2E2F0" rx="8" ry="8" style="stroke:#181818;stroke-width:0.5;"/><path d="M64,681.6953 L64,708.6953 M51,689.6953 L77,689.6953 M64,708.6953 L51,723.6953 M64,708.6953 L77,723.6953 " fill="none" style="stroke:#181818;stroke-width:0.5;"/><rect fill="#E2E2F0" height="31.6094" rx="2.5" ry="2.5" style="stroke:#181818;stroke-width:0.5;" width="111" x="184.5" y="50"/><text fill="#000000" font-family="sans-serif" font-size="14" lengthAdjust="spacing" textLength="97" x="191.5" y="71.5332">RequestingApp</text><rect fill="#E2E2F0" height="31.6094" rx="2.5" ry="2.5" style="stroke:#181818;stroke-width:0.5;" width="111" x="184.5" y="647.5859"/><text fill="#000000" font-family="sans-serif" font-size="14" lengthAdjust="spacing" textLength="97" x="191.5" y="669.1191">RequestingApp</text><rect fill="#E2E2F0" height="31.6094" rx="2.5" ry="2.5" style="stroke:#181818;stroke-width:0.5;" width="145" x="358.5" y="50"/><text fill="#000000" font-family="sans-serif" font-size="14" lengthAdjust="spacing" textLength="131" x="365.5" y="71.5332">CreateBuildingRoute</text><rect fill="#E2E2F0" height="31.6094" rx="2.5" ry="2.5" style="stroke:#181818;stroke-width:0.5;" width="145" x="358.5" y="647.5859"/><text fill="#000000" font-family="sans-serif" font-size="14" lengthAdjust="spacing" textLength="131" x="365.5" y="669.1191">CreateBuildingRoute</text><rect fill="#E2E2F0" height="31.6094" rx="2.5" ry="2.5" style="stroke:#181818;stroke-width:0.5;" width="169" x="556.5" y="50"/><text fill="#000000" font-family="sans-serif" font-size="14" lengthAdjust="spacing" textLength="155" x="563.5" y="71.5332">CreateBuildingController</text><rect fill="#E2E2F0" height="31.6094" rx="2.5" ry="2.5" style="stroke:#181818;stroke-width:0.5;" width="169" x="556.5" y="647.5859"/><text fill="#000000" font-family="sans-serif" font-size="14" lengthAdjust="spacing" textLength="155" x="563.5" y="669.1191">CreateBuildingController</text><rect fill="#E2E2F0" height="31.6094" rx="2.5" ry="2.5" style="stroke:#181818;stroke-width:0.5;" width="154" x="760" y="50"/><text fill="#000000" font-family="sans-serif" font-size="14" lengthAdjust="spacing" textLength="140" x="767" y="71.5332">CreateBuildingService</text><rect fill="#E2E2F0" height="31.6094" rx="2.5" ry="2.5" style="stroke:#181818;stroke-width:0.5;" width="154" x="760" y="647.5859"/><text fill="#000000" font-family="sans-serif" font-size="14" lengthAdjust="spacing" textLength="140" x="767" y="669.1191">CreateBuildingService</text><rect fill="#E2E2F0" height="31.6094" rx="2.5" ry="2.5" style="stroke:#181818;stroke-width:0.5;" width="64" x="955" y="50"/><text fill="#000000" font-family="sans-serif" font-size="14" lengthAdjust="spacing" textLength="50" x="962" y="71.5332">Building</text><rect fill="#E2E2F0" height="31.6094" rx="2.5" ry="2.5" style="stroke:#181818;stroke-width:0.5;" width="64" x="955" y="647.5859"/><text fill="#000000" font-family="sans-serif" font-size="14" lengthAdjust="spacing" textLength="50" x="962" y="669.1191">Building</text><rect fill="#E2E2F0" height="31.6094" rx="2.5" ry="2.5" style="stroke:#181818;stroke-width:0.5;" width="112" x="1029" y="50"/><text fill="#000000" font-family="sans-serif" font-size="14" lengthAdjust="spacing" textLength="98" x="1036" y="71.5332">BuildingMapper</text><rect fill="#E2E2F0" height="31.6094" rx="2.5" ry="2.5" style="stroke:#181818;stroke-width:0.5;" width="112" x="1029" y="647.5859"/><text fill="#000000" font-family="sans-serif" font-size="14" lengthAdjust="spacing" textLength="98" x="1036" y="669.1191">BuildingMapper</text><rect fill="#E2E2F0" height="31.6094" rx="2.5" ry="2.5" style="stroke:#181818;stroke-width:0.5;" width="86" x="1151" y="50"/><text fill="#000000" font-family="sans-serif" font-size="14" lengthAdjust="spacing" textLength="72" x="1158" y="71.5332">BuildingDto</text><rect fill="#E2E2F0" height="31.6094" rx="2.5" ry="2.5" style="stroke:#181818;stroke-width:0.5;" width="86" x="1151" y="647.5859"/><text fill="#000000" font-family="sans-serif" font-size="14" lengthAdjust="spacing" textLength="72" x="1158" y="669.1191">BuildingDto</text><rect fill="#E2E2F0" height="31.6094" rx="2.5" ry="2.5" style="stroke:#181818;stroke-width:0.5;" width="98" x="1247" y="50"/><text fill="#000000" font-family="sans-serif" font-size="14" lengthAdjust="spacing" textLength="84" x="1254" y="71.5332">BuildingRepo</text><rect fill="#E2E2F0" height="31.6094" rx="2.5" ry="2.5" style="stroke:#181818;stroke-width:0.5;" width="98" x="1247" y="647.5859"/><text fill="#000000" font-family="sans-serif" font-size="14" lengthAdjust="spacing" textLength="84" x="1254" y="669.1191">BuildingRepo</text><text fill="#000000" font-family="sans-serif" font-size="14" lengthAdjust="spacing" textLength="59" x="1406.5" y="79.5332">database</text><path d="M1421,29 C1421,19 1439,19 1439,19 C1439,19 1457,19 1457,29 L1457,55 C1457,65 1439,65 1439,65 C1439,65 1421,65 1421,55 L1421,29 " fill="#E2E2F0" style="stroke:#181818;stroke-width:1.5;"/><path d="M1421,29 C1421,39 1439,39 1439,39 C1439,39 1457,39 1457,29 " fill="none" style="stroke:#181818;stroke-width:1.5;"/><text fill="#000000" font-family="sans-serif" font-size="14" lengthAdjust="spacing" textLength="59" x="1406.5" y="662.1191">database</text><path d="M1421,675.1953 C1421,665.1953 1439,665.1953 1439,665.1953 C1439,665.1953 1457,665.1953 1457,675.1953 L1457,701.1953 C1457,711.1953 1439,711.1953 1439,711.1953 C1439,711.1953 1421,711.1953 1421,701.1953 L1421,675.1953 " fill="#E2E2F0" style="stroke:#181818;stroke-width:1.5;"/><path d="M1421,675.1953 C1421,685.1953 1439,685.1953 1439,685.1953 C1439,685.1953 1457,685.1953 1457,675.1953 " fill="none" style="stroke:#181818;stroke-width:1.5;"/><rect fill="#FFFFFF" height="515.625" style="stroke:#181818;stroke-width:1.0;" width="10" x="235" y="114.9609"/><rect fill="#FFFFFF" height="454.9219" style="stroke:#181818;stroke-width:1.0;" width="10" x="426" y="145.3125"/><rect fill="#FFFFFF" height="394.2188" style="stroke:#181818;stroke-width:1.0;" width="10" x="636" y="175.6641"/><rect fill="#FFFFFF" height="303.1641" style="stroke:#181818;stroke-width:1.0;" width="10" x="832" y="236.3672"/><rect fill="#FFFFFF" height="242.4609" style="stroke:#181818;stroke-width:1.0;" width="10" x="982" y="266.7188"/><rect fill="#FFFFFF" height="303.1641" style="stroke:#181818;stroke-width:1.0;" width="10" x="1080" y="206.0156"/><rect fill="#FFFFFF" height="90.7031" style="stroke:#181818;stroke-width:1.0;" width="10" x="1189" y="479.1797"/><rect fill="#FFFFFF" height="182.1094" style="stroke:#181818;stroke-width:1.0;" width="10" x="1291" y="236.3672"/><polygon fill="#181818" points="223,110.9609,233,114.9609,223,118.9609,227,114.9609" style="stroke:#181818;stroke-width:1.0;"/><line style="stroke:#181818;stroke-width:1.0;" x1="64" x2="229" y1="114.9609" y2="114.9609"/><text fill="#000000" font-family="sans-serif" font-size="13" font-weight="bold" lengthAdjust="spacing" textLength="7" x="71" y="110.1045">1</text><text fill="#000000" font-family="sans-serif" font-size="13" lengthAdjust="spacing" textLength="141" x="82" y="110.1045">request building creation</text><polygon fill="#181818" points="414,141.3125,424,145.3125,414,149.3125,418,145.3125" style="stroke:#181818;stroke-width:1.0;"/><line style="stroke:#181818;stroke-width:1.0;" x1="245" x2="420" y1="145.3125" y2="145.3125"/><text fill="#000000" font-family="sans-serif" font-size="13" font-weight="bold" lengthAdjust="spacing" textLength="7" x="252" y="140.4561">2</text><text fill="#000000" font-family="sans-serif" font-size="13" lengthAdjust="spacing" textLength="111" x="263" y="140.4561">/post buildingJSON</text><polygon fill="#181818" points="624,171.6641,634,175.6641,624,179.6641,628,175.6641" style="stroke:#181818;stroke-width:1.0;"/><line style="stroke:#181818;stroke-width:1.0;" x1="436" x2="630" y1="175.6641" y2="175.6641"/><text fill="#000000" font-family="sans-serif" font-size="13" font-weight="bold" lengthAdjust="spacing" textLength="7" x="443" y="170.8076">3</text><text fill="#000000" font-family="sans-serif" font-size="13" lengthAdjust="spacing" textLength="170" x="454" y="170.8076">createBuilding(BuildingJSON)</text><polygon fill="#181818" points="1068,202.0156,1078,206.0156,1068,210.0156,1072,206.0156" style="stroke:#181818;stroke-width:1.0;"/><line style="stroke:#181818;stroke-width:1.0;" x1="646" x2="1074" y1="206.0156" y2="206.0156"/><text fill="#000000" font-family="sans-serif" font-size="13" font-weight="bold" lengthAdjust="spacing" textLength="7" x="653" y="201.1592">4</text><text fill="#000000" font-family="sans-serif" font-size="13" lengthAdjust="spacing" textLength="117" x="664" y="201.1592">toDto(buildingJSON)</text><polygon fill="#181818" points="820,232.3672,830,236.3672,820,240.3672,824,236.3672" style="stroke:#181818;stroke-width:1.0;"/><line style="stroke:#181818;stroke-width:1.0;" x1="646" x2="826" y1="236.3672" y2="236.3672"/><text fill="#000000" font-family="sans-serif" font-size="13" font-weight="bold" lengthAdjust="spacing" textLength="7" x="653" y="231.5107">5</text><text fill="#000000" font-family="sans-serif" font-size="13" lengthAdjust="spacing" textLength="156" x="664" y="231.5107">createBuilding(BuildingDto)</text><polygon fill="#181818" points="970,262.7188,980,266.7188,970,270.7188,974,266.7188" style="stroke:#181818;stroke-width:1.0;"/><line style="stroke:#181818;stroke-width:1.0;" x1="842" x2="976" y1="266.7188" y2="266.7188"/><text fill="#000000" font-family="sans-serif" font-size="13" font-weight="bold" lengthAdjust="spacing" textLength="7" x="849" y="261.8623">6</text><text fill="#000000" font-family="sans-serif" font-size="13" lengthAdjust="spacing" textLength="110" x="860" y="261.8623">create(BuildingDto)</text><polygon fill="#181818" points="1279,293.0703,1289,297.0703,1279,301.0703,1283,297.0703" style="stroke:#181818;stroke-width:1.0;"/><line style="stroke:#181818;stroke-width:1.0;" x1="842" x2="1285" y1="297.0703" y2="297.0703"/><text fill="#000000" font-family="sans-serif" font-size="13" font-weight="bold" lengthAdjust="spacing" textLength="7" x="849" y="292.2139">7</text><text fill="#000000" font-family="sans-serif" font-size="13" lengthAdjust="spacing" textLength="78" x="860" y="292.2139">save(building)</text><polygon fill="#181818" points="1101,323.4219,1091,327.4219,1101,331.4219,1097,327.4219" style="stroke:#181818;stroke-width:1.0;"/><line style="stroke:#181818;stroke-width:1.0;" x1="1095" x2="1290" y1="327.4219" y2="327.4219"/><text fill="#000000" font-family="sans-serif" font-size="13" font-weight="bold" lengthAdjust="spacing" textLength="7" x="1107" y="322.5654">8</text><text fill="#000000" font-family="sans-serif" font-size="13" lengthAdjust="spacing" textLength="132" x="1118" y="322.5654">toPersistence(building)</text><polygon fill="#181818" points="1427,353.7734,1437,357.7734,1427,361.7734,1431,357.7734" style="stroke:#181818;stroke-width:1.0;"/><line style="stroke:#181818;stroke-width:1.0;" x1="1301" x2="1433" y1="357.7734" y2="357.7734"/><text fill="#000000" font-family="sans-serif" font-size="13" font-weight="bold" lengthAdjust="spacing" textLength="7" x="1308" y="352.917">9</text><text fill="#000000" font-family="sans-serif" font-size="13" lengthAdjust="spacing" textLength="103" x="1319" y="352.917">save(buildingRaw)</text><polygon fill="#181818" points="1101,384.125,1091,388.125,1101,392.125,1097,388.125" style="stroke:#181818;stroke-width:1.0;"/><line style="stroke:#181818;stroke-width:1.0;" x1="1095" x2="1290" y1="388.125" y2="388.125"/><text fill="#000000" font-family="sans-serif" font-size="13" font-weight="bold" lengthAdjust="spacing" textLength="14" x="1107" y="383.2686">10</text><text fill="#000000" font-family="sans-serif" font-size="13" lengthAdjust="spacing" textLength="132" x="1125" y="383.2686">toDomain(buildingRaw)</text><polygon fill="#181818" points="853,414.4766,843,418.4766,853,422.4766,849,418.4766" style="stroke:#181818;stroke-width:1.0;"/><line style="stroke:#181818;stroke-width:1.0;stroke-dasharray:2.0,2.0;" x1="847" x2="1295" y1="418.4766" y2="418.4766"/><text fill="#000000" font-family="sans-serif" font-size="13" font-weight="bold" lengthAdjust="spacing" textLength="14" x="859" y="413.6201">11</text><text fill="#000000" font-family="sans-serif" font-size="13" lengthAdjust="spacing" textLength="4" x="877" y="413.6201"> </text><polygon fill="#181818" points="1068,444.8281,1078,448.8281,1068,452.8281,1072,448.8281" style="stroke:#181818;stroke-width:1.0;"/><line style="stroke:#181818;stroke-width:1.0;" x1="842" x2="1074" y1="448.8281" y2="448.8281"/><text fill="#000000" font-family="sans-serif" font-size="13" font-weight="bold" lengthAdjust="spacing" textLength="14" x="849" y="443.9717">12</text><text fill="#000000" font-family="sans-serif" font-size="13" lengthAdjust="spacing" textLength="83" x="867" y="443.9717">toDto(building)</text><polygon fill="#181818" points="1177,475.1797,1187,479.1797,1177,483.1797,1181,479.1797" style="stroke:#181818;stroke-width:1.0;"/><line style="stroke:#181818;stroke-width:1.0;" x1="1090" x2="1183" y1="479.1797" y2="479.1797"/><text fill="#000000" font-family="sans-serif" font-size="13" font-weight="bold" lengthAdjust="spacing" textLength="14" x="1097" y="474.3232">13</text><text fill="#000000" font-family="sans-serif" font-size="13" lengthAdjust="spacing" textLength="36" x="1115" y="474.3232">create</text><polygon fill="#181818" points="657,535.5313,647,539.5313,657,543.5313,653,539.5313" style="stroke:#181818;stroke-width:1.0;"/><line style="stroke:#181818;stroke-width:1.0;" x1="651" x2="836" y1="539.5313" y2="539.5313"/><text fill="#000000" font-family="sans-serif" font-size="13" font-weight="bold" lengthAdjust="spacing" textLength="14" x="663" y="534.6748">14</text><text fill="#000000" font-family="sans-serif" font-size="13" lengthAdjust="spacing" textLength="4" x="681" y="534.6748"> </text><polygon fill="#181818" points="447,565.8828,437,569.8828,447,573.8828,443,569.8828" style="stroke:#181818;stroke-width:1.0;"/><line style="stroke:#181818;stroke-width:1.0;" x1="441" x2="640" y1="569.8828" y2="569.8828"/><text fill="#000000" font-family="sans-serif" font-size="13" font-weight="bold" lengthAdjust="spacing" textLength="14" x="453" y="565.0264">15</text><text fill="#000000" font-family="sans-serif" font-size="13" lengthAdjust="spacing" textLength="139" x="471" y="565.0264">code 201, buildingJSON</text><polygon fill="#181818" points="256,596.2344,246,600.2344,256,604.2344,252,600.2344" style="stroke:#181818;stroke-width:1.0;"/><line style="stroke:#181818;stroke-width:1.0;" x1="250" x2="430" y1="600.2344" y2="600.2344"/><text fill="#000000" font-family="sans-serif" font-size="13" font-weight="bold" lengthAdjust="spacing" textLength="14" x="262" y="595.3779">16</text><text fill="#000000" font-family="sans-serif" font-size="13" lengthAdjust="spacing" textLength="139" x="280" y="595.3779">code 201, buildingJSON</text><polygon fill="#181818" points="75,626.5859,65,630.5859,75,634.5859,71,630.5859" style="stroke:#181818;stroke-width:1.0;"/><line style="stroke:#181818;stroke-width:1.0;" x1="69" x2="239" y1="630.5859" y2="630.5859"/><text fill="#000000" font-family="sans-serif" font-size="13" font-weight="bold" lengthAdjust="spacing" textLength="14" x="81" y="625.7295">17</text><text fill="#000000" font-family="sans-serif" font-size="13" lengthAdjust="spacing" textLength="4" x="99" y="625.7295"> </text><!--MD5=[f6a9adcaf5fd027381013a541a416caa]
@startuml sequenceDiagram
'https://plantuml.com/sequence-diagram

autonumber
actor "Campus Manager" as CM

participant RequestingApp
participant CreateBuildingRoute
participant CreateBuildingController
participant CreateBuildingService
participant Building
participant BuildingMapper
participant BuildingDto
participant BuildingRepo
database database


CM -> RequestingApp : request building creation

activate RequestingApp
RequestingApp -> CreateBuildingRoute : /post buildingJSON

activate CreateBuildingRoute
CreateBuildingRoute -> CreateBuildingController : createBuilding(BuildingJSON)

activate CreateBuildingController

CreateBuildingController -> BuildingMapper : toDto(buildingJSON)
activate BuildingMapper

CreateBuildingController -> CreateBuildingService : createBuilding(BuildingDto) 

activate CreateBuildingService
activate BuildingRepo

CreateBuildingService -> Building : create(BuildingDto)
activate Building

CreateBuildingService -> BuildingRepo : save(building)

BuildingRepo -> BuildingMapper : toPersistence(building)

BuildingRepo -> database : save(buildingRaw)

BuildingRepo -> BuildingMapper : toDomain(buildingRaw)

BuildingRepo - -> CreateBuildingService
deactivate BuildingRepo

CreateBuildingService -> BuildingMapper : toDto(building)

BuildingMapper -> BuildingDto : create
activate BuildingDto

deactivate Building

deactivate BuildingMapper

CreateBuildingService -> CreateBuildingController
deactivate CreateBuildingService


CreateBuildingController -> CreateBuildingRoute : code 201, buildingJSON
deactivate CreateBuildingController

deactivate BuildingDto

CreateBuildingRoute -> RequestingApp : code 201, buildingJSON
deactivate CreateBuildingRoute

RequestingApp -> CM
deactivate RequestingApp

@enduml

@startuml sequenceDiagram

autonumber
actor "Campus Manager" as CM

participant RequestingApp
participant CreateBuildingRoute
participant CreateBuildingController
participant CreateBuildingService
participant Building
participant BuildingMapper
participant BuildingDto
participant BuildingRepo
database database


CM -> RequestingApp : request building creation

activate RequestingApp
RequestingApp -> CreateBuildingRoute : /post buildingJSON

activate CreateBuildingRoute
CreateBuildingRoute -> CreateBuildingController : createBuilding(BuildingJSON)

activate CreateBuildingController

CreateBuildingController -> BuildingMapper : toDto(buildingJSON)
activate BuildingMapper

CreateBuildingController -> CreateBuildingService : createBuilding(BuildingDto) 

activate CreateBuildingService
activate BuildingRepo

CreateBuildingService -> Building : create(BuildingDto)
activate Building

CreateBuildingService -> BuildingRepo : save(building)

BuildingRepo -> BuildingMapper : toPersistence(building)

BuildingRepo -> database : save(buildingRaw)

BuildingRepo -> BuildingMapper : toDomain(buildingRaw)

BuildingRepo - -> CreateBuildingService
deactivate BuildingRepo

CreateBuildingService -> BuildingMapper : toDto(building)

BuildingMapper -> BuildingDto : create
activate BuildingDto

deactivate Building

deactivate BuildingMapper

CreateBuildingService -> CreateBuildingController
deactivate CreateBuildingService


CreateBuildingController -> CreateBuildingRoute : code 201, buildingJSON
deactivate CreateBuildingController

deactivate BuildingDto

CreateBuildingRoute -> RequestingApp : code 201, buildingJSON
deactivate CreateBuildingRoute

RequestingApp -> CM
deactivate RequestingApp

@enduml

PlantUML version 1.2022.7(Mon Aug 22 18:01:30 WEST 2022)
(GPL source distribution)
Java Runtime: Java(TM) SE Runtime Environment
JVM: Java HotSpot(TM) 64-Bit Server VM
Default Encoding: UTF-8
Language: en
Country: US
--></g></svg>