<?xml version="1.0" encoding="us-ascii" standalone="no"?><svg xmlns="http://www.w3.org/2000/svg" xmlns:xlink="http://www.w3.org/1999/xlink" contentStyleType="text/css" height="458px" preserveAspectRatio="none" style="width:615px;height:458px;background:#FFFFFF;" version="1.1" viewBox="0 0 615 458" width="615px" zoomAndPan="magnify"><defs/><g><g id="cluster_##2"><rect fill="#464D77" height="445" rx="2.5" ry="2.5" style="stroke:#181818;stroke-width:1.0;" width="602" x="7" y="7"/></g><!--class Robot--><g id="elem_Robot"><rect codeLine="5" fill="#F1F1F1" height="68.4531" id="Robot" rx="2.5" ry="2.5" style="stroke:#181818;stroke-width:0.5;" width="72" x="258" y="138"/><ellipse cx="273" cy="164.2266" fill="#ADD1B2" rx="11" ry="11" style="stroke:#181818;stroke-width:1.0;"/><path d="M275.7656,160.1016 Q275.9219,159.8828 276.1094,159.7734 Q276.2969,159.6641 276.5156,159.6641 Q276.8906,159.6641 277.125,159.9297 Q277.3594,160.1797 277.3594,160.7891 L277.3594,162.2422 Q277.3594,162.8516 277.125,163.1172 Q276.8906,163.3828 276.5156,163.3828 Q276.1719,163.3828 275.9688,163.1797 Q275.7656,162.9922 275.6563,162.4766 Q275.6094,162.1172 275.4219,161.9297 Q275.0938,161.5547 274.4844,161.3359 Q273.875,161.1172 273.25,161.1172 Q272.4844,161.1172 271.8438,161.4453 Q271.2188,161.7734 270.7188,162.5234 Q270.2344,163.2734 270.2344,164.3047 L270.2344,165.3984 Q270.2344,166.6328 271.125,167.4609 Q272.0156,168.2734 273.6094,168.2734 Q274.5469,168.2734 275.2031,168.0234 Q275.5938,167.8672 276.0156,167.4297 Q276.2813,167.1641 276.4219,167.0859 Q276.5781,167.0078 276.7813,167.0078 Q277.1094,167.0078 277.3594,167.2734 Q277.625,167.5234 277.625,167.8672 Q277.625,168.2109 277.2813,168.6172 Q276.7813,169.1953 275.9844,169.5234 Q274.9063,169.9766 273.6094,169.9766 Q272.0938,169.9766 270.8906,169.3516 Q269.9063,168.8516 269.2188,167.7891 Q268.5313,166.7109 268.5313,165.4297 L268.5313,164.2734 Q268.5313,162.9453 269.1406,161.8047 Q269.7656,160.6484 270.8594,160.0391 Q271.9531,159.4141 273.1875,159.4141 Q273.9219,159.4141 274.5625,159.5859 Q275.2188,159.7422 275.7656,160.1016 Z " fill="#000000"/><text fill="#000000" font-family="sans-serif" font-size="12" font-style="italic" lengthAdjust="spacing" textLength="40" x="287" y="153.8633">&#171;Root&#187;</text><text fill="#000000" font-family="sans-serif" font-size="12" font-style="italic" lengthAdjust="spacing" textLength="44" x="285" y="167.2695">&#171;Entity&#187;</text><text fill="#000000" font-family="sans-serif" font-size="14" lengthAdjust="spacing" textLength="38" x="288" y="182.4863">Robot</text><line style="stroke:#181818;stroke-width:0.5;" x1="259" x2="329" y1="190.4531" y2="190.4531"/><line style="stroke:#181818;stroke-width:0.5;" x1="259" x2="329" y1="198.4531" y2="198.4531"/></g><!--class RobotType--><g id="elem_RobotType"><rect codeLine="6" fill="#F1F1F1" height="55.0469" id="RobotType" rx="2.5" ry="2.5" style="stroke:#181818;stroke-width:0.5;" width="102" x="23" y="266"/><ellipse cx="38" cy="285.5234" fill="#ADD1B2" rx="11" ry="11" style="stroke:#181818;stroke-width:1.0;"/><path d="M40.7656,281.3984 Q40.9219,281.1797 41.1094,281.0703 Q41.2969,280.9609 41.5156,280.9609 Q41.8906,280.9609 42.125,281.2266 Q42.3594,281.4766 42.3594,282.0859 L42.3594,283.5391 Q42.3594,284.1484 42.125,284.4141 Q41.8906,284.6797 41.5156,284.6797 Q41.1719,284.6797 40.9688,284.4766 Q40.7656,284.2891 40.6563,283.7734 Q40.6094,283.4141 40.4219,283.2266 Q40.0938,282.8516 39.4844,282.6328 Q38.875,282.4141 38.25,282.4141 Q37.4844,282.4141 36.8438,282.7422 Q36.2188,283.0703 35.7188,283.8203 Q35.2344,284.5703 35.2344,285.6016 L35.2344,286.6953 Q35.2344,287.9297 36.125,288.7578 Q37.0156,289.5703 38.6094,289.5703 Q39.5469,289.5703 40.2031,289.3203 Q40.5938,289.1641 41.0156,288.7266 Q41.2813,288.4609 41.4219,288.3828 Q41.5781,288.3047 41.7813,288.3047 Q42.1094,288.3047 42.3594,288.5703 Q42.625,288.8203 42.625,289.1641 Q42.625,289.5078 42.2813,289.9141 Q41.7813,290.4922 40.9844,290.8203 Q39.9063,291.2734 38.6094,291.2734 Q37.0938,291.2734 35.8906,290.6484 Q34.9063,290.1484 34.2188,289.0859 Q33.5313,288.0078 33.5313,286.7266 L33.5313,285.5703 Q33.5313,284.2422 34.1406,283.1016 Q34.7656,281.9453 35.8594,281.3359 Q36.9531,280.7109 38.1875,280.7109 Q38.9219,280.7109 39.5625,280.8828 Q40.2188,281.0391 40.7656,281.3984 Z " fill="#000000"/><text fill="#000000" font-family="sans-serif" font-size="12" font-style="italic" lengthAdjust="spacing" textLength="44" x="65" y="281.8633">&#171;Entity&#187;</text><text fill="#000000" font-family="sans-serif" font-size="14" lengthAdjust="spacing" textLength="70" x="52" y="297.0801">RobotType</text><line style="stroke:#181818;stroke-width:0.5;" x1="24" x2="124" y1="305.0469" y2="305.0469"/><line style="stroke:#181818;stroke-width:0.5;" x1="24" x2="124" y1="313.0469" y2="313.0469"/></g><!--class Drone--><g id="elem_Drone"><rect codeLine="7" fill="#F1F1F1" height="55.0469" id="Drone" rx="2.5" ry="2.5" style="stroke:#181818;stroke-width:0.5;" width="72" x="321" y="23"/><ellipse cx="336" cy="42.5234" fill="#ADD1B2" rx="11" ry="11" style="stroke:#181818;stroke-width:1.0;"/><path d="M338.7656,38.3984 Q338.9219,38.1797 339.1094,38.0703 Q339.2969,37.9609 339.5156,37.9609 Q339.8906,37.9609 340.125,38.2266 Q340.3594,38.4766 340.3594,39.0859 L340.3594,40.5391 Q340.3594,41.1484 340.125,41.4141 Q339.8906,41.6797 339.5156,41.6797 Q339.1719,41.6797 338.9688,41.4766 Q338.7656,41.2891 338.6563,40.7734 Q338.6094,40.4141 338.4219,40.2266 Q338.0938,39.8516 337.4844,39.6328 Q336.875,39.4141 336.25,39.4141 Q335.4844,39.4141 334.8438,39.7422 Q334.2188,40.0703 333.7188,40.8203 Q333.2344,41.5703 333.2344,42.6016 L333.2344,43.6953 Q333.2344,44.9297 334.125,45.7578 Q335.0156,46.5703 336.6094,46.5703 Q337.5469,46.5703 338.2031,46.3203 Q338.5938,46.1641 339.0156,45.7266 Q339.2813,45.4609 339.4219,45.3828 Q339.5781,45.3047 339.7813,45.3047 Q340.1094,45.3047 340.3594,45.5703 Q340.625,45.8203 340.625,46.1641 Q340.625,46.5078 340.2813,46.9141 Q339.7813,47.4922 338.9844,47.8203 Q337.9063,48.2734 336.6094,48.2734 Q335.0938,48.2734 333.8906,47.6484 Q332.9063,47.1484 332.2188,46.0859 Q331.5313,45.0078 331.5313,43.7266 L331.5313,42.5703 Q331.5313,41.2422 332.1406,40.1016 Q332.7656,38.9453 333.8594,38.3359 Q334.9531,37.7109 336.1875,37.7109 Q336.9219,37.7109 337.5625,37.8828 Q338.2188,38.0391 338.7656,38.3984 Z " fill="#000000"/><text fill="#000000" font-family="sans-serif" font-size="12" font-style="italic" lengthAdjust="spacing" textLength="44" x="348" y="38.8633">&#171;Entity&#187;</text><text fill="#000000" font-family="sans-serif" font-size="14" lengthAdjust="spacing" textLength="39" x="350.5" y="54.0801">Drone</text><line style="stroke:#181818;stroke-width:0.5;" x1="322" x2="392" y1="62.0469" y2="62.0469"/><line style="stroke:#181818;stroke-width:0.5;" x1="322" x2="392" y1="70.0469" y2="70.0469"/></g><!--class MobileRobot--><g id="elem_MobileRobot"><rect codeLine="8" fill="#F1F1F1" height="55.0469" id="MobileRobot" rx="2.5" ry="2.5" style="stroke:#181818;stroke-width:0.5;" width="111" x="174.5" y="23"/><ellipse cx="189.5" cy="42.5234" fill="#ADD1B2" rx="11" ry="11" style="stroke:#181818;stroke-width:1.0;"/><path d="M192.2656,38.3984 Q192.4219,38.1797 192.6094,38.0703 Q192.7969,37.9609 193.0156,37.9609 Q193.3906,37.9609 193.625,38.2266 Q193.8594,38.4766 193.8594,39.0859 L193.8594,40.5391 Q193.8594,41.1484 193.625,41.4141 Q193.3906,41.6797 193.0156,41.6797 Q192.6719,41.6797 192.4688,41.4766 Q192.2656,41.2891 192.1563,40.7734 Q192.1094,40.4141 191.9219,40.2266 Q191.5938,39.8516 190.9844,39.6328 Q190.375,39.4141 189.75,39.4141 Q188.9844,39.4141 188.3438,39.7422 Q187.7188,40.0703 187.2188,40.8203 Q186.7344,41.5703 186.7344,42.6016 L186.7344,43.6953 Q186.7344,44.9297 187.625,45.7578 Q188.5156,46.5703 190.1094,46.5703 Q191.0469,46.5703 191.7031,46.3203 Q192.0938,46.1641 192.5156,45.7266 Q192.7813,45.4609 192.9219,45.3828 Q193.0781,45.3047 193.2813,45.3047 Q193.6094,45.3047 193.8594,45.5703 Q194.125,45.8203 194.125,46.1641 Q194.125,46.5078 193.7813,46.9141 Q193.2813,47.4922 192.4844,47.8203 Q191.4063,48.2734 190.1094,48.2734 Q188.5938,48.2734 187.3906,47.6484 Q186.4063,47.1484 185.7188,46.0859 Q185.0313,45.0078 185.0313,43.7266 L185.0313,42.5703 Q185.0313,41.2422 185.6406,40.1016 Q186.2656,38.9453 187.3594,38.3359 Q188.4531,37.7109 189.6875,37.7109 Q190.4219,37.7109 191.0625,37.8828 Q191.7188,38.0391 192.2656,38.3984 Z " fill="#000000"/><text fill="#000000" font-family="sans-serif" font-size="12" font-style="italic" lengthAdjust="spacing" textLength="44" x="221" y="38.8633">&#171;Entity&#187;</text><text fill="#000000" font-family="sans-serif" font-size="14" lengthAdjust="spacing" textLength="79" x="203.5" y="54.0801">MobileRobot</text><line style="stroke:#181818;stroke-width:0.5;" x1="175.5" x2="284.5" y1="62.0469" y2="62.0469"/><line style="stroke:#181818;stroke-width:0.5;" x1="175.5" x2="284.5" y1="70.0469" y2="70.0469"/></g><!--class RobotModel--><g id="elem_RobotModel"><rect codeLine="10" fill="#F1F1F1" height="55.0469" id="RobotModel" rx="2.5" ry="2.5" style="stroke:#181818;stroke-width:0.5;" width="110" x="23" y="381"/><ellipse cx="38" cy="400.5234" fill="#A4C2E5" rx="11" ry="11" style="stroke:#181818;stroke-width:1.0;"/><path d="M38.6094,403.4609 L40.4531,399.6953 Q39.7656,399.6953 39.5781,399.5703 Q39.1563,399.3203 39.1563,398.8359 Q39.1563,398.4609 39.4219,398.2266 Q39.6875,397.9922 40.2969,397.9922 L42.625,397.9922 Q43.25,397.9922 43.5,398.2266 Q43.7656,398.4609 43.7656,398.8359 Q43.7656,399.2109 43.5,399.4609 Q43.25,399.6953 42.625,399.6953 L42.3438,399.6953 L39.5,405.5234 L37.7188,405.5234 L34.875,399.6953 L34.6406,399.6953 Q34.0156,399.6953 33.75,399.4609 Q33.5,399.2109 33.5,398.8359 Q33.5,398.4609 33.75,398.2266 Q34.0156,397.9922 34.6406,397.9922 L36.9219,397.9922 Q37.5313,397.9922 37.7813,398.2266 Q38.0469,398.4609 38.0469,398.8359 Q38.0469,399.3203 37.6563,399.5703 Q37.4531,399.6953 36.7656,399.6953 L38.6094,403.4609 Z " fill="#000000"/><text fill="#000000" font-family="sans-serif" font-size="12" font-style="italic" lengthAdjust="spacing" textLength="82" x="50" y="396.8633">&#171;ValueObject&#187;</text><text fill="#000000" font-family="sans-serif" font-size="14" lengthAdjust="spacing" textLength="76" x="53" y="412.0801">RobotModel</text><line style="stroke:#181818;stroke-width:0.5;" x1="24" x2="132" y1="420.0469" y2="420.0469"/><line style="stroke:#181818;stroke-width:0.5;" x1="24" x2="132" y1="428.0469" y2="428.0469"/></g><!--class RobotBrand--><g id="elem_RobotBrand"><rect codeLine="11" fill="#F1F1F1" height="55.0469" id="RobotBrand" rx="2.5" ry="2.5" style="stroke:#181818;stroke-width:0.5;" width="110" x="168" y="381"/><ellipse cx="183" cy="400.5234" fill="#A4C2E5" rx="11" ry="11" style="stroke:#181818;stroke-width:1.0;"/><path d="M183.6094,403.4609 L185.4531,399.6953 Q184.7656,399.6953 184.5781,399.5703 Q184.1563,399.3203 184.1563,398.8359 Q184.1563,398.4609 184.4219,398.2266 Q184.6875,397.9922 185.2969,397.9922 L187.625,397.9922 Q188.25,397.9922 188.5,398.2266 Q188.7656,398.4609 188.7656,398.8359 Q188.7656,399.2109 188.5,399.4609 Q188.25,399.6953 187.625,399.6953 L187.3438,399.6953 L184.5,405.5234 L182.7188,405.5234 L179.875,399.6953 L179.6406,399.6953 Q179.0156,399.6953 178.75,399.4609 Q178.5,399.2109 178.5,398.8359 Q178.5,398.4609 178.75,398.2266 Q179.0156,397.9922 179.6406,397.9922 L181.9219,397.9922 Q182.5313,397.9922 182.7813,398.2266 Q183.0469,398.4609 183.0469,398.8359 Q183.0469,399.3203 182.6563,399.5703 Q182.4531,399.6953 181.7656,399.6953 L183.6094,403.4609 Z " fill="#000000"/><text fill="#000000" font-family="sans-serif" font-size="12" font-style="italic" lengthAdjust="spacing" textLength="82" x="195" y="396.8633">&#171;ValueObject&#187;</text><text fill="#000000" font-family="sans-serif" font-size="14" lengthAdjust="spacing" textLength="76" x="198" y="412.0801">RobotBrand</text><line style="stroke:#181818;stroke-width:0.5;" x1="169" x2="277" y1="420.0469" y2="420.0469"/><line style="stroke:#181818;stroke-width:0.5;" x1="169" x2="277" y1="428.0469" y2="428.0469"/></g><!--class Code--><g id="elem_Code"><rect codeLine="13" fill="#F1F1F1" height="68.4531" id="Code" rx="2.5" ry="2.5" style="stroke:#181818;stroke-width:0.5;" width="110" x="113" y="138"/><ellipse cx="128" cy="164.2266" fill="#FFA500" rx="11" ry="11" style="stroke:#181818;stroke-width:1.0;"/><path d="M128.6094,167.1641 L130.4531,163.3984 Q129.7656,163.3984 129.5781,163.2734 Q129.1563,163.0234 129.1563,162.5391 Q129.1563,162.1641 129.4219,161.9297 Q129.6875,161.6953 130.2969,161.6953 L132.625,161.6953 Q133.25,161.6953 133.5,161.9297 Q133.7656,162.1641 133.7656,162.5391 Q133.7656,162.9141 133.5,163.1641 Q133.25,163.3984 132.625,163.3984 L132.3438,163.3984 L129.5,169.2266 L127.7188,169.2266 L124.875,163.3984 L124.6406,163.3984 Q124.0156,163.3984 123.75,163.1641 Q123.5,162.9141 123.5,162.5391 Q123.5,162.1641 123.75,161.9297 Q124.0156,161.6953 124.6406,161.6953 L126.9219,161.6953 Q127.5313,161.6953 127.7813,161.9297 Q128.0469,162.1641 128.0469,162.5391 Q128.0469,163.0234 127.6563,163.2734 Q127.4531,163.3984 126.7656,163.3984 L128.6094,167.1641 Z " fill="#000000"/><text fill="#000000" font-family="sans-serif" font-size="12" font-style="italic" lengthAdjust="spacing" textLength="82" x="140" y="153.8633">&#171;ValueObject&#187;</text><text fill="#000000" font-family="sans-serif" font-size="12" font-style="italic" lengthAdjust="spacing" textLength="52" x="155" y="167.2695">&#171;unique&#187;</text><text fill="#000000" font-family="sans-serif" font-size="14" lengthAdjust="spacing" textLength="34" x="164" y="182.4863">Code</text><line style="stroke:#181818;stroke-width:0.5;" x1="114" x2="222" y1="190.4531" y2="190.4531"/><line style="stroke:#181818;stroke-width:0.5;" x1="114" x2="222" y1="198.4531" y2="198.4531"/></g><!--class AvailableTask--><g id="elem_AvailableTask"><rect codeLine="14" fill="#F1F1F1" height="55.0469" id="AvailableTask" rx="2.5" ry="2.5" style="stroke:#181818;stroke-width:0.5;" width="120" x="313" y="381"/><ellipse cx="328" cy="400.5234" fill="#A4C2E5" rx="11" ry="11" style="stroke:#181818;stroke-width:1.0;"/><path d="M328.6094,403.4609 L330.4531,399.6953 Q329.7656,399.6953 329.5781,399.5703 Q329.1563,399.3203 329.1563,398.8359 Q329.1563,398.4609 329.4219,398.2266 Q329.6875,397.9922 330.2969,397.9922 L332.625,397.9922 Q333.25,397.9922 333.5,398.2266 Q333.7656,398.4609 333.7656,398.8359 Q333.7656,399.2109 333.5,399.4609 Q333.25,399.6953 332.625,399.6953 L332.3438,399.6953 L329.5,405.5234 L327.7188,405.5234 L324.875,399.6953 L324.6406,399.6953 Q324.0156,399.6953 323.75,399.4609 Q323.5,399.2109 323.5,398.8359 Q323.5,398.4609 323.75,398.2266 Q324.0156,397.9922 324.6406,397.9922 L326.9219,397.9922 Q327.5313,397.9922 327.7813,398.2266 Q328.0469,398.4609 328.0469,398.8359 Q328.0469,399.3203 327.6563,399.5703 Q327.4531,399.6953 326.7656,399.6953 L328.6094,403.4609 Z " fill="#000000"/><text fill="#000000" font-family="sans-serif" font-size="12" font-style="italic" lengthAdjust="spacing" textLength="82" x="345" y="396.8633">&#171;ValueObject&#187;</text><text fill="#000000" font-family="sans-serif" font-size="14" lengthAdjust="spacing" textLength="88" x="342" y="412.0801">AvailableTask</text><line style="stroke:#181818;stroke-width:0.5;" x1="314" x2="432" y1="420.0469" y2="420.0469"/><line style="stroke:#181818;stroke-width:0.5;" x1="314" x2="432" y1="428.0469" y2="428.0469"/></g><!--class Nickname--><g id="elem_Nickname"><rect codeLine="15" fill="#F1F1F1" height="55.0469" id="Nickname" rx="2.5" ry="2.5" style="stroke:#181818;stroke-width:0.5;" width="110" x="160" y="266"/><ellipse cx="175" cy="285.5234" fill="#A4C2E5" rx="11" ry="11" style="stroke:#181818;stroke-width:1.0;"/><path d="M175.6094,288.4609 L177.4531,284.6953 Q176.7656,284.6953 176.5781,284.5703 Q176.1563,284.3203 176.1563,283.8359 Q176.1563,283.4609 176.4219,283.2266 Q176.6875,282.9922 177.2969,282.9922 L179.625,282.9922 Q180.25,282.9922 180.5,283.2266 Q180.7656,283.4609 180.7656,283.8359 Q180.7656,284.2109 180.5,284.4609 Q180.25,284.6953 179.625,284.6953 L179.3438,284.6953 L176.5,290.5234 L174.7188,290.5234 L171.875,284.6953 L171.6406,284.6953 Q171.0156,284.6953 170.75,284.4609 Q170.5,284.2109 170.5,283.8359 Q170.5,283.4609 170.75,283.2266 Q171.0156,282.9922 171.6406,282.9922 L173.9219,282.9922 Q174.5313,282.9922 174.7813,283.2266 Q175.0469,283.4609 175.0469,283.8359 Q175.0469,284.3203 174.6563,284.5703 Q174.4531,284.6953 173.7656,284.6953 L175.6094,288.4609 Z " fill="#000000"/><text fill="#000000" font-family="sans-serif" font-size="12" font-style="italic" lengthAdjust="spacing" textLength="82" x="187" y="281.8633">&#171;ValueObject&#187;</text><text fill="#000000" font-family="sans-serif" font-size="14" lengthAdjust="spacing" textLength="61" x="197.5" y="297.0801">Nickname</text><line style="stroke:#181818;stroke-width:0.5;" x1="161" x2="269" y1="305.0469" y2="305.0469"/><line style="stroke:#181818;stroke-width:0.5;" x1="161" x2="269" y1="313.0469" y2="313.0469"/></g><!--class OperationStatus--><g id="elem_OperationStatus"><rect codeLine="16" fill="#F1F1F1" height="55.0469" id="OperationStatus" rx="2.5" ry="2.5" style="stroke:#181818;stroke-width:0.5;" width="135" x="305.5" y="266"/><ellipse cx="320.5" cy="285.5234" fill="#A4C2E5" rx="11" ry="11" style="stroke:#181818;stroke-width:1.0;"/><path d="M321.1094,288.4609 L322.9531,284.6953 Q322.2656,284.6953 322.0781,284.5703 Q321.6563,284.3203 321.6563,283.8359 Q321.6563,283.4609 321.9219,283.2266 Q322.1875,282.9922 322.7969,282.9922 L325.125,282.9922 Q325.75,282.9922 326,283.2266 Q326.2656,283.4609 326.2656,283.8359 Q326.2656,284.2109 326,284.4609 Q325.75,284.6953 325.125,284.6953 L324.8438,284.6953 L322,290.5234 L320.2188,290.5234 L317.375,284.6953 L317.1406,284.6953 Q316.5156,284.6953 316.25,284.4609 Q316,284.2109 316,283.8359 Q316,283.4609 316.25,283.2266 Q316.5156,282.9922 317.1406,282.9922 L319.4219,282.9922 Q320.0313,282.9922 320.2813,283.2266 Q320.5469,283.4609 320.5469,283.8359 Q320.5469,284.3203 320.1563,284.5703 Q319.9531,284.6953 319.2656,284.6953 L321.1094,288.4609 Z " fill="#000000"/><text fill="#000000" font-family="sans-serif" font-size="12" font-style="italic" lengthAdjust="spacing" textLength="82" x="345" y="281.8633">&#171;ValueObject&#187;</text><text fill="#000000" font-family="sans-serif" font-size="14" lengthAdjust="spacing" textLength="103" x="334.5" y="297.0801">OperationStatus</text><line style="stroke:#181818;stroke-width:0.5;" x1="306.5" x2="439.5" y1="305.0469" y2="305.0469"/><line style="stroke:#181818;stroke-width:0.5;" x1="306.5" x2="439.5" y1="313.0469" y2="313.0469"/></g><!--class SerialNumber--><g id="elem_SerialNumber"><rect codeLine="17" fill="#F1F1F1" height="55.0469" id="SerialNumber" rx="2.5" ry="2.5" style="stroke:#181818;stroke-width:0.5;" width="117" x="475.5" y="266"/><ellipse cx="490.5" cy="285.5234" fill="#A4C2E5" rx="11" ry="11" style="stroke:#181818;stroke-width:1.0;"/><path d="M491.1094,288.4609 L492.9531,284.6953 Q492.2656,284.6953 492.0781,284.5703 Q491.6563,284.3203 491.6563,283.8359 Q491.6563,283.4609 491.9219,283.2266 Q492.1875,282.9922 492.7969,282.9922 L495.125,282.9922 Q495.75,282.9922 496,283.2266 Q496.2656,283.4609 496.2656,283.8359 Q496.2656,284.2109 496,284.4609 Q495.75,284.6953 495.125,284.6953 L494.8438,284.6953 L492,290.5234 L490.2188,290.5234 L487.375,284.6953 L487.1406,284.6953 Q486.5156,284.6953 486.25,284.4609 Q486,284.2109 486,283.8359 Q486,283.4609 486.25,283.2266 Q486.5156,282.9922 487.1406,282.9922 L489.4219,282.9922 Q490.0313,282.9922 490.2813,283.2266 Q490.5469,283.4609 490.5469,283.8359 Q490.5469,284.3203 490.1563,284.5703 Q489.9531,284.6953 489.2656,284.6953 L491.1094,288.4609 Z " fill="#000000"/><text fill="#000000" font-family="sans-serif" font-size="12" font-style="italic" lengthAdjust="spacing" textLength="82" x="506" y="281.8633">&#171;ValueObject&#187;</text><text fill="#000000" font-family="sans-serif" font-size="14" lengthAdjust="spacing" textLength="85" x="504.5" y="297.0801">SerialNumber</text><line style="stroke:#181818;stroke-width:0.5;" x1="476.5" x2="591.5" y1="305.0469" y2="305.0469"/><line style="stroke:#181818;stroke-width:0.5;" x1="476.5" x2="591.5" y1="313.0469" y2="313.0469"/></g><!--link MobileRobot to Robot--><g id="link_MobileRobot_Robot"><path codeLine="21" d="M271.75,78.07 C271.75,78.07 271.75,117.58 271.75,117.58 " fill="none" id="MobileRobot-to-Robot" style="stroke:#181818;stroke-width:1.0;"/><polygon fill="none" points="278.75,117.58,271.75,137.58,264.75,117.58,278.75,117.58" style="stroke:#181818;stroke-width:1.0;"/></g><!--link Drone to Robot--><g id="link_Drone_Robot"><path codeLine="22" d="M325.5,78.07 C325.5,78.07 325.5,117.58 325.5,117.58 " fill="none" id="Drone-to-Robot" style="stroke:#181818;stroke-width:1.0;"/><polygon fill="none" points="332.5,117.58,325.5,137.58,318.5,117.58,332.5,117.58" style="stroke:#181818;stroke-width:1.0;"/></g><!--reverse link Code to Robot--><g id="link_Code_Robot"><path codeLine="23" d="M228.27,172 C228.27,172 257.99,172 257.99,172 " fill="none" id="Code-backto-Robot" style="stroke:#181818;stroke-width:1.0;"/><polygon fill="#181818" points="223.27,172,232.27,176,228.27,172,232.27,168,223.27,172" style="stroke:#181818;stroke-width:1.0;"/><text fill="#000000" font-family="sans-serif" font-size="13" lengthAdjust="spacing" textLength="7" x="231.1672" y="168.8327">1</text><text fill="#000000" font-family="sans-serif" font-size="13" lengthAdjust="spacing" textLength="7" x="242.8411" y="168.3321">1</text></g><!--link Robot to RobotType--><g id="link_Robot_RobotType"><path codeLine="24" d="M262,206.25 C262,221.46 262,236 262,236 C262,236 119,236 119,236 C119,236 119,260.76 119,260.76 " fill="none" id="Robot-to-RobotType" style="stroke:#181818;stroke-width:1.0;"/><polygon fill="#181818" points="119,265.76,123,256.76,119,260.76,115,256.76,119,265.76" style="stroke:#181818;stroke-width:1.0;"/><text fill="#000000" font-family="sans-serif" font-size="13" lengthAdjust="spacing" textLength="5" x="250.2078" y="226.1466">*</text><text fill="#000000" font-family="sans-serif" font-size="13" lengthAdjust="spacing" textLength="7" x="122.1156" y="255.1188">1</text></g><!--link Robot to OperationStatus--><g id="link_Robot_OperationStatus"><path codeLine="25" d="M317.75,206.17 C317.75,206.17 317.75,260.72 317.75,260.72 " fill="none" id="Robot-to-OperationStatus" style="stroke:#181818;stroke-width:1.0;"/><polygon fill="#181818" points="317.75,265.72,321.75,256.72,317.75,260.72,313.75,256.72,317.75,265.72" style="stroke:#181818;stroke-width:1.0;"/><text fill="#000000" font-family="sans-serif" font-size="13" lengthAdjust="spacing" textLength="5" x="317.1328" y="226.4371">*</text><text fill="#000000" font-family="sans-serif" font-size="13" lengthAdjust="spacing" textLength="7" x="296.4297" y="255.069">1</text></g><!--link Robot to Nickname--><g id="link_Robot_Nickname"><path codeLine="26" d="M266,206.17 C266,206.17 266,260.72 266,260.72 " fill="none" id="Robot-to-Nickname" style="stroke:#181818;stroke-width:1.0;"/><polygon fill="#181818" points="266,265.72,270,256.72,266,260.72,262,256.72,266,265.72" style="stroke:#181818;stroke-width:1.0;"/><text fill="#000000" font-family="sans-serif" font-size="13" lengthAdjust="spacing" textLength="7" x="260.9469" y="226.4371">1</text><text fill="#000000" font-family="sans-serif" font-size="13" lengthAdjust="spacing" textLength="7" x="270.5781" y="255.069">1</text></g><!--link Robot to SerialNumber--><g id="link_Robot_SerialNumber"><path codeLine="27" d="M330.19,172 C397.24,172 534,172 534,172 C534,172 534,260.93 534,260.93 " fill="none" id="Robot-to-SerialNumber" style="stroke:#181818;stroke-width:1.0;"/><polygon fill="#181818" points="534,265.93,538,256.93,534,260.93,530,256.93,534,265.93" style="stroke:#181818;stroke-width:1.0;"/><text fill="#000000" font-family="sans-serif" font-size="13" lengthAdjust="spacing" textLength="7" x="338.004" y="168.3974">1</text><text fill="#000000" font-family="sans-serif" font-size="13" lengthAdjust="spacing" textLength="7" x="526.1469" y="255.3302">1</text></g><!--link RobotType to RobotModel--><g id="link_RobotType_RobotModel"><path codeLine="29" d="M57,321.05 C57,321.05 57,375.78 57,375.78 " fill="none" id="RobotType-to-RobotModel" style="stroke:#181818;stroke-width:1.0;"/><polygon fill="#181818" points="57,380.78,61,371.78,57,375.78,53,371.78,57,380.78" style="stroke:#181818;stroke-width:1.0;"/><text fill="#000000" font-family="sans-serif" font-size="13" lengthAdjust="spacing" textLength="5" x="47.4906" y="340.8633">*</text><text fill="#000000" font-family="sans-serif" font-size="13" lengthAdjust="spacing" textLength="7" x="44.0281" y="370.1436">1</text></g><!--link RobotType to RobotBrand--><g id="link_RobotType_RobotBrand"><path codeLine="30" d="M125.14,294 C137.14,294 146.5,294 146.5,294 C146.5,294 146.5,409 146.5,409 C146.5,409 162.81,409 162.81,409 " fill="none" id="RobotType-to-RobotBrand" style="stroke:#181818;stroke-width:1.0;"/><polygon fill="#181818" points="167.81,409,158.81,405,162.81,409,158.81,413,167.81,409" style="stroke:#181818;stroke-width:1.0;"/><text fill="#000000" font-family="sans-serif" font-size="13" lengthAdjust="spacing" textLength="5" x="133.0184" y="290.8489">*</text><text fill="#000000" font-family="sans-serif" font-size="13" lengthAdjust="spacing" textLength="7" x="152.9235" y="405.9271">1</text></g><!--link RobotType to AvailableTask--><g id="link_RobotType_AvailableTask"><path codeLine="31" d="M91,321.24 C91,335.94 91,351 91,351 C91,351 373,351 373,351 C373,351 373,375.76 373,375.76 " fill="none" id="RobotType-to-AvailableTask" style="stroke:#181818;stroke-width:1.0;"/><polygon fill="#181818" points="373,380.76,377,371.76,373,375.76,369,371.76,373,380.76" style="stroke:#181818;stroke-width:1.0;"/><text fill="#000000" font-family="sans-serif" font-size="13" lengthAdjust="spacing" textLength="5" x="89.1719" y="340.6601">*</text><text fill="#000000" font-family="sans-serif" font-size="13" lengthAdjust="spacing" textLength="5" x="367.3906" y="370.1188">*</text></g><!--SRC=[ZPBFJy8m5CVl_IkQSL7Y3fef5x84WIEG2F7-jhrWNTVEhYKXwlzkrmtj1eQTshxFz_tgUrNEH0aA2igPG7qiaKgbtoGX2bCDOi-HZgAdQ36PV9AKGrNH5vb8JQTJUx5d7DVNfT1C7-t3r-pgQ1VWGac1z19PoOHnR19qkHzt9JFaZjySxaQpQFwmVBobhy0DRf9tMtQlZcS58hkcRntcDlP9AgtV7llA6Xh1FWp-fPaTW758EEwWoeTLjcPfBg30OUfDYGeqasAhGPjgcDCM5GE-DaM2wchxtuIqW_qAJUXFecDtisijmNqGyZ2sX_ksatKSX8tnTmayaZMeruyNiE6dtpa3VazjnMxDUbdTYloFtKQSut7GdIJv0G00]--></g></svg>