<?xml version="1.0" encoding="us-ascii" standalone="no"?><svg xmlns="http://www.w3.org/2000/svg" xmlns:xlink="http://www.w3.org/1999/xlink" contentStyleType="text/css" height="4.84px" preserveAspectRatio="none" style="width:13px;height:4px;background:#FFFFFF;" version="1.1" viewBox="0 0 13 4" width="13.01px" zoomAndPan="magnify"><defs/><g><g id="cluster_##2"><rect fill="#464D77" height="3.365" rx="0.025" ry="0.025" style="stroke:#181818;stroke-width:0.01;" width="4.65" x="0.07" y="0.07"/></g><g id="cluster_##11"><rect fill="#96A377" height="2.28" rx="0.025" ry="0.025" style="stroke:#181818;stroke-width:0.01;" width="7.99" x="4.96" y="2.5"/></g><!--class Robot--><g id="elem_Robot"><rect codeLine="6" fill="#F1F1F1" height="0.6845" id="Robot" rx="0.025" ry="0.025" style="stroke:#181818;stroke-width:0.005;" width="0.72" x="2.6" y="1.38"/><ellipse cx="2.75" cy="1.6423" fill="#ADD1B2" rx="0.11" ry="0.11" style="stroke:#181818;stroke-width:0.01;"/><path d="M2.7777,1.601 Q2.7792,1.5988 2.7811,1.5977 Q2.783,1.5966 2.7852,1.5966 Q2.7889,1.5966 2.7913,1.5993 Q2.7936,1.6018 2.7936,1.6079 L2.7936,1.6224 Q2.7936,1.6285 2.7913,1.6312 Q2.7889,1.6338 2.7852,1.6338 Q2.7817,1.6338 2.7797,1.6318 Q2.7777,1.6299 2.7766,1.6248 Q2.7761,1.6212 2.7742,1.6193 Q2.7709,1.6155 2.7648,1.6134 Q2.7588,1.6112 2.7525,1.6112 Q2.7448,1.6112 2.7384,1.6145 Q2.7322,1.6177 2.7272,1.6252 Q2.7223,1.6327 2.7223,1.643 L2.7223,1.654 Q2.7223,1.6663 2.7313,1.6746 Q2.7402,1.6827 2.7561,1.6827 Q2.7655,1.6827 2.772,1.6802 Q2.7759,1.6787 2.7802,1.6743 Q2.7828,1.6716 2.7842,1.6709 Q2.7858,1.6701 2.7878,1.6701 Q2.7911,1.6701 2.7936,1.6727 Q2.7963,1.6752 2.7963,1.6787 Q2.7963,1.6821 2.7928,1.6862 Q2.7878,1.692 2.7798,1.6952 Q2.7691,1.6998 2.7561,1.6998 Q2.7409,1.6998 2.7289,1.6935 Q2.7191,1.6885 2.7122,1.6779 Q2.7053,1.6671 2.7053,1.6543 L2.7053,1.6427 Q2.7053,1.6295 2.7114,1.618 Q2.7177,1.6065 2.7286,1.6004 Q2.7395,1.5941 2.7519,1.5941 Q2.7592,1.5941 2.7656,1.5959 Q2.7722,1.5974 2.7777,1.601 Z " fill="#000000"/><text fill="#000000" font-family="sans-serif" font-size="0.12" font-style="italic" lengthAdjust="spacing" textLength="0.4" x="2.89" y="1.5386">&#171;Root&#187;</text><text fill="#000000" font-family="sans-serif" font-size="0.12" font-style="italic" lengthAdjust="spacing" textLength="0.44" x="2.87" y="1.6727">&#171;Entity&#187;</text><text fill="#000000" font-family="sans-serif" font-size="0.14" lengthAdjust="spacing" textLength="0.38" x="2.9" y="1.8249">Robot</text><line style="stroke:#181818;stroke-width:0.005;" x1="2.61" x2="3.31" y1="1.9045" y2="1.9045"/><line style="stroke:#181818;stroke-width:0.005;" x1="2.61" x2="3.31" y1="1.9845" y2="1.9845"/></g><!--class Drone--><g id="elem_Drone"><rect codeLine="7" fill="#F1F1F1" height="0.5505" id="Drone" rx="0.025" ry="0.025" style="stroke:#181818;stroke-width:0.005;" width="0.72" x="3.23" y="0.23"/><ellipse cx="3.38" cy="0.4252" fill="#ADD1B2" rx="0.11" ry="0.11" style="stroke:#181818;stroke-width:0.01;"/><path d="M3.4077,0.384 Q3.4092,0.3818 3.4111,0.3807 Q3.413,0.3796 3.4152,0.3796 Q3.4189,0.3796 3.4213,0.3823 Q3.4236,0.3848 3.4236,0.3909 L3.4236,0.4054 Q3.4236,0.4115 3.4213,0.4141 Q3.4189,0.4168 3.4152,0.4168 Q3.4117,0.4168 3.4097,0.4148 Q3.4077,0.4129 3.4066,0.4077 Q3.4061,0.4041 3.4042,0.4023 Q3.4009,0.3985 3.3948,0.3963 Q3.3888,0.3941 3.3825,0.3941 Q3.3748,0.3941 3.3684,0.3974 Q3.3622,0.4007 3.3572,0.4082 Q3.3523,0.4157 3.3523,0.426 L3.3523,0.437 Q3.3523,0.4493 3.3613,0.4576 Q3.3702,0.4657 3.3861,0.4657 Q3.3955,0.4657 3.402,0.4632 Q3.4059,0.4616 3.4102,0.4573 Q3.4128,0.4546 3.4142,0.4538 Q3.4158,0.453 3.4178,0.453 Q3.4211,0.453 3.4236,0.4557 Q3.4263,0.4582 3.4263,0.4616 Q3.4263,0.4651 3.4228,0.4691 Q3.4178,0.4749 3.4098,0.4782 Q3.3991,0.4827 3.3861,0.4827 Q3.3709,0.4827 3.3589,0.4765 Q3.3491,0.4715 3.3422,0.4609 Q3.3353,0.4501 3.3353,0.4373 L3.3353,0.4257 Q3.3353,0.4124 3.3414,0.401 Q3.3477,0.3895 3.3586,0.3834 Q3.3695,0.3771 3.3819,0.3771 Q3.3892,0.3771 3.3956,0.3788 Q3.4022,0.3804 3.4077,0.384 Z " fill="#000000"/><text fill="#000000" font-family="sans-serif" font-size="0.12" font-style="italic" lengthAdjust="spacing" textLength="0.44" x="3.5" y="0.3886">&#171;Entity&#187;</text><text fill="#000000" font-family="sans-serif" font-size="0.14" lengthAdjust="spacing" textLength="0.39" x="3.525" y="0.5408">Drone</text><line style="stroke:#181818;stroke-width:0.005;" x1="3.24" x2="3.94" y1="0.6205" y2="0.6205"/><line style="stroke:#181818;stroke-width:0.005;" x1="3.24" x2="3.94" y1="0.7005" y2="0.7005"/></g><!--class MobileRobot--><g id="elem_MobileRobot"><rect codeLine="8" fill="#F1F1F1" height="0.5505" id="MobileRobot" rx="0.025" ry="0.025" style="stroke:#181818;stroke-width:0.005;" width="1.11" x="1.765" y="0.23"/><ellipse cx="1.915" cy="0.4252" fill="#ADD1B2" rx="0.11" ry="0.11" style="stroke:#181818;stroke-width:0.01;"/><path d="M1.9427,0.384 Q1.9442,0.3818 1.9461,0.3807 Q1.948,0.3796 1.9502,0.3796 Q1.9539,0.3796 1.9563,0.3823 Q1.9586,0.3848 1.9586,0.3909 L1.9586,0.4054 Q1.9586,0.4115 1.9563,0.4141 Q1.9539,0.4168 1.9502,0.4168 Q1.9467,0.4168 1.9447,0.4148 Q1.9427,0.4129 1.9416,0.4077 Q1.9411,0.4041 1.9392,0.4023 Q1.9359,0.3985 1.9298,0.3963 Q1.9238,0.3941 1.9175,0.3941 Q1.9098,0.3941 1.9034,0.3974 Q1.8972,0.4007 1.8922,0.4082 Q1.8873,0.4157 1.8873,0.426 L1.8873,0.437 Q1.8873,0.4493 1.8963,0.4576 Q1.9052,0.4657 1.9211,0.4657 Q1.9305,0.4657 1.937,0.4632 Q1.9409,0.4616 1.9452,0.4573 Q1.9478,0.4546 1.9492,0.4538 Q1.9508,0.453 1.9528,0.453 Q1.9561,0.453 1.9586,0.4557 Q1.9613,0.4582 1.9613,0.4616 Q1.9613,0.4651 1.9578,0.4691 Q1.9528,0.4749 1.9448,0.4782 Q1.9341,0.4827 1.9211,0.4827 Q1.9059,0.4827 1.8939,0.4765 Q1.8841,0.4715 1.8772,0.4609 Q1.8703,0.4501 1.8703,0.4373 L1.8703,0.4257 Q1.8703,0.4124 1.8764,0.401 Q1.8827,0.3895 1.8936,0.3834 Q1.9045,0.3771 1.9169,0.3771 Q1.9242,0.3771 1.9306,0.3788 Q1.9372,0.3804 1.9427,0.384 Z " fill="#000000"/><text fill="#000000" font-family="sans-serif" font-size="0.12" font-style="italic" lengthAdjust="spacing" textLength="0.44" x="2.23" y="0.3886">&#171;Entity&#187;</text><text fill="#000000" font-family="sans-serif" font-size="0.14" lengthAdjust="spacing" textLength="0.79" x="2.055" y="0.5408">MobileRobot</text><line style="stroke:#181818;stroke-width:0.005;" x1="1.775" x2="2.865" y1="0.6205" y2="0.6205"/><line style="stroke:#181818;stroke-width:0.005;" x1="1.775" x2="2.865" y1="0.7005" y2="0.7005"/></g><!--class Code--><g id="elem_Code"><rect codeLine="10" fill="#F1F1F1" height="0.6845" id="Code" rx="0.025" ry="0.025" style="stroke:#181818;stroke-width:0.005;" width="1.1" x="1.15" y="1.38"/><ellipse cx="1.3" cy="1.6423" fill="#FFA500" rx="0.11" ry="0.11" style="stroke:#181818;stroke-width:0.01;"/><path d="M1.3061,1.6716 L1.3245,1.634 Q1.3177,1.634 1.3158,1.6327 Q1.3116,1.6302 1.3116,1.6254 Q1.3116,1.6216 1.3142,1.6193 Q1.3169,1.617 1.323,1.617 L1.3463,1.617 Q1.3525,1.617 1.355,1.6193 Q1.3577,1.6216 1.3577,1.6254 Q1.3577,1.6291 1.355,1.6316 Q1.3525,1.634 1.3463,1.634 L1.3434,1.634 L1.315,1.6923 L1.2972,1.6923 L1.2688,1.634 L1.2664,1.634 Q1.2602,1.634 1.2575,1.6316 Q1.255,1.6291 1.255,1.6254 Q1.255,1.6216 1.2575,1.6193 Q1.2602,1.617 1.2664,1.617 L1.2892,1.617 Q1.2953,1.617 1.2978,1.6193 Q1.3005,1.6216 1.3005,1.6254 Q1.3005,1.6302 1.2966,1.6327 Q1.2945,1.634 1.2877,1.634 L1.3061,1.6716 Z " fill="#000000"/><text fill="#000000" font-family="sans-serif" font-size="0.12" font-style="italic" lengthAdjust="spacing" textLength="0.82" x="1.42" y="1.5386">&#171;ValueObject&#187;</text><text fill="#000000" font-family="sans-serif" font-size="0.12" font-style="italic" lengthAdjust="spacing" textLength="0.52" x="1.57" y="1.6727">&#171;unique&#187;</text><text fill="#000000" font-family="sans-serif" font-size="0.14" lengthAdjust="spacing" textLength="0.34" x="1.66" y="1.8249">Code</text><line style="stroke:#181818;stroke-width:0.005;" x1="1.16" x2="2.24" y1="1.9045" y2="1.9045"/><line style="stroke:#181818;stroke-width:0.005;" x1="1.16" x2="2.24" y1="1.9845" y2="1.9845"/></g><!--class Nickname--><g id="elem_Nickname"><rect codeLine="11" fill="#F1F1F1" height="0.5505" id="Nickname" rx="0.025" ry="0.025" style="stroke:#181818;stroke-width:0.005;" width="1.1" x="0.23" y="2.725"/><ellipse cx="0.38" cy="2.9202" fill="#A4C2E5" rx="0.11" ry="0.11" style="stroke:#181818;stroke-width:0.01;"/><path d="M0.3861,2.9496 L0.4045,2.912 Q0.3977,2.912 0.3958,2.9107 Q0.3916,2.9082 0.3916,2.9034 Q0.3916,2.8996 0.3942,2.8973 Q0.3969,2.8949 0.403,2.8949 L0.4263,2.8949 Q0.4325,2.8949 0.435,2.8973 Q0.4377,2.8996 0.4377,2.9034 Q0.4377,2.9071 0.435,2.9096 Q0.4325,2.912 0.4263,2.912 L0.4234,2.912 L0.395,2.9702 L0.3772,2.9702 L0.3488,2.912 L0.3464,2.912 Q0.3402,2.912 0.3375,2.9096 Q0.335,2.9071 0.335,2.9034 Q0.335,2.8996 0.3375,2.8973 Q0.3402,2.8949 0.3464,2.8949 L0.3692,2.8949 Q0.3753,2.8949 0.3778,2.8973 Q0.3805,2.8996 0.3805,2.9034 Q0.3805,2.9082 0.3766,2.9107 Q0.3745,2.912 0.3677,2.912 L0.3861,2.9496 Z " fill="#000000"/><text fill="#000000" font-family="sans-serif" font-size="0.12" font-style="italic" lengthAdjust="spacing" textLength="0.82" x="0.5" y="2.8836">&#171;ValueObject&#187;</text><text fill="#000000" font-family="sans-serif" font-size="0.14" lengthAdjust="spacing" textLength="0.61" x="0.605" y="3.0358">Nickname</text><line style="stroke:#181818;stroke-width:0.005;" x1="0.24" x2="1.32" y1="3.1155" y2="3.1155"/><line style="stroke:#181818;stroke-width:0.005;" x1="0.24" x2="1.32" y1="3.1955" y2="3.1955"/></g><!--class OperationStatus--><g id="elem_OperationStatus"><rect codeLine="12" fill="#F1F1F1" height="0.5505" id="OperationStatus" rx="0.025" ry="0.025" style="stroke:#181818;stroke-width:0.005;" width="1.35" x="1.685" y="2.725"/><ellipse cx="1.835" cy="2.9202" fill="#A4C2E5" rx="0.11" ry="0.11" style="stroke:#181818;stroke-width:0.01;"/><path d="M1.8411,2.9496 L1.8595,2.912 Q1.8527,2.912 1.8508,2.9107 Q1.8466,2.9082 1.8466,2.9034 Q1.8466,2.8996 1.8492,2.8973 Q1.8519,2.8949 1.858,2.8949 L1.8813,2.8949 Q1.8875,2.8949 1.89,2.8973 Q1.8927,2.8996 1.8927,2.9034 Q1.8927,2.9071 1.89,2.9096 Q1.8875,2.912 1.8813,2.912 L1.8784,2.912 L1.85,2.9702 L1.8322,2.9702 L1.8038,2.912 L1.8014,2.912 Q1.7952,2.912 1.7925,2.9096 Q1.79,2.9071 1.79,2.9034 Q1.79,2.8996 1.7925,2.8973 Q1.7952,2.8949 1.8014,2.8949 L1.8242,2.8949 Q1.8303,2.8949 1.8328,2.8973 Q1.8355,2.8996 1.8355,2.9034 Q1.8355,2.9082 1.8316,2.9107 Q1.8295,2.912 1.8227,2.912 L1.8411,2.9496 Z " fill="#000000"/><text fill="#000000" font-family="sans-serif" font-size="0.12" font-style="italic" lengthAdjust="spacing" textLength="0.82" x="2.08" y="2.8836">&#171;ValueObject&#187;</text><text fill="#000000" font-family="sans-serif" font-size="0.14" lengthAdjust="spacing" textLength="1.03" x="1.975" y="3.0358">OperationStatus</text><line style="stroke:#181818;stroke-width:0.005;" x1="1.695" x2="3.025" y1="3.1155" y2="3.1155"/><line style="stroke:#181818;stroke-width:0.005;" x1="1.695" x2="3.025" y1="3.1955" y2="3.1955"/></g><!--class SerialNumber--><g id="elem_SerialNumber"><rect codeLine="13" fill="#F1F1F1" height="0.5505" id="SerialNumber" rx="0.025" ry="0.025" style="stroke:#181818;stroke-width:0.005;" width="1.17" x="3.385" y="2.725"/><ellipse cx="3.535" cy="2.9202" fill="#A4C2E5" rx="0.11" ry="0.11" style="stroke:#181818;stroke-width:0.01;"/><path d="M3.5411,2.9496 L3.5595,2.912 Q3.5527,2.912 3.5508,2.9107 Q3.5466,2.9082 3.5466,2.9034 Q3.5466,2.8996 3.5492,2.8973 Q3.5519,2.8949 3.558,2.8949 L3.5813,2.8949 Q3.5875,2.8949 3.59,2.8973 Q3.5927,2.8996 3.5927,2.9034 Q3.5927,2.9071 3.59,2.9096 Q3.5875,2.912 3.5813,2.912 L3.5784,2.912 L3.55,2.9702 L3.5322,2.9702 L3.5038,2.912 L3.5014,2.912 Q3.4952,2.912 3.4925,2.9096 Q3.49,2.9071 3.49,2.9034 Q3.49,2.8996 3.4925,2.8973 Q3.4952,2.8949 3.5014,2.8949 L3.5242,2.8949 Q3.5303,2.8949 3.5328,2.8973 Q3.5355,2.8996 3.5355,2.9034 Q3.5355,2.9082 3.5316,2.9107 Q3.5295,2.912 3.5227,2.912 L3.5411,2.9496 Z " fill="#000000"/><text fill="#000000" font-family="sans-serif" font-size="0.12" font-style="italic" lengthAdjust="spacing" textLength="0.82" x="3.69" y="2.8836">&#171;ValueObject&#187;</text><text fill="#000000" font-family="sans-serif" font-size="0.14" lengthAdjust="spacing" textLength="0.85" x="3.675" y="3.0358">SerialNumber</text><line style="stroke:#181818;stroke-width:0.005;" x1="3.395" x2="4.545" y1="3.1155" y2="3.1155"/><line style="stroke:#181818;stroke-width:0.005;" x1="3.395" x2="4.545" y1="3.1955" y2="3.1955"/></g><!--class RobotType--><g id="elem_RobotType"><rect codeLine="17" fill="#F1F1F1" height="0.6845" id="RobotType" rx="0.025" ry="0.025" style="stroke:#181818;stroke-width:0.005;" width="1.02" x="7.43" y="2.66"/><ellipse cx="7.58" cy="2.9223" fill="#ADD1B2" rx="0.11" ry="0.11" style="stroke:#181818;stroke-width:0.01;"/><path d="M7.6077,2.881 Q7.6092,2.8788 7.6111,2.8777 Q7.613,2.8766 7.6152,2.8766 Q7.6189,2.8766 7.6213,2.8793 Q7.6236,2.8818 7.6236,2.8879 L7.6236,2.9024 Q7.6236,2.9085 7.6213,2.9112 Q7.6189,2.9138 7.6152,2.9138 Q7.6117,2.9138 7.6097,2.9118 Q7.6077,2.9099 7.6066,2.9048 Q7.6061,2.9012 7.6042,2.8993 Q7.6009,2.8955 7.5948,2.8934 Q7.5888,2.8912 7.5825,2.8912 Q7.5748,2.8912 7.5684,2.8945 Q7.5622,2.8977 7.5572,2.9052 Q7.5523,2.9127 7.5523,2.923 L7.5523,2.934 Q7.5523,2.9463 7.5613,2.9546 Q7.5702,2.9627 7.5861,2.9627 Q7.5955,2.9627 7.602,2.9602 Q7.6059,2.9587 7.6102,2.9543 Q7.6128,2.9516 7.6142,2.9509 Q7.6158,2.9501 7.6178,2.9501 Q7.6211,2.9501 7.6236,2.9527 Q7.6263,2.9552 7.6263,2.9587 Q7.6263,2.9621 7.6228,2.9662 Q7.6178,2.972 7.6098,2.9752 Q7.5991,2.9798 7.5861,2.9798 Q7.5709,2.9798 7.5589,2.9735 Q7.5491,2.9685 7.5422,2.9579 Q7.5353,2.9471 7.5353,2.9343 L7.5353,2.9227 Q7.5353,2.9095 7.5414,2.898 Q7.5477,2.8865 7.5586,2.8804 Q7.5695,2.8741 7.5819,2.8741 Q7.5892,2.8741 7.5956,2.8759 Q7.6022,2.8774 7.6077,2.881 Z " fill="#000000"/><text fill="#000000" font-family="sans-serif" font-size="0.12" font-style="italic" lengthAdjust="spacing" textLength="0.4" x="7.87" y="2.8186">&#171;Root&#187;</text><text fill="#000000" font-family="sans-serif" font-size="0.12" font-style="italic" lengthAdjust="spacing" textLength="0.44" x="7.85" y="2.9527">&#171;Entity&#187;</text><text fill="#000000" font-family="sans-serif" font-size="0.14" lengthAdjust="spacing" textLength="0.7" x="7.72" y="3.1049">RobotType</text><line style="stroke:#181818;stroke-width:0.005;" x1="7.44" x2="8.44" y1="3.1845" y2="3.1845"/><line style="stroke:#181818;stroke-width:0.005;" x1="7.44" x2="8.44" y1="3.2645" y2="3.2645"/></g><!--class AvailableTask--><g id="elem_AvailableTask"><rect codeLine="18" fill="#F1F1F1" height="0.5505" id="AvailableTask" rx="0.025" ry="0.025" style="stroke:#181818;stroke-width:0.005;" width="1.2" x="5.12" y="4.005"/><ellipse cx="5.27" cy="4.2002" fill="#A4C2E5" rx="0.11" ry="0.11" style="stroke:#181818;stroke-width:0.01;"/><path d="M5.2761,4.2296 L5.2945,4.192 Q5.2877,4.192 5.2858,4.1907 Q5.2816,4.1882 5.2816,4.1834 Q5.2816,4.1796 5.2842,4.1773 Q5.2869,4.1749 5.293,4.1749 L5.3163,4.1749 Q5.3225,4.1749 5.325,4.1773 Q5.3277,4.1796 5.3277,4.1834 Q5.3277,4.1871 5.325,4.1896 Q5.3225,4.192 5.3163,4.192 L5.3134,4.192 L5.285,4.2502 L5.2672,4.2502 L5.2388,4.192 L5.2364,4.192 Q5.2302,4.192 5.2275,4.1896 Q5.225,4.1871 5.225,4.1834 Q5.225,4.1796 5.2275,4.1773 Q5.2302,4.1749 5.2364,4.1749 L5.2592,4.1749 Q5.2653,4.1749 5.2678,4.1773 Q5.2705,4.1796 5.2705,4.1834 Q5.2705,4.1882 5.2666,4.1907 Q5.2645,4.192 5.2577,4.192 L5.2761,4.2296 Z " fill="#000000"/><text fill="#000000" font-family="sans-serif" font-size="0.12" font-style="italic" lengthAdjust="spacing" textLength="0.82" x="5.44" y="4.1636">&#171;ValueObject&#187;</text><text fill="#000000" font-family="sans-serif" font-size="0.14" lengthAdjust="spacing" textLength="0.88" x="5.41" y="4.3158">AvailableTask</text><line style="stroke:#181818;stroke-width:0.005;" x1="5.13" x2="6.31" y1="4.3955" y2="4.3955"/><line style="stroke:#181818;stroke-width:0.005;" x1="5.13" x2="6.31" y1="4.4755" y2="4.4755"/></g><!--class RobotModel--><g id="elem_RobotModel"><rect codeLine="19" fill="#F1F1F1" height="0.5505" id="RobotModel" rx="0.025" ry="0.025" style="stroke:#181818;stroke-width:0.005;" width="1.1" x="6.67" y="4.005"/><ellipse cx="6.82" cy="4.2002" fill="#A4C2E5" rx="0.11" ry="0.11" style="stroke:#181818;stroke-width:0.01;"/><path d="M6.8261,4.2296 L6.8445,4.192 Q6.8377,4.192 6.8358,4.1907 Q6.8316,4.1882 6.8316,4.1834 Q6.8316,4.1796 6.8342,4.1773 Q6.8369,4.1749 6.843,4.1749 L6.8663,4.1749 Q6.8725,4.1749 6.875,4.1773 Q6.8777,4.1796 6.8777,4.1834 Q6.8777,4.1871 6.875,4.1896 Q6.8725,4.192 6.8663,4.192 L6.8634,4.192 L6.835,4.2502 L6.8172,4.2502 L6.7888,4.192 L6.7864,4.192 Q6.7802,4.192 6.7775,4.1896 Q6.775,4.1871 6.775,4.1834 Q6.775,4.1796 6.7775,4.1773 Q6.7802,4.1749 6.7864,4.1749 L6.8092,4.1749 Q6.8153,4.1749 6.8178,4.1773 Q6.8205,4.1796 6.8205,4.1834 Q6.8205,4.1882 6.8166,4.1907 Q6.8145,4.192 6.8077,4.192 L6.8261,4.2296 Z " fill="#000000"/><text fill="#000000" font-family="sans-serif" font-size="0.12" font-style="italic" lengthAdjust="spacing" textLength="0.82" x="6.94" y="4.1636">&#171;ValueObject&#187;</text><text fill="#000000" font-family="sans-serif" font-size="0.14" lengthAdjust="spacing" textLength="0.76" x="6.97" y="4.3158">RobotModel</text><line style="stroke:#181818;stroke-width:0.005;" x1="6.68" x2="7.76" y1="4.3955" y2="4.3955"/><line style="stroke:#181818;stroke-width:0.005;" x1="6.68" x2="7.76" y1="4.4755" y2="4.4755"/></g><!--class RobotBrand--><g id="elem_RobotBrand"><rect codeLine="20" fill="#F1F1F1" height="0.5505" id="RobotBrand" rx="0.025" ry="0.025" style="stroke:#181818;stroke-width:0.005;" width="1.1" x="8.12" y="4.005"/><ellipse cx="8.27" cy="4.2002" fill="#A4C2E5" rx="0.11" ry="0.11" style="stroke:#181818;stroke-width:0.01;"/><path d="M8.2761,4.2296 L8.2945,4.192 Q8.2877,4.192 8.2858,4.1907 Q8.2816,4.1882 8.2816,4.1834 Q8.2816,4.1796 8.2842,4.1773 Q8.2869,4.1749 8.293,4.1749 L8.3163,4.1749 Q8.3225,4.1749 8.325,4.1773 Q8.3277,4.1796 8.3277,4.1834 Q8.3277,4.1871 8.325,4.1896 Q8.3225,4.192 8.3163,4.192 L8.3134,4.192 L8.285,4.2502 L8.2672,4.2502 L8.2388,4.192 L8.2364,4.192 Q8.2302,4.192 8.2275,4.1896 Q8.225,4.1871 8.225,4.1834 Q8.225,4.1796 8.2275,4.1773 Q8.2302,4.1749 8.2364,4.1749 L8.2592,4.1749 Q8.2653,4.1749 8.2678,4.1773 Q8.2705,4.1796 8.2705,4.1834 Q8.2705,4.1882 8.2666,4.1907 Q8.2645,4.192 8.2577,4.192 L8.2761,4.2296 Z " fill="#000000"/><text fill="#000000" font-family="sans-serif" font-size="0.12" font-style="italic" lengthAdjust="spacing" textLength="0.82" x="8.39" y="4.1636">&#171;ValueObject&#187;</text><text fill="#000000" font-family="sans-serif" font-size="0.14" lengthAdjust="spacing" textLength="0.76" x="8.42" y="4.3158">RobotBrand</text><line style="stroke:#181818;stroke-width:0.005;" x1="8.13" x2="9.21" y1="4.3955" y2="4.3955"/><line style="stroke:#181818;stroke-width:0.005;" x1="8.13" x2="9.21" y1="4.4755" y2="4.4755"/></g><!--class RobotTypeId--><g id="elem_RobotTypeId"><rect codeLine="21" fill="#F1F1F1" height="0.6845" id="RobotTypeId" rx="0.025" ry="0.025" style="stroke:#181818;stroke-width:0.005;" width="1.13" x="9.575" y="3.94"/><ellipse cx="9.725" cy="4.2023" fill="#FFA500" rx="0.11" ry="0.11" style="stroke:#181818;stroke-width:0.01;"/><path d="M9.7311,4.2316 L9.7495,4.194 Q9.7427,4.194 9.7408,4.1927 Q9.7366,4.1902 9.7366,4.1854 Q9.7366,4.1816 9.7392,4.1793 Q9.7419,4.177 9.748,4.177 L9.7713,4.177 Q9.7775,4.177 9.78,4.1793 Q9.7827,4.1816 9.7827,4.1854 Q9.7827,4.1891 9.78,4.1916 Q9.7775,4.194 9.7713,4.194 L9.7684,4.194 L9.74,4.2523 L9.7222,4.2523 L9.6938,4.194 L9.6914,4.194 Q9.6852,4.194 9.6825,4.1916 Q9.68,4.1891 9.68,4.1854 Q9.68,4.1816 9.6825,4.1793 Q9.6852,4.177 9.6914,4.177 L9.7142,4.177 Q9.7203,4.177 9.7228,4.1793 Q9.7255,4.1816 9.7255,4.1854 Q9.7255,4.1902 9.7216,4.1927 Q9.7195,4.194 9.7127,4.194 L9.7311,4.2316 Z " fill="#000000"/><text fill="#000000" font-family="sans-serif" font-size="0.12" font-style="italic" lengthAdjust="spacing" textLength="0.82" x="9.86" y="4.0986">&#171;ValueObject&#187;</text><text fill="#000000" font-family="sans-serif" font-size="0.12" font-style="italic" lengthAdjust="spacing" textLength="0.52" x="10.01" y="4.2327">&#171;unique&#187;</text><text fill="#000000" font-family="sans-serif" font-size="0.14" lengthAdjust="spacing" textLength="0.81" x="9.865" y="4.3849">RobotTypeId</text><line style="stroke:#181818;stroke-width:0.005;" x1="9.585" x2="10.695" y1="4.4645" y2="4.4645"/><line style="stroke:#181818;stroke-width:0.005;" x1="9.585" x2="10.695" y1="4.5445" y2="4.5445"/></g><!--class RobotTypeDescription--><g id="elem_RobotTypeDescription"><rect codeLine="22" fill="#F1F1F1" height="0.5505" id="RobotTypeDescription" rx="0.025" ry="0.025" style="stroke:#181818;stroke-width:0.005;" width="1.73" x="11.055" y="4.005"/><ellipse cx="11.205" cy="4.2002" fill="#A4C2E5" rx="0.11" ry="0.11" style="stroke:#181818;stroke-width:0.01;"/><path d="M11.2111,4.2296 L11.2295,4.192 Q11.2227,4.192 11.2208,4.1907 Q11.2166,4.1882 11.2166,4.1834 Q11.2166,4.1796 11.2192,4.1773 Q11.2219,4.1749 11.228,4.1749 L11.2513,4.1749 Q11.2575,4.1749 11.26,4.1773 Q11.2627,4.1796 11.2627,4.1834 Q11.2627,4.1871 11.26,4.1896 Q11.2575,4.192 11.2513,4.192 L11.2484,4.192 L11.22,4.2502 L11.2022,4.2502 L11.1738,4.192 L11.1714,4.192 Q11.1652,4.192 11.1625,4.1896 Q11.16,4.1871 11.16,4.1834 Q11.16,4.1796 11.1625,4.1773 Q11.1652,4.1749 11.1714,4.1749 L11.1942,4.1749 Q11.2003,4.1749 11.2028,4.1773 Q11.2055,4.1796 11.2055,4.1834 Q11.2055,4.1882 11.2016,4.1907 Q11.1995,4.192 11.1927,4.192 L11.2111,4.2296 Z " fill="#000000"/><text fill="#000000" font-family="sans-serif" font-size="0.12" font-style="italic" lengthAdjust="spacing" textLength="0.82" x="11.64" y="4.1636">&#171;ValueObject&#187;</text><text fill="#000000" font-family="sans-serif" font-size="0.14" lengthAdjust="spacing" textLength="1.41" x="11.345" y="4.3158">RobotTypeDescription</text><line style="stroke:#181818;stroke-width:0.005;" x1="11.065" x2="12.775" y1="4.3955" y2="4.3955"/><line style="stroke:#181818;stroke-width:0.005;" x1="11.065" x2="12.775" y1="4.4755" y2="4.4755"/></g><!--link MobileRobot to Robot--><g id="link_MobileRobot_Robot"><path codeLine="25" d="M2.7375,0.7807 C2.7375,0.7807 2.7375,1.1758 2.7375,1.1758 " fill="none" id="MobileRobot-to-Robot" style="stroke:#181818;stroke-width:0.01;"/><polygon fill="none" points="2.8075,1.1758,2.7375,1.3758,2.6675,1.1758,2.8075,1.1758" style="stroke:#181818;stroke-width:0.01;"/></g><!--link Drone to Robot--><g id="link_Drone_Robot"><path codeLine="26" d="M3.275,0.7807 C3.275,0.7807 3.275,1.1758 3.275,1.1758 " fill="none" id="Drone-to-Robot" style="stroke:#181818;stroke-width:0.01;"/><polygon fill="none" points="3.345,1.1758,3.275,1.3758,3.205,1.1758,3.345,1.1758" style="stroke:#181818;stroke-width:0.01;"/></g><!--reverse link Code to Robot--><g id="link_Code_Robot"><path codeLine="27" d="M2.3027,1.72 C2.3027,1.72 2.5999,1.72 2.5999,1.72 " fill="none" id="Code-backto-Robot" style="stroke:#181818;stroke-width:0.01;"/><polygon fill="#181818" points="2.2527,1.72,2.3427,1.76,2.3027,1.72,2.3427,1.68,2.2527,1.72" style="stroke:#181818;stroke-width:0.01;"/><text fill="#000000" font-family="sans-serif" font-size="0.13" lengthAdjust="spacing" textLength="0.07" x="2.3317" y="1.6883">1</text><text fill="#000000" font-family="sans-serif" font-size="0.13" lengthAdjust="spacing" textLength="0.07" x="2.4484" y="1.6833">1</text></g><!--link Robot to RobotType--><g id="link_Robot_RobotType"><path codeLine="28" d="M3.3222,1.72 C4.4681,1.72 7.94,1.72 7.94,1.72 C7.94,1.72 7.94,2.607 7.94,2.607 " fill="none" id="Robot-to-RobotType" style="stroke:#181818;stroke-width:0.01;"/><polygon fill="#181818" points="7.94,2.657,7.98,2.567,7.94,2.607,7.9,2.567,7.94,2.657" style="stroke:#181818;stroke-width:0.01;"/><text fill="#000000" font-family="sans-serif" font-size="0.13" lengthAdjust="spacing" textLength="0.05" x="3.4021" y="1.6833">*</text><text fill="#000000" font-family="sans-serif" font-size="0.13" lengthAdjust="spacing" textLength="0.07" x="7.8631" y="2.5534">1</text></g><!--link Robot to OperationStatus--><g id="link_Robot_OperationStatus"><path codeLine="29" d="M2.89,2.063 C2.89,2.063 2.89,2.6749 2.89,2.6749 " fill="none" id="Robot-to-OperationStatus" style="stroke:#181818;stroke-width:0.01;"/><polygon fill="#181818" points="2.89,2.7249,2.93,2.6349,2.89,2.6749,2.85,2.6349,2.89,2.7249" style="stroke:#181818;stroke-width:0.01;"/><text fill="#000000" font-family="sans-serif" font-size="0.13" lengthAdjust="spacing" textLength="0.05" x="2.8213" y="2.2621">*</text><text fill="#000000" font-family="sans-serif" font-size="0.13" lengthAdjust="spacing" textLength="0.07" x="2.9407" y="2.619">1</text></g><!--link Robot to Nickname--><g id="link_Robot_Nickname"><path codeLine="30" d="M2.745,2.0625 C2.745,2.2146 2.745,2.36 2.745,2.36 C2.745,2.36 1.24,2.36 1.24,2.36 C1.24,2.36 1.24,2.6749 1.24,2.6749 " fill="none" id="Robot-to-Nickname" style="stroke:#181818;stroke-width:0.01;"/><polygon fill="#181818" points="1.24,2.7249,1.28,2.6349,1.24,2.6749,1.2,2.6349,1.24,2.7249" style="stroke:#181818;stroke-width:0.01;"/><text fill="#000000" font-family="sans-serif" font-size="0.13" lengthAdjust="spacing" textLength="0.07" x="2.6258" y="2.2615">1</text><text fill="#000000" font-family="sans-serif" font-size="0.13" lengthAdjust="spacing" textLength="0.07" x="1.2736" y="2.619">1</text></g><!--link Robot to SerialNumber--><g id="link_Robot_SerialNumber"><path codeLine="31" d="M3.1775,2.063 C3.1775,2.4422 3.1775,3 3.1775,3 C3.1775,3 3.3316,3 3.3316,3 " fill="none" id="Robot-to-SerialNumber" style="stroke:#181818;stroke-width:0.01;"/><polygon fill="#181818" points="3.3816,3,3.2916,2.96,3.3316,3,3.2916,3.04,3.3816,3" style="stroke:#181818;stroke-width:0.01;"/><text fill="#000000" font-family="sans-serif" font-size="0.13" lengthAdjust="spacing" textLength="0.07" x="3.1434" y="2.2621">1</text><text fill="#000000" font-family="sans-serif" font-size="0.13" lengthAdjust="spacing" textLength="0.07" x="3.2356" y="2.9694">1</text></g><!--link RobotType to RobotModel--><g id="link_RobotType_RobotModel"><path codeLine="33" d="M7.6,3.343 C7.6,3.343 7.6,3.9549 7.6,3.9549 " fill="none" id="RobotType-to-RobotModel" style="stroke:#181818;stroke-width:0.01;"/><polygon fill="#181818" points="7.6,4.0049,7.64,3.9149,7.6,3.9549,7.56,3.9149,7.6,4.0049" style="stroke:#181818;stroke-width:0.01;"/><text fill="#000000" font-family="sans-serif" font-size="0.13" lengthAdjust="spacing" textLength="0.05" x="7.4781" y="3.5421">*</text><text fill="#000000" font-family="sans-serif" font-size="0.13" lengthAdjust="spacing" textLength="0.07" x="7.6141" y="3.899">1</text></g><!--link RobotType to RobotBrand--><g id="link_RobotType_RobotBrand"><path codeLine="34" d="M8.285,3.343 C8.285,3.343 8.285,3.9549 8.285,3.9549 " fill="none" id="RobotType-to-RobotBrand" style="stroke:#181818;stroke-width:0.01;"/><polygon fill="#181818" points="8.285,4.0049,8.325,3.9149,8.285,3.9549,8.245,3.9149,8.285,4.0049" style="stroke:#181818;stroke-width:0.01;"/><text fill="#000000" font-family="sans-serif" font-size="0.13" lengthAdjust="spacing" textLength="0.05" x="8.298" y="3.5421">*</text><text fill="#000000" font-family="sans-serif" font-size="0.13" lengthAdjust="spacing" textLength="0.07" x="8.1126" y="3.899">1</text></g><!--link RobotType to AvailableTask--><g id="link_RobotType_AvailableTask"><path codeLine="35" d="M7.4279,3 C6.7723,3 5.72,3 5.72,3 C5.72,3 5.72,3.9523 5.72,3.9523 " fill="none" id="RobotType-to-AvailableTask" style="stroke:#181818;stroke-width:0.01;"/><polygon fill="#181818" points="5.72,4.0023,5.76,3.9123,5.72,3.9523,5.68,3.9123,5.72,4.0023" style="stroke:#181818;stroke-width:0.01;"/><text fill="#000000" font-family="sans-serif" font-size="0.13" lengthAdjust="spacing" textLength="0.05" x="7.299" y="2.9675">*</text><text fill="#000000" font-family="sans-serif" font-size="0.13" lengthAdjust="spacing" textLength="0.05" x="5.6639" y="3.8958">*</text></g><!--link RobotType to RobotTypeId--><g id="link_RobotType_RobotTypeId"><path codeLine="36" d="M8.4503,3.12 C9.1002,3.12 10.14,3.12 10.14,3.12 C10.14,3.12 10.14,3.8882 10.14,3.8882 " fill="none" id="RobotType-to-RobotTypeId" style="stroke:#181818;stroke-width:0.01;"/><polygon fill="#181818" points="10.14,3.9382,10.18,3.8482,10.14,3.8882,10.1,3.8482,10.14,3.9382" style="stroke:#181818;stroke-width:0.01;"/><text fill="#000000" font-family="sans-serif" font-size="0.13" lengthAdjust="spacing" textLength="0.07" x="8.5304" y="3.1051">1</text><text fill="#000000" font-family="sans-serif" font-size="0.13" lengthAdjust="spacing" textLength="0.07" x="10.0628" y="3.831">1</text></g><!--link RobotType to RobotTypeDescription--><g id="link_RobotType_RobotTypeDescription"><path codeLine="37" d="M8.4522,2.89 C9.5271,2.89 11.92,2.89 11.92,2.89 C11.92,2.89 11.92,3.9521 11.92,3.9521 " fill="none" id="RobotType-to-RobotTypeDescription" style="stroke:#181818;stroke-width:0.01;"/><polygon fill="#181818" points="11.92,4.0021,11.96,3.9121,11.92,3.9521,11.88,3.9121,11.92,4.0021" style="stroke:#181818;stroke-width:0.01;"/><text fill="#000000" font-family="sans-serif" font-size="0.13" lengthAdjust="spacing" textLength="0.05" x="8.5311" y="2.8413">*</text><text fill="#000000" font-family="sans-serif" font-size="0.13" lengthAdjust="spacing" textLength="0.07" x="11.8415" y="3.8956">1</text></g><!--SRC=[hL9DJuD04BtpApRqe3Pog68Raqg2fOSUsYQsyRx0H5UMNLoM9etwtrrWs_9XRJ5osMNUl9dPUI-D24kmm36YX87S9e2uaA_SC2uU_lWP0WA9sGi5rBE7jZSQVHW1nMcAdhZF9HgFrKMTZfDVfqmIkLK_EiSJd07w2Pbpdr0eQzHndJ3XOScyt5npeIQ0A_ICQGPB_qsDf1jcZBndS2Yx8474SBndzbnxSZEzQr9rzZ81WINXR2MnpDBpI2iG1DD55liWJZ6-_cVnzqFtjh7uTIxkxyjtDvXGx5DOupGwxsr5wRdQFEsG_wZK2JlavwFFmixIxhaUf84WIQxRwVqRsgQVLcPLJLUB5pRL4NDWMjHor55OS1VjcrOPt8zHGS8IQjYfKh34T-Pi0LLBwOaBVHjT2s6EmuKERRXlrfrGpHYqNZKBZpTeBD_u1W00]--></g></svg>